<?xml version="1.0" encoding="UTF-8" standalone="no"?>
<!-- Created with Inkscape (http://www.inkscape.org/) -->

<svg
   version="1.1"
   id="svg1"
   width="72"
   height="81"
   viewBox="0 0 72 81.000001"
   xmlns="http://www.w3.org/2000/svg"
   xmlns:svg="http://www.w3.org/2000/svg">
  <defs
     id="defs1">
    <clipPath
       clipPathUnits="userSpaceOnUse"
       id="clipPath2">
      <rect
         style="fill:#000000"
         id="rect2"
         width="72"
         height="81"
         x="-36.44191"
         y="-660.92371" />
    </clipPath>
  </defs>
  <g
     id="g1"
     transform="translate(36.44191,660.9237)">
    <path
       style="fill:#304a6e;stroke:none;stroke-width:0.743574"
       d="m 75.522564,-661.00016 c -4.910174,0.98193 -9.380836,2.37455 -13.100513,5.92384 -7.038456,6.7159 -6.893689,18.13514 0.454759,24.59726 5.312035,4.67128 12.747597,6.29047 19.588988,4.91529 3.108919,-0.62493 6.163903,-1.85817 8.679099,-3.80675 1.848866,-1.43238 3.441451,-2.96142 4.6286,-5.00074 6.793553,-11.67002 -1.851916,-24.24393 -14.299568,-26.29668 -1.973622,-0.32548 -3.937423,-0.73497 -5.951365,-0.33222 m 185.236236,0.0485 c -5.75393,1.44236 -10.99485,2.99543 -14.75098,7.99966 -6.12038,8.15397 -3.25859,19.16131 5.08001,24.50417 5.21303,3.34023 11.92661,4.1355 17.8541,2.65464 7.99023,-1.99624 15.06164,-8.81015 14.84642,-17.49685 -0.23002,-9.28426 -7.98628,-15.71183 -16.58229,-17.32211 -2.09674,-0.39278 -4.31675,-0.87359 -6.44726,-0.33951 m -220.696474,36.49008 3.471655,9.16649 -7.935179,0.47332 -3.967552,0.51765 c 24.227338,11.81923 51.367195,6.8049 76.87177,12.85396 5.10575,1.21096 9.53885,3.85388 14.13449,6.27652 6.84794,3.60995 13.86281,6.94591 20.82978,10.3165 3.21619,1.55599 6.50596,3.6516 9.91892,4.71917 11.48003,3.59092 24.81153,2.74754 36.70013,2.74754 14.9287,0 29.54295,-0.20943 44.38721,-1.69233 8.41583,-0.84072 17.35173,-2.0297 25.29331,-5.04433 13.04435,-4.95164 25.44119,-11.96147 38.68387,-16.33077 5.34656,-1.76402 11.14832,-2.11637 16.61428,-3.4124 5.42928,-1.28733 14.32925,-2.8957 12.39862,-10.18612 l -7.9351,0.99097 c -0.63843,-2.58846 -0.75396,-5.29429 -1.1356,-7.92777 -0.12036,-0.83027 -0.63746,-2.35523 0.0461,-3.03676 1.01032,-1.00706 4.38147,-0.75478 5.80079,-1.17582 4.83102,-1.43314 6.99911,-6.32034 5.17531,-11.14747 -0.43787,-1.15877 -1.31042,-2.48653 -2.47078,-3.02147 -1.17153,-0.54011 -2.57568,-0.23492 -3.34586,-1.46485 -1.21088,-1.93362 -1.01873,-4.42323 -2.90226,-5.97106 -2.00219,-1.64539 -4.95912,-1.18654 -7.36727,-1.18654 h -17.11017 c -1.97347,0 -5.57695,-0.70113 -7.364,0.14949 -1.27381,0.60632 -1.84254,5.19447 -2.35458,6.53957 -1.73765,4.56443 -4.4819,9.05865 -8.13552,12.34489 -8.72849,7.85094 -22.7842,7.13998 -31.24466,-0.72314 -5.17047,-4.80551 -8.01835,-11.5083 -9.42295,-18.31081 H 144.45898 116.19 c -3.70205,0 -9.06103,-1.00203 -12.58997,0.0788 -1.02668,0.31443 -0.91762,2.03092 -1.06938,2.89417 -0.50193,2.85427 -1.4755,5.59428 -2.768132,8.17551 -3.388782,6.76705 -9.515935,11.67353 -17.04895,13.01548 -16.391175,2.91997 -28.696437,-8.28773 -30.748691,-24.16391 H 38.822285 c -1.443281,0 -4.126453,-0.5126 -5.390151,0.25462 -2.268958,1.37755 -3.094041,5.82564 -4.736766,7.88783 -1.299555,1.63145 -4.042316,1.01934 -5.602318,2.55274 -1.181197,1.16099 -0.58554,2.50969 -0.432069,3.92164 0.29184,2.68451 -0.347411,6.78479 2.278629,8.48807 1.333627,0.86499 3.195139,0.67842 4.707679,0.67842 3.480432,0 6.929025,-0.24775 10.414888,-0.24775 m 10.662838,-22.29685 1.983813,8.17551 -22.813591,-0.24775 c 0.610164,-1.92629 2.707425,-6.85641 4.516342,-7.84537 1.203441,-0.6579 3.554081,-0.33014 4.906678,-0.33014 3.813039,0 7.606588,0.24775 11.406758,0.24775 m 62.241385,-0.24775 -2.51461,5.69809 -1.08352,2.45199 -7.06471,0.27318 1.73579,-8.17551 8.92705,-0.24775 m 76.12785,0 -1.48784,8.42326 c -19.27313,-1.29068 -38.94946,-0.24775 -58.27376,-0.24775 -4.58114,0 -9.33747,-0.35923 -13.88654,0.17701 -0.89531,0.10555 -3.88811,0.55149 -4.09097,-0.72907 -0.13748,-0.8676 0.47328,-2.10351 0.74734,-2.91633 0.47864,-1.41932 1.21951,-3.44838 2.6221,-4.20475 1.07362,-0.57897 3.22512,-0.48697 4.44113,-0.50141 3.22266,-0.0383 6.44808,-7.4e-4 9.67097,-7.4e-4 h 40.41973 c 6.53274,0 13.33872,0.57479 19.83784,0 m 44.13934,8.42325 -20.33388,-0.24774 -23.55744,0.24774 -0.24802,-0.24774 1.48784,-7.92777 c 9.48298,-7.5e-4 19.0129,-0.24774 28.51701,-0.24774 2.878,0 8.53998,-1.08184 11.08992,0.35785 1.49721,0.84532 2.87518,6.41151 3.04457,8.0654 m 3.47158,-8.17551 2.23176,8.17551 h -3.96755 l -2.97568,-8.17551 h 4.71147 m 86.79076,7.92777 h -7.93518 -17.11017 -11.40676 l 2.47971,-7.92777 h 21.32575 c 2.45814,0 6.48268,-0.75817 8.65574,0.56449 2.28458,1.39056 2.24858,5.34747 3.99091,7.36328 m -274.754654,0.74323 c 0.465248,5.3239 4.817035,8.25197 6.943235,12.63488 -7.284992,0 -14.569314,-0.0117 -21.821647,0 -2.202973,0.004 -6.495469,0.81113 -8.362263,-0.51765 -1.862108,-1.32545 -1.146531,-4.7514 -1.351779,-6.66689 -0.105116,-0.98096 -0.554667,-1.97063 -0.392641,-2.96909 0.13398,-0.82541 0.699211,-1.31313 1.431378,-1.648 3.250115,-1.48645 7.232917,-0.8708 10.659043,-0.83421 4.155243,0.0444 8.820146,-0.67076 12.894674,7.4e-4 m 57.529834,0 c -4.26289,17.97195 -28.157917,24.45645 -43.395342,16.89372 -7.082273,-3.51509 -11.484126,-9.51743 -13.886543,-16.89372 5.145476,-1.26129 5.97822,4.15771 8.785256,7.43229 3.382533,3.9459 7.92945,6.69413 13.036387,7.76298 7.921862,1.65798 16.877699,0.33239 23.309563,-4.79102 2.277066,-1.81388 4.102945,-3.97846 5.64658,-6.44036 0.680609,-1.08557 1.281849,-3.22101 2.391479,-3.90693 0.94292,-0.58285 3.10535,-0.34159 4.11262,-0.0569 m 3.22363,-0.24774 -1.73579,13.37812 c -2.57411,-0.61225 -6.35293,-0.61225 -8.927047,0 l 4.109567,-5.2026 4.07356,-8.17552 h 2.47971 m 76.62383,13.13037 h -76.87178 l 0.99187,-9.41422 1.06708,-3.42941 4.88429,-0.0612 11.15881,0.0222 h 42.65149 12.64666 l 4.55301,0.0201 -0.0186,3.20059 -1.06254,9.66197 m 55.5461,0 H 187.6067 l 0.93087,-9.66197 0.70665,-3.16293 2.82601,-0.0612 7.19126,0.004 h 24.79732 l 6.19939,-0.0212 3.11993,0.0494 2.39691,4.18352 5.88992,8.671 m 50.5866,-12.88263 c -6.38849,23.38388 -41.82894,26.05804 -53.8571,6.44132 -1.21333,-1.97879 -2.63184,-4.16914 -3.17684,-6.44132 1.16803,-0.0921 2.83062,-0.6321 3.91481,0.007 1.07177,0.63172 1.63789,2.44858 2.30407,3.46152 1.4072,2.13953 3.03646,4.18598 4.93993,5.90378 5.10189,4.60418 11.52765,6.6467 18.35007,6.47973 6.32176,-0.1547 12.04147,-3.2238 16.35748,-7.68002 1.4952,-1.54382 2.76597,-3.3551 3.86399,-5.19898 0.52209,-0.87668 0.89688,-2.17793 1.73148,-2.81367 0.88735,-0.67598 4.47803,-0.47061 5.57211,-0.15924 m -7.68715,12.88263 4.85073,-5.94583 3.58034,-7.18454 c 7.72279,1.43243 16.6912,0.26035 24.54939,0.24774 2.37734,-0.004 7.12995,-1.21218 9.16428,0.14949 2.58341,1.72915 2.34893,7.81628 0.43147,9.9751 -1.01805,1.14626 -2.93952,1.60739 -4.38831,1.90337 -5.30096,1.08295 -10.7405,0.85467 -16.11831,0.85467 h -22.06959 m -176.80516,0.49548 1.36368,13.37812 2.85189,9.66197 c -17.55325,-4.68803 -35.918344,-3.67637 -53.810301,-6.16128 -5.276852,-0.73286 -10.521716,-1.78722 -15.622333,-3.32234 -2.071819,-0.62356 -4.681791,-1.13061 -6.447263,-2.40804 2.422652,-0.71547 6.446593,-0.97905 8.927048,-0.49549 0.199222,-3.29692 -2.773708,-7.82546 -3.967627,-10.90068 h 10.414889 c 1.505919,0 3.524101,-0.34766 4.959496,0.14586 1.911206,0.6571 3.614189,2.55727 5.455393,3.50625 4.417471,2.27678 9.410964,3.47242 14.382511,3.53148 5.15299,0.0612 10.394803,-0.66885 15.126361,-2.80144 2.308684,-1.04057 4.354763,-3.18745 6.695286,-3.98855 2.68444,-0.91881 6.83395,-0.14586 9.67097,-0.14586 m 78.35961,0 3.22371,46.08018 c -11.16759,0 -23.34416,0.70256 -34.22035,-2.23332 -3.21493,-0.86781 -6.20646,-2.66886 -9.17507,-4.14129 -4.86576,-2.41343 -9.76842,-4.76135 -14.63039,-7.19009 -4.31593,-2.15596 -8.70149,-4.21567 -12.89467,-6.60684 -1.39939,-0.79803 -3.65905,-1.35256 -4.62407,-2.68599 -4.35007,-6.01109 -4.55093,-16.14643 -4.55093,-23.22265 h 76.87177 m 1.84336,0.14949 c 1.18909,-0.60292 3.53571,-0.14949 4.85193,-0.14949 h 11.90273 25.78927 c 3.56918,0 8.48226,-0.88232 11.90273,0.12713 1.88844,0.55731 3.47047,2.4489 5.20745,3.3927 3.08437,1.67588 8.37044,3.00573 9.98743,6.38989 1.72284,3.60574 -2.03976,8.22408 -4.06821,10.90068 -4.10123,5.41171 -8.81107,10.32173 -13.60638,15.11232 -3.0994,3.0963 -6.7295,6.71403 -10.66291,8.74057 -2.36797,1.22003 -5.60745,0.71855 -8.18313,0.96345 -7.01963,0.66743 -14.01985,0.70118 -21.07772,0.70118 h -6.69529 c -0.71238,-2.7e-4 -1.96023,0.20134 -2.47287,-0.43165 -0.74883,-0.92472 -0.45907,-3.8411 -0.51256,-5.01869 -0.19416,-4.27281 -0.37062,-8.6238 -0.77628,-12.88263 -0.67444,-7.0804 -1.92973,-14.17938 -1.94171,-21.30589 0,-1.31742 -1.06477,-5.81937 0.35552,-6.53957 m 130.32657,12.73314 8.18312,-0.99097 c -3.7e-4,3.86288 -2.76984,5.23502 -6.19931,6.29585 -5.77848,1.78741 -11.69845,2.65944 -17.60615,3.86256 -8.59035,1.74946 -16.55238,6.08054 -24.54938,9.55589 -15.03233,6.53277 -29.9858,12.5221 -46.61905,13.2355 2.42035,-3.13301 6.64239,-5.72275 9.59048,-8.45097 4.67688,-4.32812 8.9237,-9.30652 12.89244,-14.28039 2.3865,-2.99085 6.81312,-8.30766 4.85155,-12.44812 -0.79837,-1.68535 -2.41871,-2.57459 -3.77696,-3.71615 1.31168,-0.19468 2.63928,0.38193 3.96755,0.47332 3.59344,0.24723 7.34652,0.36229 10.91087,-0.30242 3.42486,-0.63869 6.59679,-1.84395 9.67096,-3.45482 1.39426,-0.7306 2.71234,-2.09126 4.21558,-2.53478 1.69316,-0.49959 3.9462,-0.12713 5.70334,-0.12713 h 11.65478 11.15881 c 1.02304,0 3.22356,-0.41182 4.0659,0.25463 0.69452,0.54947 0.57304,2.63335 0.64557,3.46152 0.26283,2.9983 0.53503,6.24279 1.2399,9.16648 m -31.49262,-7.05341 c -2.74142,0.63334 -4.25456,4.01076 -2.38196,6.29948 1.36673,1.67052 3.60437,2.0373 5.60559,1.48264 2.75548,-0.76368 3.96525,-4.17034 2.09339,-6.38092 -1.25744,-1.48498 -3.49456,-1.82223 -5.31702,-1.4012 m -115.52894,2.28246 c -1.53099,0.32829 -1.62234,3.0452 -0.24162,3.6305 1.72515,0.73131 7.8796,0.73131 9.60476,0 1.29925,-0.55077 1.31249,-3.02653 -0.0223,-3.54888 -0.79868,-0.31249 -1.83659,-0.0283 -2.67202,-0.0187 -2.05404,0.0236 -4.68372,-0.48847 -6.6685,-0.0629 m 68.69504,-0.036 c -1.4069,0.42936 -1.52131,3.0058 -0.21224,3.63202 1.81941,0.87031 5.36665,0.1839 7.37032,0.1839 0.72942,0 1.73096,0.16623 2.41068,-0.14948 1.2692,-0.58951 1.02371,-3.07892 -0.20592,-3.55498 -0.84457,-0.327 -1.82655,-0.0363 -2.70066,-0.0153 -1.98753,0.0479 -4.78802,-0.66814 -6.66218,-0.0962 m -149.561147,0.34752 c -0.151388,0.81503 -0.458255,1.89153 0.04463,2.64643 0.610387,0.91674 4.016725,0.92505 4.765481,0.177 1.971241,-1.96943 -0.935703,-2.82333 -2.330108,-2.82343 H 90.40172 m 146.05639,34.43627 c 5.33867,-0.0442 10.79481,-1.71429 15.87028,-3.24933 9.59956,-2.90331 18.34345,-6.4808 27.27712,-11.05592 4.48301,-2.29586 10.27124,-4.26783 14.13449,-7.49613 -3.56911,-0.61317 -7.5322,-0.24774 -11.15881,-0.24774 -4.75529,0 -9.65616,-0.33251 -14.38244,0.17606 -2.54339,0.27365 -5.51543,-0.47971 -7.93518,0.58838 -2.05419,0.90673 -3.79221,2.93519 -5.45539,4.39973 -3.33864,2.93982 -6.69484,5.88307 -9.91899,8.94761 -2.57776,2.45021 -6.66077,4.8491 -8.43108,7.93734 m -119.27525,-21.55363 c 0.73693,1.45323 2.39349,2.38784 3.71961,3.28374 3.02924,2.04661 6.2133,3.86886 9.42294,5.61492 8.75133,4.7607 18.28691,10.36501 28.02104,12.78494 3.96985,0.98692 8.09661,1.08156 12.15067,1.37847 4.09447,0.29985 8.29279,0.47349 12.39871,0.47349 0.93444,0 3.31446,0.42563 3.96048,-0.39722 0.83007,-1.05727 -0.0625,-4.98811 -0.24088,-6.29183 -0.7649,-5.5799 -0.78074,-11.25676 -1.48784,-16.84651 h -67.94473 m 74.14404,0.24774 c 1.24369,5.21897 0.76617,11.48067 1.00169,16.84652 0.0506,1.14926 -0.25702,5.23249 0.63583,5.93894 0.94842,0.75051 2.98074,0.0641 4.0659,0.0167 3.48891,-0.15264 6.9384,0.23799 10.41489,0.23799 6.1546,0 13.95253,0.98683 19.83791,-1.08693 6.34794,-2.23678 11.76577,-8.77603 15.62575,-14.02538 1.79278,-2.43808 4.67859,-5.19634 5.45197,-8.17552 h -38.93182 -11.90273 l -6.19939,0.24774 m 191.68358,61.93572 c -0.84261,-3.53564 -0.24798,-7.76786 -0.24798,-11.39617 v -22.29686 c 0,-2.9631 0.53763,-6.52338 -0.13125,-9.41423 -1.07018,-4.62522 -5.87566,-3.25412 -9.00724,-4.60886 -1.19688,-0.51777 -1.28597,-2.09656 -2.76424,-2.5774 -1.52407,-0.49575 -3.75569,-0.42684 -5.20745,0.26189 -0.87387,0.41457 -1.70506,1.52414 -2.7277,1.48531 -2.06764,-0.0785 -3.85591,-2.27927 -5.95137,-2.49694 -2.56875,-0.26684 -6.89354,3.03588 -9.17499,4.15945 -0.839,0.41318 -2.19598,0.82146 -2.72089,1.64359 -0.80515,1.26102 -0.2548,4.14073 -0.2548,5.60136 v 14.12134 53.51246 15.6078 c 0,1.45485 -0.59082,4.5771 0.2548,5.80494 0.57475,0.83452 2.08119,1.01549 2.96884,1.35762 2.3281,0.89735 6.95409,3.62069 9.42299,3.10921 1.79033,-0.37092 3.5657,-2.45471 5.38461,-2.45086 0.81585,10e-4 1.60953,0.99763 2.30257,1.36566 1.40087,0.7439 3.41626,0.9587 4.95947,0.59124 1.61631,-0.38484 2.11138,-1.83185 3.48234,-2.46595 2.9749,-1.37598 6.79055,-0.938 8.59928,-4.33894 1.44429,-2.71566 0.56503,-7.40108 0.56503,-10.4052 v -24.03107 c 0,-2.81251 -0.97504,-7.79499 0.14962,-10.3685 0.4734,-1.08329 2.12276,-0.77992 3.07404,-0.77992 1.69222,0 3.80617,-0.33818 5.44567,0.10647 1.20732,0.32746 2.05637,1.61085 3.42473,0.80556 1.27677,-0.75141 0.6371,-2.49808 -0.68843,-2.70549 -0.99562,-0.1558 -1.97122,0.60589 -2.97453,0.67518 -2.62334,0.18116 -5.65922,-0.421 -8.18312,0.12731 M -3.0843261,-560.79148 c 0,-5.91427 0.1062319,-11.91023 0.251594,-17.83748 0.060258,-2.45068 0.9267019,-5.44628 -0.4982037,-7.67621 -2.4884889,-3.89421 -8.5724952,-2.53613 -12.3963982,-2.75231 -1.916414,-0.10835 -3.264026,-2.5592 -5.459038,-2.87523 -1.39805,-0.20128 -3.276524,-0.0665 -4.407879,0.86805 -0.639102,0.52787 -0.823222,1.53341 -1.599206,1.88119 -3.018308,1.35286 -6.908641,0.17589 -8.758102,3.86545 -0.844871,1.68554 -0.361248,4.35162 -0.361248,6.19357 v 13.62585 49.05309 14.86457 c 0,2.03371 -0.501998,4.84254 0.476034,6.68888 1.927127,3.6379 5.654913,2.8668 8.689216,4.46623 2.059767,1.08573 2.74291,2.91135 5.465213,2.64395 2.452929,-0.24096 3.991134,-2.44418 6.199313,-2.63611 3.430888,-0.29819 7.8174929,0.87372 10.8884717,-1.1242 3.60198918,-2.34342 2.0062051,-10.48975 2.0062051,-14.25037 0,-3.73333 0.9798923,-9.02821 -0.078856,-12.59819 -0.4006012,-1.35073 -2.5128895,-0.7766 -2.8402145,-2.51795 -0.4518574,-2.40372 -0.056538,-5.2309 -0.056538,-7.67621 v -15.36006 -12.63488 c 6.695e-4,-1.90146 0.258438,-3.8682 2.4797106,-4.21163 m 357.8258221,-17.342 -8.43108,-7.43228 v -0.49549 c 3.99314,-1.89033 8.84752,-6.01672 13.14257,-3.90348 1.59055,0.78257 4.00424,1.34906 3.39281,3.63357 -0.28875,1.07886 -1.60294,1.9779 -2.39117,2.70164 -1.93296,1.7748 -3.99479,3.51139 -5.71313,5.49604 m -378.159481,-12.54963 c 1.847824,-0.38105 4.567673,0.17035 5.305642,2.14539 0.498352,1.33376 0.149602,3.29657 0.149602,4.70616 0,3.72845 -0.365934,7.69809 0.07067,11.39617 0.810948,6.86674 0.177127,14.14109 0.177127,21.05814 v 40.13434 c 0,3.60921 -0.224589,7.30022 0.02232,10.90069 0.182558,2.66396 0.872172,6.26642 0.146924,8.87667 -0.401345,1.44437 -2.296111,2.24696 -3.640747,2.44495 -1.279172,0.18832 -3.003506,0.0854 -3.712759,-1.19017 -0.690508,-1.24194 -0.254868,-3.54295 -0.254868,-4.92885 v -11.89166 -61.19248 -17.09426 c 0,-1.83734 -0.663874,-4.8702 1.736014,-5.36509 m 391.798016,0.009 c 1.02577,-0.063 2.56955,0.13249 3.03959,1.19168 0.61197,1.37906 0.18407,3.66799 0.18407,5.15577 v 12.1394 61.19249 16.84651 c 0,1.99029 0.50348,4.96327 -2.23176,5.18827 -1.68454,0.13857 -4.00209,-0.069 -4.91507,-1.743 -0.70308,-1.28913 -0.29238,-3.50378 -0.29238,-4.93172 v -11.64394 -61.44023 -12.88263 c 0,-1.93916 -0.36712,-4.30698 0.10389,-6.19356 0.46425,-1.85953 2.32878,-2.7697 4.11166,-2.87906 m -395.021871,2.63131 v 65.15637 20.56266 l 0.248023,10.4052 c -2.683396,0.67702 -7.452447,-1.25157 -8.404145,-3.96484 -0.57996,-1.65335 -0.274953,-3.72112 -0.274953,-5.44939 v -10.65309 -55.24665 -13.13037 c 0,-1.7887 -0.295039,-3.98949 1.048333,-5.4037 1.952271,-2.05516 4.883987,-1.682 7.382742,-2.27633 m 22.8135929,4.21163 -12.6466529,0.24774 v -4.21163 c 4.178081,-0.32945 11.4029664,-1.37675 12.6466529,3.96389 m 376.9197781,92.40808 -0.24797,-0.24775 0.24797,-13.87359 v -26.26074 -35.92272 l -0.24797,-19.81943 c 2.36604,-0.64993 7.09128,0.24713 8.18083,2.74734 0.63394,1.45472 0.24785,3.62206 0.25027,5.18044 v 11.14842 57.2286 c 0,3.70632 -0.14442,7.44579 0.0185,11.14843 0.0838,1.90495 0.43958,4.10144 -0.86026,5.68738 -1.66655,2.03338 -4.90416,2.51114 -7.34143,2.98362 m -26.78111,-93.6468 7.68715,7.18455 v 0.49548 l -7.68715,6.9368 -0.24802,-9.90971 0.24802,-4.70712 m 16.6142,0 v 15.11231 c -2.88339,-1.53555 -6.30977,-5.27085 -8.18313,-7.92776 l 8.18313,-7.18455 M 7.8264976,-495.38751 h 8.6790244 v -23.04009 -47.07115 -13.13036 l -0.08644,-4.80538 -1.897295,-0.39722 -6.3300203,0.14948 -0.3652651,5.05312 v 16.10328 67.13832 m 26.5331154,-88.19646 c -1.425278,7.55793 -2.213462,15.23219 -3.624084,22.79234 -0.328739,1.76169 -1.910314,3.03646 -2.149856,4.70712 -0.604585,4.21601 0.07067,9.09754 0.07067,13.37811 0,6.34314 -0.60265,13.01043 0.02604,19.32394 0.179062,1.79781 1.650611,3.17391 2.040054,4.95486 1.577112,7.21119 3.563975,15.43011 3.885349,22.79234 h 51.330519 c 8.397079,0 17.183971,0.75106 25.541251,-0.0258 2.86833,-0.26662 5.79737,-1.40176 8.63699,-1.95153 10.06919,-1.94953 20.06927,-4.63192 30.18964,-6.26794 5.9257,-0.95792 12.21778,-0.66889 18.20731,-0.93095 10.24646,-0.44831 20.47321,-0.78279 30.74869,-0.7333 14.34257,0.0691 29.11877,-0.0823 43.39535,1.28061 18.39343,1.75584 36.42176,6.9983 54.80218,8.83442 9.95469,0.99443 20.49151,0.0422 30.50074,0.0422 1.0066,-7.78806 2.91862,-15.45358 3.6775,-23.28783 0.65926,-6.8057 0.0424,-13.97053 0.0424,-20.8104 0,-7.43446 0.58495,-15.1559 -0.20681,-22.5446 -0.56203,-5.24495 -1.33779,-10.43276 -2.37206,-15.6078 -0.28864,-1.44437 -0.28708,-4.45819 -1.35327,-5.54248 -0.85387,-0.86836 -3.84168,-0.40335 -4.99491,-0.40335 h -14.38244 c -20.8945,0 -41.84903,5.51408 -62.48933,8.56664 -5.11624,0.75664 -10.22563,0.6321 -15.37438,0.85735 -11.73379,0.51331 -23.44466,0.71457 -35.21222,0.73347 -11.05303,0.0178 -22.17821,0.035 -33.22848,-0.72106 -4.10317,-0.28073 -8.32246,0.0377 -12.3987,-0.59106 -9.87927,-1.52384 -19.77408,-4.63136 -29.50881,-6.9215 -2.51489,-0.59164 -5.12658,-1.57103 -7.68722,-1.87814 -6.98125,-0.83729 -14.538222,-0.0457 -21.573702,-0.0457 -18.773209,0 -37.790941,0.88909 -56.537964,0 m -38.1879005,0.49549 -0.2479488,2.72517 h -0.2480231 v -2.47743 H -16.226542 v 10.90069 l -0.495897,-8.42326 0.574753,-2.64756 3.640747,-0.0776 h 8.6791015 M 16.01007,-495.88303 H 8.3228415 v -87.45319 c 1.6455524,0 5.9851385,-0.77761 7.2896035,0.25462 0.956459,0.75679 0.397625,4.07444 0.397625,5.19572 v 15.85554 66.14734 m -47.855076,-87.04376 c -2.86097,0.92501 -2.450698,9.63274 1.978977,8.36724 3.147156,-0.89909 2.811053,-9.91597 -1.978977,-8.36724 m 9.680713,0.31675 c -1.552563,0.42047 -0.818313,2.64603 0.7158,2.09244 1.438519,-0.51914 0.682324,-2.47108 -0.7158,-2.09244 m 398.490783,-0.0468 c -1.36975,0.55767 -1.25028,2.0552 -1.25076,3.2845 -7.4e-4,2.48461 0.27358,6.27047 3.95667,4.77095 1.44774,-0.58942 1.25068,-2.25046 1.25077,-3.53224 1.5e-4,-2.50836 -0.34829,-5.99233 -3.95668,-4.52321 m -407.675785,0.17146 c 3.456181,-0.9621 3.46667,6.85873 1.230296,7.46402 -3.530201,0.95546 -3.502229,-6.83157 -1.230296,-7.46402 m 399.041505,0.0774 c -1.45932,0.65277 -0.14771,2.41223 1.14649,1.89133 1.49934,-0.60347 0.22143,-2.50321 -1.14649,-1.89133 m 9.61527,-0.0581 c 3.42126,-0.58056 3.50069,7.04164 0.98694,7.49633 -3.54879,0.6419 -3.47659,-7.07385 -0.98694,-7.49633 m -266.07673,0.12082 v 0.24774 l -50.834618,15.65598 -19.093913,5.86324 -10.16694,3.00733 c 2.119801,-5.41551 2.443184,-12.07588 3.255991,-17.83749 0.200933,-1.42417 0.200487,-5.77405 1.356986,-6.68218 1.028768,-0.8079 4.03934,-0.25462 5.30594,-0.25462 h 14.382515 55.794039 m 186.69819,0.10744 c 1.32046,0.0524 2.29135,2.35613 2.84543,3.36096 2.07955,3.77121 3.55482,7.69163 4.47691,11.89165 2.03842,9.2851 1.13463,19.2793 1.13463,28.73818 0,7.84611 0.84293,16.32086 -0.84919,24.03105 -1.02765,4.68269 -2.43373,9.34538 -4.63299,13.62587 -0.69028,1.34349 -1.39812,3.89341 -3.19789,3.92716 -3.80121,0.0713 -7.91085,-1.23601 -11.65374,-1.83665 -9.33739,-1.49835 -18.66422,-3.12359 -28.02103,-4.50065 -3.31253,-0.48754 -6.60163,-1.0943 -9.91892,-1.55375 -1.01225,-0.14021 -3.26232,-0.14882 -3.9831,-0.92713 -0.75039,-0.81027 -0.88571,-2.73021 -1.11915,-3.77999 -0.70829,-3.18639 -1.49119,-6.42144 -1.87952,-9.66197 -0.7463,-6.22771 -0.45744,-12.5594 -0.45744,-18.82845 0,-6.75979 -0.24683,-13.57908 0.22578,-20.31492 0.27391,-3.90417 1.19362,-7.59948 2.09168,-11.39617 0.26581,-1.12381 0.26752,-3.1772 1.28059,-3.92316 0.98465,-0.72499 2.91111,-0.66024 4.08911,-0.88031 3.52864,-0.65916 7.11582,-1.15856 10.66284,-1.70589 8.84856,-1.36538 17.70367,-2.77207 26.53319,-4.25139 3.86921,-0.64826 8.45786,-2.16976 12.37281,-2.01444 m 29.0388,85.61159 c -6.65549,1.23439 -14.30813,0.24774 -21.0778,0.24774 -1.98397,0 -4.27018,-0.37612 -6.19932,0 -0.15764,-2.35782 2.48053,-5.68251 3.37234,-7.92777 2.04028,-5.13692 3.25399,-10.36797 3.77681,-15.85554 0.75664,-7.94282 0.0424,-16.29705 0.0424,-24.2788 0,-6.80271 0.72115,-14.11365 -0.66113,-20.8104 -0.77159,-3.73845 -1.847,-7.4518 -3.50089,-10.90069 -0.9694,-2.02156 -2.72118,-4.05169 -3.27719,-6.19357 h 19.83783 c 1.64786,0 5.94043,-0.77029 7.25881,0.25462 1.11514,0.86695 1.10762,4.12883 1.37075,5.44347 1.09029,5.44721 2.14829,11.04056 2.28495,16.59877 0.31096,12.65298 1.0894,25.75005 0.22213,38.40014 -0.57415,8.37578 -3.09084,16.68144 -3.44941,25.02203 m -215.985,-84.72806 c -2.62426,7.16115 -7.83401,13.22454 -9.661,20.8104 -1.331842,5.53002 -0.50587,11.9286 -0.50587,17.58975 0,8.50206 -1.358248,18.29976 1.10056,26.50848 2.07539,6.92872 6.56525,12.54514 9.31433,19.0762 -6.45061,-0.87209 -13.405374,-4.10212 -19.589958,-6.17484 -12.665025,-4.24461 -25.503827,-7.97575 -38.187897,-12.15831 -5.521379,-1.82068 -11.053917,-3.61353 -16.614203,-5.31024 -2.283761,-0.69686 -4.576302,-1.77262 -6.943308,-2.12187 v -14.61683 c 1.428848,0.0622 3.930504,1.43968 5.197699,0.78968 3.363786,-1.72545 3.836696,-6.81871 -0.247949,-8.04934 -1.270468,-0.38277 -3.475597,0.67439 -4.701727,1.06608 l -0.248023,-9.41422 0.574827,-3.25678 7.112402,-2.31859 16.862151,-5.18271 39.675813,-12.21281 16.862153,-5.02406 m -0.4959,2.22969 c -0.43832,4.39831 -2.25259,8.67476 -2.68563,13.13037 -0.63895,6.574 -0.13197,13.22355 -0.2937,19.81943 -0.2539,10.3558 -1.21846,21.14267 -0.20227,31.46335 0.50921,5.17155 2.27498,10.08081 3.42955,15.11231 h -0.24795 c -3.95349,-6.45363 -7.8715,-13.75614 -9.0945,-21.30589 -1.18098,-7.29014 -0.0806,-15.64791 -0.0806,-23.04009 0,-4.66092 -0.58376,-9.75612 0.0745,-14.36908 0.64899,-4.54816 2.90382,-8.76958 4.8087,-12.88263 1.20165,-2.5947 2.46215,-5.72156 4.2919,-7.92777 m 251.44514,9.41423 h -15.1264 l 5.45546,-5.69809 2.23177,-1.50594 2.23173,1.75369 5.20744,5.45034 m -85.05494,-6.83167 c -7.77271,1.01963 -15.44104,2.48513 -23.06154,4.38559 -1.8944,0.47244 -6.378,0.65896 -7.72257,2.09913 -0.76333,0.81756 -0.83988,2.75274 -1.05562,3.81535 -0.64699,3.1876 -1.38741,6.39002 -1.38868,9.66197 v 33.69303 c 0,3.41322 0.52886,6.80198 1.13463,10.15745 0.18553,1.0278 0.16262,2.99636 0.99514,3.73239 0.79101,0.69933 2.33264,0.76996 3.32563,0.97548 2.48685,0.51476 4.96336,1.13523 7.4392,1.70401 8.7677,2.0142 17.52037,3.74558 26.5332,3.74558 2.29864,0 4.91106,0.3485 7.17667,-0.0367 1.68699,-0.28681 0.75843,-4.15127 0.75843,-5.41364 v -17.34199 -38.40014 c 0,-3.13544 -0.0692,-6.2797 0,-9.41423 0.0193,-0.84419 0.56754,-2.57682 -0.19379,-3.21377 -0.76609,-0.6409 -2.83404,-0.25463 -3.77741,-0.25463 -3.33194,0 -6.86207,-0.32838 -10.16694,0.10513 m -34.46829,3.11553 -2.96594,15.36005 -0.01,21.55363 0.0424,15.36006 2.93358,15.85554 -9.42302,-0.50524 -18.10205,-0.48668 -36.70006,-0.23704 -27.77308,1.47671 -1.96157,-13.87361 -0.0223,-18.08522 0.01,-22.54461 1.974,-13.87359 31.98858,1.23508 36.45211,-0.48823 23.55751,-0.74685 m -258.636424,2.22968 v 1.23871 h -0.247949 l 0.247949,-1.23871 m 1.487841,1.7342 v 60.20152 h -1.487841 l -0.247949,-60.20152 h 1.73579 m 1.070576,0.15064 c 1.659538,-0.78147 1.656712,1.34411 1.657158,2.32679 v 9.66197 36.4182 8.671 c 0,0.78505 0.298761,2.36096 -0.574604,2.78787 -1.536866,0.75124 -1.655149,-1.05449 -1.657158,-2.04464 v -8.671 -36.17045 -9.66198 c 0,-0.84573 -0.374936,-2.87063 0.574604,-3.31776 m 2.153132,60.05088 v -60.20152 l 1.9768955,0.39723 0.254867,3.07117 v 7.68003 36.4182 8.91874 l -0.254867,3.31891 -1.9768955,0.39724 m 7.1911836,-60.20152 v 7.68003 c -3.3982294,1.34397 -2.7276593,5.72098 -2.7276593,8.671 v 25.76526 c 0,3.10626 -1.143778,8.42094 2.9756825,9.16648 l 0.2479487,8.67101 c -0.9330252,0.27553 -4.0092858,0.75644 -4.708274,-0.15217 -0.570066,-0.74107 -0.251222,-2.43362 -0.251222,-3.31624 v -8.42325 -36.4182 -8.42326 c 0,-0.78059 -0.301585,-2.41275 0.397626,-2.96604 0.8453913,-0.6689 3.0325924,-0.25462 4.0658981,-0.25462 m 355.5940514,0.74323 c 0.99641,3.36771 0.24803,7.88336 0.24803,11.39617 -3.06867,0.0363 -1.98382,4.14872 -1.98382,6.44132 v 21.30588 c 0,2.38479 -1.19964,7.39462 1.98382,7.43229 v 12.1394 l -5.05784,-0.25462 -0.39763,-3.70927 v -10.4052 -44.09823 l 5.20744,-0.24774 m 8.18315,0 v 14.12134 28.49043 l 0.24797,15.85555 -7.68719,0.24774 v -12.1394 c 2.68637,-0.20474 1.73586,-4.45735 1.73586,-6.44132 v -21.30589 c 0,-2.07855 1.05778,-7.21939 -1.73586,-7.43228 v -8.17552 l 0.39762,-2.96603 7.0416,-0.25462 m 3.22366,0 0.24798,6.44132 v 12.13939 40.13435 h -2.72772 v -44.84146 -9.90972 l 0.25485,-3.56645 2.22489,-0.39743 m -191.93149,8.03291 c -3.14485,0.4176 -6.04324,1.38849 -7.67846,4.35424 -1.35006,2.44871 -1.00064,5.2338 -1.00064,7.92776 v 14.86457 c 0,3.78148 -0.9302,8.88026 1.39812,12.13941 3.12127,4.36922 8.77492,3.71614 13.48029,3.71614 1.94699,0 4.02163,0.20111 5.95136,-0.0744 10.77458,-1.53799 8.18313,-13.74558 8.18313,-21.72701 0,-4.72566 1.36762,-12.01933 -0.68463,-16.35102 -3.03505,-6.40617 -13.73843,-5.63461 -19.64917,-4.84972 m 0,0.46109 c 5.63772,-0.67367 15.95799,-1.55928 18.96536,4.38863 2.23541,4.4211 0.87247,11.74329 0.87247,16.59877 0,6.4849 2.52539,19.53833 -6.69529,20.76568 -5.62805,0.74913 -16.49577,2.0613 -20.02805,-3.46575 -2.04868,-3.20562 -1.29762,-7.73334 -1.29762,-11.3541 v -13.37811 c 0,-6.56917 0.22957,-12.60474 8.18313,-13.55512 m 182.5085,3.6454 v 33.69303 l -2.97568,0.24774 -0.24795,-10.90069 V -556.58 h 3.22363 m -375.990876,2.23677 c -1.135744,0.92563 0.592607,2.5754 1.686468,1.57743 1.119451,-1.02128 -0.720488,-2.36465 -1.686468,-1.57743 m 390.430176,-0.0671 c -1.43765,0.62133 -0.16439,2.61942 1.14649,1.97432 1.47395,-0.72537 0.22058,-2.56512 -1.14649,-1.97432 m -145.36933,8.4833 c 1.26816,2.60029 5.03069,4.86038 7.19125,6.75978 1.03257,0.90778 1.83399,1.87882 3.22364,2.15896 l -6.34208,-5.69904 -4.07281,-3.2197 m -191.931521,6.93679 v -3.96388 c 1.268682,-0.29057 3.23479,-1.31949 4.459879,-0.584 2.193896,1.31711 2.303996,4.59627 -0.495972,5.34636 -1.167881,0.31287 -2.821766,-0.53689 -3.963907,-0.79848 m -52.321502,12.37892 c -1.424459,0.0879 -1.481741,2.16451 0,2.16451 1.583137,0 1.636179,-2.26541 0,-2.16451 m 389.622153,0.19594 c -1.46802,0.63194 -0.21471,2.63804 1.14648,1.95232 1.46762,-0.73934 0.20998,-2.53623 -1.14648,-1.95232 m -336.804679,3.77617 9.670968,3.22773 18.349993,5.87549 51.330518,16.41429 v 0.24775 H 56.921353 42.290889 c -1.617358,0 -4.639312,0.58663 -6.091817,-0.14949 -1.156425,-0.58604 -1.200539,-4.59531 -1.409358,-5.79634 -0.889803,-5.11629 -1.954279,-10.22015 -2.698274,-15.36006 -0.201826,-1.39446 -1.562531,-3.16153 -1.207309,-4.45937 m 331.540599,13.62586 c -1.12285,2.40555 -3.85016,4.10121 -5.7034,5.94583 -0.56305,0.56044 -1.35338,1.66452 -2.23076,1.6866 -0.91064,0.0229 -1.76109,-1.16583 -2.3441,-1.7388 -1.69874,-1.66949 -4.8543,-3.59929 -5.59205,-5.89363 h 15.87031 m -366.5048682,0.24774 0.2479487,12.1394 c -3.3708531,0.99545 -7.8906925,0.24774 -11.4067605,0.24774 v -0.24774 h 10.9107886 c 0,-3.41585 -1.0684932,-9.00496 0.2480232,-12.1394 m 350.6345582,0.74323 c 2.28793,2.2858 6.06407,4.734 7.43921,7.68003 l -7.68716,6.9368 -0.24802,-10.65294 0.49597,-3.96389 m 16.36626,0 v 14.86458 c -2.28383,-1.06405 -7.2447,-5.46991 -7.93518,-7.92778 l 7.93518,-6.9368 m -394.524991,3.63107 c -3.079831,0.93986 -2.805696,9.82788 1.733781,8.44907 3.112341,-0.94535 2.685851,-9.79774 -1.733781,-8.44907 m 408.164671,0.26897 c -2.93972,1.1386 -2.34409,9.87937 2.22602,8.27548 2.90273,-1.01871 2.41725,-10.07391 -2.22602,-8.27548 m -406.682557,0.29648 c 2.142565,0.42573 2.37199,8.0691 -1.224122,7.39063 -2.292317,-0.43249 -2.321999,-8.09525 1.224122,-7.39063 m 406.943917,0.14261 c 3.90346,-1.26022 4.01561,6.62443 1.70694,7.34971 -3.74213,1.17558 -3.66751,-6.71674 -1.70694,-7.34971 m -345.193668,38.76812 v 0.24775 l 11.90273,0.99097 c -1.211178,2.12621 -1.952643,7.37205 -4.035695,8.66412 -1.069237,0.66318 -2.740827,0.0673 -3.899483,0.0167 -2.928444,-0.12812 -8.035757,-0.89175 -10.639553,0.58551 -2.716278,1.54116 -1.958818,5.97232 -2.329513,8.57122 -0.185237,1.29902 -0.594839,2.47622 0.29236,3.64083 1.195406,1.56909 3.898145,1.91134 5.733471,2.05726 l 3.38588,6.68906 1.654331,2.08019 5.374678,0.14949 h 12.894599 c 1.9304,-15.18104 13.542108,-26.90408 29.508873,-24.41778 7.875739,1.22641 14.383928,5.63978 18.075039,12.77387 1.445881,2.79444 2.285471,5.61951 2.973001,8.671 0.19327,0.85775 0.0565,2.58117 1.07824,2.89416 3.52886,1.08085 8.88799,0.0788 12.58997,0.0788 h 28.26898 93.2381 c 1.46977,-7.1144 4.42402,-13.8457 9.91892,-18.78621 8.18238,-7.35686 21.93108,-8.15066 30.32354,-0.6572 3.94717,3.52427 6.63525,7.86556 8.55799,12.75436 0.52722,1.34059 1.08984,5.92498 2.35994,6.53956 2.09324,1.0129 6.10216,0.01 8.35326,-0.0885 6.56964,-0.2874 13.32131,0.82597 19.83784,0.19594 2.40152,-0.23218 4.2274,-1.09478 5.20268,-3.42635 0.5444,-1.30151 0.65703,-3.0649 1.65351,-4.13288 1.50503,-1.61298 3.82785,-0.87744 5.15619,-3.29941 1.481,-2.70041 1.25023,-8.49373 -1.36294,-10.49485 -2.44251,-1.87048 -6.67468,-2.32626 -9.6575,-2.38777 l 1.48784,-11.14843 7.68716,0.99097 c 4.04611,-7.21654 -9.11742,-9.5443 -13.63852,-10.56635 -5.04557,-1.14062 -10.48363,-1.44508 -15.37439,-3.16808 -15.94869,-5.61863 -30.69111,-15.27202 -47.36297,-18.72064 -20.42129,-4.22423 -40.78649,-4.24276 -61.49739,-4.21087 -11.57808,0.0178 -24.51226,-0.88057 -35.70819,2.58542 -3.17944,0.98427 -6.179,2.91002 -9.17507,4.34527 -6.30302,3.01942 -12.66331,5.9875 -18.84596,9.24638 -6.25087,3.29484 -12.13469,6.70016 -19.09399,8.24433 -24.511368,5.43873 -52.079426,0.012 -74.887958,12.49228 m 154.239518,10.4052 -8.6791,-0.24774 h -16.11823 -51.8265 c 0,-5.70913 0.51606,-11.34469 2.1265,-16.84652 0.60912,-2.08082 1.18224,-4.65117 2.57657,-6.37327 0.92923,-1.14762 2.93395,-1.69656 4.22398,-2.36176 3.06681,-1.58145 6.08765,-3.25092 9.175,-4.79217 5.2822,-2.63697 10.59112,-5.20806 15.87035,-7.84521 3.51413,-1.75545 7.15763,-3.98381 10.91079,-5.16378 3.622,-1.13874 7.41681,-1.39278 11.15881,-1.74855 5.79521,-0.55099 11.53932,-0.56272 17.3582,-0.7048 1.46939,-0.0359 5.06163,-0.99073 6.29766,0.0113 0.66484,0.53891 0.17883,1.98953 0.15228,2.71752 -0.0962,2.64218 -0.37293,5.28727 -0.48883,7.92777 -0.35389,8.06197 -1.43436,16.00462 -2.19948,24.03105 -0.34391,3.60854 0.4869,7.93213 -0.538,11.39617 m 1.73579,0 c -0.70517,-2.95945 0.0201,-6.41067 0.22578,-9.41422 0.547,-7.97952 1.95472,-16.02859 2.0062,-24.03106 0.0201,-3.08106 0.20495,-6.35256 0.56657,-9.41423 0.0937,-0.79412 -0.0812,-2.40309 0.432,-3.03675 0.5781,-0.71384 2.16458,-0.43165 2.96883,-0.43165 h 7.93511 c 5.73429,0 11.39828,0.23583 17.11017,0.48574 2.93008,0.12819 6.90002,-0.27813 9.67097,0.70786 2.38434,0.84841 4.55518,2.99982 6.44734,4.6104 7.20658,6.13415 13.98719,13.29363 19.55217,20.95223 1.9234,2.64698 5.00733,7.16368 2.63898,10.40157 -2.11459,2.8909 -6.97902,4.21452 -10.04047,5.8925 -1.54684,0.84782 -3.03959,2.61887 -4.71512,3.10844 -1.24704,0.36438 -2.91141,-0.0785 -4.21193,-0.0786 h -10.16687 -27.02916 c -4.23723,0 -9.26472,-0.73364 -13.39057,0.24774 m 175.31732,-36.66594 -5.7034,2.57664 -3.4716,-1.01123 -7.43921,-2.80412 c 1.47654,-2.0942 3.64983,-3.64792 5.4554,-5.45034 0.63397,-0.63286 1.52027,-1.88835 2.47971,-2.00145 0.94522,-0.11141 1.84535,1.11233 2.45659,1.67934 1.9446,1.80381 5.80347,4.29794 6.22251,7.01116 m -245.74176,15.36006 h 67.94473 l 1.98381,-23.53557 c -9.66866,0 -20.06488,-0.41376 -29.50888,1.95595 -8.55144,2.14573 -17.09038,7.18137 -24.79733,11.3457 -3.77167,2.03793 -7.56612,4.04416 -11.15881,6.39275 -1.59214,1.04081 -3.53079,2.13366 -4.46352,3.84117 m 209.28965,9.41423 c -1.73966,-0.21966 -6.36484,-1.67786 -7.85633,-0.73271 -0.88006,0.55767 -0.75076,2.53867 -0.86123,3.45788 -0.36758,3.05877 -0.81482,6.11057 -1.20136,9.16648 h -21.82172 c -3.35739,0 -7.42292,0.6278 -10.70495,-0.095 -2.53937,-0.55925 -5.12531,-3.23236 -7.64505,-4.25215 -6.57417,-2.66065 -14.47773,-3.12174 -21.32575,-1.35093 1.14401,-2.01562 3.66798,-2.54717 4.13405,-5.2026 0.7332,-4.17779 -2.98357,-8.3886 -5.37319,-11.39617 -3.97685,-5.00543 -8.19206,-9.99421 -12.90509,-14.33066 -2.65498,-2.44282 -7.36549,-5.15393 -9.16525,-8.21394 16.86951,0.34793 32.16988,7.07903 47.36289,13.59394 8.04781,3.45096 15.88159,7.67493 24.54938,9.29476 5.97614,1.11677 12.12658,2.01006 17.8541,4.12865 2.85792,1.05714 5.35095,2.61858 4.9595,5.93245 m -134.89759,-9.41423 h 56.78592 c -0.64751,-3.25054 -4.17101,-6.63739 -6.19931,-9.16649 -3.84518,-4.79442 -8.49126,-10.61098 -14.38252,-12.94188 -5.95166,-2.35482 -14.04946,-1.17945 -20.33381,-1.17945 -3.39198,0 -6.78344,0.24128 -10.16329,0.12041 -1.10502,-0.0395 -3.39548,-0.5954 -4.31749,0.13421 -0.88147,0.69742 -0.61374,4.80417 -0.64201,5.93895 -0.14201,5.70366 -0.74749,11.37991 -0.74749,17.09425 m -214.170355,-22.53761 c -1.256185,0.83835 0.187319,2.40814 1.37112,1.7191 1.433461,-0.83434 -0.142163,-2.53927 -1.37112,-1.7191 m 390.268475,0.004 c -1.49498,0.8244 0.0631,2.6713 1.37209,1.85349 1.30313,-0.81417 -0.15862,-2.52263 -1.37209,-1.85349 m -131.21493,0.97951 c 1.12875,1.9292 3.5735,3.44003 5.20744,4.96096 4.07706,3.79514 8.20865,7.5411 12.39871,11.21286 1.88702,1.65364 4.24897,4.5026 6.69528,5.25364 3.29907,1.01285 7.49589,0.37391 10.91079,0.37391 h 21.82172 c -1.15591,-1.34372 -3.1447,-2.00357 -4.71155,-2.79189 -2.66078,-1.33872 -5.31382,-2.74827 -7.9351,-4.1648 -9.39185,-5.07526 -18.99668,-9.00001 -29.26093,-11.90657 -4.89656,-1.38658 -10.01384,-2.93811 -15.12636,-2.93811 m -252.685064,5.69808 c 0,-0.94899 -0.427754,-3.30388 0.397626,-3.957 0.607262,-0.48051 1.856379,-0.25462 2.578056,-0.25462 h 6.44734 c 0.7078405,0 1.9857473,-0.23134 2.5744117,0.25462 0.8023928,0.66236 -0.1243091,2.13586 -0.6463182,2.66533 -1.5498842,1.57209 -4.130991,1.29167 -6.1436695,1.29167 h -5.207446 m 128.450314,14.12134 c -2.22595,5.42058 -3.45409,10.78902 -4.14475,16.59878 -0.25085,2.10992 0.0802,4.39873 -0.31877,6.44131 -3.06912,-0.73003 -6.75591,0.68968 -9.670967,-0.21257 -2.172472,-0.67239 -4.08591,-2.77359 -6.199314,-3.74405 -5.43992,-2.49797 -11.39984,-3.36565 -17.358198,-2.95801 -4.205383,0.28772 -8.670242,1.24365 -12.398624,3.27591 -1.907561,1.03977 -3.687912,2.98643 -5.703416,3.70619 -1.445066,0.51605 -3.441302,0.18028 -4.959496,0.18028 H 41.29902 l 3.719603,-10.90069 -8.927048,-0.24774 4.711473,-2.19433 14.134492,-3.31795 35.460237,-3.20058 13.638523,-1.59676 8.18312,-1.82979 m 58.44806,11.40305 c -0.98376,0.74267 -0.77702,2.83226 0.35478,3.31204 1.91083,0.81001 5.33763,0.14948 7.4061,0.14948 0.73254,0 1.92906,0.21669 2.55336,-0.25462 0.98383,-0.74266 0.7771,-2.83224 -0.3547,-3.31203 -1.91084,-0.81002 -5.33763,-0.14949 -7.4061,-0.14949 -0.73254,0 -1.92906,-0.21668 -2.55344,0.25462 m 68.86898,0 c -0.98005,0.66449 -0.91555,2.81326 0.1978,3.31204 1.9092,0.85534 5.54415,0.14962 7.63077,0.14948 0.71111,-4e-5 1.75126,0.17233 2.37214,-0.25462 0.91785,-0.63113 0.84904,-2.84083 -0.19706,-3.31203 -1.90362,-0.85748 -5.54809,-0.14962 -7.63055,-0.14949 -0.71505,5e-5 -1.74695,-0.16994 -2.3731,0.25462 m -149.138683,-0.007 c -0.151387,0.81506 -0.458255,1.89151 0.04464,2.64643 0.596178,0.89545 3.962344,0.91766 4.765481,0.28214 2.224471,-1.76017 -1.048556,-2.92848 -2.330108,-2.92857 h -2.479711 m 15.870281,25.02203 c -1.14445,0 -3.33485,0.42272 -4.30552,-0.25462 -1.21258,-0.84616 -1.986932,-3.44391 -2.810303,-4.70023 -1.675681,-2.55679 -3.951632,-4.95624 -6.522696,-6.62903 -9.107448,-5.92554 -22.818203,-6.07916 -31.492686,0.8107 -3.741325,2.97164 -6.040263,6.85427 -8.183127,11.02093 l -3.967552,-0.24775 c 2.173885,-7.6534 7.312889,-13.96666 14.630464,-17.26478 15.257288,-6.87666 38.50302,-0.64114 42.65142,17.26478 m 185.98015,0 c -1.48918,0 -4.00102,0.48823 -5.35861,-0.14949 -0.96456,-0.45311 -1.53106,-2.19631 -2.04615,-3.07117 -1.10546,-1.87754 -2.48432,-3.64443 -4.00564,-5.2026 -4.18693,-4.28832 -9.72319,-7.40249 -15.86671,-7.4321 -7.06859,-0.034 -13.16516,1.63239 -18.57562,6.37652 -1.88413,1.65211 -3.50194,3.6466 -4.83549,5.7627 -0.63159,1.00214 -1.20552,2.81335 -2.22678,3.46152 -0.99811,0.63349 -2.97367,0.25462 -4.11894,0.25462 0.60734,-2.55469 2.19665,-5.01642 3.63718,-7.18454 12.49623,-18.80841 47.16844,-16.03672 53.39676,7.18454 M 77.255452,-454.11472 c -5.489315,0.19819 -11.139389,2.13327 -15.084102,6.08843 -7.473129,7.49285 -6.173946,19.75727 2.437456,25.77999 4.623091,3.23331 9.843851,4.13967 15.37438,3.89735 2.638984,-0.11561 5.303485,-0.94998 7.687155,-2.04884 2.183259,-1.00648 4.269063,-2.46455 5.888058,-4.24375 1.494685,-1.64264 2.74462,-3.52219 3.578927,-5.58931 5.176494,-12.82574 -7.49805,-24.33097 -19.881874,-23.88387 m 32.236538,12.98318 h -2.72766 c -1.23134,-5.31475 -4.93889,-8.63305 -7.935179,-12.88263 l 6.447339,-0.004 2.33011,0.0203 0.54053,3.20402 1.34486,9.66197 m 76.37587,-13.13037 1.73579,13.13037 h -76.87177 l -1.48784,-12.88263 h 51.08257 16.36626 l 9.17499,-0.24774 m 56.042,0.49548 c -2.63564,2.29683 -4.53063,5.38003 -6.17938,8.42327 -0.55474,1.02384 -1.27441,3.55154 -2.3493,4.06213 -2.33092,1.10721 -7.2347,0.14949 -9.82131,0.14949 h -24.05349 -7.4392 c -0.77494,0 -2.17567,0.25871 -2.82601,-0.25462 -0.63486,-0.50105 -0.60867,-2.21233 -0.74109,-2.96604 -0.5136,-2.92428 -1.39098,-6.98956 -0.89643,-9.90971 l 13.39058,0.24774 h 26.53319 l 9.91892,-7.4e-4 4.46352,0.24869 m 18.35007,-0.14165 c -3.18175,0.4552 -6.1706,1.39835 -8.92705,3.07117 -9.33174,5.66324 -11.64771,18.22808 -3.94538,26.30051 4.74093,4.96876 12.35213,7.07986 19.07174,6.12284 2.91424,-0.41505 5.91938,-1.36882 8.43115,-2.91461 2.12256,-1.30629 3.97276,-2.94869 5.48024,-4.9388 1.17435,-1.55026 2.12627,-3.33975 2.69314,-5.2026 4.15539,-13.65516 -10.19238,-24.24274 -22.80384,-22.43851 m 32.48456,12.77654 c -1.27203,-5.35038 -5.17799,-8.62041 -8.18313,-12.88263 10.33179,0 20.66492,-0.0496 30.99664,1.8e-4 3.15229,0.0152 9.5538,0.12918 11.72233,2.81885 1.63923,2.03317 2.22105,9.14884 -1.06061,9.98485 -3.15831,0.80459 -7.39888,0.0788 -10.66172,0.0788 H 292.74449 M 55.681758,-453.76628 c -2.383522,3.80709 -6.975892,7.7093 -6.943234,12.63489 H 34.10806 c -2.758979,0 -6.071136,0.27614 -8.678132,-0.79523 -0.692218,-0.28449 -1.403852,-0.70265 -1.629037,-1.46027 -0.312893,-1.05296 0.166117,-2.15937 0.313785,-3.19484 0.303818,-2.13031 -0.568876,-5.3212 1.575848,-6.7529 1.879441,-1.25461 6.213448,-0.43165 8.417536,-0.43165 h 21.573698 m -2.975682,13.13038 -1.983814,8.17551 h -11.90273 c -1.245472,0 -3.530647,0.43594 -4.614688,-0.25462 -1.896328,-1.20808 -3.464513,-5.69925 -4.560308,-7.67315 l 7.687155,-0.24774 h 15.374385 m 60.257564,8.17551 h -8.92704 l -1.73579,-8.17551 c 1.70536,0 5.65126,-0.73698 7.06471,0.25462 0.68761,0.48236 0.8689,1.72354 1.11841,2.47055 0.6493,1.94441 1.70581,3.58739 2.47971,5.45034 m 76.12786,0 h -59.26563 -10.41489 c -1.31585,0 -3.25986,0.35365 -4.46263,-0.25462 -2.37675,-1.20203 -3.61315,-5.46015 -3.7205,-7.92089 h 58.76973 12.64665 l 4.81347,0.25462 0.67444,2.2228 0.95936,5.69809 m 44.13934,-8.17551 c -0.25331,1.68917 -1.49283,6.9118 -2.88939,7.92089 -0.73425,0.53047 -2.2055,0.25462 -3.06198,0.25462 h -7.43921 -29.26092 l -1.48784,-7.92777 c 4.12898,-1.21933 9.82332,-0.24774 14.13449,-0.24774 h 30.00485 m 5.95136,0.24774 -2.86737,7.67315 -4.32389,0.25462 c 0.62289,-4.15473 2.14607,-9.41767 7.19126,-7.92777 m 84.31098,-0.24774 c -1.14467,2.03668 -2.02384,6.17259 -3.97826,7.49957 -2.1262,1.44355 -6.2261,0.67594 -8.66839,0.67594 h -21.32575 l -2.47971,-7.92777 c 3.43892,-1.01554 8.06782,-0.24774 11.65478,-0.24774 z"
       id="path1"
       clip-path="url(#clipPath2)" />
  </g>
</svg>
