<svg width="72" height="81" viewBox="0 0 72 81" fill="none" xmlns="http://www.w3.org/2000/svg">
<rect width="72" height="81" fill="#1A1E26"/>
<rect x="-498" y="-596" width="980" height="753" rx="4" fill="white"/>
<path d="M111.973 -161.811C107.063 -160.83 102.592 -159.437 98.8727 -155.888C91.8342 -149.172 91.979 -137.752 99.3274 -131.29C104.639 -126.619 112.075 -125 118.916 -126.375C122.025 -127 125.08 -128.233 127.596 -130.182C129.444 -131.614 131.037 -133.143 132.224 -135.183C139.018 -146.853 130.372 -159.426 117.925 -161.479C115.951 -161.805 113.987 -162.214 111.973 -161.811ZM297.209 -161.763C291.455 -160.321 286.215 -158.767 282.458 -153.763C276.338 -145.609 279.2 -134.602 287.538 -129.259C292.751 -125.919 299.465 -125.124 305.393 -126.604C313.383 -128.601 320.454 -135.415 320.239 -144.101C320.009 -153.386 312.253 -159.813 303.657 -161.423C301.56 -161.816 299.34 -162.297 297.209 -161.763ZM76.5129 -125.273L79.9846 -116.106L72.0494 -115.633L68.0818 -115.115C92.3092 -103.296 119.449 -108.31 144.954 -102.261C150.059 -101.05 154.492 -98.4075 159.088 -95.9849C165.936 -92.3749 172.951 -89.039 179.918 -85.6684C183.134 -84.1124 186.424 -82.0168 189.837 -80.9492C201.317 -77.3583 214.648 -78.2017 226.537 -78.2017C241.466 -78.2017 256.08 -78.4111 270.924 -79.894C279.34 -80.7347 288.276 -81.9237 296.217 -84.9383C309.262 -89.89 321.659 -96.8998 334.901 -101.269C340.248 -103.033 346.05 -103.385 351.516 -104.682C356.945 -105.969 365.845 -107.577 363.914 -114.868L355.979 -113.877C355.341 -116.465 355.225 -119.171 354.844 -121.804C354.723 -122.635 354.206 -124.16 354.89 -124.841C355.9 -125.848 359.271 -125.596 360.69 -126.017C365.521 -127.45 367.69 -132.337 365.866 -137.164C365.428 -138.323 364.555 -139.651 363.395 -140.186C362.223 -140.726 360.819 -140.421 360.049 -141.651C358.838 -143.584 359.03 -146.074 357.147 -147.622C355.145 -149.267 352.188 -148.808 349.78 -148.808H332.669C330.696 -148.808 327.092 -149.51 325.305 -148.659C324.032 -148.053 323.463 -143.464 322.951 -142.119C321.213 -137.555 318.469 -133.061 314.815 -129.774C306.087 -121.924 292.031 -122.634 283.571 -130.498C278.4 -135.303 275.552 -142.006 274.148 -148.808L180.91 -148.808H152.641C148.939 -148.808 143.58 -149.81 140.051 -148.73C139.024 -148.415 139.133 -146.699 138.981 -145.835C138.479 -142.981 137.506 -140.241 136.213 -137.66C132.824 -130.893 126.697 -125.986 119.164 -124.644C102.773 -121.725 90.4678 -132.932 88.4155 -148.808H75.2729C73.8296 -148.808 71.1464 -149.321 69.8827 -148.554C67.6138 -147.176 66.7887 -142.728 65.146 -140.666C63.8464 -139.034 61.1037 -139.647 59.5437 -138.113C58.3625 -136.952 58.9581 -135.604 59.1116 -134.192C59.4034 -131.507 58.7642 -127.407 61.3902 -125.704C62.7238 -124.839 64.5854 -125.025 66.0979 -125.025C69.5783 -125.025 73.0271 -125.273 76.5129 -125.273ZM87.1756 -147.57L89.1594 -139.394L66.3458 -139.642C66.956 -141.568 69.0533 -146.498 70.8622 -147.487C72.0656 -148.145 74.4163 -147.817 75.7689 -147.817C79.5819 -147.817 83.3754 -147.57 87.1756 -147.57ZM149.417 -147.817L146.902 -142.119L145.819 -139.667L138.754 -139.394L140.49 -147.57L149.417 -147.817ZM225.545 -147.817L224.057 -139.394C204.784 -140.685 185.108 -139.642 165.783 -139.642C161.202 -139.642 156.446 -140.001 151.897 -139.465C151.001 -139.359 148.009 -138.913 147.806 -140.194C147.668 -141.062 148.279 -142.297 148.553 -143.11C149.032 -144.53 149.773 -146.559 151.175 -147.315C152.249 -147.894 154.4 -147.802 155.616 -147.816C158.839 -147.855 162.064 -147.817 165.287 -147.817H205.707C212.24 -147.817 219.046 -147.243 225.545 -147.817ZM269.684 -139.394L249.35 -139.642L225.793 -139.394L225.545 -139.642L227.033 -147.569C236.516 -147.57 246.046 -147.817 255.55 -147.817C258.428 -147.817 264.09 -148.899 266.64 -147.459C268.137 -146.614 269.515 -141.048 269.684 -139.394ZM273.156 -147.569L275.388 -139.394H271.42L268.444 -147.569H273.156ZM359.947 -139.642H352.011H334.901H323.494L325.974 -147.569H347.3C349.758 -147.569 353.783 -148.328 355.956 -147.005C358.24 -145.614 358.204 -141.658 359.947 -139.642ZM85.1919 -138.898C85.6571 -133.575 90.0089 -130.647 92.1351 -126.264C84.8501 -126.264 77.5658 -126.275 70.3135 -126.264C68.1105 -126.26 63.818 -125.452 61.9512 -126.781C60.0891 -128.107 60.8047 -131.533 60.5994 -133.448C60.4943 -134.429 60.0448 -135.419 60.2068 -136.417C60.3408 -137.243 60.906 -137.73 61.6382 -138.065C64.8883 -139.552 68.8711 -138.936 72.2972 -138.899C76.4524 -138.855 81.1173 -139.57 85.1919 -138.898ZM142.722 -138.899C138.459 -120.927 114.564 -114.442 99.3264 -122.005C92.2441 -125.52 87.8422 -131.522 85.4398 -138.899C90.5853 -140.16 91.418 -134.741 94.2251 -131.466C97.6076 -127.52 102.155 -124.772 107.261 -123.703C115.183 -122.045 124.139 -123.371 130.571 -128.494C132.848 -130.308 134.674 -132.473 136.218 -134.935C136.898 -136.02 137.499 -138.156 138.609 -138.842C139.552 -139.425 141.714 -139.183 142.722 -138.899ZM145.945 -139.146L144.21 -125.768C141.635 -126.381 137.857 -126.381 135.283 -125.768L139.392 -130.971L143.466 -139.146H145.945ZM222.569 -126.016L145.697 -126.016L146.689 -135.43L147.756 -138.86L152.641 -138.921L163.799 -138.899H206.451H219.098L223.651 -138.879L223.632 -135.678L222.569 -126.016ZM278.116 -126.016H224.057L224.988 -135.678L225.695 -138.841L228.521 -138.902L235.712 -138.898L260.509 -138.898L266.709 -138.92L269.829 -138.87L272.226 -134.687L278.116 -126.016ZM328.702 -138.898C322.314 -115.514 286.873 -112.84 274.845 -132.457C273.632 -134.436 272.213 -136.626 271.668 -138.898C272.836 -138.99 274.499 -139.53 275.583 -138.892C276.655 -138.26 277.221 -136.443 277.887 -135.43C279.294 -133.291 280.924 -131.244 282.827 -129.526C287.929 -124.922 294.355 -122.88 301.177 -123.047C307.499 -123.201 313.219 -126.27 317.535 -130.727C319.03 -132.27 320.301 -134.082 321.399 -135.926C321.921 -136.802 322.295 -138.104 323.13 -138.739C324.017 -139.415 327.608 -139.21 328.702 -138.898ZM321.015 -126.016L325.866 -131.962L329.446 -139.146C337.169 -137.714 346.137 -138.886 353.996 -138.899C356.373 -138.902 361.125 -140.111 363.16 -138.749C365.743 -137.02 365.509 -130.933 363.591 -128.774C362.573 -127.628 360.652 -127.167 359.203 -126.871C353.902 -125.788 348.462 -126.016 343.085 -126.016H321.015ZM144.21 -125.52L145.574 -112.142L148.425 -102.48C130.872 -107.168 112.507 -106.157 94.6151 -108.642C89.3383 -109.374 84.0934 -110.429 78.9928 -111.964C76.921 -112.588 74.311 -113.095 72.5455 -114.372C74.9682 -115.087 78.9921 -115.351 81.4726 -114.867C81.6718 -118.164 78.6989 -122.693 77.5049 -125.768H87.9198C89.4258 -125.768 91.4439 -126.116 92.8793 -125.622C94.7905 -124.965 96.4935 -123.065 98.3347 -122.116C102.752 -119.839 107.746 -118.644 112.717 -118.585C117.87 -118.523 123.112 -119.253 127.844 -121.386C130.152 -122.427 132.198 -124.573 134.539 -125.375C137.223 -126.293 141.373 -125.52 144.21 -125.52ZM222.569 -125.52L225.793 -79.4403C214.626 -79.4403 202.449 -78.7377 191.573 -81.6736C188.358 -82.5414 185.366 -84.3424 182.398 -85.8149C177.532 -88.2283 172.629 -90.5762 167.767 -93.0049C163.451 -95.1609 159.066 -97.2206 154.873 -99.6118C153.473 -100.41 151.214 -100.964 150.249 -102.298C145.899 -108.309 145.698 -118.444 145.698 -125.52L222.569 -125.52ZM224.413 -125.371C225.602 -125.974 227.949 -125.52 229.265 -125.52H241.167H266.957C270.526 -125.52 275.439 -126.403 278.86 -125.393C280.748 -124.836 282.33 -122.944 284.067 -122.001C287.151 -120.325 292.437 -118.995 294.054 -115.611C295.777 -112.005 292.015 -107.387 289.986 -104.71C285.885 -99.2983 281.175 -94.3883 276.38 -89.5977C273.28 -86.5014 269.65 -82.8837 265.717 -80.8571C263.349 -79.6371 260.109 -80.1386 257.534 -79.8937C250.514 -79.2263 243.514 -79.1925 236.456 -79.1925H229.761C229.048 -79.1928 227.8 -78.9912 227.288 -79.6242C226.539 -80.5489 226.829 -83.4653 226.775 -84.6429C226.581 -88.9157 226.405 -93.2666 225.999 -97.5255C225.325 -104.606 224.069 -111.705 224.057 -118.831C224.057 -120.149 222.993 -124.651 224.413 -125.371ZM354.739 -112.638L362.923 -113.629C362.922 -109.766 360.153 -108.394 356.723 -107.333C350.945 -105.546 345.025 -104.673 339.117 -103.47C330.527 -101.721 322.565 -97.3898 314.568 -93.9145C299.535 -87.3817 284.582 -81.3924 267.949 -80.679C270.369 -83.812 274.591 -86.4017 277.539 -89.1299C282.216 -93.4581 286.463 -98.4365 290.432 -103.41C292.818 -106.401 297.245 -111.718 295.283 -115.858C294.485 -117.544 292.864 -118.433 291.506 -119.575C292.818 -119.769 294.145 -119.193 295.474 -119.101C299.067 -118.854 302.82 -118.739 306.385 -119.404C309.809 -120.042 312.981 -121.248 316.056 -122.859C317.45 -123.589 318.768 -124.95 320.271 -125.393C321.964 -125.893 324.217 -125.52 325.974 -125.52H337.629H348.788C349.811 -125.52 352.012 -125.932 352.854 -125.266C353.548 -124.716 353.427 -122.632 353.5 -121.804C353.762 -118.806 354.035 -115.561 354.739 -112.638ZM323.247 -119.691C320.505 -119.058 318.992 -115.68 320.865 -113.392C322.232 -111.721 324.469 -111.354 326.47 -111.909C329.226 -112.673 330.436 -116.079 328.564 -118.29C327.306 -119.775 325.069 -120.112 323.247 -119.691ZM207.718 -117.409C206.187 -117.08 206.096 -114.364 207.476 -113.778C209.201 -113.047 215.356 -113.047 217.081 -113.778C218.38 -114.329 218.393 -116.805 217.059 -117.327C216.26 -117.64 215.222 -117.355 214.387 -117.346C212.333 -117.322 209.703 -117.834 207.718 -117.409ZM276.413 -117.445C275.006 -117.015 274.892 -114.439 276.201 -113.813C278.02 -112.942 281.568 -113.629 283.571 -113.629C284.301 -113.629 285.302 -113.463 285.982 -113.778C287.251 -114.368 287.006 -116.857 285.776 -117.333C284.931 -117.66 283.949 -117.37 283.075 -117.349C281.088 -117.301 278.287 -118.017 276.413 -117.445ZM126.852 -117.097C126.701 -116.282 126.394 -115.206 126.897 -114.451C127.507 -113.534 130.913 -113.526 131.662 -114.274C133.633 -116.243 130.726 -117.097 129.332 -117.097H126.852ZM272.909 -82.6609C278.247 -82.7051 283.704 -84.3752 288.779 -85.9102C298.379 -88.8136 307.122 -92.391 316.056 -96.9662C320.539 -99.262 326.327 -101.234 330.191 -104.462C326.622 -105.075 322.658 -104.71 319.032 -104.71C314.277 -104.71 309.376 -105.043 304.649 -104.534C302.106 -104.26 299.134 -105.014 296.714 -103.946C294.66 -103.039 292.922 -101.01 291.259 -99.5459C287.92 -96.606 284.564 -93.6628 281.34 -90.5983C278.762 -88.148 274.679 -85.7492 272.909 -82.6609ZM153.633 -104.215C154.37 -102.761 156.027 -101.827 157.353 -100.931C160.382 -98.8842 163.566 -97.0619 166.776 -95.3159C175.527 -90.5552 185.063 -84.9509 194.797 -82.5309C198.767 -81.544 202.894 -81.4494 206.948 -81.1525C211.042 -80.8526 215.241 -80.679 219.346 -80.679C220.281 -80.679 222.661 -80.2534 223.307 -81.0762C224.137 -82.1335 223.244 -86.0643 223.066 -87.368C222.301 -92.9479 222.285 -98.6248 221.578 -104.215L153.633 -104.215ZM227.778 -103.967C229.021 -98.7478 228.544 -92.4861 228.779 -87.1203C228.83 -85.971 228.522 -81.8878 229.415 -81.1813C230.363 -80.4308 232.396 -81.1173 233.481 -81.1647C236.97 -81.3173 240.419 -80.9267 243.896 -80.9267C250.05 -80.9267 257.848 -79.9399 263.734 -82.0136C270.082 -84.2504 275.5 -90.7897 279.359 -96.039C281.152 -98.4771 284.038 -101.235 284.811 -104.215L245.88 -104.215H233.977L227.778 -103.967ZM419.461 -42.0311C418.618 -45.5667 419.213 -49.7989 419.213 -53.4273V-75.7241C419.213 -78.6872 419.751 -82.2475 419.082 -85.1383C418.012 -89.7636 413.206 -88.3925 410.075 -89.7472C408.878 -90.265 408.789 -91.8438 407.31 -92.3246C405.786 -92.8204 403.555 -92.7514 402.103 -92.0627C401.229 -91.6481 400.398 -90.5386 399.375 -90.5774C397.308 -90.6559 395.519 -92.8567 393.424 -93.0743C390.855 -93.3412 386.53 -90.0385 384.249 -88.9149C383.41 -88.5017 382.053 -88.0934 381.528 -87.2713C380.723 -86.0103 381.273 -83.1306 381.273 -81.6699V-67.5486V-14.0361V1.57166C381.273 3.02651 380.682 6.14876 381.528 7.3766C382.103 8.21111 383.609 8.39208 384.497 8.73422C386.825 9.63157 391.451 12.3549 393.92 11.8434C395.71 11.4725 397.486 9.38872 399.304 9.39257C400.12 9.39406 400.914 10.3902 401.607 10.7582C403.008 11.5021 405.023 11.7169 406.566 11.3495C408.183 10.9646 408.678 9.51762 410.049 8.88352C413.024 7.50753 416.839 7.94551 418.648 4.54457C420.092 1.82891 419.213 -2.85651 419.213 -5.86063V-29.8917C419.213 -32.7042 418.238 -37.6867 419.363 -40.2602C419.836 -41.3435 421.485 -41.0401 422.437 -41.0401C424.129 -41.0401 426.243 -41.3783 427.882 -40.9336C429.09 -40.6062 429.939 -39.3228 431.307 -40.1281C432.584 -40.8795 431.944 -42.6262 430.619 -42.8336C429.623 -42.9894 428.647 -42.2277 427.644 -42.1584C425.021 -41.9772 421.985 -42.5794 419.461 -42.0311ZM33.3663 -61.6028C33.3663 -67.517 33.4725 -73.513 33.6179 -79.4403C33.6781 -81.8909 34.5446 -84.8865 33.1197 -87.1165C30.6312 -91.0107 24.5472 -89.6526 20.7233 -89.8688C18.8068 -89.9771 17.4592 -92.428 15.2642 -92.744C13.8662 -92.9453 11.9877 -92.8104 10.8563 -91.876C10.2172 -91.3481 10.0331 -90.3425 9.25714 -89.9948C6.23883 -88.6419 2.3485 -89.8189 0.499035 -86.1293C-0.345836 -84.4438 0.137787 -81.7777 0.137787 -79.9357L0.137787 -66.3099L0.137787 -17.2568L0.137787 -2.39223C0.137787 -0.358531 -0.364211 2.45032 0.613822 4.29665C2.54095 7.93456 6.26873 7.16345 9.30304 8.76288C11.3628 9.84861 12.0459 11.6742 14.7683 11.4068C17.2212 11.1659 18.7594 8.96264 20.9676 8.77071C24.3985 8.47253 28.7851 9.64444 31.856 7.64651C35.458 5.3031 33.8622 -2.84323 33.8622 -6.60386C33.8622 -10.3372 34.8421 -15.6321 33.7834 -19.202C33.3828 -20.5528 31.2705 -19.9786 30.9432 -21.72C30.4913 -24.1237 30.8866 -26.9509 30.8866 -29.3962V-44.7563V-57.3911C30.8873 -59.2926 31.145 -61.2593 33.3663 -61.6028ZM391.192 -78.9448L382.761 -86.3771V-86.8725C386.754 -88.7629 391.609 -92.8893 395.904 -90.776C397.494 -89.9934 399.908 -89.427 399.296 -87.1425C399.008 -86.0636 397.694 -85.1645 396.905 -84.4408C394.972 -82.666 392.911 -80.9294 391.192 -78.9448ZM13.0327 -91.4944C14.8805 -91.8754 17.6004 -91.324 18.3383 -89.349C18.8367 -88.0153 18.4879 -86.0524 18.4879 -84.6429C18.4879 -80.9144 18.122 -76.9448 18.5586 -73.2467C19.3696 -66.3799 18.7357 -59.1056 18.7357 -52.1885L18.7357 -12.0542C18.7357 -8.445 18.5111 -4.75398 18.758 -1.15352C18.9406 1.51044 19.6302 5.11291 18.905 7.72316C18.5036 9.16752 16.6089 9.97011 15.2642 10.1681C13.9851 10.3564 12.2607 10.2535 11.5515 8.97793C10.861 7.73599 11.2966 5.43498 11.2966 4.04908V-7.84257L11.2966 -69.0351V-86.1293C11.2966 -87.9667 10.6328 -90.9995 13.0327 -91.4944ZM404.831 -91.4858C405.856 -91.5487 407.4 -91.3533 407.87 -90.2941C408.482 -88.915 408.054 -86.6261 408.054 -85.1383V-72.9989V-11.8064V5.04007C408.054 7.03037 408.558 10.0033 405.823 10.2283C404.138 10.3669 401.82 10.1594 400.907 8.48534C400.204 7.19621 400.615 4.98156 400.615 3.55362V-8.09031V-69.5305V-82.4132C400.615 -84.3523 400.248 -86.7202 400.719 -88.6067C401.183 -90.4663 403.048 -91.3764 404.831 -91.4858ZM9.80876 -88.8545L9.80876 -23.6981L9.80876 -3.13546L10.0568 7.26974C7.37338 7.94677 2.60433 6.01817 1.65263 3.3049C1.07267 1.65155 1.37768 -0.416218 1.37768 -2.14448L1.37768 -12.7976L1.37768 -68.0442L1.37768 -81.1746C1.37768 -82.9633 1.08264 -85.1641 2.42601 -86.5783C4.37828 -88.6335 7.31 -88.2602 9.80876 -88.8545ZM32.6223 -84.643L19.9757 -84.3953V-88.6069C24.1538 -88.9363 31.3787 -89.9836 32.6223 -84.643ZM409.542 7.76508L409.294 7.51733L409.542 -6.35626V-32.617V-68.5397L409.294 -88.3591C411.66 -89.0091 416.385 -88.112 417.475 -85.6118C418.109 -84.1571 417.723 -81.9897 417.725 -80.4314V-69.2829V-12.0544C417.725 -8.34804 417.581 -4.60856 417.744 -0.905925C417.828 0.999022 418.183 3.19552 416.884 4.78146C415.217 6.81484 411.979 7.29259 409.542 7.76508ZM382.761 -85.8817L390.448 -78.6972V-78.2017L382.761 -71.2649L382.513 -81.1746L382.761 -85.8817ZM399.375 -85.8817V-70.7694C396.492 -72.305 393.065 -76.0403 391.192 -78.6972L399.375 -85.8817ZM44.2771 3.8012H52.9561V-19.2389V-66.31V-79.4404L52.8697 -84.2458L50.9724 -84.643L44.6424 -84.4935L44.2771 -79.4404V-63.3371V3.8012ZM70.8102 -84.3953C69.3849 -76.8373 68.5968 -69.1631 67.1861 -61.6029C66.8574 -59.8412 65.2758 -58.5665 65.0363 -56.8958C64.4317 -52.6798 65.1069 -47.7983 65.1069 -43.5177C65.1069 -37.1746 64.5043 -30.5073 65.133 -24.1937C65.312 -22.3959 66.7836 -21.0198 67.173 -19.2389C68.7501 -12.0277 70.737 -3.80878 71.0584 3.55345H122.389C130.786 3.55345 139.573 4.30451 147.93 3.52766C150.798 3.26103 153.728 2.1259 156.567 1.57613C166.636 -0.373399 176.636 -3.0558 186.757 -4.69181C192.683 -5.64973 198.975 -5.3607 204.964 -5.62277C215.211 -6.07107 225.437 -6.40555 235.713 -6.35606C250.055 -6.28694 264.832 -6.43833 279.108 -5.07546C297.502 -3.31961 315.53 1.92285 333.91 3.75896C343.865 4.7534 354.402 3.80119 364.411 3.80119C365.418 -3.98688 367.33 -11.6524 368.089 -19.4867C368.748 -26.2924 368.131 -33.4572 368.131 -40.297C368.131 -47.7315 368.716 -55.453 367.924 -62.8416C367.362 -68.0866 366.586 -73.2744 365.552 -78.4494C365.263 -79.8938 365.265 -82.9076 364.199 -83.9919C363.345 -84.8603 360.357 -84.3953 359.204 -84.3953H344.821C323.927 -84.3953 302.972 -78.8812 282.332 -75.8286C277.216 -75.072 272.107 -75.1965 266.958 -74.9713C255.224 -74.458 243.513 -74.2567 231.746 -74.2378C220.693 -74.22 209.567 -74.2028 198.517 -74.9589C194.414 -75.2396 190.195 -74.9212 186.118 -75.5499C176.239 -77.0738 166.344 -80.1813 156.61 -82.4714C154.095 -83.0631 151.483 -84.0425 148.922 -84.3496C141.941 -85.1869 134.384 -84.3953 127.349 -84.3953C108.575 -84.3953 89.5572 -83.5062 70.8102 -84.3953ZM32.6228 -83.8998L32.3748 -81.1746H32.1268V-83.6521H20.2241L20.2241 -72.7514L19.7282 -81.1746L20.3029 -83.8222L23.9437 -83.8998H32.6228ZM52.4607 3.30568H44.7734V-84.1475C46.419 -84.1475 50.7586 -84.9251 52.063 -83.8929C53.0195 -83.1361 52.4607 -79.8184 52.4607 -78.6972V-62.8416V3.30568ZM4.60559 -83.7381C1.74462 -82.813 2.15489 -74.1053 6.58457 -75.3708C9.73172 -76.2699 9.39562 -85.2868 4.60559 -83.7381ZM14.2863 -83.4213C12.7337 -83.0008 13.468 -80.7753 15.0021 -81.3289C16.4406 -81.848 15.6844 -83.7999 14.2863 -83.4213ZM412.777 -83.4681C411.407 -82.9104 411.527 -81.4129 411.526 -80.1836C411.526 -77.699 411.8 -73.9131 415.483 -75.4127C416.931 -76.0021 416.734 -77.6631 416.734 -78.9449C416.734 -81.4533 416.385 -84.9372 412.777 -83.4681ZM5.1013 -83.2967C8.55748 -84.2588 8.56797 -76.4379 6.3316 -75.8326C2.8014 -74.8772 2.82937 -82.6642 5.1013 -83.2967ZM404.143 -83.2192C402.683 -82.5665 403.995 -80.807 405.289 -81.3279C406.789 -81.9314 405.511 -83.8311 404.143 -83.2192ZM413.758 -83.2774C417.179 -83.8579 417.259 -76.2357 414.745 -75.781C411.196 -75.1391 411.268 -82.8549 413.758 -83.2774ZM147.681 -83.1565V-82.9088L96.8467 -67.2528L77.7528 -61.3896L67.5859 -58.3823C69.7057 -63.7978 70.0291 -70.4581 70.8419 -76.2197C71.0428 -77.6439 71.0424 -81.9938 72.1989 -82.9019C73.2276 -83.7098 76.2382 -83.1565 77.5048 -83.1565H91.8873L147.681 -83.1565ZM334.38 -83.0491C335.7 -82.9967 336.671 -80.693 337.225 -79.6881C339.305 -75.9169 340.78 -71.9965 341.702 -67.7965C343.74 -58.5114 342.837 -48.5172 342.837 -39.0583C342.837 -31.2122 343.679 -22.7375 341.987 -15.0273C340.96 -10.3446 339.554 -5.68188 337.354 -1.40139C336.664 -0.057895 335.956 2.49202 334.156 2.52577C330.355 2.59704 326.246 1.28976 322.503 0.68912C313.165 -0.809222 303.838 -2.43446 294.482 -3.81153C291.169 -4.29907 287.88 -4.90583 284.563 -5.36529C283.551 -5.50549 281.3 -5.51411 280.58 -6.29242C279.829 -7.10269 279.694 -9.02262 279.461 -10.0724C278.752 -13.2588 277.969 -16.4938 277.581 -19.7344C276.835 -25.9621 277.124 -32.2938 277.124 -38.5628C277.124 -45.3226 276.877 -52.1419 277.349 -58.8777C277.623 -62.7819 278.543 -66.4772 279.441 -70.2739C279.707 -71.3977 279.709 -73.4511 280.722 -74.1971C281.706 -74.9221 283.633 -74.8573 284.811 -75.0774C288.339 -75.7365 291.927 -76.2359 295.474 -76.7833C304.322 -78.1486 313.177 -79.5553 322.007 -81.0347C325.876 -81.6829 330.465 -83.2044 334.38 -83.0491ZM363.418 2.56249C356.763 3.79688 349.11 2.81023 342.341 2.81023C340.357 2.81023 338.07 2.43411 336.141 2.81023C335.984 0.452411 338.622 -2.87228 339.514 -5.11753C341.554 -10.2545 342.768 -15.4855 343.29 -20.9731C344.047 -28.9159 343.333 -37.2701 343.333 -45.2519C343.333 -52.0546 344.054 -59.3655 342.672 -66.0623C341.9 -69.8007 340.825 -73.5141 339.171 -76.963C338.201 -78.9845 336.45 -81.0147 335.894 -83.1565H355.731C357.379 -83.1565 361.672 -83.9268 362.99 -82.9019C364.105 -82.035 364.098 -78.7731 364.361 -77.4584C365.451 -72.0112 366.509 -66.4179 366.646 -60.8597C366.957 -48.2067 367.735 -35.1096 366.868 -22.4595C366.294 -14.0838 363.777 -5.7781 363.418 2.56249ZM147.434 -82.1656C144.809 -75.0044 139.6 -68.941 137.773 -61.3552C136.441 -55.8252 137.267 -49.4266 137.267 -43.7654C137.267 -35.2634 135.909 -25.4657 138.367 -17.2569C140.443 -10.3282 144.933 -4.7118 147.682 1.81926C141.231 0.947172 134.276 -2.28287 128.092 -4.35558C115.427 -8.60019 102.588 -12.3313 89.9038 -16.5139C84.3824 -18.3346 78.8499 -20.1274 73.2896 -21.8241C71.0058 -22.521 68.7133 -23.5967 66.3463 -23.946V-38.5628C67.7751 -38.5006 70.2768 -37.1232 71.544 -37.7732C74.9078 -39.4986 75.3807 -44.5918 71.296 -45.8225C70.0256 -46.2053 67.8204 -45.1481 66.5943 -44.7564L66.3463 -54.1706L66.9211 -57.4274L74.0335 -59.746L90.8957 -64.9287L130.571 -77.1415L147.434 -82.1656ZM146.938 -79.9359C146.499 -75.5376 144.685 -71.2611 144.252 -66.8055C143.613 -60.2315 144.12 -53.582 143.958 -46.9861C143.705 -36.6303 142.74 -25.8434 143.756 -15.5227C144.265 -10.3512 146.031 -5.44193 147.186 -0.410436H146.938C142.984 -6.86406 139.066 -14.1666 137.843 -21.7163C136.662 -29.0065 137.763 -37.3642 137.763 -44.7564C137.763 -49.4173 137.179 -54.5125 137.837 -59.1255C138.486 -63.6736 140.741 -67.8951 142.646 -72.0081C143.847 -74.6028 145.108 -77.7297 146.938 -79.9359ZM398.383 -70.5217H383.256L388.712 -76.2197L390.944 -77.7257L393.175 -75.972L398.383 -70.5217ZM313.328 -77.3533C305.555 -76.3337 297.887 -74.8682 290.266 -72.9677C288.372 -72.4953 283.888 -72.3088 282.544 -70.8686C281.78 -70.051 281.704 -68.1159 281.488 -67.0533C280.841 -63.8657 280.101 -60.6632 280.1 -57.3913V-23.6983C280.1 -20.285 280.628 -16.8963 281.234 -13.5408C281.42 -12.513 281.397 -10.5445 282.229 -9.80843C283.02 -9.10909 284.562 -9.03847 285.555 -8.83294C288.042 -8.31819 290.518 -7.69771 292.994 -7.12893C301.762 -5.11474 310.515 -3.38335 319.527 -3.38335C321.826 -3.38335 324.438 -3.03485 326.704 -3.42006C328.391 -3.70687 327.462 -7.57133 327.462 -8.8337V-26.1757V-64.5758C327.462 -67.7113 327.393 -70.8555 327.462 -73.9901C327.482 -74.8343 328.03 -76.5669 327.269 -77.2038C326.503 -77.8447 324.435 -77.4585 323.491 -77.4585C320.159 -77.4585 316.629 -77.7868 313.324 -77.3533M278.856 -74.2378L275.89 -58.8778L275.88 -37.3241L275.923 -21.9641L278.856 -6.10853L269.433 -6.61376L251.331 -7.10045L214.631 -7.33748L186.858 -5.86077L184.897 -19.7344L184.874 -37.8196L184.884 -60.3642L186.858 -74.2378L218.847 -73.0027L255.299 -73.4909L278.856 -74.2378ZM20.2197 -72.0081V-70.7694H19.9718L20.2197 -72.0081ZM21.7075 -70.2739L21.7075 -10.0724H20.2197L19.9718 -70.2739H21.7075ZM22.7781 -70.1233C24.4377 -70.9047 24.4348 -68.7792 24.4353 -67.7965V-58.1345L24.4353 -21.7163V-13.0453C24.4353 -12.2603 24.734 -10.6844 23.8607 -10.2575C22.3238 -9.50621 22.2055 -11.3119 22.2035 -12.3021V-20.9731L22.2035 -57.1435V-66.8055C22.2035 -67.6513 21.8286 -69.6762 22.7781 -70.1233ZM24.9312 -10.0724L24.9312 -70.2739L26.9081 -69.8767L27.163 -66.8055V-59.1255V-22.7073L27.163 -13.7885L26.9081 -10.4696L24.9312 -10.0724ZM32.1224 -70.2739V-62.5939C28.7242 -61.2499 29.3948 -56.8729 29.3948 -53.9229V-28.1576C29.3948 -25.0514 28.251 -19.7367 32.3705 -18.9911L32.6184 -10.3201C31.6854 -10.0446 28.6091 -9.5637 27.9101 -10.4723C27.3401 -11.2134 27.6589 -12.9059 27.6589 -13.7885V-22.2118L27.6589 -58.63V-67.0533C27.6589 -67.8339 27.3573 -69.466 28.0565 -70.0193C28.9019 -70.6882 31.0891 -70.2739 32.1224 -70.2739ZM387.716 -69.5307C388.713 -66.163 387.965 -61.6473 387.965 -58.1345C384.896 -58.0982 385.981 -53.9858 385.981 -51.6932V-30.3873C385.981 -28.0025 384.781 -22.9927 387.965 -22.955V-10.8156L382.907 -11.0703L382.509 -14.7795V-25.1847V-69.2829L387.716 -69.5307ZM395.9 -69.5307V-55.4093V-26.9189L396.148 -11.0634L388.46 -10.8156V-22.955C391.147 -23.1598 390.196 -27.4124 390.196 -29.3963V-50.7022C390.196 -52.7808 391.254 -57.9216 388.46 -58.1345V-66.31L388.858 -69.2761L395.9 -69.5307ZM399.123 -69.5307L399.371 -63.0894V-50.95V-10.8156H396.644V-55.6571V-65.5668L396.898 -69.1333L399.123 -69.5307ZM207.192 -61.4978C204.047 -61.0802 201.149 -60.1093 199.513 -57.1435C198.163 -54.6948 198.513 -51.9097 198.513 -49.2158V-34.3512C198.513 -30.5697 197.583 -25.4709 199.911 -22.2118C203.032 -17.8426 208.686 -18.4957 213.391 -18.4957C215.338 -18.4957 217.413 -18.2945 219.342 -18.57C230.117 -20.108 227.526 -32.3156 227.526 -40.297C227.526 -45.0227 228.893 -52.3164 226.841 -56.6481C223.806 -63.0542 213.103 -62.2827 207.192 -61.4978ZM207.192 -61.0367C212.83 -61.7104 223.15 -62.596 226.157 -56.6481C228.393 -52.227 227.03 -44.9048 227.03 -40.0493C227.03 -33.5644 229.555 -20.511 220.334 -19.2836C214.706 -18.5345 203.839 -17.2223 200.306 -22.7494C198.258 -25.955 199.009 -30.4827 199.009 -34.1035V-47.4816C199.009 -54.0507 199.238 -60.0863 207.192 -61.0367ZM389.7 -57.3913V-23.6983L386.725 -23.4505L386.477 -34.3512V-57.3913H389.7ZM13.7094 -55.1545C12.5737 -54.2289 14.302 -52.5791 15.3959 -53.5771C16.5153 -54.5984 14.6754 -55.9417 13.7094 -55.1545ZM404.14 -55.2216C402.702 -54.6003 403.975 -52.6022 405.286 -53.2473C406.76 -53.9727 405.507 -55.8124 404.14 -55.2216ZM258.77 -46.7383C260.038 -44.138 263.801 -41.878 265.962 -39.9786C266.994 -39.0708 267.796 -38.0997 269.185 -37.8196L262.843 -43.5186L258.77 -46.7383ZM66.8388 -39.8015V-43.7654C68.1074 -44.056 70.0735 -45.0849 71.2986 -44.3494C73.4925 -43.0323 73.6026 -39.7532 70.8027 -39.0031C69.6348 -38.6902 67.9809 -39.54 66.8388 -39.8015ZM14.5173 -27.4226C13.0928 -27.3348 13.0355 -25.2581 14.5173 -25.2581C16.1004 -25.2581 16.1534 -27.5235 14.5173 -27.4226ZM404.139 -27.2267C402.671 -26.5948 403.925 -24.5886 405.286 -25.2744C406.754 -26.0137 405.496 -27.8106 404.139 -27.2267ZM67.3347 -23.4505L77.0057 -20.2228L95.3557 -14.3473L146.686 2.06699V2.31474H93.372H78.7415C77.1241 2.31474 74.1022 2.90137 72.6497 2.16525C71.4932 1.5792 71.4491 -2.43006 71.2403 -3.63109C70.3505 -8.74738 69.286 -13.8512 68.542 -18.9911C68.3402 -20.3856 66.9795 -22.1527 67.3347 -23.4505ZM398.875 -9.82467C397.752 -7.41912 395.025 -5.72345 393.172 -3.87884C392.609 -3.31839 391.819 -2.2143 390.941 -2.19223C390.031 -2.16934 389.18 -3.35806 388.597 -3.93103C386.898 -5.60051 383.743 -7.53032 383.005 -9.82467H398.875ZM32.3705 -9.57692L32.6184 2.56248C29.2475 3.55792 24.7277 2.81022 21.2116 2.81022V2.56248H32.1224C32.1224 -0.853378 31.0539 -6.44248 32.3705 -9.57692ZM383.005 -8.83369C385.293 -6.54789 389.069 -4.0997 390.444 -1.15366L382.757 5.78313L382.509 -4.86981L383.005 -8.83369ZM399.371 -8.83369V6.03088C397.087 4.96684 392.127 0.560971 391.436 -1.89689L399.371 -8.83369ZM4.84628 -5.20262C1.76645 -4.26276 2.04059 4.62526 6.58007 3.24645C9.69241 2.30109 9.26592 -6.55129 4.84628 -5.20262ZM413.011 -4.93364C410.071 -3.79505 410.667 4.94571 415.237 3.34183C418.14 2.32311 417.654 -6.73208 413.011 -4.93364ZM6.3284 -4.63716C8.47096 -4.21143 8.70039 3.43192 5.10428 2.75346C2.81196 2.32096 2.78228 -5.34179 6.3284 -4.63716ZM413.272 -4.49456C417.176 -5.75478 417.288 2.12987 414.979 2.85515C411.237 4.03073 411.312 -3.86159 413.272 -4.49456ZM68.0787 34.2736V34.5213L79.9814 35.5123C78.7702 37.6385 78.0287 42.8843 75.9457 44.1764C74.8765 44.8396 73.2049 44.2437 72.0462 44.1931C69.1178 44.0649 64.0104 43.3013 61.4066 44.7786C58.6904 46.3197 59.4478 50.7509 59.0771 53.3498C58.8919 54.6488 58.4823 55.826 59.3695 56.9906C60.5649 58.5597 63.2676 58.902 65.103 59.0479L68.4888 65.7369L70.1432 67.8171L75.5179 67.9666H88.4125C90.3429 52.7856 101.955 41.0625 117.921 43.5488C125.797 44.7752 132.305 49.1886 135.996 56.3227C137.442 59.1171 138.282 61.9422 138.969 64.9937C139.163 65.8515 139.026 67.5749 140.048 67.8879C143.576 68.9687 148.936 67.9666 152.638 67.9666H180.907L274.145 67.9666C275.614 60.8522 278.569 54.1209 284.064 49.1804C292.246 41.8235 305.995 41.0297 314.387 48.5232C318.334 52.0475 321.022 56.3888 322.945 61.2776C323.472 62.6182 324.035 67.2025 325.305 67.8171C327.398 68.83 331.407 67.8271 333.658 67.7286C340.228 67.4412 346.98 68.5546 353.496 67.9246C355.898 67.6924 357.724 66.8298 358.699 64.4982C359.243 63.1967 359.356 61.4333 360.352 60.3653C361.857 58.7524 364.18 59.4879 365.509 57.0659C366.99 54.3655 366.759 48.5722 364.146 46.5711C361.703 44.7006 357.471 44.2448 354.488 44.1833L355.976 33.0349L363.663 34.0258C367.709 26.8093 354.546 24.4815 350.025 23.4595C344.979 22.3189 339.541 22.0144 334.65 20.2914C318.702 14.6728 303.959 5.01939 287.287 1.57077C266.866 -2.65345 246.501 -2.67199 225.79 -2.6401C214.212 -2.62226 201.278 -3.52066 190.082 -0.0546759C186.902 0.929597 183.903 2.85534 180.907 4.29058C174.604 7.31001 168.243 10.2781 162.061 13.537C155.81 16.8318 149.926 20.2371 142.967 21.7813C118.455 27.22 90.8872 21.7932 68.0787 34.2736ZM222.318 44.6788L213.639 44.431H197.521H145.694C145.694 38.7219 146.21 33.0864 147.821 27.5845C148.43 25.5037 149.003 22.9333 150.397 21.2112C151.327 20.0636 153.331 19.5147 154.621 18.8495C157.688 17.268 160.709 15.5986 163.796 14.0573C169.079 11.4203 174.388 8.84926 179.667 6.21211C183.181 4.45666 186.824 2.22831 190.578 1.04833C194.2 -0.0904104 197.994 -0.34445 201.736 -0.700226C207.532 -1.25121 213.276 -1.26295 219.095 -1.40502C220.564 -1.44092 224.156 -2.39575 225.392 -1.39373C226.057 -0.854811 225.571 0.59581 225.545 1.32379C225.448 3.96598 225.172 6.61107 225.056 9.25157C224.702 17.3135 223.621 25.2562 222.856 33.2826C222.512 36.8912 223.343 41.2147 222.318 44.6788ZM224.054 44.6788C223.349 41.7193 224.074 38.2681 224.28 35.2646C224.827 27.285 226.234 19.236 226.286 11.2335C226.306 8.15245 226.491 4.88095 226.853 1.81928C226.946 1.02516 226.771 -0.583817 227.285 -1.21748C227.863 -1.93131 229.449 -1.64912 230.253 -1.64912H238.188C243.923 -1.64912 249.587 -1.41329 255.299 -1.16338C258.229 -1.03519 262.199 -1.44151 264.97 -0.455527C267.354 0.392884 269.525 2.5443 271.417 4.15488C278.624 10.289 285.404 17.4485 290.969 25.1071C292.893 27.7541 295.976 32.2708 293.608 35.5087C291.494 38.3996 286.629 39.7232 283.568 41.4012C282.021 42.249 280.528 44.02 278.853 44.5096C277.605 44.874 275.941 44.4311 274.641 44.4311H264.474H237.445C233.207 44.4311 228.18 43.6974 224.054 44.6788ZM399.371 8.01285L393.668 10.5895L390.196 9.57825L382.757 6.77413C384.234 4.67994 386.407 3.12622 388.212 1.32379C388.846 0.690935 389.733 -0.564554 390.692 -0.677658C391.637 -0.789068 392.538 0.434674 393.149 1.00168C395.093 2.8055 398.952 5.29963 399.371 8.01285ZM153.63 23.3729H221.574L223.558 -0.162663C213.889 -0.162663 203.493 -0.576419 194.049 1.79329C185.498 3.93902 176.959 8.97466 169.252 13.139C165.48 15.1769 161.686 17.1831 158.093 19.5317C156.501 20.5725 154.562 21.6654 153.63 23.3729ZM362.919 32.7871C361.18 32.5675 356.554 31.1093 355.063 32.0544C354.183 32.6121 354.312 34.5931 354.202 35.5123C353.834 38.5711 353.387 41.6229 353 44.6788H331.179C327.821 44.6788 323.756 45.3066 320.474 44.5838C317.934 44.0245 315.348 41.3514 312.829 40.3316C306.254 37.671 298.351 37.2099 291.503 38.9807C292.647 36.9651 295.171 36.4335 295.637 33.7781C296.37 29.6003 292.653 25.3895 290.264 22.3819C286.287 17.3765 282.072 12.3877 277.359 8.05127C274.704 5.60845 269.993 2.89735 268.193 -0.162663C285.063 0.185272 300.363 6.91637 315.556 13.4313C323.604 16.8822 331.438 21.1062 340.106 22.726C346.082 23.8428 352.232 24.7361 357.96 26.8547C360.818 27.9118 363.311 29.4733 362.919 32.7871ZM228.022 23.3729H284.808C284.16 20.1224 280.637 16.7355 278.608 14.2064C274.763 9.412 270.117 3.59544 264.226 1.26454C258.274 -1.09028 250.176 0.0850878 243.892 0.0850878C240.5 0.0850878 237.108 0.326368 233.729 0.205504C232.624 0.166039 230.333 -0.389895 229.411 0.339711C228.53 1.03713 228.797 5.14388 228.769 6.27866C228.627 11.9823 228.022 17.6586 228.022 23.3729ZM13.8512 0.835393C12.595 1.67375 14.0385 3.24353 15.2223 2.55448C16.6558 1.72015 15.0802 0.0152254 13.8512 0.835393ZM404.12 0.83985C402.625 1.66425 404.183 3.51116 405.492 2.69334C406.795 1.87918 405.333 0.170714 404.12 0.83985ZM272.905 1.81935C274.034 3.74855 276.478 5.25939 278.112 6.78031C282.189 10.5755 286.321 14.3214 290.511 17.9932C292.398 19.6468 294.76 22.4958 297.206 23.2468C300.505 24.2597 304.702 23.6207 308.117 23.6207H329.939C328.783 22.277 326.794 21.6172 325.227 20.8288C322.566 19.4901 319.913 18.0806 317.292 16.664C307.9 11.5888 298.295 7.66402 288.031 4.75747C283.135 3.37089 278.017 1.81935 272.905 1.81935ZM20.2197 7.51744C20.2197 6.56845 19.7919 4.21355 20.6173 3.56043C21.2246 3.07993 22.4737 3.30581 23.1954 3.30581H29.6427C30.3506 3.30581 31.6285 3.07447 32.2171 3.56043C33.0195 4.22279 32.0928 5.6963 31.5708 6.22577C30.0209 7.79786 27.4398 7.51744 25.4271 7.51744H20.2197ZM148.67 21.6388C146.444 27.0594 145.216 32.4278 144.525 38.2376C144.274 40.3475 144.605 42.6363 144.207 44.6789C141.137 43.9488 137.451 45.3686 134.536 44.4663C132.363 43.7939 130.45 41.6927 128.336 40.7222C122.896 38.2243 116.936 37.3566 110.978 37.7642C106.773 38.052 102.308 39.0079 98.5794 41.0401C96.6718 42.0799 94.8915 44.0266 92.876 44.7463C91.4309 45.2624 89.4347 44.9266 87.9165 44.9266H77.7496L81.4692 34.0259L72.5422 33.7782L77.2536 31.5839L91.3881 28.2659L126.848 25.0653L140.487 23.4686L148.67 21.6388ZM207.118 33.0418C206.134 33.7845 206.341 35.8741 207.473 36.3539C209.384 37.1639 212.811 36.5034 214.879 36.5034C215.612 36.5034 216.808 36.72 217.432 36.2487C218.416 35.5061 218.209 33.4165 217.078 32.9367C215.167 32.1267 211.74 32.7872 209.672 32.7872C208.939 32.7872 207.742 32.5705 207.118 33.0418ZM275.987 33.0418C275.007 33.7063 275.072 35.8551 276.185 36.3539C278.094 37.2092 281.729 36.5035 283.816 36.5034C284.527 36.5033 285.567 36.6757 286.188 36.2487C287.106 35.6176 287.037 33.4079 285.991 32.9367C284.087 32.0792 280.443 32.7871 278.36 32.7872C277.645 32.7873 276.613 32.6173 275.987 33.0418ZM126.848 33.0351C126.697 33.8502 126.39 34.9266 126.893 35.6816C127.489 36.577 130.855 36.5992 131.659 35.9637C133.883 34.2036 130.61 33.0352 129.328 33.0351H126.848ZM142.719 58.0572C141.575 58.0572 139.384 58.4799 138.413 57.8025C137.201 56.9564 136.427 54.3586 135.603 53.1023C133.927 50.5455 131.652 48.1461 129.08 46.4733C119.973 40.5478 106.262 40.3941 97.5878 47.284C93.8464 50.2556 91.5475 54.1383 89.4046 58.3049L85.4371 58.0572C87.611 50.4038 92.75 44.0905 100.068 40.7924C115.325 33.9157 138.571 40.1512 142.719 58.0572ZM328.699 58.0572C327.21 58.0572 324.698 58.5454 323.341 57.9077C322.376 57.4546 321.809 55.7114 321.294 54.8365C320.189 52.959 318.81 51.1921 317.289 49.6339C313.102 45.3456 307.566 42.2314 301.422 42.2018C294.353 42.1678 288.257 43.8342 282.846 48.5783C280.962 50.2304 279.344 52.2249 278.011 54.341C277.379 55.3432 276.805 57.1544 275.784 57.8025C274.786 58.436 272.81 58.0572 271.665 58.0572C272.273 55.5025 273.862 53.0408 275.302 50.8726C287.799 32.0642 322.471 34.8359 328.699 58.0572ZM113.706 45.074C108.217 45.2722 102.567 47.2073 98.622 51.1624C91.1488 58.6553 92.448 70.9197 101.059 76.9424C105.682 80.1757 110.903 81.0821 116.434 80.8398C119.073 80.7242 121.737 79.8898 124.121 78.7909C126.304 77.7844 128.39 76.3264 130.009 74.5472C131.504 72.9045 132.754 71.025 133.588 68.9578C138.764 56.1321 126.09 44.6269 113.706 45.074ZM145.943 58.0572H143.215C141.984 52.7424 138.276 49.4241 135.28 45.1745L141.727 45.1708L144.057 45.1911L144.598 48.3951L145.943 58.0572ZM222.318 44.9267L224.054 58.0571L147.182 58.0571L145.695 45.1745H196.777H213.143L222.318 44.9267ZM278.36 45.4222C275.725 47.719 273.83 50.8022 272.181 53.8455C271.626 54.8693 270.907 57.397 269.832 57.9076C267.501 59.0148 262.597 58.0571 260.01 58.0571H235.957H228.518C227.743 58.0571 226.342 58.3158 225.692 57.8025C225.057 57.3014 225.083 55.5902 224.951 54.8365C224.437 51.9122 223.56 47.8469 224.054 44.9267L237.445 45.1745H263.978L273.897 45.1737L278.36 45.4222ZM296.711 45.2808C293.529 45.736 290.54 46.6791 287.783 48.3519C278.452 54.0152 276.136 66.58 283.838 74.6525C288.579 79.6212 296.19 81.7323 302.91 80.7753C305.824 80.3602 308.829 79.4065 311.341 77.8607C313.464 76.5544 315.314 74.912 316.821 72.9219C317.996 71.3716 318.948 69.5821 319.514 67.7193C323.67 54.0641 309.322 43.4765 296.711 45.2808ZM329.195 58.0573C327.923 52.7069 324.017 49.4369 321.012 45.1747C331.344 45.1747 341.677 45.1251 352.009 45.1749C355.161 45.19 361.562 45.304 363.731 47.9937C365.37 50.0269 365.952 57.1426 362.67 57.9786C359.512 58.7832 355.271 58.0573 352.009 58.0573H329.195ZM92.1324 45.4224C89.7488 49.2295 85.1565 53.1317 85.1891 58.0573H70.5587C67.7997 58.0573 64.4875 58.3334 61.8805 57.2621C61.1883 56.9776 60.4767 56.5595 60.2515 55.8018C59.9386 54.7489 60.4176 53.6424 60.5653 52.607C60.8691 50.4767 59.9964 47.2858 62.1411 45.8541C64.0206 44.5995 68.3546 45.4224 70.5587 45.4224H92.1324ZM89.1567 58.5528L87.1729 66.7283H75.2701C74.0247 66.7283 71.7395 67.1643 70.6554 66.4737C68.7591 65.2656 67.1909 60.7745 66.0951 58.8006L73.7823 58.5528H89.1567ZM149.414 66.7283H140.487L138.751 58.5528C140.457 58.5528 144.403 57.8158 145.816 58.8074C146.504 59.2898 146.685 60.531 146.935 61.278C147.584 63.2224 148.64 64.8654 149.414 66.7283ZM225.542 66.7283L166.276 66.7283H155.862C154.546 66.7283 152.602 67.082 151.399 66.4737C149.022 65.2717 147.786 61.0135 147.678 58.5528H206.448H219.095L223.908 58.8074L224.583 61.0302L225.542 66.7283ZM269.681 58.5528C269.428 60.242 268.189 65.4646 266.792 66.4737C266.058 67.0042 264.587 66.7283 263.73 66.7283H256.291H227.03L225.542 58.8006C229.671 57.5812 235.365 58.5528 239.677 58.5528H269.681ZM275.633 58.8006L272.765 66.4737L268.442 66.7283C269.064 62.5736 270.588 57.3107 275.633 58.8006ZM359.944 58.5528C358.799 60.5895 357.92 64.7254 355.966 66.0524C353.839 67.4959 349.739 66.7283 347.297 66.7283H325.971L323.492 58.8006C326.931 57.785 331.56 58.5528 335.146 58.5528H359.944Z" fill="#304A6E"/>
</svg>
