<svg width="72" height="81" viewBox="0 0 72 81" fill="none" xmlns="http://www.w3.org/2000/svg">
<rect width="72" height="81" fill="#1A1E26"/>
<rect x="-786" y="-596" width="980" height="753" rx="4" fill="white"/>
<path d="M-176.027 -161.811C-180.937 -160.83 -185.408 -159.437 -189.127 -155.888C-196.166 -149.172 -196.021 -137.752 -188.673 -131.29C-183.361 -126.619 -175.925 -125 -169.084 -126.375C-165.975 -127 -162.92 -128.233 -160.404 -130.182C-158.556 -131.614 -156.963 -133.143 -155.776 -135.183C-148.982 -146.853 -157.628 -159.426 -170.075 -161.479C-172.049 -161.805 -174.013 -162.214 -176.027 -161.811ZM9.20941 -161.763C3.45548 -160.321 -1.78542 -158.767 -5.54155 -153.763C-11.6619 -145.609 -8.80016 -134.602 -0.461556 -129.259C4.75147 -125.919 11.4651 -125.124 17.3925 -126.604C25.3828 -128.601 32.4542 -135.415 32.239 -144.101C32.0089 -153.386 24.2527 -159.813 15.6567 -161.423C13.56 -161.816 11.3399 -162.297 9.20941 -161.763ZM-211.487 -125.273L-208.015 -116.106L-215.951 -115.633L-219.918 -115.115C-195.691 -103.296 -168.551 -108.31 -143.046 -102.261C-137.941 -101.05 -133.508 -98.4075 -128.912 -95.9849C-122.064 -92.3749 -115.049 -89.039 -108.082 -85.6684C-104.866 -84.1124 -101.576 -82.0168 -98.1632 -80.9492C-86.6831 -77.3583 -73.3516 -78.2017 -61.4631 -78.2017C-46.5343 -78.2017 -31.9201 -78.4111 -17.0758 -79.894C-8.65999 -80.7347 0.275912 -81.9237 8.21749 -84.9383C21.2618 -89.89 33.6587 -96.8998 46.9014 -101.269C52.2479 -103.033 58.0497 -103.385 63.5156 -104.682C68.9449 -105.969 77.8449 -107.577 75.9143 -114.868L67.9791 -113.877C67.3407 -116.465 67.2252 -119.171 66.8436 -121.804C66.7232 -122.635 66.2061 -124.16 66.8897 -124.841C67.9 -125.848 71.2711 -125.596 72.6905 -126.017C77.5215 -127.45 79.6896 -132.337 77.8658 -137.164C77.4279 -138.323 76.5554 -139.651 75.395 -140.186C74.2235 -140.726 72.8193 -140.421 72.0491 -141.651C70.8383 -143.584 71.0304 -146.074 69.1469 -147.622C67.1447 -149.267 64.1878 -148.808 61.7796 -148.808H44.6694C42.696 -148.808 39.0925 -149.51 37.3054 -148.659C36.0316 -148.053 35.4629 -143.464 34.9509 -142.119C33.2132 -137.555 30.469 -133.061 26.8153 -129.774C18.0869 -121.924 4.03114 -122.634 -4.42932 -130.498C-9.59979 -135.303 -12.4477 -142.006 -13.8523 -148.808L-107.09 -148.808H-135.359C-139.061 -148.808 -144.42 -149.81 -147.949 -148.73C-148.976 -148.415 -148.867 -146.699 -149.019 -145.835C-149.521 -142.981 -150.494 -140.241 -151.787 -137.66C-155.176 -130.893 -161.303 -125.986 -168.836 -124.644C-185.227 -121.725 -197.532 -132.932 -199.584 -148.808H-212.727C-214.17 -148.808 -216.854 -149.321 -218.117 -148.554C-220.386 -147.176 -221.211 -142.728 -222.854 -140.666C-224.154 -139.034 -226.896 -139.647 -228.456 -138.113C-229.638 -136.952 -229.042 -135.604 -228.888 -134.192C-228.597 -131.507 -229.236 -127.407 -226.61 -125.704C-225.276 -124.839 -223.415 -125.025 -221.902 -125.025C-218.422 -125.025 -214.973 -125.273 -211.487 -125.273ZM-200.824 -147.57L-198.841 -139.394L-221.654 -139.642C-221.044 -141.568 -218.947 -146.498 -217.138 -147.487C-215.934 -148.145 -213.584 -147.817 -212.231 -147.817C-208.418 -147.817 -204.625 -147.57 -200.824 -147.57ZM-138.583 -147.817L-141.098 -142.119L-142.181 -139.667L-149.246 -139.394L-147.51 -147.57L-138.583 -147.817ZM-62.4551 -147.817L-63.943 -139.394C-83.2161 -140.685 -102.892 -139.642 -122.217 -139.642C-126.798 -139.642 -131.554 -140.001 -136.103 -139.465C-136.999 -139.359 -139.991 -138.913 -140.194 -140.194C-140.332 -141.062 -139.721 -142.297 -139.447 -143.11C-138.968 -144.53 -138.227 -146.559 -136.825 -147.315C-135.751 -147.894 -133.6 -147.802 -132.384 -147.816C-129.161 -147.855 -125.936 -147.817 -122.713 -147.817H-82.293C-75.7602 -147.817 -68.9543 -147.243 -62.4551 -147.817ZM-18.3158 -139.394L-38.6497 -139.642L-62.2071 -139.394L-62.4551 -139.642L-60.9673 -147.569C-51.4843 -147.57 -41.9544 -147.817 -32.4503 -147.817C-29.5723 -147.817 -23.9103 -148.899 -21.3604 -147.459C-19.8631 -146.614 -18.4852 -141.048 -18.3158 -139.394ZM-14.8442 -147.569L-12.6124 -139.394H-16.58L-19.5557 -147.569H-14.8442ZM71.9465 -139.642H64.0114H46.9012H35.4944L37.9742 -147.569H59.2999C61.758 -147.569 65.7826 -148.328 67.9556 -147.005C70.2402 -145.614 70.2042 -141.658 71.9465 -139.642ZM-202.808 -138.898C-202.343 -133.575 -197.991 -130.647 -195.865 -126.264C-203.15 -126.264 -210.434 -126.275 -217.687 -126.264C-219.89 -126.26 -224.182 -125.452 -226.049 -126.781C-227.911 -128.107 -227.195 -131.533 -227.401 -133.448C-227.506 -134.429 -227.955 -135.419 -227.793 -136.417C-227.659 -137.243 -227.094 -137.73 -226.362 -138.065C-223.112 -139.552 -219.129 -138.936 -215.703 -138.899C-211.548 -138.855 -206.883 -139.57 -202.808 -138.898ZM-145.278 -138.899C-149.541 -120.927 -173.436 -114.442 -188.674 -122.005C-195.756 -125.52 -200.158 -131.522 -202.56 -138.899C-197.415 -140.16 -196.582 -134.741 -193.775 -131.466C-190.392 -127.52 -185.845 -124.772 -180.739 -123.703C-172.817 -122.045 -163.861 -123.371 -157.429 -128.494C-155.152 -130.308 -153.326 -132.473 -151.782 -134.935C-151.102 -136.02 -150.501 -138.156 -149.391 -138.842C-148.448 -139.425 -146.286 -139.183 -145.278 -138.899ZM-142.055 -139.146L-143.79 -125.768C-146.365 -126.381 -150.143 -126.381 -152.717 -125.768L-148.608 -130.971L-144.534 -139.146H-142.055ZM-65.4308 -126.016L-142.303 -126.016L-141.311 -135.43L-140.244 -138.86L-135.359 -138.921L-124.201 -138.899H-81.549H-68.9024L-64.3494 -138.879L-64.368 -135.678L-65.4308 -126.016ZM-9.88441 -126.016H-63.9427L-63.0118 -135.678L-62.3052 -138.841L-59.4792 -138.902L-52.2879 -138.898L-27.4906 -138.898L-21.2912 -138.92L-18.1712 -138.87L-15.7743 -134.687L-9.88441 -126.016ZM40.7022 -138.898C34.3137 -115.514 -1.12675 -112.84 -13.1549 -132.457C-14.3682 -134.436 -15.7868 -136.626 -16.3318 -138.898C-15.1637 -138.99 -13.5011 -139.53 -12.417 -138.892C-11.3452 -138.26 -10.7791 -136.443 -10.1129 -135.43C-8.70569 -133.291 -7.07642 -131.244 -5.17295 -129.526C-0.0710656 -124.922 6.35471 -122.88 13.1771 -123.047C19.4989 -123.201 25.2186 -126.27 29.5346 -130.727C31.0298 -132.27 32.3006 -134.082 33.3986 -135.926C33.9207 -136.802 34.2955 -138.104 35.1301 -138.739C36.0174 -139.415 39.6081 -139.21 40.7022 -138.898ZM33.015 -126.016L37.8658 -131.962L41.4461 -139.146C49.1689 -137.714 58.1373 -138.886 65.9955 -138.899C68.3728 -138.902 73.1254 -140.111 75.1598 -138.749C77.7432 -137.02 77.5087 -130.933 75.5913 -128.774C74.5732 -127.628 72.6517 -127.167 71.2029 -126.871C65.902 -125.788 60.4624 -126.016 55.0846 -126.016H33.015ZM-143.79 -125.52L-142.426 -112.142L-139.575 -102.48C-157.128 -107.168 -175.493 -106.157 -193.385 -108.642C-198.662 -109.374 -203.907 -110.429 -209.007 -111.964C-211.079 -112.588 -213.689 -113.095 -215.454 -114.372C-213.032 -115.087 -209.008 -115.351 -206.527 -114.867C-206.328 -118.164 -209.301 -122.693 -210.495 -125.768H-200.08C-198.574 -125.768 -196.556 -126.116 -195.121 -125.622C-193.209 -124.965 -191.506 -123.065 -189.665 -122.116C-185.248 -119.839 -180.254 -118.644 -175.283 -118.585C-170.13 -118.523 -164.888 -119.253 -160.156 -121.386C-157.848 -122.427 -155.802 -124.573 -153.461 -125.375C-150.777 -126.293 -146.627 -125.52 -143.79 -125.52ZM-65.4305 -125.52L-62.2068 -79.4403C-73.3744 -79.4403 -85.551 -78.7377 -96.4272 -81.6736C-99.6421 -82.5414 -102.634 -84.3424 -105.602 -85.8149C-110.468 -88.2283 -115.371 -90.5762 -120.233 -93.0049C-124.549 -95.1609 -128.934 -97.2206 -133.127 -99.6118C-134.527 -100.41 -136.786 -100.964 -137.751 -102.298C-142.101 -108.309 -142.302 -118.444 -142.302 -125.52L-65.4305 -125.52ZM-63.5872 -125.371C-62.3981 -125.974 -60.0515 -125.52 -58.7352 -125.52H-46.8325H-21.0432C-17.474 -125.52 -12.561 -126.403 -9.14049 -125.393C-7.25204 -124.836 -5.67002 -122.944 -3.93304 -122.001C-0.848673 -120.325 4.43739 -118.995 6.05438 -115.611C7.77722 -112.005 4.01462 -107.387 1.98618 -104.71C-2.11506 -99.2983 -6.82489 -94.3883 -11.6202 -89.5977C-14.7196 -86.5014 -18.3497 -82.8837 -22.2831 -80.8571C-24.6511 -79.6371 -27.8906 -80.1386 -30.4663 -79.8937C-37.4859 -79.2263 -44.4861 -79.1925 -51.544 -79.1925H-58.2393C-58.9516 -79.1928 -60.1995 -78.9912 -60.7121 -79.6242C-61.461 -80.5489 -61.1712 -83.4653 -61.2247 -84.6429C-61.4189 -88.9157 -61.5953 -93.2666 -62.001 -97.5255C-62.6754 -104.606 -63.9307 -111.705 -63.9427 -118.831C-63.9427 -120.149 -65.0075 -124.651 -63.5872 -125.371ZM66.7394 -112.638L74.9226 -113.629C74.9222 -109.766 72.1527 -108.394 68.7232 -107.333C62.9447 -105.546 57.0248 -104.673 51.1171 -103.47C42.5267 -101.721 34.5647 -97.3898 26.5677 -93.9145C11.5354 -87.3817 -3.41811 -81.3924 -20.0514 -80.679C-17.631 -83.812 -13.409 -86.4017 -10.4609 -89.1299C-5.78399 -93.4581 -1.53719 -98.4365 2.43156 -103.41C4.81805 -106.401 9.24468 -111.718 7.28311 -115.858C6.48474 -117.544 4.86441 -118.433 3.50616 -119.575C4.81785 -119.769 6.14543 -119.193 7.4737 -119.101C11.0671 -118.854 14.8202 -118.739 18.3846 -119.404C21.8094 -120.042 24.9814 -121.248 28.0555 -122.859C29.4498 -123.589 30.7679 -124.95 32.2711 -125.393C33.9643 -125.893 36.2173 -125.52 37.9745 -125.52H49.6292H60.7881C61.8111 -125.52 64.0116 -125.932 64.8539 -125.266C65.5485 -124.716 65.427 -122.632 65.4995 -121.804C65.7623 -118.806 66.0346 -115.561 66.7394 -112.638ZM35.2468 -119.691C32.5054 -119.058 30.9922 -115.68 32.8648 -113.392C34.2316 -111.721 36.4692 -111.354 38.4704 -111.909C41.2259 -112.673 42.4357 -116.079 40.5638 -118.29C39.3064 -119.775 37.0693 -120.112 35.2468 -119.691ZM-80.2821 -117.409C-81.8131 -117.08 -81.9045 -114.364 -80.5238 -113.778C-78.7986 -113.047 -72.6442 -113.047 -70.919 -113.778C-69.6198 -114.329 -69.6065 -116.805 -70.9413 -117.327C-71.74 -117.64 -72.7779 -117.355 -73.6134 -117.346C-75.6674 -117.322 -78.2974 -117.834 -80.2821 -117.409ZM-11.5868 -117.445C-12.9937 -117.015 -13.1081 -114.439 -11.799 -113.813C-9.97963 -112.942 -6.43241 -113.629 -4.42873 -113.629C-3.69932 -113.629 -2.69777 -113.463 -2.01805 -113.778C-0.748847 -114.368 -0.994337 -116.857 -2.22396 -117.333C-3.06854 -117.66 -4.05052 -117.37 -4.92463 -117.349C-6.91216 -117.301 -9.71265 -118.017 -11.5868 -117.445ZM-161.148 -117.097C-161.299 -116.282 -161.606 -115.206 -161.103 -114.451C-160.493 -113.534 -157.087 -113.526 -156.338 -114.274C-154.367 -116.243 -157.274 -117.097 -158.668 -117.097H-161.148ZM-15.0913 -82.6609C-9.75259 -82.7051 -4.29647 -84.3752 0.779008 -85.9102C10.3786 -88.8136 19.1225 -92.391 28.0561 -96.9662C32.5392 -99.262 38.3274 -101.234 42.1906 -104.462C38.6215 -105.075 34.6584 -104.71 31.0318 -104.71C26.2765 -104.71 21.3756 -105.043 16.6494 -104.534C14.106 -104.26 11.134 -105.014 8.7142 -103.946C6.66001 -103.039 4.92198 -101.01 3.2588 -99.5459C-0.0798451 -96.606 -3.43605 -93.6628 -6.6602 -90.5983C-9.23796 -88.148 -13.321 -85.7492 -15.0913 -82.6609ZM-134.367 -104.215C-133.63 -102.761 -131.973 -101.827 -130.647 -100.931C-127.618 -98.8842 -124.434 -97.0619 -121.224 -95.3159C-112.473 -90.5552 -102.937 -84.9509 -93.2029 -82.5309C-89.2331 -81.544 -85.1063 -81.4494 -81.0523 -81.1525C-76.9578 -80.8526 -72.7595 -80.679 -68.6536 -80.679C-67.7191 -80.679 -65.3391 -80.2534 -64.6931 -81.0762C-63.863 -82.1335 -64.7556 -86.0643 -64.9339 -87.368C-65.6988 -92.9479 -65.7147 -98.6248 -66.4218 -104.215L-134.367 -104.215ZM-60.2225 -103.967C-58.9788 -98.7478 -59.4563 -92.4861 -59.2208 -87.1203C-59.1702 -85.971 -59.4778 -81.8878 -58.585 -81.1813C-57.6365 -80.4308 -55.6042 -81.1173 -54.5191 -81.1647C-51.0301 -81.3173 -47.5807 -80.9267 -44.1042 -80.9267C-37.9496 -80.9267 -30.1516 -79.9399 -24.2663 -82.0136C-17.9183 -84.2504 -12.5005 -90.7897 -8.64051 -96.039C-6.84773 -98.4771 -3.96191 -101.235 -3.18853 -104.215L-42.1204 -104.215H-54.0231L-60.2225 -103.967ZM131.461 -42.0311C130.618 -45.5667 131.213 -49.7989 131.213 -53.4273V-75.7241C131.213 -78.6872 131.751 -82.2475 131.082 -85.1383C130.012 -89.7636 125.206 -88.3925 122.075 -89.7472C120.878 -90.265 120.789 -91.8438 119.31 -92.3246C117.786 -92.8204 115.555 -92.7514 114.103 -92.0627C113.229 -91.6481 112.398 -90.5386 111.375 -90.5774C109.308 -90.6559 107.519 -92.8567 105.424 -93.0743C102.855 -93.3412 98.5303 -90.0385 96.2489 -88.9149C95.4099 -88.5017 94.0529 -88.0934 93.528 -87.2713C92.7228 -86.0103 93.2732 -83.1306 93.2732 -81.6699V-67.5486V-14.0361V1.57166C93.2732 3.02651 92.6824 6.14876 93.528 7.3766C94.1027 8.21111 95.6091 8.39208 96.4968 8.73422C98.8249 9.63157 103.451 12.3549 105.92 11.8434C107.71 11.4725 109.486 9.38872 111.304 9.39257C112.12 9.39406 112.914 10.3902 113.607 10.7582C115.008 11.5021 117.023 11.7169 118.566 11.3495C120.183 10.9646 120.678 9.51762 122.049 8.88352C125.024 7.50753 128.839 7.94551 130.648 4.54457C132.092 1.82891 131.213 -2.85651 131.213 -5.86063V-29.8917C131.213 -32.7042 130.238 -37.6867 131.363 -40.2602C131.836 -41.3435 133.485 -41.0401 134.437 -41.0401C136.129 -41.0401 138.243 -41.3783 139.882 -40.9336C141.09 -40.6062 141.939 -39.3228 143.307 -40.1281C144.584 -40.8795 143.944 -42.6262 142.619 -42.8336C141.623 -42.9894 140.647 -42.2277 139.644 -42.1584C137.021 -41.9772 133.985 -42.5794 131.461 -42.0311ZM-254.634 -61.6028C-254.634 -67.517 -254.527 -73.513 -254.382 -79.4403C-254.322 -81.8909 -253.455 -84.8865 -254.88 -87.1165C-257.369 -91.0107 -263.453 -89.6526 -267.277 -89.8688C-269.193 -89.9771 -270.541 -92.428 -272.736 -92.744C-274.134 -92.9453 -276.012 -92.8104 -277.144 -91.876C-277.783 -91.3481 -277.967 -90.3425 -278.743 -89.9948C-281.761 -88.6419 -285.652 -89.8189 -287.501 -86.1293C-288.346 -84.4438 -287.862 -81.7777 -287.862 -79.9357V-66.3099V-17.2568V-2.39223C-287.862 -0.358531 -288.364 2.45032 -287.386 4.29665C-285.459 7.93456 -281.731 7.16345 -278.697 8.76288C-276.637 9.84861 -275.954 11.6742 -273.232 11.4068C-270.779 11.1659 -269.241 8.96264 -267.032 8.77071C-263.602 8.47253 -259.215 9.64444 -256.144 7.64651C-252.542 5.3031 -254.138 -2.84323 -254.138 -6.60386C-254.138 -10.3372 -253.158 -15.6321 -254.217 -19.202C-254.617 -20.5528 -256.73 -19.9786 -257.057 -21.72C-257.509 -24.1237 -257.113 -26.9509 -257.113 -29.3962V-44.7563V-57.3911C-257.113 -59.2926 -256.855 -61.2593 -254.634 -61.6028ZM103.192 -78.9448L94.7611 -86.3771V-86.8725C98.7542 -88.7629 103.609 -92.8893 107.904 -90.776C109.494 -89.9934 111.908 -89.427 111.296 -87.1425C111.008 -86.0636 109.694 -85.1645 108.905 -84.4408C106.972 -82.666 104.911 -80.9294 103.192 -78.9448ZM-274.967 -91.4944C-273.119 -91.8754 -270.4 -91.324 -269.662 -89.349C-269.163 -88.0153 -269.512 -86.0524 -269.512 -84.6429C-269.512 -80.9144 -269.878 -76.9448 -269.441 -73.2467C-268.63 -66.3799 -269.264 -59.1056 -269.264 -52.1885V-12.0542C-269.264 -8.445 -269.489 -4.75398 -269.242 -1.15352C-269.059 1.51044 -268.37 5.11291 -269.095 7.72316C-269.496 9.16752 -271.391 9.97011 -272.736 10.1681C-274.015 10.3564 -275.739 10.2535 -276.449 8.97793C-277.139 7.73599 -276.703 5.43498 -276.703 4.04908V-7.84257V-69.0351V-86.1293C-276.703 -87.9667 -277.367 -90.9995 -274.967 -91.4944ZM116.831 -91.4858C117.856 -91.5487 119.4 -91.3533 119.87 -90.2941C120.482 -88.915 120.054 -86.6261 120.054 -85.1383V-72.9989V-11.8064V5.04007C120.054 7.03037 120.558 10.0033 117.823 10.2283C116.138 10.3669 113.82 10.1594 112.907 8.48534C112.204 7.19621 112.615 4.98156 112.615 3.55362V-8.09031V-69.5305V-82.4132C112.615 -84.3523 112.248 -86.7202 112.719 -88.6067C113.183 -90.4663 115.048 -91.3764 116.831 -91.4858ZM-278.191 -88.8545V-23.6981V-3.13546L-277.943 7.26974C-280.627 7.94677 -285.396 6.01817 -286.347 3.3049C-286.927 1.65155 -286.622 -0.416218 -286.622 -2.14448V-12.7976V-68.0442V-81.1746C-286.622 -82.9633 -286.917 -85.1641 -285.574 -86.5783C-283.622 -88.6335 -280.69 -88.2602 -278.191 -88.8545ZM-255.378 -84.643L-268.024 -84.3953V-88.6069C-263.846 -88.9363 -256.621 -89.9836 -255.378 -84.643ZM121.542 7.76508L121.294 7.51733L121.542 -6.35626V-32.617V-68.5397L121.294 -88.3591C123.66 -89.0091 128.385 -88.112 129.475 -85.6118C130.109 -84.1571 129.723 -81.9897 129.725 -80.4314V-69.2829V-12.0544C129.725 -8.34804 129.581 -4.60856 129.744 -0.905925C129.828 0.999022 130.183 3.19552 128.884 4.78146C127.217 6.81484 123.979 7.29259 121.542 7.76508ZM94.761 -85.8817L102.448 -78.6972V-78.2017L94.761 -71.2649L94.5129 -81.1746L94.761 -85.8817ZM111.375 -85.8817V-70.7694C108.492 -72.305 105.065 -76.0403 103.192 -78.6972L111.375 -85.8817ZM-243.723 3.8012H-235.044V-19.2389V-66.31V-79.4404L-235.13 -84.2458L-237.028 -84.643L-243.358 -84.4935L-243.723 -79.4404V-63.3371V3.8012ZM-217.19 -84.3953C-218.615 -76.8373 -219.403 -69.1631 -220.814 -61.6029C-221.143 -59.8412 -222.724 -58.5665 -222.964 -56.8958C-223.568 -52.6798 -222.893 -47.7983 -222.893 -43.5177C-222.893 -37.1746 -223.496 -30.5073 -222.867 -24.1937C-222.688 -22.3959 -221.216 -21.0198 -220.827 -19.2389C-219.25 -12.0277 -217.263 -3.80878 -216.942 3.55345H-165.611C-157.214 3.55345 -148.427 4.30451 -140.07 3.52766C-137.202 3.26103 -134.272 2.1259 -131.433 1.57613C-121.364 -0.373399 -111.364 -3.0558 -101.243 -4.69181C-95.3175 -5.64973 -89.0254 -5.3607 -83.0359 -5.62277C-72.7894 -6.07107 -62.5627 -6.40555 -52.2872 -6.35606C-37.9446 -6.28694 -23.1684 -6.43833 -8.89185 -5.07546C9.50159 -3.31961 27.5299 1.92285 45.9103 3.75896C55.865 4.7534 66.4019 3.80119 76.4111 3.80119C77.4177 -3.98688 79.3297 -11.6524 80.0886 -19.4867C80.7478 -26.2924 80.131 -33.4572 80.131 -40.297C80.131 -47.7315 80.7159 -55.453 79.9242 -62.8416C79.3621 -68.0866 78.5864 -73.2744 77.5521 -78.4494C77.2635 -79.8938 77.265 -82.9076 76.1988 -83.9919C75.345 -84.8603 72.3572 -84.3953 71.2039 -84.3953H56.8215C35.927 -84.3953 14.9725 -78.8812 -5.66784 -75.8286C-10.7841 -75.072 -15.8935 -75.1965 -21.0422 -74.9713C-32.776 -74.458 -44.4869 -74.2567 -56.2544 -74.2378C-67.3075 -74.22 -78.4326 -74.2028 -89.4829 -74.9589C-93.5861 -75.2396 -97.8054 -74.9212 -101.882 -75.5499C-111.761 -77.0738 -121.656 -80.1813 -131.39 -82.4714C-133.905 -83.0631 -136.517 -84.0425 -139.078 -84.3496C-146.059 -85.1869 -153.616 -84.3953 -160.651 -84.3953C-179.425 -84.3953 -198.443 -83.5062 -217.19 -84.3953ZM-255.377 -83.8998L-255.625 -81.1746H-255.873V-83.6521H-267.776V-72.7514L-268.272 -81.1746L-267.697 -83.8222L-264.056 -83.8998H-255.377ZM-235.539 3.30568H-243.227V-84.1475C-241.581 -84.1475 -237.241 -84.9251 -235.937 -83.8929C-234.98 -83.1361 -235.539 -79.8184 -235.539 -78.6972V-62.8416V3.30568ZM-283.394 -83.7381C-286.255 -82.813 -285.845 -74.1053 -281.415 -75.3708C-278.268 -76.2699 -278.604 -85.2868 -283.394 -83.7381ZM-273.714 -83.4213C-275.266 -83.0008 -274.532 -80.7753 -272.998 -81.3289C-271.559 -81.848 -272.316 -83.7999 -273.714 -83.4213ZM124.777 -83.4681C123.407 -82.9104 123.527 -81.4129 123.526 -80.1836C123.526 -77.699 123.8 -73.9131 127.483 -75.4127C128.931 -76.0021 128.734 -77.6631 128.734 -78.9449C128.734 -81.4533 128.385 -84.9372 124.777 -83.4681ZM-282.899 -83.2967C-279.443 -84.2588 -279.432 -76.4379 -281.668 -75.8326C-285.199 -74.8772 -285.171 -82.6642 -282.899 -83.2967ZM116.143 -83.2192C114.683 -82.5665 115.995 -80.807 117.289 -81.3279C118.789 -81.9314 117.511 -83.8311 116.143 -83.2192ZM125.758 -83.2774C129.179 -83.8579 129.259 -76.2357 126.745 -75.781C123.196 -75.1391 123.268 -82.8549 125.758 -83.2774ZM-140.319 -83.1565V-82.9088L-191.153 -67.2528L-210.247 -61.3896L-220.414 -58.3823C-218.294 -63.7978 -217.971 -70.4581 -217.158 -76.2197C-216.957 -77.6439 -216.958 -81.9938 -215.801 -82.9019C-214.772 -83.7098 -211.762 -83.1565 -210.495 -83.1565H-196.113L-140.319 -83.1565ZM46.3796 -83.0491C47.7 -82.9967 48.6709 -80.693 49.225 -79.6881C51.3045 -75.9169 52.7798 -71.9965 53.7019 -67.7965C55.7403 -58.5114 54.8365 -48.5172 54.8365 -39.0583C54.8365 -31.2122 55.6795 -22.7375 53.9873 -15.0273C52.9597 -10.3446 51.5536 -5.68188 49.3544 -1.40139C48.6641 -0.057895 47.9562 2.49202 46.1565 2.52577C42.3553 2.59704 38.2456 1.28976 34.5027 0.68912C25.1653 -0.809222 15.8385 -2.43446 6.48169 -3.81153C3.16916 -4.29907 -0.119948 -4.90583 -3.43724 -5.36529C-4.44949 -5.50549 -6.69954 -5.51411 -7.42033 -6.29242C-8.17072 -7.10269 -8.30604 -9.02262 -8.53948 -10.0724C-9.24777 -13.2588 -10.0307 -16.4938 -10.419 -19.7344C-11.1653 -25.9621 -10.8764 -32.2938 -10.8764 -38.5628C-10.8764 -45.3226 -11.1233 -52.1419 -10.6506 -58.8777C-10.3767 -62.7819 -9.45704 -66.4772 -8.55898 -70.2739C-8.29318 -71.3977 -8.29146 -73.4511 -7.27839 -74.1971C-6.29374 -74.9221 -4.36728 -74.8573 -3.18928 -75.0774C0.339358 -75.7365 3.92655 -76.2359 7.47357 -76.7833C16.3221 -78.1486 25.1772 -79.5553 34.0068 -81.0347C37.876 -81.6829 42.4646 -83.2044 46.3796 -83.0491ZM75.4184 2.56249C68.7629 3.79688 61.1102 2.81023 54.3406 2.81023C52.3566 2.81023 50.0704 2.43411 48.1412 2.81023C47.9836 0.452411 50.6218 -2.87228 51.5136 -5.11753C53.5539 -10.2545 54.7676 -15.4855 55.2904 -20.9731C56.047 -28.9159 55.3328 -37.2701 55.3328 -45.2519C55.3328 -52.0546 56.054 -59.3655 54.6717 -66.0623C53.9001 -69.8007 52.8247 -73.5141 51.1708 -76.963C50.2014 -78.9845 48.4496 -81.0147 47.8936 -83.1565H67.7314C69.3793 -83.1565 73.6719 -83.9268 74.9902 -82.9019C76.1054 -82.035 76.0979 -78.7731 76.361 -77.4584C77.4513 -72.0112 78.5093 -66.4179 78.6459 -60.8597C78.9569 -48.2067 79.7353 -35.1096 78.8681 -22.4595C78.2939 -14.0838 75.7769 -5.7781 75.4184 2.56249ZM-140.566 -82.1656C-143.191 -75.0044 -148.4 -68.941 -150.227 -61.3552C-151.559 -55.8252 -150.733 -49.4266 -150.733 -43.7654C-150.733 -35.2634 -152.091 -25.4657 -149.633 -17.2569C-147.557 -10.3282 -143.067 -4.7118 -140.318 1.81926C-146.769 0.947172 -153.724 -2.28287 -159.908 -4.35558C-172.573 -8.60019 -185.412 -12.3313 -198.096 -16.5139C-203.618 -18.3346 -209.15 -20.1274 -214.71 -21.8241C-216.994 -22.521 -219.287 -23.5967 -221.654 -23.946V-38.5628C-220.225 -38.5006 -217.723 -37.1232 -216.456 -37.7732C-213.092 -39.4986 -212.619 -44.5918 -216.704 -45.8225C-217.974 -46.2053 -220.18 -45.1481 -221.406 -44.7564L-221.654 -54.1706L-221.079 -57.4274L-213.966 -59.746L-197.104 -64.9287L-157.429 -77.1415L-140.566 -82.1656ZM-141.062 -79.9359C-141.501 -75.5376 -143.315 -71.2611 -143.748 -66.8055C-144.387 -60.2315 -143.88 -53.582 -144.042 -46.9861C-144.295 -36.6303 -145.26 -25.8434 -144.244 -15.5227C-143.735 -10.3512 -141.969 -5.44193 -140.814 -0.410436H-141.062C-145.016 -6.86406 -148.934 -14.1666 -150.157 -21.7163C-151.338 -29.0065 -150.237 -37.3642 -150.237 -44.7564C-150.237 -49.4173 -150.821 -54.5125 -150.163 -59.1255C-149.514 -63.6736 -147.259 -67.8951 -145.354 -72.0081C-144.153 -74.6028 -142.892 -77.7297 -141.062 -79.9359ZM110.383 -70.5217H95.2565L100.712 -76.2197L102.944 -77.7257L105.175 -75.972L110.383 -70.5217ZM25.328 -77.3533C17.5553 -76.3337 9.88692 -74.8682 2.26642 -72.9677C0.372024 -72.4953 -4.1116 -72.3088 -5.45616 -70.8686C-6.2195 -70.051 -6.29603 -68.1159 -6.51177 -67.0533C-7.15876 -63.8657 -7.89918 -60.6632 -7.90045 -57.3913V-23.6983C-7.90045 -20.285 -7.37161 -16.8963 -6.76583 -13.5408C-6.5803 -12.513 -6.60321 -10.5445 -5.77069 -9.80843C-4.97968 -9.10909 -3.43805 -9.03847 -2.44506 -8.83294C0.0417877 -8.31819 2.5183 -7.69771 4.99414 -7.12893C13.7618 -5.11474 22.5145 -3.38335 31.5274 -3.38335C33.826 -3.38335 36.4384 -3.03485 38.704 -3.42006C40.391 -3.70687 39.4625 -7.57133 39.4625 -8.8337V-26.1757V-64.5758C39.4625 -67.7113 39.3933 -70.8555 39.4625 -73.9901C39.4818 -74.8343 40.03 -76.5669 39.2687 -77.2038C38.5026 -77.8447 36.4346 -77.4585 35.4913 -77.4585C32.1593 -77.4585 28.6292 -77.7868 25.3243 -77.3533M-9.14398 -74.2378L-12.1099 -58.8778L-12.1196 -37.3241L-12.0772 -21.9641L-9.14362 -6.10853L-18.5667 -6.61376L-36.6687 -7.10045L-73.3688 -7.33748L-101.142 -5.86077L-103.103 -19.7344L-103.126 -37.8196L-103.116 -60.3642L-101.142 -74.2378L-69.1535 -73.0027L-32.7014 -73.4909L-9.14398 -74.2378ZM-267.78 -72.0081V-70.7694H-268.028L-267.78 -72.0081ZM-266.292 -70.2739V-10.0724H-267.78L-268.028 -70.2739H-266.292ZM-265.222 -70.1233C-263.562 -70.9047 -263.565 -68.7792 -263.565 -67.7965V-58.1345V-21.7163V-13.0453C-263.565 -12.2603 -263.266 -10.6844 -264.139 -10.2575C-265.676 -9.50621 -265.794 -11.3119 -265.796 -12.3021V-20.9731V-57.1435V-66.8055C-265.796 -67.6513 -266.171 -69.6762 -265.222 -70.1233ZM-263.069 -10.0724V-70.2739L-261.092 -69.8767L-260.837 -66.8055V-59.1255V-22.7073V-13.7885L-261.092 -10.4696L-263.069 -10.0724ZM-255.878 -70.2739V-62.5939C-259.276 -61.2499 -258.605 -56.8729 -258.605 -53.9229V-28.1576C-258.605 -25.0514 -259.749 -19.7367 -255.63 -18.9911L-255.382 -10.3201C-256.315 -10.0446 -259.391 -9.5637 -260.09 -10.4723C-260.66 -11.2134 -260.341 -12.9059 -260.341 -13.7885V-22.2118V-58.63V-67.0533C-260.341 -67.8339 -260.643 -69.466 -259.943 -70.0193C-259.098 -70.6882 -256.911 -70.2739 -255.878 -70.2739ZM99.7165 -69.5307C100.713 -66.163 99.9645 -61.6473 99.9645 -58.1345C96.8959 -58.0982 97.9807 -53.9858 97.9807 -51.6932V-30.3873C97.9807 -28.0025 96.7811 -22.9927 99.9645 -22.955V-10.8156L94.9067 -11.0703L94.509 -14.7795V-25.1847V-69.2829L99.7165 -69.5307ZM107.9 -69.5307V-55.4093V-26.9189L108.148 -11.0634L100.46 -10.8156V-22.955C103.147 -23.1598 102.196 -27.4124 102.196 -29.3963V-50.7022C102.196 -52.7808 103.254 -57.9216 100.46 -58.1345V-66.31L100.858 -69.2761L107.9 -69.5307ZM111.123 -69.5307L111.371 -63.0894V-50.95V-10.8156H108.644V-55.6571V-65.5668L108.898 -69.1333L111.123 -69.5307ZM-80.8082 -61.4978C-83.953 -61.0802 -86.8514 -60.1093 -88.4866 -57.1435C-89.8367 -54.6948 -89.4873 -51.9097 -89.4873 -49.2158V-34.3512C-89.4873 -30.5697 -90.4175 -25.4709 -88.0892 -22.2118C-84.9679 -17.8426 -79.3142 -18.4957 -74.6089 -18.4957C-72.6619 -18.4957 -70.5872 -18.2945 -68.6575 -18.57C-57.8829 -20.108 -60.4744 -32.3156 -60.4744 -40.297C-60.4744 -45.0227 -59.1067 -52.3164 -61.159 -56.6481C-64.194 -63.0542 -74.8974 -62.2827 -80.8082 -61.4978ZM-80.8082 -61.0367C-75.1704 -61.7104 -64.8502 -62.596 -61.8428 -56.6481C-59.6074 -52.227 -60.9703 -44.9048 -60.9703 -40.0493C-60.9703 -33.5644 -58.4449 -20.511 -67.6656 -19.2836C-73.2937 -18.5345 -84.1614 -17.2223 -87.6937 -22.7494C-89.7424 -25.955 -88.9913 -30.4827 -88.9913 -34.1035V-47.4816C-88.9913 -54.0507 -88.7617 -60.0863 -80.8082 -61.0367ZM101.7 -57.3913V-23.6983L98.7247 -23.4505L98.4767 -34.3512V-57.3913H101.7ZM-274.291 -55.1545C-275.426 -54.2289 -273.698 -52.5791 -272.604 -53.5771C-271.485 -54.5984 -273.325 -55.9417 -274.291 -55.1545ZM116.14 -55.2216C114.702 -54.6003 115.975 -52.6022 117.286 -53.2473C118.76 -53.9727 117.507 -55.8124 116.14 -55.2216ZM-29.2297 -46.7383C-27.9615 -44.138 -24.199 -41.878 -22.0384 -39.9786C-21.0059 -39.0708 -20.2045 -38.0997 -18.8148 -37.8196L-25.1569 -43.5186L-29.2297 -46.7383ZM-221.161 -39.8015V-43.7654C-219.893 -44.056 -217.926 -45.0849 -216.701 -44.3494C-214.507 -43.0323 -214.397 -39.7532 -217.197 -39.0031C-218.365 -38.6902 -220.019 -39.54 -221.161 -39.8015ZM-273.483 -27.4226C-274.907 -27.3348 -274.964 -25.2581 -273.483 -25.2581C-271.9 -25.2581 -271.847 -27.5235 -273.483 -27.4226ZM116.139 -27.2267C114.671 -26.5948 115.925 -24.5886 117.286 -25.2744C118.754 -26.0137 117.496 -27.8106 116.139 -27.2267ZM-220.665 -23.4505L-210.994 -20.2228L-192.644 -14.3473L-141.314 2.06699V2.31474H-194.628H-209.259C-210.876 2.31474 -213.898 2.90137 -215.35 2.16525C-216.507 1.5792 -216.551 -2.43006 -216.76 -3.63109C-217.649 -8.74738 -218.714 -13.8512 -219.458 -18.9911C-219.66 -20.3856 -221.02 -22.1527 -220.665 -23.4505ZM110.875 -9.82467C109.752 -7.41912 107.025 -5.72345 105.172 -3.87884C104.609 -3.31839 103.819 -2.2143 102.941 -2.19223C102.031 -2.16934 101.18 -3.35806 100.597 -3.93103C98.8983 -5.60051 95.7428 -7.53032 95.005 -9.82467H110.875ZM-255.63 -9.57692L-255.382 2.56248C-258.752 3.55792 -263.272 2.81022 -266.788 2.81022V2.56248H-255.878C-255.878 -0.853378 -256.946 -6.44248 -255.63 -9.57692ZM95.005 -8.83369C97.293 -6.54789 101.069 -4.0997 102.444 -1.15366L94.7571 5.78313L94.509 -4.86981L95.005 -8.83369ZM111.371 -8.83369V6.03088C109.087 4.96684 104.127 0.560971 103.436 -1.89689L111.371 -8.83369ZM-283.154 -5.20262C-286.234 -4.26276 -285.959 4.62526 -281.42 3.24645C-278.308 2.30109 -278.734 -6.55129 -283.154 -5.20262ZM125.011 -4.93364C122.071 -3.79505 122.667 4.94571 127.237 3.34183C130.14 2.32311 129.654 -6.73208 125.011 -4.93364ZM-281.672 -4.63716C-279.529 -4.21143 -279.3 3.43192 -282.896 2.75346C-285.188 2.32096 -285.218 -5.34179 -281.672 -4.63716ZM125.272 -4.49456C129.176 -5.75478 129.288 2.12987 126.979 2.85515C123.237 4.03073 123.312 -3.86159 125.272 -4.49456ZM-219.921 34.2736V34.5213L-208.019 35.5123C-209.23 37.6385 -209.971 42.8843 -212.054 44.1764C-213.124 44.8396 -214.795 44.2437 -215.954 44.1931C-218.882 44.0649 -223.99 43.3013 -226.593 44.7786C-229.31 46.3197 -228.552 50.7509 -228.923 53.3498C-229.108 54.6488 -229.518 55.826 -228.631 56.9906C-227.435 58.5597 -224.732 58.902 -222.897 59.0479L-219.511 65.7369L-217.857 67.8171L-212.482 67.9666H-199.588C-197.657 52.7856 -186.045 41.0625 -170.079 43.5488C-162.203 44.7752 -155.695 49.1886 -152.004 56.3227C-150.558 59.1171 -149.718 61.9422 -149.031 64.9937C-148.837 65.8515 -148.974 67.5749 -147.952 67.8879C-144.424 68.9687 -139.064 67.9666 -135.362 67.9666H-107.093L-13.8553 67.9666C-12.3855 60.8522 -9.4313 54.1209 -3.9364 49.1804C4.24598 41.8235 17.9947 41.0297 26.3872 48.5232C30.3343 52.0475 33.0224 56.3888 34.9451 61.2776C35.4724 62.6182 36.035 67.2025 37.3051 67.8171C39.3983 68.83 43.4072 67.8271 45.6583 67.7286C52.228 67.4412 58.9797 68.5546 65.4962 67.9246C67.8977 67.6924 69.7236 66.8298 70.6989 64.4982C71.2433 63.1967 71.3559 61.4333 72.3524 60.3653C73.8574 58.7524 76.1802 59.4879 77.5086 57.0659C78.9896 54.3655 78.7588 48.5722 76.1456 46.5711C73.7031 44.7006 69.471 44.2448 66.4881 44.1833L67.976 33.0349L75.6631 34.0258C79.7092 26.8093 66.5457 24.4815 62.0246 23.4595C56.979 22.3189 51.541 22.0144 46.6502 20.2914C30.7015 14.6728 15.9591 5.01939 -0.712761 1.57077C-21.1341 -2.65345 -41.4993 -2.67199 -62.2102 -2.6401C-73.7882 -2.62226 -86.7224 -3.52066 -97.9184 -0.0546759C-101.098 0.929597 -104.097 2.85534 -107.093 4.29058C-113.396 7.31001 -119.757 10.2781 -125.939 13.537C-132.19 16.8318 -138.074 20.2371 -145.033 21.7813C-169.545 27.22 -197.113 21.7932 -219.921 34.2736ZM-65.6818 44.6788L-74.3609 44.431H-90.4791H-142.306C-142.306 38.7219 -141.79 33.0864 -140.179 27.5845C-139.57 25.5037 -138.997 22.9333 -137.603 21.2112C-136.673 20.0636 -134.669 19.5147 -133.379 18.8495C-130.312 17.268 -127.291 15.5986 -124.204 14.0573C-118.921 11.4203 -113.612 8.84926 -108.333 6.21211C-104.819 4.45666 -101.176 2.22831 -97.4225 1.04833C-93.8004 -0.0904104 -90.0056 -0.34445 -86.2636 -0.700226C-80.4684 -1.25121 -74.7243 -1.26295 -68.9054 -1.40502C-67.436 -1.44092 -63.8438 -2.39575 -62.6078 -1.39373C-61.9429 -0.854811 -62.4289 0.59581 -62.4555 1.32379C-62.5517 3.96598 -62.8284 6.61107 -62.9443 9.25157C-63.2982 17.3135 -64.3787 25.2562 -65.1438 33.2826C-65.4877 36.8912 -64.6569 41.2147 -65.6818 44.6788ZM-63.946 44.6788C-64.6512 41.7193 -63.9259 38.2681 -63.7202 35.2646C-63.1732 27.285 -61.7655 19.236 -61.7141 11.2335C-61.694 8.15245 -61.5091 4.88095 -61.1475 1.81928C-61.0537 1.02516 -61.2286 -0.583817 -60.7155 -1.21748C-60.1374 -1.93131 -58.5509 -1.64912 -57.7466 -1.64912H-49.8115C-44.0772 -1.64912 -38.4132 -1.41329 -32.7014 -1.16338C-29.7713 -1.03519 -25.8013 -1.44151 -23.0304 -0.455527C-20.646 0.392884 -18.4752 2.5443 -16.5831 4.15488C-9.37647 10.289 -2.59586 17.4485 2.96911 25.1071C4.89252 27.7541 7.97646 32.2708 5.60811 35.5087C3.49352 38.3996 -1.37091 39.7232 -4.43236 41.4012C-5.9792 42.249 -7.47195 44.02 -9.14748 44.5096C-10.3945 44.874 -12.0589 44.4311 -13.3594 44.4311H-23.5263H-50.5554C-54.7927 44.4311 -59.8202 43.6974 -63.946 44.6788ZM111.371 8.01285L105.668 10.5895L102.196 9.57825L94.7571 6.77413C96.2336 4.67994 98.4069 3.12622 100.212 1.32379C100.846 0.690935 101.733 -0.564554 102.692 -0.677658C103.637 -0.789068 104.538 0.434674 105.149 1.00168C107.093 2.8055 110.952 5.29963 111.371 8.01285ZM-134.37 23.3729H-66.4257L-64.4419 -0.162663C-74.1106 -0.162663 -84.5068 -0.576419 -93.9508 1.79329C-102.502 3.93902 -111.041 8.97466 -118.748 13.139C-122.52 15.1769 -126.314 17.1831 -129.907 19.5317C-131.499 20.5725 -133.438 21.6654 -134.37 23.3729ZM74.9192 32.7871C73.1795 32.5675 68.5544 31.1093 67.0629 32.0544C66.1828 32.6121 66.3121 34.5931 66.2016 35.5123C65.8341 38.5711 65.3868 41.6229 65.0003 44.6788H43.1786C39.8212 44.6788 35.7556 45.3066 32.4736 44.5838C29.9342 44.0245 27.3483 41.3514 24.8286 40.3316C18.2544 37.671 10.3508 37.2099 3.5028 38.9807C4.64681 36.9651 7.17078 36.4335 7.63684 33.7781C8.37005 29.6003 4.65327 25.3895 2.26365 22.3819C-1.7132 17.3765 -5.92839 12.3877 -10.6414 8.05127C-13.2964 5.60845 -18.0069 2.89735 -19.8067 -0.162663C-2.93715 0.185272 12.3632 6.91637 27.5562 13.4313C35.604 16.8822 43.4378 21.1062 52.1056 22.726C58.0817 23.8428 64.2322 24.7361 69.9597 26.8547C72.8176 27.9118 75.3106 29.4733 74.9192 32.7871ZM-59.9784 23.3729H-3.19248C-3.83999 20.1224 -7.36348 16.7355 -9.39178 14.2064C-13.237 9.412 -17.883 3.59544 -23.7743 1.26454C-29.726 -1.09028 -37.8238 0.0850878 -44.1081 0.0850878C-47.5001 0.0850878 -50.8916 0.326368 -54.2714 0.205504C-55.3764 0.166039 -57.6669 -0.389895 -58.5889 0.339711C-59.4704 1.03713 -59.2026 5.14388 -59.2309 6.27866C-59.3729 11.9823 -59.9784 17.6586 -59.9784 23.3729ZM-274.149 0.835393C-275.405 1.67375 -273.961 3.24353 -272.778 2.55448C-271.344 1.72015 -272.92 0.0152254 -274.149 0.835393ZM116.12 0.83985C114.625 1.66425 116.183 3.51116 117.492 2.69334C118.795 1.87918 117.333 0.170714 116.12 0.83985ZM-15.0952 1.81935C-13.9665 3.74855 -11.5217 5.25939 -9.88777 6.78031C-5.81071 10.5755 -1.67911 14.3214 2.51095 17.9932C4.39798 19.6468 6.75993 22.4958 9.20623 23.2468C12.5053 24.2597 16.7021 23.6207 20.117 23.6207H41.9387C40.7828 22.277 38.794 21.6172 37.2272 20.8288C34.5664 19.4901 31.9134 18.0806 29.2921 16.664C19.9002 11.5888 10.2954 7.66402 0.0311595 4.75747C-4.8654 3.37089 -9.98269 1.81935 -15.0952 1.81935ZM-267.78 7.51744C-267.78 6.56845 -268.208 4.21355 -267.383 3.56043C-266.775 3.07993 -265.526 3.30581 -264.805 3.30581H-258.357C-257.649 3.30581 -256.372 3.07447 -255.783 3.56043C-254.98 4.22279 -255.907 5.6963 -256.429 6.22577C-257.979 7.79786 -260.56 7.51744 -262.573 7.51744H-267.78ZM-139.33 21.6388C-141.556 27.0594 -142.784 32.4278 -143.475 38.2376C-143.726 40.3475 -143.395 42.6363 -143.793 44.6789C-146.863 43.9488 -150.549 45.3686 -153.464 44.4663C-155.637 43.7939 -157.55 41.6927 -159.664 40.7222C-165.104 38.2243 -171.064 37.3566 -177.022 37.7642C-181.227 38.052 -185.692 39.0079 -189.421 41.0401C-191.328 42.0799 -193.109 44.0266 -195.124 44.7463C-196.569 45.2624 -198.565 44.9266 -200.084 44.9266H-210.25L-206.531 34.0259L-215.458 33.7782L-210.746 31.5839L-196.612 28.2659L-161.152 25.0653L-147.513 23.4686L-139.33 21.6388ZM-80.8819 33.0418C-81.8657 33.7845 -81.6589 35.8741 -80.5271 36.3539C-78.6163 37.1639 -75.1895 36.5034 -73.121 36.5034C-72.3885 36.5034 -71.192 36.72 -70.5677 36.2487C-69.5838 35.5061 -69.7906 33.4165 -70.9224 32.9367C-72.8332 32.1267 -76.26 32.7872 -78.3285 32.7872C-79.061 32.7872 -80.2575 32.5705 -80.8819 33.0418ZM-12.0129 33.0418C-12.993 33.7063 -12.9285 35.8551 -11.8151 36.3539C-9.90591 37.2092 -6.27096 36.5035 -4.18434 36.5034C-3.47322 36.5033 -2.43308 36.6757 -1.81221 36.2487C-0.894356 35.6176 -0.963163 33.4079 -2.00926 32.9367C-3.91288 32.0792 -7.55735 32.7871 -9.63981 32.7872C-10.3549 32.7873 -11.3868 32.6173 -12.0129 33.0418ZM-161.152 33.0351C-161.303 33.8502 -161.61 34.9266 -161.107 35.6816C-160.511 36.577 -157.145 36.5992 -156.341 35.9637C-154.117 34.2036 -157.39 33.0352 -158.672 33.0351H-161.152ZM-145.281 58.0572C-146.425 58.0572 -148.616 58.4799 -149.587 57.8025C-150.799 56.9564 -151.573 54.3586 -152.397 53.1023C-154.073 50.5455 -156.348 48.1461 -158.92 46.4733C-168.027 40.5478 -181.738 40.3941 -190.412 47.284C-194.154 50.2556 -196.453 54.1383 -198.595 58.3049L-202.563 58.0572C-200.389 50.4038 -195.25 44.0905 -187.932 40.7924C-172.675 33.9157 -149.429 40.1512 -145.281 58.0572ZM40.6991 58.0572C39.21 58.0572 36.6981 58.5454 35.3405 57.9077C34.376 57.4546 33.8095 55.7114 33.2944 54.8365C32.1889 52.959 30.8101 51.1921 29.2887 49.6339C25.1018 45.3456 19.5655 42.2314 13.422 42.2018C6.35344 42.1678 0.256856 43.8342 -5.15361 48.5783C-7.03773 50.2304 -8.65554 52.2249 -9.98909 54.341C-10.6207 55.3432 -11.1946 57.1544 -12.2159 57.8025C-13.214 58.436 -15.1895 58.0572 -16.3348 58.0572C-15.7275 55.5025 -14.1382 53.0408 -12.6976 50.8726C-0.201399 32.0642 34.4708 34.8359 40.6991 58.0572ZM-174.294 45.074C-179.783 45.2722 -185.433 47.2073 -189.378 51.1624C-196.851 58.6553 -195.552 70.9197 -186.941 76.9424C-182.318 80.1757 -177.097 81.0821 -171.566 80.8398C-168.927 80.7242 -166.263 79.8898 -163.879 78.7909C-161.696 77.7844 -159.61 76.3264 -157.991 74.5472C-156.496 72.9045 -155.246 71.025 -154.412 68.9578C-149.236 56.1321 -161.91 44.6269 -174.294 45.074ZM-142.057 58.0572H-144.785C-146.016 52.7424 -149.724 49.4241 -152.72 45.1745L-146.273 45.1708L-143.943 45.1911L-143.402 48.3951L-142.057 58.0572ZM-65.6815 44.9267L-63.9457 58.0571L-140.818 58.0571L-142.305 45.1745H-91.2228H-74.8565L-65.6815 44.9267ZM-9.63951 45.4222C-12.2752 47.719 -14.1702 50.8022 -15.8189 53.8455C-16.3736 54.8693 -17.0933 57.397 -18.1682 57.9076C-20.4991 59.0148 -25.4029 58.0571 -27.9895 58.0571H-52.043H-59.4822C-60.2571 58.0571 -61.6579 58.3158 -62.3082 57.8025C-62.9431 57.3014 -62.9169 55.5902 -63.0493 54.8365C-63.5629 51.9122 -64.4403 47.8469 -63.9457 44.9267L-50.5552 45.1745H-24.022L-14.103 45.1737L-9.63951 45.4222ZM8.71054 45.2808C5.5288 45.736 2.53995 46.6791 -0.216504 48.3519C-9.54824 54.0152 -11.8642 66.58 -4.16189 74.6525C0.579047 79.6212 8.19026 81.7323 14.9099 80.7753C17.8241 80.3602 20.8292 79.4065 23.341 77.8607C25.4636 76.5544 27.3138 74.912 28.8213 72.9219C29.9956 71.3716 30.9475 69.5821 31.5144 67.7193C35.6698 54.0641 21.322 43.4765 8.71054 45.2808ZM41.1951 58.0573C39.9231 52.7069 36.0171 49.4369 33.012 45.1747C43.3438 45.1747 53.6769 45.1251 64.0086 45.1749C67.1609 45.19 73.5624 45.304 75.731 47.9937C77.3702 50.0269 77.952 57.1426 74.6703 57.9786C71.512 58.7832 67.2715 58.0573 64.0086 58.0573H41.1951ZM-195.868 45.4224C-198.251 49.2295 -202.844 53.1317 -202.811 58.0573H-217.441C-220.2 58.0573 -223.512 58.3334 -226.119 57.2621C-226.812 56.9776 -227.523 56.5595 -227.749 55.8018C-228.061 54.7489 -227.582 53.6424 -227.435 52.607C-227.131 50.4767 -228.004 47.2858 -225.859 45.8541C-223.979 44.5995 -219.645 45.4224 -217.441 45.4224H-195.868ZM-198.843 58.5528L-200.827 66.7283H-212.73C-213.975 66.7283 -216.261 67.1643 -217.345 66.4737C-219.241 65.2656 -220.809 60.7745 -221.905 58.8006L-214.218 58.5528H-198.843ZM-138.586 66.7283H-147.513L-149.249 58.5528C-147.543 58.5528 -143.597 57.8158 -142.184 58.8074C-141.496 59.2898 -141.315 60.531 -141.065 61.278C-140.416 63.2224 -139.36 64.8654 -138.586 66.7283ZM-62.4579 66.7283L-121.724 66.7283H-132.138C-133.454 66.7283 -135.398 67.082 -136.601 66.4737C-138.978 65.2717 -140.214 61.0135 -140.322 58.5528H-81.5518H-68.9051L-64.0917 58.8074L-63.4173 61.0302L-62.4579 66.7283ZM-18.3185 58.5528C-18.5718 60.242 -19.8114 65.4646 -21.2079 66.4737C-21.9422 67.0042 -23.4134 66.7283 -24.2699 66.7283H-31.7091H-60.97L-62.4579 58.8006C-58.3289 57.5812 -52.6346 58.5528 -48.3234 58.5528H-18.3185ZM-12.3672 58.8006L-15.2345 66.4737L-19.5584 66.7283C-18.9356 62.5736 -17.4124 57.3107 -12.3672 58.8006ZM71.9438 58.5528C70.7991 60.5895 69.92 64.7254 67.9655 66.0524C65.8393 67.4959 61.7394 66.7283 59.2972 66.7283H37.9714L35.4917 58.8006C38.9306 57.785 43.5595 58.5528 47.1465 58.5528H71.9438Z" fill="#304A6E"/>
</svg>
