<svg width="81" height="72" viewBox="0 0 81 72" fill="none" xmlns="http://www.w3.org/2000/svg">
<rect width="81" height="72" fill="#1A1E26"/>
<rect x="-530" y="-377" width="980" height="753" rx="4" fill="white"/>
<path d="M80.8114 -104.027C79.8295 -108.937 78.4369 -113.408 74.8876 -117.127C68.1717 -124.166 56.7525 -124.021 50.2903 -116.673C45.6191 -111.361 43.9999 -103.925 45.3751 -97.0836C46 -93.9747 47.2332 -90.9197 49.1818 -88.4045C50.6142 -86.5556 52.1432 -84.963 54.1825 -83.7759C65.8526 -76.9823 78.4265 -85.6278 80.4792 -98.0755C80.8047 -100.049 81.2142 -102.013 80.8114 -104.027ZM80.7629 81.2094C79.3205 75.4555 77.7675 70.2146 72.7633 66.4585C64.6093 60.3381 53.6019 63.1998 48.2591 71.5384C44.9188 76.7515 44.1236 83.4651 45.6044 89.3925C47.6007 97.3828 54.4146 104.454 63.1013 104.239C72.3856 104.009 78.8131 96.2527 80.4234 87.6567C80.8162 85.56 81.297 83.3399 80.7629 81.2094ZM44.2728 -139.487L35.1063 -136.015L34.633 -143.951L34.1154 -147.918C22.2961 -123.691 27.3105 -96.5509 21.2614 -71.0464C20.0505 -65.9406 17.4075 -61.5075 14.9849 -56.9119C11.3749 -50.0639 8.03899 -43.0491 4.66839 -36.0821C3.11241 -32.8659 1.0168 -29.5761 -0.0507716 -26.1632C-3.6417 -14.6831 -2.79831 -1.35165 -2.79831 10.5369C-2.79831 25.4657 -2.58888 40.0799 -1.10598 54.9242C-0.265261 63.34 0.923718 72.2759 3.93835 80.2175C8.88998 93.2618 15.8998 105.659 20.2691 118.901C22.0331 124.248 22.3855 130.05 23.6815 135.516C24.9689 140.945 26.5772 149.845 33.8676 147.914L32.8767 139.979C35.4651 139.341 38.171 139.225 40.8044 138.844C41.6347 138.723 43.1597 138.206 43.8412 138.89C44.8482 139.9 44.596 143.271 45.017 144.69C46.4502 149.521 51.3374 151.69 56.1645 149.866C57.3233 149.428 58.651 148.555 59.186 147.395C59.7261 146.223 59.4209 144.819 60.6508 144.049C62.5844 142.838 65.074 143.03 66.6219 141.147C68.2672 139.145 67.8084 136.188 67.8084 133.78V116.669C67.8084 114.696 68.5095 111.092 67.6589 109.305C67.0526 108.032 62.4644 107.463 61.1193 106.951C56.5549 105.213 52.0607 102.469 48.7745 98.8153C40.9235 90.0869 41.6345 76.0311 49.4976 67.5707C54.3031 62.4002 61.0059 59.5523 67.8084 58.1477V-35.0904L67.8084 -63.3594C67.8084 -67.0614 68.8104 -72.4204 67.7296 -75.9493C67.4152 -76.976 65.6987 -76.867 64.8355 -77.0187C61.9812 -77.5206 59.2412 -78.4942 56.66 -79.7868C49.8929 -83.1756 44.9864 -89.3028 43.6445 -96.8358C40.7245 -113.227 51.9322 -125.532 67.8084 -127.584V-140.727C67.8084 -142.17 68.321 -144.854 67.5538 -146.117C66.1762 -148.386 61.7281 -149.211 59.666 -150.854C58.0345 -152.154 58.6466 -154.896 57.1132 -156.456C55.9522 -157.638 54.6035 -157.042 53.1916 -156.888C50.5071 -156.597 46.4068 -157.236 44.7035 -154.61C43.8385 -153.276 44.0251 -151.415 44.0251 -149.902C44.0251 -146.422 44.2728 -142.973 44.2728 -139.487ZM66.5697 -128.824L58.3942 -126.841L58.6419 -149.654C60.5682 -149.044 65.4983 -146.947 66.4873 -145.138C67.1452 -143.934 66.8174 -141.584 66.8174 -140.231C66.8174 -136.418 66.5697 -132.625 66.5697 -128.824ZM66.8174 -66.583L61.1193 -69.0976L58.6674 -70.1811L58.3942 -77.2458L66.5697 -75.51L66.8174 -66.583ZM66.8174 9.54486L58.3942 8.05702C59.6849 -11.2161 58.6419 -30.8924 58.6419 -50.2167C58.6419 -54.7979 59.0012 -59.5542 58.4649 -64.1033C58.3594 -64.9986 57.9134 -67.9914 59.194 -68.1943C60.0616 -68.3317 61.2975 -67.721 62.1103 -67.4469C63.5296 -66.9683 65.5587 -66.2274 66.3151 -64.8248C66.894 -63.7512 66.802 -61.5997 66.8165 -60.3837C66.8547 -57.161 66.8172 -53.9356 66.8172 -50.7127V-10.293C66.8172 -3.76023 66.2426 3.04575 66.8174 9.54486ZM58.394 53.6842L58.6417 33.3503L58.394 9.79289L58.6417 9.54486L66.5695 11.0327C66.5702 20.5157 66.8172 30.0456 66.8172 39.5497C66.8172 42.4277 67.8991 48.0897 66.4594 50.6396C65.614 52.1369 60.0479 53.5148 58.394 53.6842ZM66.5695 57.1558L58.394 59.3876V55.42L66.5695 52.4443V57.1558ZM58.6417 143.947V136.011V118.901V107.494L66.5695 109.974V131.3C66.5695 133.758 67.3276 137.783 66.005 139.956C64.6144 142.24 60.6575 142.204 58.6417 143.947ZM57.8985 -130.808C52.5746 -130.343 49.6465 -125.991 45.2636 -123.865C45.2636 -131.15 45.2753 -138.434 45.2636 -145.687C45.2599 -147.89 44.4525 -152.182 45.7812 -154.049C47.1067 -155.911 50.5326 -155.195 52.4481 -155.401C53.4291 -155.506 54.4188 -155.955 55.4172 -155.793C56.2426 -155.659 56.7303 -155.094 57.0652 -154.362C58.5517 -151.112 57.936 -147.129 57.8994 -143.703C57.8551 -139.548 58.57 -134.883 57.8985 -130.808ZM57.8987 -73.2783C39.9267 -77.5412 33.4423 -101.436 41.005 -116.674C44.5201 -123.756 50.5224 -128.158 57.8987 -130.56C59.16 -125.415 53.741 -124.582 50.4664 -121.775C46.5205 -118.392 43.7723 -113.845 42.7034 -108.739C41.0454 -100.817 42.371 -91.8608 47.4944 -85.429C49.3083 -83.1519 51.4729 -81.326 53.9348 -79.7824C55.0204 -79.1018 57.1558 -78.5005 57.8417 -77.3909C58.4246 -76.448 58.1834 -74.2855 57.8987 -73.2783ZM58.1464 -70.0546L44.7683 -71.7904C45.3805 -74.3646 45.3805 -78.1434 44.7683 -80.7175L49.9709 -76.6079L58.1464 -72.5344V-70.0546ZM45.016 6.56918L45.016 -70.3026L54.4303 -69.3107L57.8597 -68.2436L57.9208 -63.3594L57.8987 -52.2006L57.8987 -9.54905V3.0976L57.8786 7.65062L54.678 7.63203L45.016 6.56918ZM45.016 62.1156L45.016 8.05732L54.678 8.9882L57.8409 9.69484L57.9021 12.5208L57.8984 19.7121V44.5094L57.9196 50.7088L57.8702 53.8288L53.6867 56.2257L45.016 62.1156ZM57.8983 112.702C34.5145 106.314 31.8403 70.8732 51.457 58.8451C53.4358 57.6318 55.6262 56.2132 57.8983 55.6682C57.9904 56.8363 58.5304 58.4989 57.8917 59.583C57.2599 60.6548 55.4431 61.2209 54.4301 61.8871C52.2906 63.2943 50.2441 64.9236 48.5264 66.8271C43.9222 71.9289 41.8797 78.3547 42.0466 85.1771C42.2013 91.4989 45.2704 97.2186 49.7266 101.535C51.2705 103.03 53.0817 104.301 54.9256 105.399C55.8023 105.921 57.1036 106.295 57.7393 107.13C58.4153 108.017 58.2097 111.608 57.8983 112.702ZM45.0159 105.015L50.9617 109.866L58.1463 113.446C56.7138 121.169 57.8859 130.137 57.8985 137.996C57.9022 140.373 59.1107 145.125 57.749 147.16C56.0199 149.743 49.9328 149.509 47.7739 147.591C46.6277 146.573 46.1666 144.652 45.8706 143.203C44.7876 137.902 45.0159 132.462 45.0159 127.085V105.015ZM44.5204 -71.7901L31.1423 -70.4265L21.4803 -67.5746C26.1684 -85.1278 25.1567 -103.493 27.6416 -121.385C28.3745 -126.662 29.4288 -131.907 30.964 -137.007C31.5875 -139.079 32.0946 -141.689 33.372 -143.454C34.0875 -141.032 34.351 -137.008 33.8675 -134.527C37.1644 -134.328 41.6929 -137.301 44.7682 -138.495L44.7682 -128.08C44.7682 -126.574 45.1158 -124.556 44.6223 -123.121C43.9652 -121.209 42.065 -119.506 41.1161 -117.665C38.8393 -113.248 37.6436 -108.254 37.5846 -103.283C37.5233 -98.1298 38.2534 -92.888 40.386 -88.1564C41.4266 -85.8477 43.5735 -83.8016 44.3746 -81.4611C45.2934 -78.7767 44.5204 -74.6272 44.5204 -71.7901ZM44.5204 6.56948L-1.55975 9.79319C-1.55975 -1.3744 -2.26232 -13.551 0.673563 -24.4272C1.54138 -27.6421 3.34243 -30.6336 4.81485 -33.6022C7.22829 -38.468 9.57621 -43.3707 12.0049 -48.2326C14.1609 -52.5486 16.2206 -56.9341 18.6118 -61.1273C19.4098 -62.5267 19.9643 -64.7863 21.2978 -65.7514C27.3089 -70.1014 37.4442 -70.3023 44.5204 -70.3023L44.5204 6.56948ZM44.3709 8.41284C44.9739 9.60192 44.5204 11.9485 44.5204 13.2648V25.1675L44.5204 50.9568C44.5204 54.526 45.4027 59.439 44.3933 62.8595C43.836 64.748 41.9444 66.33 41.0006 68.067C39.3247 71.1513 37.9949 76.4374 34.6107 78.0544C31.005 79.7772 26.3866 76.0146 23.71 73.9862C18.2983 69.8849 13.3883 65.1751 8.59771 60.3798C5.50141 57.2804 1.88367 53.6503 -0.142864 49.7169C-1.36289 47.3489 -0.861412 44.1094 -1.10631 41.5337C-1.77374 34.5141 -1.80749 27.5139 -1.80749 20.456V13.7607C-1.80722 13.0484 -2.00883 11.8005 -1.37584 11.2879C-0.451119 10.539 2.46526 10.8288 3.64285 10.7753C7.91566 10.5811 12.2666 10.4047 16.5255 9.99903C23.6059 9.32459 30.7049 8.0693 37.8314 8.05732C39.1488 8.05732 43.6507 6.99255 44.3709 8.41284ZM31.6378 138.739L32.6288 146.923C28.7659 146.922 27.3937 144.153 26.3329 140.723C24.5455 134.945 23.6735 129.025 22.4704 123.117C20.7209 114.527 16.3898 106.565 12.9145 98.5677C6.38169 83.5354 0.392362 68.5819 -0.321033 51.9486C2.81198 54.369 5.40171 58.591 8.12994 61.5391C12.4581 66.216 17.4365 70.4628 22.4103 74.4316C25.4012 76.8181 30.718 81.2447 34.8584 79.2831C36.5438 78.4847 37.433 76.8644 38.5746 75.5062C38.7693 76.8178 38.1927 78.1454 38.1013 79.4737C37.854 83.0671 37.739 86.8202 38.4037 90.3846C39.0424 93.8094 40.2476 96.9814 41.8585 100.056C42.5891 101.45 43.9498 102.768 44.3933 104.271C44.8929 105.964 44.5204 108.217 44.5204 109.974V121.629V132.788C44.5204 133.811 44.9322 136.012 44.2658 136.854C43.7163 137.548 41.6324 137.427 40.8043 137.5C37.806 137.762 34.5615 138.035 31.6378 138.739ZM38.6912 107.247C38.0579 104.505 34.6804 102.992 32.3917 104.865C30.7212 106.232 30.3544 108.469 30.9091 110.47C31.6728 113.226 35.0794 114.436 37.29 112.564C38.775 111.306 39.1122 109.069 38.6912 107.247ZM36.4087 -8.28215C36.0805 -9.81314 33.3635 -9.90449 32.7783 -8.52377C32.0469 -6.79862 32.0469 -0.644179 32.7783 1.08097C33.329 2.38023 35.8048 2.39347 36.3271 1.05866C36.6396 0.259983 36.3554 -0.777933 36.3458 -1.61336C36.3222 -3.6674 36.8343 -6.29737 36.4087 -8.28215ZM36.4447 60.4132C36.0153 59.0063 33.4389 58.8919 32.8127 60.201C31.9424 62.0204 32.6288 65.5676 32.6288 67.5713C32.6288 68.3007 32.4625 69.3022 32.7783 69.9819C33.3678 71.2512 35.8572 71.0057 36.3332 69.776C36.6602 68.9315 36.3696 67.9495 36.3485 67.0754C36.3007 65.0878 37.0167 62.2873 36.4447 60.4132ZM36.0972 -89.148C35.2822 -89.2994 34.2057 -89.6062 33.4508 -89.1033C32.534 -88.4929 32.5257 -85.0866 33.2738 -84.3379C35.2432 -82.3666 36.0971 -85.2735 36.0972 -86.668V-89.148ZM1.66092 56.9087C1.70507 62.2474 3.37521 67.7035 4.91025 72.779C7.81356 82.3786 11.391 91.1225 15.9662 100.056C18.262 104.539 20.234 110.327 23.4623 114.191C24.0755 110.622 23.71 106.658 23.71 103.032C23.71 98.2765 24.0426 93.3756 23.534 88.6494C23.2603 86.106 24.0137 83.134 22.9456 80.7142C22.0389 78.66 20.0104 76.922 18.5459 75.2588C15.606 71.9202 12.6628 68.564 9.59825 65.3398C7.14805 62.762 4.74915 58.679 1.66092 56.9087ZM23.2146 -62.3665C21.7613 -61.6296 20.8267 -59.973 19.9308 -58.6469C17.8842 -55.6177 16.0619 -52.4336 14.3159 -49.224C9.55519 -40.4726 3.95088 -30.9371 1.53094 -21.2029C0.544024 -17.2331 0.449383 -13.1063 0.152478 -9.05227C-0.14737 -4.9578 -0.321016 -0.759473 -0.321016 3.34645C-0.321016 4.28089 -0.74664 6.66091 0.076211 7.30693C1.13348 8.13699 5.06432 7.24444 6.36804 7.06605C11.9479 6.30115 17.6248 6.28531 23.2146 5.57821L23.2146 -62.3665ZM22.9668 11.7775C17.7478 13.0212 11.4861 12.5437 6.12029 12.7792C4.97102 12.8298 0.887799 12.5222 0.181346 13.415C-0.569167 14.3635 0.117279 16.3958 0.164697 17.4809C0.317334 20.9699 -0.0732887 24.4193 -0.0732887 27.8958C-0.0732887 34.0504 -1.06012 41.8484 1.01363 47.7337C3.25042 54.0817 9.78967 59.4995 15.039 63.3595C17.4771 65.1523 20.2354 68.0381 23.2145 68.8115L23.2145 29.8796V17.9769L22.9668 11.7775ZM-38.9689 203.461C-35.4333 202.618 -31.2011 203.213 -27.5727 203.213H-5.27589C-2.31279 203.213 1.24748 203.751 4.13834 203.082C8.76355 202.012 7.39246 197.206 8.7472 194.075C9.26497 192.878 10.8438 192.789 11.3246 191.31C11.8204 189.786 11.7514 187.555 11.0627 186.103C10.6481 185.229 9.53857 184.398 9.5774 183.375C9.65589 181.308 11.8567 179.519 12.0743 177.424C12.3412 174.855 9.03846 170.53 7.91489 168.249C7.50171 167.41 7.09343 166.053 6.27129 165.528C5.01027 164.723 2.13057 165.273 0.66994 165.273H-13.4514H-66.9639H-82.5717C-84.0265 165.273 -87.1488 164.682 -88.3766 165.528C-89.2111 166.103 -89.3921 167.609 -89.7342 168.497C-90.6316 170.825 -93.3549 175.451 -92.8434 177.92C-92.4725 179.71 -90.3887 181.486 -90.3926 183.304C-90.3941 184.12 -91.3902 184.914 -91.7582 185.607C-92.5021 187.008 -92.7169 189.023 -92.3495 190.566C-91.9646 192.183 -90.5176 192.678 -89.8835 194.049C-88.5075 197.024 -88.9455 200.839 -85.5446 202.648C-82.8289 204.092 -78.1435 203.213 -75.1394 203.213H-51.1083C-48.2958 203.213 -43.3133 202.238 -40.7398 203.363C-39.6565 203.836 -39.9599 205.485 -39.9599 206.437C-39.9599 208.129 -39.6217 210.243 -40.0664 211.882C-40.3938 213.09 -41.6772 213.939 -40.8719 215.307C-40.1205 216.584 -38.3738 215.944 -38.1664 214.619C-38.0106 213.623 -38.7723 212.647 -38.8416 211.644C-39.0228 209.021 -38.4206 205.985 -38.9689 203.461ZM-19.3972 -182.634C-13.483 -182.634 -7.487 -182.527 -1.55975 -182.382C0.890931 -182.322 3.88653 -181.455 6.11646 -182.88C10.0107 -185.369 8.65259 -191.453 8.86877 -195.277C8.97712 -197.193 11.428 -198.541 11.744 -200.736C11.9453 -202.134 11.8104 -204.012 10.876 -205.144C10.3481 -205.783 9.34254 -205.967 8.99476 -206.743C7.6419 -209.761 8.81887 -213.652 5.12931 -215.501C3.44377 -216.346 0.777689 -215.862 -1.06426 -215.862H-14.6901L-63.7432 -215.862H-78.6078C-80.6415 -215.862 -83.4503 -216.364 -85.2967 -215.386C-88.9346 -213.459 -88.1634 -209.731 -89.7629 -206.697C-90.8486 -204.637 -92.6742 -203.954 -92.4068 -201.232C-92.1659 -198.779 -89.9626 -197.241 -89.7707 -195.032C-89.4725 -191.602 -90.6444 -187.215 -88.6465 -184.144C-86.3031 -180.542 -78.1568 -182.138 -74.3961 -182.138C-70.6628 -182.138 -65.3679 -181.158 -61.798 -182.217C-60.4472 -182.617 -61.0214 -184.73 -59.28 -185.057C-56.8763 -185.509 -54.0491 -185.113 -51.6038 -185.113L-36.2437 -185.113H-23.6089C-21.7074 -185.113 -19.7407 -184.855 -19.3972 -182.634ZM-2.05524 175.192L5.37705 166.761H5.87254C7.76287 170.754 11.8893 175.609 9.77602 179.904C8.99345 181.494 8.42697 183.908 6.14245 183.296C5.06359 183.008 4.16455 181.694 3.44081 180.905C1.66601 178.972 -0.0705846 176.911 -2.05524 175.192ZM10.4944 -202.967C10.8754 -201.119 10.324 -198.4 8.34901 -197.662C7.01525 -197.163 5.05244 -197.512 3.64285 -197.512C-0.0855966 -197.512 -4.05524 -197.878 -7.75332 -197.441C-14.6201 -196.63 -21.8944 -197.264 -28.8115 -197.264L-68.9458 -197.264C-72.555 -197.264 -76.246 -197.489 -79.8465 -197.242C-82.5104 -197.059 -86.1129 -196.37 -88.7232 -197.095C-90.1675 -197.496 -90.9701 -199.391 -91.1681 -200.736C-91.3564 -202.015 -91.2535 -203.739 -89.9779 -204.449C-88.736 -205.139 -86.435 -204.703 -85.0491 -204.703H-73.1574L-11.9649 -204.703H5.12931C6.96666 -204.703 9.99951 -205.367 10.4944 -202.967ZM10.4858 188.831C10.5487 189.856 10.3533 191.4 9.29409 191.87C7.91504 192.482 5.62611 192.054 4.13833 192.054H-8.00108H-69.1936H-86.0401C-88.0304 192.054 -91.0033 192.558 -91.2283 189.823C-91.3669 188.138 -91.1594 185.82 -89.4853 184.907C-88.1962 184.204 -85.9816 184.615 -84.5536 184.615H-72.9097H-11.4695H1.41317C3.35234 184.615 5.72015 184.248 7.60674 184.719C9.46627 185.183 10.3764 187.048 10.4858 188.831ZM7.85449 -206.191L-57.3019 -206.191H-77.8645L-88.2697 -205.943C-88.9468 -208.627 -87.0182 -213.396 -84.3049 -214.347C-82.6516 -214.927 -80.5838 -214.622 -78.8555 -214.622H-68.2024H-12.9558H0.174598C1.9633 -214.622 4.16408 -214.917 5.57829 -213.574C7.63345 -211.622 7.26016 -208.69 7.85449 -206.191ZM3.643 -183.378L3.39526 -196.024H7.60688C7.93634 -191.846 8.98364 -184.621 3.643 -183.378ZM-88.7651 193.542L-88.5173 193.294L-74.6437 193.542H-48.383H-12.4603L7.35915 193.294C8.00908 195.66 7.11202 200.385 4.6118 201.475C3.15708 202.109 0.989749 201.723 -0.568631 201.725H-11.7171H-68.9456C-72.652 201.725 -76.3914 201.581 -80.0941 201.744C-81.999 201.828 -84.1955 202.183 -85.7815 200.884C-87.8148 199.217 -88.2926 195.979 -88.7651 193.542ZM4.88172 166.761L-2.30283 174.448H-2.79832L-9.73511 166.761L0.174598 166.513L4.88172 166.761ZM4.88172 183.375H-10.2306C-8.69504 180.492 -4.95974 177.065 -2.30283 175.192L4.88172 183.375ZM-84.8012 -171.723V-163.044H-61.7611L-14.69 -163.044H-1.5596L3.24577 -163.13L3.643 -165.028L3.49351 -171.358L-1.5596 -171.723H-17.6629L-84.8012 -171.723ZM3.39526 -145.19C-4.16267 -146.615 -11.8369 -147.403 -19.3971 -148.814C-21.1588 -149.143 -22.4335 -150.724 -24.1042 -150.964C-28.3202 -151.568 -33.2017 -150.893 -37.4823 -150.893C-43.8254 -150.893 -50.4927 -151.496 -56.8063 -150.867C-58.6041 -150.688 -59.9802 -149.216 -61.7611 -148.827C-68.9723 -147.25 -77.1912 -145.263 -84.5534 -144.942L-84.5534 -93.6111C-84.5534 -85.214 -85.3045 -76.4271 -84.5277 -68.0698C-84.261 -65.2015 -83.1259 -62.2725 -82.5761 -59.4328C-80.6266 -49.3636 -77.9442 -39.3636 -76.3082 -29.2432C-75.3503 -23.3175 -75.6393 -17.0254 -75.3772 -11.0359C-74.9289 -0.789424 -74.5944 9.43734 -74.6439 19.7128C-74.7131 34.0554 -74.5617 48.8316 -75.9245 63.1082C-77.6804 81.5016 -82.9228 99.5299 -84.759 117.91C-85.7534 127.865 -84.8012 138.402 -84.8012 148.411C-77.0131 149.418 -69.3476 151.33 -61.5133 152.089C-54.7076 152.748 -47.5428 152.131 -40.703 152.131C-33.2685 152.131 -25.547 152.716 -18.1584 151.924C-12.9134 151.362 -7.72559 150.586 -2.55055 149.552C-1.10618 149.263 1.90764 149.265 2.99193 148.199C3.86029 147.345 3.39527 144.357 3.39527 143.204V128.821C3.39527 107.927 -2.11881 86.9725 -5.17137 66.3322C-5.928 61.2159 -5.80346 56.1065 -6.02871 50.9578C-6.54202 39.224 -6.74329 27.5131 -6.76219 15.7456C-6.77995 4.69253 -6.79719 -6.43265 -6.04112 -17.4829C-5.76039 -21.5861 -6.0788 -25.8054 -5.45006 -29.8816C-3.92622 -39.7609 -0.818697 -49.6557 1.47144 -59.3904C2.06308 -61.9053 3.04247 -64.517 3.34958 -67.0777C4.18687 -74.0589 3.39529 -81.6159 3.39529 -88.6514C3.39529 -107.425 2.50618 -126.443 3.39526 -145.19ZM2.8998 -183.377L0.174626 -183.625V-183.873H2.65206V-195.776H-8.24863L0.174626 -196.272L2.82219 -195.697L2.8998 -192.056V-183.377ZM-84.3057 -163.539V-171.227L3.14751 -171.227C3.14751 -169.581 3.92511 -165.241 2.89289 -163.937C2.1361 -162.98 -1.18156 -163.539 -2.30283 -163.539H-18.1584L-84.3057 -163.539ZM2.73805 -211.394C1.81304 -214.255 -6.89469 -213.845 -5.62919 -209.415C-4.7301 -206.268 4.28678 -206.604 2.73805 -211.394ZM2.42129 -201.714C2.00083 -203.266 -0.224733 -202.532 0.328861 -200.998C0.847998 -199.559 2.79994 -200.316 2.42129 -201.714ZM2.46812 196.777C1.91045 195.407 0.412911 195.527 -0.816381 195.526C-3.30099 195.526 -7.08686 195.8 -5.58733 199.483C-4.99792 200.931 -3.33687 200.734 -2.05509 200.734C0.453273 200.734 3.93724 200.385 2.46812 196.777ZM2.29665 -210.899C3.25876 -207.443 -4.56207 -207.432 -5.16736 -209.668C-6.12282 -213.199 1.6642 -213.171 2.29665 -210.899ZM2.21924 188.143C1.56647 186.683 -0.192991 187.995 0.327908 189.289C0.931372 190.789 2.83112 189.511 2.21924 188.143ZM2.27735 197.758C2.85791 201.179 -4.76428 201.259 -5.21897 198.745C-5.86087 195.196 1.85487 195.268 2.27735 197.758ZM2.15653 -68.3186H1.90879L-13.7472 -119.153L-19.6104 -138.247L-22.6177 -148.414C-17.2022 -146.294 -10.5419 -145.971 -4.78026 -145.158C-3.35609 -144.957 0.993789 -144.958 1.90191 -143.801C2.70981 -142.772 2.15653 -139.762 2.15653 -138.495V-124.113V-68.3186ZM2.0491 118.38C1.9967 119.7 -0.307027 120.671 -1.31186 121.225C-5.08307 123.305 -9.00349 124.78 -13.2035 125.702C-22.4886 127.74 -32.4828 126.837 -41.9417 126.837C-49.7878 126.837 -58.2625 127.679 -65.9727 125.987C-70.6554 124.96 -75.3181 123.554 -79.5986 121.354C-80.9421 120.664 -83.492 119.956 -83.5258 118.156C-83.597 114.355 -82.2898 110.246 -81.6891 106.503C-80.1908 97.1653 -78.5655 87.8385 -77.1885 78.4817C-76.7009 75.1692 -76.0942 71.8801 -75.6347 68.5628C-75.4945 67.5505 -75.4859 65.3005 -74.7076 64.5797C-73.8973 63.8293 -71.9774 63.694 -70.9276 63.4605C-67.7412 62.7522 -64.5062 61.9693 -61.2656 61.581C-55.0379 60.8347 -48.7062 61.1236 -42.4372 61.1236C-35.6774 61.1236 -28.8581 60.8767 -22.1223 61.3494C-18.2181 61.6233 -14.5228 62.543 -10.7261 63.441C-9.60229 63.7068 -7.54889 63.7085 -6.80293 64.7216C-6.07795 65.7063 -6.14269 67.6327 -5.92262 68.8107C-5.26345 72.3394 -4.76406 75.9266 -4.21673 79.4736C-2.85135 88.3221 -1.44466 97.1772 0.0346641 106.007C0.682915 109.876 2.20442 114.465 2.0491 118.38ZM-83.5625 147.418C-84.7969 140.763 -83.8102 133.11 -83.8102 126.341C-83.8102 124.357 -83.4341 122.07 -83.8102 120.141C-81.4524 119.984 -78.1277 122.622 -75.8825 123.514C-70.7455 125.554 -65.5145 126.768 -60.0269 127.29C-52.0841 128.047 -43.7299 127.333 -35.7481 127.333C-28.9454 127.333 -21.6345 128.054 -14.9377 126.672C-11.1993 125.9 -7.48593 124.825 -4.03703 123.171C-2.01548 122.201 0.0146598 120.45 2.15653 119.894V139.731C2.15653 141.379 2.92683 145.672 1.90191 146.99C1.03496 148.105 -2.22691 148.098 -3.54155 148.361C-8.98876 149.451 -14.5821 150.509 -20.1403 150.646C-32.7933 150.957 -45.8904 151.735 -58.5405 150.868C-66.9162 150.294 -75.2219 147.777 -83.5625 147.418ZM1.16557 -68.5664C-5.99558 -71.1906 -12.059 -76.4004 -19.6448 -78.2274C-25.1748 -79.5592 -31.5734 -78.7332 -37.2346 -78.7332C-45.7366 -78.7332 -55.5343 -80.0915 -63.7431 -77.6327C-70.6718 -75.5573 -76.2882 -71.0674 -82.8193 -68.3183C-81.9472 -74.7689 -78.7171 -81.7237 -76.6444 -87.9083C-72.3998 -100.573 -68.6687 -113.412 -64.4861 -126.096C-62.6654 -131.618 -60.8726 -137.15 -59.1759 -142.71C-58.479 -144.994 -57.4033 -147.287 -57.054 -149.654H-42.4372C-42.4994 -148.225 -43.8768 -145.723 -43.2268 -144.456C-41.5014 -141.092 -36.4082 -140.619 -35.1775 -144.704C-34.7947 -145.974 -35.8519 -148.18 -36.2436 -149.406L-26.8294 -149.654L-23.5726 -149.079L-21.254 -141.966L-16.0713 -125.104L-3.85848 -85.4285L1.16557 -68.5664ZM-1.06411 -69.0623C-5.46242 -69.5006 -9.73887 -71.3148 -14.1945 -71.7479C-20.7685 -72.3868 -27.418 -71.8799 -34.0139 -72.0416C-44.3697 -72.2955 -55.1566 -73.2601 -65.4773 -72.2439C-70.6488 -71.7346 -75.5581 -69.9689 -80.5896 -68.8143V-69.0623C-74.1359 -73.0158 -66.8334 -76.9338 -59.2837 -78.1568C-51.9935 -79.3377 -43.6358 -78.2373 -36.2436 -78.2373C-31.5827 -78.2373 -26.4875 -78.8211 -21.8745 -78.1629C-17.3264 -77.5139 -13.1049 -75.259 -8.99188 -73.3542C-6.39718 -72.1525 -3.27032 -70.892 -1.06411 -69.0623ZM-10.4783 182.383L-10.4783 167.256L-4.78025 172.712L-3.27431 174.944L-5.028 177.175L-10.4783 182.383ZM-3.64667 97.328C-4.6663 89.5553 -6.1318 81.8869 -8.03226 74.2664C-8.5047 72.372 -8.69122 67.8884 -10.1314 66.5438C-10.949 65.7805 -12.8841 65.704 -13.9467 65.4882C-17.1343 64.8412 -20.3368 64.1008 -23.6087 64.0996H-57.3017C-60.715 64.0996 -64.1037 64.6284 -67.4592 65.2342C-68.487 65.4197 -70.4555 65.3968 -71.1916 66.2293C-71.8909 67.0203 -71.9615 68.5619 -72.1671 69.5549C-72.6818 72.0418 -73.3023 74.5183 -73.8711 76.9941C-75.8853 85.7618 -77.6167 94.5145 -77.6167 103.527C-77.6167 105.826 -77.9651 108.438 -77.5799 110.704C-77.2931 112.391 -73.4287 111.462 -72.1663 111.462H-54.8243H-16.4242C-13.2887 111.462 -10.1445 111.393 -7.00994 111.462C-6.16575 111.482 -4.43312 112.03 -3.79617 111.269C-3.15527 110.503 -3.54154 108.435 -3.54154 107.491C-3.54154 104.159 -3.21316 100.629 -3.64667 97.3243M-6.7622 62.856L-22.1222 59.8901L-43.6759 59.8804L-59.0359 59.9228L-74.8915 62.8564L-74.3862 53.4333L-73.8996 35.3313L-73.6625 -1.36876L-75.1392 -29.1418L-61.2656 -31.1034L-43.1804 -31.1257L-20.6358 -31.116L-6.7622 -29.1421L-7.99728 2.84654L-7.50906 39.2986L-6.7622 62.856ZM-8.99188 -195.78H-10.2306V-196.028L-8.99188 -195.78ZM-10.7261 -194.292L-70.9276 -194.292V-195.78L-10.7261 -196.028V-194.292ZM-10.8767 -193.222C-10.0953 -191.562 -12.2208 -191.565 -13.2035 -191.565H-22.8655L-59.2837 -191.565H-67.9547C-68.7397 -191.565 -70.3156 -191.266 -70.7425 -192.139C-71.4938 -193.676 -69.6881 -193.794 -68.6979 -193.796H-60.0269L-23.8565 -193.796H-14.1945C-13.3487 -193.796 -11.3238 -194.171 -10.8767 -193.222ZM-70.9276 -191.069L-10.7261 -191.069L-11.1233 -189.092L-14.1945 -188.837H-21.8745L-58.2927 -188.837H-67.2115L-70.5304 -189.092L-70.9276 -191.069ZM-10.7261 -183.878H-18.4061C-19.7501 -187.276 -24.1271 -186.605 -27.0771 -186.605L-52.8424 -186.605C-55.9486 -186.605 -61.2633 -187.749 -62.0089 -183.63L-70.6799 -183.382C-70.9554 -184.315 -71.4363 -187.391 -70.5277 -188.09C-69.7866 -188.66 -68.0941 -188.341 -67.2115 -188.341H-58.7882L-22.37 -188.341H-13.9467C-13.1661 -188.341 -11.534 -188.643 -10.9807 -187.943C-10.3118 -187.098 -10.7261 -184.911 -10.7261 -183.878ZM-11.4693 171.716C-14.837 172.713 -19.3527 171.965 -22.8655 171.965C-22.9018 168.896 -27.0142 169.981 -29.3068 169.981H-50.6127C-52.9975 169.981 -58.0073 168.781 -58.045 171.965H-70.1844L-69.9297 166.907L-66.2205 166.509H-55.8153H-11.7171L-11.4693 171.716ZM-11.4693 179.9H-25.5907H-54.0811L-69.9366 180.148L-70.1844 172.46H-58.045C-57.8402 175.147 -53.5876 174.196 -51.6037 174.196H-30.2978C-28.2192 174.196 -23.0784 175.254 -22.8655 172.46H-14.69L-11.7239 172.858L-11.4693 179.9ZM-11.4693 183.123L-17.9106 183.371H-30.05H-70.1844V180.644H-25.3429H-15.4332L-11.8667 180.898L-11.4693 183.123ZM-19.5022 -8.80817C-19.9198 -11.953 -20.8907 -14.8514 -23.8565 -16.4866C-26.3052 -17.8367 -29.0903 -17.4873 -31.7842 -17.4873L-46.6488 -17.4873C-50.4303 -17.4873 -55.5291 -18.4175 -58.7882 -16.0892C-63.1574 -12.9679 -62.5043 -7.31424 -62.5043 -2.60887C-62.5043 -0.661878 -62.7055 1.41277 -62.43 3.3425C-60.892 14.1171 -48.6844 11.5256 -40.703 11.5256C-35.9773 11.5256 -28.6836 12.8933 -24.3519 10.841C-17.9458 7.80596 -18.7173 -2.89742 -19.5022 -8.80817ZM-19.9633 -8.80817C-19.2896 -3.17044 -18.404 7.1498 -24.3519 10.1572C-28.773 12.3926 -36.0952 11.0297 -40.9507 11.0297C-47.4356 11.0297 -60.489 13.5551 -61.7164 4.33438C-62.4655 -1.29368 -63.7777 -12.1614 -58.2506 -15.6937C-55.045 -17.7424 -50.5173 -16.9913 -46.8965 -16.9913H-33.5184C-26.9493 -16.9913 -20.9137 -16.7617 -19.9633 -8.80817ZM-23.6087 173.7H-57.3017L-57.5495 170.725L-46.6488 170.477H-23.6087V173.7ZM-25.8455 -202.291C-26.7711 -203.426 -28.4209 -201.698 -27.4229 -200.604C-26.4016 -199.485 -25.0583 -201.325 -25.8455 -202.291ZM-25.7784 188.14C-26.3997 186.702 -28.3978 187.975 -27.7527 189.286C-27.0273 190.76 -25.1876 189.507 -25.7784 188.14ZM-34.2617 42.7703C-36.862 44.0385 -39.122 47.801 -41.0214 49.9616C-41.9292 50.9941 -42.9003 51.7955 -43.1804 53.1852L-37.4814 46.8431L-34.2617 42.7703ZM-41.1985 -149.161H-37.2346C-36.944 -147.893 -35.9151 -145.926 -36.6506 -144.701C-37.9677 -142.507 -41.2468 -142.397 -41.9969 -145.197C-42.3098 -146.365 -41.46 -148.019 -41.1985 -149.161ZM-53.5774 -201.483C-53.6652 -202.907 -55.7419 -202.964 -55.7419 -201.483C-55.7419 -199.9 -53.4765 -199.847 -53.5774 -201.483ZM-53.7733 188.139C-54.4052 186.671 -56.4114 187.925 -55.7256 189.286C-54.9863 190.754 -53.1894 189.496 -53.7733 188.139ZM-57.5495 -148.665L-60.7772 -138.994L-66.6527 -120.644L-83.067 -69.3138H-83.3147L-83.3147 -122.628V-137.259C-83.3147 -138.876 -83.9014 -141.898 -83.1652 -143.35C-82.5792 -144.507 -78.5699 -144.551 -77.3689 -144.76C-72.2526 -145.649 -67.1488 -146.714 -62.0089 -147.458C-60.6144 -147.66 -58.8473 -149.02 -57.5495 -148.665ZM-71.1753 182.875C-73.5809 181.752 -75.2765 179.025 -77.1212 177.172C-77.6816 176.609 -78.7857 175.819 -78.8078 174.941C-78.8307 174.031 -77.6419 173.18 -77.069 172.597C-75.3995 170.898 -73.4697 167.743 -71.1753 167.005V182.875ZM-71.4231 -183.63L-83.5625 -183.382C-84.5579 -186.752 -83.8102 -191.272 -83.8102 -194.788H-83.5625V-183.878C-80.1466 -183.878 -74.5575 -184.946 -71.4231 -183.63ZM-72.1663 167.005C-74.4521 169.293 -76.9003 173.069 -79.8463 174.444L-86.7831 166.757L-76.1302 166.509L-72.1663 167.005ZM-72.1663 183.371H-87.0309C-85.9668 181.087 -81.561 176.127 -79.1031 175.436L-72.1663 183.371ZM-75.7974 -211.154C-76.7372 -214.234 -85.6253 -213.959 -84.2465 -209.42C-83.3011 -206.308 -74.4487 -206.734 -75.7974 -211.154ZM-76.0664 197.011C-77.205 194.071 -85.9457 194.667 -84.3418 199.237C-83.3231 202.14 -74.2679 201.654 -76.0664 197.011ZM-76.3628 -209.672C-76.7886 -207.529 -84.4319 -207.3 -83.7535 -210.896C-83.321 -213.188 -75.6582 -213.218 -76.3628 -209.672ZM-76.5054 197.272C-75.2452 201.176 -83.1299 201.288 -83.8551 198.979C-85.0307 195.237 -77.1384 195.312 -76.5054 197.272ZM-115.274 -147.921H-115.521L-116.512 -136.019C-118.638 -137.23 -123.884 -137.971 -125.176 -140.054C-125.84 -141.124 -125.244 -142.795 -125.193 -143.954C-125.065 -146.882 -124.301 -151.99 -125.779 -154.593C-127.32 -157.31 -131.751 -156.552 -134.35 -156.923C-135.649 -157.108 -136.826 -157.518 -137.991 -156.631C-139.56 -155.435 -139.902 -152.732 -140.048 -150.897L-146.737 -147.511L-148.817 -145.857L-148.967 -140.482V-127.588C-133.786 -125.657 -122.063 -114.045 -124.549 -98.0787C-125.775 -90.2029 -130.189 -83.6947 -137.323 -80.0036C-140.117 -78.5577 -142.942 -77.7182 -145.994 -77.0306C-146.851 -76.8373 -148.575 -76.9741 -148.888 -75.9524C-149.969 -72.4235 -148.967 -67.0644 -148.967 -63.3624V-35.0934V58.1447C-141.852 59.6145 -135.121 62.5687 -130.18 68.0636C-122.824 76.246 -122.03 89.9947 -129.523 98.3872C-133.047 102.334 -137.389 105.022 -142.278 106.945C-143.618 107.472 -148.203 108.035 -148.817 109.305C-149.83 111.398 -148.827 115.407 -148.729 117.658C-148.441 124.228 -149.555 130.98 -148.925 137.496C-148.692 139.898 -147.83 141.724 -145.498 142.699C-144.197 143.243 -142.433 143.356 -141.365 144.352C-139.752 145.857 -140.488 148.18 -138.066 149.509C-135.365 150.99 -129.572 150.759 -127.571 148.146C-125.701 145.703 -125.245 141.471 -125.183 138.488L-114.035 139.976L-115.026 147.663C-107.809 151.709 -105.482 138.546 -104.459 134.025C-103.319 128.979 -103.014 123.541 -101.291 118.65C-95.6728 102.702 -86.0194 87.9591 -82.5708 71.2872C-78.3465 50.8659 -78.328 30.5007 -78.3599 9.78985C-78.3777 -1.78824 -77.4793 -14.7224 -80.9453 -25.9184C-81.9296 -29.0978 -83.8553 -32.0974 -85.2906 -35.0934C-88.31 -41.3964 -91.2781 -47.7567 -94.537 -53.9394C-97.8318 -60.1903 -101.237 -66.0741 -102.781 -73.0334C-108.22 -97.5448 -102.793 -125.113 -115.274 -147.921ZM-125.679 6.31818L-125.431 -2.36091V-18.4791V-70.3056C-119.722 -70.3056 -114.086 -69.7896 -108.585 -68.1791C-106.504 -67.57 -103.933 -66.9969 -102.211 -65.6026C-101.064 -64.6733 -100.515 -62.6686 -99.8495 -61.3786C-98.268 -58.3118 -96.5986 -55.291 -95.0573 -52.2036C-92.4203 -46.9214 -89.8493 -41.6125 -87.2121 -36.3332C-85.4567 -32.8191 -83.2283 -29.1756 -82.0483 -25.4225C-80.9096 -21.8004 -80.6555 -18.0056 -80.2998 -14.2636C-79.7488 -8.46842 -79.7371 -2.72431 -79.595 3.09456C-79.5591 4.56395 -78.6042 8.15619 -79.6063 9.39221C-80.1452 10.0571 -81.5958 9.57106 -82.3238 9.5445C-84.966 9.44831 -87.6111 9.17157 -90.2516 9.05567C-98.3135 8.70178 -106.256 7.62131 -114.283 6.85619C-117.891 6.51227 -122.215 7.34308 -125.679 6.31818ZM-125.679 8.05398C-122.719 7.34882 -119.268 8.07406 -116.265 8.27976C-108.285 8.82676 -100.236 10.2345 -92.2335 10.2859C-89.1525 10.306 -85.881 10.4909 -82.8193 10.8525C-82.0252 10.9463 -80.4162 10.7714 -79.7825 11.2845C-79.0687 11.8626 -79.3509 13.4491 -79.3509 14.2534V22.1885C-79.3509 27.9228 -79.5867 33.5868 -79.8366 39.2986C-79.9648 42.2287 -79.5585 46.1987 -80.5445 48.9696C-81.3929 51.354 -83.5443 53.5248 -85.1549 55.4169C-91.289 62.6235 -98.4485 69.4041 -106.107 74.9691C-108.754 76.8925 -113.271 79.9765 -116.509 77.6081C-119.4 75.4935 -120.723 70.6291 -122.401 67.5676C-123.249 66.0208 -125.02 64.5281 -125.51 62.8525C-125.874 61.6055 -125.431 59.9411 -125.431 58.6406V48.4737V21.4446C-125.431 17.2073 -124.697 12.1798 -125.679 8.05398ZM-89.0129 183.371L-91.5895 177.668L-90.5783 174.196L-87.7741 166.757C-85.6799 168.234 -84.1262 170.407 -82.3238 172.212C-81.6909 172.846 -80.4354 173.733 -80.3223 174.692C-80.2109 175.637 -81.4347 176.538 -82.0017 177.149C-83.8055 179.093 -86.2996 182.952 -89.0129 183.371ZM-104.373 -62.3705V5.57426L-80.8373 7.55809C-80.8373 -2.11058 -80.4236 -12.5068 -82.7933 -21.9508C-84.939 -30.5022 -89.9747 -39.0412 -94.139 -46.7481C-96.1769 -50.5198 -98.1831 -54.3143 -100.532 -57.9069C-101.573 -59.4991 -102.665 -61.4377 -104.373 -62.3705ZM-113.787 146.919C-113.567 145.18 -112.109 140.554 -113.054 139.063C-113.612 138.183 -115.593 138.312 -116.512 138.202C-119.571 137.834 -122.623 137.387 -125.679 137L-125.679 115.179C-125.679 111.821 -126.307 107.756 -125.584 104.474C-125.025 101.934 -122.351 99.3483 -121.332 96.8286C-118.671 90.2544 -118.21 82.3508 -119.981 75.5028C-117.965 76.6468 -117.434 79.1708 -114.778 79.6368C-110.6 80.3701 -106.39 76.6533 -103.382 74.2636C-98.3765 70.2868 -93.3877 66.0716 -89.0513 61.3586C-86.6085 58.7036 -83.8974 53.9931 -80.8373 52.1933C-81.1853 69.0628 -87.9164 84.3632 -94.4313 99.5562C-97.8822 107.604 -102.106 115.438 -103.726 124.106C-104.843 130.082 -105.736 136.232 -107.855 141.96C-108.912 144.818 -110.473 147.311 -113.787 146.919ZM-104.373 12.0216V68.8075C-101.122 68.16 -97.7355 64.6365 -95.2064 62.6082C-90.412 58.763 -84.5954 54.117 -82.2645 48.2257C-79.9097 42.274 -81.0851 34.1762 -81.0851 27.8919C-81.0851 24.4999 -81.3264 21.1084 -81.2055 17.7286C-81.166 16.6236 -80.6101 14.3331 -81.3397 13.4111C-82.0371 12.5296 -86.1439 12.7974 -87.2787 12.7691C-92.9823 12.6271 -98.6586 12.0216 -104.373 12.0216ZM-81.8354 -202.149C-82.6737 -203.405 -84.2435 -201.961 -83.5545 -200.778C-82.7201 -199.344 -81.0152 -200.92 -81.8354 -202.149ZM-81.8398 188.12C-82.6642 186.625 -84.5112 188.183 -83.6933 189.492C-82.8792 190.795 -81.1707 189.333 -81.8398 188.12ZM-82.8194 56.9048C-84.7486 58.0335 -86.2594 60.4783 -87.7803 62.1122C-91.5755 66.1893 -95.3214 70.3209 -98.9932 74.5109C-100.647 76.398 -103.496 78.7599 -104.247 81.2062C-105.26 84.5053 -104.621 88.7021 -104.621 92.117V113.939C-103.277 112.783 -102.617 110.794 -101.829 109.227C-100.49 106.566 -99.0806 103.913 -97.664 101.292C-92.5888 91.9002 -88.664 82.2954 -85.7575 72.0312C-84.3709 67.1346 -82.8194 62.0173 -82.8194 56.9048ZM-88.5174 -195.78C-87.5684 -195.78 -85.2136 -196.208 -84.5604 -195.383C-84.0799 -194.775 -84.3058 -193.526 -84.3058 -192.805V-186.357C-84.3058 -185.649 -84.0745 -184.372 -84.5604 -183.783C-85.2228 -182.98 -86.6963 -183.907 -87.2258 -184.429C-88.7979 -185.979 -88.5174 -188.56 -88.5174 -190.573V-195.78ZM-102.639 -67.33C-108.059 -69.5559 -113.428 -70.7841 -119.238 -71.4747C-121.347 -71.7256 -123.636 -71.3945 -125.679 -71.7935C-124.949 -74.8626 -126.369 -78.5494 -125.466 -81.4645C-124.794 -83.6369 -122.693 -85.5504 -121.722 -87.6638C-119.224 -93.1037 -118.357 -99.0636 -118.764 -105.022C-119.052 -109.227 -120.008 -113.692 -122.04 -117.421C-123.08 -119.328 -125.027 -121.109 -125.746 -123.124C-126.262 -124.569 -125.927 -126.565 -125.927 -128.084V-138.25L-115.026 -134.531L-114.778 -143.458L-112.584 -138.746L-109.266 -124.612L-106.065 -89.1516L-104.469 -75.5131L-102.639 -67.33ZM-114.042 -8.88191C-114.785 -9.86567 -116.874 -9.65893 -117.354 -8.52713C-118.164 -6.6163 -117.503 -3.1895 -117.503 -1.12103C-117.503 -0.388487 -117.72 0.808044 -117.249 1.43234C-116.506 2.41618 -114.416 2.20944 -113.937 1.07764C-113.127 -0.833199 -113.787 -4.26 -113.787 -6.32847C-113.787 -7.06101 -113.571 -8.25753 -114.042 -8.88191ZM-114.042 59.9871C-114.706 59.007 -116.855 59.0715 -117.354 60.1849C-118.209 62.0941 -117.503 65.729 -117.503 67.8157C-117.503 68.5268 -117.676 69.5669 -117.249 70.1878C-116.618 71.1056 -114.408 71.0368 -113.937 69.9907C-113.079 68.0871 -113.787 64.4426 -113.787 62.3602C-113.787 61.6451 -113.617 60.6132 -114.042 59.9871ZM-114.035 -89.1516C-114.85 -89.303 -115.927 -89.6099 -116.682 -89.107C-117.577 -88.5108 -117.599 -85.1446 -116.964 -84.3415C-115.204 -82.117 -114.035 -85.3901 -114.035 -86.6716V-89.1516ZM-139.057 -73.281C-139.057 -74.4255 -139.48 -76.6159 -138.803 -77.5866C-137.956 -78.7991 -135.359 -79.5735 -134.102 -80.3969C-131.546 -82.0725 -129.146 -84.3485 -127.473 -86.9196C-121.548 -96.027 -121.394 -109.738 -128.284 -118.412C-131.256 -122.154 -135.138 -124.453 -139.305 -126.595L-139.057 -130.563C-131.404 -128.389 -125.091 -123.25 -121.792 -115.932C-114.916 -100.675 -121.151 -77.4294 -139.057 -73.281ZM-139.057 112.699C-139.057 111.21 -139.545 108.698 -138.908 107.341C-138.455 106.376 -136.711 105.809 -135.836 105.294C-133.959 104.189 -132.192 102.81 -130.634 101.289C-126.346 97.1018 -123.231 91.5655 -123.202 85.422C-123.168 78.3534 -124.834 72.2569 -129.578 66.8464C-131.23 64.9623 -133.225 63.3445 -135.341 62.0109C-136.343 61.3793 -138.154 60.8054 -138.803 59.7841C-139.436 58.786 -139.057 56.8105 -139.057 55.6652C-136.502 56.2725 -134.041 57.8618 -131.873 59.3024C-113.064 71.7986 -115.836 106.471 -139.057 112.699ZM-126.074 -102.294C-126.272 -107.783 -128.207 -113.433 -132.162 -117.378C-139.655 -124.851 -151.92 -123.552 -157.942 -114.941C-161.176 -110.318 -162.082 -105.097 -161.84 -99.5662C-161.724 -96.9272 -160.89 -94.2627 -159.791 -91.8791C-158.784 -89.6958 -157.326 -87.61 -155.547 -85.991C-153.905 -84.4963 -152.025 -83.2464 -149.958 -82.4121C-137.132 -77.2356 -125.627 -89.9101 -126.074 -102.294ZM-139.057 -70.0574V-72.7851C-133.742 -74.0164 -130.424 -77.724 -126.175 -80.7202L-126.171 -74.2729L-126.191 -71.9428L-129.395 -71.4023L-139.057 -70.0574ZM-125.927 6.31848L-139.057 8.05428V-68.8175L-126.174 -70.3054V-19.2228V-2.85651L-125.927 6.31848ZM-126.422 62.3605C-128.719 59.7248 -131.802 57.8298 -134.845 56.1811C-135.869 55.6264 -138.397 54.9067 -138.908 53.8318C-140.015 51.5009 -139.057 46.5971 -139.057 44.0105V19.957V12.5178C-139.057 11.7429 -139.316 10.3421 -138.802 9.6918C-138.301 9.05693 -136.59 9.08311 -135.836 8.95069C-132.912 8.43709 -128.847 7.55972 -125.927 8.05428L-126.174 21.4448V47.978L-126.174 57.897L-126.422 62.3605ZM-126.281 80.7105C-126.736 77.5288 -127.679 74.5399 -129.352 71.7835C-135.015 62.4518 -147.58 60.1358 -155.652 67.8381C-160.621 72.579 -162.732 80.1903 -161.775 86.9099C-161.36 89.8241 -160.406 92.8292 -158.861 95.341C-157.554 97.4636 -155.912 99.3138 -153.922 100.821C-152.372 101.996 -150.582 102.948 -148.719 103.514C-135.064 107.67 -124.477 93.322 -126.281 80.7105ZM-139.057 113.195C-133.707 111.923 -130.437 108.017 -126.175 105.012C-126.175 115.344 -126.125 125.677 -126.175 136.009C-126.19 139.161 -126.304 145.562 -128.994 147.731C-131.027 149.37 -138.143 149.952 -138.979 146.67C-139.783 143.512 -139.057 139.271 -139.057 136.009L-139.057 113.195ZM-126.422 -123.868C-130.23 -126.251 -134.132 -130.844 -139.057 -130.811V-145.441C-139.057 -148.2 -139.333 -151.512 -138.262 -154.119C-137.978 -154.812 -137.559 -155.523 -136.802 -155.749C-135.749 -156.061 -134.642 -155.582 -133.607 -155.435C-131.477 -155.131 -128.286 -156.004 -126.854 -153.859C-125.599 -151.979 -126.422 -147.645 -126.422 -145.441V-123.868ZM-139.553 -126.843L-147.728 -128.827V-140.73C-147.728 -141.975 -148.164 -144.261 -147.474 -145.345C-146.266 -147.241 -141.774 -148.809 -139.801 -149.905L-139.553 -142.218V-126.843ZM-147.728 -66.5858V-75.5128L-139.553 -77.2486C-139.553 -75.5432 -138.816 -71.5973 -139.807 -70.1839C-140.29 -69.4963 -141.531 -69.315 -142.278 -69.0655C-144.222 -68.4162 -145.865 -67.3597 -147.728 -66.5858ZM-147.728 9.54212V-49.7235V-60.1384C-147.728 -61.4543 -148.082 -63.3983 -147.474 -64.601C-146.272 -66.9778 -142.014 -68.2142 -139.553 -68.3215V-9.55179V3.09486L-139.807 7.90832L-142.03 8.58275L-147.728 9.54212ZM-139.553 53.6815C-141.242 53.4282 -146.465 52.1886 -147.474 50.7921C-148.004 50.0578 -147.728 48.5866 -147.728 47.7301V40.2909V11.03L-139.801 9.54212C-138.581 13.6711 -139.553 19.3654 -139.553 23.6766V53.6815ZM-139.801 59.6328L-147.474 56.7655L-147.728 52.4416C-143.574 53.0644 -138.311 54.5876 -139.801 59.6328ZM-139.553 143.944C-141.589 142.799 -145.725 141.92 -147.052 139.966C-148.496 137.839 -147.728 133.739 -147.728 131.297L-147.728 109.971L-139.801 107.492C-138.785 110.931 -139.553 115.56 -139.553 119.146L-139.553 143.944Z" fill="#304A6E"/>
</svg>
