<svg width="72" height="81" viewBox="0 0 72 81" fill="none" xmlns="http://www.w3.org/2000/svg">
<rect width="72" height="81" fill="#1A1E26"/>
<rect x="-570" y="-515" width="980" height="753" rx="4" fill="white"/>
<path d="M39.9732 -80.8114C35.063 -79.8295 30.5923 -78.4369 26.8727 -74.8876C19.8342 -68.1717 19.979 -56.7525 27.3274 -50.2903C32.6394 -45.6191 40.075 -43.9999 46.9164 -45.3751C50.0253 -46 53.0803 -47.2332 55.5955 -49.1818C57.4444 -50.6142 59.037 -52.1432 60.2241 -54.1825C67.0177 -65.8526 58.3722 -78.4265 45.9245 -80.4792C43.9509 -80.8047 41.9871 -81.2142 39.9732 -80.8114ZM225.209 -80.7629C219.455 -79.3205 214.215 -77.7675 210.458 -72.7633C204.338 -64.6093 207.2 -53.6019 215.538 -48.2591C220.751 -44.9188 227.465 -44.1236 233.393 -45.6044C241.383 -47.6007 248.454 -54.4146 248.239 -63.1013C248.009 -72.3856 240.253 -78.8131 231.657 -80.4234C229.56 -80.8162 227.34 -81.297 225.209 -80.7629ZM4.51293 -44.2728L7.98458 -35.1063L0.0494039 -34.633L-3.91815 -34.1154C20.3092 -22.2961 47.4491 -27.3105 72.9536 -21.2614C78.0594 -20.0505 82.4925 -17.4075 87.0881 -14.9849C93.9361 -11.3749 100.951 -8.03899 107.918 -4.66839C111.134 -3.11241 114.424 -1.0168 117.837 0.0507716C129.317 3.6417 142.648 2.79831 154.537 2.79831C169.466 2.79831 184.08 2.58888 198.924 1.10598C207.34 0.265261 216.276 -0.923718 224.217 -3.93835C237.262 -8.88998 249.659 -15.8998 262.901 -20.2691C268.248 -22.0331 274.05 -22.3855 279.516 -23.6815C284.945 -24.9689 293.845 -26.5772 291.914 -33.8676L283.979 -32.8767C283.341 -35.4651 283.225 -38.171 282.844 -40.8044C282.723 -41.6347 282.206 -43.1597 282.89 -43.8412C283.9 -44.8482 287.271 -44.596 288.69 -45.017C293.521 -46.4502 295.69 -51.3374 293.866 -56.1645C293.428 -57.3233 292.555 -58.651 291.395 -59.186C290.223 -59.7261 288.819 -59.4209 288.049 -60.6508C286.838 -62.5844 287.03 -65.074 285.147 -66.6219C283.145 -68.2672 280.188 -67.8084 277.78 -67.8084H260.669C258.696 -67.8084 255.092 -68.5095 253.305 -67.6589C252.032 -67.0526 251.463 -62.4644 250.951 -61.1193C249.213 -56.5549 246.469 -52.0607 242.815 -48.7745C234.087 -40.9235 220.031 -41.6345 211.571 -49.4976C206.4 -54.3031 203.552 -61.0059 202.148 -67.8084H108.91H80.6406C76.9386 -67.8084 71.5796 -68.8104 68.0507 -67.7296C67.024 -67.4152 67.133 -65.6987 66.9813 -64.8355C66.4794 -61.9812 65.5058 -59.2412 64.2132 -56.66C60.8244 -49.8929 54.6972 -44.9864 47.1642 -43.6445C30.773 -40.7245 18.4678 -51.9322 16.4155 -67.8084H3.27289C1.8296 -67.8084 -0.853566 -68.321 -2.11726 -67.5538C-4.38622 -66.1762 -5.21131 -61.7281 -6.85403 -59.666C-8.15359 -58.0345 -10.8963 -58.6466 -12.4563 -57.1132C-13.6375 -55.9522 -13.0419 -54.6035 -12.8884 -53.1916C-12.5966 -50.5071 -13.2358 -46.4068 -10.6098 -44.7035C-9.27616 -43.8385 -7.41465 -44.0251 -5.90211 -44.0251C-2.42168 -44.0251 1.02706 -44.2728 4.51293 -44.2728ZM15.1756 -66.5697L17.1594 -58.3942L-5.65416 -58.6419C-5.044 -60.5682 -2.94674 -65.4983 -1.13782 -66.4873C0.0656202 -67.1452 2.41626 -66.8174 3.76886 -66.8174C7.5819 -66.8174 11.3754 -66.5697 15.1756 -66.5697ZM77.417 -66.8174L74.9024 -61.1193L73.8189 -58.6674L66.7542 -58.3942L68.49 -66.5697L77.417 -66.8174ZM153.545 -66.8174L152.057 -58.3942C132.784 -59.6849 113.108 -58.6419 93.7833 -58.6419C89.2021 -58.6419 84.4458 -59.0012 79.8967 -58.4649C79.0014 -58.3594 76.0086 -57.9134 75.8057 -59.194C75.6683 -60.0616 76.279 -61.2975 76.5531 -62.1103C77.0317 -63.5296 77.7726 -65.5587 79.1752 -66.3151C80.2488 -66.894 82.4003 -66.802 83.6163 -66.8165C86.839 -66.8547 90.0644 -66.8172 93.2873 -66.8172H133.707C140.24 -66.8172 147.046 -66.2426 153.545 -66.8174ZM197.684 -58.394L177.35 -58.6417L153.793 -58.394L153.545 -58.6417L155.033 -66.5695C164.516 -66.5702 174.046 -66.8172 183.55 -66.8172C186.428 -66.8172 192.09 -67.8991 194.64 -66.4594C196.137 -65.614 197.515 -60.0479 197.684 -58.394ZM201.156 -66.5695L203.388 -58.394H199.42L196.444 -66.5695H201.156ZM287.947 -58.6417H280.011H262.901H251.494L253.974 -66.5695H275.3C277.758 -66.5695 281.783 -67.3276 283.956 -66.005C286.24 -64.6144 286.204 -60.6575 287.947 -58.6417ZM13.1919 -57.8985C13.6571 -52.5746 18.0089 -49.6465 20.1351 -45.2636C12.8501 -45.2636 5.5658 -45.2753 -1.68654 -45.2636C-3.88951 -45.2599 -8.18201 -44.4525 -10.0488 -45.7812C-11.9109 -47.1067 -11.1953 -50.5326 -11.4006 -52.4481C-11.5057 -53.4291 -11.9552 -54.4188 -11.7932 -55.4172C-11.6592 -56.2426 -11.094 -56.7303 -10.3618 -57.0652C-7.11173 -58.5517 -3.12892 -57.936 0.297203 -57.8994C4.45245 -57.8551 9.11735 -58.57 13.1919 -57.8985ZM70.7217 -57.8987C66.4588 -39.9267 42.5638 -33.4423 27.3264 -41.005C20.2441 -44.5201 15.8422 -50.5224 13.4398 -57.8987C18.5853 -59.16 19.418 -53.741 22.2251 -50.4664C25.6076 -46.5205 30.1545 -43.7723 35.2615 -42.7034C43.1833 -41.0454 52.1392 -42.371 58.571 -47.4944C60.8481 -49.3083 62.674 -51.4729 64.2176 -53.9348C64.8982 -55.0204 65.4995 -57.1558 66.6091 -57.8417C67.552 -58.4246 69.7145 -58.1834 70.7217 -57.8987ZM73.9454 -58.1464L72.2096 -44.7683C69.6354 -45.3805 65.8566 -45.3805 63.2825 -44.7683L67.3921 -49.9709L71.4656 -58.1464H73.9454ZM150.569 -45.016L73.6974 -45.016L74.6893 -54.4303L75.7564 -57.8597L80.6406 -57.9208L91.7994 -57.8987H134.451H147.098L151.651 -57.8786L151.632 -54.678L150.569 -45.016ZM206.116 -45.016H152.057L152.988 -54.678L153.695 -57.8409L156.521 -57.9021L163.712 -57.8984H188.509L194.709 -57.9196L197.829 -57.8702L200.226 -53.6867L206.116 -45.016ZM256.702 -57.8983C250.314 -34.5145 214.873 -31.8403 202.845 -51.457C201.632 -53.4358 200.213 -55.6262 199.668 -57.8983C200.836 -57.9904 202.499 -58.5304 203.583 -57.8917C204.655 -57.2599 205.221 -55.4431 205.887 -54.4301C207.294 -52.2906 208.924 -50.2441 210.827 -48.5264C215.929 -43.9222 222.355 -41.8797 229.177 -42.0466C235.499 -42.2013 241.219 -45.2704 245.535 -49.7266C247.03 -51.2705 248.301 -53.0817 249.399 -54.9256C249.921 -55.8023 250.295 -57.1036 251.13 -57.7393C252.017 -58.4153 255.608 -58.2097 256.702 -57.8983ZM249.015 -45.0159L253.866 -50.9617L257.446 -58.1463C265.169 -56.7138 274.137 -57.8859 281.996 -57.8985C284.373 -57.9022 289.125 -59.1107 291.16 -57.749C293.743 -56.0199 293.509 -49.9328 291.591 -47.7739C290.573 -46.6277 288.652 -46.1666 287.203 -45.8706C281.902 -44.7876 276.462 -45.0159 271.085 -45.0159H249.015ZM72.2099 -44.5204L73.5735 -31.1423L76.4254 -21.4803C58.8722 -26.1684 40.5071 -25.1567 22.6151 -27.6416C17.3383 -28.3745 12.0934 -29.4288 6.99278 -30.964C4.92097 -31.5875 2.311 -32.0946 0.545525 -33.372C2.96818 -34.0875 6.99212 -34.351 9.47257 -33.8675C9.6718 -37.1644 6.69886 -41.6929 5.50494 -44.7682H15.9198C17.4258 -44.7682 19.4439 -45.1158 20.8793 -44.6223C22.7905 -43.9652 24.4935 -42.065 26.3347 -41.1161C30.7522 -38.8393 35.7457 -37.6436 40.7172 -37.5846C45.8702 -37.5233 51.112 -38.2534 55.8436 -40.386C58.1523 -41.4266 60.1984 -43.5735 62.5389 -44.3746C65.2233 -45.2934 69.3728 -44.5204 72.2099 -44.5204ZM150.569 -44.5204L153.793 1.55975C142.626 1.55975 130.449 2.26232 119.573 -0.673563C116.358 -1.54138 113.366 -3.34243 110.398 -4.81485C105.532 -7.22829 100.629 -9.57621 95.7674 -12.0049C91.4514 -14.1609 87.0659 -16.2206 82.8727 -18.6118C81.4733 -19.4098 79.2137 -19.9643 78.2486 -21.2978C73.8986 -27.3089 73.6977 -37.4442 73.6977 -44.5204L150.569 -44.5204ZM152.413 -44.3709C153.602 -44.9739 155.949 -44.5204 157.265 -44.5204H169.167H194.957C198.526 -44.5204 203.439 -45.4027 206.86 -44.3933C208.748 -43.836 210.33 -41.9444 212.067 -41.0006C215.151 -39.3247 220.437 -37.9949 222.054 -34.6107C223.777 -31.005 220.015 -26.3866 217.986 -23.71C213.885 -18.2983 209.175 -13.3883 204.38 -8.59771C201.28 -5.50141 197.65 -1.88367 193.717 0.142864C191.349 1.36289 188.109 0.861412 185.534 1.10631C178.514 1.77374 171.514 1.80749 164.456 1.80749H157.761C157.048 1.80722 155.8 2.00883 155.288 1.37584C154.539 0.451119 154.829 -2.46526 154.775 -3.64285C154.581 -7.91566 154.405 -12.2666 153.999 -16.5255C153.325 -23.6059 152.069 -30.7049 152.057 -37.8314C152.057 -39.1488 150.993 -43.6507 152.413 -44.3709ZM282.739 -31.6378L290.923 -32.6288C290.922 -28.7659 288.153 -27.3937 284.723 -26.3329C278.945 -24.5455 273.025 -23.6735 267.117 -22.4704C258.527 -20.7209 250.565 -16.3898 242.568 -12.9145C227.535 -6.38169 212.582 -0.392362 195.949 0.321033C198.369 -2.81198 202.591 -5.40171 205.539 -8.12994C210.216 -12.4581 214.463 -17.4365 218.432 -22.4103C220.818 -25.4012 225.245 -30.718 223.283 -34.8584C222.485 -36.5438 220.864 -37.433 219.506 -38.5746C220.818 -38.7693 222.145 -38.1927 223.474 -38.1013C227.067 -37.854 230.82 -37.739 234.385 -38.4037C237.809 -39.0424 240.981 -40.2476 244.056 -41.8585C245.45 -42.5891 246.768 -43.9498 248.271 -44.3933C249.964 -44.8929 252.217 -44.5204 253.974 -44.5204H265.629H276.788C277.811 -44.5204 280.012 -44.9322 280.854 -44.2658C281.548 -43.7163 281.427 -41.6324 281.5 -40.8043C281.762 -37.806 282.035 -34.5615 282.739 -31.6378ZM251.247 -38.6912C248.505 -38.0579 246.992 -34.6804 248.865 -32.3917C250.232 -30.7212 252.469 -30.3544 254.47 -30.9091C257.226 -31.6728 258.436 -35.0794 256.564 -37.29C255.306 -38.775 253.069 -39.1122 251.247 -38.6912ZM135.718 -36.4087C134.187 -36.0805 134.096 -33.3635 135.476 -32.7783C137.201 -32.0469 143.356 -32.0469 145.081 -32.7783C146.38 -33.329 146.393 -35.8048 145.059 -36.3271C144.26 -36.6396 143.222 -36.3554 142.387 -36.3458C140.333 -36.3222 137.703 -36.8343 135.718 -36.4087ZM204.413 -36.4447C203.006 -36.0153 202.892 -33.4389 204.201 -32.8127C206.02 -31.9424 209.568 -32.6288 211.571 -32.6288C212.301 -32.6288 213.302 -32.4625 213.982 -32.7783C215.251 -33.3678 215.006 -35.8572 213.776 -36.3332C212.931 -36.6602 211.949 -36.3696 211.075 -36.3485C209.088 -36.3007 206.287 -37.0167 204.413 -36.4447ZM54.852 -36.0972C54.7006 -35.2822 54.3938 -34.2057 54.8967 -33.4508C55.5071 -32.534 58.9134 -32.5257 59.6621 -33.2738C61.6334 -35.2432 58.7265 -36.0971 57.332 -36.0972H54.852ZM200.909 -1.66092C206.247 -1.70507 211.704 -3.37521 216.779 -4.91025C226.379 -7.81356 235.122 -11.391 244.056 -15.9662C248.539 -18.262 254.327 -20.234 258.191 -23.4623C254.622 -24.0755 250.658 -23.71 247.032 -23.71C242.277 -23.71 237.376 -24.0426 232.649 -23.534C230.106 -23.2603 227.134 -24.0137 224.714 -22.9456C222.66 -22.0389 220.922 -20.0104 219.259 -18.5459C215.92 -15.606 212.564 -12.6628 209.34 -9.59825C206.762 -7.14805 202.679 -4.74915 200.909 -1.66092ZM81.6335 -23.2146C82.3704 -21.7613 84.027 -20.8267 85.3531 -19.9308C88.3823 -17.8842 91.5664 -16.0619 94.776 -14.3159C103.527 -9.55519 113.063 -3.95088 122.797 -1.53094C126.767 -0.544024 130.894 -0.449383 134.948 -0.152478C139.042 0.14737 143.241 0.321016 147.346 0.321016C148.281 0.321016 150.661 0.74664 151.307 -0.076211C152.137 -1.13348 151.244 -5.06432 151.066 -6.36804C150.301 -11.9479 150.285 -17.6248 149.578 -23.2146L81.6335 -23.2146ZM155.778 -22.9668C157.021 -17.7478 156.544 -11.4861 156.779 -6.12029C156.83 -4.97102 156.522 -0.887799 157.415 -0.181346C158.363 0.569167 160.396 -0.117279 161.481 -0.164697C164.97 -0.317334 168.419 0.0732887 171.896 0.0732887C178.05 0.0732887 185.848 1.06012 191.734 -1.01363C198.082 -3.25042 203.5 -9.78967 207.359 -15.039C209.152 -17.4771 212.038 -20.2354 212.811 -23.2145L173.88 -23.2145H161.977L155.778 -22.9668ZM347.461 38.9689C346.618 35.4333 347.213 31.2011 347.213 27.5727V5.27589C347.213 2.31279 347.751 -1.24748 347.082 -4.13834C346.012 -8.76355 341.206 -7.39246 338.075 -8.7472C336.878 -9.26497 336.789 -10.8438 335.31 -11.3246C333.786 -11.8204 331.555 -11.7514 330.103 -11.0627C329.229 -10.6481 328.398 -9.53857 327.375 -9.5774C325.308 -9.65589 323.519 -11.8567 321.424 -12.0743C318.855 -12.3412 314.53 -9.03846 312.249 -7.91489C311.41 -7.50171 310.053 -7.09343 309.528 -6.27129C308.723 -5.01027 309.273 -2.13057 309.273 -0.66994V13.4514V66.9639V82.5717C309.273 84.0265 308.682 87.1488 309.528 88.3766C310.103 89.2111 311.609 89.3921 312.497 89.7342C314.825 90.6316 319.451 93.3549 321.92 92.8434C323.71 92.4725 325.486 90.3887 327.304 90.3926C328.12 90.3941 328.914 91.3902 329.607 91.7582C331.008 92.5021 333.023 92.7169 334.566 92.3495C336.183 91.9646 336.678 90.5176 338.049 89.8835C341.024 88.5075 344.839 88.9455 346.648 85.5446C348.092 82.8289 347.213 78.1435 347.213 75.1394V51.1083C347.213 48.2958 346.238 43.3133 347.363 40.7398C347.836 39.6565 349.485 39.9599 350.437 39.9599C352.129 39.9599 354.243 39.6217 355.882 40.0664C357.09 40.3938 357.939 41.6772 359.307 40.8719C360.584 40.1205 359.944 38.3738 358.619 38.1664C357.623 38.0106 356.647 38.7723 355.644 38.8416C353.021 39.0228 349.985 38.4206 347.461 38.9689ZM-38.6337 19.3972C-38.6337 13.483 -38.5275 7.487 -38.3821 1.55975C-38.3219 -0.890931 -37.4554 -3.88653 -38.8803 -6.11646C-41.3688 -10.0107 -47.4528 -8.65259 -51.2767 -8.86877C-53.1932 -8.97712 -54.5408 -11.428 -56.7358 -11.744C-58.1338 -11.9453 -60.0123 -11.8104 -61.1437 -10.876C-61.7828 -10.3481 -61.9669 -9.34254 -62.7429 -8.99476C-65.7612 -7.6419 -69.6515 -8.81887 -71.501 -5.12931C-72.3458 -3.44377 -71.8622 -0.777689 -71.8622 1.06426V14.6901V63.7432V78.6078C-71.8622 80.6415 -72.3642 83.4503 -71.3862 85.2967C-69.4591 88.9346 -65.7313 88.1634 -62.697 89.7629C-60.6372 90.8486 -59.9541 92.6742 -57.2317 92.4068C-54.7788 92.1659 -53.2406 89.9626 -51.0324 89.7707C-47.6015 89.4725 -43.2149 90.6444 -40.144 88.6465C-36.542 86.3031 -38.1378 78.1568 -38.1378 74.3961C-38.1378 70.6628 -37.1579 65.3679 -38.2166 61.798C-38.6172 60.4472 -40.7295 61.0214 -41.0568 59.28C-41.5087 56.8763 -41.1134 54.0491 -41.1134 51.6038V36.2437V23.6089C-41.1127 21.7074 -40.855 19.7407 -38.6337 19.3972ZM319.192 2.05524L310.761 -5.37705V-5.87254C314.754 -7.76287 319.609 -11.8893 323.904 -9.77602C325.494 -8.99345 327.908 -8.42697 327.296 -6.14245C327.008 -5.06359 325.694 -4.16455 324.905 -3.44081C322.972 -1.66601 320.911 0.0705846 319.192 2.05524ZM-58.9673 -10.4944C-57.1195 -10.8754 -54.3996 -10.324 -53.6617 -8.34901C-53.1633 -7.01525 -53.5121 -5.05244 -53.5121 -3.64285C-53.5121 0.0855966 -53.878 4.05524 -53.4414 7.75332C-52.6304 14.6201 -53.2643 21.8944 -53.2643 28.8115L-53.2643 68.9458C-53.2643 72.555 -53.4889 76.246 -53.242 79.8465C-53.0594 82.5104 -52.3698 86.1129 -53.095 88.7232C-53.4964 90.1675 -55.3911 90.9701 -56.7358 91.1681C-58.0149 91.3564 -59.7393 91.2535 -60.4485 89.9779C-61.139 88.736 -60.7034 86.435 -60.7034 85.0491V73.1574L-60.7034 11.9649V-5.12931C-60.7034 -6.96666 -61.3672 -9.99951 -58.9673 -10.4944ZM332.831 -10.4858C333.856 -10.5487 335.4 -10.3533 335.87 -9.29409C336.482 -7.91504 336.054 -5.62611 336.054 -4.13833V8.00108V69.1936V86.0401C336.054 88.0304 336.558 91.0033 333.823 91.2283C332.138 91.3669 329.82 91.1594 328.907 89.4853C328.204 88.1962 328.615 85.9816 328.615 84.5536V72.9097V11.4695V-1.41317C328.615 -3.35234 328.248 -5.72015 328.719 -7.60674C329.183 -9.46627 331.048 -10.3764 332.831 -10.4858ZM-62.1912 -7.85449V57.3019L-62.1912 77.8645L-61.9432 88.2697C-64.6266 88.9468 -69.3957 87.0182 -70.3474 84.3049C-70.9273 82.6516 -70.6223 80.5838 -70.6223 78.8555V68.2024L-70.6223 12.9558V-0.174598C-70.6223 -1.9633 -70.9174 -4.16408 -69.574 -5.57829C-67.6217 -7.63345 -64.69 -7.26016 -62.1912 -7.85449ZM-39.3777 -3.643L-52.0243 -3.39526V-7.60688C-47.8462 -7.93634 -40.6213 -8.98364 -39.3777 -3.643ZM337.542 88.7651L337.294 88.5173L337.542 74.6437V48.383V12.4603L337.294 -7.35915C339.66 -8.00908 344.385 -7.11202 345.475 -4.6118C346.109 -3.15708 345.723 -0.989749 345.725 0.568631V11.7171V68.9456C345.725 72.652 345.581 76.3914 345.744 80.0941C345.828 81.999 346.183 84.1955 344.884 85.7815C343.217 87.8148 339.979 88.2926 337.542 88.7651ZM310.761 -4.88172L318.448 2.30283V2.79832L310.761 9.73511L310.513 -0.174598L310.761 -4.88172ZM327.375 -4.88172V10.2306C324.492 8.69504 321.065 4.95974 319.192 2.30283L327.375 -4.88172ZM-27.7229 84.8012H-19.0439V61.7611V14.69V1.5596L-19.1303 -3.24577L-21.0276 -3.643L-27.3576 -3.49351L-27.7229 1.5596V17.6629V84.8012ZM-1.18978 -3.39526C-2.61506 4.16267 -3.40325 11.8369 -4.81387 19.3971C-5.14261 21.1588 -6.72418 22.4335 -6.96373 24.1042C-7.56831 28.3202 -6.89305 33.2017 -6.89305 37.4823C-6.89305 43.8254 -7.4957 50.4927 -6.86701 56.8063C-6.68795 58.6041 -5.2164 59.9802 -4.82696 61.7611C-3.24985 68.9723 -1.26299 77.1912 -0.941613 84.5534H50.3889C58.786 84.5534 67.5729 85.3045 75.9302 84.5277C78.7985 84.261 81.7275 83.1259 84.5672 82.5761C94.6364 80.6266 104.636 77.9442 114.757 76.3082C120.683 75.3503 126.975 75.6393 132.964 75.3772C143.211 74.9289 153.437 74.5944 163.713 74.6439C178.055 74.7131 192.832 74.5617 207.108 75.9245C225.502 77.6804 243.53 82.9228 261.91 84.759C271.865 85.7534 282.402 84.8012 292.411 84.8012C293.418 77.0131 295.33 69.3476 296.089 61.5133C296.748 54.7076 296.131 47.5428 296.131 40.703C296.131 33.2685 296.716 25.547 295.924 18.1584C295.362 12.9134 294.586 7.72559 293.552 2.55055C293.263 1.10618 293.265 -1.90764 292.199 -2.99193C291.345 -3.86029 288.357 -3.39527 287.204 -3.39527H272.821C251.927 -3.39527 230.972 2.11881 210.332 5.17137C205.216 5.928 200.107 5.80346 194.958 6.02871C183.224 6.54202 171.513 6.74329 159.746 6.76219C148.693 6.77995 137.567 6.79719 126.517 6.04112C122.414 5.76039 118.195 6.0788 114.118 5.45006C104.239 3.92622 94.3443 0.818697 84.6096 -1.47144C82.0947 -2.06308 79.483 -3.04247 76.9223 -3.34958C69.9411 -4.18687 62.3841 -3.39529 55.3486 -3.39529C36.5754 -3.39529 17.5572 -2.50618 -1.18978 -3.39526ZM-39.3772 -2.8998L-39.6252 -0.174626H-39.8732V-2.65206H-51.7759L-51.7759 8.24863L-52.2718 -0.174626L-51.6971 -2.82219L-48.0563 -2.8998H-39.3772ZM-19.5393 84.3057H-27.2266V-3.14751C-25.581 -3.14751 -21.2414 -3.92511 -19.937 -2.89289C-18.9805 -2.1361 -19.5393 1.18156 -19.5393 2.30283V18.1584V84.3057ZM-67.3944 -2.73805C-70.2554 -1.81304 -69.8451 6.89469 -65.4154 5.62919C-62.2683 4.7301 -62.6044 -4.28678 -67.3944 -2.73805ZM-57.7137 -2.42129C-59.2663 -2.00083 -58.532 0.224733 -56.9979 -0.328861C-55.5594 -0.847998 -56.3156 -2.79994 -57.7137 -2.42129ZM340.777 -2.46812C339.407 -1.91045 339.527 -0.412911 339.526 0.816381C339.526 3.30099 339.8 7.08686 343.483 5.58733C344.931 4.99792 344.734 3.33687 344.734 2.05509C344.734 -0.453273 344.385 -3.93724 340.777 -2.46812ZM-66.8987 -2.29665C-63.4425 -3.25876 -63.432 4.56207 -65.6684 5.16736C-69.1986 6.12282 -69.1706 -1.6642 -66.8987 -2.29665ZM332.143 -2.21924C330.683 -1.56647 331.995 0.192991 333.289 -0.327908C334.789 -0.931372 333.511 -2.83112 332.143 -2.21924ZM341.758 -2.27735C345.179 -2.85791 345.259 4.76428 342.745 5.21897C339.196 5.86087 339.268 -1.85487 341.758 -2.27735ZM75.6814 -2.15653V-1.90879L24.8467 13.7472L5.75282 19.6104L-4.41412 22.6177C-2.29432 17.2022 -1.97094 10.5419 -1.15813 4.78026C-0.957195 3.35609 -0.957644 -0.993789 0.198855 -1.90191C1.22762 -2.70981 4.2382 -2.15653 5.5048 -2.15653H19.8873L75.6814 -2.15653ZM262.38 -2.0491C263.7 -1.9967 264.671 0.307027 265.225 1.31186C267.305 5.08307 268.78 9.00349 269.702 13.2035C271.74 22.4886 270.837 32.4828 270.837 41.9417C270.837 49.7878 271.679 58.2625 269.987 65.9727C268.96 70.6554 267.554 75.3181 265.354 79.5986C264.664 80.9421 263.956 83.492 262.156 83.5258C258.355 83.597 254.246 82.2898 250.503 81.6891C241.165 80.1908 231.838 78.5655 222.482 77.1885C219.169 76.7009 215.88 76.0942 212.563 75.6347C211.551 75.4945 209.3 75.4859 208.58 74.7076C207.829 73.8973 207.694 71.9774 207.461 70.9276C206.752 67.7412 205.969 64.5062 205.581 61.2656C204.835 55.0379 205.124 48.7062 205.124 42.4372C205.124 35.6774 204.877 28.8581 205.349 22.1223C205.623 18.2181 206.543 14.5228 207.441 10.7261C207.707 9.60229 207.709 7.54889 208.722 6.80293C209.706 6.07795 211.633 6.14269 212.811 5.92262C216.339 5.26345 219.927 4.76406 223.474 4.21673C232.322 2.85135 241.177 1.44466 250.007 -0.0346641C253.876 -0.682915 258.465 -2.20442 262.38 -2.0491ZM291.418 83.5625C284.763 84.7969 277.11 83.8102 270.341 83.8102C268.357 83.8102 266.07 83.4341 264.141 83.8102C263.984 81.4524 266.622 78.1277 267.514 75.8825C269.554 70.7455 270.768 65.5145 271.29 60.0269C272.047 52.0841 271.333 43.7299 271.333 35.7481C271.333 28.9454 272.054 21.6345 270.672 14.9377C269.9 11.1993 268.825 7.48593 267.171 4.03703C266.201 2.01548 264.45 -0.0146598 263.894 -2.15653H283.731C285.379 -2.15653 289.672 -2.92683 290.99 -1.90191C292.105 -1.03496 292.098 2.22691 292.361 3.54155C293.451 8.98876 294.509 14.5821 294.646 20.1403C294.957 32.7933 295.735 45.8904 294.868 58.5405C294.294 66.9162 291.777 75.2219 291.418 83.5625ZM75.4336 -1.16557C72.8094 5.99558 67.5996 12.059 65.7726 19.6448C64.4408 25.1748 65.2668 31.5734 65.2668 37.2346C65.2668 45.7366 63.9085 55.5343 66.3673 63.7431C68.4427 70.6718 72.9326 76.2882 75.6817 82.8193C69.2311 81.9472 62.2763 78.7171 56.0917 76.6444C43.4267 72.3998 30.5879 68.6687 17.9038 64.4861C12.3824 62.6654 6.84988 60.8726 1.28959 59.1759C-0.99417 58.479 -3.28671 57.4033 -5.65372 57.054V42.4372C-4.22487 42.4994 -1.72321 43.8768 -0.45602 43.2268C2.90777 41.5014 3.38068 36.4082 -0.703967 35.1775C-1.97443 34.7947 -4.17956 35.8519 -5.40569 36.2436L-5.65372 26.8294L-5.07889 23.5726L2.03351 21.254L18.8957 16.0713L58.5715 3.85848L75.4336 -1.16557ZM74.9377 1.06411C74.4994 5.46242 72.6852 9.73887 72.2521 14.1945C71.6132 20.7685 72.1201 27.418 71.9584 34.0139C71.7045 44.3697 70.7399 55.1566 71.7561 65.4773C72.2654 70.6488 74.0311 75.5581 75.1857 80.5896H74.9377C70.9842 74.1359 67.0662 66.8334 65.8432 59.2837C64.6623 51.9935 65.7627 43.6358 65.7627 36.2436C65.7627 31.5827 65.1789 26.4875 65.8371 21.8745C66.4861 17.3264 68.741 13.1049 70.6458 8.99188C71.8475 6.39718 73.108 3.27032 74.9377 1.06411ZM326.383 10.4783H311.256L316.712 4.78025L318.944 3.27431L321.175 5.028L326.383 10.4783ZM241.328 3.64667C233.555 4.6663 225.887 6.1318 218.266 8.03226C216.372 8.5047 211.888 8.69122 210.544 10.1314C209.78 10.949 209.704 12.8841 209.488 13.9467C208.841 17.1343 208.101 20.3368 208.1 23.6087V57.3017C208.1 60.715 208.628 64.1037 209.234 67.4592C209.42 68.487 209.397 70.4555 210.229 71.1916C211.02 71.8909 212.562 71.9615 213.555 72.1671C216.042 72.6818 218.518 73.3023 220.994 73.8711C229.762 75.8853 238.515 77.6167 247.527 77.6167C249.826 77.6167 252.438 77.9651 254.704 77.5799C256.391 77.2931 255.462 73.4287 255.462 72.1663V54.8243V16.4242C255.462 13.2887 255.393 10.1445 255.462 7.00994C255.482 6.16575 256.03 4.43312 255.269 3.79617C254.503 3.15527 252.435 3.54154 251.491 3.54154C248.159 3.54154 244.629 3.21316 241.324 3.64667M206.856 6.7622L203.89 22.1222L203.88 43.6759L203.923 59.0359L206.856 74.8915L197.433 74.3862L179.331 73.8996L142.631 73.6625L114.858 75.1392L112.897 61.2656L112.874 43.1804L112.884 20.6358L114.858 6.7622L146.847 7.99728L183.299 7.50906L206.856 6.7622ZM-51.7803 8.99188V10.2306H-52.0282L-51.7803 8.99188ZM-50.2925 10.7261L-50.2925 70.9276H-51.7803L-52.0282 10.7261H-50.2925ZM-49.2219 10.8767C-47.5623 10.0953 -47.5652 12.2208 -47.5647 13.2035V22.8655L-47.5647 59.2837V67.9547C-47.5647 68.7397 -47.266 70.3156 -48.1393 70.7425C-49.6762 71.4938 -49.7945 69.6881 -49.7965 68.6979V60.0269L-49.7965 23.8565V14.1945C-49.7965 13.3487 -50.1714 11.3238 -49.2219 10.8767ZM-47.0688 70.9276L-47.0688 10.7261L-45.0919 11.1233L-44.837 14.1945V21.8745V58.2927L-44.837 67.2115L-45.0919 70.5304L-47.0688 70.9276ZM-39.8776 10.7261V18.4061C-43.2758 19.7501 -42.6052 24.1271 -42.6052 27.0771V52.8424C-42.6052 55.9486 -43.749 61.2633 -39.6295 62.0089L-39.3816 70.6799C-40.3146 70.9554 -43.3909 71.4363 -44.0899 70.5277C-44.6599 69.7866 -44.3411 68.0941 -44.3411 67.2115V58.7882L-44.3411 22.37V13.9467C-44.3411 13.1661 -44.6427 11.534 -43.9435 10.9807C-43.0981 10.3118 -40.9109 10.7261 -39.8776 10.7261ZM315.716 11.4693C316.713 14.837 315.965 19.3527 315.965 22.8655C312.896 22.9018 313.981 27.0142 313.981 29.3068V50.6127C313.981 52.9975 312.781 58.0073 315.965 58.045V70.1844L310.907 69.9297L310.509 66.2205V55.8153V11.7171L315.716 11.4693ZM323.9 11.4693V25.5907V54.0811L324.148 69.9366L316.46 70.1844V58.045C319.147 57.8402 318.196 53.5876 318.196 51.6037V30.2978C318.196 28.2192 319.254 23.0784 316.46 22.8655V14.69L316.858 11.7239L323.9 11.4693ZM327.123 11.4693L327.371 17.9106V30.05V70.1844H324.644V25.3429V15.4332L324.898 11.8667L327.123 11.4693ZM135.192 19.5022C132.047 19.9198 129.149 20.8907 127.513 23.8565C126.163 26.3052 126.513 29.0903 126.513 31.7842V46.6488C126.513 50.4303 125.583 55.5291 127.911 58.7882C131.032 63.1574 136.686 62.5043 141.391 62.5043C143.338 62.5043 145.413 62.7055 147.342 62.43C158.117 60.892 155.526 48.6844 155.526 40.703C155.526 35.9773 156.893 28.6836 154.841 24.3519C151.806 17.9458 141.103 18.7173 135.192 19.5022ZM135.192 19.9633C140.83 19.2896 151.15 18.404 154.157 24.3519C156.393 28.773 155.03 36.0952 155.03 40.9507C155.03 47.4356 157.555 60.489 148.334 61.7164C142.706 62.4655 131.839 63.7777 128.306 58.2506C126.258 55.045 127.009 50.5173 127.009 46.8965V33.5184C127.009 26.9493 127.238 20.9137 135.192 19.9633ZM317.7 23.6087V57.3017L314.725 57.5495L314.477 46.6488V23.6087H317.7ZM-58.2906 25.8455C-59.4263 26.7711 -57.698 28.4209 -56.6041 27.4229C-55.4847 26.4016 -57.3246 25.0583 -58.2906 25.8455ZM332.14 25.7784C330.702 26.3997 331.975 28.3978 333.286 27.7527C334.76 27.0273 333.507 25.1876 332.14 25.7784ZM186.77 34.2617C188.038 36.862 191.801 39.122 193.962 41.0214C194.994 41.9292 195.796 42.9003 197.185 43.1804L190.843 37.4814L186.77 34.2617ZM-5.16124 41.1985V37.2346C-3.89256 36.944 -1.92645 35.9151 -0.701362 36.6506C1.49254 37.9677 1.60263 41.2468 -1.19734 41.9969C-2.36522 42.3098 -4.0191 41.46 -5.16124 41.1985ZM-57.4827 53.5774C-58.9072 53.6652 -58.9645 55.7419 -57.4827 55.7419C-55.8996 55.7419 -55.8466 53.4765 -57.4827 53.5774ZM332.139 53.7733C330.671 54.4052 331.925 56.4114 333.286 55.7256C334.754 54.9863 333.496 53.1894 332.139 53.7733ZM-4.66527 57.5495L5.0057 60.7772L23.3557 66.6527L74.6862 83.067V83.3147H21.372H6.74149C5.12413 83.3147 2.10218 83.9014 0.649673 83.1652C-0.506751 82.5792 -0.550866 78.5699 -0.759685 77.3689C-1.64949 72.2526 -2.71396 67.1488 -3.45796 62.0089C-3.65978 60.6144 -5.02049 58.8473 -4.66527 57.5495ZM326.875 71.1753C325.752 73.5809 323.025 75.2765 321.172 77.1212C320.609 77.6816 319.819 78.7857 318.941 78.8078C318.031 78.8307 317.18 77.6419 316.597 77.069C314.898 75.3995 311.743 73.4697 311.005 71.1753H326.875ZM-39.6295 71.4231L-39.3816 83.5625C-42.7525 84.5579 -47.2723 83.8102 -50.7884 83.8102V83.5625H-39.8776C-39.8776 80.1466 -40.9461 74.5575 -39.6295 71.4231ZM311.005 72.1663C313.293 74.4521 317.069 76.9003 318.444 79.8463L310.757 86.7831L310.509 76.1302L311.005 72.1663ZM327.371 72.1663V87.0309C325.087 85.9668 320.127 81.561 319.436 79.1031L327.371 72.1663ZM-67.1537 75.7974C-70.2335 76.7372 -69.9594 85.6253 -65.4199 84.2465C-62.3076 83.3011 -62.7341 74.4487 -67.1537 75.7974ZM341.011 76.0664C338.071 77.205 338.667 85.9457 343.237 84.3418C346.14 83.3231 345.654 74.2679 341.011 76.0664ZM-65.6716 76.3628C-63.529 76.7886 -63.2996 84.4319 -66.8957 83.7535C-69.188 83.321 -69.2177 75.6582 -65.6716 76.3628ZM341.272 76.5054C345.176 75.2452 345.288 83.1299 342.979 83.8551C339.237 85.0307 339.312 77.1384 341.272 76.5054ZM-3.92135 115.274V115.521L7.98138 116.512C6.77021 118.638 6.02874 123.884 3.94569 125.176C2.87645 125.84 1.20486 125.244 0.0462028 125.193C-2.88224 125.065 -7.98956 124.301 -10.5934 125.779C-13.3096 127.32 -12.5522 131.751 -12.9229 134.35C-13.1081 135.649 -13.5177 136.826 -12.6305 137.991C-11.4351 139.56 -8.73236 139.902 -6.89703 140.048L-3.51115 146.737L-1.85682 148.817L3.51786 148.967H16.4125C18.3429 133.786 29.9546 122.063 45.9213 124.549C53.7971 125.775 60.3053 130.189 63.9964 137.323C65.4423 140.117 66.2818 142.942 66.9694 145.994C67.1627 146.851 67.0259 148.575 68.0476 148.888C71.5765 149.969 76.9356 148.967 80.6376 148.967H108.907L202.145 148.967C203.614 141.852 206.569 135.121 212.064 130.18C220.246 122.824 233.995 122.03 242.387 129.523C246.334 133.047 249.022 137.389 250.945 142.278C251.472 143.618 252.035 148.203 253.305 148.817C255.398 149.83 259.407 148.827 261.658 148.729C268.228 148.441 274.98 149.555 281.496 148.925C283.898 148.692 285.724 147.83 286.699 145.498C287.243 144.197 287.356 142.433 288.352 141.365C289.857 139.752 292.18 140.488 293.509 138.066C294.99 135.365 294.759 129.572 292.146 127.571C289.703 125.701 285.471 125.245 282.488 125.183L283.976 114.035L291.663 115.026C295.709 107.809 282.546 105.482 278.025 104.459C272.979 103.319 267.541 103.014 262.65 101.291C246.702 95.6728 231.959 86.0194 215.287 82.5708C194.866 78.3465 174.501 78.328 153.79 78.3599C142.212 78.3777 129.278 77.4793 118.082 80.9453C114.902 81.9296 111.903 83.8553 108.907 85.2906C102.604 88.31 96.2433 91.2781 90.0606 94.537C83.8097 97.8318 77.9259 101.237 70.9666 102.781C46.4552 108.22 18.8872 102.793 -3.92135 115.274ZM150.318 125.679L141.639 125.431H125.521H73.6944C73.6944 119.722 74.2104 114.086 75.8209 108.585C76.43 106.504 77.0031 103.933 78.3974 102.211C79.3267 101.064 81.3314 100.515 82.6214 99.8495C85.6882 98.268 88.709 96.5986 91.7964 95.0573C97.0786 92.4203 102.388 89.8493 107.667 87.2121C111.181 85.4567 114.824 83.2283 118.578 82.0483C122.2 80.9096 125.994 80.6555 129.736 80.2998C135.532 79.7488 141.276 79.7371 147.095 79.595C148.564 79.5591 152.156 78.6042 153.392 79.6063C154.057 80.1452 153.571 81.5958 153.545 82.3238C153.448 84.966 153.172 87.6111 153.056 90.2516C152.702 98.3135 151.621 106.256 150.856 114.283C150.512 117.891 151.343 122.215 150.318 125.679ZM152.054 125.679C151.349 122.719 152.074 119.268 152.28 116.265C152.827 108.285 154.234 100.236 154.286 92.2335C154.306 89.1525 154.491 85.881 154.853 82.8193C154.946 82.0252 154.771 80.4162 155.285 79.7825C155.863 79.0687 157.449 79.3509 158.253 79.3509H166.188C171.923 79.3509 177.587 79.5867 183.299 79.8366C186.229 79.9648 190.199 79.5585 192.97 80.5445C195.354 81.3929 197.525 83.5443 199.417 85.1549C206.624 91.289 213.404 98.4485 218.969 106.107C220.893 108.754 223.976 113.271 221.608 116.509C219.494 119.4 214.629 120.723 211.568 122.401C210.021 123.249 208.528 125.02 206.853 125.51C205.605 125.874 203.941 125.431 202.641 125.431H192.474H165.445C161.207 125.431 156.18 124.697 152.054 125.679ZM327.371 89.0129L321.668 91.5895L318.196 90.5783L310.757 87.7741C312.234 85.6799 314.407 84.1262 316.212 82.3238C316.846 81.6909 317.733 80.4354 318.692 80.3223C319.637 80.2109 320.538 81.4347 321.149 82.0017C323.093 83.8055 326.952 86.2996 327.371 89.0129ZM81.6295 104.373H149.574L151.558 80.8373C141.889 80.8373 131.493 80.4236 122.049 82.7933C113.498 84.939 104.959 89.9747 97.2519 94.139C93.4802 96.1769 89.6857 98.1831 86.0931 100.532C84.5009 101.573 82.5623 102.665 81.6295 104.373ZM290.919 113.787C289.18 113.567 284.554 112.109 283.063 113.054C282.183 113.612 282.312 115.593 282.202 116.512C281.834 119.571 281.387 122.623 281 125.679H259.179C255.821 125.679 251.756 126.307 248.474 125.584C245.934 125.025 243.348 122.351 240.829 121.332C234.254 118.671 226.351 118.21 219.503 119.981C220.647 117.965 223.171 117.434 223.637 114.778C224.37 110.6 220.653 106.39 218.264 103.382C214.287 98.3765 210.072 93.3877 205.359 89.0513C202.704 86.6085 197.993 83.8974 196.193 80.8373C213.063 81.1853 228.363 87.9164 243.556 94.4313C251.604 97.8822 259.438 102.106 268.106 103.726C274.082 104.843 280.232 105.736 285.96 107.855C288.818 108.912 291.311 110.473 290.919 113.787ZM156.022 104.373H212.808C212.16 101.122 208.637 97.7355 206.608 95.2064C202.763 90.412 198.117 84.5954 192.226 82.2645C186.274 79.9097 178.176 81.0851 171.892 81.0851C168.5 81.0851 165.108 81.3264 161.729 81.2055C160.624 81.166 158.333 80.6101 157.411 81.3397C156.53 82.0371 156.797 86.1439 156.769 87.2787C156.627 92.9823 156.022 98.6586 156.022 104.373ZM-58.1488 81.8354C-59.405 82.6737 -57.9615 84.2435 -56.7777 83.5545C-55.3442 82.7201 -56.9198 81.0152 -58.1488 81.8354ZM332.12 81.8398C330.625 82.6642 332.183 84.5112 333.492 83.6933C334.795 82.8792 333.333 81.1707 332.12 81.8398ZM200.905 82.8194C202.034 84.7486 204.478 86.2594 206.112 87.7803C210.189 91.5755 214.321 95.3214 218.511 98.9932C220.398 100.647 222.76 103.496 225.206 104.247C228.505 105.26 232.702 104.621 236.117 104.621H257.939C256.783 103.277 254.794 102.617 253.227 101.829C250.566 100.49 247.913 99.0806 245.292 97.664C235.9 92.5888 226.295 88.664 216.031 85.7575C211.135 84.3709 206.017 82.8194 200.905 82.8194ZM-51.7803 88.5174C-51.7803 87.5684 -52.2081 85.2136 -51.3827 84.5604C-50.7754 84.0799 -49.5263 84.3058 -48.8046 84.3058H-42.3573C-41.6494 84.3058 -40.3715 84.0745 -39.7829 84.5604C-38.9805 85.2228 -39.9072 86.6963 -40.4292 87.2258C-41.9791 88.7979 -44.5602 88.5174 -46.5729 88.5174H-51.7803ZM76.67 102.639C74.4441 108.059 73.2159 113.428 72.5253 119.238C72.2744 121.347 72.6055 123.636 72.2065 125.679C69.1374 124.949 65.4506 126.369 62.5355 125.466C60.3631 124.794 58.4496 122.693 56.3362 121.722C50.8963 119.224 44.9364 118.357 38.978 118.764C34.7726 119.052 30.3078 120.008 26.5794 122.04C24.6718 123.08 22.8915 125.027 20.876 125.746C19.4309 126.262 17.4347 125.927 15.9165 125.927H5.74962L9.46922 115.026L0.542176 114.778L5.25365 112.584L19.3881 109.266L54.8484 106.065L68.4869 104.469L76.67 102.639ZM135.118 114.042C134.134 114.785 134.341 116.874 135.473 117.354C137.384 118.164 140.811 117.503 142.879 117.503C143.612 117.503 144.808 117.72 145.432 117.249C146.416 116.506 146.209 114.416 145.078 113.937C143.167 113.127 139.74 113.787 137.672 113.787C136.939 113.787 135.742 113.571 135.118 114.042ZM203.987 114.042C203.007 114.706 203.072 116.855 204.185 117.354C206.094 118.209 209.729 117.503 211.816 117.503C212.527 117.503 213.567 117.676 214.188 117.249C215.106 116.618 215.037 114.408 213.991 113.937C212.087 113.079 208.443 113.787 206.36 113.787C205.645 113.787 204.613 113.617 203.987 114.042ZM54.8484 114.035C54.697 114.85 54.3901 115.927 54.893 116.682C55.4892 117.577 58.8554 117.599 59.6585 116.964C61.883 115.204 58.6099 114.035 57.3284 114.035H54.8484ZM70.719 139.057C69.5745 139.057 67.3841 139.48 66.4134 138.803C65.2009 137.956 64.4265 135.359 63.6031 134.102C61.9275 131.546 59.6515 129.146 57.0804 127.473C47.973 121.548 34.2622 121.394 25.5878 128.284C21.8464 131.256 19.5475 135.138 17.4046 139.305L13.4371 139.057C15.611 131.404 20.75 125.091 28.0675 121.792C43.3248 114.916 66.5706 121.151 70.719 139.057ZM256.699 139.057C255.21 139.057 252.698 139.545 251.341 138.908C250.376 138.455 249.809 136.711 249.294 135.836C248.189 133.959 246.81 132.192 245.289 130.634C241.102 126.346 235.566 123.231 229.422 123.202C222.353 123.168 216.257 124.834 210.846 129.578C208.962 131.23 207.344 133.225 206.011 135.341C205.379 136.343 204.805 138.154 203.784 138.803C202.786 139.436 200.81 139.057 199.665 139.057C200.273 136.502 201.862 134.041 203.302 131.873C215.799 113.064 250.471 115.836 256.699 139.057ZM41.7061 126.074C36.2167 126.272 30.5667 128.207 26.622 132.162C19.1488 139.655 20.448 151.92 29.0594 157.942C33.6825 161.176 38.9033 162.082 44.4338 161.84C47.0728 161.724 49.7373 160.89 52.1209 159.791C54.3042 158.784 56.39 157.326 58.009 155.547C59.5037 153.905 60.7536 152.025 61.5879 149.958C66.7644 137.132 54.0899 125.627 41.7061 126.074ZM73.9426 139.057H71.2149C69.9836 133.742 66.276 130.424 63.2798 126.175L69.7271 126.171L72.0572 126.191L72.5977 129.395L73.9426 139.057ZM150.318 125.927L152.054 139.057L75.1825 139.057L73.6946 126.174H124.777H141.143L150.318 125.927ZM206.36 126.422C203.725 128.719 201.83 131.802 200.181 134.845C199.626 135.869 198.907 138.397 197.832 138.908C195.501 140.015 190.597 139.057 188.01 139.057H163.957H156.518C155.743 139.057 154.342 139.316 153.692 138.802C153.057 138.301 153.083 136.59 152.951 135.836C152.437 132.912 151.56 128.847 152.054 125.927L165.445 126.174H191.978L201.897 126.174L206.36 126.422ZM224.711 126.281C221.529 126.736 218.54 127.679 215.783 129.352C206.452 135.015 204.136 147.58 211.838 155.652C216.579 160.621 224.19 162.732 230.91 161.775C233.824 161.36 236.829 160.406 239.341 158.861C241.464 157.554 243.314 155.912 244.821 153.922C245.996 152.372 246.948 150.582 247.514 148.719C251.67 135.064 237.322 124.477 224.711 126.281ZM257.195 139.057C255.923 133.707 252.017 130.437 249.012 126.175C259.344 126.175 269.677 126.125 280.009 126.175C283.161 126.19 289.562 126.304 291.731 128.994C293.37 131.027 293.952 138.143 290.67 138.979C287.512 139.783 283.271 139.057 280.009 139.057H257.195ZM20.1324 126.422C17.7488 130.23 13.1565 134.132 13.1891 139.057H-1.44134C-4.20032 139.057 -7.51248 139.333 -10.1195 138.262C-10.8117 137.978 -11.5233 137.559 -11.7485 136.802C-12.0614 135.749 -11.5824 134.642 -11.4347 133.607C-11.1309 131.477 -12.0036 128.286 -9.85888 126.854C-7.97943 125.599 -3.64543 126.422 -1.44134 126.422H20.1324ZM17.1567 139.553L15.1729 147.728H3.27013C2.02466 147.728 -0.260515 148.164 -1.34456 147.474C-3.24088 146.266 -4.80907 141.774 -5.90486 139.801L1.78229 139.553H17.1567ZM77.4142 147.728H68.4872L66.7514 139.553C68.4568 139.553 72.4027 138.816 73.8161 139.807C74.5037 140.29 74.685 141.531 74.9345 142.278C75.5838 144.222 76.6403 145.865 77.4142 147.728ZM153.542 147.728L94.2765 147.728H83.8616C82.5457 147.728 80.6017 148.082 79.399 147.474C77.0222 146.272 75.7858 142.014 75.6785 139.553H134.448H147.095L151.908 139.807L152.583 142.03L153.542 147.728ZM197.681 139.553C197.428 141.242 196.189 146.465 194.792 147.474C194.058 148.004 192.587 147.728 191.73 147.728H184.291H155.03L153.542 139.801C157.671 138.581 163.365 139.553 167.677 139.553H197.681ZM203.633 139.801L200.765 147.474L196.442 147.728C197.064 143.574 198.588 138.311 203.633 139.801ZM287.944 139.553C286.799 141.589 285.92 145.725 283.966 147.052C281.839 148.496 277.739 147.728 275.297 147.728H253.971L251.492 139.801C254.931 138.785 259.56 139.553 263.146 139.553H287.944Z" fill="#304A6E"/>
</svg>
