<svg width="72" height="81" viewBox="0 0 72 81" fill="none" xmlns="http://www.w3.org/2000/svg">
<rect width="72" height="81" fill="#1A1E26"/>
<rect x="-786" y="-434" width="980" height="753" rx="4" fill="white"/>
<path d="M-176.027 0.188557C-180.937 1.17049 -185.408 2.56311 -189.127 6.1124C-196.166 12.8283 -196.021 24.2475 -188.673 30.7097C-183.361 35.3809 -175.925 37.0001 -169.084 35.6249C-165.975 35 -162.92 33.7668 -160.404 31.8182C-158.556 30.3858 -156.963 28.8568 -155.776 26.8175C-148.982 15.1474 -157.628 2.57353 -170.075 0.52078C-172.049 0.195298 -174.013 -0.214191 -176.027 0.188557ZM9.20941 0.23709C3.45548 1.67945 -1.78542 3.23252 -5.54155 8.23675C-11.6619 16.3907 -8.80016 27.3981 -0.461556 32.7409C4.75147 36.0812 11.4651 36.8764 17.3925 35.3956C25.3828 33.3993 32.4542 26.5854 32.239 17.8987C32.0089 8.61445 24.2527 2.18688 15.6567 0.576603C13.56 0.183815 11.3399 -0.296987 9.20941 0.23709ZM-211.487 36.7272L-208.015 45.8937L-215.951 46.367L-219.918 46.8846C-195.691 58.7039 -168.551 53.6895 -143.046 59.7386C-137.941 60.9495 -133.508 63.5925 -128.912 66.0151C-122.064 69.6251 -115.049 72.961 -108.082 76.3316C-104.866 77.8876 -101.576 79.9832 -98.1632 81.0508C-86.6831 84.6417 -73.3516 83.7983 -61.4631 83.7983C-46.5343 83.7983 -31.9201 83.5889 -17.0758 82.106C-8.65999 81.2653 0.275912 80.0763 8.21749 77.0617C21.2618 72.11 33.6587 65.1002 46.9014 60.7309C52.2479 58.9669 58.0497 58.6145 63.5156 57.3185C68.9449 56.0311 77.8449 54.4228 75.9143 47.1324L67.9791 48.1233C67.3407 45.5349 67.2252 42.829 66.8436 40.1956C66.7232 39.3653 66.2061 37.8403 66.8897 37.1588C67.9 36.1518 71.2711 36.404 72.6905 35.983C77.5215 34.5498 79.6896 29.6626 77.8658 24.8355C77.4279 23.6767 76.5554 22.349 75.395 21.814C74.2235 21.2739 72.8193 21.5791 72.0491 20.3492C70.8383 18.4156 71.0304 15.926 69.1469 14.3781C67.1447 12.7328 64.1878 13.1916 61.7796 13.1916L44.6694 13.1916C42.696 13.1916 39.0925 12.4905 37.3054 13.3411C36.0316 13.9474 35.4629 18.5356 34.9509 19.8807C33.2132 24.4451 30.469 28.9393 26.8153 32.2255C18.0869 40.0765 4.03114 39.3655 -4.42932 31.5024C-9.59979 26.6969 -12.4477 19.9941 -13.8523 13.1916L-107.09 13.1916L-135.359 13.1916C-139.061 13.1916 -144.42 12.1896 -147.949 13.2704C-148.976 13.5848 -148.867 15.3013 -149.019 16.1645C-149.521 19.0188 -150.494 21.7588 -151.787 24.34C-155.176 31.1071 -161.303 36.0136 -168.836 37.3555C-185.227 40.2755 -197.532 29.0678 -199.584 13.1916H-212.727C-214.17 13.1916 -216.854 12.679 -218.117 13.4462C-220.386 14.8238 -221.211 19.2719 -222.854 21.334C-224.154 22.9655 -226.896 22.3534 -228.456 23.8868C-229.638 25.0478 -229.042 26.3965 -228.888 27.8084C-228.597 30.4929 -229.236 34.5932 -226.61 36.2965C-225.276 37.1615 -223.415 36.9749 -221.902 36.9749C-218.422 36.9749 -214.973 36.7272 -211.487 36.7272ZM-200.824 14.4303L-198.841 22.6058L-221.654 22.3581C-221.044 20.4318 -218.947 15.5017 -217.138 14.5127C-215.934 13.8548 -213.584 14.1826 -212.231 14.1826C-208.418 14.1826 -204.625 14.4303 -200.824 14.4303ZM-138.583 14.1826L-141.098 19.8807L-142.181 22.3326L-149.246 22.6058L-147.51 14.4303L-138.583 14.1826ZM-62.4551 14.1826L-63.943 22.6058C-83.2161 21.3151 -102.892 22.3581 -122.217 22.3581C-126.798 22.3581 -131.554 21.9988 -136.103 22.5351C-136.999 22.6406 -139.991 23.0866 -140.194 21.806C-140.332 20.9384 -139.721 19.7025 -139.447 18.8897C-138.968 17.4704 -138.227 15.4413 -136.825 14.6849C-135.751 14.106 -133.6 14.198 -132.384 14.1835C-129.161 14.1453 -125.936 14.1828 -122.713 14.1828L-82.293 14.1828C-75.7602 14.1828 -68.9543 14.7574 -62.4551 14.1826ZM-18.3158 22.606L-38.6497 22.3583L-62.2071 22.606L-62.4551 22.3583L-60.9673 14.4305C-51.4843 14.4298 -41.9544 14.1828 -32.4503 14.1828C-29.5723 14.1828 -23.9103 13.1009 -21.3604 14.5406C-19.8631 15.386 -18.4852 20.9521 -18.3158 22.606ZM-14.8442 14.4305L-12.6124 22.606H-16.58L-19.5557 14.4305H-14.8442ZM71.9465 22.3583H64.0114H46.9012H35.4944L37.9742 14.4305H59.2999C61.758 14.4305 65.7826 13.6724 67.9556 14.995C70.2402 16.3856 70.2042 20.3425 71.9465 22.3583ZM-202.808 23.1015C-202.343 28.4254 -197.991 31.3535 -195.865 35.7364C-203.15 35.7364 -210.434 35.7247 -217.687 35.7364C-219.89 35.7401 -224.182 36.5475 -226.049 35.2188C-227.911 33.8933 -227.195 30.4674 -227.401 28.5519C-227.506 27.5709 -227.955 26.5812 -227.793 25.5828C-227.659 24.7574 -227.094 24.2697 -226.362 23.9348C-223.112 22.4483 -219.129 23.064 -215.703 23.1006C-211.548 23.1449 -206.883 22.43 -202.808 23.1015ZM-145.278 23.1013C-149.541 41.0733 -173.436 47.5577 -188.674 39.995C-195.756 36.4799 -200.158 30.4776 -202.56 23.1013C-197.415 21.84 -196.582 27.259 -193.775 30.5336C-190.392 34.4795 -185.845 37.2277 -180.739 38.2966C-172.817 39.9546 -163.861 38.629 -157.429 33.5056C-155.152 31.6917 -153.326 29.5271 -151.782 27.0652C-151.102 25.9796 -150.501 23.8442 -149.391 23.1583C-148.448 22.5754 -146.286 22.8166 -145.278 23.1013ZM-142.055 22.8536L-143.79 36.2317C-146.365 35.6195 -150.143 35.6195 -152.717 36.2317L-148.608 31.0291L-144.534 22.8536H-142.055ZM-65.4308 35.984L-142.303 35.984L-141.311 26.5697L-140.244 23.1403L-135.359 23.0792L-124.201 23.1013L-81.549 23.1013H-68.9024L-64.3494 23.1214L-64.368 26.322L-65.4308 35.984ZM-9.88441 35.984H-63.9427L-63.0118 26.322L-62.3052 23.1591L-59.4792 23.0979L-52.2879 23.1016L-27.4906 23.1016L-21.2912 23.0804L-18.1712 23.1298L-15.7743 27.3133L-9.88441 35.984ZM40.7022 23.1017C34.3137 46.4855 -1.12675 49.1597 -13.1549 29.543C-14.3682 27.5642 -15.7868 25.3738 -16.3318 23.1017C-15.1637 23.0096 -13.5011 22.4696 -12.417 23.1083C-11.3452 23.7401 -10.7791 25.5569 -10.1129 26.5699C-8.70569 28.7094 -7.07642 30.7559 -5.17295 32.4736C-0.0710656 37.0778 6.35471 39.1203 13.1771 38.9534C19.4989 38.7987 25.2186 35.7296 29.5346 31.2734C31.0298 29.7295 32.3006 27.9183 33.3986 26.0744C33.9207 25.1977 34.2955 23.8964 35.1301 23.2607C36.0174 22.5847 39.6081 22.7903 40.7022 23.1017ZM33.015 35.9841L37.8658 30.0383L41.4461 22.8537C49.1689 24.2862 58.1373 23.1141 65.9955 23.1015C68.3728 23.0978 73.1254 21.8893 75.1598 23.251C77.7432 24.9801 77.5087 31.0672 75.5913 33.2261C74.5732 34.3723 72.6517 34.8334 71.2029 35.1294C65.902 36.2124 60.4624 35.9841 55.0846 35.9841H33.015ZM-143.79 36.4796L-142.426 49.8577L-139.575 59.5197C-157.128 54.8316 -175.493 55.8433 -193.385 53.3584C-198.662 52.6255 -203.907 51.5712 -209.007 50.036C-211.079 49.4125 -213.689 48.9054 -215.454 47.628C-213.032 46.9125 -209.008 46.649 -206.527 47.1325C-206.328 43.8356 -209.301 39.3071 -210.495 36.2318H-200.08C-198.574 36.2318 -196.556 35.8842 -195.121 36.3777C-193.209 37.0348 -191.506 38.935 -189.665 39.8839C-185.248 42.1607 -180.254 43.3564 -175.283 43.4154C-170.13 43.4767 -164.888 42.7466 -160.156 40.614C-157.848 39.5734 -155.802 37.4265 -153.461 36.6254C-150.777 35.7066 -146.627 36.4796 -143.79 36.4796ZM-65.4305 36.4796L-62.2068 82.5597C-73.3744 82.5597 -85.551 83.2623 -96.4272 80.3264C-99.6421 79.4586 -102.634 77.6576 -105.602 76.1851C-110.468 73.7717 -115.371 71.4238 -120.233 68.9951C-124.549 66.8391 -128.934 64.7794 -133.127 62.3882C-134.527 61.5902 -136.786 61.0357 -137.751 59.7022C-142.101 53.6911 -142.302 43.5558 -142.302 36.4796L-65.4305 36.4796ZM-63.5872 36.6291C-62.3981 36.0261 -60.0515 36.4796 -58.7352 36.4796H-46.8325H-21.0432C-17.474 36.4796 -12.561 35.5973 -9.14049 36.6067C-7.25204 37.164 -5.67002 39.0556 -3.93304 39.9994C-0.848673 41.6753 4.43739 43.0051 6.05438 46.3893C7.77722 49.995 4.01462 54.6134 1.98618 57.29C-2.11506 62.7017 -6.82489 67.6117 -11.6202 72.4023C-14.7196 75.4986 -18.3497 79.1163 -22.2831 81.1429C-24.6511 82.3629 -27.8906 81.8614 -30.4663 82.1063C-37.4859 82.7737 -44.4861 82.8075 -51.544 82.8075H-58.2393C-58.9516 82.8072 -60.1995 83.0088 -60.7121 82.3758C-61.461 81.4511 -61.1712 78.5347 -61.2247 77.3571C-61.4189 73.0843 -61.5953 68.7334 -62.001 64.4745C-62.6754 57.3941 -63.9307 50.2951 -63.9427 43.1686C-63.9427 41.8512 -65.0075 37.3493 -63.5872 36.6291ZM66.7394 49.3622L74.9226 48.3712C74.9222 52.2341 72.1527 53.6063 68.7232 54.6671C62.9447 56.4545 57.0248 57.3265 51.1171 58.5296C42.5267 60.2791 34.5647 64.6102 26.5677 68.0855C11.5354 74.6183 -3.41811 80.6076 -20.0514 81.321C-17.631 78.188 -13.409 75.5983 -10.4609 72.8701C-5.78399 68.5419 -1.53719 63.5635 2.43156 58.5897C4.81805 55.5988 9.24468 50.282 7.28311 46.1416C6.48474 44.4562 4.86441 43.567 3.50616 42.4254C4.81785 42.2307 6.14543 42.8073 7.4737 42.8987C11.0671 43.146 14.8202 43.261 18.3846 42.5963C21.8094 41.9576 24.9814 40.7524 28.0555 39.1415C29.4498 38.4109 30.7679 37.0502 32.2711 36.6067C33.9643 36.1071 36.2173 36.4796 37.9745 36.4796H49.6292H60.7881C61.8111 36.4796 64.0116 36.0678 64.8539 36.7342C65.5485 37.2837 65.427 39.3676 65.4995 40.1957C65.7623 43.194 66.0346 46.4385 66.7394 49.3622ZM35.2468 42.3088C32.5054 42.9421 30.9922 46.3196 32.8648 48.6083C34.2316 50.2788 36.4692 50.6456 38.4704 50.0909C41.2259 49.3272 42.4357 45.9206 40.5638 43.71C39.3064 42.225 37.0693 41.8878 35.2468 42.3088ZM-80.2821 44.5913C-81.8131 44.9195 -81.9045 47.6365 -80.5238 48.2217C-78.7986 48.9531 -72.6442 48.9531 -70.919 48.2217C-69.6198 47.671 -69.6065 45.1952 -70.9413 44.6729C-71.74 44.3604 -72.7779 44.6446 -73.6134 44.6542C-75.6674 44.6778 -78.2974 44.1657 -80.2821 44.5913ZM-11.5868 44.5553C-12.9937 44.9847 -13.1081 47.5611 -11.799 48.1873C-9.97963 49.0576 -6.43241 48.3712 -4.42873 48.3712C-3.69932 48.3712 -2.69777 48.5375 -2.01805 48.2217C-0.748847 47.6322 -0.994337 45.1428 -2.22396 44.6668C-3.06854 44.3398 -4.05052 44.6304 -4.92463 44.6515C-6.91216 44.6993 -9.71265 43.9833 -11.5868 44.5553ZM-161.148 44.9028C-161.299 45.7178 -161.606 46.7943 -161.103 47.5492C-160.493 48.466 -157.087 48.4743 -156.338 47.7262C-154.367 45.7568 -157.274 44.9029 -158.668 44.9028H-161.148ZM-15.0913 79.3391C-9.75259 79.2949 -4.29647 77.6248 0.779008 76.0898C10.3786 73.1864 19.1225 69.609 28.0561 65.0338C32.5392 62.738 38.3274 60.766 42.1906 57.5377C38.6215 56.9245 34.6584 57.29 31.0318 57.29C26.2765 57.29 21.3756 56.9574 16.6494 57.466C14.106 57.7397 11.134 56.9863 8.7142 58.0544C6.66001 58.9611 4.92198 60.9896 3.2588 62.4541C-0.0798451 65.394 -3.43605 68.3372 -6.6602 71.4017C-9.23796 73.852 -13.321 76.2508 -15.0913 79.3391ZM-134.367 57.7854C-133.63 59.2387 -131.973 60.1733 -130.647 61.0692C-127.618 63.1158 -124.434 64.9381 -121.224 66.6841C-112.473 71.4448 -102.937 77.0491 -93.2029 79.4691C-89.2331 80.456 -85.1063 80.5506 -81.0523 80.8475C-76.9578 81.1474 -72.7595 81.321 -68.6536 81.321C-67.7191 81.321 -65.3391 81.7466 -64.6931 80.9238C-63.863 79.8665 -64.7556 75.9357 -64.9339 74.632C-65.6988 69.0521 -65.7147 63.3752 -66.4218 57.7854L-134.367 57.7854ZM-60.2225 58.0332C-58.9788 63.2522 -59.4563 69.5139 -59.2208 74.8797C-59.1702 76.029 -59.4778 80.1122 -58.585 80.8187C-57.6365 81.5692 -55.6042 80.8827 -54.5191 80.8353C-51.0301 80.6827 -47.5807 81.0733 -44.1042 81.0733C-37.9496 81.0733 -30.1516 82.0601 -24.2663 79.9864C-17.9183 77.7496 -12.5005 71.2103 -8.64051 65.961C-6.84773 63.5229 -3.96191 60.7646 -3.18853 57.7855L-42.1204 57.7855H-54.0231L-60.2225 58.0332ZM131.461 119.969C130.618 116.433 131.213 112.201 131.213 108.573V86.2759C131.213 83.3128 131.751 79.7525 131.082 76.8617C130.012 72.2364 125.206 73.6075 122.075 72.2528C120.878 71.735 120.789 70.1562 119.31 69.6754C117.786 69.1796 115.555 69.2486 114.103 69.9373C113.229 70.3519 112.398 71.4614 111.375 71.4226C109.308 71.3441 107.519 69.1433 105.424 68.9257C102.855 68.6588 98.5303 71.9615 96.2489 73.0851C95.4099 73.4983 94.0529 73.9066 93.528 74.7287C92.7228 75.9897 93.2732 78.8694 93.2732 80.3301V94.4514V147.964V163.572C93.2732 165.027 92.6824 168.149 93.528 169.377C94.1027 170.211 95.6091 170.392 96.4968 170.734C98.8249 171.632 103.451 174.355 105.92 173.843C107.71 173.473 109.486 171.389 111.304 171.393C112.12 171.394 112.914 172.39 113.607 172.758C115.008 173.502 117.023 173.717 118.566 173.349C120.183 172.965 120.678 171.518 122.049 170.884C125.024 169.508 128.839 169.946 130.648 166.545C132.092 163.829 131.213 159.143 131.213 156.139V132.108C131.213 129.296 130.238 124.313 131.363 121.74C131.836 120.657 133.485 120.96 134.437 120.96C136.129 120.96 138.243 120.622 139.882 121.066C141.09 121.394 141.939 122.677 143.307 121.872C144.584 121.121 143.944 119.374 142.619 119.166C141.623 119.011 140.647 119.772 139.644 119.842C137.021 120.023 133.985 119.421 131.461 119.969ZM-254.634 100.397C-254.634 94.483 -254.527 88.487 -254.382 82.5597C-254.322 80.1091 -253.455 77.1135 -254.88 74.8835C-257.369 70.9893 -263.453 72.3474 -267.277 72.1312C-269.193 72.0229 -270.541 69.572 -272.736 69.256C-274.134 69.0547 -276.012 69.1896 -277.144 70.124C-277.783 70.6519 -277.967 71.6575 -278.743 72.0052C-281.761 73.3581 -285.652 72.1811 -287.501 75.8707C-288.346 77.5562 -287.862 80.2223 -287.862 82.0643V95.6901V144.743V159.608C-287.862 161.641 -288.364 164.45 -287.386 166.297C-285.459 169.935 -281.731 169.163 -278.697 170.763C-276.637 171.849 -275.954 173.674 -273.232 173.407C-270.779 173.166 -269.241 170.963 -267.032 170.771C-263.602 170.473 -259.215 171.644 -256.144 169.647C-252.542 167.303 -254.138 159.157 -254.138 155.396C-254.138 151.663 -253.158 146.368 -254.217 142.798C-254.617 141.447 -256.73 142.021 -257.057 140.28C-257.509 137.876 -257.113 135.049 -257.113 132.604V117.244V104.609C-257.113 102.707 -256.855 100.741 -254.634 100.397ZM103.192 83.0552L94.7611 75.6229V75.1275C98.7542 73.2371 103.609 69.1107 107.904 71.224C109.494 72.0066 111.908 72.573 111.296 74.8575C111.008 75.9364 109.694 76.8355 108.905 77.5592C106.972 79.334 104.911 81.0706 103.192 83.0552ZM-274.967 70.5056C-273.119 70.1246 -270.4 70.676 -269.662 72.651C-269.163 73.9847 -269.512 75.9476 -269.512 77.3571C-269.512 81.0856 -269.878 85.0552 -269.441 88.7533C-268.63 95.6201 -269.264 102.894 -269.264 109.811V149.946C-269.264 153.555 -269.489 157.246 -269.242 160.846C-269.059 163.51 -268.37 167.113 -269.095 169.723C-269.496 171.168 -271.391 171.97 -272.736 172.168C-274.015 172.356 -275.739 172.254 -276.449 170.978C-277.139 169.736 -276.703 167.435 -276.703 166.049V154.157V92.9649V75.8707C-276.703 74.0333 -277.367 71.0005 -274.967 70.5056ZM116.831 70.5142C117.856 70.4513 119.4 70.6467 119.87 71.7059C120.482 73.085 120.054 75.3739 120.054 76.8617V89.0011V150.194V167.04C120.054 169.03 120.558 172.003 117.823 172.228C116.138 172.367 113.82 172.159 112.907 170.485C112.204 169.196 112.615 166.982 112.615 165.554V153.91V92.4695V79.5868C112.615 77.6477 112.248 75.2798 112.719 73.3933C113.183 71.5337 115.048 70.6236 116.831 70.5142ZM-278.191 73.1455V138.302V158.865L-277.943 169.27C-280.627 169.947 -285.396 168.018 -286.347 165.305C-286.927 163.652 -286.622 161.584 -286.622 159.856V149.202V93.9558V80.8254C-286.622 79.0367 -286.917 76.8359 -285.574 75.4217C-283.622 73.3665 -280.69 73.7398 -278.191 73.1455ZM-255.378 77.357L-268.024 77.6047V73.3931C-263.846 73.0637 -256.621 72.0164 -255.378 77.357ZM121.542 169.765L121.294 169.517L121.542 155.644V129.383V93.4603L121.294 73.6409C123.66 72.9909 128.385 73.888 129.475 76.3882C130.109 77.8429 129.723 80.0103 129.725 81.5686V92.7171V149.946C129.725 153.652 129.581 157.391 129.744 161.094C129.828 162.999 130.183 165.196 128.884 166.781C127.217 168.815 123.979 169.293 121.542 169.765ZM94.761 76.1183L102.448 83.3028V83.7983L94.761 90.7351L94.5129 80.8254L94.761 76.1183ZM111.375 76.1183V91.2306C108.492 89.695 105.065 85.9597 103.192 83.3028L111.375 76.1183ZM-243.723 165.801H-235.044V142.761V95.69V82.5596L-235.13 77.7542L-237.028 77.357L-243.358 77.5065L-243.723 82.5596V98.6629V165.801ZM-217.19 77.6047C-218.615 85.1627 -219.403 92.8369 -220.814 100.397C-221.143 102.159 -222.724 103.434 -222.964 105.104C-223.568 109.32 -222.893 114.202 -222.893 118.482C-222.893 124.825 -223.496 131.493 -222.867 137.806C-222.688 139.604 -221.216 140.98 -220.827 142.761C-219.25 149.972 -217.263 158.191 -216.942 165.553H-165.611C-157.214 165.553 -148.427 166.305 -140.07 165.528C-137.202 165.261 -134.272 164.126 -131.433 163.576C-121.364 161.627 -111.364 158.944 -101.243 157.308C-95.3175 156.35 -89.0254 156.639 -83.0359 156.377C-72.7894 155.929 -62.5627 155.594 -52.2872 155.644C-37.9446 155.713 -23.1684 155.562 -8.89185 156.925C9.50159 158.68 27.5299 163.923 45.9103 165.759C55.865 166.753 66.4019 165.801 76.4111 165.801C77.4177 158.013 79.3297 150.348 80.0886 142.513C80.7478 135.708 80.131 128.543 80.131 121.703C80.131 114.268 80.7159 106.547 79.9242 99.1584C79.3621 93.9134 78.5864 88.7256 77.5521 83.5506C77.2635 82.1062 77.265 79.0924 76.1988 78.0081C75.345 77.1397 72.3572 77.6047 71.2039 77.6047H56.8215C35.927 77.6047 14.9725 83.1188 -5.66784 86.1714C-10.7841 86.928 -15.8935 86.8035 -21.0422 87.0287C-32.776 87.542 -44.4869 87.7433 -56.2544 87.7622C-67.3075 87.78 -78.4326 87.7972 -89.4829 87.0411C-93.5861 86.7604 -97.8054 87.0788 -101.882 86.4501C-111.761 84.9262 -121.656 81.8187 -131.39 79.5286C-133.905 78.9369 -136.517 77.9575 -139.078 77.6504C-146.059 76.8131 -153.616 77.6047 -160.651 77.6047C-179.425 77.6047 -198.443 78.4938 -217.19 77.6047ZM-255.377 78.1002L-255.625 80.8254H-255.873V78.3479H-267.776V89.2486L-268.272 80.8254L-267.697 78.1778L-264.056 78.1002H-255.377ZM-235.539 165.306H-243.227V77.8525C-241.581 77.8525 -237.241 77.0749 -235.937 78.1071C-234.98 78.8639 -235.539 82.1816 -235.539 83.3028V99.1584V165.306ZM-283.394 78.2619C-286.255 79.187 -285.845 87.8947 -281.415 86.6292C-278.268 85.7301 -278.604 76.7132 -283.394 78.2619ZM-273.714 78.5787C-275.266 78.9992 -274.532 81.2247 -272.998 80.6711C-271.559 80.152 -272.316 78.2001 -273.714 78.5787ZM124.777 78.5319C123.407 79.0896 123.527 80.5871 123.526 81.8164C123.526 84.301 123.8 88.0869 127.483 86.5873C128.931 85.9979 128.734 84.3369 128.734 83.0551C128.734 80.5467 128.385 77.0628 124.777 78.5319ZM-282.899 78.7033C-279.443 77.7412 -279.432 85.5621 -281.668 86.1674C-285.199 87.1228 -285.171 79.3358 -282.899 78.7033ZM116.143 78.7808C114.683 79.4335 115.995 81.193 117.289 80.6721C118.789 80.0686 117.511 78.1689 116.143 78.7808ZM125.758 78.7226C129.179 78.1421 129.259 85.7643 126.745 86.219C123.196 86.8609 123.268 79.1451 125.758 78.7226ZM-140.319 78.8435V79.0912L-191.153 94.7472L-210.247 100.61L-220.414 103.618C-218.294 98.2022 -217.971 91.5419 -217.158 85.7803C-216.957 84.3561 -216.958 80.0062 -215.801 79.0981C-214.772 78.2902 -211.762 78.8435 -210.495 78.8435H-196.113L-140.319 78.8435ZM46.3796 78.9509C47.7 79.0033 48.6709 81.307 49.225 82.3119C51.3045 86.0831 52.7798 90.0035 53.7019 94.2035C55.7403 103.489 54.8365 113.483 54.8365 122.942C54.8365 130.788 55.6795 139.263 53.9873 146.973C52.9597 151.655 51.5536 156.318 49.3544 160.599C48.6641 161.942 47.9562 164.492 46.1565 164.526C42.3553 164.597 38.2456 163.29 34.5027 162.689C25.1653 161.191 15.8385 159.566 6.48169 158.188C3.16916 157.701 -0.119948 157.094 -3.43724 156.635C-4.44949 156.495 -6.69954 156.486 -7.42033 155.708C-8.17072 154.897 -8.30604 152.977 -8.53948 151.928C-9.24777 148.741 -10.0307 145.506 -10.419 142.266C-11.1653 136.038 -10.8764 129.706 -10.8764 123.437C-10.8764 116.677 -11.1233 109.858 -10.6506 103.122C-10.3767 99.2181 -9.45704 95.5228 -8.55898 91.7261C-8.29318 90.6023 -8.29146 88.5489 -7.27839 87.8029C-6.29374 87.0779 -4.36728 87.1427 -3.18928 86.9226C0.339358 86.2635 3.92655 85.7641 7.47357 85.2167C16.3221 83.8514 25.1772 82.4447 34.0068 80.9653C37.876 80.3171 42.4646 78.7956 46.3796 78.9509ZM75.4184 164.562C68.7629 165.797 61.1102 164.81 54.3406 164.81C52.3566 164.81 50.0704 164.434 48.1412 164.81C47.9836 162.452 50.6218 159.128 51.5136 156.882C53.5539 151.746 54.7676 146.514 55.2904 141.027C56.047 133.084 55.3328 124.73 55.3328 116.748C55.3328 109.945 56.054 102.634 54.6717 95.9377C53.9001 92.1993 52.8247 88.4859 51.1708 85.037C50.2014 83.0155 48.4496 80.9853 47.8936 78.8435H67.7314C69.3793 78.8435 73.6719 78.0732 74.9902 79.0981C76.1054 79.965 76.0979 83.2269 76.361 84.5416C77.4513 89.9888 78.5093 95.5821 78.6459 101.14C78.9569 113.793 79.7353 126.89 78.8681 139.54C78.2939 147.916 75.7769 156.222 75.4184 164.562ZM-140.566 79.8344C-143.191 86.9956 -148.4 93.059 -150.227 100.645C-151.559 106.175 -150.733 112.573 -150.733 118.235C-150.733 126.737 -152.091 136.534 -149.633 144.743C-147.557 151.672 -143.067 157.288 -140.318 163.819C-146.769 162.947 -153.724 159.717 -159.908 157.644C-172.573 153.4 -185.412 149.669 -198.096 145.486C-203.618 143.665 -209.15 141.873 -214.71 140.176C-216.994 139.479 -219.287 138.403 -221.654 138.054V123.437C-220.225 123.499 -217.723 124.877 -216.456 124.227C-213.092 122.501 -212.619 117.408 -216.704 116.178C-217.974 115.795 -220.18 116.852 -221.406 117.244L-221.654 107.829L-221.079 104.573L-213.966 102.254L-197.104 97.0713L-157.429 84.8585L-140.566 79.8344ZM-141.062 82.0641C-141.501 86.4624 -143.315 90.7389 -143.748 95.1945C-144.387 101.768 -143.88 108.418 -144.042 115.014C-144.295 125.37 -145.26 136.157 -144.244 146.477C-143.735 151.649 -141.969 156.558 -140.814 161.59H-141.062C-145.016 155.136 -148.934 147.833 -150.157 140.284C-151.338 132.994 -150.237 124.636 -150.237 117.244C-150.237 112.583 -150.821 107.487 -150.163 102.875C-149.514 98.3264 -147.259 94.1049 -145.354 89.9919C-144.153 87.3972 -142.892 84.2703 -141.062 82.0641ZM110.383 91.4783H95.2565L100.712 85.7803L102.944 84.2743L105.175 86.028L110.383 91.4783ZM25.328 84.6467C17.5553 85.6663 9.88692 87.1318 2.26642 89.0323C0.372024 89.5047 -4.1116 89.6912 -5.45616 91.1314C-6.2195 91.949 -6.29603 93.8841 -6.51177 94.9467C-7.15876 98.1343 -7.89918 101.337 -7.90045 104.609V138.302C-7.90045 141.715 -7.37161 145.104 -6.76583 148.459C-6.5803 149.487 -6.60321 151.456 -5.77069 152.192C-4.97968 152.891 -3.43805 152.962 -2.44506 153.167C0.0417877 153.682 2.5183 154.302 4.99414 154.871C13.7618 156.885 22.5145 158.617 31.5274 158.617C33.826 158.617 36.4384 158.965 38.704 158.58C40.391 158.293 39.4625 154.429 39.4625 153.166V135.824V97.4242C39.4625 94.2887 39.3933 91.1445 39.4625 88.0099C39.4818 87.1657 40.03 85.4331 39.2687 84.7962C38.5026 84.1553 36.4346 84.5415 35.4913 84.5415C32.1593 84.5415 28.6292 84.2132 25.3243 84.6467M-9.14398 87.7622L-12.1099 103.122L-12.1196 124.676L-12.0772 140.036L-9.14362 155.891L-18.5667 155.386L-36.6687 154.9L-73.3688 154.663L-101.142 156.139L-103.103 142.266L-103.126 124.18L-103.116 101.636L-101.142 87.7622L-69.1535 88.9973L-32.7014 88.5091L-9.14398 87.7622ZM-267.78 89.9919V91.2306H-268.028L-267.78 89.9919ZM-266.292 91.7261V151.928H-267.78L-268.028 91.7261H-266.292ZM-265.222 91.8767C-263.562 91.0953 -263.565 93.2208 -263.565 94.2035V103.865V140.284V148.955C-263.565 149.74 -263.266 151.316 -264.139 151.743C-265.676 152.494 -265.794 150.688 -265.796 149.698V141.027V104.856V95.1945C-265.796 94.3487 -266.171 92.3238 -265.222 91.8767ZM-263.069 151.928V91.7261L-261.092 92.1233L-260.837 95.1945V102.875V139.293V148.211L-261.092 151.53L-263.069 151.928ZM-255.878 91.7261V99.4061C-259.276 100.75 -258.605 105.127 -258.605 108.077V133.842C-258.605 136.949 -259.749 142.263 -255.63 143.009L-255.382 151.68C-256.315 151.955 -259.391 152.436 -260.09 151.528C-260.66 150.787 -260.341 149.094 -260.341 148.211V139.788V103.37V94.9467C-260.341 94.1661 -260.643 92.534 -259.943 91.9807C-259.098 91.3118 -256.911 91.7261 -255.878 91.7261ZM99.7165 92.4693C100.713 95.837 99.9645 100.353 99.9645 103.865C96.8959 103.902 97.9807 108.014 97.9807 110.307V131.613C97.9807 133.997 96.7811 139.007 99.9645 139.045V151.184L94.9067 150.93L94.509 147.22V136.815V92.7171L99.7165 92.4693ZM107.9 92.4693V106.591V135.081L108.148 150.937L100.46 151.184V139.045C103.147 138.84 102.196 134.588 102.196 132.604V111.298C102.196 109.219 103.254 104.078 100.46 103.865V95.69L100.858 92.7239L107.9 92.4693ZM111.123 92.4693L111.371 98.9106V111.05V151.184H108.644V106.343V96.4332L108.898 92.8667L111.123 92.4693ZM-80.8082 100.502C-83.953 100.92 -86.8514 101.891 -88.4866 104.856C-89.8367 107.305 -89.4873 110.09 -89.4873 112.784V127.649C-89.4873 131.43 -90.4175 136.529 -88.0892 139.788C-84.9679 144.157 -79.3142 143.504 -74.6089 143.504C-72.6619 143.504 -70.5872 143.705 -68.6575 143.43C-57.8829 141.892 -60.4744 129.684 -60.4744 121.703C-60.4744 116.977 -59.1067 109.684 -61.159 105.352C-64.194 98.9458 -74.8974 99.7173 -80.8082 100.502ZM-80.8082 100.963C-75.1704 100.29 -64.8502 99.404 -61.8428 105.352C-59.6074 109.773 -60.9703 117.095 -60.9703 121.951C-60.9703 128.436 -58.4449 141.489 -67.6656 142.716C-73.2937 143.466 -84.1614 144.778 -87.6937 139.251C-89.7424 136.045 -88.9913 131.517 -88.9913 127.897V114.518C-88.9913 107.949 -88.7617 101.914 -80.8082 100.963ZM101.7 104.609V138.302L98.7247 138.549L98.4767 127.649V104.609H101.7ZM-274.291 106.845C-275.426 107.771 -273.698 109.421 -272.604 108.423C-271.485 107.402 -273.325 106.058 -274.291 106.845ZM116.14 106.778C114.702 107.4 115.975 109.398 117.286 108.753C118.76 108.027 117.507 106.188 116.14 106.778ZM-29.2297 115.262C-27.9615 117.862 -24.199 120.122 -22.0384 122.021C-21.0059 122.929 -20.2045 123.9 -18.8148 124.18L-25.1569 118.481L-29.2297 115.262ZM-221.161 122.198V118.235C-219.893 117.944 -217.926 116.915 -216.701 117.651C-214.507 118.968 -214.397 122.247 -217.197 122.997C-218.365 123.31 -220.019 122.46 -221.161 122.198ZM-273.483 134.577C-274.907 134.665 -274.964 136.742 -273.483 136.742C-271.9 136.742 -271.847 134.476 -273.483 134.577ZM116.139 134.773C114.671 135.405 115.925 137.411 117.286 136.726C118.754 135.986 117.496 134.189 116.139 134.773ZM-220.665 138.549L-210.994 141.777L-192.644 147.653L-141.314 164.067V164.315H-194.628H-209.259C-210.876 164.315 -213.898 164.901 -215.35 164.165C-216.507 163.579 -216.551 159.57 -216.76 158.369C-217.649 153.253 -218.714 148.149 -219.458 143.009C-219.66 141.614 -221.02 139.847 -220.665 138.549ZM110.875 152.175C109.752 154.581 107.025 156.277 105.172 158.121C104.609 158.682 103.819 159.786 102.941 159.808C102.031 159.831 101.18 158.642 100.597 158.069C98.8983 156.399 95.7428 154.47 95.005 152.175H110.875ZM-255.63 152.423L-255.382 164.562C-258.752 165.558 -263.272 164.81 -266.788 164.81V164.562H-255.878C-255.878 161.147 -256.946 155.558 -255.63 152.423ZM95.005 153.166C97.293 155.452 101.069 157.9 102.444 160.846L94.7571 167.783L94.509 157.13L95.005 153.166ZM111.371 153.166V168.031C109.087 166.967 104.127 162.561 103.436 160.103L111.371 153.166ZM-283.154 156.797C-286.234 157.737 -285.959 166.625 -281.42 165.246C-278.308 164.301 -278.734 155.449 -283.154 156.797ZM125.011 157.066C122.071 158.205 122.667 166.946 127.237 165.342C130.14 164.323 129.654 155.268 125.011 157.066ZM-281.672 157.363C-279.529 157.789 -279.3 165.432 -282.896 164.753C-285.188 164.321 -285.218 156.658 -281.672 157.363ZM125.272 157.505C129.176 156.245 129.288 164.13 126.979 164.855C123.237 166.031 123.312 158.138 125.272 157.505ZM-219.921 196.274V196.521L-208.019 197.512C-209.23 199.638 -209.971 204.884 -212.054 206.176C-213.124 206.84 -214.795 206.244 -215.954 206.193C-218.882 206.065 -223.99 205.301 -226.593 206.779C-229.31 208.32 -228.552 212.751 -228.923 215.35C-229.108 216.649 -229.518 217.826 -228.631 218.991C-227.435 220.56 -224.732 220.902 -222.897 221.048L-219.511 227.737L-217.857 229.817L-212.482 229.967H-199.588C-197.657 214.786 -186.045 203.063 -170.079 205.549C-162.203 206.775 -155.695 211.189 -152.004 218.323C-150.558 221.117 -149.718 223.942 -149.031 226.994C-148.837 227.851 -148.974 229.575 -147.952 229.888C-144.424 230.969 -139.064 229.967 -135.362 229.967H-107.093L-13.8553 229.967C-12.3855 222.852 -9.4313 216.121 -3.9364 211.18C4.24598 203.824 17.9947 203.03 26.3872 210.523C30.3343 214.047 33.0224 218.389 34.9451 223.278C35.4724 224.618 36.035 229.203 37.3051 229.817C39.3983 230.83 43.4072 229.827 45.6583 229.729C52.228 229.441 58.9797 230.555 65.4962 229.925C67.8977 229.692 69.7236 228.83 70.6989 226.498C71.2433 225.197 71.3559 223.433 72.3524 222.365C73.8574 220.752 76.1802 221.488 77.5086 219.066C78.9896 216.365 78.7588 210.572 76.1456 208.571C73.7031 206.701 69.471 206.245 66.4881 206.183L67.976 195.035L75.6631 196.026C79.7092 188.809 66.5457 186.482 62.0246 185.459C56.979 184.319 51.541 184.014 46.6502 182.291C30.7015 176.673 15.9591 167.019 -0.712761 163.571C-21.1341 159.347 -41.4993 159.328 -62.2102 159.36C-73.7882 159.378 -86.7224 158.479 -97.9184 161.945C-101.098 162.93 -104.097 164.855 -107.093 166.291C-113.396 169.31 -119.757 172.278 -125.939 175.537C-132.19 178.832 -138.074 182.237 -145.033 183.781C-169.545 189.22 -197.113 183.793 -219.921 196.274ZM-65.6818 206.679L-74.3609 206.431H-90.4791H-142.306C-142.306 200.722 -141.79 195.086 -140.179 189.585C-139.57 187.504 -138.997 184.933 -137.603 183.211C-136.673 182.064 -134.669 181.515 -133.379 180.849C-130.312 179.268 -127.291 177.599 -124.204 176.057C-118.921 173.42 -113.612 170.849 -108.333 168.212C-104.819 166.457 -101.176 164.228 -97.4225 163.048C-93.8004 161.91 -90.0056 161.656 -86.2636 161.3C-80.4684 160.749 -74.7243 160.737 -68.9054 160.595C-67.436 160.559 -63.8438 159.604 -62.6078 160.606C-61.9429 161.145 -62.4289 162.596 -62.4555 163.324C-62.5517 165.966 -62.8284 168.611 -62.9443 171.252C-63.2982 179.314 -64.3787 187.256 -65.1438 195.283C-65.4877 198.891 -64.6569 203.215 -65.6818 206.679ZM-63.946 206.679C-64.6512 203.719 -63.9259 200.268 -63.7202 197.265C-63.1732 189.285 -61.7655 181.236 -61.7141 173.234C-61.694 170.152 -61.5091 166.881 -61.1475 163.819C-61.0537 163.025 -61.2286 161.416 -60.7155 160.783C-60.1374 160.069 -58.5509 160.351 -57.7466 160.351H-49.8115C-44.0772 160.351 -38.4132 160.587 -32.7014 160.837C-29.7713 160.965 -25.8013 160.558 -23.0304 161.544C-20.646 162.393 -18.4752 164.544 -16.5831 166.155C-9.37647 172.289 -2.59586 179.449 2.96911 187.107C4.89252 189.754 7.97646 194.271 5.60811 197.509C3.49352 200.4 -1.37091 201.723 -4.43236 203.401C-5.9792 204.249 -7.47195 206.02 -9.14748 206.51C-10.3945 206.874 -12.0589 206.431 -13.3594 206.431H-23.5263H-50.5554C-54.7927 206.431 -59.8202 205.697 -63.946 206.679ZM111.371 170.013L105.668 172.589L102.196 171.578L94.7571 168.774C96.2336 166.68 98.4069 165.126 100.212 163.324C100.846 162.691 101.733 161.435 102.692 161.322C103.637 161.211 104.538 162.435 105.149 163.002C107.093 164.805 110.952 167.3 111.371 170.013ZM-134.37 185.373H-66.4257L-64.4419 161.837C-74.1106 161.837 -84.5068 161.424 -93.9508 163.793C-102.502 165.939 -111.041 170.975 -118.748 175.139C-122.52 177.177 -126.314 179.183 -129.907 181.532C-131.499 182.573 -133.438 183.665 -134.37 185.373ZM74.9192 194.787C73.1795 194.567 68.5544 193.109 67.0629 194.054C66.1828 194.612 66.3121 196.593 66.2016 197.512C65.8341 200.571 65.3868 203.623 65.0003 206.679H43.1786C39.8212 206.679 35.7556 207.307 32.4736 206.584C29.9342 206.025 27.3483 203.351 24.8286 202.332C18.2544 199.671 10.3508 199.21 3.5028 200.981C4.64681 198.965 7.17078 198.434 7.63684 195.778C8.37005 191.6 4.65327 187.39 2.26365 184.382C-1.7132 179.377 -5.92839 174.388 -10.6414 170.051C-13.2964 167.608 -18.0069 164.897 -19.8067 161.837C-2.93715 162.185 12.3632 168.916 27.5562 175.431C35.604 178.882 43.4378 183.106 52.1056 184.726C58.0817 185.843 64.2322 186.736 69.9597 188.855C72.8176 189.912 75.3106 191.473 74.9192 194.787ZM-59.9784 185.373H-3.19248C-3.83999 182.122 -7.36348 178.736 -9.39178 176.206C-13.237 171.412 -17.883 165.595 -23.7743 163.265C-29.726 160.91 -37.8238 162.085 -44.1081 162.085C-47.5001 162.085 -50.8916 162.326 -54.2714 162.206C-55.3764 162.166 -57.6669 161.61 -58.5889 162.34C-59.4704 163.037 -59.2026 167.144 -59.2309 168.279C-59.3729 173.982 -59.9784 179.659 -59.9784 185.373ZM-274.149 162.835C-275.405 163.674 -273.961 165.244 -272.778 164.554C-271.344 163.72 -272.92 162.015 -274.149 162.835ZM116.12 162.84C114.625 163.664 116.183 165.511 117.492 164.693C118.795 163.879 117.333 162.171 116.12 162.84ZM-15.0952 163.819C-13.9665 165.749 -11.5217 167.259 -9.88777 168.78C-5.81071 172.575 -1.67911 176.321 2.51095 179.993C4.39798 181.647 6.75993 184.496 9.20623 185.247C12.5053 186.26 16.7021 185.621 20.117 185.621H41.9387C40.7828 184.277 38.794 183.617 37.2272 182.829C34.5664 181.49 31.9134 180.081 29.2921 178.664C19.9002 173.589 10.2954 169.664 0.0311595 166.757C-4.8654 165.371 -9.98269 163.819 -15.0952 163.819ZM-267.78 169.517C-267.78 168.568 -268.208 166.214 -267.383 165.56C-266.775 165.08 -265.526 165.306 -264.805 165.306H-258.357C-257.649 165.306 -256.372 165.074 -255.783 165.56C-254.98 166.223 -255.907 167.696 -256.429 168.226C-257.979 169.798 -260.56 169.517 -262.573 169.517H-267.78ZM-139.33 183.639C-141.556 189.059 -142.784 194.428 -143.475 200.238C-143.726 202.347 -143.395 204.636 -143.793 206.679C-146.863 205.949 -150.549 207.369 -153.464 206.466C-155.637 205.794 -157.55 203.693 -159.664 202.722C-165.104 200.224 -171.064 199.357 -177.022 199.764C-181.227 200.052 -185.692 201.008 -189.421 203.04C-191.328 204.08 -193.109 206.027 -195.124 206.746C-196.569 207.262 -198.565 206.927 -200.084 206.927H-210.25L-206.531 196.026L-215.458 195.778L-210.746 193.584L-196.612 190.266L-161.152 187.065L-147.513 185.469L-139.33 183.639ZM-80.8819 195.042C-81.8657 195.785 -81.6589 197.874 -80.5271 198.354C-78.6163 199.164 -75.1895 198.503 -73.121 198.503C-72.3885 198.503 -71.192 198.72 -70.5677 198.249C-69.5838 197.506 -69.7906 195.416 -70.9224 194.937C-72.8332 194.127 -76.26 194.787 -78.3285 194.787C-79.061 194.787 -80.2575 194.571 -80.8819 195.042ZM-12.0129 195.042C-12.993 195.706 -12.9285 197.855 -11.8151 198.354C-9.90591 199.209 -6.27096 198.503 -4.18434 198.503C-3.47322 198.503 -2.43308 198.676 -1.81221 198.249C-0.894356 197.618 -0.963163 195.408 -2.00926 194.937C-3.91288 194.079 -7.55735 194.787 -9.63981 194.787C-10.3549 194.787 -11.3868 194.617 -12.0129 195.042ZM-161.152 195.035C-161.303 195.85 -161.61 196.927 -161.107 197.682C-160.511 198.577 -157.145 198.599 -156.341 197.964C-154.117 196.204 -157.39 195.035 -158.672 195.035H-161.152ZM-145.281 220.057C-146.425 220.057 -148.616 220.48 -149.587 219.803C-150.799 218.956 -151.573 216.359 -152.397 215.102C-154.073 212.546 -156.348 210.146 -158.92 208.473C-168.027 202.548 -181.738 202.394 -190.412 209.284C-194.154 212.256 -196.453 216.138 -198.595 220.305L-202.563 220.057C-200.389 212.404 -195.25 206.091 -187.932 202.792C-172.675 195.916 -149.429 202.151 -145.281 220.057ZM40.6991 220.057C39.21 220.057 36.6981 220.545 35.3405 219.908C34.376 219.455 33.8095 217.711 33.2944 216.836C32.1889 214.959 30.8101 213.192 29.2887 211.634C25.1018 207.346 19.5655 204.231 13.422 204.202C6.35344 204.168 0.256856 205.834 -5.15361 210.578C-7.03773 212.23 -8.65554 214.225 -9.98909 216.341C-10.6207 217.343 -11.1946 219.154 -12.2159 219.803C-13.214 220.436 -15.1895 220.057 -16.3348 220.057C-15.7275 217.502 -14.1382 215.041 -12.6976 212.873C-0.201399 194.064 34.4708 196.836 40.6991 220.057ZM-174.294 207.074C-179.783 207.272 -185.433 209.207 -189.378 213.162C-196.851 220.655 -195.552 232.92 -186.941 238.942C-182.318 242.176 -177.097 243.082 -171.566 242.84C-168.927 242.724 -166.263 241.89 -163.879 240.791C-161.696 239.784 -159.61 238.326 -157.991 236.547C-156.496 234.905 -155.246 233.025 -154.412 230.958C-149.236 218.132 -161.91 206.627 -174.294 207.074ZM-142.057 220.057H-144.785C-146.016 214.742 -149.724 211.424 -152.72 207.175L-146.273 207.171L-143.943 207.191L-143.402 210.395L-142.057 220.057ZM-65.6815 206.927L-63.9457 220.057L-140.818 220.057L-142.305 207.174H-91.2228H-74.8565L-65.6815 206.927ZM-9.63951 207.422C-12.2752 209.719 -14.1702 212.802 -15.8189 215.845C-16.3736 216.869 -17.0933 219.397 -18.1682 219.908C-20.4991 221.015 -25.4029 220.057 -27.9895 220.057H-52.043H-59.4822C-60.2571 220.057 -61.6579 220.316 -62.3082 219.802C-62.9431 219.301 -62.9169 217.59 -63.0493 216.836C-63.5629 213.912 -64.4403 209.847 -63.9457 206.927L-50.5552 207.174H-24.022L-14.103 207.174L-9.63951 207.422ZM8.71054 207.281C5.5288 207.736 2.53995 208.679 -0.216504 210.352C-9.54824 216.015 -11.8642 228.58 -4.16189 236.652C0.579047 241.621 8.19026 243.732 14.9099 242.775C17.8241 242.36 20.8292 241.406 23.341 239.861C25.4636 238.554 27.3138 236.912 28.8213 234.922C29.9956 233.372 30.9475 231.582 31.5144 229.719C35.6698 216.064 21.322 205.477 8.71054 207.281ZM41.1951 220.057C39.9231 214.707 36.0171 211.437 33.012 207.175C43.3438 207.175 53.6769 207.125 64.0086 207.175C67.1609 207.19 73.5624 207.304 75.731 209.994C77.3702 212.027 77.952 219.143 74.6703 219.979C71.512 220.783 67.2715 220.057 64.0086 220.057H41.1951ZM-195.868 207.422C-198.251 211.23 -202.844 215.132 -202.811 220.057H-217.441C-220.2 220.057 -223.512 220.333 -226.119 219.262C-226.812 218.978 -227.523 218.559 -227.749 217.802C-228.061 216.749 -227.582 215.642 -227.435 214.607C-227.131 212.477 -228.004 209.286 -225.859 207.854C-223.979 206.599 -219.645 207.422 -217.441 207.422H-195.868ZM-198.843 220.553L-200.827 228.728H-212.73C-213.975 228.728 -216.261 229.164 -217.345 228.474C-219.241 227.266 -220.809 222.774 -221.905 220.801L-214.218 220.553H-198.843ZM-138.586 228.728H-147.513L-149.249 220.553C-147.543 220.553 -143.597 219.816 -142.184 220.807C-141.496 221.29 -141.315 222.531 -141.065 223.278C-140.416 225.222 -139.36 226.865 -138.586 228.728ZM-62.4579 228.728L-121.724 228.728H-132.138C-133.454 228.728 -135.398 229.082 -136.601 228.474C-138.978 227.272 -140.214 223.014 -140.322 220.553H-81.5518H-68.9051L-64.0917 220.807L-63.4173 223.03L-62.4579 228.728ZM-18.3185 220.553C-18.5718 222.242 -19.8114 227.465 -21.2079 228.474C-21.9422 229.004 -23.4134 228.728 -24.2699 228.728H-31.7091H-60.97L-62.4579 220.801C-58.3289 219.581 -52.6346 220.553 -48.3234 220.553H-18.3185ZM-12.3672 220.801L-15.2345 228.474L-19.5584 228.728C-18.9356 224.574 -17.4124 219.311 -12.3672 220.801ZM71.9438 220.553C70.7991 222.589 69.92 226.725 67.9655 228.052C65.8393 229.496 61.7394 228.728 59.2972 228.728H37.9714L35.4917 220.801C38.9306 219.785 43.5595 220.553 47.1465 220.553H71.9438Z" fill="#304A6E"/>
</svg>
