<svg width="72" height="81" viewBox="0 0 72 81" fill="none" xmlns="http://www.w3.org/2000/svg">
<rect width="72" height="81" fill="#1A1E26"/>
<rect x="-714" y="-434" width="980" height="753" rx="4" fill="white"/>
<path d="M-104.027 0.188557C-108.937 1.17049 -113.408 2.56311 -117.127 6.1124C-124.166 12.8283 -124.021 24.2475 -116.673 30.7097C-111.361 35.3809 -103.925 37.0001 -97.0836 35.6249C-93.9747 35 -90.9197 33.7668 -88.4045 31.8182C-86.5556 30.3858 -84.963 28.8568 -83.7759 26.8175C-76.9823 15.1474 -85.6278 2.57353 -98.0755 0.52078C-100.049 0.195298 -102.013 -0.214191 -104.027 0.188557ZM81.2094 0.23709C75.4555 1.67945 70.2146 3.23252 66.4585 8.23675C60.3381 16.3907 63.1998 27.3981 71.5384 32.7409C76.7515 36.0812 83.4651 36.8764 89.3925 35.3956C97.3828 33.3993 104.454 26.5854 104.239 17.8987C104.009 8.61445 96.2527 2.18688 87.6567 0.576603C85.56 0.183815 83.3399 -0.296987 81.2094 0.23709ZM-139.487 36.7272L-136.015 45.8937L-143.951 46.367L-147.918 46.8846C-123.691 58.7039 -96.5509 53.6895 -71.0464 59.7386C-65.9406 60.9495 -61.5075 63.5925 -56.9119 66.0151C-50.0639 69.6251 -43.0491 72.961 -36.0821 76.3316C-32.8659 77.8876 -29.5761 79.9832 -26.1632 81.0508C-14.6831 84.6417 -1.35165 83.7983 10.5369 83.7983C25.4657 83.7983 40.0799 83.5889 54.9242 82.106C63.34 81.2653 72.2759 80.0763 80.2175 77.0617C93.2618 72.11 105.659 65.1002 118.901 60.7309C124.248 58.9669 130.05 58.6145 135.516 57.3185C140.945 56.0311 149.845 54.4228 147.914 47.1324L139.979 48.1233C139.341 45.5349 139.225 42.829 138.844 40.1956C138.723 39.3653 138.206 37.8403 138.89 37.1588C139.9 36.1518 143.271 36.404 144.69 35.983C149.521 34.5498 151.69 29.6626 149.866 24.8355C149.428 23.6767 148.555 22.349 147.395 21.814C146.223 21.2739 144.819 21.5791 144.049 20.3492C142.838 18.4156 143.03 15.926 141.147 14.3781C139.145 12.7328 136.188 13.1916 133.78 13.1916L116.669 13.1916C114.696 13.1916 111.092 12.4905 109.305 13.3411C108.032 13.9474 107.463 18.5356 106.951 19.8807C105.213 24.4451 102.469 28.9393 98.8153 32.2255C90.0869 40.0765 76.0311 39.3655 67.5707 31.5024C62.4002 26.6969 59.5523 19.9941 58.1477 13.1916L-35.0904 13.1916L-63.3594 13.1916C-67.0614 13.1916 -72.4204 12.1896 -75.9493 13.2704C-76.976 13.5848 -76.867 15.3013 -77.0187 16.1645C-77.5206 19.0188 -78.4942 21.7588 -79.7868 24.34C-83.1756 31.1071 -89.3028 36.0136 -96.8358 37.3555C-113.227 40.2755 -125.532 29.0678 -127.584 13.1916H-140.727C-142.17 13.1916 -144.854 12.679 -146.117 13.4462C-148.386 14.8238 -149.211 19.2719 -150.854 21.334C-152.154 22.9655 -154.896 22.3534 -156.456 23.8868C-157.638 25.0478 -157.042 26.3965 -156.888 27.8084C-156.597 30.4929 -157.236 34.5932 -154.61 36.2965C-153.276 37.1615 -151.415 36.9749 -149.902 36.9749C-146.422 36.9749 -142.973 36.7272 -139.487 36.7272ZM-128.824 14.4303L-126.841 22.6058L-149.654 22.3581C-149.044 20.4318 -146.947 15.5017 -145.138 14.5127C-143.934 13.8548 -141.584 14.1826 -140.231 14.1826C-136.418 14.1826 -132.625 14.4303 -128.824 14.4303ZM-66.583 14.1826L-69.0976 19.8807L-70.1811 22.3326L-77.2458 22.6058L-75.51 14.4303L-66.583 14.1826ZM9.54486 14.1826L8.05702 22.6058C-11.2161 21.3151 -30.8924 22.3581 -50.2167 22.3581C-54.7979 22.3581 -59.5542 21.9988 -64.1033 22.5351C-64.9986 22.6406 -67.9914 23.0866 -68.1943 21.806C-68.3317 20.9384 -67.721 19.7025 -67.4469 18.8897C-66.9683 17.4704 -66.2274 15.4413 -64.8248 14.6849C-63.7512 14.106 -61.5997 14.198 -60.3837 14.1835C-57.161 14.1453 -53.9356 14.1828 -50.7127 14.1828L-10.293 14.1828C-3.76023 14.1828 3.04575 14.7574 9.54486 14.1826ZM53.6842 22.606L33.3503 22.3583L9.79289 22.606L9.54486 22.3583L11.0327 14.4305C20.5157 14.4298 30.0456 14.1828 39.5497 14.1828C42.4277 14.1828 48.0897 13.1009 50.6396 14.5406C52.1369 15.386 53.5148 20.9521 53.6842 22.606ZM57.1558 14.4305L59.3876 22.606H55.42L52.4443 14.4305H57.1558ZM143.947 22.3583H136.011H118.901H107.494L109.974 14.4305H131.3C133.758 14.4305 137.783 13.6724 139.956 14.995C142.24 16.3856 142.204 20.3425 143.947 22.3583ZM-130.808 23.1015C-130.343 28.4254 -125.991 31.3535 -123.865 35.7364C-131.15 35.7364 -138.434 35.7247 -145.687 35.7364C-147.89 35.7401 -152.182 36.5475 -154.049 35.2188C-155.911 33.8933 -155.195 30.4674 -155.401 28.5519C-155.506 27.5709 -155.955 26.5812 -155.793 25.5828C-155.659 24.7574 -155.094 24.2697 -154.362 23.9348C-151.112 22.4483 -147.129 23.064 -143.703 23.1006C-139.548 23.1449 -134.883 22.43 -130.808 23.1015ZM-73.2783 23.1013C-77.5412 41.0733 -101.436 47.5577 -116.674 39.995C-123.756 36.4799 -128.158 30.4776 -130.56 23.1013C-125.415 21.84 -124.582 27.259 -121.775 30.5336C-118.392 34.4795 -113.845 37.2277 -108.739 38.2966C-100.817 39.9546 -91.8608 38.629 -85.429 33.5056C-83.1519 31.6917 -81.326 29.5271 -79.7824 27.0652C-79.1018 25.9796 -78.5005 23.8442 -77.3909 23.1583C-76.448 22.5754 -74.2855 22.8166 -73.2783 23.1013ZM-70.0546 22.8536L-71.7904 36.2317C-74.3646 35.6195 -78.1434 35.6195 -80.7175 36.2317L-76.6079 31.0291L-72.5344 22.8536H-70.0546ZM6.56918 35.984L-70.3026 35.984L-69.3107 26.5697L-68.2436 23.1403L-63.3594 23.0792L-52.2006 23.1013L-9.54905 23.1013H3.0976L7.65062 23.1214L7.63203 26.322L6.56918 35.984ZM62.1156 35.984H8.05732L8.9882 26.322L9.69484 23.1591L12.5208 23.0979L19.7121 23.1016L44.5094 23.1016L50.7088 23.0804L53.8288 23.1298L56.2257 27.3133L62.1156 35.984ZM112.702 23.1017C106.314 46.4855 70.8732 49.1597 58.8451 29.543C57.6318 27.5642 56.2132 25.3738 55.6682 23.1017C56.8363 23.0096 58.4989 22.4696 59.583 23.1083C60.6548 23.7401 61.2209 25.5569 61.8871 26.5699C63.2943 28.7094 64.9236 30.7559 66.8271 32.4736C71.9289 37.0778 78.3547 39.1203 85.1771 38.9534C91.4989 38.7987 97.2186 35.7296 101.535 31.2734C103.03 29.7295 104.301 27.9183 105.399 26.0744C105.921 25.1977 106.295 23.8964 107.13 23.2607C108.017 22.5847 111.608 22.7903 112.702 23.1017ZM105.015 35.9841L109.866 30.0383L113.446 22.8537C121.169 24.2862 130.137 23.1141 137.996 23.1015C140.373 23.0978 145.125 21.8893 147.16 23.251C149.743 24.9801 149.509 31.0672 147.591 33.2261C146.573 34.3723 144.652 34.8334 143.203 35.1294C137.902 36.2124 132.462 35.9841 127.085 35.9841H105.015ZM-71.7901 36.4796L-70.4265 49.8577L-67.5746 59.5197C-85.1278 54.8316 -103.493 55.8433 -121.385 53.3584C-126.662 52.6255 -131.907 51.5712 -137.007 50.036C-139.079 49.4125 -141.689 48.9054 -143.454 47.628C-141.032 46.9125 -137.008 46.649 -134.527 47.1325C-134.328 43.8356 -137.301 39.3071 -138.495 36.2318H-128.08C-126.574 36.2318 -124.556 35.8842 -123.121 36.3777C-121.209 37.0348 -119.506 38.935 -117.665 39.8839C-113.248 42.1607 -108.254 43.3564 -103.283 43.4154C-98.1298 43.4767 -92.888 42.7466 -88.1564 40.614C-85.8477 39.5734 -83.8016 37.4265 -81.4611 36.6254C-78.7767 35.7066 -74.6272 36.4796 -71.7901 36.4796ZM6.56948 36.4796L9.79319 82.5597C-1.3744 82.5597 -13.551 83.2623 -24.4272 80.3264C-27.6421 79.4586 -30.6336 77.6576 -33.6022 76.1851C-38.468 73.7717 -43.3707 71.4238 -48.2326 68.9951C-52.5486 66.8391 -56.9341 64.7794 -61.1273 62.3882C-62.5267 61.5902 -64.7863 61.0357 -65.7514 59.7022C-70.1014 53.6911 -70.3023 43.5558 -70.3023 36.4796L6.56948 36.4796ZM8.41284 36.6291C9.60192 36.0261 11.9485 36.4796 13.2648 36.4796H25.1675H50.9568C54.526 36.4796 59.439 35.5973 62.8595 36.6067C64.748 37.164 66.33 39.0556 68.067 39.9994C71.1513 41.6753 76.4374 43.0051 78.0544 46.3893C79.7772 49.995 76.0146 54.6134 73.9862 57.29C69.8849 62.7017 65.1751 67.6117 60.3798 72.4023C57.2804 75.4986 53.6503 79.1163 49.7169 81.1429C47.3489 82.3629 44.1094 81.8614 41.5337 82.1063C34.5141 82.7737 27.5139 82.8075 20.456 82.8075H13.7607C13.0484 82.8072 11.8005 83.0088 11.2879 82.3758C10.539 81.4511 10.8288 78.5347 10.7753 77.3571C10.5811 73.0843 10.4047 68.7334 9.99903 64.4745C9.32459 57.3941 8.0693 50.2951 8.05732 43.1686C8.05732 41.8512 6.99255 37.3493 8.41284 36.6291ZM138.739 49.3622L146.923 48.3712C146.922 52.2341 144.153 53.6063 140.723 54.6671C134.945 56.4545 129.025 57.3265 123.117 58.5296C114.527 60.2791 106.565 64.6102 98.5677 68.0855C83.5354 74.6183 68.5819 80.6076 51.9486 81.321C54.369 78.188 58.591 75.5983 61.5391 72.8701C66.216 68.5419 70.4628 63.5635 74.4316 58.5897C76.8181 55.5988 81.2447 50.282 79.2831 46.1416C78.4847 44.4562 76.8644 43.567 75.5062 42.4254C76.8178 42.2307 78.1454 42.8073 79.4737 42.8987C83.0671 43.146 86.8202 43.261 90.3846 42.5963C93.8094 41.9576 96.9814 40.7524 100.056 39.1415C101.45 38.4109 102.768 37.0502 104.271 36.6067C105.964 36.1071 108.217 36.4796 109.974 36.4796H121.629H132.788C133.811 36.4796 136.012 36.0678 136.854 36.7342C137.548 37.2837 137.427 39.3676 137.5 40.1957C137.762 43.194 138.035 46.4385 138.739 49.3622ZM107.247 42.3088C104.505 42.9421 102.992 46.3196 104.865 48.6083C106.232 50.2788 108.469 50.6456 110.47 50.0909C113.226 49.3272 114.436 45.9206 112.564 43.71C111.306 42.225 109.069 41.8878 107.247 42.3088ZM-8.28215 44.5913C-9.81314 44.9195 -9.90449 47.6365 -8.52377 48.2217C-6.79862 48.9531 -0.644179 48.9531 1.08097 48.2217C2.38023 47.671 2.39347 45.1952 1.05866 44.6729C0.259983 44.3604 -0.777933 44.6446 -1.61336 44.6542C-3.6674 44.6778 -6.29737 44.1657 -8.28215 44.5913ZM60.4132 44.5553C59.0063 44.9847 58.8919 47.5611 60.201 48.1873C62.0204 49.0576 65.5676 48.3712 67.5713 48.3712C68.3007 48.3712 69.3022 48.5375 69.9819 48.2217C71.2512 47.6322 71.0057 45.1428 69.776 44.6668C68.9315 44.3398 67.9495 44.6304 67.0754 44.6515C65.0878 44.6993 62.2873 43.9833 60.4132 44.5553ZM-89.148 44.9028C-89.2994 45.7178 -89.6062 46.7943 -89.1033 47.5492C-88.4929 48.466 -85.0866 48.4743 -84.3379 47.7262C-82.3666 45.7568 -85.2735 44.9029 -86.668 44.9028H-89.148ZM56.9087 79.3391C62.2474 79.2949 67.7035 77.6248 72.779 76.0898C82.3786 73.1864 91.1225 69.609 100.056 65.0338C104.539 62.738 110.327 60.766 114.191 57.5377C110.622 56.9245 106.658 57.29 103.032 57.29C98.2765 57.29 93.3756 56.9574 88.6494 57.466C86.106 57.7397 83.134 56.9863 80.7142 58.0544C78.66 58.9611 76.922 60.9896 75.2588 62.4541C71.9202 65.394 68.564 68.3372 65.3398 71.4017C62.762 73.852 58.679 76.2508 56.9087 79.3391ZM-62.3665 57.7854C-61.6296 59.2387 -59.973 60.1733 -58.6469 61.0692C-55.6177 63.1158 -52.4336 64.9381 -49.224 66.6841C-40.4726 71.4448 -30.9371 77.0491 -21.2029 79.4691C-17.2331 80.456 -13.1063 80.5506 -9.05227 80.8475C-4.9578 81.1474 -0.759473 81.321 3.34645 81.321C4.28089 81.321 6.66091 81.7466 7.30693 80.9238C8.13699 79.8665 7.24444 75.9357 7.06605 74.632C6.30115 69.0521 6.28531 63.3752 5.57821 57.7854L-62.3665 57.7854ZM11.7775 58.0332C13.0212 63.2522 12.5437 69.5139 12.7792 74.8797C12.8298 76.029 12.5222 80.1122 13.415 80.8187C14.3635 81.5692 16.3958 80.8827 17.4809 80.8353C20.9699 80.6827 24.4193 81.0733 27.8958 81.0733C34.0504 81.0733 41.8484 82.0601 47.7337 79.9864C54.0817 77.7496 59.4995 71.2103 63.3595 65.961C65.1523 63.5229 68.0381 60.7646 68.8115 57.7855L29.8796 57.7855H17.9769L11.7775 58.0332ZM203.461 119.969C202.618 116.433 203.213 112.201 203.213 108.573V86.2759C203.213 83.3128 203.751 79.7525 203.082 76.8617C202.012 72.2364 197.206 73.6075 194.075 72.2528C192.878 71.735 192.789 70.1562 191.31 69.6754C189.786 69.1796 187.555 69.2486 186.103 69.9373C185.229 70.3519 184.398 71.4614 183.375 71.4226C181.308 71.3441 179.519 69.1433 177.424 68.9257C174.855 68.6588 170.53 71.9615 168.249 73.0851C167.41 73.4983 166.053 73.9066 165.528 74.7287C164.723 75.9897 165.273 78.8694 165.273 80.3301V94.4514V147.964V163.572C165.273 165.027 164.682 168.149 165.528 169.377C166.103 170.211 167.609 170.392 168.497 170.734C170.825 171.632 175.451 174.355 177.92 173.843C179.71 173.473 181.486 171.389 183.304 171.393C184.12 171.394 184.914 172.39 185.607 172.758C187.008 173.502 189.023 173.717 190.566 173.349C192.183 172.965 192.678 171.518 194.049 170.884C197.024 169.508 200.839 169.946 202.648 166.545C204.092 163.829 203.213 159.143 203.213 156.139V132.108C203.213 129.296 202.238 124.313 203.363 121.74C203.836 120.657 205.485 120.96 206.437 120.96C208.129 120.96 210.243 120.622 211.882 121.066C213.09 121.394 213.939 122.677 215.307 121.872C216.584 121.121 215.944 119.374 214.619 119.166C213.623 119.011 212.647 119.772 211.644 119.842C209.021 120.023 205.985 119.421 203.461 119.969ZM-182.634 100.397C-182.634 94.483 -182.527 88.487 -182.382 82.5597C-182.322 80.1091 -181.455 77.1135 -182.88 74.8835C-185.369 70.9893 -191.453 72.3474 -195.277 72.1312C-197.193 72.0229 -198.541 69.572 -200.736 69.256C-202.134 69.0547 -204.012 69.1896 -205.144 70.124C-205.783 70.6519 -205.967 71.6575 -206.743 72.0052C-209.761 73.3581 -213.652 72.1811 -215.501 75.8707C-216.346 77.5562 -215.862 80.2223 -215.862 82.0643V95.6901V144.743V159.608C-215.862 161.641 -216.364 164.45 -215.386 166.297C-213.459 169.935 -209.731 169.163 -206.697 170.763C-204.637 171.849 -203.954 173.674 -201.232 173.407C-198.779 173.166 -197.241 170.963 -195.032 170.771C-191.602 170.473 -187.215 171.644 -184.144 169.647C-180.542 167.303 -182.138 159.157 -182.138 155.396C-182.138 151.663 -181.158 146.368 -182.217 142.798C-182.617 141.447 -184.73 142.021 -185.057 140.28C-185.509 137.876 -185.113 135.049 -185.113 132.604V117.244V104.609C-185.113 102.707 -184.855 100.741 -182.634 100.397ZM175.192 83.0552L166.761 75.6229V75.1275C170.754 73.2371 175.609 69.1107 179.904 71.224C181.494 72.0066 183.908 72.573 183.296 74.8575C183.008 75.9364 181.694 76.8355 180.905 77.5592C178.972 79.334 176.911 81.0706 175.192 83.0552ZM-202.967 70.5056C-201.119 70.1246 -198.4 70.676 -197.662 72.651C-197.163 73.9847 -197.512 75.9476 -197.512 77.3571C-197.512 81.0856 -197.878 85.0552 -197.441 88.7533C-196.63 95.6201 -197.264 102.894 -197.264 109.811V149.946C-197.264 153.555 -197.489 157.246 -197.242 160.846C-197.059 163.51 -196.37 167.113 -197.095 169.723C-197.496 171.168 -199.391 171.97 -200.736 172.168C-202.015 172.356 -203.739 172.254 -204.449 170.978C-205.139 169.736 -204.703 167.435 -204.703 166.049V154.157V92.9649V75.8707C-204.703 74.0333 -205.367 71.0005 -202.967 70.5056ZM188.831 70.5142C189.856 70.4513 191.4 70.6467 191.87 71.7059C192.482 73.085 192.054 75.3739 192.054 76.8617V89.0011V150.194V167.04C192.054 169.03 192.558 172.003 189.823 172.228C188.138 172.367 185.82 172.159 184.907 170.485C184.204 169.196 184.615 166.982 184.615 165.554V153.91V92.4695V79.5868C184.615 77.6477 184.248 75.2798 184.719 73.3933C185.183 71.5337 187.048 70.6236 188.831 70.5142ZM-206.191 73.1455V138.302V158.865L-205.943 169.27C-208.627 169.947 -213.396 168.018 -214.347 165.305C-214.927 163.652 -214.622 161.584 -214.622 159.856V149.202V93.9558V80.8254C-214.622 79.0367 -214.917 76.8359 -213.574 75.4217C-211.622 73.3665 -208.69 73.7398 -206.191 73.1455ZM-183.378 77.357L-196.024 77.6047V73.3931C-191.846 73.0637 -184.621 72.0164 -183.378 77.357ZM193.542 169.765L193.294 169.517L193.542 155.644V129.383V93.4603L193.294 73.6409C195.66 72.9909 200.385 73.888 201.475 76.3882C202.109 77.8429 201.723 80.0103 201.725 81.5686V92.7171V149.946C201.725 153.652 201.581 157.391 201.744 161.094C201.828 162.999 202.183 165.196 200.884 166.781C199.217 168.815 195.979 169.293 193.542 169.765ZM166.761 76.1183L174.448 83.3028V83.7983L166.761 90.7351L166.513 80.8254L166.761 76.1183ZM183.375 76.1183V91.2306C180.492 89.695 177.065 85.9597 175.192 83.3028L183.375 76.1183ZM-171.723 165.801H-163.044V142.761V95.69V82.5596L-163.13 77.7542L-165.028 77.357L-171.358 77.5065L-171.723 82.5596V98.6629V165.801ZM-145.19 77.6047C-146.615 85.1627 -147.403 92.8369 -148.814 100.397C-149.143 102.159 -150.724 103.434 -150.964 105.104C-151.568 109.32 -150.893 114.202 -150.893 118.482C-150.893 124.825 -151.496 131.493 -150.867 137.806C-150.688 139.604 -149.216 140.98 -148.827 142.761C-147.25 149.972 -145.263 158.191 -144.942 165.553H-93.6111C-85.214 165.553 -76.4271 166.305 -68.0698 165.528C-65.2015 165.261 -62.2725 164.126 -59.4328 163.576C-49.3636 161.627 -39.3636 158.944 -29.2432 157.308C-23.3175 156.35 -17.0254 156.639 -11.0359 156.377C-0.789424 155.929 9.43734 155.594 19.7128 155.644C34.0554 155.713 48.8316 155.562 63.1082 156.925C81.5016 158.68 99.5299 163.923 117.91 165.759C127.865 166.753 138.402 165.801 148.411 165.801C149.418 158.013 151.33 150.348 152.089 142.513C152.748 135.708 152.131 128.543 152.131 121.703C152.131 114.268 152.716 106.547 151.924 99.1584C151.362 93.9134 150.586 88.7256 149.552 83.5506C149.263 82.1062 149.265 79.0924 148.199 78.0081C147.345 77.1397 144.357 77.6047 143.204 77.6047H128.821C107.927 77.6047 86.9725 83.1188 66.3322 86.1714C61.2159 86.928 56.1065 86.8035 50.9578 87.0287C39.224 87.542 27.5131 87.7433 15.7456 87.7622C4.69253 87.78 -6.43265 87.7972 -17.4829 87.0411C-21.5861 86.7604 -25.8054 87.0788 -29.8816 86.4501C-39.7609 84.9262 -49.6557 81.8187 -59.3904 79.5286C-61.9053 78.9369 -64.517 77.9575 -67.0777 77.6504C-74.0589 76.8131 -81.6159 77.6047 -88.6514 77.6047C-107.425 77.6047 -126.443 78.4938 -145.19 77.6047ZM-183.377 78.1002L-183.625 80.8254H-183.873V78.3479H-195.776V89.2486L-196.272 80.8254L-195.697 78.1778L-192.056 78.1002H-183.377ZM-163.539 165.306H-171.227V77.8525C-169.581 77.8525 -165.241 77.0749 -163.937 78.1071C-162.98 78.8639 -163.539 82.1816 -163.539 83.3028V99.1584V165.306ZM-211.394 78.2619C-214.255 79.187 -213.845 87.8947 -209.415 86.6292C-206.268 85.7301 -206.604 76.7132 -211.394 78.2619ZM-201.714 78.5787C-203.266 78.9992 -202.532 81.2247 -200.998 80.6711C-199.559 80.152 -200.316 78.2001 -201.714 78.5787ZM196.777 78.5319C195.407 79.0896 195.527 80.5871 195.526 81.8164C195.526 84.301 195.8 88.0869 199.483 86.5873C200.931 85.9979 200.734 84.3369 200.734 83.0551C200.734 80.5467 200.385 77.0628 196.777 78.5319ZM-210.899 78.7033C-207.443 77.7412 -207.432 85.5621 -209.668 86.1674C-213.199 87.1228 -213.171 79.3358 -210.899 78.7033ZM188.143 78.7808C186.683 79.4335 187.995 81.193 189.289 80.6721C190.789 80.0686 189.511 78.1689 188.143 78.7808ZM197.758 78.7226C201.179 78.1421 201.259 85.7643 198.745 86.219C195.196 86.8609 195.268 79.1451 197.758 78.7226ZM-68.3186 78.8435V79.0912L-119.153 94.7472L-138.247 100.61L-148.414 103.618C-146.294 98.2022 -145.971 91.5419 -145.158 85.7803C-144.957 84.3561 -144.958 80.0062 -143.801 79.0981C-142.772 78.2902 -139.762 78.8435 -138.495 78.8435H-124.113L-68.3186 78.8435ZM118.38 78.9509C119.7 79.0033 120.671 81.307 121.225 82.3119C123.305 86.0831 124.78 90.0035 125.702 94.2035C127.74 103.489 126.837 113.483 126.837 122.942C126.837 130.788 127.679 139.263 125.987 146.973C124.96 151.655 123.554 156.318 121.354 160.599C120.664 161.942 119.956 164.492 118.156 164.526C114.355 164.597 110.246 163.29 106.503 162.689C97.1653 161.191 87.8385 159.566 78.4817 158.188C75.1692 157.701 71.8801 157.094 68.5628 156.635C67.5505 156.495 65.3005 156.486 64.5797 155.708C63.8293 154.897 63.694 152.977 63.4605 151.928C62.7522 148.741 61.9693 145.506 61.581 142.266C60.8347 136.038 61.1236 129.706 61.1236 123.437C61.1236 116.677 60.8767 109.858 61.3494 103.122C61.6233 99.2181 62.543 95.5228 63.441 91.7261C63.7068 90.6023 63.7085 88.5489 64.7216 87.8029C65.7063 87.0779 67.6327 87.1427 68.8107 86.9226C72.3394 86.2635 75.9266 85.7641 79.4736 85.2167C88.3221 83.8514 97.1772 82.4447 106.007 80.9653C109.876 80.3171 114.465 78.7956 118.38 78.9509ZM147.418 164.562C140.763 165.797 133.11 164.81 126.341 164.81C124.357 164.81 122.07 164.434 120.141 164.81C119.984 162.452 122.622 159.128 123.514 156.882C125.554 151.746 126.768 146.514 127.29 141.027C128.047 133.084 127.333 124.73 127.333 116.748C127.333 109.945 128.054 102.634 126.672 95.9377C125.9 92.1993 124.825 88.4859 123.171 85.037C122.201 83.0155 120.45 80.9853 119.894 78.8435H139.731C141.379 78.8435 145.672 78.0732 146.99 79.0981C148.105 79.965 148.098 83.2269 148.361 84.5416C149.451 89.9888 150.509 95.5821 150.646 101.14C150.957 113.793 151.735 126.89 150.868 139.54C150.294 147.916 147.777 156.222 147.418 164.562ZM-68.5664 79.8344C-71.1906 86.9956 -76.4004 93.059 -78.2274 100.645C-79.5592 106.175 -78.7332 112.573 -78.7332 118.235C-78.7332 126.737 -80.0915 136.534 -77.6327 144.743C-75.5573 151.672 -71.0674 157.288 -68.3183 163.819C-74.7689 162.947 -81.7237 159.717 -87.9083 157.644C-100.573 153.4 -113.412 149.669 -126.096 145.486C-131.618 143.665 -137.15 141.873 -142.71 140.176C-144.994 139.479 -147.287 138.403 -149.654 138.054V123.437C-148.225 123.499 -145.723 124.877 -144.456 124.227C-141.092 122.501 -140.619 117.408 -144.704 116.178C-145.974 115.795 -148.18 116.852 -149.406 117.244L-149.654 107.829L-149.079 104.573L-141.966 102.254L-125.104 97.0713L-85.4285 84.8585L-68.5664 79.8344ZM-69.0623 82.0641C-69.5006 86.4624 -71.3148 90.7389 -71.7479 95.1945C-72.3868 101.768 -71.8799 108.418 -72.0416 115.014C-72.2955 125.37 -73.2601 136.157 -72.2439 146.477C-71.7346 151.649 -69.9689 156.558 -68.8143 161.59H-69.0623C-73.0158 155.136 -76.9338 147.833 -78.1568 140.284C-79.3377 132.994 -78.2373 124.636 -78.2373 117.244C-78.2373 112.583 -78.8211 107.487 -78.1629 102.875C-77.5139 98.3264 -75.259 94.1049 -73.3542 89.9919C-72.1525 87.3972 -70.892 84.2703 -69.0623 82.0641ZM182.383 91.4783H167.256L172.712 85.7803L174.944 84.2743L177.175 86.028L182.383 91.4783ZM97.328 84.6467C89.5553 85.6663 81.8869 87.1318 74.2664 89.0323C72.372 89.5047 67.8884 89.6912 66.5438 91.1314C65.7805 91.949 65.704 93.8841 65.4882 94.9467C64.8412 98.1343 64.1008 101.337 64.0996 104.609V138.302C64.0996 141.715 64.6284 145.104 65.2342 148.459C65.4197 149.487 65.3968 151.456 66.2293 152.192C67.0203 152.891 68.5619 152.962 69.5549 153.167C72.0418 153.682 74.5183 154.302 76.9941 154.871C85.7618 156.885 94.5145 158.617 103.527 158.617C105.826 158.617 108.438 158.965 110.704 158.58C112.391 158.293 111.462 154.429 111.462 153.166V135.824V97.4242C111.462 94.2887 111.393 91.1445 111.462 88.0099C111.482 87.1657 112.03 85.4331 111.269 84.7962C110.503 84.1553 108.435 84.5415 107.491 84.5415C104.159 84.5415 100.629 84.2132 97.3243 84.6467M62.856 87.7622L59.8901 103.122L59.8804 124.676L59.9228 140.036L62.8564 155.891L53.4333 155.386L35.3313 154.9L-1.36876 154.663L-29.1418 156.139L-31.1034 142.266L-31.1257 124.18L-31.116 101.636L-29.1421 87.7622L2.84654 88.9973L39.2986 88.5091L62.856 87.7622ZM-195.78 89.9919V91.2306H-196.028L-195.78 89.9919ZM-194.292 91.7261V151.928H-195.78L-196.028 91.7261H-194.292ZM-193.222 91.8767C-191.562 91.0953 -191.565 93.2208 -191.565 94.2035V103.865V140.284V148.955C-191.565 149.74 -191.266 151.316 -192.139 151.743C-193.676 152.494 -193.794 150.688 -193.796 149.698V141.027V104.856V95.1945C-193.796 94.3487 -194.171 92.3238 -193.222 91.8767ZM-191.069 151.928V91.7261L-189.092 92.1233L-188.837 95.1945V102.875V139.293V148.211L-189.092 151.53L-191.069 151.928ZM-183.878 91.7261V99.4061C-187.276 100.75 -186.605 105.127 -186.605 108.077V133.842C-186.605 136.949 -187.749 142.263 -183.63 143.009L-183.382 151.68C-184.315 151.955 -187.391 152.436 -188.09 151.528C-188.66 150.787 -188.341 149.094 -188.341 148.211V139.788V103.37V94.9467C-188.341 94.1661 -188.643 92.534 -187.943 91.9807C-187.098 91.3118 -184.911 91.7261 -183.878 91.7261ZM171.716 92.4693C172.713 95.837 171.965 100.353 171.965 103.865C168.896 103.902 169.981 108.014 169.981 110.307V131.613C169.981 133.997 168.781 139.007 171.965 139.045V151.184L166.907 150.93L166.509 147.22V136.815V92.7171L171.716 92.4693ZM179.9 92.4693V106.591V135.081L180.148 150.937L172.46 151.184V139.045C175.147 138.84 174.196 134.588 174.196 132.604V111.298C174.196 109.219 175.254 104.078 172.46 103.865V95.69L172.858 92.7239L179.9 92.4693ZM183.123 92.4693L183.371 98.9106V111.05V151.184H180.644V106.343V96.4332L180.898 92.8667L183.123 92.4693ZM-8.80817 100.502C-11.953 100.92 -14.8514 101.891 -16.4866 104.856C-17.8367 107.305 -17.4873 110.09 -17.4873 112.784V127.649C-17.4873 131.43 -18.4175 136.529 -16.0892 139.788C-12.9679 144.157 -7.31424 143.504 -2.60887 143.504C-0.661878 143.504 1.41277 143.705 3.3425 143.43C14.1171 141.892 11.5256 129.684 11.5256 121.703C11.5256 116.977 12.8933 109.684 10.841 105.352C7.80596 98.9458 -2.89742 99.7173 -8.80817 100.502ZM-8.80817 100.963C-3.17044 100.29 7.1498 99.404 10.1572 105.352C12.3926 109.773 11.0297 117.095 11.0297 121.951C11.0297 128.436 13.5551 141.489 4.33438 142.716C-1.29368 143.466 -12.1614 144.778 -15.6937 139.251C-17.7424 136.045 -16.9913 131.517 -16.9913 127.897V114.518C-16.9913 107.949 -16.7617 101.914 -8.80817 100.963ZM173.7 104.609V138.302L170.725 138.549L170.477 127.649V104.609H173.7ZM-202.291 106.845C-203.426 107.771 -201.698 109.421 -200.604 108.423C-199.485 107.402 -201.325 106.058 -202.291 106.845ZM188.14 106.778C186.702 107.4 187.975 109.398 189.286 108.753C190.76 108.027 189.507 106.188 188.14 106.778ZM42.7703 115.262C44.0385 117.862 47.801 120.122 49.9616 122.021C50.9941 122.929 51.7955 123.9 53.1852 124.18L46.8431 118.481L42.7703 115.262ZM-149.161 122.198V118.235C-147.893 117.944 -145.926 116.915 -144.701 117.651C-142.507 118.968 -142.397 122.247 -145.197 122.997C-146.365 123.31 -148.019 122.46 -149.161 122.198ZM-201.483 134.577C-202.907 134.665 -202.964 136.742 -201.483 136.742C-199.9 136.742 -199.847 134.476 -201.483 134.577ZM188.139 134.773C186.671 135.405 187.925 137.411 189.286 136.726C190.754 135.986 189.496 134.189 188.139 134.773ZM-148.665 138.549L-138.994 141.777L-120.644 147.653L-69.3138 164.067V164.315H-122.628H-137.259C-138.876 164.315 -141.898 164.901 -143.35 164.165C-144.507 163.579 -144.551 159.57 -144.76 158.369C-145.649 153.253 -146.714 148.149 -147.458 143.009C-147.66 141.614 -149.02 139.847 -148.665 138.549ZM182.875 152.175C181.752 154.581 179.025 156.277 177.172 158.121C176.609 158.682 175.819 159.786 174.941 159.808C174.031 159.831 173.18 158.642 172.597 158.069C170.898 156.399 167.743 154.47 167.005 152.175H182.875ZM-183.63 152.423L-183.382 164.562C-186.752 165.558 -191.272 164.81 -194.788 164.81V164.562H-183.878C-183.878 161.147 -184.946 155.558 -183.63 152.423ZM167.005 153.166C169.293 155.452 173.069 157.9 174.444 160.846L166.757 167.783L166.509 157.13L167.005 153.166ZM183.371 153.166V168.031C181.087 166.967 176.127 162.561 175.436 160.103L183.371 153.166ZM-211.154 156.797C-214.234 157.737 -213.959 166.625 -209.42 165.246C-206.308 164.301 -206.734 155.449 -211.154 156.797ZM197.011 157.066C194.071 158.205 194.667 166.946 199.237 165.342C202.14 164.323 201.654 155.268 197.011 157.066ZM-209.672 157.363C-207.529 157.789 -207.3 165.432 -210.896 164.753C-213.188 164.321 -213.218 156.658 -209.672 157.363ZM197.272 157.505C201.176 156.245 201.288 164.13 198.979 164.855C195.237 166.031 195.312 158.138 197.272 157.505ZM-147.921 196.274V196.521L-136.019 197.512C-137.23 199.638 -137.971 204.884 -140.054 206.176C-141.124 206.84 -142.795 206.244 -143.954 206.193C-146.882 206.065 -151.99 205.301 -154.593 206.779C-157.31 208.32 -156.552 212.751 -156.923 215.35C-157.108 216.649 -157.518 217.826 -156.631 218.991C-155.435 220.56 -152.732 220.902 -150.897 221.048L-147.511 227.737L-145.857 229.817L-140.482 229.967H-127.588C-125.657 214.786 -114.045 203.063 -98.0787 205.549C-90.2029 206.775 -83.6947 211.189 -80.0036 218.323C-78.5577 221.117 -77.7182 223.942 -77.0306 226.994C-76.8373 227.851 -76.9741 229.575 -75.9524 229.888C-72.4235 230.969 -67.0644 229.967 -63.3624 229.967H-35.0934L58.1447 229.967C59.6145 222.852 62.5687 216.121 68.0636 211.18C76.246 203.824 89.9947 203.03 98.3872 210.523C102.334 214.047 105.022 218.389 106.945 223.278C107.472 224.618 108.035 229.203 109.305 229.817C111.398 230.83 115.407 229.827 117.658 229.729C124.228 229.441 130.98 230.555 137.496 229.925C139.898 229.692 141.724 228.83 142.699 226.498C143.243 225.197 143.356 223.433 144.352 222.365C145.857 220.752 148.18 221.488 149.509 219.066C150.99 216.365 150.759 210.572 148.146 208.571C145.703 206.701 141.471 206.245 138.488 206.183L139.976 195.035L147.663 196.026C151.709 188.809 138.546 186.482 134.025 185.459C128.979 184.319 123.541 184.014 118.65 182.291C102.702 176.673 87.9591 167.019 71.2872 163.571C50.8659 159.347 30.5007 159.328 9.78985 159.36C-1.78824 159.378 -14.7224 158.479 -25.9184 161.945C-29.0978 162.93 -32.0974 164.855 -35.0934 166.291C-41.3964 169.31 -47.7567 172.278 -53.9394 175.537C-60.1903 178.832 -66.0741 182.237 -73.0334 183.781C-97.5448 189.22 -125.113 183.793 -147.921 196.274ZM6.31818 206.679L-2.36091 206.431H-18.4791H-70.3056C-70.3056 200.722 -69.7896 195.086 -68.1791 189.585C-67.57 187.504 -66.9969 184.933 -65.6026 183.211C-64.6733 182.064 -62.6686 181.515 -61.3786 180.849C-58.3118 179.268 -55.291 177.599 -52.2036 176.057C-46.9214 173.42 -41.6125 170.849 -36.3332 168.212C-32.8191 166.457 -29.1756 164.228 -25.4225 163.048C-21.8004 161.91 -18.0056 161.656 -14.2636 161.3C-8.46842 160.749 -2.72431 160.737 3.09456 160.595C4.56395 160.559 8.15619 159.604 9.39221 160.606C10.0571 161.145 9.57106 162.596 9.5445 163.324C9.44831 165.966 9.17157 168.611 9.05567 171.252C8.70178 179.314 7.62131 187.256 6.85619 195.283C6.51227 198.891 7.34308 203.215 6.31818 206.679ZM8.05398 206.679C7.34882 203.719 8.07406 200.268 8.27976 197.265C8.82676 189.285 10.2345 181.236 10.2859 173.234C10.306 170.152 10.4909 166.881 10.8525 163.819C10.9463 163.025 10.7714 161.416 11.2845 160.783C11.8626 160.069 13.4491 160.351 14.2534 160.351H22.1885C27.9228 160.351 33.5868 160.587 39.2986 160.837C42.2287 160.965 46.1987 160.558 48.9696 161.544C51.354 162.393 53.5248 164.544 55.4169 166.155C62.6235 172.289 69.4041 179.449 74.9691 187.107C76.8925 189.754 79.9765 194.271 77.6081 197.509C75.4935 200.4 70.6291 201.723 67.5676 203.401C66.0208 204.249 64.5281 206.02 62.8525 206.51C61.6055 206.874 59.9411 206.431 58.6406 206.431H48.4737H21.4446C17.2073 206.431 12.1798 205.697 8.05398 206.679ZM183.371 170.013L177.668 172.589L174.196 171.578L166.757 168.774C168.234 166.68 170.407 165.126 172.212 163.324C172.846 162.691 173.733 161.435 174.692 161.322C175.637 161.211 176.538 162.435 177.149 163.002C179.093 164.805 182.952 167.3 183.371 170.013ZM-62.3705 185.373H5.57426L7.55809 161.837C-2.11058 161.837 -12.5068 161.424 -21.9508 163.793C-30.5022 165.939 -39.0412 170.975 -46.7481 175.139C-50.5198 177.177 -54.3143 179.183 -57.9069 181.532C-59.4991 182.573 -61.4377 183.665 -62.3705 185.373ZM146.919 194.787C145.18 194.567 140.554 193.109 139.063 194.054C138.183 194.612 138.312 196.593 138.202 197.512C137.834 200.571 137.387 203.623 137 206.679H115.179C111.821 206.679 107.756 207.307 104.474 206.584C101.934 206.025 99.3483 203.351 96.8286 202.332C90.2544 199.671 82.3508 199.21 75.5028 200.981C76.6468 198.965 79.1708 198.434 79.6368 195.778C80.3701 191.6 76.6533 187.39 74.2636 184.382C70.2868 179.377 66.0716 174.388 61.3586 170.051C58.7036 167.608 53.9931 164.897 52.1933 161.837C69.0628 162.185 84.3632 168.916 99.5562 175.431C107.604 178.882 115.438 183.106 124.106 184.726C130.082 185.843 136.232 186.736 141.96 188.855C144.818 189.912 147.311 191.473 146.919 194.787ZM12.0216 185.373H68.8075C68.16 182.122 64.6365 178.736 62.6082 176.206C58.763 171.412 54.117 165.595 48.2257 163.265C42.274 160.91 34.1762 162.085 27.8919 162.085C24.4999 162.085 21.1084 162.326 17.7286 162.206C16.6236 162.166 14.3331 161.61 13.4111 162.34C12.5296 163.037 12.7974 167.144 12.7691 168.279C12.6271 173.982 12.0216 179.659 12.0216 185.373ZM-202.149 162.835C-203.405 163.674 -201.961 165.244 -200.778 164.554C-199.344 163.72 -200.92 162.015 -202.149 162.835ZM188.12 162.84C186.625 163.664 188.183 165.511 189.492 164.693C190.795 163.879 189.333 162.171 188.12 162.84ZM56.9048 163.819C58.0335 165.749 60.4783 167.259 62.1122 168.78C66.1893 172.575 70.3209 176.321 74.5109 179.993C76.398 181.647 78.7599 184.496 81.2062 185.247C84.5053 186.26 88.7021 185.621 92.117 185.621H113.939C112.783 184.277 110.794 183.617 109.227 182.829C106.566 181.49 103.913 180.081 101.292 178.664C91.9002 173.589 82.2954 169.664 72.0312 166.757C67.1346 165.371 62.0173 163.819 56.9048 163.819ZM-195.78 169.517C-195.78 168.568 -196.208 166.214 -195.383 165.56C-194.775 165.08 -193.526 165.306 -192.805 165.306H-186.357C-185.649 165.306 -184.372 165.074 -183.783 165.56C-182.98 166.223 -183.907 167.696 -184.429 168.226C-185.979 169.798 -188.56 169.517 -190.573 169.517H-195.78ZM-67.33 183.639C-69.5559 189.059 -70.7841 194.428 -71.4747 200.238C-71.7256 202.347 -71.3945 204.636 -71.7935 206.679C-74.8626 205.949 -78.5494 207.369 -81.4645 206.466C-83.6369 205.794 -85.5504 203.693 -87.6638 202.722C-93.1037 200.224 -99.0636 199.357 -105.022 199.764C-109.227 200.052 -113.692 201.008 -117.421 203.04C-119.328 204.08 -121.109 206.027 -123.124 206.746C-124.569 207.262 -126.565 206.927 -128.084 206.927H-138.25L-134.531 196.026L-143.458 195.778L-138.746 193.584L-124.612 190.266L-89.1516 187.065L-75.5131 185.469L-67.33 183.639ZM-8.88191 195.042C-9.86567 195.785 -9.65893 197.874 -8.52713 198.354C-6.6163 199.164 -3.1895 198.503 -1.12103 198.503C-0.388487 198.503 0.808044 198.72 1.43234 198.249C2.41618 197.506 2.20944 195.416 1.07764 194.937C-0.833199 194.127 -4.26 194.787 -6.32847 194.787C-7.06101 194.787 -8.25753 194.571 -8.88191 195.042ZM59.9871 195.042C59.007 195.706 59.0715 197.855 60.1849 198.354C62.0941 199.209 65.729 198.503 67.8157 198.503C68.5268 198.503 69.5669 198.676 70.1878 198.249C71.1056 197.618 71.0368 195.408 69.9907 194.937C68.0871 194.079 64.4426 194.787 62.3602 194.787C61.6451 194.787 60.6132 194.617 59.9871 195.042ZM-89.1516 195.035C-89.303 195.85 -89.6099 196.927 -89.107 197.682C-88.5108 198.577 -85.1446 198.599 -84.3415 197.964C-82.117 196.204 -85.3901 195.035 -86.6716 195.035H-89.1516ZM-73.281 220.057C-74.4255 220.057 -76.6159 220.48 -77.5866 219.803C-78.7991 218.956 -79.5735 216.359 -80.3969 215.102C-82.0725 212.546 -84.3485 210.146 -86.9196 208.473C-96.027 202.548 -109.738 202.394 -118.412 209.284C-122.154 212.256 -124.453 216.138 -126.595 220.305L-130.563 220.057C-128.389 212.404 -123.25 206.091 -115.932 202.792C-100.675 195.916 -77.4294 202.151 -73.281 220.057ZM112.699 220.057C111.21 220.057 108.698 220.545 107.341 219.908C106.376 219.455 105.809 217.711 105.294 216.836C104.189 214.959 102.81 213.192 101.289 211.634C97.1018 207.346 91.5655 204.231 85.422 204.202C78.3534 204.168 72.2569 205.834 66.8464 210.578C64.9623 212.23 63.3445 214.225 62.0109 216.341C61.3793 217.343 60.8054 219.154 59.7841 219.803C58.786 220.436 56.8105 220.057 55.6652 220.057C56.2725 217.502 57.8618 215.041 59.3024 212.873C71.7986 194.064 106.471 196.836 112.699 220.057ZM-102.294 207.074C-107.783 207.272 -113.433 209.207 -117.378 213.162C-124.851 220.655 -123.552 232.92 -114.941 238.942C-110.318 242.176 -105.097 243.082 -99.5662 242.84C-96.9272 242.724 -94.2627 241.89 -91.8791 240.791C-89.6958 239.784 -87.61 238.326 -85.991 236.547C-84.4963 234.905 -83.2464 233.025 -82.4121 230.958C-77.2356 218.132 -89.9101 206.627 -102.294 207.074ZM-70.0574 220.057H-72.7851C-74.0164 214.742 -77.724 211.424 -80.7202 207.175L-74.2729 207.171L-71.9428 207.191L-71.4023 210.395L-70.0574 220.057ZM6.31848 206.927L8.05428 220.057L-68.8175 220.057L-70.3054 207.174H-19.2228H-2.85651L6.31848 206.927ZM62.3605 207.422C59.7248 209.719 57.8298 212.802 56.1811 215.845C55.6264 216.869 54.9067 219.397 53.8318 219.908C51.5009 221.015 46.5971 220.057 44.0105 220.057H19.957H12.5178C11.7429 220.057 10.3421 220.316 9.6918 219.802C9.05693 219.301 9.08311 217.59 8.95069 216.836C8.43709 213.912 7.55972 209.847 8.05428 206.927L21.4448 207.174H47.978L57.897 207.174L62.3605 207.422ZM80.7105 207.281C77.5288 207.736 74.5399 208.679 71.7835 210.352C62.4518 216.015 60.1358 228.58 67.8381 236.652C72.579 241.621 80.1903 243.732 86.9099 242.775C89.8241 242.36 92.8292 241.406 95.341 239.861C97.4636 238.554 99.3138 236.912 100.821 234.922C101.996 233.372 102.948 231.582 103.514 229.719C107.67 216.064 93.322 205.477 80.7105 207.281ZM113.195 220.057C111.923 214.707 108.017 211.437 105.012 207.175C115.344 207.175 125.677 207.125 136.009 207.175C139.161 207.19 145.562 207.304 147.731 209.994C149.37 212.027 149.952 219.143 146.67 219.979C143.512 220.783 139.271 220.057 136.009 220.057H113.195ZM-123.868 207.422C-126.251 211.23 -130.844 215.132 -130.811 220.057H-145.441C-148.2 220.057 -151.512 220.333 -154.119 219.262C-154.812 218.978 -155.523 218.559 -155.749 217.802C-156.061 216.749 -155.582 215.642 -155.435 214.607C-155.131 212.477 -156.004 209.286 -153.859 207.854C-151.979 206.599 -147.645 207.422 -145.441 207.422H-123.868ZM-126.843 220.553L-128.827 228.728H-140.73C-141.975 228.728 -144.261 229.164 -145.345 228.474C-147.241 227.266 -148.809 222.774 -149.905 220.801L-142.218 220.553H-126.843ZM-66.5858 228.728H-75.5128L-77.2486 220.553C-75.5432 220.553 -71.5973 219.816 -70.1839 220.807C-69.4963 221.29 -69.315 222.531 -69.0655 223.278C-68.4162 225.222 -67.3597 226.865 -66.5858 228.728ZM9.54212 228.728L-49.7235 228.728H-60.1384C-61.4543 228.728 -63.3983 229.082 -64.601 228.474C-66.9778 227.272 -68.2142 223.014 -68.3215 220.553H-9.55179H3.09486L7.90832 220.807L8.58275 223.03L9.54212 228.728ZM53.6815 220.553C53.4282 222.242 52.1886 227.465 50.7921 228.474C50.0578 229.004 48.5866 228.728 47.7301 228.728H40.2909H11.03L9.54212 220.801C13.6711 219.581 19.3654 220.553 23.6766 220.553H53.6815ZM59.6328 220.801L56.7655 228.474L52.4416 228.728C53.0644 224.574 54.5876 219.311 59.6328 220.801ZM143.944 220.553C142.799 222.589 141.92 226.725 139.966 228.052C137.839 229.496 133.739 228.728 131.297 228.728H109.971L107.492 220.801C110.931 219.785 115.56 220.553 119.146 220.553H143.944Z" fill="#304A6E"/>
</svg>
