<svg width="72" height="81" viewBox="0 0 72 81" fill="none" xmlns="http://www.w3.org/2000/svg">
<rect width="72" height="81" fill="#1A1E26"/>
<rect x="-858" y="-596" width="980" height="753" rx="4" fill="white"/>
<path d="M-248.027 -161.811C-252.937 -160.83 -257.408 -159.437 -261.127 -155.888C-268.166 -149.172 -268.021 -137.752 -260.673 -131.29C-255.361 -126.619 -247.925 -125 -241.084 -126.375C-237.975 -127 -234.92 -128.233 -232.404 -130.182C-230.556 -131.614 -228.963 -133.143 -227.776 -135.183C-220.982 -146.853 -229.628 -159.426 -242.075 -161.479C-244.049 -161.805 -246.013 -162.214 -248.027 -161.811ZM-62.7906 -161.763C-68.5445 -160.321 -73.7854 -158.767 -77.5415 -153.763C-83.6619 -145.609 -80.8002 -134.602 -72.4616 -129.259C-67.2485 -125.919 -60.5349 -125.124 -54.6075 -126.604C-46.6172 -128.601 -39.5458 -135.415 -39.761 -144.101C-39.9911 -153.386 -47.7473 -159.813 -56.3433 -161.423C-58.44 -161.816 -60.6601 -162.297 -62.7906 -161.763ZM-283.487 -125.273L-280.015 -116.106L-287.951 -115.633L-291.918 -115.115C-267.691 -103.296 -240.551 -108.31 -215.046 -102.261C-209.941 -101.05 -205.508 -98.4075 -200.912 -95.9849C-194.064 -92.3749 -187.049 -89.039 -180.082 -85.6684C-176.866 -84.1124 -173.576 -82.0168 -170.163 -80.9492C-158.683 -77.3583 -145.352 -78.2017 -133.463 -78.2017C-118.534 -78.2017 -103.92 -78.4111 -89.0758 -79.894C-80.66 -80.7347 -71.7241 -81.9237 -63.7825 -84.9383C-50.7382 -89.89 -38.3413 -96.8998 -25.0986 -101.269C-19.7521 -103.033 -13.9503 -103.385 -8.48438 -104.682C-3.0551 -105.969 5.84489 -107.577 3.91427 -114.868L-4.02085 -113.877C-4.65929 -116.465 -4.77481 -119.171 -5.15644 -121.804C-5.27681 -122.635 -5.7939 -124.16 -5.11031 -124.841C-4.09999 -125.848 -0.728856 -125.596 0.69047 -126.017C5.52149 -127.45 7.68959 -132.337 5.86579 -137.164C5.42792 -138.323 4.55538 -139.651 3.39502 -140.186C2.22349 -140.726 0.819324 -140.421 0.0491429 -141.651C-1.16174 -143.584 -0.969587 -146.074 -2.85312 -147.622C-4.85531 -149.267 -7.81224 -148.808 -10.2204 -148.808H-27.3306C-29.304 -148.808 -32.9075 -149.51 -34.6946 -148.659C-35.9684 -148.053 -36.5371 -143.464 -37.0491 -142.119C-38.7868 -137.555 -41.531 -133.061 -45.1847 -129.774C-53.9131 -121.924 -67.9689 -122.634 -76.4293 -130.498C-81.5998 -135.303 -84.4477 -142.006 -85.8523 -148.808L-179.09 -148.808H-207.359C-211.061 -148.808 -216.42 -149.81 -219.949 -148.73C-220.976 -148.415 -220.867 -146.699 -221.019 -145.835C-221.521 -142.981 -222.494 -140.241 -223.787 -137.66C-227.176 -130.893 -233.303 -125.986 -240.836 -124.644C-257.227 -121.725 -269.532 -132.932 -271.584 -148.808H-284.727C-286.17 -148.808 -288.854 -149.321 -290.117 -148.554C-292.386 -147.176 -293.211 -142.728 -294.854 -140.666C-296.154 -139.034 -298.896 -139.647 -300.456 -138.113C-301.638 -136.952 -301.042 -135.604 -300.888 -134.192C-300.597 -131.507 -301.236 -127.407 -298.61 -125.704C-297.276 -124.839 -295.415 -125.025 -293.902 -125.025C-290.422 -125.025 -286.973 -125.273 -283.487 -125.273ZM-272.824 -147.57L-270.841 -139.394L-293.654 -139.642C-293.044 -141.568 -290.947 -146.498 -289.138 -147.487C-287.934 -148.145 -285.584 -147.817 -284.231 -147.817C-280.418 -147.817 -276.625 -147.57 -272.824 -147.57ZM-210.583 -147.817L-213.098 -142.119L-214.181 -139.667L-221.246 -139.394L-219.51 -147.57L-210.583 -147.817ZM-134.455 -147.817L-135.943 -139.394C-155.216 -140.685 -174.892 -139.642 -194.217 -139.642C-198.798 -139.642 -203.554 -140.001 -208.103 -139.465C-208.999 -139.359 -211.991 -138.913 -212.194 -140.194C-212.332 -141.062 -211.721 -142.297 -211.447 -143.11C-210.968 -144.53 -210.227 -146.559 -208.825 -147.315C-207.751 -147.894 -205.6 -147.802 -204.384 -147.816C-201.161 -147.855 -197.936 -147.817 -194.713 -147.817H-154.293C-147.76 -147.817 -140.954 -147.243 -134.455 -147.817ZM-90.3158 -139.394L-110.65 -139.642L-134.207 -139.394L-134.455 -139.642L-132.967 -147.569C-123.484 -147.57 -113.954 -147.817 -104.45 -147.817C-101.572 -147.817 -95.9103 -148.899 -93.3604 -147.459C-91.8631 -146.614 -90.4852 -141.048 -90.3158 -139.394ZM-86.8442 -147.569L-84.6124 -139.394H-88.58L-91.5557 -147.569H-86.8442ZM-0.0534504 -139.642H-7.98862H-25.0988H-36.5056L-34.0258 -147.569H-12.7001C-10.242 -147.569 -6.21742 -148.328 -4.04435 -147.005C-1.75977 -145.614 -1.79579 -141.658 -0.0534504 -139.642ZM-274.808 -138.898C-274.343 -133.575 -269.991 -130.647 -267.865 -126.264C-275.15 -126.264 -282.434 -126.275 -289.687 -126.264C-291.89 -126.26 -296.182 -125.452 -298.049 -126.781C-299.911 -128.107 -299.195 -131.533 -299.401 -133.448C-299.506 -134.429 -299.955 -135.419 -299.793 -136.417C-299.659 -137.243 -299.094 -137.73 -298.362 -138.065C-295.112 -139.552 -291.129 -138.936 -287.703 -138.899C-283.548 -138.855 -278.883 -139.57 -274.808 -138.898ZM-217.278 -138.899C-221.541 -120.927 -245.436 -114.442 -260.674 -122.005C-267.756 -125.52 -272.158 -131.522 -274.56 -138.899C-269.415 -140.16 -268.582 -134.741 -265.775 -131.466C-262.392 -127.52 -257.845 -124.772 -252.739 -123.703C-244.817 -122.045 -235.861 -123.371 -229.429 -128.494C-227.152 -130.308 -225.326 -132.473 -223.782 -134.935C-223.102 -136.02 -222.501 -138.156 -221.391 -138.842C-220.448 -139.425 -218.286 -139.183 -217.278 -138.899ZM-214.055 -139.146L-215.79 -125.768C-218.365 -126.381 -222.143 -126.381 -224.717 -125.768L-220.608 -130.971L-216.534 -139.146H-214.055ZM-137.431 -126.016L-214.303 -126.016L-213.311 -135.43L-212.244 -138.86L-207.359 -138.921L-196.201 -138.899H-153.549H-140.902L-136.349 -138.879L-136.368 -135.678L-137.431 -126.016ZM-81.8844 -126.016H-135.943L-135.012 -135.678L-134.305 -138.841L-131.479 -138.902L-124.288 -138.898L-99.4906 -138.898L-93.2912 -138.92L-90.1712 -138.87L-87.7743 -134.687L-81.8844 -126.016ZM-31.2978 -138.898C-37.6863 -115.514 -73.1268 -112.84 -85.1549 -132.457C-86.3682 -134.436 -87.7868 -136.626 -88.3318 -138.898C-87.1637 -138.99 -85.5011 -139.53 -84.417 -138.892C-83.3452 -138.26 -82.7791 -136.443 -82.1129 -135.43C-80.7057 -133.291 -79.0764 -131.244 -77.1729 -129.526C-72.0711 -124.922 -65.6453 -122.88 -58.8229 -123.047C-52.5011 -123.201 -46.7814 -126.27 -42.4654 -130.727C-40.9702 -132.27 -39.6994 -134.082 -38.6014 -135.926C-38.0793 -136.802 -37.7045 -138.104 -36.8699 -138.739C-35.9826 -139.415 -32.3919 -139.21 -31.2978 -138.898ZM-38.985 -126.016L-34.1342 -131.962L-30.5539 -139.146C-22.8311 -137.714 -13.8627 -138.886 -6.0045 -138.899C-3.62715 -138.902 1.12544 -140.111 3.15977 -138.749C5.74318 -137.02 5.50871 -130.933 3.59126 -128.774C2.5732 -127.628 0.651732 -127.167 -0.797053 -126.871C-6.09801 -125.788 -11.5376 -126.016 -16.9154 -126.016H-38.985ZM-215.79 -125.52L-214.426 -112.142L-211.575 -102.48C-229.128 -107.168 -247.493 -106.157 -265.385 -108.642C-270.662 -109.374 -275.907 -110.429 -281.007 -111.964C-283.079 -112.588 -285.689 -113.095 -287.454 -114.372C-285.032 -115.087 -281.008 -115.351 -278.527 -114.867C-278.328 -118.164 -281.301 -122.693 -282.495 -125.768H-272.08C-270.574 -125.768 -268.556 -126.116 -267.121 -125.622C-265.209 -124.965 -263.506 -123.065 -261.665 -122.116C-257.248 -119.839 -252.254 -118.644 -247.283 -118.585C-242.13 -118.523 -236.888 -119.253 -232.156 -121.386C-229.848 -122.427 -227.802 -124.573 -225.461 -125.375C-222.777 -126.293 -218.627 -125.52 -215.79 -125.52ZM-137.431 -125.52L-134.207 -79.4403C-145.374 -79.4403 -157.551 -78.7377 -168.427 -81.6736C-171.642 -82.5414 -174.634 -84.3424 -177.602 -85.8149C-182.468 -88.2283 -187.371 -90.5762 -192.233 -93.0049C-196.549 -95.1609 -200.934 -97.2206 -205.127 -99.6118C-206.527 -100.41 -208.786 -100.964 -209.751 -102.298C-214.101 -108.309 -214.302 -118.444 -214.302 -125.52L-137.431 -125.52ZM-135.587 -125.371C-134.398 -125.974 -132.051 -125.52 -130.735 -125.52H-118.833H-93.0432C-89.474 -125.52 -84.561 -126.403 -81.1405 -125.393C-79.252 -124.836 -77.67 -122.944 -75.933 -122.001C-72.8487 -120.325 -67.5626 -118.995 -65.9456 -115.611C-64.2228 -112.005 -67.9854 -107.387 -70.0138 -104.71C-74.1151 -99.2983 -78.8249 -94.3883 -83.6202 -89.5977C-86.7196 -86.5014 -90.3497 -82.8837 -94.2831 -80.8571C-96.6511 -79.6371 -99.8906 -80.1386 -102.466 -79.8937C-109.486 -79.2263 -116.486 -79.1925 -123.544 -79.1925H-130.239C-130.952 -79.1928 -132.2 -78.9912 -132.712 -79.6242C-133.461 -80.5489 -133.171 -83.4653 -133.225 -84.6429C-133.419 -88.9157 -133.595 -93.2666 -134.001 -97.5255C-134.675 -104.606 -135.931 -111.705 -135.943 -118.831C-135.943 -120.149 -137.007 -124.651 -135.587 -125.371ZM-5.26058 -112.638L2.92255 -113.629C2.92218 -109.766 0.152701 -108.394 -3.27677 -107.333C-9.05525 -105.546 -14.9752 -104.673 -20.8829 -103.47C-29.4733 -101.721 -37.4353 -97.3898 -45.4323 -93.9145C-60.4646 -87.3817 -75.4181 -81.3924 -92.0514 -80.679C-89.631 -83.812 -85.409 -86.4017 -82.4609 -89.1299C-77.784 -93.4581 -73.5372 -98.4365 -69.5684 -103.41C-67.1819 -106.401 -62.7553 -111.718 -64.7169 -115.858C-65.5153 -117.544 -67.1356 -118.433 -68.4938 -119.575C-67.1822 -119.769 -65.8546 -119.193 -64.5263 -119.101C-60.9329 -118.854 -57.1798 -118.739 -53.6154 -119.404C-50.1906 -120.042 -47.0186 -121.248 -43.9445 -122.859C-42.5502 -123.589 -41.2321 -124.95 -39.7289 -125.393C-38.0357 -125.893 -35.7827 -125.52 -34.0255 -125.52H-22.3708H-11.2119C-10.1889 -125.52 -7.9884 -125.932 -7.14606 -125.266C-6.45153 -124.716 -6.57302 -122.632 -6.50048 -121.804C-6.23766 -118.806 -5.96544 -115.561 -5.26058 -112.638ZM-36.7532 -119.691C-39.4946 -119.058 -41.0078 -115.68 -39.1352 -113.392C-37.7684 -111.721 -35.5308 -111.354 -33.5296 -111.909C-30.7741 -112.673 -29.5643 -116.079 -31.4362 -118.29C-32.6936 -119.775 -34.9307 -120.112 -36.7532 -119.691ZM-152.282 -117.409C-153.813 -117.08 -153.904 -114.364 -152.524 -113.778C-150.799 -113.047 -144.644 -113.047 -142.919 -113.778C-141.62 -114.329 -141.607 -116.805 -142.941 -117.327C-143.74 -117.64 -144.778 -117.355 -145.613 -117.346C-147.667 -117.322 -150.297 -117.834 -152.282 -117.409ZM-83.5868 -117.445C-84.9937 -117.015 -85.1081 -114.439 -83.799 -113.813C-81.9796 -112.942 -78.4324 -113.629 -76.4287 -113.629C-75.6993 -113.629 -74.6978 -113.463 -74.0181 -113.778C-72.7488 -114.368 -72.9943 -116.857 -74.224 -117.333C-75.0685 -117.66 -76.0505 -117.37 -76.9246 -117.349C-78.9122 -117.301 -81.7127 -118.017 -83.5868 -117.445ZM-233.148 -117.097C-233.299 -116.282 -233.606 -115.206 -233.103 -114.451C-232.493 -113.534 -229.087 -113.526 -228.338 -114.274C-226.367 -116.243 -229.274 -117.097 -230.668 -117.097H-233.148ZM-87.0913 -82.6609C-81.7526 -82.7051 -76.2965 -84.3752 -71.221 -85.9102C-61.6214 -88.8136 -52.8775 -92.391 -43.9439 -96.9662C-39.4608 -99.262 -33.6726 -101.234 -29.8094 -104.462C-33.3785 -105.075 -37.3416 -104.71 -40.9682 -104.71C-45.7235 -104.71 -50.6244 -105.043 -55.3506 -104.534C-57.894 -104.26 -60.866 -105.014 -63.2858 -103.946C-65.34 -103.039 -67.078 -101.01 -68.7412 -99.5459C-72.0798 -96.606 -75.436 -93.6628 -78.6602 -90.5983C-81.238 -88.148 -85.321 -85.7492 -87.0913 -82.6609ZM-206.367 -104.215C-205.63 -102.761 -203.973 -101.827 -202.647 -100.931C-199.618 -98.8842 -196.434 -97.0619 -193.224 -95.3159C-184.473 -90.5552 -174.937 -84.9509 -165.203 -82.5309C-161.233 -81.544 -157.106 -81.4494 -153.052 -81.1525C-148.958 -80.8526 -144.759 -80.679 -140.654 -80.679C-139.719 -80.679 -137.339 -80.2534 -136.693 -81.0762C-135.863 -82.1335 -136.756 -86.0643 -136.934 -87.368C-137.699 -92.9479 -137.715 -98.6248 -138.422 -104.215L-206.367 -104.215ZM-132.222 -103.967C-130.979 -98.7478 -131.456 -92.4861 -131.221 -87.1203C-131.17 -85.971 -131.478 -81.8878 -130.585 -81.1813C-129.637 -80.4308 -127.604 -81.1173 -126.519 -81.1647C-123.03 -81.3173 -119.581 -80.9267 -116.104 -80.9267C-109.95 -80.9267 -102.152 -79.9399 -96.2663 -82.0136C-89.9183 -84.2504 -84.5005 -90.7897 -80.6405 -96.039C-78.8477 -98.4771 -75.9619 -101.235 -75.1885 -104.215L-114.12 -104.215H-126.023L-132.222 -103.967ZM59.4611 -42.0311C58.6185 -45.5667 59.2131 -49.7989 59.2131 -53.4273V-75.7241C59.2131 -78.6872 59.7507 -82.2475 59.0818 -85.1383C58.0117 -89.7636 53.2062 -88.3925 50.0746 -89.7472C48.8777 -90.265 48.7887 -91.8438 47.3104 -92.3246C45.7863 -92.8204 43.5547 -92.7514 42.1029 -92.0627C41.2291 -91.6481 40.3979 -90.5386 39.3752 -90.5774C37.3076 -90.6559 35.5193 -92.8567 33.4238 -93.0743C30.8551 -93.3412 26.5303 -90.0385 24.2489 -88.9149C23.4099 -88.5017 22.0529 -88.0934 21.528 -87.2713C20.7228 -86.0103 21.2732 -83.1306 21.2732 -81.6699V-67.5486V-14.0361V1.57166C21.2732 3.02651 20.6824 6.14876 21.528 7.3766C22.1027 8.21111 23.6091 8.39208 24.4968 8.73422C26.8249 9.63157 31.4509 12.3549 33.9198 11.8434C35.7101 11.4725 37.4855 9.38872 39.3044 9.39257C40.1203 9.39406 40.9139 10.3902 41.607 10.7582C43.0078 11.5021 45.0233 11.7169 46.5665 11.3495C48.1828 10.9646 48.6779 9.51762 50.0488 8.88352C53.0237 7.50753 56.8393 7.94551 58.6481 4.54457C60.0924 1.82891 59.2131 -2.85651 59.2131 -5.86063V-29.8917C59.2131 -32.7042 58.2381 -37.6867 59.3627 -40.2602C59.8361 -41.3435 61.4855 -41.0401 62.4367 -41.0401C64.129 -41.0401 66.2429 -41.3783 67.8824 -40.9336C69.0898 -40.6062 69.9388 -39.3228 71.3072 -40.1281C72.5839 -40.8795 71.9443 -42.6262 70.6187 -42.8336C69.6231 -42.9894 68.6475 -42.2277 67.6442 -42.1584C65.0209 -41.9772 61.985 -42.5794 59.4611 -42.0311ZM-326.634 -61.6028C-326.634 -67.517 -326.527 -73.513 -326.382 -79.4403C-326.322 -81.8909 -325.455 -84.8865 -326.88 -87.1165C-329.369 -91.0107 -335.453 -89.6526 -339.277 -89.8688C-341.193 -89.9771 -342.541 -92.428 -344.736 -92.744C-346.134 -92.9453 -348.012 -92.8104 -349.144 -91.876C-349.783 -91.3481 -349.967 -90.3425 -350.743 -89.9948C-353.761 -88.6419 -357.652 -89.8189 -359.501 -86.1293C-360.346 -84.4438 -359.862 -81.7777 -359.862 -79.9357V-66.3099V-17.2568V-2.39223C-359.862 -0.358531 -360.364 2.45032 -359.386 4.29665C-357.459 7.93456 -353.731 7.16345 -350.697 8.76288C-348.637 9.84861 -347.954 11.6742 -345.232 11.4068C-342.779 11.1659 -341.241 8.96264 -339.032 8.77071C-335.602 8.47253 -331.215 9.64444 -328.144 7.64651C-324.542 5.3031 -326.138 -2.84323 -326.138 -6.60386C-326.138 -10.3372 -325.158 -15.6321 -326.217 -19.202C-326.617 -20.5528 -328.73 -19.9786 -329.057 -21.72C-329.509 -24.1237 -329.113 -26.9509 -329.113 -29.3962V-44.7563V-57.3911C-329.113 -59.2926 -328.855 -61.2593 -326.634 -61.6028ZM31.1922 -78.9448L22.7611 -86.3771V-86.8725C26.7542 -88.7629 31.6086 -92.8893 35.9037 -90.776C37.4942 -89.9934 39.9079 -89.427 39.2965 -87.1425C39.0077 -86.0636 37.6935 -85.1645 36.9053 -84.4408C34.9723 -82.666 32.9105 -80.9294 31.1922 -78.9448ZM-346.967 -91.4944C-345.119 -91.8754 -342.4 -91.324 -341.662 -89.349C-341.163 -88.0153 -341.512 -86.0524 -341.512 -84.6429C-341.512 -80.9144 -341.878 -76.9448 -341.441 -73.2467C-340.63 -66.3799 -341.264 -59.1056 -341.264 -52.1885V-12.0542C-341.264 -8.445 -341.489 -4.75398 -341.242 -1.15352C-341.059 1.51044 -340.37 5.11291 -341.095 7.72316C-341.496 9.16752 -343.391 9.97011 -344.736 10.1681C-346.015 10.3564 -347.739 10.2535 -348.449 8.97793C-349.139 7.73599 -348.703 5.43498 -348.703 4.04908V-7.84257V-69.0351V-86.1293C-348.703 -87.9667 -349.367 -90.9995 -346.967 -91.4944ZM44.8307 -91.4858C45.8564 -91.5487 47.4002 -91.3533 47.8702 -90.2941C48.4822 -88.915 48.0543 -86.6261 48.0543 -85.1383V-72.9989V-11.8064V5.04007C48.0543 7.03037 48.5578 10.0033 45.8225 10.2283C44.138 10.3669 41.8204 10.1594 40.9075 8.48534C40.2044 7.19621 40.6151 4.98156 40.6151 3.55362V-8.09031V-69.5305V-82.4132C40.6151 -84.3523 40.248 -86.7202 40.719 -88.6067C41.1832 -90.4663 43.0478 -91.3764 44.8307 -91.4858ZM-350.191 -88.8545V-23.6981V-3.13546L-349.943 7.26974C-352.627 7.94677 -357.396 6.01817 -358.347 3.3049C-358.927 1.65155 -358.622 -0.416218 -358.622 -2.14448V-12.7976V-68.0442V-81.1746C-358.622 -82.9633 -358.917 -85.1641 -357.574 -86.5783C-355.622 -88.6335 -352.69 -88.2602 -350.191 -88.8545ZM-327.378 -84.643L-340.024 -84.3953V-88.6069C-335.846 -88.9363 -328.621 -89.9836 -327.378 -84.643ZM49.5421 7.76508L49.2942 7.51733L49.5421 -6.35626V-32.617V-68.5397L49.2942 -88.3591C51.6602 -89.0091 56.3854 -88.112 57.475 -85.6118C58.1089 -84.1571 57.7228 -81.9897 57.7253 -80.4314V-69.2829V-12.0544C57.7253 -8.34804 57.5809 -4.60856 57.7438 -0.905925C57.8276 0.999022 58.1834 3.19552 56.8835 4.78146C55.217 6.81484 51.9794 7.29259 49.5421 7.76508ZM22.761 -85.8817L30.4482 -78.6972V-78.2017L22.761 -71.2649L22.5129 -81.1746L22.761 -85.8817ZM39.3752 -85.8817V-70.7694C36.4918 -72.305 33.0654 -76.0403 31.1921 -78.6972L39.3752 -85.8817ZM-315.723 3.8012H-307.044V-19.2389V-66.31V-79.4404L-307.13 -84.2458L-309.028 -84.643L-315.358 -84.4935L-315.723 -79.4404V-63.3371V3.8012ZM-289.19 -84.3953C-290.615 -76.8373 -291.403 -69.1631 -292.814 -61.6029C-293.143 -59.8412 -294.724 -58.5665 -294.964 -56.8958C-295.568 -52.6798 -294.893 -47.7983 -294.893 -43.5177C-294.893 -37.1746 -295.496 -30.5073 -294.867 -24.1937C-294.688 -22.3959 -293.216 -21.0198 -292.827 -19.2389C-291.25 -12.0277 -289.263 -3.80878 -288.942 3.55345H-237.611C-229.214 3.55345 -220.427 4.30451 -212.07 3.52766C-209.202 3.26103 -206.272 2.1259 -203.433 1.57613C-193.364 -0.373399 -183.364 -3.0558 -173.243 -4.69181C-167.317 -5.64973 -161.025 -5.3607 -155.036 -5.62277C-144.789 -6.07107 -134.563 -6.40555 -124.287 -6.35606C-109.945 -6.28694 -95.1684 -6.43833 -80.8918 -5.07546C-62.4984 -3.31961 -44.4701 1.92285 -26.0897 3.75896C-16.135 4.7534 -5.59813 3.80119 4.4111 3.80119C5.41769 -3.98688 7.32971 -11.6524 8.08859 -19.4867C8.74785 -26.2924 8.13099 -33.4572 8.13099 -40.297C8.13099 -47.7315 8.71593 -55.453 7.92417 -62.8416C7.36214 -68.0866 6.58638 -73.2744 5.55211 -78.4494C5.26347 -79.8938 5.26504 -82.9076 4.19885 -83.9919C3.34498 -84.8603 0.357171 -84.3953 -0.796054 -84.3953H-15.1785C-36.073 -84.3953 -57.0275 -78.8812 -77.6678 -75.8286C-82.7841 -75.072 -87.8935 -75.1965 -93.0422 -74.9713C-104.776 -74.458 -116.487 -74.2567 -128.254 -74.2378C-139.307 -74.22 -150.433 -74.2028 -161.483 -74.9589C-165.586 -75.2396 -169.805 -74.9212 -173.882 -75.5499C-183.761 -77.0738 -193.656 -80.1813 -203.39 -82.4714C-205.905 -83.0631 -208.517 -84.0425 -211.078 -84.3496C-218.059 -85.1869 -225.616 -84.3953 -232.651 -84.3953C-251.425 -84.3953 -270.443 -83.5062 -289.19 -84.3953ZM-327.377 -83.8998L-327.625 -81.1746H-327.873V-83.6521H-339.776V-72.7514L-340.272 -81.1746L-339.697 -83.8222L-336.056 -83.8998H-327.377ZM-307.539 3.30568H-315.227V-84.1475C-313.581 -84.1475 -309.241 -84.9251 -307.937 -83.8929C-306.98 -83.1361 -307.539 -79.8184 -307.539 -78.6972V-62.8416V3.30568ZM-355.394 -83.7381C-358.255 -82.813 -357.845 -74.1053 -353.415 -75.3708C-350.268 -76.2699 -350.604 -85.2868 -355.394 -83.7381ZM-345.714 -83.4213C-347.266 -83.0008 -346.532 -80.7753 -344.998 -81.3289C-343.559 -81.848 -344.316 -83.7999 -345.714 -83.4213ZM52.7771 -83.4681C51.4073 -82.9104 51.5268 -81.4129 51.5264 -80.1836C51.5256 -77.699 51.7999 -73.9131 55.483 -75.4127C56.9308 -76.0021 56.7337 -77.6631 56.7338 -78.9449C56.7339 -81.4533 56.3855 -84.9372 52.7771 -83.4681ZM-354.899 -83.2967C-351.443 -84.2588 -351.432 -76.4379 -353.668 -75.8326C-357.199 -74.8772 -357.171 -82.6642 -354.899 -83.2967ZM44.1428 -83.2192C42.6835 -82.5665 43.9951 -80.807 45.2893 -81.3279C46.7886 -81.9314 45.5107 -83.8311 44.1428 -83.2192ZM53.7581 -83.2774C57.1794 -83.8579 57.2588 -76.2357 54.745 -75.781C51.1963 -75.1391 51.2685 -82.8549 53.7581 -83.2774ZM-212.319 -83.1565V-82.9088L-263.153 -67.2528L-282.247 -61.3896L-292.414 -58.3823C-290.294 -63.7978 -289.971 -70.4581 -289.158 -76.2197C-288.957 -77.6439 -288.958 -81.9938 -287.801 -82.9019C-286.772 -83.7098 -283.762 -83.1565 -282.495 -83.1565H-268.113L-212.319 -83.1565ZM-25.6204 -83.0491C-24.3 -82.9967 -23.3291 -80.693 -22.775 -79.6881C-20.6955 -75.9169 -19.2202 -71.9965 -18.2981 -67.7965C-16.2597 -58.5114 -17.1635 -48.5172 -17.1635 -39.0583C-17.1635 -31.2122 -16.3205 -22.7375 -18.0127 -15.0273C-19.0403 -10.3446 -20.4464 -5.68188 -22.6456 -1.40139C-23.3359 -0.057895 -24.0438 2.49202 -25.8435 2.52577C-29.6447 2.59704 -33.7544 1.28976 -37.4973 0.68912C-46.8347 -0.809222 -56.1615 -2.43446 -65.5183 -3.81153C-68.8308 -4.29907 -72.1199 -4.90583 -75.4372 -5.36529C-76.4495 -5.50549 -78.6995 -5.51411 -79.4203 -6.29242C-80.1707 -7.10269 -80.306 -9.02262 -80.5395 -10.0724C-81.2478 -13.2588 -82.0307 -16.4938 -82.419 -19.7344C-83.1653 -25.9621 -82.8764 -32.2938 -82.8764 -38.5628C-82.8764 -45.3226 -83.1233 -52.1419 -82.6506 -58.8777C-82.3767 -62.7819 -81.457 -66.4772 -80.559 -70.2739C-80.2932 -71.3977 -80.2915 -73.4511 -79.2784 -74.1971C-78.2937 -74.9221 -76.3673 -74.8573 -75.1893 -75.0774C-71.6606 -75.7365 -68.0734 -76.2359 -64.5264 -76.7833C-55.6779 -78.1486 -46.8228 -79.5553 -37.9932 -81.0347C-34.124 -81.6829 -29.5354 -83.2044 -25.6204 -83.0491ZM3.41835 2.56249C-3.23713 3.79688 -10.8898 2.81023 -17.6594 2.81023C-19.6434 2.81023 -21.9296 2.43411 -23.8588 2.81023C-24.0164 0.452411 -21.3782 -2.87228 -20.4864 -5.11753C-18.4461 -10.2545 -17.2324 -15.4855 -16.7096 -20.9731C-15.953 -28.9159 -16.6672 -37.2701 -16.6672 -45.2519C-16.6672 -52.0546 -15.946 -59.3655 -17.3283 -66.0623C-18.0999 -69.8007 -19.1753 -73.5141 -20.8292 -76.963C-21.7986 -78.9845 -23.5504 -81.0147 -24.1064 -83.1565H-4.26856C-2.6207 -83.1565 1.67185 -83.9268 2.99023 -82.9019C4.10536 -82.035 4.09787 -78.7731 4.36099 -77.4584C5.45128 -72.0112 6.50929 -66.4179 6.64594 -60.8597C6.9569 -48.2067 7.73533 -35.1096 6.86807 -22.4595C6.29391 -14.0838 3.77692 -5.7781 3.41835 2.56249ZM-212.566 -82.1656C-215.191 -75.0044 -220.4 -68.941 -222.227 -61.3552C-223.559 -55.8252 -222.733 -49.4266 -222.733 -43.7654C-222.733 -35.2634 -224.091 -25.4657 -221.633 -17.2569C-219.557 -10.3282 -215.067 -4.7118 -212.318 1.81926C-218.769 0.947172 -225.724 -2.28287 -231.908 -4.35558C-244.573 -8.60019 -257.412 -12.3313 -270.096 -16.5139C-275.618 -18.3346 -281.15 -20.1274 -286.71 -21.8241C-288.994 -22.521 -291.287 -23.5967 -293.654 -23.946V-38.5628C-292.225 -38.5006 -289.723 -37.1232 -288.456 -37.7732C-285.092 -39.4986 -284.619 -44.5918 -288.704 -45.8225C-289.974 -46.2053 -292.18 -45.1481 -293.406 -44.7564L-293.654 -54.1706L-293.079 -57.4274L-285.966 -59.746L-269.104 -64.9287L-229.429 -77.1415L-212.566 -82.1656ZM-213.062 -79.9359C-213.501 -75.5376 -215.315 -71.2611 -215.748 -66.8055C-216.387 -60.2315 -215.88 -53.582 -216.042 -46.9861C-216.295 -36.6303 -217.26 -25.8434 -216.244 -15.5227C-215.735 -10.3512 -213.969 -5.44193 -212.814 -0.410436H-213.062C-217.016 -6.86406 -220.934 -14.1666 -222.157 -21.7163C-223.338 -29.0065 -222.237 -37.3642 -222.237 -44.7564C-222.237 -49.4173 -222.821 -54.5125 -222.163 -59.1255C-221.514 -63.6736 -219.259 -67.8951 -217.354 -72.0081C-216.153 -74.6028 -214.892 -77.7297 -213.062 -79.9359ZM38.3829 -70.5217H23.2565L28.712 -76.2197L30.9437 -77.7257L33.1754 -75.972L38.3829 -70.5217ZM-46.672 -77.3533C-54.4447 -76.3337 -62.1131 -74.8682 -69.7336 -72.9677C-71.628 -72.4953 -76.1116 -72.3088 -77.4562 -70.8686C-78.2195 -70.051 -78.296 -68.1159 -78.5118 -67.0533C-79.1588 -63.8657 -79.8992 -60.6632 -79.9004 -57.3913V-23.6983C-79.9004 -20.285 -79.3716 -16.8963 -78.7658 -13.5408C-78.5803 -12.513 -78.6032 -10.5445 -77.7707 -9.80843C-76.9797 -9.10909 -75.4381 -9.03847 -74.4451 -8.83294C-71.9582 -8.31819 -69.4817 -7.69771 -67.0059 -7.12893C-58.2382 -5.11474 -49.4855 -3.38335 -40.4726 -3.38335C-38.174 -3.38335 -35.5616 -3.03485 -33.296 -3.42006C-31.609 -3.70687 -32.5375 -7.57133 -32.5375 -8.8337V-26.1757V-64.5758C-32.5375 -67.7113 -32.6067 -70.8555 -32.5375 -73.9901C-32.5182 -74.8343 -31.97 -76.5669 -32.7313 -77.2038C-33.4974 -77.8447 -35.5654 -77.4585 -36.5087 -77.4585C-39.8407 -77.4585 -43.3708 -77.7868 -46.6757 -77.3533M-81.144 -74.2378L-84.1099 -58.8778L-84.1196 -37.3241L-84.0772 -21.9641L-81.1436 -6.10853L-90.5667 -6.61376L-108.669 -7.10045L-145.369 -7.33748L-173.142 -5.86077L-175.103 -19.7344L-175.126 -37.8196L-175.116 -60.3642L-173.142 -74.2378L-141.153 -73.0027L-104.701 -73.4909L-81.144 -74.2378ZM-339.78 -72.0081V-70.7694H-340.028L-339.78 -72.0081ZM-338.292 -70.2739V-10.0724H-339.78L-340.028 -70.2739H-338.292ZM-337.222 -70.1233C-335.562 -70.9047 -335.565 -68.7792 -335.565 -67.7965V-58.1345V-21.7163V-13.0453C-335.565 -12.2603 -335.266 -10.6844 -336.139 -10.2575C-337.676 -9.50621 -337.794 -11.3119 -337.796 -12.3021V-20.9731V-57.1435V-66.8055C-337.796 -67.6513 -338.171 -69.6762 -337.222 -70.1233ZM-335.069 -10.0724V-70.2739L-333.092 -69.8767L-332.837 -66.8055V-59.1255V-22.7073V-13.7885L-333.092 -10.4696L-335.069 -10.0724ZM-327.878 -70.2739V-62.5939C-331.276 -61.2499 -330.605 -56.8729 -330.605 -53.9229V-28.1576C-330.605 -25.0514 -331.749 -19.7367 -327.63 -18.9911L-327.382 -10.3201C-328.315 -10.0446 -331.391 -9.5637 -332.09 -10.4723C-332.66 -11.2134 -332.341 -12.9059 -332.341 -13.7885V-22.2118V-58.63V-67.0533C-332.341 -67.8339 -332.643 -69.466 -331.943 -70.0193C-331.098 -70.6882 -328.911 -70.2739 -327.878 -70.2739ZM27.7165 -69.5307C28.7129 -66.163 27.9645 -61.6473 27.9645 -58.1345C24.8959 -58.0982 25.9807 -53.9858 25.9807 -51.6932V-30.3873C25.9807 -28.0025 24.7811 -22.9927 27.9645 -22.955V-10.8156L22.9067 -11.0703L22.509 -14.7795V-25.1847V-69.2829L27.7165 -69.5307ZM35.8997 -69.5307V-55.4093V-26.9189L36.1476 -11.0634L28.4604 -10.8156V-22.955C31.1468 -23.1598 30.1963 -27.4124 30.1963 -29.3963V-50.7022C30.1963 -52.7808 31.2541 -57.9216 28.4604 -58.1345V-66.31L28.8581 -69.2761L35.8997 -69.5307ZM39.1233 -69.5307L39.3713 -63.0894V-50.95V-10.8156H36.6436V-55.6571V-65.5668L36.8984 -69.1333L39.1233 -69.5307ZM-152.808 -61.4978C-155.953 -61.0802 -158.851 -60.1093 -160.487 -57.1435C-161.837 -54.6948 -161.487 -51.9097 -161.487 -49.2158V-34.3512C-161.487 -30.5697 -162.417 -25.4709 -160.089 -22.2118C-156.968 -17.8426 -151.314 -18.4957 -146.609 -18.4957C-144.662 -18.4957 -142.587 -18.2945 -140.658 -18.57C-129.883 -20.108 -132.474 -32.3156 -132.474 -40.297C-132.474 -45.0227 -131.107 -52.3164 -133.159 -56.6481C-136.194 -63.0542 -146.897 -62.2827 -152.808 -61.4978ZM-152.808 -61.0367C-147.17 -61.7104 -136.85 -62.596 -133.843 -56.6481C-131.607 -52.227 -132.97 -44.9048 -132.97 -40.0493C-132.97 -33.5644 -130.445 -20.511 -139.666 -19.2836C-145.294 -18.5345 -156.161 -17.2223 -159.694 -22.7494C-161.742 -25.955 -160.991 -30.4827 -160.991 -34.1035V-47.4816C-160.991 -54.0507 -160.762 -60.0863 -152.808 -61.0367ZM29.7003 -57.3913V-23.6983L26.7247 -23.4505L26.4767 -34.3512V-57.3913H29.7003ZM-346.291 -55.1545C-347.426 -54.2289 -345.698 -52.5791 -344.604 -53.5771C-343.485 -54.5984 -345.325 -55.9417 -346.291 -55.1545ZM44.1396 -55.2216C42.702 -54.6003 43.9752 -52.6022 45.2861 -53.2473C46.7601 -53.9727 45.5067 -55.8124 44.1396 -55.2216ZM-101.23 -46.7383C-99.9615 -44.138 -96.199 -41.878 -94.0384 -39.9786C-93.0059 -39.0708 -92.2045 -38.0997 -90.8148 -37.8196L-97.1569 -43.5186L-101.23 -46.7383ZM-293.161 -39.8015V-43.7654C-291.893 -44.056 -289.926 -45.0849 -288.701 -44.3494C-286.507 -43.0323 -286.397 -39.7532 -289.197 -39.0031C-290.365 -38.6902 -292.019 -39.54 -293.161 -39.8015ZM-345.483 -27.4226C-346.907 -27.3348 -346.964 -25.2581 -345.483 -25.2581C-343.9 -25.2581 -343.847 -27.5235 -345.483 -27.4226ZM44.1394 -27.2267C42.6714 -26.5948 43.9247 -24.5886 45.2859 -25.2744C46.7535 -26.0137 45.4959 -27.8106 44.1394 -27.2267ZM-292.665 -23.4505L-282.994 -20.2228L-264.644 -14.3473L-213.314 2.06699V2.31474H-266.628H-281.259C-282.876 2.31474 -285.898 2.90137 -287.35 2.16525C-288.507 1.5792 -288.551 -2.43006 -288.76 -3.63109C-289.649 -8.74738 -290.714 -13.8512 -291.458 -18.9911C-291.66 -20.3856 -293.02 -22.1527 -292.665 -23.4505ZM38.8753 -9.82467C37.7525 -7.41912 35.0252 -5.72345 33.1719 -3.87884C32.6089 -3.31839 31.8186 -2.2143 30.9412 -2.19223C30.0305 -2.16934 29.1801 -3.35806 28.5971 -3.93103C26.8983 -5.60051 23.7428 -7.53032 23.005 -9.82467H38.8753ZM-327.63 -9.57692L-327.382 2.56248C-330.752 3.55792 -335.272 2.81022 -338.788 2.81022V2.56248H-327.878C-327.878 -0.853378 -328.946 -6.44248 -327.63 -9.57692ZM23.005 -8.83369C25.293 -6.54789 29.0691 -4.0997 30.4443 -1.15366L22.7571 5.78313L22.509 -4.86981L23.005 -8.83369ZM39.3713 -8.83369V6.03088C37.0875 4.96684 32.1266 0.560971 31.4361 -1.89689L39.3713 -8.83369ZM-355.154 -5.20262C-358.234 -4.26276 -357.959 4.62526 -353.42 3.24645C-350.308 2.30109 -350.734 -6.55129 -355.154 -5.20262ZM53.011 -4.93364C50.0712 -3.79505 50.6669 4.94571 55.237 3.34183C58.1397 2.32311 57.6542 -6.73208 53.011 -4.93364ZM-353.672 -4.63716C-351.529 -4.21143 -351.3 3.43192 -354.896 2.75346C-357.188 2.32096 -357.218 -5.34179 -353.672 -4.63716ZM53.2723 -4.49456C57.1758 -5.75478 57.2879 2.12987 54.9792 2.85515C51.2371 4.03073 51.3118 -3.86159 53.2723 -4.49456ZM-291.921 34.2736V34.5213L-280.019 35.5123C-281.23 37.6385 -281.971 42.8843 -284.054 44.1764C-285.124 44.8396 -286.795 44.2437 -287.954 44.1931C-290.882 44.0649 -295.99 43.3013 -298.593 44.7786C-301.31 46.3197 -300.552 50.7509 -300.923 53.3498C-301.108 54.6488 -301.518 55.826 -300.631 56.9906C-299.435 58.5597 -296.732 58.902 -294.897 59.0479L-291.511 65.7369L-289.857 67.8171L-284.482 67.9666H-271.588C-269.657 52.7856 -258.045 41.0625 -242.079 43.5488C-234.203 44.7752 -227.695 49.1886 -224.004 56.3227C-222.558 59.1171 -221.718 61.9422 -221.031 64.9937C-220.837 65.8515 -220.974 67.5749 -219.952 67.8879C-216.424 68.9687 -211.064 67.9666 -207.362 67.9666H-179.093L-85.8553 67.9666C-84.3855 60.8522 -81.4313 54.1209 -75.9364 49.1804C-67.754 41.8235 -54.0053 41.0297 -45.6128 48.5232C-41.6657 52.0475 -38.9776 56.3888 -37.0549 61.2776C-36.5276 62.6182 -35.965 67.2025 -34.6949 67.8171C-32.6017 68.83 -28.5928 67.8271 -26.3417 67.7286C-19.772 67.4412 -13.0203 68.5546 -6.50382 67.9246C-4.1023 67.6924 -2.27642 66.8298 -1.30114 64.4982C-0.756742 63.1967 -0.644122 61.4333 0.35236 60.3653C1.85739 58.7524 4.18022 59.4879 5.50856 57.0659C6.98956 54.3655 6.75878 48.5722 4.14561 46.5711C1.7031 44.7006 -2.52905 44.2448 -5.51187 44.1833L-4.02403 33.0349L3.66311 34.0258C7.70922 26.8093 -5.45429 24.4815 -9.9754 23.4595C-15.021 22.3189 -20.459 22.0144 -25.3498 20.2914C-41.2985 14.6728 -56.0409 5.01939 -72.7128 1.57077C-93.1341 -2.65345 -113.499 -2.67199 -134.21 -2.6401C-145.788 -2.62226 -158.722 -3.52066 -169.918 -0.0546759C-173.098 0.929597 -176.097 2.85534 -179.093 4.29058C-185.396 7.31001 -191.757 10.2781 -197.939 13.537C-204.19 16.8318 -210.074 20.2371 -217.033 21.7813C-241.545 27.22 -269.113 21.7932 -291.921 34.2736ZM-137.682 44.6788L-146.361 44.431H-162.479H-214.306C-214.306 38.7219 -213.79 33.0864 -212.179 27.5845C-211.57 25.5037 -210.997 22.9333 -209.603 21.2112C-208.673 20.0636 -206.669 19.5147 -205.379 18.8495C-202.312 17.268 -199.291 15.5986 -196.204 14.0573C-190.921 11.4203 -185.612 8.84926 -180.333 6.21211C-176.819 4.45666 -173.176 2.22831 -169.422 1.04833C-165.8 -0.0904104 -162.006 -0.34445 -158.264 -0.700226C-152.468 -1.25121 -146.724 -1.26295 -140.905 -1.40502C-139.436 -1.44092 -135.844 -2.39575 -134.608 -1.39373C-133.943 -0.854811 -134.429 0.59581 -134.455 1.32379C-134.552 3.96598 -134.828 6.61107 -134.944 9.25157C-135.298 17.3135 -136.379 25.2562 -137.144 33.2826C-137.488 36.8912 -136.657 41.2147 -137.682 44.6788ZM-135.946 44.6788C-136.651 41.7193 -135.926 38.2681 -135.72 35.2646C-135.173 27.285 -133.766 19.236 -133.714 11.2335C-133.694 8.15245 -133.509 4.88095 -133.147 1.81928C-133.054 1.02516 -133.229 -0.583817 -132.715 -1.21748C-132.137 -1.93131 -130.551 -1.64912 -129.747 -1.64912H-121.812C-116.077 -1.64912 -110.413 -1.41329 -104.701 -1.16338C-101.771 -1.03519 -97.8013 -1.44151 -95.0304 -0.455527C-92.646 0.392884 -90.4752 2.5443 -88.5831 4.15488C-81.3765 10.289 -74.5959 17.4485 -69.0309 25.1071C-67.1075 27.7541 -64.0235 32.2708 -66.3919 35.5087C-68.5065 38.3996 -73.3709 39.7232 -76.4324 41.4012C-77.9792 42.249 -79.4719 44.02 -81.1475 44.5096C-82.3945 44.874 -84.0589 44.4311 -85.3594 44.4311H-95.5263H-122.555C-126.793 44.4311 -131.82 43.6974 -135.946 44.6788ZM39.3713 8.01285L33.6679 10.5895L30.1963 9.57825L22.7571 6.77413C24.2336 4.67994 26.4069 3.12622 28.2125 1.32379C28.8465 0.690935 29.7327 -0.564554 30.6922 -0.677658C31.6374 -0.789068 32.5375 0.434674 33.1488 1.00168C35.0934 2.8055 38.9523 5.29963 39.3713 8.01285ZM-206.37 23.3729H-138.426L-136.442 -0.162663C-146.111 -0.162663 -156.507 -0.576419 -165.951 1.79329C-174.502 3.93902 -183.041 8.97466 -190.748 13.139C-194.52 15.1769 -198.314 17.1831 -201.907 19.5317C-203.499 20.5725 -205.438 21.6654 -206.37 23.3729ZM2.91919 32.7871C1.17953 32.5675 -3.44565 31.1093 -4.93713 32.0544C-5.81719 32.6121 -5.68789 34.5931 -5.79836 35.5123C-6.16593 38.5711 -6.61317 41.6229 -6.99971 44.6788H-28.8214C-32.1788 44.6788 -36.2444 45.3066 -39.5264 44.5838C-42.0658 44.0245 -44.6517 41.3514 -47.1714 40.3316C-53.7456 37.671 -61.6492 37.2099 -68.4972 38.9807C-67.3532 36.9651 -64.8292 36.4335 -64.3632 33.7781C-63.6299 29.6003 -67.3467 25.3895 -69.7364 22.3819C-73.7132 17.3765 -77.9284 12.3877 -82.6414 8.05127C-85.2964 5.60845 -90.0069 2.89735 -91.8067 -0.162663C-74.9372 0.185272 -59.6368 6.91637 -44.4438 13.4313C-36.396 16.8822 -28.5622 21.1062 -19.8944 22.726C-13.9183 23.8428 -7.76782 24.7361 -2.0403 26.8547C0.817624 27.9118 3.31064 29.4733 2.91919 32.7871ZM-131.978 23.3729H-75.1925C-75.84 20.1224 -79.3635 16.7355 -81.3918 14.2064C-85.237 9.412 -89.883 3.59544 -95.7743 1.26454C-101.726 -1.09028 -109.824 0.0850878 -116.108 0.0850878C-119.5 0.0850878 -122.892 0.326368 -126.271 0.205504C-127.376 0.166039 -129.667 -0.389895 -130.589 0.339711C-131.47 1.03713 -131.203 5.14388 -131.231 6.27866C-131.373 11.9823 -131.978 17.6586 -131.978 23.3729ZM-346.149 0.835393C-347.405 1.67375 -345.961 3.24353 -344.778 2.55448C-343.344 1.72015 -344.92 0.0152254 -346.149 0.835393ZM44.1197 0.83985C42.6247 1.66425 44.1828 3.51116 45.4918 2.69334C46.7949 1.87918 45.3332 0.170714 44.1197 0.83985ZM-87.0952 1.81935C-85.9665 3.74855 -83.5217 5.25939 -81.8878 6.78031C-77.8107 10.5755 -73.6791 14.3214 -69.4891 17.9932C-67.602 19.6468 -65.2401 22.4958 -62.7938 23.2468C-59.4947 24.2597 -55.2979 23.6207 -51.883 23.6207H-30.0613C-31.2172 22.277 -33.206 21.6172 -34.7728 20.8288C-37.4336 19.4901 -40.0866 18.0806 -42.7079 16.664C-52.0998 11.5888 -61.7046 7.66402 -71.9688 4.75747C-76.8654 3.37089 -81.9827 1.81935 -87.0952 1.81935ZM-339.78 7.51744C-339.78 6.56845 -340.208 4.21355 -339.383 3.56043C-338.775 3.07993 -337.526 3.30581 -336.805 3.30581H-330.357C-329.649 3.30581 -328.372 3.07447 -327.783 3.56043C-326.98 4.22279 -327.907 5.6963 -328.429 6.22577C-329.979 7.79786 -332.56 7.51744 -334.573 7.51744H-339.78ZM-211.33 21.6388C-213.556 27.0594 -214.784 32.4278 -215.475 38.2376C-215.726 40.3475 -215.395 42.6363 -215.793 44.6789C-218.863 43.9488 -222.549 45.3686 -225.464 44.4663C-227.637 43.7939 -229.55 41.6927 -231.664 40.7222C-237.104 38.2243 -243.064 37.3566 -249.022 37.7642C-253.227 38.052 -257.692 39.0079 -261.421 41.0401C-263.328 42.0799 -265.109 44.0266 -267.124 44.7463C-268.569 45.2624 -270.565 44.9266 -272.084 44.9266H-282.25L-278.531 34.0259L-287.458 33.7782L-282.746 31.5839L-268.612 28.2659L-233.152 25.0653L-219.513 23.4686L-211.33 21.6388ZM-152.882 33.0418C-153.866 33.7845 -153.659 35.8741 -152.527 36.3539C-150.616 37.1639 -147.189 36.5034 -145.121 36.5034C-144.388 36.5034 -143.192 36.72 -142.568 36.2487C-141.584 35.5061 -141.791 33.4165 -142.922 32.9367C-144.833 32.1267 -148.26 32.7872 -150.328 32.7872C-151.061 32.7872 -152.258 32.5705 -152.882 33.0418ZM-84.0129 33.0418C-84.993 33.7063 -84.9285 35.8551 -83.8151 36.3539C-81.9059 37.2092 -78.271 36.5035 -76.1843 36.5034C-75.4732 36.5033 -74.4331 36.6757 -73.8122 36.2487C-72.8944 35.6176 -72.9632 33.4079 -74.0093 32.9367C-75.9129 32.0792 -79.5574 32.7871 -81.6398 32.7872C-82.3549 32.7873 -83.3868 32.6173 -84.0129 33.0418ZM-233.152 33.0351C-233.303 33.8502 -233.61 34.9266 -233.107 35.6816C-232.511 36.577 -229.145 36.5992 -228.341 35.9637C-226.117 34.2036 -229.39 33.0352 -230.672 33.0351H-233.152ZM-217.281 58.0572C-218.425 58.0572 -220.616 58.4799 -221.587 57.8025C-222.799 56.9564 -223.573 54.3586 -224.397 53.1023C-226.073 50.5455 -228.348 48.1461 -230.92 46.4733C-240.027 40.5478 -253.738 40.3941 -262.412 47.284C-266.154 50.2556 -268.453 54.1383 -270.595 58.3049L-274.563 58.0572C-272.389 50.4038 -267.25 44.0905 -259.932 40.7924C-244.675 33.9157 -221.429 40.1512 -217.281 58.0572ZM-31.3009 58.0572C-32.79 58.0572 -35.3019 58.5454 -36.6595 57.9077C-37.624 57.4546 -38.1905 55.7114 -38.7056 54.8365C-39.8111 52.959 -41.1899 51.1921 -42.7113 49.6339C-46.8982 45.3456 -52.4345 42.2314 -58.578 42.2018C-65.6466 42.1678 -71.7431 43.8342 -77.1536 48.5783C-79.0377 50.2304 -80.6555 52.2249 -81.9891 54.341C-82.6207 55.3432 -83.1946 57.1544 -84.2159 57.8025C-85.214 58.436 -87.1895 58.0572 -88.3348 58.0572C-87.7275 55.5025 -86.1382 53.0408 -84.6976 50.8726C-72.2014 32.0642 -37.5292 34.8359 -31.3009 58.0572ZM-246.294 45.074C-251.783 45.2722 -257.433 47.2073 -261.378 51.1624C-268.851 58.6553 -267.552 70.9197 -258.941 76.9424C-254.318 80.1757 -249.097 81.0821 -243.566 80.8398C-240.927 80.7242 -238.263 79.8898 -235.879 78.7909C-233.696 77.7844 -231.61 76.3264 -229.991 74.5472C-228.496 72.9045 -227.246 71.025 -226.412 68.9578C-221.236 56.1321 -233.91 44.6269 -246.294 45.074ZM-214.057 58.0572H-216.785C-218.016 52.7424 -221.724 49.4241 -224.72 45.1745L-218.273 45.1708L-215.943 45.1911L-215.402 48.3951L-214.057 58.0572ZM-137.682 44.9267L-135.946 58.0571L-212.818 58.0571L-214.305 45.1745H-163.223H-146.857L-137.682 44.9267ZM-81.6395 45.4222C-84.2752 47.719 -86.1702 50.8022 -87.8189 53.8455C-88.3736 54.8693 -89.0933 57.397 -90.1682 57.9076C-92.4991 59.0148 -97.4029 58.0571 -99.9895 58.0571H-124.043H-131.482C-132.257 58.0571 -133.658 58.3158 -134.308 57.8025C-134.943 57.3014 -134.917 55.5902 -135.049 54.8365C-135.563 51.9122 -136.44 47.8469 -135.946 44.9267L-122.555 45.1745H-96.022L-86.103 45.1737L-81.6395 45.4222ZM-63.2895 45.2808C-66.4712 45.736 -69.4601 46.6791 -72.2165 48.3519C-81.5482 54.0152 -83.8642 66.58 -76.1619 74.6525C-71.421 79.6212 -63.8097 81.7323 -57.0901 80.7753C-54.1759 80.3602 -51.1708 79.4065 -48.659 77.8607C-46.5364 76.5544 -44.6862 74.912 -43.1787 72.9219C-42.0044 71.3716 -41.0525 69.5821 -40.4856 67.7193C-36.3302 54.0641 -50.678 43.4765 -63.2895 45.2808ZM-30.8049 58.0573C-32.0769 52.7069 -35.9829 49.4369 -38.988 45.1747C-28.6562 45.1747 -18.3231 45.1251 -7.99137 45.1749C-4.83908 45.19 1.56244 45.304 3.73097 47.9937C5.3702 50.0269 5.952 57.1426 2.67035 57.9786C-0.487969 58.7832 -4.72853 58.0573 -7.99137 58.0573H-30.8049ZM-267.868 45.4224C-270.251 49.2295 -274.844 53.1317 -274.811 58.0573H-289.441C-292.2 58.0573 -295.512 58.3334 -298.119 57.2621C-298.812 56.9776 -299.523 56.5595 -299.749 55.8018C-300.061 54.7489 -299.582 53.6424 -299.435 52.607C-299.131 50.4767 -300.004 47.2858 -297.859 45.8541C-295.979 44.5995 -291.645 45.4224 -289.441 45.4224H-267.868ZM-270.843 58.5528L-272.827 66.7283H-284.73C-285.975 66.7283 -288.261 67.1643 -289.345 66.4737C-291.241 65.2656 -292.809 60.7745 -293.905 58.8006L-286.218 58.5528H-270.843ZM-210.586 66.7283H-219.513L-221.249 58.5528C-219.543 58.5528 -215.597 57.8158 -214.184 58.8074C-213.496 59.2898 -213.315 60.531 -213.065 61.278C-212.416 63.2224 -211.36 64.8654 -210.586 66.7283ZM-134.458 66.7283L-193.724 66.7283H-204.138C-205.454 66.7283 -207.398 67.082 -208.601 66.4737C-210.978 65.2717 -212.214 61.0135 -212.322 58.5528H-153.552H-140.905L-136.092 58.8074L-135.417 61.0302L-134.458 66.7283ZM-90.3185 58.5528C-90.5718 60.242 -91.8114 65.4646 -93.2079 66.4737C-93.9422 67.0042 -95.4134 66.7283 -96.2699 66.7283H-103.709H-132.97L-134.458 58.8006C-130.329 57.5812 -124.635 58.5528 -120.323 58.5528H-90.3185ZM-84.3672 58.8006L-87.2345 66.4737L-91.5584 66.7283C-90.9356 62.5736 -89.4124 57.3107 -84.3672 58.8006ZM-0.0561974 58.5528C-1.20087 60.5895 -2.08002 64.7254 -4.03445 66.0524C-6.16065 67.4959 -10.2606 66.7283 -12.7028 66.7283H-34.0286L-36.5083 58.8006C-33.0694 57.785 -28.4405 58.5528 -24.8535 58.5528H-0.0561974Z" fill="#304A6E"/>
</svg>
