<svg width="72" height="81" viewBox="0 0 72 81" fill="none" xmlns="http://www.w3.org/2000/svg">
<rect width="72" height="81" fill="#1A1E26"/>
<rect x="-858" y="-515" width="980" height="753" rx="4" fill="white"/>
<path d="M-248.027 -80.8114C-252.937 -79.8295 -257.408 -78.4369 -261.127 -74.8876C-268.166 -68.1717 -268.021 -56.7525 -260.673 -50.2903C-255.361 -45.6191 -247.925 -43.9999 -241.084 -45.3751C-237.975 -46 -234.92 -47.2332 -232.404 -49.1818C-230.556 -50.6142 -228.963 -52.1432 -227.776 -54.1825C-220.982 -65.8526 -229.628 -78.4265 -242.075 -80.4792C-244.049 -80.8047 -246.013 -81.2142 -248.027 -80.8114ZM-62.7906 -80.7629C-68.5445 -79.3205 -73.7854 -77.7675 -77.5415 -72.7633C-83.6619 -64.6093 -80.8002 -53.6019 -72.4616 -48.2591C-67.2485 -44.9188 -60.5349 -44.1236 -54.6075 -45.6044C-46.6172 -47.6007 -39.5458 -54.4146 -39.761 -63.1013C-39.9911 -72.3856 -47.7473 -78.8131 -56.3433 -80.4234C-58.44 -80.8162 -60.6601 -81.297 -62.7906 -80.7629ZM-283.487 -44.2728L-280.015 -35.1063L-287.951 -34.633L-291.918 -34.1154C-267.691 -22.2961 -240.551 -27.3105 -215.046 -21.2614C-209.941 -20.0505 -205.508 -17.4075 -200.912 -14.9849C-194.064 -11.3749 -187.049 -8.03899 -180.082 -4.66839C-176.866 -3.11241 -173.576 -1.0168 -170.163 0.0507716C-158.683 3.6417 -145.352 2.79831 -133.463 2.79831C-118.534 2.79831 -103.92 2.58888 -89.0758 1.10598C-80.66 0.265261 -71.7241 -0.923718 -63.7825 -3.93835C-50.7382 -8.88998 -38.3413 -15.8998 -25.0986 -20.2691C-19.7521 -22.0331 -13.9503 -22.3855 -8.48438 -23.6815C-3.0551 -24.9689 5.84489 -26.5772 3.91427 -33.8676L-4.02085 -32.8767C-4.65929 -35.4651 -4.77481 -38.171 -5.15644 -40.8044C-5.27681 -41.6347 -5.7939 -43.1597 -5.11031 -43.8412C-4.09999 -44.8482 -0.728856 -44.596 0.69047 -45.017C5.52149 -46.4502 7.68959 -51.3374 5.86579 -56.1645C5.42792 -57.3233 4.55538 -58.651 3.39502 -59.186C2.22349 -59.7261 0.819324 -59.4209 0.0491429 -60.6508C-1.16174 -62.5844 -0.969587 -65.074 -2.85312 -66.6219C-4.85531 -68.2672 -7.81224 -67.8084 -10.2204 -67.8084H-27.3306C-29.304 -67.8084 -32.9075 -68.5095 -34.6946 -67.6589C-35.9684 -67.0526 -36.5371 -62.4644 -37.0491 -61.1193C-38.7868 -56.5549 -41.531 -52.0607 -45.1847 -48.7745C-53.9131 -40.9235 -67.9689 -41.6345 -76.4293 -49.4976C-81.5998 -54.3031 -84.4477 -61.0059 -85.8523 -67.8084H-179.09H-207.359C-211.061 -67.8084 -216.42 -68.8104 -219.949 -67.7296C-220.976 -67.4152 -220.867 -65.6987 -221.019 -64.8355C-221.521 -61.9812 -222.494 -59.2412 -223.787 -56.66C-227.176 -49.8929 -233.303 -44.9864 -240.836 -43.6445C-257.227 -40.7245 -269.532 -51.9322 -271.584 -67.8084H-284.727C-286.17 -67.8084 -288.854 -68.321 -290.117 -67.5538C-292.386 -66.1762 -293.211 -61.7281 -294.854 -59.666C-296.154 -58.0345 -298.896 -58.6466 -300.456 -57.1132C-301.638 -55.9522 -301.042 -54.6035 -300.888 -53.1916C-300.597 -50.5071 -301.236 -46.4068 -298.61 -44.7035C-297.276 -43.8385 -295.415 -44.0251 -293.902 -44.0251C-290.422 -44.0251 -286.973 -44.2728 -283.487 -44.2728ZM-272.824 -66.5697L-270.841 -58.3942L-293.654 -58.6419C-293.044 -60.5682 -290.947 -65.4983 -289.138 -66.4873C-287.934 -67.1452 -285.584 -66.8174 -284.231 -66.8174C-280.418 -66.8174 -276.625 -66.5697 -272.824 -66.5697ZM-210.583 -66.8174L-213.098 -61.1193L-214.181 -58.6674L-221.246 -58.3942L-219.51 -66.5697L-210.583 -66.8174ZM-134.455 -66.8174L-135.943 -58.3942C-155.216 -59.6849 -174.892 -58.6419 -194.217 -58.6419C-198.798 -58.6419 -203.554 -59.0012 -208.103 -58.4649C-208.999 -58.3594 -211.991 -57.9134 -212.194 -59.194C-212.332 -60.0616 -211.721 -61.2975 -211.447 -62.1103C-210.968 -63.5296 -210.227 -65.5587 -208.825 -66.3151C-207.751 -66.894 -205.6 -66.802 -204.384 -66.8165C-201.161 -66.8547 -197.936 -66.8172 -194.713 -66.8172H-154.293C-147.76 -66.8172 -140.954 -66.2426 -134.455 -66.8174ZM-90.3158 -58.394L-110.65 -58.6417L-134.207 -58.394L-134.455 -58.6417L-132.967 -66.5695C-123.484 -66.5702 -113.954 -66.8172 -104.45 -66.8172C-101.572 -66.8172 -95.9103 -67.8991 -93.3604 -66.4594C-91.8631 -65.614 -90.4852 -60.0479 -90.3158 -58.394ZM-86.8442 -66.5695L-84.6124 -58.394H-88.58L-91.5557 -66.5695H-86.8442ZM-0.0534504 -58.6417H-7.98862H-25.0988H-36.5056L-34.0258 -66.5695H-12.7001C-10.242 -66.5695 -6.21742 -67.3276 -4.04435 -66.005C-1.75977 -64.6144 -1.79579 -60.6575 -0.0534504 -58.6417ZM-274.808 -57.8985C-274.343 -52.5746 -269.991 -49.6465 -267.865 -45.2636C-275.15 -45.2636 -282.434 -45.2753 -289.687 -45.2636C-291.89 -45.2599 -296.182 -44.4525 -298.049 -45.7812C-299.911 -47.1067 -299.195 -50.5326 -299.401 -52.4481C-299.506 -53.4291 -299.955 -54.4188 -299.793 -55.4172C-299.659 -56.2426 -299.094 -56.7303 -298.362 -57.0652C-295.112 -58.5517 -291.129 -57.936 -287.703 -57.8994C-283.548 -57.8551 -278.883 -58.57 -274.808 -57.8985ZM-217.278 -57.8987C-221.541 -39.9267 -245.436 -33.4423 -260.674 -41.005C-267.756 -44.5201 -272.158 -50.5224 -274.56 -57.8987C-269.415 -59.16 -268.582 -53.741 -265.775 -50.4664C-262.392 -46.5205 -257.845 -43.7723 -252.739 -42.7034C-244.817 -41.0454 -235.861 -42.371 -229.429 -47.4944C-227.152 -49.3083 -225.326 -51.4729 -223.782 -53.9348C-223.102 -55.0204 -222.501 -57.1558 -221.391 -57.8417C-220.448 -58.4246 -218.286 -58.1834 -217.278 -57.8987ZM-214.055 -58.1464L-215.79 -44.7683C-218.365 -45.3805 -222.143 -45.3805 -224.717 -44.7683L-220.608 -49.9709L-216.534 -58.1464H-214.055ZM-137.431 -45.016L-214.303 -45.016L-213.311 -54.4303L-212.244 -57.8597L-207.359 -57.9208L-196.201 -57.8987H-153.549H-140.902L-136.349 -57.8786L-136.368 -54.678L-137.431 -45.016ZM-81.8844 -45.016H-135.943L-135.012 -54.678L-134.305 -57.8409L-131.479 -57.9021L-124.288 -57.8984H-99.4906L-93.2912 -57.9196L-90.1712 -57.8702L-87.7743 -53.6867L-81.8844 -45.016ZM-31.2978 -57.8983C-37.6863 -34.5145 -73.1268 -31.8403 -85.1549 -51.457C-86.3682 -53.4358 -87.7868 -55.6262 -88.3318 -57.8983C-87.1637 -57.9904 -85.5011 -58.5304 -84.417 -57.8917C-83.3452 -57.2599 -82.7791 -55.4431 -82.1129 -54.4301C-80.7057 -52.2906 -79.0764 -50.2441 -77.1729 -48.5264C-72.0711 -43.9222 -65.6453 -41.8797 -58.8229 -42.0466C-52.5011 -42.2013 -46.7814 -45.2704 -42.4654 -49.7266C-40.9702 -51.2705 -39.6994 -53.0817 -38.6014 -54.9256C-38.0793 -55.8023 -37.7045 -57.1036 -36.8699 -57.7393C-35.9826 -58.4153 -32.3919 -58.2097 -31.2978 -57.8983ZM-38.985 -45.0159L-34.1342 -50.9617L-30.5539 -58.1463C-22.8311 -56.7138 -13.8627 -57.8859 -6.0045 -57.8985C-3.62715 -57.9022 1.12544 -59.1107 3.15977 -57.749C5.74318 -56.0199 5.50871 -49.9328 3.59126 -47.7739C2.5732 -46.6277 0.651732 -46.1666 -0.797053 -45.8706C-6.09801 -44.7876 -11.5376 -45.0159 -16.9154 -45.0159H-38.985ZM-215.79 -44.5204L-214.426 -31.1423L-211.575 -21.4803C-229.128 -26.1684 -247.493 -25.1567 -265.385 -27.6416C-270.662 -28.3745 -275.907 -29.4288 -281.007 -30.964C-283.079 -31.5875 -285.689 -32.0946 -287.454 -33.372C-285.032 -34.0875 -281.008 -34.351 -278.527 -33.8675C-278.328 -37.1644 -281.301 -41.6929 -282.495 -44.7682H-272.08C-270.574 -44.7682 -268.556 -45.1158 -267.121 -44.6223C-265.209 -43.9652 -263.506 -42.065 -261.665 -41.1161C-257.248 -38.8393 -252.254 -37.6436 -247.283 -37.5846C-242.13 -37.5233 -236.888 -38.2534 -232.156 -40.386C-229.848 -41.4266 -227.802 -43.5735 -225.461 -44.3746C-222.777 -45.2934 -218.627 -44.5204 -215.79 -44.5204ZM-137.431 -44.5204L-134.207 1.55975C-145.374 1.55975 -157.551 2.26232 -168.427 -0.673563C-171.642 -1.54138 -174.634 -3.34243 -177.602 -4.81485C-182.468 -7.22829 -187.371 -9.57621 -192.233 -12.0049C-196.549 -14.1609 -200.934 -16.2206 -205.127 -18.6118C-206.527 -19.4098 -208.786 -19.9643 -209.751 -21.2978C-214.101 -27.3089 -214.302 -37.4442 -214.302 -44.5204L-137.431 -44.5204ZM-135.587 -44.3709C-134.398 -44.9739 -132.051 -44.5204 -130.735 -44.5204H-118.833H-93.0432C-89.474 -44.5204 -84.561 -45.4027 -81.1405 -44.3933C-79.252 -43.836 -77.67 -41.9444 -75.933 -41.0006C-72.8487 -39.3247 -67.5626 -37.9949 -65.9456 -34.6107C-64.2228 -31.005 -67.9854 -26.3866 -70.0138 -23.71C-74.1151 -18.2983 -78.8249 -13.3883 -83.6202 -8.59771C-86.7196 -5.50141 -90.3497 -1.88367 -94.2831 0.142864C-96.6511 1.36289 -99.8906 0.861412 -102.466 1.10631C-109.486 1.77374 -116.486 1.80749 -123.544 1.80749H-130.239C-130.952 1.80722 -132.2 2.00883 -132.712 1.37584C-133.461 0.451119 -133.171 -2.46526 -133.225 -3.64285C-133.419 -7.91566 -133.595 -12.2666 -134.001 -16.5255C-134.675 -23.6059 -135.931 -30.7049 -135.943 -37.8314C-135.943 -39.1488 -137.007 -43.6507 -135.587 -44.3709ZM-5.26058 -31.6378L2.92255 -32.6288C2.92218 -28.7659 0.152701 -27.3937 -3.27677 -26.3329C-9.05525 -24.5455 -14.9752 -23.6735 -20.8829 -22.4704C-29.4733 -20.7209 -37.4353 -16.3898 -45.4323 -12.9145C-60.4646 -6.38169 -75.4181 -0.392362 -92.0514 0.321033C-89.631 -2.81198 -85.409 -5.40171 -82.4609 -8.12994C-77.784 -12.4581 -73.5372 -17.4365 -69.5684 -22.4103C-67.1819 -25.4012 -62.7553 -30.718 -64.7169 -34.8584C-65.5153 -36.5438 -67.1356 -37.433 -68.4938 -38.5746C-67.1822 -38.7693 -65.8546 -38.1927 -64.5263 -38.1013C-60.9329 -37.854 -57.1798 -37.739 -53.6154 -38.4037C-50.1906 -39.0424 -47.0186 -40.2476 -43.9445 -41.8585C-42.5502 -42.5891 -41.2321 -43.9498 -39.7289 -44.3933C-38.0357 -44.8929 -35.7827 -44.5204 -34.0255 -44.5204H-22.3708H-11.2119C-10.1889 -44.5204 -7.9884 -44.9322 -7.14606 -44.2658C-6.45153 -43.7163 -6.57302 -41.6324 -6.50048 -40.8043C-6.23766 -37.806 -5.96544 -34.5615 -5.26058 -31.6378ZM-36.7532 -38.6912C-39.4946 -38.0579 -41.0078 -34.6804 -39.1352 -32.3917C-37.7684 -30.7212 -35.5308 -30.3544 -33.5296 -30.9091C-30.7741 -31.6728 -29.5643 -35.0794 -31.4362 -37.29C-32.6936 -38.775 -34.9307 -39.1122 -36.7532 -38.6912ZM-152.282 -36.4087C-153.813 -36.0805 -153.904 -33.3635 -152.524 -32.7783C-150.799 -32.0469 -144.644 -32.0469 -142.919 -32.7783C-141.62 -33.329 -141.607 -35.8048 -142.941 -36.3271C-143.74 -36.6396 -144.778 -36.3554 -145.613 -36.3458C-147.667 -36.3222 -150.297 -36.8343 -152.282 -36.4087ZM-83.5868 -36.4447C-84.9937 -36.0153 -85.1081 -33.4389 -83.799 -32.8127C-81.9796 -31.9424 -78.4324 -32.6288 -76.4287 -32.6288C-75.6993 -32.6288 -74.6978 -32.4625 -74.0181 -32.7783C-72.7488 -33.3678 -72.9943 -35.8572 -74.224 -36.3332C-75.0685 -36.6602 -76.0505 -36.3696 -76.9246 -36.3485C-78.9122 -36.3007 -81.7127 -37.0167 -83.5868 -36.4447ZM-233.148 -36.0972C-233.299 -35.2822 -233.606 -34.2057 -233.103 -33.4508C-232.493 -32.534 -229.087 -32.5257 -228.338 -33.2738C-226.367 -35.2432 -229.274 -36.0971 -230.668 -36.0972H-233.148ZM-87.0913 -1.66092C-81.7526 -1.70507 -76.2965 -3.37521 -71.221 -4.91025C-61.6214 -7.81356 -52.8775 -11.391 -43.9439 -15.9662C-39.4608 -18.262 -33.6726 -20.234 -29.8094 -23.4623C-33.3785 -24.0755 -37.3416 -23.71 -40.9682 -23.71C-45.7235 -23.71 -50.6244 -24.0426 -55.3506 -23.534C-57.894 -23.2603 -60.866 -24.0137 -63.2858 -22.9456C-65.34 -22.0389 -67.078 -20.0104 -68.7412 -18.5459C-72.0798 -15.606 -75.436 -12.6628 -78.6602 -9.59825C-81.238 -7.14805 -85.321 -4.74915 -87.0913 -1.66092ZM-206.367 -23.2146C-205.63 -21.7613 -203.973 -20.8267 -202.647 -19.9308C-199.618 -17.8842 -196.434 -16.0619 -193.224 -14.3159C-184.473 -9.55519 -174.937 -3.95088 -165.203 -1.53094C-161.233 -0.544024 -157.106 -0.449383 -153.052 -0.152478C-148.958 0.14737 -144.759 0.321016 -140.654 0.321016C-139.719 0.321016 -137.339 0.74664 -136.693 -0.076211C-135.863 -1.13348 -136.756 -5.06432 -136.934 -6.36804C-137.699 -11.9479 -137.715 -17.6248 -138.422 -23.2146L-206.367 -23.2146ZM-132.222 -22.9668C-130.979 -17.7478 -131.456 -11.4861 -131.221 -6.12029C-131.17 -4.97102 -131.478 -0.887799 -130.585 -0.181346C-129.637 0.569167 -127.604 -0.117279 -126.519 -0.164697C-123.03 -0.317334 -119.581 0.0732887 -116.104 0.0732887C-109.95 0.0732887 -102.152 1.06012 -96.2663 -1.01363C-89.9183 -3.25042 -84.5005 -9.78967 -80.6405 -15.039C-78.8477 -17.4771 -75.9619 -20.2354 -75.1885 -23.2145L-114.12 -23.2145H-126.023L-132.222 -22.9668ZM59.4611 38.9689C58.6185 35.4333 59.2131 31.2011 59.2131 27.5727V5.27589C59.2131 2.31279 59.7507 -1.24748 59.0818 -4.13834C58.0117 -8.76355 53.2062 -7.39246 50.0746 -8.7472C48.8777 -9.26497 48.7887 -10.8438 47.3104 -11.3246C45.7863 -11.8204 43.5547 -11.7514 42.1029 -11.0627C41.2291 -10.6481 40.3979 -9.53857 39.3752 -9.5774C37.3076 -9.65589 35.5193 -11.8567 33.4238 -12.0743C30.8551 -12.3412 26.5303 -9.03846 24.2489 -7.91489C23.4099 -7.50171 22.0529 -7.09343 21.528 -6.27129C20.7228 -5.01027 21.2732 -2.13057 21.2732 -0.66994V13.4514V66.9639V82.5717C21.2732 84.0265 20.6824 87.1488 21.528 88.3766C22.1027 89.2111 23.6091 89.3921 24.4968 89.7342C26.8249 90.6316 31.4509 93.3549 33.9198 92.8434C35.7101 92.4725 37.4855 90.3887 39.3044 90.3926C40.1203 90.3941 40.9139 91.3902 41.607 91.7582C43.0078 92.5021 45.0233 92.7169 46.5665 92.3495C48.1828 91.9646 48.6779 90.5176 50.0488 89.8835C53.0237 88.5075 56.8393 88.9455 58.6481 85.5446C60.0924 82.8289 59.2131 78.1435 59.2131 75.1394V51.1083C59.2131 48.2958 58.2381 43.3133 59.3627 40.7398C59.8361 39.6565 61.4855 39.9599 62.4367 39.9599C64.129 39.9599 66.2429 39.6217 67.8824 40.0664C69.0898 40.3938 69.9388 41.6772 71.3072 40.8719C72.5839 40.1205 71.9443 38.3738 70.6187 38.1664C69.6231 38.0106 68.6475 38.7723 67.6442 38.8416C65.0209 39.0228 61.985 38.4206 59.4611 38.9689ZM-326.634 19.3972C-326.634 13.483 -326.527 7.487 -326.382 1.55975C-326.322 -0.890931 -325.455 -3.88653 -326.88 -6.11646C-329.369 -10.0107 -335.453 -8.65259 -339.277 -8.86877C-341.193 -8.97712 -342.541 -11.428 -344.736 -11.744C-346.134 -11.9453 -348.012 -11.8104 -349.144 -10.876C-349.783 -10.3481 -349.967 -9.34254 -350.743 -8.99476C-353.761 -7.6419 -357.652 -8.81887 -359.501 -5.12931C-360.346 -3.44377 -359.862 -0.777689 -359.862 1.06426V14.6901V63.7432V78.6078C-359.862 80.6415 -360.364 83.4503 -359.386 85.2967C-357.459 88.9346 -353.731 88.1634 -350.697 89.7629C-348.637 90.8486 -347.954 92.6742 -345.232 92.4068C-342.779 92.1659 -341.241 89.9626 -339.032 89.7707C-335.602 89.4725 -331.215 90.6444 -328.144 88.6465C-324.542 86.3031 -326.138 78.1568 -326.138 74.3961C-326.138 70.6628 -325.158 65.3679 -326.217 61.798C-326.617 60.4472 -328.73 61.0214 -329.057 59.28C-329.509 56.8763 -329.113 54.0491 -329.113 51.6038V36.2437V23.6089C-329.113 21.7074 -328.855 19.7407 -326.634 19.3972ZM31.1922 2.05524L22.7611 -5.37705V-5.87254C26.7542 -7.76287 31.6086 -11.8893 35.9037 -9.77602C37.4942 -8.99345 39.9079 -8.42697 39.2965 -6.14245C39.0077 -5.06359 37.6935 -4.16455 36.9053 -3.44081C34.9723 -1.66601 32.9105 0.0705846 31.1922 2.05524ZM-346.967 -10.4944C-345.119 -10.8754 -342.4 -10.324 -341.662 -8.34901C-341.163 -7.01525 -341.512 -5.05244 -341.512 -3.64285C-341.512 0.0855966 -341.878 4.05524 -341.441 7.75332C-340.63 14.6201 -341.264 21.8944 -341.264 28.8115V68.9458C-341.264 72.555 -341.489 76.246 -341.242 79.8465C-341.059 82.5104 -340.37 86.1129 -341.095 88.7232C-341.496 90.1675 -343.391 90.9701 -344.736 91.1681C-346.015 91.3564 -347.739 91.2535 -348.449 89.9779C-349.139 88.736 -348.703 86.435 -348.703 85.0491V73.1574V11.9649V-5.12931C-348.703 -6.96666 -349.367 -9.99951 -346.967 -10.4944ZM44.8307 -10.4858C45.8564 -10.5487 47.4002 -10.3533 47.8702 -9.29409C48.4822 -7.91504 48.0543 -5.62611 48.0543 -4.13833V8.00108V69.1936V86.0401C48.0543 88.0304 48.5578 91.0033 45.8225 91.2283C44.138 91.3669 41.8204 91.1594 40.9075 89.4853C40.2044 88.1962 40.6151 85.9816 40.6151 84.5536V72.9097V11.4695V-1.41317C40.6151 -3.35234 40.248 -5.72015 40.719 -7.60674C41.1832 -9.46627 43.0478 -10.3764 44.8307 -10.4858ZM-350.191 -7.85449V57.3019V77.8645L-349.943 88.2697C-352.627 88.9468 -357.396 87.0182 -358.347 84.3049C-358.927 82.6516 -358.622 80.5838 -358.622 78.8555V68.2024V12.9558V-0.174598C-358.622 -1.9633 -358.917 -4.16408 -357.574 -5.57829C-355.622 -7.63345 -352.69 -7.26016 -350.191 -7.85449ZM-327.378 -3.643L-340.024 -3.39526V-7.60688C-335.846 -7.93634 -328.621 -8.98364 -327.378 -3.643ZM49.5421 88.7651L49.2942 88.5173L49.5421 74.6437V48.383V12.4603L49.2942 -7.35915C51.6602 -8.00908 56.3854 -7.11202 57.475 -4.6118C58.1089 -3.15708 57.7228 -0.989749 57.7253 0.568631V11.7171V68.9456C57.7253 72.652 57.5809 76.3914 57.7438 80.0941C57.8276 81.999 58.1834 84.1955 56.8835 85.7815C55.217 87.8148 51.9794 88.2926 49.5421 88.7651ZM22.761 -4.88172L30.4482 2.30283V2.79832L22.761 9.73511L22.5129 -0.174598L22.761 -4.88172ZM39.3752 -4.88172V10.2306C36.4918 8.69504 33.0654 4.95974 31.1921 2.30283L39.3752 -4.88172ZM-315.723 84.8012H-307.044V61.7611V14.69V1.5596L-307.13 -3.24577L-309.028 -3.643L-315.358 -3.49351L-315.723 1.5596V17.6629V84.8012ZM-289.19 -3.39526C-290.615 4.16267 -291.403 11.8369 -292.814 19.3971C-293.143 21.1588 -294.724 22.4335 -294.964 24.1042C-295.568 28.3202 -294.893 33.2017 -294.893 37.4823C-294.893 43.8254 -295.496 50.4927 -294.867 56.8063C-294.688 58.6041 -293.216 59.9802 -292.827 61.7611C-291.25 68.9723 -289.263 77.1912 -288.942 84.5534H-237.611C-229.214 84.5534 -220.427 85.3045 -212.07 84.5277C-209.202 84.261 -206.272 83.1259 -203.433 82.5761C-193.364 80.6266 -183.364 77.9442 -173.243 76.3082C-167.317 75.3503 -161.025 75.6393 -155.036 75.3772C-144.789 74.9289 -134.563 74.5944 -124.287 74.6439C-109.945 74.7131 -95.1684 74.5617 -80.8918 75.9245C-62.4984 77.6804 -44.4701 82.9228 -26.0897 84.759C-16.135 85.7534 -5.59813 84.8012 4.4111 84.8012C5.41769 77.0131 7.32971 69.3476 8.08859 61.5133C8.74785 54.7076 8.13099 47.5428 8.13099 40.703C8.13099 33.2685 8.71593 25.547 7.92417 18.1584C7.36214 12.9134 6.58638 7.72559 5.55211 2.55055C5.26347 1.10618 5.26504 -1.90764 4.19885 -2.99193C3.34498 -3.86029 0.357171 -3.39527 -0.796054 -3.39527H-15.1785C-36.073 -3.39527 -57.0275 2.11881 -77.6678 5.17137C-82.7841 5.928 -87.8935 5.80346 -93.0422 6.02871C-104.776 6.54202 -116.487 6.74329 -128.254 6.76219C-139.307 6.77995 -150.433 6.79719 -161.483 6.04112C-165.586 5.76039 -169.805 6.0788 -173.882 5.45006C-183.761 3.92622 -193.656 0.818697 -203.39 -1.47144C-205.905 -2.06308 -208.517 -3.04247 -211.078 -3.34958C-218.059 -4.18687 -225.616 -3.39529 -232.651 -3.39529C-251.425 -3.39529 -270.443 -2.50618 -289.19 -3.39526ZM-327.377 -2.8998L-327.625 -0.174626H-327.873V-2.65206H-339.776V8.24863L-340.272 -0.174626L-339.697 -2.82219L-336.056 -2.8998H-327.377ZM-307.539 84.3057H-315.227V-3.14751C-313.581 -3.14751 -309.241 -3.92511 -307.937 -2.89289C-306.98 -2.1361 -307.539 1.18156 -307.539 2.30283V18.1584V84.3057ZM-355.394 -2.73805C-358.255 -1.81304 -357.845 6.89469 -353.415 5.62919C-350.268 4.7301 -350.604 -4.28678 -355.394 -2.73805ZM-345.714 -2.42129C-347.266 -2.00083 -346.532 0.224733 -344.998 -0.328861C-343.559 -0.847998 -344.316 -2.79994 -345.714 -2.42129ZM52.7771 -2.46812C51.4073 -1.91045 51.5268 -0.412911 51.5264 0.816381C51.5256 3.30099 51.7999 7.08686 55.483 5.58733C56.9308 4.99792 56.7337 3.33687 56.7338 2.05509C56.7339 -0.453273 56.3855 -3.93724 52.7771 -2.46812ZM-354.899 -2.29665C-351.443 -3.25876 -351.432 4.56207 -353.668 5.16736C-357.199 6.12282 -357.171 -1.6642 -354.899 -2.29665ZM44.1428 -2.21924C42.6835 -1.56647 43.9951 0.192991 45.2893 -0.327908C46.7886 -0.931372 45.5107 -2.83112 44.1428 -2.21924ZM53.7581 -2.27735C57.1794 -2.85791 57.2588 4.76428 54.745 5.21897C51.1963 5.86087 51.2685 -1.85487 53.7581 -2.27735ZM-212.319 -2.15653V-1.90879L-263.153 13.7472L-282.247 19.6104L-292.414 22.6177C-290.294 17.2022 -289.971 10.5419 -289.158 4.78026C-288.957 3.35609 -288.958 -0.993789 -287.801 -1.90191C-286.772 -2.70981 -283.762 -2.15653 -282.495 -2.15653H-268.113L-212.319 -2.15653ZM-25.6204 -2.0491C-24.3 -1.9967 -23.3291 0.307027 -22.775 1.31186C-20.6955 5.08307 -19.2202 9.00349 -18.2981 13.2035C-16.2597 22.4886 -17.1635 32.4828 -17.1635 41.9417C-17.1635 49.7878 -16.3205 58.2625 -18.0127 65.9727C-19.0403 70.6554 -20.4464 75.3181 -22.6456 79.5986C-23.3359 80.9421 -24.0438 83.492 -25.8435 83.5258C-29.6447 83.597 -33.7544 82.2898 -37.4973 81.6891C-46.8347 80.1908 -56.1615 78.5655 -65.5183 77.1885C-68.8308 76.7009 -72.1199 76.0942 -75.4372 75.6347C-76.4495 75.4945 -78.6995 75.4859 -79.4203 74.7076C-80.1707 73.8973 -80.306 71.9774 -80.5395 70.9276C-81.2478 67.7412 -82.0307 64.5062 -82.419 61.2656C-83.1653 55.0379 -82.8764 48.7062 -82.8764 42.4372C-82.8764 35.6774 -83.1233 28.8581 -82.6506 22.1223C-82.3767 18.2181 -81.457 14.5228 -80.559 10.7261C-80.2932 9.60229 -80.2915 7.54889 -79.2784 6.80293C-78.2937 6.07795 -76.3673 6.14269 -75.1893 5.92262C-71.6606 5.26345 -68.0734 4.76406 -64.5264 4.21673C-55.6779 2.85135 -46.8228 1.44466 -37.9932 -0.0346641C-34.124 -0.682915 -29.5354 -2.20442 -25.6204 -2.0491ZM3.41835 83.5625C-3.23713 84.7969 -10.8898 83.8102 -17.6594 83.8102C-19.6434 83.8102 -21.9296 83.4341 -23.8588 83.8102C-24.0164 81.4524 -21.3782 78.1277 -20.4864 75.8825C-18.4461 70.7455 -17.2324 65.5145 -16.7096 60.0269C-15.953 52.0841 -16.6672 43.7299 -16.6672 35.7481C-16.6672 28.9454 -15.946 21.6345 -17.3283 14.9377C-18.0999 11.1993 -19.1753 7.48593 -20.8292 4.03703C-21.7986 2.01548 -23.5504 -0.0146598 -24.1064 -2.15653H-4.26856C-2.6207 -2.15653 1.67185 -2.92683 2.99023 -1.90191C4.10536 -1.03496 4.09787 2.22691 4.36099 3.54155C5.45128 8.98876 6.50929 14.5821 6.64594 20.1403C6.9569 32.7933 7.73533 45.8904 6.86807 58.5405C6.29391 66.9162 3.77692 75.2219 3.41835 83.5625ZM-212.566 -1.16557C-215.191 5.99558 -220.4 12.059 -222.227 19.6448C-223.559 25.1748 -222.733 31.5734 -222.733 37.2346C-222.733 45.7366 -224.091 55.5343 -221.633 63.7431C-219.557 70.6718 -215.067 76.2882 -212.318 82.8193C-218.769 81.9472 -225.724 78.7171 -231.908 76.6444C-244.573 72.3998 -257.412 68.6687 -270.096 64.4861C-275.618 62.6654 -281.15 60.8726 -286.71 59.1759C-288.994 58.479 -291.287 57.4033 -293.654 57.054V42.4372C-292.225 42.4994 -289.723 43.8768 -288.456 43.2268C-285.092 41.5014 -284.619 36.4082 -288.704 35.1775C-289.974 34.7947 -292.18 35.8519 -293.406 36.2436L-293.654 26.8294L-293.079 23.5726L-285.966 21.254L-269.104 16.0713L-229.429 3.85848L-212.566 -1.16557ZM-213.062 1.06411C-213.501 5.46242 -215.315 9.73887 -215.748 14.1945C-216.387 20.7685 -215.88 27.418 -216.042 34.0139C-216.295 44.3697 -217.26 55.1566 -216.244 65.4773C-215.735 70.6488 -213.969 75.5581 -212.814 80.5896H-213.062C-217.016 74.1359 -220.934 66.8334 -222.157 59.2837C-223.338 51.9935 -222.237 43.6358 -222.237 36.2436C-222.237 31.5827 -222.821 26.4875 -222.163 21.8745C-221.514 17.3264 -219.259 13.1049 -217.354 8.99188C-216.153 6.39718 -214.892 3.27032 -213.062 1.06411ZM38.3829 10.4783H23.2565L28.712 4.78025L30.9437 3.27431L33.1754 5.028L38.3829 10.4783ZM-46.672 3.64667C-54.4447 4.6663 -62.1131 6.1318 -69.7336 8.03226C-71.628 8.5047 -76.1116 8.69122 -77.4562 10.1314C-78.2195 10.949 -78.296 12.8841 -78.5118 13.9467C-79.1588 17.1343 -79.8992 20.3368 -79.9004 23.6087V57.3017C-79.9004 60.715 -79.3716 64.1037 -78.7658 67.4592C-78.5803 68.487 -78.6032 70.4555 -77.7707 71.1916C-76.9797 71.8909 -75.4381 71.9615 -74.4451 72.1671C-71.9582 72.6818 -69.4817 73.3023 -67.0059 73.8711C-58.2382 75.8853 -49.4855 77.6167 -40.4726 77.6167C-38.174 77.6167 -35.5616 77.9651 -33.296 77.5799C-31.609 77.2931 -32.5375 73.4287 -32.5375 72.1663V54.8243V16.4242C-32.5375 13.2887 -32.6067 10.1445 -32.5375 7.00994C-32.5182 6.16575 -31.97 4.43312 -32.7313 3.79617C-33.4974 3.15527 -35.5654 3.54154 -36.5087 3.54154C-39.8407 3.54154 -43.3708 3.21316 -46.6757 3.64667M-81.144 6.7622L-84.1099 22.1222L-84.1196 43.6759L-84.0772 59.0359L-81.1436 74.8915L-90.5667 74.3862L-108.669 73.8996L-145.369 73.6625L-173.142 75.1392L-175.103 61.2656L-175.126 43.1804L-175.116 20.6358L-173.142 6.7622L-141.153 7.99728L-104.701 7.50906L-81.144 6.7622ZM-339.78 8.99188V10.2306H-340.028L-339.78 8.99188ZM-338.292 10.7261V70.9276H-339.78L-340.028 10.7261H-338.292ZM-337.222 10.8767C-335.562 10.0953 -335.565 12.2208 -335.565 13.2035V22.8655V59.2837V67.9547C-335.565 68.7397 -335.266 70.3156 -336.139 70.7425C-337.676 71.4938 -337.794 69.6881 -337.796 68.6979V60.0269V23.8565V14.1945C-337.796 13.3487 -338.171 11.3238 -337.222 10.8767ZM-335.069 70.9276V10.7261L-333.092 11.1233L-332.837 14.1945V21.8745V58.2927V67.2115L-333.092 70.5304L-335.069 70.9276ZM-327.878 10.7261V18.4061C-331.276 19.7501 -330.605 24.1271 -330.605 27.0771V52.8424C-330.605 55.9486 -331.749 61.2633 -327.63 62.0089L-327.382 70.6799C-328.315 70.9554 -331.391 71.4363 -332.09 70.5277C-332.66 69.7866 -332.341 68.0941 -332.341 67.2115V58.7882V22.37V13.9467C-332.341 13.1661 -332.643 11.534 -331.943 10.9807C-331.098 10.3118 -328.911 10.7261 -327.878 10.7261ZM27.7165 11.4693C28.7129 14.837 27.9645 19.3527 27.9645 22.8655C24.8959 22.9018 25.9807 27.0142 25.9807 29.3068V50.6127C25.9807 52.9975 24.7811 58.0073 27.9645 58.045V70.1844L22.9067 69.9297L22.509 66.2205V55.8153V11.7171L27.7165 11.4693ZM35.8997 11.4693V25.5907V54.0811L36.1476 69.9366L28.4604 70.1844V58.045C31.1468 57.8402 30.1963 53.5876 30.1963 51.6037V30.2978C30.1963 28.2192 31.2541 23.0784 28.4604 22.8655V14.69L28.8581 11.7239L35.8997 11.4693ZM39.1233 11.4693L39.3713 17.9106V30.05V70.1844H36.6436V25.3429V15.4332L36.8984 11.8667L39.1233 11.4693ZM-152.808 19.5022C-155.953 19.9198 -158.851 20.8907 -160.487 23.8565C-161.837 26.3052 -161.487 29.0903 -161.487 31.7842V46.6488C-161.487 50.4303 -162.417 55.5291 -160.089 58.7882C-156.968 63.1574 -151.314 62.5043 -146.609 62.5043C-144.662 62.5043 -142.587 62.7055 -140.658 62.43C-129.883 60.892 -132.474 48.6844 -132.474 40.703C-132.474 35.9773 -131.107 28.6836 -133.159 24.3519C-136.194 17.9458 -146.897 18.7173 -152.808 19.5022ZM-152.808 19.9633C-147.17 19.2896 -136.85 18.404 -133.843 24.3519C-131.607 28.773 -132.97 36.0952 -132.97 40.9507C-132.97 47.4356 -130.445 60.489 -139.666 61.7164C-145.294 62.4655 -156.161 63.7777 -159.694 58.2506C-161.742 55.045 -160.991 50.5173 -160.991 46.8965V33.5184C-160.991 26.9493 -160.762 20.9137 -152.808 19.9633ZM29.7003 23.6087V57.3017L26.7247 57.5495L26.4767 46.6488V23.6087H29.7003ZM-346.291 25.8455C-347.426 26.7711 -345.698 28.4209 -344.604 27.4229C-343.485 26.4016 -345.325 25.0583 -346.291 25.8455ZM44.1396 25.7784C42.702 26.3997 43.9752 28.3978 45.2861 27.7527C46.7601 27.0273 45.5067 25.1876 44.1396 25.7784ZM-101.23 34.2617C-99.9615 36.862 -96.199 39.122 -94.0384 41.0214C-93.0059 41.9292 -92.2045 42.9003 -90.8148 43.1804L-97.1569 37.4814L-101.23 34.2617ZM-293.161 41.1985V37.2346C-291.893 36.944 -289.926 35.9151 -288.701 36.6506C-286.507 37.9677 -286.397 41.2468 -289.197 41.9969C-290.365 42.3098 -292.019 41.46 -293.161 41.1985ZM-345.483 53.5774C-346.907 53.6652 -346.964 55.7419 -345.483 55.7419C-343.9 55.7419 -343.847 53.4765 -345.483 53.5774ZM44.1394 53.7733C42.6714 54.4052 43.9247 56.4114 45.2859 55.7256C46.7535 54.9863 45.4959 53.1894 44.1394 53.7733ZM-292.665 57.5495L-282.994 60.7772L-264.644 66.6527L-213.314 83.067V83.3147H-266.628H-281.259C-282.876 83.3147 -285.898 83.9014 -287.35 83.1652C-288.507 82.5792 -288.551 78.5699 -288.76 77.3689C-289.649 72.2526 -290.714 67.1488 -291.458 62.0089C-291.66 60.6144 -293.02 58.8473 -292.665 57.5495ZM38.8753 71.1753C37.7525 73.5809 35.0252 75.2765 33.1719 77.1212C32.6089 77.6816 31.8186 78.7857 30.9412 78.8078C30.0305 78.8307 29.1801 77.6419 28.5971 77.069C26.8983 75.3995 23.7428 73.4697 23.005 71.1753H38.8753ZM-327.63 71.4231L-327.382 83.5625C-330.752 84.5579 -335.272 83.8102 -338.788 83.8102V83.5625H-327.878C-327.878 80.1466 -328.946 74.5575 -327.63 71.4231ZM23.005 72.1663C25.293 74.4521 29.0691 76.9003 30.4443 79.8463L22.7571 86.7831L22.509 76.1302L23.005 72.1663ZM39.3713 72.1663V87.0309C37.0875 85.9668 32.1266 81.561 31.4361 79.1031L39.3713 72.1663ZM-355.154 75.7974C-358.234 76.7372 -357.959 85.6253 -353.42 84.2465C-350.308 83.3011 -350.734 74.4487 -355.154 75.7974ZM53.011 76.0664C50.0712 77.205 50.6669 85.9457 55.237 84.3418C58.1397 83.3231 57.6542 74.2679 53.011 76.0664ZM-353.672 76.3628C-351.529 76.7886 -351.3 84.4319 -354.896 83.7535C-357.188 83.321 -357.218 75.6582 -353.672 76.3628ZM53.2723 76.5054C57.1758 75.2452 57.2879 83.1299 54.9792 83.8551C51.2371 85.0307 51.3118 77.1384 53.2723 76.5054ZM-291.921 115.274V115.521L-280.019 116.512C-281.23 118.638 -281.971 123.884 -284.054 125.176C-285.124 125.84 -286.795 125.244 -287.954 125.193C-290.882 125.065 -295.99 124.301 -298.593 125.779C-301.31 127.32 -300.552 131.751 -300.923 134.35C-301.108 135.649 -301.518 136.826 -300.631 137.991C-299.435 139.56 -296.732 139.902 -294.897 140.048L-291.511 146.737L-289.857 148.817L-284.482 148.967H-271.588C-269.657 133.786 -258.045 122.063 -242.079 124.549C-234.203 125.775 -227.695 130.189 -224.004 137.323C-222.558 140.117 -221.718 142.942 -221.031 145.994C-220.837 146.851 -220.974 148.575 -219.952 148.888C-216.424 149.969 -211.064 148.967 -207.362 148.967H-179.093L-85.8553 148.967C-84.3855 141.852 -81.4313 135.121 -75.9364 130.18C-67.754 122.824 -54.0053 122.03 -45.6128 129.523C-41.6657 133.047 -38.9776 137.389 -37.0549 142.278C-36.5276 143.618 -35.965 148.203 -34.6949 148.817C-32.6017 149.83 -28.5928 148.827 -26.3417 148.729C-19.772 148.441 -13.0203 149.555 -6.50382 148.925C-4.1023 148.692 -2.27642 147.83 -1.30114 145.498C-0.756742 144.197 -0.644122 142.433 0.35236 141.365C1.85739 139.752 4.18022 140.488 5.50856 138.066C6.98956 135.365 6.75878 129.572 4.14561 127.571C1.7031 125.701 -2.52905 125.245 -5.51187 125.183L-4.02403 114.035L3.66311 115.026C7.70922 107.809 -5.45429 105.482 -9.9754 104.459C-15.021 103.319 -20.459 103.014 -25.3498 101.291C-41.2985 95.6728 -56.0409 86.0194 -72.7128 82.5708C-93.1341 78.3465 -113.499 78.328 -134.21 78.3599C-145.788 78.3777 -158.722 77.4793 -169.918 80.9453C-173.098 81.9296 -176.097 83.8553 -179.093 85.2906C-185.396 88.31 -191.757 91.2781 -197.939 94.537C-204.19 97.8318 -210.074 101.237 -217.033 102.781C-241.545 108.22 -269.113 102.793 -291.921 115.274ZM-137.682 125.679L-146.361 125.431H-162.479H-214.306C-214.306 119.722 -213.79 114.086 -212.179 108.585C-211.57 106.504 -210.997 103.933 -209.603 102.211C-208.673 101.064 -206.669 100.515 -205.379 99.8495C-202.312 98.268 -199.291 96.5986 -196.204 95.0573C-190.921 92.4203 -185.612 89.8493 -180.333 87.2121C-176.819 85.4567 -173.176 83.2283 -169.422 82.0483C-165.8 80.9096 -162.006 80.6555 -158.264 80.2998C-152.468 79.7488 -146.724 79.7371 -140.905 79.595C-139.436 79.5591 -135.844 78.6042 -134.608 79.6063C-133.943 80.1452 -134.429 81.5958 -134.455 82.3238C-134.552 84.966 -134.828 87.6111 -134.944 90.2516C-135.298 98.3135 -136.379 106.256 -137.144 114.283C-137.488 117.891 -136.657 122.215 -137.682 125.679ZM-135.946 125.679C-136.651 122.719 -135.926 119.268 -135.72 116.265C-135.173 108.285 -133.766 100.236 -133.714 92.2335C-133.694 89.1525 -133.509 85.881 -133.147 82.8193C-133.054 82.0252 -133.229 80.4162 -132.715 79.7825C-132.137 79.0687 -130.551 79.3509 -129.747 79.3509H-121.812C-116.077 79.3509 -110.413 79.5867 -104.701 79.8366C-101.771 79.9648 -97.8013 79.5585 -95.0304 80.5445C-92.646 81.3929 -90.4752 83.5443 -88.5831 85.1549C-81.3765 91.289 -74.5959 98.4485 -69.0309 106.107C-67.1075 108.754 -64.0235 113.271 -66.3919 116.509C-68.5065 119.4 -73.3709 120.723 -76.4324 122.401C-77.9792 123.249 -79.4719 125.02 -81.1475 125.51C-82.3945 125.874 -84.0589 125.431 -85.3594 125.431H-95.5263H-122.555C-126.793 125.431 -131.82 124.697 -135.946 125.679ZM39.3713 89.0129L33.6679 91.5895L30.1963 90.5783L22.7571 87.7741C24.2336 85.6799 26.4069 84.1262 28.2125 82.3238C28.8465 81.6909 29.7327 80.4354 30.6922 80.3223C31.6374 80.2109 32.5375 81.4347 33.1488 82.0017C35.0934 83.8055 38.9523 86.2996 39.3713 89.0129ZM-206.37 104.373H-138.426L-136.442 80.8373C-146.111 80.8373 -156.507 80.4236 -165.951 82.7933C-174.502 84.939 -183.041 89.9747 -190.748 94.139C-194.52 96.1769 -198.314 98.1831 -201.907 100.532C-203.499 101.573 -205.438 102.665 -206.37 104.373ZM2.91919 113.787C1.17953 113.567 -3.44565 112.109 -4.93713 113.054C-5.81719 113.612 -5.68789 115.593 -5.79836 116.512C-6.16593 119.571 -6.61317 122.623 -6.99971 125.679H-28.8214C-32.1788 125.679 -36.2444 126.307 -39.5264 125.584C-42.0658 125.025 -44.6517 122.351 -47.1714 121.332C-53.7456 118.671 -61.6492 118.21 -68.4972 119.981C-67.3532 117.965 -64.8292 117.434 -64.3632 114.778C-63.6299 110.6 -67.3467 106.39 -69.7364 103.382C-73.7132 98.3765 -77.9284 93.3877 -82.6414 89.0513C-85.2964 86.6085 -90.0069 83.8974 -91.8067 80.8373C-74.9372 81.1853 -59.6368 87.9164 -44.4438 94.4313C-36.396 97.8822 -28.5622 102.106 -19.8944 103.726C-13.9183 104.843 -7.76782 105.736 -2.0403 107.855C0.817624 108.912 3.31064 110.473 2.91919 113.787ZM-131.978 104.373H-75.1925C-75.84 101.122 -79.3635 97.7355 -81.3918 95.2064C-85.237 90.412 -89.883 84.5954 -95.7743 82.2645C-101.726 79.9097 -109.824 81.0851 -116.108 81.0851C-119.5 81.0851 -122.892 81.3264 -126.271 81.2055C-127.376 81.166 -129.667 80.6101 -130.589 81.3397C-131.47 82.0371 -131.203 86.1439 -131.231 87.2787C-131.373 92.9823 -131.978 98.6586 -131.978 104.373ZM-346.149 81.8354C-347.405 82.6737 -345.961 84.2435 -344.778 83.5545C-343.344 82.7201 -344.92 81.0152 -346.149 81.8354ZM44.1197 81.8398C42.6247 82.6642 44.1828 84.5112 45.4918 83.6933C46.7949 82.8792 45.3332 81.1707 44.1197 81.8398ZM-87.0952 82.8194C-85.9665 84.7486 -83.5217 86.2594 -81.8878 87.7803C-77.8107 91.5755 -73.6791 95.3214 -69.4891 98.9932C-67.602 100.647 -65.2401 103.496 -62.7938 104.247C-59.4947 105.26 -55.2979 104.621 -51.883 104.621H-30.0613C-31.2172 103.277 -33.206 102.617 -34.7728 101.829C-37.4336 100.49 -40.0866 99.0806 -42.7079 97.664C-52.0998 92.5888 -61.7046 88.664 -71.9688 85.7575C-76.8654 84.3709 -81.9827 82.8194 -87.0952 82.8194ZM-339.78 88.5174C-339.78 87.5684 -340.208 85.2136 -339.383 84.5604C-338.775 84.0799 -337.526 84.3058 -336.805 84.3058H-330.357C-329.649 84.3058 -328.372 84.0745 -327.783 84.5604C-326.98 85.2228 -327.907 86.6963 -328.429 87.2258C-329.979 88.7979 -332.56 88.5174 -334.573 88.5174H-339.78ZM-211.33 102.639C-213.556 108.059 -214.784 113.428 -215.475 119.238C-215.726 121.347 -215.395 123.636 -215.793 125.679C-218.863 124.949 -222.549 126.369 -225.464 125.466C-227.637 124.794 -229.55 122.693 -231.664 121.722C-237.104 119.224 -243.064 118.357 -249.022 118.764C-253.227 119.052 -257.692 120.008 -261.421 122.04C-263.328 123.08 -265.109 125.027 -267.124 125.746C-268.569 126.262 -270.565 125.927 -272.084 125.927H-282.25L-278.531 115.026L-287.458 114.778L-282.746 112.584L-268.612 109.266L-233.152 106.065L-219.513 104.469L-211.33 102.639ZM-152.882 114.042C-153.866 114.785 -153.659 116.874 -152.527 117.354C-150.616 118.164 -147.189 117.503 -145.121 117.503C-144.388 117.503 -143.192 117.72 -142.568 117.249C-141.584 116.506 -141.791 114.416 -142.922 113.937C-144.833 113.127 -148.26 113.787 -150.328 113.787C-151.061 113.787 -152.258 113.571 -152.882 114.042ZM-84.0129 114.042C-84.993 114.706 -84.9285 116.855 -83.8151 117.354C-81.9059 118.209 -78.271 117.503 -76.1843 117.503C-75.4732 117.503 -74.4331 117.676 -73.8122 117.249C-72.8944 116.618 -72.9632 114.408 -74.0093 113.937C-75.9129 113.079 -79.5574 113.787 -81.6398 113.787C-82.3549 113.787 -83.3868 113.617 -84.0129 114.042ZM-233.152 114.035C-233.303 114.85 -233.61 115.927 -233.107 116.682C-232.511 117.577 -229.145 117.599 -228.341 116.964C-226.117 115.204 -229.39 114.035 -230.672 114.035H-233.152ZM-217.281 139.057C-218.425 139.057 -220.616 139.48 -221.587 138.803C-222.799 137.956 -223.573 135.359 -224.397 134.102C-226.073 131.546 -228.348 129.146 -230.92 127.473C-240.027 121.548 -253.738 121.394 -262.412 128.284C-266.154 131.256 -268.453 135.138 -270.595 139.305L-274.563 139.057C-272.389 131.404 -267.25 125.091 -259.932 121.792C-244.675 114.916 -221.429 121.151 -217.281 139.057ZM-31.3009 139.057C-32.79 139.057 -35.3019 139.545 -36.6595 138.908C-37.624 138.455 -38.1905 136.711 -38.7056 135.836C-39.8111 133.959 -41.1899 132.192 -42.7113 130.634C-46.8982 126.346 -52.4345 123.231 -58.578 123.202C-65.6466 123.168 -71.7431 124.834 -77.1536 129.578C-79.0377 131.23 -80.6555 133.225 -81.9891 135.341C-82.6207 136.343 -83.1946 138.154 -84.2159 138.803C-85.214 139.436 -87.1895 139.057 -88.3348 139.057C-87.7275 136.502 -86.1382 134.041 -84.6976 131.873C-72.2014 113.064 -37.5292 115.836 -31.3009 139.057ZM-246.294 126.074C-251.783 126.272 -257.433 128.207 -261.378 132.162C-268.851 139.655 -267.552 151.92 -258.941 157.942C-254.318 161.176 -249.097 162.082 -243.566 161.84C-240.927 161.724 -238.263 160.89 -235.879 159.791C-233.696 158.784 -231.61 157.326 -229.991 155.547C-228.496 153.905 -227.246 152.025 -226.412 149.958C-221.236 137.132 -233.91 125.627 -246.294 126.074ZM-214.057 139.057H-216.785C-218.016 133.742 -221.724 130.424 -224.72 126.175L-218.273 126.171L-215.943 126.191L-215.402 129.395L-214.057 139.057ZM-137.682 125.927L-135.946 139.057L-212.818 139.057L-214.305 126.174H-163.223H-146.857L-137.682 125.927ZM-81.6395 126.422C-84.2752 128.719 -86.1702 131.802 -87.8189 134.845C-88.3736 135.869 -89.0933 138.397 -90.1682 138.908C-92.4991 140.015 -97.4029 139.057 -99.9895 139.057H-124.043H-131.482C-132.257 139.057 -133.658 139.316 -134.308 138.802C-134.943 138.301 -134.917 136.59 -135.049 135.836C-135.563 132.912 -136.44 128.847 -135.946 125.927L-122.555 126.174H-96.022L-86.103 126.174L-81.6395 126.422ZM-63.2895 126.281C-66.4712 126.736 -69.4601 127.679 -72.2165 129.352C-81.5482 135.015 -83.8642 147.58 -76.1619 155.652C-71.421 160.621 -63.8097 162.732 -57.0901 161.775C-54.1759 161.36 -51.1708 160.406 -48.659 158.861C-46.5364 157.554 -44.6862 155.912 -43.1787 153.922C-42.0044 152.372 -41.0525 150.582 -40.4856 148.719C-36.3302 135.064 -50.678 124.477 -63.2895 126.281ZM-30.8049 139.057C-32.0769 133.707 -35.9829 130.437 -38.988 126.175C-28.6562 126.175 -18.3231 126.125 -7.99137 126.175C-4.83908 126.19 1.56244 126.304 3.73097 128.994C5.3702 131.027 5.952 138.143 2.67035 138.979C-0.487969 139.783 -4.72853 139.057 -7.99137 139.057H-30.8049ZM-267.868 126.422C-270.251 130.23 -274.844 134.132 -274.811 139.057H-289.441C-292.2 139.057 -295.512 139.333 -298.119 138.262C-298.812 137.978 -299.523 137.559 -299.749 136.802C-300.061 135.749 -299.582 134.642 -299.435 133.607C-299.131 131.477 -300.004 128.286 -297.859 126.854C-295.979 125.599 -291.645 126.422 -289.441 126.422H-267.868ZM-270.843 139.553L-272.827 147.728H-284.73C-285.975 147.728 -288.261 148.164 -289.345 147.474C-291.241 146.266 -292.809 141.774 -293.905 139.801L-286.218 139.553H-270.843ZM-210.586 147.728H-219.513L-221.249 139.553C-219.543 139.553 -215.597 138.816 -214.184 139.807C-213.496 140.29 -213.315 141.531 -213.065 142.278C-212.416 144.222 -211.36 145.865 -210.586 147.728ZM-134.458 147.728L-193.724 147.728H-204.138C-205.454 147.728 -207.398 148.082 -208.601 147.474C-210.978 146.272 -212.214 142.014 -212.322 139.553H-153.552H-140.905L-136.092 139.807L-135.417 142.03L-134.458 147.728ZM-90.3185 139.553C-90.5718 141.242 -91.8114 146.465 -93.2079 147.474C-93.9422 148.004 -95.4134 147.728 -96.2699 147.728H-103.709H-132.97L-134.458 139.801C-130.329 138.581 -124.635 139.553 -120.323 139.553H-90.3185ZM-84.3672 139.801L-87.2345 147.474L-91.5584 147.728C-90.9356 143.574 -89.4124 138.311 -84.3672 139.801ZM-0.0561974 139.553C-1.20087 141.589 -2.08002 145.725 -4.03445 147.052C-6.16065 148.496 -10.2606 147.728 -12.7028 147.728H-34.0286L-36.5083 139.801C-33.0694 138.785 -28.4405 139.553 -24.8535 139.553H-0.0561974Z" fill="#304A6E"/>
</svg>
