<svg width="81" height="72" viewBox="0 0 81 72" fill="none" xmlns="http://www.w3.org/2000/svg">
<rect width="81" height="72" fill="#1A1E26"/>
<rect x="-449" y="-233" width="980" height="753" rx="4" fill="white"/>
<path d="M161.811 39.9732C160.83 35.063 159.437 30.5923 155.888 26.8727C149.172 19.8342 137.752 19.979 131.29 27.3274C126.619 32.6394 125 40.075 126.375 46.9164C127 50.0253 128.233 53.0803 130.182 55.5955C131.614 57.4444 133.143 59.037 135.183 60.2241C146.853 67.0177 159.426 58.3722 161.479 45.9245C161.805 43.9509 162.214 41.9871 161.811 39.9732ZM161.763 225.209C160.321 219.455 158.767 214.215 153.763 210.458C145.609 204.338 134.602 207.2 129.259 215.538C125.919 220.751 125.124 227.465 126.604 233.393C128.601 241.383 135.415 248.454 144.101 248.239C153.386 248.009 159.813 240.253 161.423 231.657C161.816 229.56 162.297 227.34 161.763 225.209ZM125.273 4.51293L116.106 7.98458L115.633 0.0494039L115.115 -3.91815C103.296 20.3092 108.31 47.4491 102.261 72.9536C101.05 78.0594 98.4075 82.4925 95.9849 87.0881C92.3749 93.9361 89.039 100.951 85.6684 107.918C84.1124 111.134 82.0168 114.424 80.9492 117.837C77.3583 129.317 78.2017 142.648 78.2017 154.537C78.2017 169.466 78.4111 184.08 79.894 198.924C80.7347 207.34 81.9237 216.276 84.9383 224.217C89.89 237.262 96.8998 249.659 101.269 262.901C103.033 268.248 103.385 274.05 104.682 279.516C105.969 284.945 107.577 293.845 114.868 291.914L113.877 283.979C116.465 283.341 119.171 283.225 121.804 282.844C122.635 282.723 124.16 282.206 124.841 282.89C125.848 283.9 125.596 287.271 126.017 288.69C127.45 293.521 132.337 295.69 137.164 293.866C138.323 293.428 139.651 292.555 140.186 291.395C140.726 290.223 140.421 288.819 141.651 288.049C143.584 286.838 146.074 287.03 147.622 285.147C149.267 283.145 148.808 280.188 148.808 277.78L148.808 260.669C148.808 258.696 149.51 255.092 148.659 253.305C148.053 252.032 143.464 251.463 142.119 250.951C137.555 249.213 133.061 246.469 129.774 242.815C121.924 234.087 122.634 220.031 130.498 211.571C135.303 206.4 142.006 203.552 148.808 202.148V108.91V80.6406C148.808 76.9386 149.81 71.5796 148.73 68.0507C148.415 67.024 146.699 67.133 145.835 66.9813C142.981 66.4794 140.241 65.5058 137.66 64.2132C130.893 60.8244 125.986 54.6972 124.644 47.1642C121.725 30.773 132.932 18.4678 148.808 16.4155V3.27289C148.808 1.8296 149.321 -0.853566 148.554 -2.11726C147.176 -4.38622 142.728 -5.21131 140.666 -6.85403C139.034 -8.15359 139.647 -10.8963 138.113 -12.4563C136.952 -13.6375 135.604 -13.0419 134.192 -12.8884C131.507 -12.5966 127.407 -13.2358 125.704 -10.6098C124.839 -9.27616 125.025 -7.41465 125.025 -5.90211C125.025 -2.42168 125.273 1.02706 125.273 4.51293ZM147.57 15.1756L139.394 17.1594L139.642 -5.65416C141.568 -5.044 146.498 -2.94674 147.487 -1.13782C148.145 0.0656202 147.817 2.41626 147.817 3.76886C147.817 7.5819 147.57 11.3754 147.57 15.1756ZM147.817 77.417L142.119 74.9024L139.667 73.8189L139.394 66.7542L147.57 68.49L147.817 77.417ZM147.817 153.545L139.394 152.057C140.685 132.784 139.642 113.108 139.642 93.7833C139.642 89.2021 140.001 84.4458 139.465 79.8967C139.359 79.0014 138.913 76.0086 140.194 75.8057C141.062 75.6683 142.297 76.279 143.11 76.5531C144.53 77.0317 146.559 77.7726 147.315 79.1752C147.894 80.2488 147.802 82.4003 147.816 83.6163C147.855 86.839 147.817 90.0644 147.817 93.2873V133.707C147.817 140.24 147.243 147.046 147.817 153.545ZM139.394 197.684L139.642 177.35L139.394 153.793L139.642 153.545L147.569 155.033C147.57 164.516 147.817 174.046 147.817 183.55C147.817 186.428 148.899 192.09 147.459 194.64C146.614 196.137 141.048 197.515 139.394 197.684ZM147.569 201.156L139.394 203.388V199.42L147.569 196.444V201.156ZM139.642 287.947V280.011V262.901L139.642 251.494L147.569 253.974L147.569 275.3C147.569 277.758 148.328 281.783 147.005 283.956C145.614 286.24 141.658 286.204 139.642 287.947ZM138.898 13.1919C133.575 13.6571 130.647 18.0089 126.264 20.1351C126.264 12.8501 126.275 5.5658 126.264 -1.68654C126.26 -3.88951 125.452 -8.18201 126.781 -10.0488C128.107 -11.9109 131.533 -11.1953 133.448 -11.4006C134.429 -11.5057 135.419 -11.9552 136.417 -11.7932C137.243 -11.6592 137.73 -11.094 138.065 -10.3618C139.552 -7.11173 138.936 -3.12892 138.899 0.297203C138.855 4.45245 139.57 9.11735 138.898 13.1919ZM138.899 70.7217C120.927 66.4588 114.442 42.5638 122.005 27.3264C125.52 20.2441 131.522 15.8422 138.899 13.4398C140.16 18.5853 134.741 19.418 131.466 22.2251C127.52 25.6076 124.772 30.1545 123.703 35.2615C122.045 43.1833 123.371 52.1392 128.494 58.571C130.308 60.8481 132.473 62.674 134.935 64.2176C136.02 64.8982 138.156 65.4995 138.842 66.6091C139.425 67.552 139.183 69.7145 138.899 70.7217ZM139.146 73.9454L125.768 72.2096C126.381 69.6354 126.381 65.8566 125.768 63.2825L130.971 67.3921L139.146 71.4656V73.9454ZM126.016 150.569V73.6974L135.43 74.6893L138.86 75.7564L138.921 80.6406L138.899 91.7994V134.451V147.098L138.879 151.651L135.678 151.632L126.016 150.569ZM126.016 206.116V152.057L135.678 152.988L138.841 153.695L138.902 156.521L138.898 163.712V188.509L138.92 194.709L138.87 197.829L134.687 200.226L126.016 206.116ZM138.898 256.702C115.514 250.314 112.84 214.873 132.457 202.845C134.436 201.632 136.626 200.213 138.898 199.668C138.99 200.836 139.53 202.499 138.892 203.583C138.26 204.655 136.443 205.221 135.43 205.887C133.291 207.294 131.244 208.924 129.526 210.827C124.922 215.929 122.88 222.355 123.047 229.177C123.201 235.499 126.27 241.219 130.727 245.535C132.27 247.03 134.082 248.301 135.926 249.399C136.802 249.921 138.104 250.295 138.739 251.13C139.415 252.017 139.21 255.608 138.898 256.702ZM126.016 249.015L131.962 253.866L139.146 257.446C137.714 265.169 138.886 274.137 138.899 281.996C138.902 284.373 140.111 289.125 138.749 291.16C137.02 293.743 130.933 293.509 128.774 291.591C127.628 290.573 127.167 288.652 126.871 287.203C125.788 281.902 126.016 276.462 126.016 271.085V249.015ZM125.52 72.2099L112.142 73.5735L102.48 76.4254C107.168 58.8722 106.157 40.5071 108.642 22.6151C109.374 17.3383 110.429 12.0934 111.964 6.99278C112.588 4.92097 113.095 2.311 114.372 0.545525C115.087 2.96818 115.351 6.99212 114.867 9.47257C118.164 9.6718 122.693 6.69886 125.768 5.50494L125.768 15.9198C125.768 17.4258 126.116 19.4439 125.622 20.8793C124.965 22.7905 123.065 24.4935 122.116 26.3347C119.839 30.7522 118.644 35.7457 118.585 40.7172C118.523 45.8702 119.253 51.112 121.386 55.8436C122.427 58.1523 124.573 60.1984 125.375 62.5389C126.293 65.2233 125.52 69.3728 125.52 72.2099ZM125.52 150.569L79.4403 153.793C79.4403 142.626 78.7377 130.449 81.6736 119.573C82.5414 116.358 84.3424 113.366 85.8149 110.398C88.2283 105.532 90.5762 100.629 93.0049 95.7674C95.1609 91.4514 97.2206 87.0659 99.6118 82.8727C100.41 81.4733 100.964 79.2137 102.298 78.2486C108.309 73.8986 118.444 73.6977 125.52 73.6977V150.569ZM125.371 152.413C125.974 153.602 125.52 155.949 125.52 157.265V169.167V194.957C125.52 198.526 126.403 203.439 125.393 206.86C124.836 208.748 122.944 210.33 122.001 212.067C120.325 215.151 118.995 220.437 115.611 222.054C112.005 223.777 107.387 220.015 104.71 217.986C99.2983 213.885 94.3883 209.175 89.5977 204.38C86.5014 201.28 82.8837 197.65 80.8571 193.717C79.6371 191.349 80.1386 188.109 79.8937 185.534C79.2263 178.514 79.1925 171.514 79.1925 164.456V157.761C79.1928 157.048 78.9912 155.8 79.6242 155.288C80.5489 154.539 83.4653 154.829 84.6429 154.775C88.9157 154.581 93.2666 154.405 97.5255 153.999C104.606 153.325 111.705 152.069 118.831 152.057C120.149 152.057 124.651 150.993 125.371 152.413ZM112.638 282.739L113.629 290.923C109.766 290.922 108.394 288.153 107.333 284.723C105.546 278.945 104.673 273.025 103.47 267.117C101.721 258.527 97.3898 250.565 93.9145 242.568C87.3817 227.535 81.3924 212.582 80.679 195.949C83.812 198.369 86.4017 202.591 89.1299 205.539C93.4581 210.216 98.4365 214.463 103.41 218.432C106.401 220.818 111.718 225.245 115.858 223.283C117.544 222.485 118.433 220.864 119.575 219.506C119.769 220.818 119.193 222.145 119.101 223.474C118.854 227.067 118.739 230.82 119.404 234.385C120.042 237.809 121.248 240.981 122.859 244.056C123.589 245.45 124.95 246.768 125.393 248.271C125.893 249.964 125.52 252.217 125.52 253.974V265.629V276.788C125.52 277.811 125.932 280.012 125.266 280.854C124.716 281.548 122.632 281.427 121.804 281.5C118.806 281.762 115.561 282.035 112.638 282.739ZM119.691 251.247C119.058 248.505 115.68 246.992 113.392 248.865C111.721 250.232 111.354 252.469 111.909 254.47C112.673 257.226 116.079 258.436 118.29 256.564C119.775 255.306 120.112 253.069 119.691 251.247ZM117.409 135.718C117.08 134.187 114.364 134.096 113.778 135.476C113.047 137.201 113.047 143.356 113.778 145.081C114.329 146.38 116.805 146.393 117.327 145.059C117.64 144.26 117.355 143.222 117.346 142.387C117.322 140.333 117.834 137.703 117.409 135.718ZM117.445 204.413C117.015 203.006 114.439 202.892 113.813 204.201C112.942 206.02 113.629 209.568 113.629 211.571C113.629 212.301 113.463 213.302 113.778 213.982C114.368 215.251 116.857 215.006 117.333 213.776C117.66 212.931 117.37 211.949 117.349 211.075C117.301 209.088 118.017 206.287 117.445 204.413ZM117.097 54.852C116.282 54.7006 115.206 54.3938 114.451 54.8967C113.534 55.5071 113.526 58.9134 114.274 59.6621C116.243 61.6334 117.097 58.7265 117.097 57.332V54.852ZM82.6609 200.909C82.7051 206.247 84.3752 211.704 85.9102 216.779C88.8136 226.379 92.391 235.122 96.9662 244.056C99.262 248.539 101.234 254.327 104.462 258.191C105.075 254.622 104.71 250.658 104.71 247.032C104.71 242.277 105.043 237.376 104.534 232.649C104.26 230.106 105.014 227.134 103.946 224.714C103.039 222.66 101.01 220.922 99.5459 219.259C96.606 215.92 93.6628 212.564 90.5983 209.34C88.148 206.762 85.7492 202.679 82.6609 200.909ZM104.215 81.6335C102.761 82.3704 101.827 84.027 100.931 85.3531C98.8842 88.3823 97.0619 91.5664 95.3159 94.776C90.5552 103.527 84.9509 113.063 82.5309 122.797C81.544 126.767 81.4494 130.894 81.1525 134.948C80.8526 139.042 80.679 143.241 80.679 147.346C80.679 148.281 80.2534 150.661 81.0762 151.307C82.1335 152.137 86.0643 151.244 87.368 151.066C92.9479 150.301 98.6248 150.285 104.215 149.578V81.6335ZM103.967 155.778C98.7478 157.021 92.4861 156.544 87.1203 156.779C85.971 156.83 81.8878 156.522 81.1813 157.415C80.4308 158.363 81.1173 160.396 81.1647 161.481C81.3173 164.97 80.9267 168.419 80.9267 171.896C80.9267 178.05 79.9399 185.848 82.0136 191.734C84.2504 198.082 90.7897 203.5 96.039 207.359C98.4771 209.152 101.235 212.038 104.215 212.811V173.88V161.977L103.967 155.778ZM42.0311 347.461C45.5667 346.618 49.7989 347.213 53.4273 347.213H75.7241C78.6872 347.213 82.2475 347.751 85.1383 347.082C89.7636 346.012 88.3925 341.206 89.7472 338.075C90.265 336.878 91.8438 336.789 92.3246 335.31C92.8204 333.786 92.7514 331.555 92.0627 330.103C91.6481 329.229 90.5386 328.398 90.5774 327.375C90.6559 325.308 92.8567 323.519 93.0743 321.424C93.3412 318.855 90.0385 314.53 88.9149 312.249C88.5017 311.41 88.0934 310.053 87.2713 309.528C86.0103 308.723 83.1306 309.273 81.6699 309.273H67.5486H14.0361H-1.57166C-3.02651 309.273 -6.14876 308.682 -7.3766 309.528C-8.21111 310.103 -8.39208 311.609 -8.73422 312.497C-9.63157 314.825 -12.3549 319.451 -11.8434 321.92C-11.4725 323.71 -9.38872 325.486 -9.39257 327.304C-9.39406 328.12 -10.3902 328.914 -10.7582 329.607C-11.5021 331.008 -11.7169 333.023 -11.3495 334.566C-10.9646 336.183 -9.51762 336.678 -8.88352 338.049C-7.50753 341.024 -7.94551 344.839 -4.54457 346.648C-1.82891 348.092 2.85651 347.213 5.86063 347.213H29.8917C32.7042 347.213 37.6867 346.238 40.2602 347.363C41.3435 347.836 41.0401 349.485 41.0401 350.437C41.0401 352.129 41.3783 354.243 40.9336 355.882C40.6062 357.09 39.3228 357.939 40.1281 359.307C40.8795 360.584 42.6262 359.944 42.8336 358.619C42.9894 357.623 42.2277 356.647 42.1584 355.644C41.9772 353.021 42.5794 349.985 42.0311 347.461ZM61.6028 -38.6337C67.517 -38.6337 73.513 -38.5275 79.4403 -38.3821C81.8909 -38.3219 84.8865 -37.4554 87.1165 -38.8803C91.0107 -41.3688 89.6526 -47.4528 89.8688 -51.2767C89.9771 -53.1932 92.428 -54.5408 92.744 -56.7358C92.9453 -58.1338 92.8104 -60.0123 91.876 -61.1437C91.3481 -61.7828 90.3425 -61.9669 89.9948 -62.7429C88.6419 -65.7612 89.8189 -69.6515 86.1293 -71.501C84.4438 -72.3458 81.7777 -71.8622 79.9357 -71.8622L66.3099 -71.8622H17.2568H2.39223C0.358531 -71.8622 -2.45032 -72.3642 -4.29665 -71.3862C-7.93456 -69.4591 -7.16345 -65.7313 -8.76288 -62.697C-9.84861 -60.6372 -11.6742 -59.9541 -11.4068 -57.2317C-11.1659 -54.7788 -8.96264 -53.2406 -8.77071 -51.0324C-8.47253 -47.6015 -9.64444 -43.2149 -7.64651 -40.144C-5.3031 -36.542 2.84323 -38.1378 6.60386 -38.1378C10.3372 -38.1378 15.6321 -37.1579 19.202 -38.2166C20.5528 -38.6172 19.9786 -40.7295 21.72 -41.0568C24.1237 -41.5087 26.9509 -41.1134 29.3962 -41.1134H44.7563H57.3911C59.2926 -41.1127 61.2593 -40.855 61.6028 -38.6337ZM78.9448 319.192L86.3771 310.761H86.8725C88.7629 314.754 92.8893 319.609 90.776 323.904C89.9934 325.494 89.427 327.908 87.1425 327.296C86.0636 327.008 85.1645 325.694 84.4408 324.905C82.666 322.972 80.9294 320.911 78.9448 319.192ZM91.4944 -58.9673C91.8754 -57.1195 91.324 -54.3996 89.349 -53.6617C88.0153 -53.1633 86.0524 -53.5121 84.6429 -53.5121C80.9144 -53.5121 76.9448 -53.878 73.2467 -53.4414C66.3799 -52.6304 59.1056 -53.2643 52.1885 -53.2643H12.0542C8.445 -53.2643 4.75398 -53.4889 1.15352 -53.242C-1.51044 -53.0594 -5.11291 -52.3698 -7.72316 -53.095C-9.16752 -53.4964 -9.97011 -55.3911 -10.1681 -56.7358C-10.3564 -58.0149 -10.2535 -59.7393 -8.97793 -60.4485C-7.73599 -61.139 -5.43498 -60.7034 -4.04908 -60.7034H7.84257L69.0351 -60.7034L86.1293 -60.7034C87.9667 -60.7034 90.9995 -61.3672 91.4944 -58.9673ZM91.4858 332.831C91.5487 333.856 91.3533 335.4 90.2941 335.87C88.915 336.482 86.6261 336.054 85.1383 336.054H72.9989H11.8064H-5.04007C-7.03037 336.054 -10.0033 336.558 -10.2283 333.823C-10.3669 332.138 -10.1594 329.82 -8.48534 328.907C-7.19621 328.204 -4.98156 328.615 -3.55362 328.615H8.09031H69.5305H82.4132C84.3523 328.615 86.7202 328.248 88.6067 328.719C90.4663 329.183 91.3764 331.048 91.4858 332.831ZM88.8545 -62.1912L23.6981 -62.1912L3.13546 -62.1912L-7.26974 -61.9432C-7.94677 -64.6266 -6.01817 -69.3957 -3.3049 -70.3474C-1.65155 -70.9273 0.416218 -70.6223 2.14448 -70.6223H12.7976H68.0442H81.1746C82.9633 -70.6223 85.1641 -70.9174 86.5783 -69.574C88.6335 -67.6217 88.2602 -64.69 88.8545 -62.1912ZM84.643 -39.3777L84.3953 -52.0243H88.6069C88.9363 -47.8462 89.9836 -40.6213 84.643 -39.3777ZM-7.76508 337.542L-7.51733 337.294L6.35626 337.542H32.617H68.5397L88.3591 337.294C89.0091 339.66 88.112 344.385 85.6118 345.475C84.1571 346.109 81.9897 345.723 80.4314 345.725H69.2829H12.0544C8.34804 345.725 4.60856 345.581 0.905925 345.744C-0.999022 345.828 -3.19552 346.183 -4.78146 344.884C-6.81484 343.217 -7.29259 339.979 -7.76508 337.542ZM85.8817 310.761L78.6972 318.448H78.2017L71.2649 310.761L81.1746 310.513L85.8817 310.761ZM85.8817 327.375H70.7694C72.305 324.492 76.0403 321.065 78.6972 319.192L85.8817 327.375ZM-3.8012 -27.7229V-19.0439H19.2389L66.31 -19.0439L79.4404 -19.0439L84.2458 -19.1303L84.643 -21.0276L84.4935 -27.3576L79.4404 -27.7229L63.3371 -27.7229L-3.8012 -27.7229ZM84.3953 -1.18978C76.8373 -2.61506 69.1631 -3.40325 61.6029 -4.81387C59.8412 -5.14261 58.5665 -6.72418 56.8958 -6.96373C52.6798 -7.56831 47.7983 -6.89305 43.5177 -6.89305C37.1746 -6.89305 30.5073 -7.4957 24.1937 -6.86701C22.3959 -6.68795 21.0198 -5.2164 19.2389 -4.82696C12.0277 -3.24985 3.80878 -1.26299 -3.55345 -0.941613L-3.55345 50.3889C-3.55345 58.786 -4.30451 67.5729 -3.52766 75.9302C-3.26103 78.7985 -2.1259 81.7275 -1.57613 84.5672C0.373399 94.6364 3.0558 104.636 4.69181 114.757C5.64973 120.683 5.3607 126.975 5.62277 132.964C6.07107 143.211 6.40555 153.437 6.35606 163.713C6.28694 178.055 6.43833 192.832 5.07546 207.108C3.31961 225.502 -1.92285 243.53 -3.75896 261.91C-4.7534 271.865 -3.80119 282.402 -3.80119 292.411C3.98688 293.418 11.6524 295.33 19.4867 296.089C26.2924 296.748 33.4572 296.131 40.297 296.131C47.7315 296.131 55.453 296.716 62.8416 295.924C68.0866 295.362 73.2744 294.586 78.4494 293.552C79.8938 293.263 82.9076 293.265 83.9919 292.199C84.8603 291.345 84.3953 288.357 84.3953 287.204V272.821C84.3953 251.927 78.8812 230.972 75.8286 210.332C75.072 205.216 75.1965 200.107 74.9713 194.958C74.458 183.224 74.2567 171.513 74.2378 159.746C74.22 148.693 74.2028 137.567 74.9589 126.517C75.2396 122.414 74.9212 118.195 75.5499 114.118C77.0738 104.239 80.1813 94.3443 82.4714 84.6096C83.0631 82.0947 84.0425 79.483 84.3496 76.9223C85.1869 69.9411 84.3953 62.3841 84.3953 55.3486C84.3953 36.5754 83.5062 17.5572 84.3953 -1.18978ZM83.8998 -39.3772L81.1746 -39.6252V-39.8732H83.6521V-51.7759H72.7514L81.1746 -52.2718L83.8222 -51.6971L83.8998 -48.0563V-39.3772ZM-3.30568 -19.5393V-27.2266L84.1475 -27.2266C84.1475 -25.581 84.9251 -21.2414 83.8929 -19.937C83.1361 -18.9805 79.8184 -19.5393 78.6972 -19.5393L62.8416 -19.5393L-3.30568 -19.5393ZM83.7381 -67.3944C82.813 -70.2554 74.1053 -69.8451 75.3708 -65.4154C76.2699 -62.2683 85.2868 -62.6044 83.7381 -67.3944ZM83.4213 -57.7137C83.0008 -59.2663 80.7753 -58.532 81.3289 -56.9979C81.848 -55.5594 83.7999 -56.3156 83.4213 -57.7137ZM83.4681 340.777C82.9104 339.407 81.4129 339.527 80.1836 339.526C77.699 339.526 73.9131 339.8 75.4127 343.483C76.0021 344.931 77.6631 344.734 78.9449 344.734C81.4533 344.734 84.9372 344.385 83.4681 340.777ZM83.2967 -66.8987C84.2588 -63.4425 76.4379 -63.432 75.8326 -65.6684C74.8772 -69.1986 82.6642 -69.1706 83.2967 -66.8987ZM83.2192 332.143C82.5665 330.683 80.807 331.995 81.3279 333.289C81.9314 334.789 83.8311 333.511 83.2192 332.143ZM83.2774 341.758C83.8579 345.179 76.2357 345.259 75.781 342.745C75.1391 339.196 82.8549 339.268 83.2774 341.758ZM83.1565 75.6814H82.9088L67.2528 24.8467L61.3896 5.75282L58.3823 -4.41412C63.7978 -2.29432 70.4581 -1.97094 76.2197 -1.15813C77.6439 -0.957195 81.9938 -0.957644 82.9019 0.198855C83.7098 1.22762 83.1565 4.2382 83.1565 5.5048V19.8873V75.6814ZM83.0491 262.38C82.9967 263.7 80.693 264.671 79.6881 265.225C75.9169 267.305 71.9965 268.78 67.7965 269.702C58.5114 271.74 48.5172 270.837 39.0583 270.837C31.2122 270.837 22.7375 271.679 15.0273 269.987C10.3446 268.96 5.68188 267.554 1.40139 265.354C0.057895 264.664 -2.49202 263.956 -2.52577 262.156C-2.59704 258.355 -1.28976 254.246 -0.68912 250.503C0.809222 241.165 2.43446 231.838 3.81153 222.482C4.29907 219.169 4.90583 215.88 5.36529 212.563C5.50549 211.551 5.51411 209.3 6.29242 208.58C7.10269 207.829 9.02262 207.694 10.0724 207.461C13.2588 206.752 16.4938 205.969 19.7344 205.581C25.9621 204.835 32.2938 205.124 38.5628 205.124C45.3226 205.124 52.1419 204.877 58.8777 205.349C62.7819 205.623 66.4772 206.543 70.2739 207.441C71.3977 207.707 73.4511 207.709 74.1971 208.722C74.9221 209.706 74.8573 211.633 75.0774 212.811C75.7365 216.339 76.2359 219.927 76.7833 223.474C78.1486 232.322 79.5553 241.177 81.0347 250.007C81.6829 253.876 83.2044 258.465 83.0491 262.38ZM-2.56249 291.418C-3.79688 284.763 -2.81023 277.11 -2.81023 270.341C-2.81023 268.357 -2.43411 266.07 -2.81023 264.141C-0.452411 263.984 2.87228 266.622 5.11753 267.514C10.2545 269.554 15.4855 270.768 20.9731 271.29C28.9159 272.047 37.2701 271.333 45.2519 271.333C52.0546 271.333 59.3655 272.054 66.0623 270.672C69.8007 269.9 73.5141 268.825 76.963 267.171C78.9845 266.201 81.0147 264.45 83.1565 263.894V283.731C83.1565 285.379 83.9268 289.672 82.9019 290.99C82.035 292.105 78.7731 292.098 77.4584 292.361C72.0112 293.451 66.4179 294.509 60.8597 294.646C48.2067 294.957 35.1096 295.735 22.4595 294.868C14.0838 294.294 5.7781 291.777 -2.56249 291.418ZM82.1656 75.4336C75.0044 72.8094 68.941 67.5996 61.3552 65.7726C55.8252 64.4408 49.4266 65.2668 43.7654 65.2668C35.2634 65.2668 25.4657 63.9085 17.2569 66.3673C10.3282 68.4427 4.7118 72.9326 -1.81926 75.6817C-0.947172 69.2311 2.28287 62.2763 4.35558 56.0917C8.60019 43.4267 12.3313 30.5879 16.5139 17.9038C18.3346 12.3824 20.1274 6.84988 21.8241 1.28959C22.521 -0.99417 23.5967 -3.28671 23.946 -5.65372H38.5628C38.5006 -4.22487 37.1232 -1.72321 37.7732 -0.45602C39.4986 2.90777 44.5918 3.38068 45.8225 -0.703967C46.2053 -1.97443 45.1481 -4.17956 44.7564 -5.40569L54.1706 -5.65372L57.4274 -5.07889L59.746 2.03351L64.9287 18.8957L77.1415 58.5715L82.1656 75.4336ZM79.9359 74.9377C75.5376 74.4994 71.2611 72.6852 66.8055 72.2521C60.2315 71.6132 53.582 72.1201 46.9861 71.9584C36.6303 71.7045 25.8434 70.7399 15.5227 71.7561C10.3512 72.2654 5.44193 74.0311 0.410436 75.1857V74.9377C6.86406 70.9842 14.1666 67.0662 21.7163 65.8432C29.0065 64.6623 37.3642 65.7627 44.7564 65.7627C49.4173 65.7627 54.5125 65.1789 59.1255 65.8371C63.6736 66.4861 67.8951 68.741 72.0081 70.6458C74.6028 71.8475 77.7297 73.108 79.9359 74.9377ZM70.5217 326.383L70.5217 311.256L76.2197 316.712L77.7257 318.944L75.972 321.175L70.5217 326.383ZM77.3533 241.328C76.3337 233.555 74.8682 225.887 72.9677 218.266C72.4953 216.372 72.3088 211.888 70.8686 210.544C70.051 209.78 68.1159 209.704 67.0533 209.488C63.8657 208.841 60.6632 208.101 57.3913 208.1H23.6983C20.285 208.1 16.8963 208.628 13.5408 209.234C12.513 209.42 10.5445 209.397 9.80843 210.229C9.10909 211.02 9.03847 212.562 8.83294 213.555C8.31819 216.042 7.69771 218.518 7.12893 220.994C5.11474 229.762 3.38335 238.515 3.38335 247.527C3.38335 249.826 3.03485 252.438 3.42006 254.704C3.70687 256.391 7.57133 255.462 8.8337 255.462H26.1757H64.5758C67.7113 255.462 70.8555 255.393 73.9901 255.462C74.8343 255.482 76.5669 256.03 77.2038 255.269C77.8447 254.503 77.4585 252.435 77.4585 251.491C77.4585 248.159 77.7868 244.629 77.3533 241.324M74.2378 206.856L58.8778 203.89L37.3241 203.88L21.9641 203.923L6.10853 206.856L6.61376 197.433L7.10045 179.331L7.33748 142.631L5.86077 114.858L19.7344 112.897L37.8196 112.874L60.3642 112.884L74.2378 114.858L73.0027 146.847L73.4909 183.299L74.2378 206.856ZM72.0081 -51.7803H70.7694V-52.0282L72.0081 -51.7803ZM70.2739 -50.2925H10.0724V-51.7803L70.2739 -52.0282V-50.2925ZM70.1233 -49.2219C70.9047 -47.5623 68.7792 -47.5652 67.7965 -47.5647H58.1345H21.7163H13.0453C12.2603 -47.5647 10.6844 -47.266 10.2575 -48.1393C9.50621 -49.6762 11.3119 -49.7945 12.3021 -49.7965H20.9731H57.1435H66.8055C67.6513 -49.7965 69.6762 -50.1714 70.1233 -49.2219ZM10.0724 -47.0688H70.2739L69.8767 -45.0919L66.8055 -44.837H59.1255H22.7073H13.7885L10.4696 -45.0919L10.0724 -47.0688ZM70.2739 -39.8776H62.5939C61.2499 -43.2758 56.8729 -42.6052 53.9229 -42.6052H28.1576C25.0514 -42.6052 19.7367 -43.749 18.9911 -39.6295L10.3201 -39.3816C10.0446 -40.3146 9.5637 -43.3909 10.4723 -44.0899C11.2134 -44.6599 12.9059 -44.3411 13.7885 -44.3411H22.2118H58.63H67.0533C67.8339 -44.3411 69.466 -44.6427 70.0193 -43.9435C70.6882 -43.0981 70.2739 -40.9109 70.2739 -39.8776ZM69.5307 315.716C66.163 316.713 61.6473 315.965 58.1345 315.965C58.0982 312.896 53.9858 313.981 51.6932 313.981H30.3873C28.0025 313.981 22.9927 312.781 22.955 315.965H10.8156L11.0703 310.907L14.7795 310.509H25.1847H69.2829L69.5307 315.716ZM69.5307 323.9H55.4093H26.9189L11.0634 324.148L10.8156 316.46H22.955C23.1598 319.147 27.4124 318.196 29.3963 318.196H50.7022C52.7808 318.196 57.9216 319.254 58.1345 316.46H66.31L69.2761 316.858L69.5307 323.9ZM69.5307 327.123L63.0894 327.371H50.95H10.8156V324.644H55.6571H65.5668L69.1333 324.898L69.5307 327.123ZM61.4978 135.192C61.0802 132.047 60.1093 129.149 57.1435 127.513C54.6948 126.163 51.9097 126.513 49.2158 126.513L34.3512 126.513C30.5697 126.513 25.4709 125.583 22.2118 127.911C17.8426 131.032 18.4957 136.686 18.4957 141.391C18.4957 143.338 18.2945 145.413 18.57 147.342C20.108 158.117 32.3156 155.526 40.297 155.526C45.0227 155.526 52.3164 156.893 56.6481 154.841C63.0542 151.806 62.2827 141.103 61.4978 135.192ZM61.0367 135.192C61.7104 140.83 62.596 151.15 56.6481 154.157C52.227 156.393 44.9048 155.03 40.0493 155.03C33.5644 155.03 20.511 157.555 19.2836 148.334C18.5345 142.706 17.2223 131.839 22.7494 128.306C25.955 126.258 30.4827 127.009 34.1035 127.009H47.4816C54.0507 127.009 60.0863 127.238 61.0367 135.192ZM57.3913 317.7H23.6983L23.4505 314.725L34.3512 314.477H57.3913V317.7ZM55.1545 -58.2906C54.2289 -59.4263 52.5791 -57.698 53.5771 -56.6041C54.5984 -55.4847 55.9417 -57.3246 55.1545 -58.2906ZM55.2216 332.14C54.6003 330.702 52.6022 331.975 53.2473 333.286C53.9727 334.76 55.8124 333.507 55.2216 332.14ZM46.7383 186.77C44.138 188.038 41.878 191.801 39.9786 193.962C39.0708 194.994 38.0997 195.796 37.8196 197.185L43.5186 190.843L46.7383 186.77ZM39.8015 -5.16124H43.7654C44.056 -3.89256 45.0849 -1.92645 44.3494 -0.701362C43.0323 1.49254 39.7532 1.60263 39.0031 -1.19734C38.6902 -2.36522 39.54 -4.0191 39.8015 -5.16124ZM27.4226 -57.4827C27.3348 -58.9072 25.2581 -58.9645 25.2581 -57.4827C25.2581 -55.8996 27.5235 -55.8466 27.4226 -57.4827ZM27.2267 332.139C26.5948 330.671 24.5886 331.925 25.2744 333.286C26.0137 334.754 27.8106 333.496 27.2267 332.139ZM23.4505 -4.66527L20.2228 5.0057L14.3473 23.3557L-2.06699 74.6862H-2.31474L-2.31474 21.372V6.74149C-2.31474 5.12413 -2.90137 2.10218 -2.16525 0.649673C-1.5792 -0.506751 2.43006 -0.550866 3.63109 -0.759685C8.74738 -1.64949 13.8512 -2.71396 18.9911 -3.45796C20.3856 -3.65978 22.1527 -5.02049 23.4505 -4.66527ZM9.82467 326.875C7.41912 325.752 5.72345 323.025 3.87884 321.172C3.31839 320.609 2.2143 319.819 2.19223 318.941C2.16934 318.031 3.35806 317.18 3.93103 316.597C5.60051 314.898 7.53032 311.743 9.82467 311.005V326.875ZM9.57692 -39.6295L-2.56248 -39.3816C-3.55792 -42.7525 -2.81022 -47.2723 -2.81022 -50.7884H-2.56248V-39.8776C0.853378 -39.8776 6.44248 -40.9461 9.57692 -39.6295ZM8.83369 311.005C6.54789 313.293 4.0997 317.069 1.15366 318.444L-5.78313 310.757L4.86981 310.509L8.83369 311.005ZM8.83369 327.371H-6.03088C-4.96684 325.087 -0.560971 320.127 1.89689 319.436L8.83369 327.371ZM5.20262 -67.1537C4.26276 -70.2335 -4.62526 -69.9594 -3.24645 -65.4199C-2.30109 -62.3076 6.55129 -62.7341 5.20262 -67.1537ZM4.93364 341.011C3.79505 338.071 -4.94571 338.667 -3.34183 343.237C-2.32311 346.14 6.73208 345.654 4.93364 341.011ZM4.63716 -65.6716C4.21143 -63.529 -3.43192 -63.2996 -2.75346 -66.8957C-2.32096 -69.188 5.34179 -69.2177 4.63716 -65.6716ZM4.49456 341.272C5.75478 345.176 -2.12987 345.288 -2.85515 342.979C-4.03073 339.237 3.86159 339.312 4.49456 341.272ZM-34.2736 -3.92135H-34.5213L-35.5123 7.98138C-37.6385 6.77021 -42.8843 6.02874 -44.1764 3.94569C-44.8396 2.87645 -44.2437 1.20486 -44.1931 0.0462028C-44.0649 -2.88224 -43.3013 -7.98956 -44.7786 -10.5934C-46.3197 -13.3096 -50.7509 -12.5522 -53.3498 -12.9229C-54.6488 -13.1081 -55.826 -13.5177 -56.9906 -12.6305C-58.5597 -11.4351 -58.902 -8.73236 -59.0479 -6.89703L-65.7369 -3.51115L-67.8171 -1.85682L-67.9666 3.51786V16.4125C-52.7856 18.3429 -41.0625 29.9546 -43.5488 45.9213C-44.7752 53.7971 -49.1886 60.3053 -56.3227 63.9964C-59.1171 65.4423 -61.9422 66.2818 -64.9937 66.9694C-65.8515 67.1627 -67.5749 67.0259 -67.8879 68.0476C-68.9687 71.5765 -67.9666 76.9356 -67.9666 80.6376V108.907V202.145C-60.8522 203.614 -54.1209 206.569 -49.1804 212.064C-41.8235 220.246 -41.0297 233.995 -48.5232 242.387C-52.0475 246.334 -56.3888 249.022 -61.2776 250.945C-62.6182 251.472 -67.2025 252.035 -67.8171 253.305C-68.83 255.398 -67.8271 259.407 -67.7286 261.658C-67.4412 268.228 -68.5546 274.98 -67.9246 281.496C-67.6924 283.898 -66.8298 285.724 -64.4982 286.699C-63.1967 287.243 -61.4333 287.356 -60.3653 288.352C-58.7524 289.857 -59.4879 292.18 -57.0659 293.509C-54.3655 294.99 -48.5722 294.759 -46.5711 292.146C-44.7006 289.703 -44.2448 285.471 -44.1833 282.488L-33.0349 283.976L-34.0258 291.663C-26.8093 295.709 -24.4815 282.546 -23.4595 278.025C-22.3189 272.979 -22.0144 267.541 -20.2914 262.65C-14.6728 246.702 -5.01939 231.959 -1.57077 215.287C2.65345 194.866 2.67199 174.501 2.6401 153.79C2.62226 142.212 3.52066 129.278 0.0546759 118.082C-0.929597 114.902 -2.85534 111.903 -4.29058 108.907C-7.31001 102.604 -10.2781 96.2433 -13.537 90.0606C-16.8318 83.8097 -20.2371 77.9259 -21.7813 70.9666C-27.22 46.4552 -21.7932 18.8872 -34.2736 -3.92135ZM-44.6788 150.318L-44.431 141.639V125.521V73.6944C-38.7219 73.6944 -33.0864 74.2104 -27.5845 75.8209C-25.5037 76.43 -22.9333 77.0031 -21.2112 78.3974C-20.0636 79.3267 -19.5147 81.3314 -18.8495 82.6214C-17.268 85.6882 -15.5986 88.709 -14.0573 91.7964C-11.4203 97.0786 -8.84926 102.388 -6.21211 107.667C-4.45666 111.181 -2.22831 114.824 -1.04833 118.578C0.0904104 122.2 0.34445 125.994 0.700226 129.736C1.25121 135.532 1.26295 141.276 1.40502 147.095C1.44092 148.564 2.39575 152.156 1.39373 153.392C0.854811 154.057 -0.59581 153.571 -1.32379 153.545C-3.96598 153.448 -6.61107 153.172 -9.25157 153.056C-17.3135 152.702 -25.2562 151.621 -33.2826 150.856C-36.8912 150.512 -41.2147 151.343 -44.6788 150.318ZM-44.6788 152.054C-41.7193 151.349 -38.2681 152.074 -35.2646 152.28C-27.285 152.827 -19.236 154.234 -11.2335 154.286C-8.15245 154.306 -4.88095 154.491 -1.81928 154.853C-1.02516 154.946 0.583817 154.771 1.21748 155.285C1.93131 155.863 1.64912 157.449 1.64912 158.253V166.188C1.64912 171.923 1.41329 177.587 1.16338 183.299C1.03519 186.229 1.44151 190.199 0.455527 192.97C-0.392884 195.354 -2.5443 197.525 -4.15488 199.417C-10.289 206.624 -17.4485 213.404 -25.1071 218.969C-27.7541 220.893 -32.2708 223.976 -35.5087 221.608C-38.3996 219.494 -39.7232 214.629 -41.4012 211.568C-42.249 210.021 -44.02 208.528 -44.5096 206.853C-44.874 205.605 -44.4311 203.941 -44.4311 202.641V192.474V165.445C-44.4311 161.207 -43.6974 156.18 -44.6788 152.054ZM-8.01285 327.371L-10.5895 321.668L-9.57825 318.196L-6.77413 310.757C-4.67994 312.234 -3.12622 314.407 -1.32379 316.212C-0.690935 316.846 0.564554 317.733 0.677658 318.692C0.789068 319.637 -0.434674 320.538 -1.00168 321.149C-2.8055 323.093 -5.29963 326.952 -8.01285 327.371ZM-23.3729 81.6295V149.574L0.162663 151.558C0.162663 141.889 0.576419 131.493 -1.79329 122.049C-3.93902 113.498 -8.97466 104.959 -13.139 97.2519C-15.1769 93.4802 -17.1831 89.6857 -19.5317 86.0931C-20.5725 84.5009 -21.6654 82.5623 -23.3729 81.6295ZM-32.7871 290.919C-32.5675 289.18 -31.1093 284.554 -32.0544 283.063C-32.6121 282.183 -34.5931 282.312 -35.5123 282.202C-38.5711 281.834 -41.6229 281.387 -44.6788 281L-44.6788 259.179C-44.6788 255.821 -45.3066 251.756 -44.5838 248.474C-44.0245 245.934 -41.3514 243.348 -40.3316 240.829C-37.671 234.254 -37.2099 226.351 -38.9807 219.503C-36.9651 220.647 -36.4335 223.171 -33.7781 223.637C-29.6003 224.37 -25.3895 220.653 -22.3819 218.264C-17.3765 214.287 -12.3877 210.072 -8.05127 205.359C-5.60845 202.704 -2.89735 197.993 0.162663 196.193C-0.185272 213.063 -6.91637 228.363 -13.4313 243.556C-16.8822 251.604 -21.1062 259.438 -22.726 268.106C-23.8428 274.082 -24.7361 280.232 -26.8547 285.96C-27.9118 288.818 -29.4733 291.311 -32.7871 290.919ZM-23.3729 156.022V212.808C-20.1224 212.16 -16.7355 208.637 -14.2064 206.608C-9.412 202.763 -3.59544 198.117 -1.26454 192.226C1.09028 186.274 -0.0850878 178.176 -0.0850878 171.892C-0.0850878 168.5 -0.326368 165.108 -0.205504 161.729C-0.166039 160.624 0.389895 158.333 -0.339711 157.411C-1.03713 156.53 -5.14388 156.797 -6.27866 156.769C-11.9823 156.627 -17.6586 156.022 -23.3729 156.022ZM-0.835393 -58.1488C-1.67375 -59.405 -3.24353 -57.9615 -2.55448 -56.7777C-1.72015 -55.3442 -0.0152254 -56.9198 -0.835393 -58.1488ZM-0.83985 332.12C-1.66425 330.625 -3.51116 332.183 -2.69334 333.492C-1.87918 334.795 -0.170714 333.333 -0.83985 332.12ZM-1.81935 200.905C-3.74855 202.034 -5.25939 204.478 -6.78031 206.112C-10.5755 210.189 -14.3214 214.321 -17.9932 218.511C-19.6468 220.398 -22.4958 222.76 -23.2468 225.206C-24.2597 228.505 -23.6207 232.702 -23.6207 236.117V257.939C-22.277 256.783 -21.6172 254.794 -20.8288 253.227C-19.4901 250.566 -18.0806 247.913 -16.664 245.292C-11.5888 235.9 -7.66402 226.295 -4.75747 216.031C-3.37089 211.135 -1.81935 206.017 -1.81935 200.905ZM-7.51744 -51.7803C-6.56845 -51.7803 -4.21355 -52.2081 -3.56043 -51.3827C-3.07993 -50.7754 -3.30581 -49.5263 -3.30581 -48.8046V-42.3573C-3.30581 -41.6494 -3.07447 -40.3715 -3.56043 -39.7829C-4.22279 -38.9805 -5.6963 -39.9072 -6.22577 -40.4292C-7.79786 -41.9791 -7.51744 -44.5602 -7.51744 -46.5729V-51.7803ZM-21.6388 76.67C-27.0594 74.4441 -32.4278 73.2159 -38.2376 72.5253C-40.3475 72.2744 -42.6363 72.6055 -44.6789 72.2065C-43.9488 69.1374 -45.3686 65.4506 -44.4663 62.5355C-43.7939 60.3631 -41.6927 58.4496 -40.7222 56.3362C-38.2243 50.8963 -37.3566 44.9364 -37.7642 38.978C-38.052 34.7726 -39.0079 30.3078 -41.0401 26.5794C-42.0799 24.6718 -44.0266 22.8915 -44.7463 20.876C-45.2624 19.4309 -44.9266 17.4347 -44.9266 15.9165V5.74962L-34.0259 9.46922L-33.7782 0.542176L-31.5839 5.25365L-28.2659 19.3881L-25.0653 54.8484L-23.4686 68.4869L-21.6388 76.67ZM-33.0418 135.118C-33.7845 134.134 -35.8741 134.341 -36.3539 135.473C-37.1639 137.384 -36.5034 140.811 -36.5034 142.879C-36.5034 143.612 -36.72 144.808 -36.2487 145.432C-35.5061 146.416 -33.4165 146.209 -32.9367 145.078C-32.1267 143.167 -32.7872 139.74 -32.7872 137.672C-32.7872 136.939 -32.5705 135.742 -33.0418 135.118ZM-33.0418 203.987C-33.7063 203.007 -35.8551 203.072 -36.3539 204.185C-37.2092 206.094 -36.5035 209.729 -36.5034 211.816C-36.5033 212.527 -36.6757 213.567 -36.2487 214.188C-35.6176 215.106 -33.4079 215.037 -32.9367 213.991C-32.0792 212.087 -32.7871 208.443 -32.7872 206.36C-32.7873 205.645 -32.6173 204.613 -33.0418 203.987ZM-33.0351 54.8484C-33.8502 54.697 -34.9266 54.3901 -35.6816 54.893C-36.577 55.4892 -36.5992 58.8554 -35.9637 59.6585C-34.2036 61.883 -33.0352 58.6099 -33.0351 57.3284V54.8484ZM-58.0572 70.719C-58.0572 69.5745 -58.4799 67.3841 -57.8025 66.4134C-56.9564 65.2009 -54.3586 64.4265 -53.1023 63.6031C-50.5455 61.9275 -48.1461 59.6515 -46.4733 57.0804C-40.5478 47.973 -40.3941 34.2622 -47.284 25.5878C-50.2556 21.8464 -54.1383 19.5475 -58.3049 17.4046L-58.0572 13.4371C-50.4038 15.611 -44.0905 20.75 -40.7924 28.0675C-33.9157 43.3248 -40.1512 66.5706 -58.0572 70.719ZM-58.0572 256.699C-58.0572 255.21 -58.5454 252.698 -57.9077 251.341C-57.4546 250.376 -55.7114 249.809 -54.8365 249.294C-52.959 248.189 -51.1921 246.81 -49.6339 245.289C-45.3456 241.102 -42.2314 235.566 -42.2018 229.422C-42.1678 222.353 -43.8342 216.257 -48.5783 210.846C-50.2304 208.962 -52.2249 207.344 -54.341 206.011C-55.3432 205.379 -57.1544 204.805 -57.8025 203.784C-58.436 202.786 -58.0572 200.81 -58.0572 199.665C-55.5025 200.273 -53.0408 201.862 -50.8726 203.302C-32.0642 215.799 -34.8359 250.471 -58.0572 256.699ZM-45.074 41.7061C-45.2722 36.2167 -47.2073 30.5667 -51.1624 26.622C-58.6553 19.1488 -70.9197 20.448 -76.9424 29.0594C-80.1757 33.6825 -81.0821 38.9033 -80.8398 44.4338C-80.7242 47.0728 -79.8898 49.7373 -78.7909 52.1209C-77.7844 54.3042 -76.3264 56.39 -74.5472 58.009C-72.9045 59.5037 -71.025 60.7536 -68.9578 61.5879C-56.1321 66.7644 -44.6269 54.0899 -45.074 41.7061ZM-58.0572 73.9426V71.2149C-52.7424 69.9836 -49.4241 66.276 -45.1745 63.2798L-45.1708 69.7271L-45.1911 72.0572L-48.3951 72.5977L-58.0572 73.9426ZM-44.9267 150.318L-58.0571 152.054V75.1825L-45.1745 73.6946V124.777V141.143L-44.9267 150.318ZM-45.4222 206.36C-47.719 203.725 -50.8022 201.83 -53.8455 200.181C-54.8693 199.626 -57.397 198.907 -57.9076 197.832C-59.0148 195.501 -58.0571 190.597 -58.0571 188.01V163.957V156.518C-58.0571 155.743 -58.3158 154.342 -57.8025 153.692C-57.3014 153.057 -55.5902 153.083 -54.8365 152.951C-51.9122 152.437 -47.8469 151.56 -44.9267 152.054L-45.1745 165.445V191.978L-45.1737 201.897L-45.4222 206.36ZM-45.2808 224.711C-45.736 221.529 -46.6791 218.54 -48.3519 215.783C-54.0152 206.452 -66.58 204.136 -74.6525 211.838C-79.6212 216.579 -81.7323 224.19 -80.7753 230.91C-80.3602 233.824 -79.4065 236.829 -77.8607 239.341C-76.5544 241.464 -74.912 243.314 -72.9219 244.821C-71.3716 245.996 -69.5821 246.948 -67.7193 247.514C-54.0641 251.67 -43.4765 237.322 -45.2808 224.711ZM-58.0573 257.195C-52.7069 255.923 -49.4369 252.017 -45.1747 249.012C-45.1747 259.344 -45.1251 269.677 -45.1749 280.009C-45.19 283.161 -45.304 289.562 -47.9937 291.731C-50.0269 293.37 -57.1426 293.952 -57.9786 290.67C-58.7832 287.512 -58.0573 283.271 -58.0573 280.009L-58.0573 257.195ZM-45.4224 20.1324C-49.2295 17.7488 -53.1317 13.1565 -58.0573 13.1891V-1.44134C-58.0573 -4.20032 -58.3334 -7.51248 -57.2621 -10.1195C-56.9776 -10.8117 -56.5595 -11.5233 -55.8018 -11.7485C-54.7489 -12.0614 -53.6424 -11.5824 -52.607 -11.4347C-50.4767 -11.1309 -47.2858 -12.0036 -45.8541 -9.85888C-44.5995 -7.97943 -45.4224 -3.64543 -45.4224 -1.44134V20.1324ZM-58.5528 17.1567L-66.7283 15.1729V3.27013C-66.7283 2.02466 -67.1643 -0.260515 -66.4737 -1.34456C-65.2656 -3.24088 -60.7745 -4.80907 -58.8006 -5.90486L-58.5528 1.78229V17.1567ZM-66.7283 77.4142V68.4872L-58.5528 66.7514C-58.5528 68.4568 -57.8158 72.4027 -58.8074 73.8161C-59.2898 74.5037 -60.531 74.685 -61.278 74.9345C-63.2224 75.5838 -64.8654 76.6403 -66.7283 77.4142ZM-66.7283 153.542V94.2765V83.8616C-66.7283 82.5457 -67.082 80.6017 -66.4737 79.399C-65.2717 77.0222 -61.0135 75.7858 -58.5528 75.6785V134.448V147.095L-58.8074 151.908L-61.0302 152.583L-66.7283 153.542ZM-58.5528 197.681C-60.242 197.428 -65.4646 196.189 -66.4737 194.792C-67.0042 194.058 -66.7283 192.587 -66.7283 191.73V184.291V155.03L-58.8006 153.542C-57.5812 157.671 -58.5528 163.365 -58.5528 167.677V197.681ZM-58.8006 203.633L-66.4737 200.765L-66.7283 196.442C-62.5736 197.064 -57.3107 198.588 -58.8006 203.633ZM-58.5528 287.944C-60.5895 286.799 -64.7254 285.92 -66.0524 283.966C-67.4959 281.839 -66.7283 277.739 -66.7283 275.297L-66.7283 253.971L-58.8006 251.492C-57.785 254.931 -58.5528 259.56 -58.5528 263.146L-58.5528 287.944Z" fill="#304A6E"/>
</svg>
