<svg width="81" height="72" viewBox="0 0 81 72" fill="none" xmlns="http://www.w3.org/2000/svg">
<rect width="81" height="72" fill="#1A1E26"/>
<rect x="-530" y="-305" width="980" height="753" rx="4" fill="white"/>
<path d="M80.8114 -32.0268C79.8295 -36.937 78.4369 -41.4077 74.8876 -45.1273C68.1717 -52.1658 56.7525 -52.021 50.2903 -44.6726C45.6191 -39.3606 43.9999 -31.925 45.3751 -25.0836C46 -21.9747 47.2332 -18.9197 49.1818 -16.4045C50.6142 -14.5556 52.1432 -12.963 54.1825 -11.7759C65.8526 -4.98234 78.4265 -13.6278 80.4792 -26.0755C80.8047 -28.0491 81.2142 -30.0129 80.8114 -32.0268ZM80.7629 153.209C79.3205 147.455 77.7675 142.215 72.7633 138.458C64.6093 132.338 53.6019 135.2 48.2591 143.538C44.9188 148.751 44.1236 155.465 45.6044 161.393C47.6007 169.383 54.4146 176.454 63.1013 176.239C72.3856 176.009 78.8131 168.253 80.4234 159.657C80.8162 157.56 81.297 155.34 80.7629 153.209ZM44.2728 -67.4871L35.1063 -64.0154L34.633 -71.9506L34.1154 -75.9182C22.2961 -51.6908 27.3105 -24.5509 21.2614 0.953631C20.0505 6.05938 17.4075 10.4925 14.9849 15.0881C11.3749 21.9361 8.03899 28.9509 4.66839 35.9179C3.11241 39.1341 1.0168 42.4239 -0.0507716 45.8368C-3.6417 57.3169 -2.79831 70.6484 -2.79831 82.5369C-2.79831 97.4657 -2.58888 112.08 -1.10598 126.924C-0.265261 135.34 0.923718 144.276 3.93835 152.217C8.88998 165.262 15.8998 177.659 20.2691 190.901C22.0331 196.248 22.3855 202.05 23.6815 207.516C24.9689 212.945 26.5772 221.845 33.8676 219.914L32.8767 211.979C35.4651 211.341 38.171 211.225 40.8044 210.844C41.6347 210.723 43.1597 210.206 43.8412 210.89C44.8482 211.9 44.596 215.271 45.017 216.69C46.4502 221.521 51.3374 223.69 56.1645 221.866C57.3233 221.428 58.651 220.555 59.186 219.395C59.7261 218.223 59.4209 216.819 60.6508 216.049C62.5844 214.838 65.074 215.03 66.6219 213.147C68.2672 211.145 67.8084 208.188 67.8084 205.78V188.669C67.8084 186.696 68.5095 183.092 67.6589 181.305C67.0526 180.032 62.4644 179.463 61.1193 178.951C56.5549 177.213 52.0607 174.469 48.7745 170.815C40.9235 162.087 41.6345 148.031 49.4976 139.571C54.3031 134.4 61.0059 131.552 67.8084 130.148V36.9096L67.8084 8.64064C67.8084 4.93859 68.8104 -0.420389 67.7296 -3.94933C67.4152 -4.97601 65.6987 -4.86695 64.8355 -5.01871C61.9812 -5.52064 59.2412 -6.49421 56.66 -7.78685C49.8929 -11.1756 44.9864 -17.3028 43.6445 -24.8358C40.7245 -41.227 51.9322 -53.5322 67.8084 -55.5845V-68.7271C67.8084 -70.1704 68.321 -72.8536 67.5538 -74.1173C66.1762 -76.3862 61.7281 -77.2113 59.666 -78.854C58.0345 -80.1536 58.6466 -82.8963 57.1132 -84.4563C55.9522 -85.6375 54.6035 -85.0419 53.1916 -84.8884C50.5071 -84.5966 46.4068 -85.2358 44.7035 -82.6098C43.8385 -81.2762 44.0251 -79.4146 44.0251 -77.9021C44.0251 -74.4217 44.2728 -70.9729 44.2728 -67.4871ZM66.5697 -56.8244L58.3942 -54.8406L58.6419 -77.6542C60.5682 -77.044 65.4983 -74.9467 66.4873 -73.1378C67.1452 -71.9344 66.8174 -69.5837 66.8174 -68.2311C66.8174 -64.4181 66.5697 -60.6246 66.5697 -56.8244ZM66.8174 5.41701L61.1193 2.9024L58.6674 1.81889L58.3942 -5.24583L66.5697 -3.51004L66.8174 5.41701ZM66.8174 81.5449L58.3942 80.057C59.6849 60.7839 58.6419 41.1076 58.6419 21.7833C58.6419 17.2021 59.0012 12.4458 58.4649 7.89672C58.3594 7.00141 57.9134 4.00861 59.194 3.80574C60.0616 3.66827 61.2975 4.27903 62.1103 4.55309C63.5296 5.03173 65.5587 5.7726 66.3151 7.17519C66.894 8.24882 66.802 10.4003 66.8165 11.6163C66.8547 14.839 66.8172 18.0644 66.8172 21.2873V61.707C66.8172 68.2398 66.2426 75.0457 66.8174 81.5449ZM58.394 125.684L58.6417 105.35L58.394 81.7929L58.6417 81.5449L66.5695 83.0327C66.5702 92.5157 66.8172 102.046 66.8172 111.55C66.8172 114.428 67.8991 120.09 66.4594 122.64C65.614 124.137 60.0479 125.515 58.394 125.684ZM66.5695 129.156L58.394 131.388V127.42L66.5695 124.444V129.156ZM58.6417 215.947V208.011V190.901V179.494L66.5695 181.974V203.3C66.5695 205.758 67.3276 209.783 66.005 211.956C64.6144 214.24 60.6575 214.204 58.6417 215.947ZM57.8985 -58.8081C52.5746 -58.3429 49.6465 -53.9911 45.2636 -51.8649C45.2636 -59.1499 45.2753 -66.4342 45.2636 -73.6865C45.2599 -75.8895 44.4525 -80.182 45.7812 -82.0488C47.1067 -83.9109 50.5326 -83.1953 52.4481 -83.4006C53.4291 -83.5057 54.4188 -83.9552 55.4172 -83.7932C56.2426 -83.6592 56.7303 -83.094 57.0652 -82.3618C58.5517 -79.1117 57.936 -75.1289 57.8994 -71.7028C57.8551 -67.5476 58.57 -62.8827 57.8985 -58.8081ZM57.8987 -1.27828C39.9267 -5.54117 33.4423 -29.4362 41.005 -44.6736C44.5201 -51.7559 50.5224 -56.1578 57.8987 -58.5602C59.16 -53.4147 53.741 -52.582 50.4664 -49.7749C46.5205 -46.3924 43.7723 -41.8455 42.7034 -36.7385C41.0454 -28.8167 42.371 -19.8608 47.4944 -13.429C49.3083 -11.1519 51.4729 -9.32601 53.9348 -7.78237C55.0204 -7.10176 57.1558 -6.50053 57.8417 -5.3909C58.4246 -4.44798 58.1834 -2.28555 57.8987 -1.27828ZM58.1464 1.94535L44.7683 0.209563C45.3805 -2.36455 45.3805 -6.14337 44.7683 -8.71749L49.9709 -4.60792L58.1464 -0.534358V1.94535ZM45.016 78.5692L45.016 1.6974L54.4303 2.68927L57.8597 3.75635L57.9208 8.64064L57.8987 19.7994L57.8987 62.451V75.0976L57.8786 79.6506L54.678 79.632L45.016 78.5692ZM45.016 134.116L45.016 80.0573L54.678 80.9882L57.8409 81.6948L57.9021 84.5208L57.8984 91.7121V116.509L57.9196 122.709L57.8702 125.829L53.6867 128.226L45.016 134.116ZM57.8983 184.702C34.5145 178.314 31.8403 142.873 51.457 130.845C53.4358 129.632 55.6262 128.213 57.8983 127.668C57.9904 128.836 58.5304 130.499 57.8917 131.583C57.2599 132.655 55.4431 133.221 54.4301 133.887C52.2906 135.294 50.2441 136.924 48.5264 138.827C43.9222 143.929 41.8797 150.355 42.0466 157.177C42.2013 163.499 45.2704 169.219 49.7266 173.535C51.2705 175.03 53.0817 176.301 54.9256 177.399C55.8023 177.921 57.1036 178.295 57.7393 179.13C58.4153 180.017 58.2097 183.608 57.8983 184.702ZM45.0159 177.015L50.9617 181.866L58.1463 185.446C56.7138 193.169 57.8859 202.137 57.8985 209.996C57.9022 212.373 59.1107 217.125 57.749 219.16C56.0199 221.743 49.9328 221.509 47.7739 219.591C46.6277 218.573 46.1666 216.652 45.8706 215.203C44.7876 209.902 45.0159 204.462 45.0159 199.085V177.015ZM44.5204 0.209858L31.1423 1.57354L21.4803 4.42543C26.1684 -13.1278 25.1567 -31.4929 27.6416 -49.3849C28.3745 -54.6617 29.4288 -59.9066 30.964 -65.0072C31.5875 -67.079 32.0946 -69.689 33.372 -71.4545C34.0875 -69.0318 34.351 -65.0079 33.8675 -62.5274C37.1644 -62.3282 41.6929 -65.3011 44.7682 -66.4951L44.7682 -56.0802C44.7682 -54.5742 45.1158 -52.5561 44.6223 -51.1207C43.9652 -49.2095 42.065 -47.5065 41.1161 -45.6653C38.8393 -41.2478 37.6436 -36.2543 37.5846 -31.2828C37.5233 -26.1298 38.2534 -20.888 40.386 -16.1564C41.4266 -13.8477 43.5735 -11.8016 44.3746 -9.46111C45.2934 -6.77667 44.5204 -2.62716 44.5204 0.209858ZM44.5204 78.5695L-1.55975 81.7932C-1.55975 70.6256 -2.26232 58.449 0.673563 47.5728C1.54138 44.3579 3.34243 41.3664 4.81485 38.3978C7.22829 33.532 9.57621 28.6293 12.0049 23.7674C14.1609 19.4514 16.2206 15.0659 18.6118 10.8727C19.4098 9.47331 19.9643 7.21365 21.2978 6.24864C27.3089 1.89856 37.4442 1.6977 44.5204 1.6977L44.5204 78.5695ZM44.3709 80.4128C44.9739 81.6019 44.5204 83.9485 44.5204 85.2648V97.1675L44.5204 122.957C44.5204 126.526 45.4027 131.439 44.3933 134.86C43.836 136.748 41.9444 138.33 41.0006 140.067C39.3247 143.151 37.9949 148.437 34.6107 150.054C31.005 151.777 26.3866 148.015 23.71 145.986C18.2983 141.885 13.3883 137.175 8.59771 132.38C5.50141 129.28 1.88367 125.65 -0.142864 121.717C-1.36289 119.349 -0.861412 116.109 -1.10631 113.534C-1.77374 106.514 -1.80749 99.5139 -1.80749 92.456V85.7607C-1.80722 85.0484 -2.00883 83.8005 -1.37584 83.2879C-0.451119 82.539 2.46526 82.8288 3.64285 82.7753C7.91566 82.5811 12.2666 82.4047 16.5255 81.999C23.6059 81.3246 30.7049 80.0693 37.8314 80.0573C39.1488 80.0573 43.6507 78.9925 44.3709 80.4128ZM31.6378 210.739L32.6288 218.923C28.7659 218.922 27.3937 216.153 26.3329 212.723C24.5455 206.945 23.6735 201.025 22.4704 195.117C20.7209 186.527 16.3898 178.565 12.9145 170.568C6.38169 155.535 0.392362 140.582 -0.321033 123.949C2.81198 126.369 5.40171 130.591 8.12994 133.539C12.4581 138.216 17.4365 142.463 22.4103 146.432C25.4012 148.818 30.718 153.245 34.8584 151.283C36.5438 150.485 37.433 148.864 38.5746 147.506C38.7693 148.818 38.1927 150.145 38.1013 151.474C37.854 155.067 37.739 158.82 38.4037 162.385C39.0424 165.809 40.2476 168.981 41.8585 172.056C42.5891 173.45 43.9498 174.768 44.3933 176.271C44.8929 177.964 44.5204 180.217 44.5204 181.974V193.629V204.788C44.5204 205.811 44.9322 208.012 44.2658 208.854C43.7163 209.548 41.6324 209.427 40.8043 209.5C37.806 209.762 34.5615 210.035 31.6378 210.739ZM38.6912 179.247C38.0579 176.505 34.6804 174.992 32.3917 176.865C30.7212 178.232 30.3544 180.469 30.9091 182.47C31.6728 185.226 35.0794 186.436 37.29 184.564C38.775 183.306 39.1122 181.069 38.6912 179.247ZM36.4087 63.7179C36.0805 62.1869 33.3635 62.0955 32.7783 63.4762C32.0469 65.2014 32.0469 71.3558 32.7783 73.081C33.329 74.3802 35.8048 74.3935 36.3271 73.0587C36.6396 72.26 36.3554 71.2221 36.3458 70.3866C36.3222 68.3326 36.8343 65.7026 36.4087 63.7179ZM36.4447 132.413C36.0153 131.006 33.4389 130.892 32.8127 132.201C31.9424 134.02 32.6288 137.568 32.6288 139.571C32.6288 140.301 32.4625 141.302 32.7783 141.982C33.3678 143.251 35.8572 143.006 36.3332 141.776C36.6602 140.931 36.3696 139.949 36.3485 139.075C36.3007 137.088 37.0167 134.287 36.4447 132.413ZM36.0972 -17.148C35.2822 -17.2994 34.2057 -17.6062 33.4508 -17.1033C32.534 -16.4929 32.5257 -13.0866 33.2738 -12.3379C35.2432 -10.3666 36.0971 -13.2735 36.0972 -14.668V-17.148ZM1.66092 128.909C1.70507 134.247 3.37521 139.704 4.91025 144.779C7.81356 154.379 11.391 163.122 15.9662 172.056C18.262 176.539 20.234 182.327 23.4623 186.191C24.0755 182.622 23.71 178.658 23.71 175.032C23.71 170.277 24.0426 165.376 23.534 160.649C23.2603 158.106 24.0137 155.134 22.9456 152.714C22.0389 150.66 20.0104 148.922 18.5459 147.259C15.606 143.92 12.6628 140.564 9.59825 137.34C7.14805 134.762 4.74915 130.679 1.66092 128.909ZM23.2146 9.63347C21.7613 10.3704 20.8267 12.027 19.9308 13.3531C17.8842 16.3823 16.0619 19.5664 14.3159 22.776C9.55519 31.5274 3.95088 41.0629 1.53094 50.7971C0.544024 54.7669 0.449383 58.8937 0.152478 62.9477C-0.14737 67.0422 -0.321016 71.2405 -0.321016 75.3464C-0.321016 76.2809 -0.74664 78.6609 0.076211 79.3069C1.13348 80.137 5.06432 79.2444 6.36804 79.0661C11.9479 78.3012 17.6248 78.2853 23.2146 77.5782L23.2146 9.63347ZM22.9668 83.7775C17.7478 85.0212 11.4861 84.5437 6.12029 84.7792C4.97102 84.8298 0.887799 84.5222 0.181346 85.415C-0.569167 86.3635 0.117279 88.3958 0.164697 89.4809C0.317334 92.9699 -0.0732887 96.4193 -0.0732887 99.8958C-0.0732887 106.05 -1.06012 113.848 1.01363 119.734C3.25042 126.082 9.78967 131.5 15.039 135.359C17.4771 137.152 20.2354 140.038 23.2145 140.811L23.2145 101.88V89.9769L22.9668 83.7775ZM-38.9689 275.461C-35.4333 274.618 -31.2011 275.213 -27.5727 275.213H-5.27589C-2.31279 275.213 1.24748 275.751 4.13834 275.082C8.76355 274.012 7.39246 269.206 8.7472 266.075C9.26497 264.878 10.8438 264.789 11.3246 263.31C11.8204 261.786 11.7514 259.555 11.0627 258.103C10.6481 257.229 9.53857 256.398 9.5774 255.375C9.65589 253.308 11.8567 251.519 12.0743 249.424C12.3412 246.855 9.03846 242.53 7.91489 240.249C7.50171 239.41 7.09343 238.053 6.27129 237.528C5.01027 236.723 2.13057 237.273 0.66994 237.273H-13.4514H-66.9639H-82.5717C-84.0265 237.273 -87.1488 236.682 -88.3766 237.528C-89.2111 238.103 -89.3921 239.609 -89.7342 240.497C-90.6316 242.825 -93.3549 247.451 -92.8434 249.92C-92.4725 251.71 -90.3887 253.486 -90.3926 255.304C-90.3941 256.12 -91.3902 256.914 -91.7582 257.607C-92.5021 259.008 -92.7169 261.023 -92.3495 262.566C-91.9646 264.183 -90.5176 264.678 -89.8835 266.049C-88.5075 269.024 -88.9455 272.839 -85.5446 274.648C-82.8289 276.092 -78.1435 275.213 -75.1394 275.213H-51.1083C-48.2958 275.213 -43.3133 274.238 -40.7398 275.363C-39.6565 275.836 -39.9599 277.485 -39.9599 278.437C-39.9599 280.129 -39.6217 282.243 -40.0664 283.882C-40.3938 285.09 -41.6772 285.939 -40.8719 287.307C-40.1205 288.584 -38.3738 287.944 -38.1664 286.619C-38.0106 285.623 -38.7723 284.647 -38.8416 283.644C-39.0228 281.021 -38.4206 277.985 -38.9689 275.461ZM-19.3972 -110.634C-13.483 -110.634 -7.487 -110.527 -1.55975 -110.382C0.890931 -110.322 3.88653 -109.455 6.11646 -110.88C10.0107 -113.369 8.65259 -119.453 8.86877 -123.277C8.97712 -125.193 11.428 -126.541 11.744 -128.736C11.9453 -130.134 11.8104 -132.012 10.876 -133.144C10.3481 -133.783 9.34254 -133.967 8.99476 -134.743C7.6419 -137.761 8.81887 -141.652 5.12931 -143.501C3.44377 -144.346 0.777689 -143.862 -1.06426 -143.862H-14.6901L-63.7432 -143.862H-78.6078C-80.6415 -143.862 -83.4503 -144.364 -85.2967 -143.386C-88.9346 -141.459 -88.1634 -137.731 -89.7629 -134.697C-90.8486 -132.637 -92.6742 -131.954 -92.4068 -129.232C-92.1659 -126.779 -89.9626 -125.241 -89.7707 -123.032C-89.4725 -119.602 -90.6444 -115.215 -88.6465 -112.144C-86.3031 -108.542 -78.1568 -110.138 -74.3961 -110.138C-70.6628 -110.138 -65.3679 -109.158 -61.798 -110.217C-60.4472 -110.617 -61.0214 -112.73 -59.28 -113.057C-56.8763 -113.509 -54.0491 -113.113 -51.6038 -113.113H-36.2437H-23.6089C-21.7074 -113.113 -19.7407 -112.855 -19.3972 -110.634ZM-2.05524 247.192L5.37705 238.761H5.87254C7.76287 242.754 11.8893 247.609 9.77602 251.904C8.99345 253.494 8.42697 255.908 6.14245 255.296C5.06359 255.008 4.16455 253.694 3.44081 252.905C1.66601 250.972 -0.0705846 248.911 -2.05524 247.192ZM10.4944 -130.967C10.8754 -129.119 10.324 -126.4 8.34901 -125.662C7.01525 -125.163 5.05244 -125.512 3.64285 -125.512C-0.0855966 -125.512 -4.05524 -125.878 -7.75332 -125.441C-14.6201 -124.63 -21.8944 -125.264 -28.8115 -125.264H-68.9458C-72.555 -125.264 -76.246 -125.489 -79.8465 -125.242C-82.5104 -125.059 -86.1129 -124.37 -88.7232 -125.095C-90.1675 -125.496 -90.9701 -127.391 -91.1681 -128.736C-91.3564 -130.015 -91.2535 -131.739 -89.9779 -132.449C-88.736 -133.139 -86.435 -132.703 -85.0491 -132.703H-73.1574L-11.9649 -132.703H5.12931C6.96666 -132.703 9.99951 -133.367 10.4944 -130.967ZM10.4858 260.831C10.5487 261.856 10.3533 263.4 9.29409 263.87C7.91504 264.482 5.62611 264.054 4.13833 264.054H-8.00108H-69.1936H-86.0401C-88.0304 264.054 -91.0033 264.558 -91.2283 261.823C-91.3669 260.138 -91.1594 257.82 -89.4853 256.907C-88.1962 256.204 -85.9816 256.615 -84.5536 256.615H-72.9097H-11.4695H1.41317C3.35234 256.615 5.72015 256.248 7.60674 256.719C9.46627 257.183 10.3764 259.048 10.4858 260.831ZM7.85449 -134.191L-57.3019 -134.191H-77.8645L-88.2697 -133.943C-88.9468 -136.627 -87.0182 -141.396 -84.3049 -142.347C-82.6516 -142.927 -80.5838 -142.622 -78.8555 -142.622H-68.2024H-12.9558H0.174598C1.9633 -142.622 4.16408 -142.917 5.57829 -141.574C7.63345 -139.622 7.26016 -136.69 7.85449 -134.191ZM3.643 -111.378L3.39526 -124.024H7.60688C7.93634 -119.846 8.98364 -112.621 3.643 -111.378ZM-88.7651 265.542L-88.5173 265.294L-74.6437 265.542H-48.383H-12.4603L7.35915 265.294C8.00908 267.66 7.11202 272.385 4.6118 273.475C3.15708 274.109 0.989749 273.723 -0.568631 273.725H-11.7171H-68.9456C-72.652 273.725 -76.3914 273.581 -80.0941 273.744C-81.999 273.828 -84.1955 274.183 -85.7815 272.884C-87.8148 271.217 -88.2926 267.979 -88.7651 265.542ZM4.88172 238.761L-2.30283 246.448H-2.79832L-9.73511 238.761L0.174598 238.513L4.88172 238.761ZM4.88172 255.375H-10.2306C-8.69504 252.492 -4.95974 249.065 -2.30283 247.192L4.88172 255.375ZM-84.8012 -99.7229V-91.0439H-61.7611L-14.69 -91.0439L-1.5596 -91.0439L3.24577 -91.1303L3.643 -93.0276L3.49351 -99.3576L-1.5596 -99.7229L-17.6629 -99.7229L-84.8012 -99.7229ZM3.39526 -73.1898C-4.16267 -74.6151 -11.8369 -75.4032 -19.3971 -76.8139C-21.1588 -77.1426 -22.4335 -78.7242 -24.1042 -78.9637C-28.3202 -79.5683 -33.2017 -78.8931 -37.4823 -78.8931C-43.8254 -78.8931 -50.4927 -79.4957 -56.8063 -78.867C-58.6041 -78.688 -59.9802 -77.2164 -61.7611 -76.827C-68.9723 -75.2499 -77.1912 -73.263 -84.5534 -72.9416L-84.5534 -21.6111C-84.5534 -13.214 -85.3045 -4.42711 -84.5277 3.93016C-84.261 6.7985 -83.1259 9.72754 -82.5761 12.5672C-80.6266 22.6364 -77.9442 32.6364 -76.3082 42.7568C-75.3503 48.6825 -75.6393 54.9746 -75.3772 60.9641C-74.9289 71.2106 -74.5944 81.4373 -74.6439 91.7128C-74.7131 106.055 -74.5617 120.832 -75.9245 135.108C-77.6804 153.502 -82.9228 171.53 -84.759 189.91C-85.7534 199.865 -84.8012 210.402 -84.8012 220.411C-77.0131 221.418 -69.3476 223.33 -61.5133 224.089C-54.7076 224.748 -47.5428 224.131 -40.703 224.131C-33.2685 224.131 -25.547 224.716 -18.1584 223.924C-12.9134 223.362 -7.72559 222.586 -2.55055 221.552C-1.10618 221.263 1.90764 221.265 2.99193 220.199C3.86029 219.345 3.39527 216.357 3.39527 215.204V200.821C3.39527 179.927 -2.11881 158.972 -5.17137 138.332C-5.928 133.216 -5.80346 128.107 -6.02871 122.958C-6.54202 111.224 -6.74329 99.5131 -6.76219 87.7456C-6.77995 76.6925 -6.79719 65.5674 -6.04112 54.5171C-5.76039 50.4139 -6.0788 46.1946 -5.45006 42.1184C-3.92622 32.2391 -0.818697 22.3443 1.47144 12.6096C2.06308 10.0947 3.04247 7.48299 3.34958 4.92234C4.18687 -2.05891 3.39529 -9.61588 3.39529 -16.6514C3.39529 -35.4246 2.50618 -54.4428 3.39526 -73.1898ZM2.8998 -111.377L0.174626 -111.625V-111.873H2.65206V-123.776H-8.24863L0.174626 -124.272L2.82219 -123.697L2.8998 -120.056V-111.377ZM-84.3057 -91.5393V-99.2266L3.14751 -99.2266C3.14751 -97.581 3.92511 -93.2414 2.89289 -91.937C2.1361 -90.9805 -1.18156 -91.5393 -2.30283 -91.5393L-18.1584 -91.5393L-84.3057 -91.5393ZM2.73805 -139.394C1.81304 -142.255 -6.89469 -141.845 -5.62919 -137.415C-4.7301 -134.268 4.28678 -134.604 2.73805 -139.394ZM2.42129 -129.714C2.00083 -131.266 -0.224733 -130.532 0.328861 -128.998C0.847998 -127.559 2.79994 -128.316 2.42129 -129.714ZM2.46812 268.777C1.91045 267.407 0.412911 267.527 -0.816381 267.526C-3.30099 267.526 -7.08686 267.8 -5.58733 271.483C-4.99792 272.931 -3.33687 272.734 -2.05509 272.734C0.453273 272.734 3.93724 272.385 2.46812 268.777ZM2.29665 -138.899C3.25876 -135.443 -4.56207 -135.432 -5.16736 -137.668C-6.12282 -141.199 1.6642 -141.171 2.29665 -138.899ZM2.21924 260.143C1.56647 258.683 -0.192991 259.995 0.327908 261.289C0.931372 262.789 2.83112 261.511 2.21924 260.143ZM2.27735 269.758C2.85791 273.179 -4.76428 273.259 -5.21897 270.745C-5.86087 267.196 1.85487 267.268 2.27735 269.758ZM2.15653 3.68137H1.90879L-13.7472 -47.1533L-19.6104 -66.2472L-22.6177 -76.4141C-17.2022 -74.2943 -10.5419 -73.9709 -4.78026 -73.1581C-3.35609 -72.9572 0.993789 -72.9576 1.90191 -71.8011C2.70981 -70.7724 2.15653 -67.7618 2.15653 -66.4952V-52.1127V3.68137ZM2.0491 190.38C1.9967 191.7 -0.307027 192.671 -1.31186 193.225C-5.08307 195.305 -9.00349 196.78 -13.2035 197.702C-22.4886 199.74 -32.4828 198.837 -41.9417 198.837C-49.7878 198.837 -58.2625 199.679 -65.9727 197.987C-70.6554 196.96 -75.3181 195.554 -79.5986 193.354C-80.9421 192.664 -83.492 191.956 -83.5258 190.156C-83.597 186.355 -82.2898 182.246 -81.6891 178.503C-80.1908 169.165 -78.5655 159.838 -77.1885 150.482C-76.7009 147.169 -76.0942 143.88 -75.6347 140.563C-75.4945 139.551 -75.4859 137.3 -74.7076 136.58C-73.8973 135.829 -71.9774 135.694 -70.9276 135.461C-67.7412 134.752 -64.5062 133.969 -61.2656 133.581C-55.0379 132.835 -48.7062 133.124 -42.4372 133.124C-35.6774 133.124 -28.8581 132.877 -22.1223 133.349C-18.2181 133.623 -14.5228 134.543 -10.7261 135.441C-9.60229 135.707 -7.54889 135.709 -6.80293 136.722C-6.07795 137.706 -6.14269 139.633 -5.92262 140.811C-5.26345 144.339 -4.76406 147.927 -4.21673 151.474C-2.85135 160.322 -1.44466 169.177 0.0346641 178.007C0.682915 181.876 2.20442 186.465 2.0491 190.38ZM-83.5625 219.418C-84.7969 212.763 -83.8102 205.11 -83.8102 198.341C-83.8102 196.357 -83.4341 194.07 -83.8102 192.141C-81.4524 191.984 -78.1277 194.622 -75.8825 195.514C-70.7455 197.554 -65.5145 198.768 -60.0269 199.29C-52.0841 200.047 -43.7299 199.333 -35.7481 199.333C-28.9454 199.333 -21.6345 200.054 -14.9377 198.672C-11.1993 197.9 -7.48593 196.825 -4.03703 195.171C-2.01548 194.201 0.0146598 192.45 2.15653 191.894V211.731C2.15653 213.379 2.92683 217.672 1.90191 218.99C1.03496 220.105 -2.22691 220.098 -3.54155 220.361C-8.98876 221.451 -14.5821 222.509 -20.1403 222.646C-32.7933 222.957 -45.8904 223.735 -58.5405 222.868C-66.9162 222.294 -75.2219 219.777 -83.5625 219.418ZM1.16557 3.43364C-5.99558 0.80938 -12.059 -4.40036 -19.6448 -6.22736C-25.1748 -7.5592 -31.5734 -6.73323 -37.2346 -6.73323C-45.7366 -6.73323 -55.5343 -8.09148 -63.7431 -5.63267C-70.6718 -3.55728 -76.2882 0.932577 -82.8193 3.68166C-81.9472 -2.76895 -78.7171 -9.72372 -76.6444 -15.9083C-72.3998 -28.5733 -68.6687 -41.4121 -64.4861 -54.0962C-62.6654 -59.6176 -60.8726 -65.1501 -59.1759 -70.7104C-58.479 -72.9942 -57.4033 -75.2867 -57.054 -77.6537H-42.4372C-42.4994 -76.2249 -43.8768 -73.7232 -43.2268 -72.456C-41.5014 -69.0922 -36.4082 -68.6193 -35.1775 -72.704C-34.7947 -73.9744 -35.8519 -76.1796 -36.2436 -77.4057L-26.8294 -77.6537L-23.5726 -77.0789L-21.254 -69.9665L-16.0713 -53.1043L-3.85848 -13.4285L1.16557 3.43364ZM-1.06411 2.93774C-5.46242 2.49942 -9.73887 0.685155 -14.1945 0.252119C-20.7685 -0.386835 -27.418 0.120143 -34.0139 -0.0415855C-44.3697 -0.295486 -55.1566 -1.26005 -65.4773 -0.243855C-70.6488 0.265359 -75.5581 2.03112 -80.5896 3.18569V2.93774C-74.1359 -1.01575 -66.8334 -4.93376 -59.2837 -6.15676C-51.9935 -7.33774 -43.6358 -6.23733 -36.2436 -6.23733C-31.5827 -6.23733 -26.4875 -6.82108 -21.8745 -6.16286C-17.3264 -5.51386 -13.1049 -3.25905 -8.99188 -1.35416C-6.39718 -0.152507 -3.27032 1.10799 -1.06411 2.93774ZM-10.4783 254.383L-10.4783 239.256L-4.78025 244.712L-3.27431 246.944L-5.028 249.175L-10.4783 254.383ZM-3.64667 169.328C-4.6663 161.555 -6.1318 153.887 -8.03226 146.266C-8.5047 144.372 -8.69122 139.888 -10.1314 138.544C-10.949 137.78 -12.8841 137.704 -13.9467 137.488C-17.1343 136.841 -20.3368 136.101 -23.6087 136.1H-57.3017C-60.715 136.1 -64.1037 136.628 -67.4592 137.234C-68.487 137.42 -70.4555 137.397 -71.1916 138.229C-71.8909 139.02 -71.9615 140.562 -72.1671 141.555C-72.6818 144.042 -73.3023 146.518 -73.8711 148.994C-75.8853 157.762 -77.6167 166.515 -77.6167 175.527C-77.6167 177.826 -77.9651 180.438 -77.5799 182.704C-77.2931 184.391 -73.4287 183.462 -72.1663 183.462H-54.8243H-16.4242C-13.2887 183.462 -10.1445 183.393 -7.00994 183.462C-6.16575 183.482 -4.43312 184.03 -3.79617 183.269C-3.15527 182.503 -3.54154 180.435 -3.54154 179.491C-3.54154 176.159 -3.21316 172.629 -3.64667 169.324M-6.7622 134.856L-22.1222 131.89L-43.6759 131.88L-59.0359 131.923L-74.8915 134.856L-74.3862 125.433L-73.8996 107.331L-73.6625 70.6312L-75.1392 42.8582L-61.2656 40.8966L-43.1804 40.8743L-20.6358 40.884L-6.7622 42.8579L-7.99728 74.8465L-7.50906 111.299L-6.7622 134.856ZM-8.99188 -123.78H-10.2306V-124.028L-8.99188 -123.78ZM-10.7261 -122.292H-70.9276V-123.78L-10.7261 -124.028V-122.292ZM-10.8767 -121.222C-10.0953 -119.562 -12.2208 -119.565 -13.2035 -119.565H-22.8655H-59.2837H-67.9547C-68.7397 -119.565 -70.3156 -119.266 -70.7425 -120.139C-71.4938 -121.676 -69.6881 -121.794 -68.6979 -121.796H-60.0269H-23.8565H-14.1945C-13.3487 -121.796 -11.3238 -122.171 -10.8767 -121.222ZM-70.9276 -119.069H-10.7261L-11.1233 -117.092L-14.1945 -116.837H-21.8745H-58.2927H-67.2115L-70.5304 -117.092L-70.9276 -119.069ZM-10.7261 -111.878H-18.4061C-19.7501 -115.276 -24.1271 -114.605 -27.0771 -114.605H-52.8424C-55.9486 -114.605 -61.2633 -115.749 -62.0089 -111.63L-70.6799 -111.382C-70.9554 -112.315 -71.4363 -115.391 -70.5277 -116.09C-69.7866 -116.66 -68.0941 -116.341 -67.2115 -116.341H-58.7882H-22.37H-13.9467C-13.1661 -116.341 -11.534 -116.643 -10.9807 -115.943C-10.3118 -115.098 -10.7261 -112.911 -10.7261 -111.878ZM-11.4693 243.716C-14.837 244.713 -19.3527 243.965 -22.8655 243.965C-22.9018 240.896 -27.0142 241.981 -29.3068 241.981H-50.6127C-52.9975 241.981 -58.0073 240.781 -58.045 243.965H-70.1844L-69.9297 238.907L-66.2205 238.509H-55.8153H-11.7171L-11.4693 243.716ZM-11.4693 251.9H-25.5907H-54.0811L-69.9366 252.148L-70.1844 244.46H-58.045C-57.8402 247.147 -53.5876 246.196 -51.6037 246.196H-30.2978C-28.2192 246.196 -23.0784 247.254 -22.8655 244.46H-14.69L-11.7239 244.858L-11.4693 251.9ZM-11.4693 255.123L-17.9106 255.371H-30.05H-70.1844V252.644H-25.3429H-15.4332L-11.8667 252.898L-11.4693 255.123ZM-19.5022 63.1918C-19.9198 60.047 -20.8907 57.1486 -23.8565 55.5134C-26.3052 54.1633 -29.0903 54.5127 -31.7842 54.5127L-46.6488 54.5127C-50.4303 54.5127 -55.5291 53.5825 -58.7882 55.9108C-63.1574 59.0321 -62.5043 64.6858 -62.5043 69.3911C-62.5043 71.3381 -62.7055 73.4128 -62.43 75.3425C-60.892 86.1171 -48.6844 83.5256 -40.703 83.5256C-35.9773 83.5256 -28.6836 84.8933 -24.3519 82.841C-17.9458 79.806 -18.7173 69.1026 -19.5022 63.1918ZM-19.9633 63.1918C-19.2896 68.8296 -18.404 79.1498 -24.3519 82.1572C-28.773 84.3926 -36.0952 83.0297 -40.9507 83.0297C-47.4356 83.0297 -60.489 85.5551 -61.7164 76.3344C-62.4655 70.7063 -63.7777 59.8386 -58.2506 56.3063C-55.045 54.2576 -50.5173 55.0087 -46.8965 55.0087H-33.5184C-26.9493 55.0087 -20.9137 55.2383 -19.9633 63.1918ZM-23.6087 245.7H-57.3017L-57.5495 242.725L-46.6488 242.477H-23.6087V245.7ZM-25.8455 -130.291C-26.7711 -131.426 -28.4209 -129.698 -27.4229 -128.604C-26.4016 -127.485 -25.0583 -129.325 -25.8455 -130.291ZM-25.7784 260.14C-26.3997 258.702 -28.3978 259.975 -27.7527 261.286C-27.0273 262.76 -25.1876 261.507 -25.7784 260.14ZM-34.2617 114.77C-36.862 116.038 -39.122 119.801 -41.0214 121.962C-41.9292 122.994 -42.9003 123.796 -43.1804 125.185L-37.4814 118.843L-34.2617 114.77ZM-41.1985 -77.1612H-37.2346C-36.944 -75.8926 -35.9151 -73.9265 -36.6506 -72.7014C-37.9677 -70.5075 -41.2468 -70.3974 -41.9969 -73.1973C-42.3098 -74.3652 -41.46 -76.0191 -41.1985 -77.1612ZM-53.5774 -129.483C-53.6652 -130.907 -55.7419 -130.964 -55.7419 -129.483C-55.7419 -127.9 -53.4765 -127.847 -53.5774 -129.483ZM-53.7733 260.139C-54.4052 258.671 -56.4114 259.925 -55.7256 261.286C-54.9863 262.754 -53.1894 261.496 -53.7733 260.139ZM-57.5495 -76.6653L-60.7772 -66.9943L-66.6527 -48.6443L-83.067 2.68622H-83.3147L-83.3147 -50.628V-65.2585C-83.3147 -66.8759 -83.9014 -69.8978 -83.1652 -71.3503C-82.5792 -72.5068 -78.5699 -72.5509 -77.3689 -72.7597C-72.2526 -73.6495 -67.1488 -74.714 -62.0089 -75.458C-60.6144 -75.6598 -58.8473 -77.0205 -57.5495 -76.6653ZM-71.1753 254.875C-73.5809 253.752 -75.2765 251.025 -77.1212 249.172C-77.6816 248.609 -78.7857 247.819 -78.8078 246.941C-78.8307 246.031 -77.6419 245.18 -77.069 244.597C-75.3995 242.898 -73.4697 239.743 -71.1753 239.005V254.875ZM-71.4231 -111.63L-83.5625 -111.382C-84.5579 -114.752 -83.8102 -119.272 -83.8102 -122.788H-83.5625V-111.878C-80.1466 -111.878 -74.5575 -112.946 -71.4231 -111.63ZM-72.1663 239.005C-74.4521 241.293 -76.9003 245.069 -79.8463 246.444L-86.7831 238.757L-76.1302 238.509L-72.1663 239.005ZM-72.1663 255.371H-87.0309C-85.9668 253.087 -81.561 248.127 -79.1031 247.436L-72.1663 255.371ZM-75.7974 -139.154C-76.7372 -142.234 -85.6253 -141.959 -84.2465 -137.42C-83.3011 -134.308 -74.4487 -134.734 -75.7974 -139.154ZM-76.0664 269.011C-77.205 266.071 -85.9457 266.667 -84.3418 271.237C-83.3231 274.14 -74.2679 273.654 -76.0664 269.011ZM-76.3628 -137.672C-76.7886 -135.529 -84.4319 -135.3 -83.7535 -138.896C-83.321 -141.188 -75.6582 -141.218 -76.3628 -137.672ZM-76.5054 269.272C-75.2452 273.176 -83.1299 273.288 -83.8551 270.979C-85.0307 267.237 -77.1384 267.312 -76.5054 269.272ZM-115.274 -75.9213H-115.521L-116.512 -64.0186C-118.638 -65.2298 -123.884 -65.9713 -125.176 -68.0543C-125.84 -69.1235 -125.244 -70.7951 -125.193 -71.9538C-125.065 -74.8822 -124.301 -79.9896 -125.779 -82.5934C-127.32 -85.3096 -131.751 -84.5522 -134.35 -84.9229C-135.649 -85.1081 -136.826 -85.5177 -137.991 -84.6305C-139.56 -83.4351 -139.902 -80.7324 -140.048 -78.897L-146.737 -75.5112L-148.817 -73.8568L-148.967 -68.4821V-55.5875C-133.786 -53.6571 -122.063 -42.0454 -124.549 -26.0787C-125.775 -18.2029 -130.189 -11.6947 -137.323 -8.00362C-140.117 -6.55774 -142.942 -5.71815 -145.994 -5.03062C-146.851 -4.83735 -148.575 -4.97408 -148.888 -3.95238C-149.969 -0.423517 -148.967 4.93561 -148.967 8.63758V36.9066V130.145C-141.852 131.614 -135.121 134.569 -130.18 140.064C-122.824 148.246 -122.03 161.995 -129.523 170.387C-133.047 174.334 -137.389 177.022 -142.278 178.945C-143.618 179.472 -148.203 180.035 -148.817 181.305C-149.83 183.398 -148.827 187.407 -148.729 189.658C-148.441 196.228 -149.555 202.98 -148.925 209.496C-148.692 211.898 -147.83 213.724 -145.498 214.699C-144.197 215.243 -142.433 215.356 -141.365 216.352C-139.752 217.857 -140.488 220.18 -138.066 221.509C-135.365 222.99 -129.572 222.759 -127.571 220.146C-125.701 217.703 -125.245 213.471 -125.183 210.488L-114.035 211.976L-115.026 219.663C-107.809 223.709 -105.482 210.546 -104.459 206.025C-103.319 200.979 -103.014 195.541 -101.291 190.65C-95.6728 174.702 -86.0194 159.959 -82.5708 143.287C-78.3465 122.866 -78.328 102.501 -78.3599 81.7898C-78.3777 70.2118 -77.4793 57.2776 -80.9453 46.0816C-81.9296 42.9022 -83.8553 39.9026 -85.2906 36.9066C-88.31 30.6036 -91.2781 24.2433 -94.537 18.0606C-97.8318 11.8097 -101.237 5.92592 -102.781 -1.03339C-108.22 -25.5448 -102.793 -53.1128 -115.274 -75.9213ZM-125.679 78.3182L-125.431 69.6391V53.5209V1.69435C-119.722 1.69435 -114.086 2.21041 -108.585 3.82085C-106.504 4.42997 -103.933 5.00309 -102.211 6.39742C-101.064 7.32665 -100.515 9.33137 -99.8495 10.6214C-98.268 13.6882 -96.5986 16.709 -95.0573 19.7964C-92.4203 25.0786 -89.8493 30.3875 -87.2121 35.6668C-85.4567 39.1809 -83.2283 42.8244 -82.0483 46.5775C-80.9096 50.1996 -80.6555 53.9944 -80.2998 57.7364C-79.7488 63.5316 -79.7371 69.2757 -79.595 75.0946C-79.5591 76.564 -78.6042 80.1562 -79.6063 81.3922C-80.1452 82.0571 -81.5958 81.5711 -82.3238 81.5445C-84.966 81.4483 -87.6111 81.1716 -90.2516 81.0557C-98.3135 80.7018 -106.256 79.6213 -114.283 78.8562C-117.891 78.5123 -122.215 79.3431 -125.679 78.3182ZM-125.679 80.054C-122.719 79.3488 -119.268 80.0741 -116.265 80.2798C-108.285 80.8268 -100.236 82.2345 -92.2335 82.2859C-89.1525 82.306 -85.881 82.4909 -82.8193 82.8525C-82.0252 82.9463 -80.4162 82.7714 -79.7825 83.2845C-79.0687 83.8626 -79.3509 85.4491 -79.3509 86.2534V94.1885C-79.3509 99.9228 -79.5867 105.587 -79.8366 111.299C-79.9648 114.229 -79.5585 118.199 -80.5445 120.97C-81.3929 123.354 -83.5443 125.525 -85.1549 127.417C-91.289 134.624 -98.4485 141.404 -106.107 146.969C-108.754 148.893 -113.271 151.976 -116.509 149.608C-119.4 147.494 -120.723 142.629 -122.401 139.568C-123.249 138.021 -125.02 136.528 -125.51 134.853C-125.874 133.605 -125.431 131.941 -125.431 130.641V120.474V93.4446C-125.431 89.2073 -124.697 84.1798 -125.679 80.054ZM-89.0129 255.371L-91.5895 249.668L-90.5783 246.196L-87.7741 238.757C-85.6799 240.234 -84.1262 242.407 -82.3238 244.212C-81.6909 244.846 -80.4354 245.733 -80.3223 246.692C-80.2109 247.637 -81.4347 248.538 -82.0017 249.149C-83.8055 251.093 -86.2996 254.952 -89.0129 255.371ZM-104.373 9.62953V77.5743L-80.8373 79.5581C-80.8373 69.8894 -80.4236 59.4932 -82.7933 50.0492C-84.939 41.4978 -89.9747 32.9588 -94.139 25.2519C-96.1769 21.4802 -98.1831 17.6857 -100.532 14.0931C-101.573 12.5009 -102.665 10.5623 -104.373 9.62953ZM-113.787 218.919C-113.567 217.18 -112.109 212.554 -113.054 211.063C-113.612 210.183 -115.593 210.312 -116.512 210.202C-119.571 209.834 -122.623 209.387 -125.679 209L-125.679 187.179C-125.679 183.821 -126.307 179.756 -125.584 176.474C-125.025 173.934 -122.351 171.348 -121.332 168.829C-118.671 162.254 -118.21 154.351 -119.981 147.503C-117.965 148.647 -117.434 151.171 -114.778 151.637C-110.6 152.37 -106.39 148.653 -103.382 146.264C-98.3765 142.287 -93.3877 138.072 -89.0513 133.359C-86.6085 130.704 -83.8974 125.993 -80.8373 124.193C-81.1853 141.063 -87.9164 156.363 -94.4313 171.556C-97.8822 179.604 -102.106 187.438 -103.726 196.106C-104.843 202.082 -105.736 208.232 -107.855 213.96C-108.912 216.818 -110.473 219.311 -113.787 218.919ZM-104.373 84.0216V140.808C-101.122 140.16 -97.7355 136.637 -95.2064 134.608C-90.412 130.763 -84.5954 126.117 -82.2645 120.226C-79.9097 114.274 -81.0851 106.176 -81.0851 99.8919C-81.0851 96.4999 -81.3264 93.1084 -81.2055 89.7286C-81.166 88.6236 -80.6101 86.3331 -81.3397 85.4111C-82.0371 84.5296 -86.1439 84.7974 -87.2787 84.7691C-92.9823 84.6271 -98.6586 84.0216 -104.373 84.0216ZM-81.8354 -130.149C-82.6737 -131.405 -84.2435 -129.961 -83.5545 -128.778C-82.7201 -127.344 -81.0152 -128.92 -81.8354 -130.149ZM-81.8398 260.12C-82.6642 258.625 -84.5112 260.183 -83.6933 261.492C-82.8792 262.795 -81.1707 261.333 -81.8398 260.12ZM-82.8194 128.905C-84.7486 130.034 -86.2594 132.478 -87.7803 134.112C-91.5755 138.189 -95.3214 142.321 -98.9932 146.511C-100.647 148.398 -103.496 150.76 -104.247 153.206C-105.26 156.505 -104.621 160.702 -104.621 164.117V185.939C-103.277 184.783 -102.617 182.794 -101.829 181.227C-100.49 178.566 -99.0806 175.913 -97.664 173.292C-92.5888 163.9 -88.664 154.295 -85.7575 144.031C-84.3709 139.135 -82.8194 134.017 -82.8194 128.905ZM-88.5174 -123.78C-87.5684 -123.78 -85.2136 -124.208 -84.5604 -123.383C-84.0799 -122.775 -84.3058 -121.526 -84.3058 -120.805V-114.357C-84.3058 -113.649 -84.0745 -112.372 -84.5604 -111.783C-85.2228 -110.98 -86.6963 -111.907 -87.2258 -112.429C-88.7979 -113.979 -88.5174 -116.56 -88.5174 -118.573V-123.78ZM-102.639 4.67003C-108.059 2.44407 -113.428 1.21593 -119.238 0.525277C-121.347 0.274427 -123.636 0.605474 -125.679 0.206509C-124.949 -2.86261 -126.369 -6.54941 -125.466 -9.46446C-124.794 -11.6369 -122.693 -13.5504 -121.722 -15.6638C-119.224 -21.1037 -118.357 -27.0636 -118.764 -33.022C-119.052 -37.2274 -120.008 -41.6922 -122.04 -45.4206C-123.08 -47.3282 -125.027 -49.1085 -125.746 -51.124C-126.262 -52.5691 -125.927 -54.5653 -125.927 -56.0835V-66.2504L-115.026 -62.5308L-114.778 -71.4578L-112.584 -66.7464L-109.266 -52.6119L-106.065 -17.1516L-104.469 -3.51309L-102.639 4.67003ZM-114.042 63.1181C-114.785 62.1343 -116.874 62.3411 -117.354 63.4729C-118.164 65.3837 -117.503 68.8105 -117.503 70.879C-117.503 71.6115 -117.72 72.808 -117.249 73.4323C-116.506 74.4162 -114.416 74.2094 -113.937 73.0776C-113.127 71.1668 -113.787 67.74 -113.787 65.6715C-113.787 64.939 -113.571 63.7425 -114.042 63.1181ZM-114.042 131.987C-114.706 131.007 -116.855 131.072 -117.354 132.185C-118.209 134.094 -117.503 137.729 -117.503 139.816C-117.503 140.527 -117.676 141.567 -117.249 142.188C-116.618 143.106 -114.408 143.037 -113.937 141.991C-113.079 140.087 -113.787 136.443 -113.787 134.36C-113.787 133.645 -113.617 132.613 -114.042 131.987ZM-114.035 -17.1516C-114.85 -17.303 -115.927 -17.6099 -116.682 -17.107C-117.577 -16.5108 -117.599 -13.1446 -116.964 -12.3415C-115.204 -10.117 -114.035 -13.3901 -114.035 -14.6716V-17.1516ZM-139.057 -1.28104C-139.057 -2.42548 -139.48 -4.61588 -138.803 -5.58655C-137.956 -6.79914 -135.359 -7.57348 -134.102 -8.39686C-131.546 -10.0725 -129.146 -12.3485 -127.473 -14.9196C-121.548 -24.027 -121.394 -37.7378 -128.284 -46.4122C-131.256 -50.1536 -135.138 -52.4525 -139.305 -54.5954L-139.057 -58.5629C-131.404 -56.389 -125.091 -51.25 -121.792 -43.9325C-114.916 -28.6752 -121.151 -5.42944 -139.057 -1.28104ZM-139.057 184.699C-139.057 183.21 -139.545 180.698 -138.908 179.341C-138.455 178.376 -136.711 177.809 -135.836 177.294C-133.959 176.189 -132.192 174.81 -130.634 173.289C-126.346 169.102 -123.231 163.566 -123.202 157.422C-123.168 150.353 -124.834 144.257 -129.578 138.846C-131.23 136.962 -133.225 135.344 -135.341 134.011C-136.343 133.379 -138.154 132.805 -138.803 131.784C-139.436 130.786 -139.057 128.81 -139.057 127.665C-136.502 128.273 -134.041 129.862 -131.873 131.302C-113.064 143.799 -115.836 178.471 -139.057 184.699ZM-126.074 -30.2939C-126.272 -35.7833 -128.207 -41.4333 -132.162 -45.378C-139.655 -52.8512 -151.92 -51.552 -157.942 -42.9406C-161.176 -38.3175 -162.082 -33.0967 -161.84 -27.5662C-161.724 -24.9272 -160.89 -22.2627 -159.791 -19.8791C-158.784 -17.6958 -157.326 -15.61 -155.547 -13.991C-153.905 -12.4963 -152.025 -11.2464 -149.958 -10.4121C-137.132 -5.23557 -125.627 -17.9101 -126.074 -30.2939ZM-139.057 1.9426V-0.785064C-133.742 -2.0164 -130.424 -5.72395 -126.175 -8.72024L-126.171 -2.2729L-126.191 0.0572051L-129.395 0.597744L-139.057 1.9426ZM-125.927 78.3185L-139.057 80.0543V3.18249L-126.174 1.69465V52.7772V69.1435L-125.927 78.3185ZM-126.422 134.36C-128.719 131.725 -131.802 129.83 -134.845 128.181C-135.869 127.626 -138.397 126.907 -138.908 125.832C-140.015 123.501 -139.057 118.597 -139.057 116.01V91.957V84.5178C-139.057 83.7429 -139.316 82.3421 -138.802 81.6918C-138.301 81.0569 -136.59 81.0831 -135.836 80.9507C-132.912 80.4371 -128.847 79.5597 -125.927 80.0543L-126.174 93.4448V119.978L-126.174 129.897L-126.422 134.36ZM-126.281 152.711C-126.736 149.529 -127.679 146.54 -129.352 143.783C-135.015 134.452 -147.58 132.136 -155.652 139.838C-160.621 144.579 -162.732 152.19 -161.775 158.91C-161.36 161.824 -160.406 164.829 -158.861 167.341C-157.554 169.464 -155.912 171.314 -153.922 172.821C-152.372 173.996 -150.582 174.948 -148.719 175.514C-135.064 179.67 -124.477 165.322 -126.281 152.711ZM-139.057 185.195C-133.707 183.923 -130.437 180.017 -126.175 177.012C-126.175 187.344 -126.125 197.677 -126.175 208.009C-126.19 211.161 -126.304 217.562 -128.994 219.731C-131.027 221.37 -138.143 221.952 -138.979 218.67C-139.783 215.512 -139.057 211.271 -139.057 208.009L-139.057 185.195ZM-126.422 -51.8676C-130.23 -54.2512 -134.132 -58.8435 -139.057 -58.8109V-73.4413C-139.057 -76.2003 -139.333 -79.5125 -138.262 -82.1195C-137.978 -82.8117 -137.559 -83.5233 -136.802 -83.7485C-135.749 -84.0614 -134.642 -83.5824 -133.607 -83.4347C-131.477 -83.1309 -128.286 -84.0036 -126.854 -81.8589C-125.599 -79.9794 -126.422 -75.6454 -126.422 -73.4413V-51.8676ZM-139.553 -54.8433L-147.728 -56.8271V-68.7299C-147.728 -69.9753 -148.164 -72.2605 -147.474 -73.3446C-146.266 -75.2409 -141.774 -76.8091 -139.801 -77.9049L-139.553 -70.2177V-54.8433ZM-147.728 5.41425V-3.5128L-139.553 -5.24859C-139.553 -3.54322 -138.816 0.402678 -139.807 1.81613C-140.29 2.50373 -141.531 2.68503 -142.278 2.93454C-144.222 3.58383 -145.865 4.64035 -147.728 5.41425ZM-147.728 81.5421V22.2765V11.8616C-147.728 10.5457 -148.082 8.60173 -147.474 7.39896C-146.272 5.02221 -142.014 3.78581 -139.553 3.67846V62.4482V75.0949L-139.807 79.9083L-142.03 80.5827L-147.728 81.5421ZM-139.553 125.681C-141.242 125.428 -146.465 124.189 -147.474 122.792C-148.004 122.058 -147.728 120.587 -147.728 119.73V112.291V83.03L-139.801 81.5421C-138.581 85.6711 -139.553 91.3654 -139.553 95.6766V125.681ZM-139.801 131.633L-147.474 128.765L-147.728 124.442C-143.574 125.064 -138.311 126.588 -139.801 131.633ZM-139.553 215.944C-141.589 214.799 -145.725 213.92 -147.052 211.966C-148.496 209.839 -147.728 205.739 -147.728 203.297L-147.728 181.971L-139.801 179.492C-138.785 182.931 -139.553 187.56 -139.553 191.146L-139.553 215.944Z" fill="#304A6E"/>
</svg>
