<svg width="72" height="81" viewBox="0 0 72 81" fill="none" xmlns="http://www.w3.org/2000/svg">
<rect width="72" height="81" fill="#1A1E26"/>
<rect x="-570" y="-596" width="980" height="753" rx="4" fill="white"/>
<path d="M39.9732 -161.811C35.063 -160.83 30.5923 -159.437 26.8727 -155.888C19.8342 -149.172 19.979 -137.752 27.3274 -131.29C32.6394 -126.619 40.075 -125 46.9164 -126.375C50.0253 -127 53.0803 -128.233 55.5955 -130.182C57.4444 -131.614 59.037 -133.143 60.2241 -135.183C67.0177 -146.853 58.3722 -159.426 45.9245 -161.479C43.9509 -161.805 41.9871 -162.214 39.9732 -161.811ZM225.209 -161.763C219.455 -160.321 214.215 -158.767 210.458 -153.763C204.338 -145.609 207.2 -134.602 215.538 -129.259C220.751 -125.919 227.465 -125.124 233.393 -126.604C241.383 -128.601 248.454 -135.415 248.239 -144.101C248.009 -153.386 240.253 -159.813 231.657 -161.423C229.56 -161.816 227.34 -162.297 225.209 -161.763ZM4.51293 -125.273L7.98458 -116.106L0.0494039 -115.633L-3.91815 -115.115C20.3092 -103.296 47.4491 -108.31 72.9536 -102.261C78.0594 -101.05 82.4925 -98.4075 87.0881 -95.9849C93.9361 -92.3749 100.951 -89.039 107.918 -85.6684C111.134 -84.1124 114.424 -82.0168 117.837 -80.9492C129.317 -77.3583 142.648 -78.2017 154.537 -78.2017C169.466 -78.2017 184.08 -78.4111 198.924 -79.894C207.34 -80.7347 216.276 -81.9237 224.217 -84.9383C237.262 -89.89 249.659 -96.8998 262.901 -101.269C268.248 -103.033 274.05 -103.385 279.516 -104.682C284.945 -105.969 293.845 -107.577 291.914 -114.868L283.979 -113.877C283.341 -116.465 283.225 -119.171 282.844 -121.804C282.723 -122.635 282.206 -124.16 282.89 -124.841C283.9 -125.848 287.271 -125.596 288.69 -126.017C293.521 -127.45 295.69 -132.337 293.866 -137.164C293.428 -138.323 292.555 -139.651 291.395 -140.186C290.223 -140.726 288.819 -140.421 288.049 -141.651C286.838 -143.584 287.03 -146.074 285.147 -147.622C283.145 -149.267 280.188 -148.808 277.78 -148.808H260.669C258.696 -148.808 255.092 -149.51 253.305 -148.659C252.032 -148.053 251.463 -143.464 250.951 -142.119C249.213 -137.555 246.469 -133.061 242.815 -129.774C234.087 -121.924 220.031 -122.634 211.571 -130.498C206.4 -135.303 203.552 -142.006 202.148 -148.808L108.91 -148.808H80.6406C76.9386 -148.808 71.5796 -149.81 68.0507 -148.73C67.024 -148.415 67.133 -146.699 66.9813 -145.835C66.4794 -142.981 65.5058 -140.241 64.2132 -137.66C60.8244 -130.893 54.6972 -125.986 47.1642 -124.644C30.773 -121.725 18.4678 -132.932 16.4155 -148.808H3.27289C1.8296 -148.808 -0.853566 -149.321 -2.11726 -148.554C-4.38622 -147.176 -5.21131 -142.728 -6.85403 -140.666C-8.15359 -139.034 -10.8963 -139.647 -12.4563 -138.113C-13.6375 -136.952 -13.0419 -135.604 -12.8884 -134.192C-12.5966 -131.507 -13.2358 -127.407 -10.6098 -125.704C-9.27616 -124.839 -7.41465 -125.025 -5.90211 -125.025C-2.42168 -125.025 1.02706 -125.273 4.51293 -125.273ZM15.1756 -147.57L17.1594 -139.394L-5.65416 -139.642C-5.044 -141.568 -2.94674 -146.498 -1.13782 -147.487C0.0656202 -148.145 2.41626 -147.817 3.76886 -147.817C7.5819 -147.817 11.3754 -147.57 15.1756 -147.57ZM77.417 -147.817L74.9024 -142.119L73.8189 -139.667L66.7542 -139.394L68.49 -147.57L77.417 -147.817ZM153.545 -147.817L152.057 -139.394C132.784 -140.685 113.108 -139.642 93.7833 -139.642C89.2021 -139.642 84.4458 -140.001 79.8967 -139.465C79.0014 -139.359 76.0086 -138.913 75.8057 -140.194C75.6683 -141.062 76.279 -142.297 76.5531 -143.11C77.0317 -144.53 77.7726 -146.559 79.1752 -147.315C80.2488 -147.894 82.4003 -147.802 83.6163 -147.816C86.839 -147.855 90.0644 -147.817 93.2873 -147.817H133.707C140.24 -147.817 147.046 -147.243 153.545 -147.817ZM197.684 -139.394L177.35 -139.642L153.793 -139.394L153.545 -139.642L155.033 -147.569C164.516 -147.57 174.046 -147.817 183.55 -147.817C186.428 -147.817 192.09 -148.899 194.64 -147.459C196.137 -146.614 197.515 -141.048 197.684 -139.394ZM201.156 -147.569L203.388 -139.394H199.42L196.444 -147.569H201.156ZM287.947 -139.642H280.011H262.901H251.494L253.974 -147.569H275.3C277.758 -147.569 281.783 -148.328 283.956 -147.005C286.24 -145.614 286.204 -141.658 287.947 -139.642ZM13.1919 -138.898C13.6571 -133.575 18.0089 -130.647 20.1351 -126.264C12.8501 -126.264 5.5658 -126.275 -1.68654 -126.264C-3.88951 -126.26 -8.18201 -125.452 -10.0488 -126.781C-11.9109 -128.107 -11.1953 -131.533 -11.4006 -133.448C-11.5057 -134.429 -11.9552 -135.419 -11.7932 -136.417C-11.6592 -137.243 -11.094 -137.73 -10.3618 -138.065C-7.11173 -139.552 -3.12892 -138.936 0.297203 -138.899C4.45245 -138.855 9.11735 -139.57 13.1919 -138.898ZM70.7217 -138.899C66.4588 -120.927 42.5638 -114.442 27.3264 -122.005C20.2441 -125.52 15.8422 -131.522 13.4398 -138.899C18.5853 -140.16 19.418 -134.741 22.2251 -131.466C25.6076 -127.52 30.1545 -124.772 35.2615 -123.703C43.1833 -122.045 52.1392 -123.371 58.571 -128.494C60.8481 -130.308 62.674 -132.473 64.2176 -134.935C64.8982 -136.02 65.4995 -138.156 66.6091 -138.842C67.552 -139.425 69.7145 -139.183 70.7217 -138.899ZM73.9454 -139.146L72.2096 -125.768C69.6354 -126.381 65.8566 -126.381 63.2825 -125.768L67.3921 -130.971L71.4656 -139.146H73.9454ZM150.569 -126.016L73.6974 -126.016L74.6893 -135.43L75.7564 -138.86L80.6406 -138.921L91.7994 -138.899H134.451H147.098L151.651 -138.879L151.632 -135.678L150.569 -126.016ZM206.116 -126.016H152.057L152.988 -135.678L153.695 -138.841L156.521 -138.902L163.712 -138.898L188.509 -138.898L194.709 -138.92L197.829 -138.87L200.226 -134.687L206.116 -126.016ZM256.702 -138.898C250.314 -115.514 214.873 -112.84 202.845 -132.457C201.632 -134.436 200.213 -136.626 199.668 -138.898C200.836 -138.99 202.499 -139.53 203.583 -138.892C204.655 -138.26 205.221 -136.443 205.887 -135.43C207.294 -133.291 208.924 -131.244 210.827 -129.526C215.929 -124.922 222.355 -122.88 229.177 -123.047C235.499 -123.201 241.219 -126.27 245.535 -130.727C247.03 -132.27 248.301 -134.082 249.399 -135.926C249.921 -136.802 250.295 -138.104 251.13 -138.739C252.017 -139.415 255.608 -139.21 256.702 -138.898ZM249.015 -126.016L253.866 -131.962L257.446 -139.146C265.169 -137.714 274.137 -138.886 281.996 -138.899C284.373 -138.902 289.125 -140.111 291.16 -138.749C293.743 -137.02 293.509 -130.933 291.591 -128.774C290.573 -127.628 288.652 -127.167 287.203 -126.871C281.902 -125.788 276.462 -126.016 271.085 -126.016H249.015ZM72.2099 -125.52L73.5735 -112.142L76.4254 -102.48C58.8722 -107.168 40.5071 -106.157 22.6151 -108.642C17.3383 -109.374 12.0934 -110.429 6.99278 -111.964C4.92097 -112.588 2.311 -113.095 0.545525 -114.372C2.96818 -115.087 6.99212 -115.351 9.47257 -114.867C9.6718 -118.164 6.69886 -122.693 5.50494 -125.768H15.9198C17.4258 -125.768 19.4439 -126.116 20.8793 -125.622C22.7905 -124.965 24.4935 -123.065 26.3347 -122.116C30.7522 -119.839 35.7457 -118.644 40.7172 -118.585C45.8702 -118.523 51.112 -119.253 55.8436 -121.386C58.1523 -122.427 60.1984 -124.573 62.5389 -125.375C65.2233 -126.293 69.3728 -125.52 72.2099 -125.52ZM150.569 -125.52L153.793 -79.4403C142.626 -79.4403 130.449 -78.7377 119.573 -81.6736C116.358 -82.5414 113.366 -84.3424 110.398 -85.8149C105.532 -88.2283 100.629 -90.5762 95.7674 -93.0049C91.4514 -95.1609 87.0659 -97.2206 82.8727 -99.6118C81.4733 -100.41 79.2137 -100.964 78.2486 -102.298C73.8986 -108.309 73.6977 -118.444 73.6977 -125.52L150.569 -125.52ZM152.413 -125.371C153.602 -125.974 155.949 -125.52 157.265 -125.52H169.167H194.957C198.526 -125.52 203.439 -126.403 206.86 -125.393C208.748 -124.836 210.33 -122.944 212.067 -122.001C215.151 -120.325 220.437 -118.995 222.054 -115.611C223.777 -112.005 220.015 -107.387 217.986 -104.71C213.885 -99.2983 209.175 -94.3883 204.38 -89.5977C201.28 -86.5014 197.65 -82.8837 193.717 -80.8571C191.349 -79.6371 188.109 -80.1386 185.534 -79.8937C178.514 -79.2263 171.514 -79.1925 164.456 -79.1925H157.761C157.048 -79.1928 155.8 -78.9912 155.288 -79.6242C154.539 -80.5489 154.829 -83.4653 154.775 -84.6429C154.581 -88.9157 154.405 -93.2666 153.999 -97.5255C153.325 -104.606 152.069 -111.705 152.057 -118.831C152.057 -120.149 150.993 -124.651 152.413 -125.371ZM282.739 -112.638L290.923 -113.629C290.922 -109.766 288.153 -108.394 284.723 -107.333C278.945 -105.546 273.025 -104.673 267.117 -103.47C258.527 -101.721 250.565 -97.3898 242.568 -93.9145C227.535 -87.3817 212.582 -81.3924 195.949 -80.679C198.369 -83.812 202.591 -86.4017 205.539 -89.1299C210.216 -93.4581 214.463 -98.4365 218.432 -103.41C220.818 -106.401 225.245 -111.718 223.283 -115.858C222.485 -117.544 220.864 -118.433 219.506 -119.575C220.818 -119.769 222.145 -119.193 223.474 -119.101C227.067 -118.854 230.82 -118.739 234.385 -119.404C237.809 -120.042 240.981 -121.248 244.056 -122.859C245.45 -123.589 246.768 -124.95 248.271 -125.393C249.964 -125.893 252.217 -125.52 253.974 -125.52H265.629H276.788C277.811 -125.52 280.012 -125.932 280.854 -125.266C281.548 -124.716 281.427 -122.632 281.5 -121.804C281.762 -118.806 282.035 -115.561 282.739 -112.638ZM251.247 -119.691C248.505 -119.058 246.992 -115.68 248.865 -113.392C250.232 -111.721 252.469 -111.354 254.47 -111.909C257.226 -112.673 258.436 -116.079 256.564 -118.29C255.306 -119.775 253.069 -120.112 251.247 -119.691ZM135.718 -117.409C134.187 -117.08 134.096 -114.364 135.476 -113.778C137.201 -113.047 143.356 -113.047 145.081 -113.778C146.38 -114.329 146.393 -116.805 145.059 -117.327C144.26 -117.64 143.222 -117.355 142.387 -117.346C140.333 -117.322 137.703 -117.834 135.718 -117.409ZM204.413 -117.445C203.006 -117.015 202.892 -114.439 204.201 -113.813C206.02 -112.942 209.568 -113.629 211.571 -113.629C212.301 -113.629 213.302 -113.463 213.982 -113.778C215.251 -114.368 215.006 -116.857 213.776 -117.333C212.931 -117.66 211.949 -117.37 211.075 -117.349C209.088 -117.301 206.287 -118.017 204.413 -117.445ZM54.852 -117.097C54.7006 -116.282 54.3938 -115.206 54.8967 -114.451C55.5071 -113.534 58.9134 -113.526 59.6621 -114.274C61.6334 -116.243 58.7265 -117.097 57.332 -117.097H54.852ZM200.909 -82.6609C206.247 -82.7051 211.704 -84.3752 216.779 -85.9102C226.379 -88.8136 235.122 -92.391 244.056 -96.9662C248.539 -99.262 254.327 -101.234 258.191 -104.462C254.622 -105.075 250.658 -104.71 247.032 -104.71C242.277 -104.71 237.376 -105.043 232.649 -104.534C230.106 -104.26 227.134 -105.014 224.714 -103.946C222.66 -103.039 220.922 -101.01 219.259 -99.5459C215.92 -96.606 212.564 -93.6628 209.34 -90.5983C206.762 -88.148 202.679 -85.7492 200.909 -82.6609ZM81.6335 -104.215C82.3704 -102.761 84.027 -101.827 85.3531 -100.931C88.3823 -98.8842 91.5664 -97.0619 94.776 -95.3159C103.527 -90.5552 113.063 -84.9509 122.797 -82.5309C126.767 -81.544 130.894 -81.4494 134.948 -81.1525C139.042 -80.8526 143.241 -80.679 147.346 -80.679C148.281 -80.679 150.661 -80.2534 151.307 -81.0762C152.137 -82.1335 151.244 -86.0643 151.066 -87.368C150.301 -92.9479 150.285 -98.6248 149.578 -104.215L81.6335 -104.215ZM155.778 -103.967C157.021 -98.7478 156.544 -92.4861 156.779 -87.1203C156.83 -85.971 156.522 -81.8878 157.415 -81.1813C158.363 -80.4308 160.396 -81.1173 161.481 -81.1647C164.97 -81.3173 168.419 -80.9267 171.896 -80.9267C178.05 -80.9267 185.848 -79.9399 191.734 -82.0136C198.082 -84.2504 203.5 -90.7897 207.359 -96.039C209.152 -98.4771 212.038 -101.235 212.811 -104.215L173.88 -104.215H161.977L155.778 -103.967ZM347.461 -42.0311C346.618 -45.5667 347.213 -49.7989 347.213 -53.4273V-75.7241C347.213 -78.6872 347.751 -82.2475 347.082 -85.1383C346.012 -89.7636 341.206 -88.3925 338.075 -89.7472C336.878 -90.265 336.789 -91.8438 335.31 -92.3246C333.786 -92.8204 331.555 -92.7514 330.103 -92.0627C329.229 -91.6481 328.398 -90.5386 327.375 -90.5774C325.308 -90.6559 323.519 -92.8567 321.424 -93.0743C318.855 -93.3412 314.53 -90.0385 312.249 -88.9149C311.41 -88.5017 310.053 -88.0934 309.528 -87.2713C308.723 -86.0103 309.273 -83.1306 309.273 -81.6699V-67.5486V-14.0361V1.57166C309.273 3.02651 308.682 6.14876 309.528 7.3766C310.103 8.21111 311.609 8.39208 312.497 8.73422C314.825 9.63157 319.451 12.3549 321.92 11.8434C323.71 11.4725 325.486 9.38872 327.304 9.39257C328.12 9.39406 328.914 10.3902 329.607 10.7582C331.008 11.5021 333.023 11.7169 334.566 11.3495C336.183 10.9646 336.678 9.51762 338.049 8.88352C341.024 7.50753 344.839 7.94551 346.648 4.54457C348.092 1.82891 347.213 -2.85651 347.213 -5.86063V-29.8917C347.213 -32.7042 346.238 -37.6867 347.363 -40.2602C347.836 -41.3435 349.485 -41.0401 350.437 -41.0401C352.129 -41.0401 354.243 -41.3783 355.882 -40.9336C357.09 -40.6062 357.939 -39.3228 359.307 -40.1281C360.584 -40.8795 359.944 -42.6262 358.619 -42.8336C357.623 -42.9894 356.647 -42.2277 355.644 -42.1584C353.021 -41.9772 349.985 -42.5794 347.461 -42.0311ZM-38.6337 -61.6028C-38.6337 -67.517 -38.5275 -73.513 -38.3821 -79.4403C-38.3219 -81.8909 -37.4554 -84.8865 -38.8803 -87.1165C-41.3688 -91.0107 -47.4528 -89.6526 -51.2767 -89.8688C-53.1932 -89.9771 -54.5408 -92.428 -56.7358 -92.744C-58.1338 -92.9453 -60.0123 -92.8104 -61.1437 -91.876C-61.7828 -91.3481 -61.9669 -90.3425 -62.7429 -89.9948C-65.7612 -88.6419 -69.6515 -89.8189 -71.501 -86.1293C-72.3458 -84.4438 -71.8622 -81.7777 -71.8622 -79.9357V-66.3099V-17.2568V-2.39223C-71.8622 -0.358531 -72.3642 2.45032 -71.3862 4.29665C-69.4591 7.93456 -65.7313 7.16345 -62.697 8.76288C-60.6372 9.84861 -59.9541 11.6742 -57.2317 11.4068C-54.7788 11.1659 -53.2406 8.96264 -51.0324 8.77071C-47.6015 8.47253 -43.2149 9.64444 -40.144 7.64651C-36.542 5.3031 -38.1378 -2.84323 -38.1378 -6.60386C-38.1378 -10.3372 -37.1579 -15.6321 -38.2166 -19.202C-38.6172 -20.5528 -40.7295 -19.9786 -41.0568 -21.72C-41.5087 -24.1237 -41.1134 -26.9509 -41.1134 -29.3962V-44.7563V-57.3911C-41.1127 -59.2926 -40.855 -61.2593 -38.6337 -61.6028ZM319.192 -78.9448L310.761 -86.3771V-86.8725C314.754 -88.7629 319.609 -92.8893 323.904 -90.776C325.494 -89.9934 327.908 -89.427 327.296 -87.1425C327.008 -86.0636 325.694 -85.1645 324.905 -84.4408C322.972 -82.666 320.911 -80.9294 319.192 -78.9448ZM-58.9673 -91.4944C-57.1195 -91.8754 -54.3996 -91.324 -53.6617 -89.349C-53.1633 -88.0153 -53.5121 -86.0524 -53.5121 -84.6429C-53.5121 -80.9144 -53.878 -76.9448 -53.4414 -73.2467C-52.6304 -66.3799 -53.2643 -59.1056 -53.2643 -52.1885L-53.2643 -12.0542C-53.2643 -8.445 -53.4889 -4.75398 -53.242 -1.15352C-53.0594 1.51044 -52.3698 5.11291 -53.095 7.72316C-53.4964 9.16752 -55.3911 9.97011 -56.7358 10.1681C-58.0149 10.3564 -59.7393 10.2535 -60.4485 8.97793C-61.139 7.73599 -60.7034 5.43498 -60.7034 4.04908V-7.84257L-60.7034 -69.0351V-86.1293C-60.7034 -87.9667 -61.3672 -90.9995 -58.9673 -91.4944ZM332.831 -91.4858C333.856 -91.5487 335.4 -91.3533 335.87 -90.2941C336.482 -88.915 336.054 -86.6261 336.054 -85.1383V-72.9989V-11.8064V5.04007C336.054 7.03037 336.558 10.0033 333.823 10.2283C332.138 10.3669 329.82 10.1594 328.907 8.48534C328.204 7.19621 328.615 4.98156 328.615 3.55362V-8.09031V-69.5305V-82.4132C328.615 -84.3523 328.248 -86.7202 328.719 -88.6067C329.183 -90.4663 331.048 -91.3764 332.831 -91.4858ZM-62.1912 -88.8545V-23.6981L-62.1912 -3.13546L-61.9432 7.26974C-64.6266 7.94677 -69.3957 6.01817 -70.3474 3.3049C-70.9273 1.65155 -70.6223 -0.416218 -70.6223 -2.14448V-12.7976L-70.6223 -68.0442V-81.1746C-70.6223 -82.9633 -70.9174 -85.1641 -69.574 -86.5783C-67.6217 -88.6335 -64.69 -88.2602 -62.1912 -88.8545ZM-39.3777 -84.643L-52.0243 -84.3953V-88.6069C-47.8462 -88.9363 -40.6213 -89.9836 -39.3777 -84.643ZM337.542 7.76508L337.294 7.51733L337.542 -6.35626V-32.617V-68.5397L337.294 -88.3591C339.66 -89.0091 344.385 -88.112 345.475 -85.6118C346.109 -84.1571 345.723 -81.9897 345.725 -80.4314V-69.2829V-12.0544C345.725 -8.34804 345.581 -4.60856 345.744 -0.905925C345.828 0.999022 346.183 3.19552 344.884 4.78146C343.217 6.81484 339.979 7.29259 337.542 7.76508ZM310.761 -85.8817L318.448 -78.6972V-78.2017L310.761 -71.2649L310.513 -81.1746L310.761 -85.8817ZM327.375 -85.8817V-70.7694C324.492 -72.305 321.065 -76.0403 319.192 -78.6972L327.375 -85.8817ZM-27.7229 3.8012H-19.0439V-19.2389V-66.31V-79.4404L-19.1303 -84.2458L-21.0276 -84.643L-27.3576 -84.4935L-27.7229 -79.4404V-63.3371V3.8012ZM-1.18978 -84.3953C-2.61506 -76.8373 -3.40325 -69.1631 -4.81387 -61.6029C-5.14261 -59.8412 -6.72418 -58.5665 -6.96373 -56.8958C-7.56831 -52.6798 -6.89305 -47.7983 -6.89305 -43.5177C-6.89305 -37.1746 -7.4957 -30.5073 -6.86701 -24.1937C-6.68795 -22.3959 -5.2164 -21.0198 -4.82696 -19.2389C-3.24985 -12.0277 -1.26299 -3.80878 -0.941613 3.55345H50.3889C58.786 3.55345 67.5729 4.30451 75.9302 3.52766C78.7985 3.26103 81.7275 2.1259 84.5672 1.57613C94.6364 -0.373399 104.636 -3.0558 114.757 -4.69181C120.683 -5.64973 126.975 -5.3607 132.964 -5.62277C143.211 -6.07107 153.437 -6.40555 163.713 -6.35606C178.055 -6.28694 192.832 -6.43833 207.108 -5.07546C225.502 -3.31961 243.53 1.92285 261.91 3.75896C271.865 4.7534 282.402 3.80119 292.411 3.80119C293.418 -3.98688 295.33 -11.6524 296.089 -19.4867C296.748 -26.2924 296.131 -33.4572 296.131 -40.297C296.131 -47.7315 296.716 -55.453 295.924 -62.8416C295.362 -68.0866 294.586 -73.2744 293.552 -78.4494C293.263 -79.8938 293.265 -82.9076 292.199 -83.9919C291.345 -84.8603 288.357 -84.3953 287.204 -84.3953H272.821C251.927 -84.3953 230.972 -78.8812 210.332 -75.8286C205.216 -75.072 200.107 -75.1965 194.958 -74.9713C183.224 -74.458 171.513 -74.2567 159.746 -74.2378C148.693 -74.22 137.567 -74.2028 126.517 -74.9589C122.414 -75.2396 118.195 -74.9212 114.118 -75.5499C104.239 -77.0738 94.3443 -80.1813 84.6096 -82.4714C82.0947 -83.0631 79.483 -84.0425 76.9223 -84.3496C69.9411 -85.1869 62.3841 -84.3953 55.3486 -84.3953C36.5754 -84.3953 17.5572 -83.5062 -1.18978 -84.3953ZM-39.3772 -83.8998L-39.6252 -81.1746H-39.8732V-83.6521H-51.7759L-51.7759 -72.7514L-52.2718 -81.1746L-51.6971 -83.8222L-48.0563 -83.8998H-39.3772ZM-19.5393 3.30568H-27.2266V-84.1475C-25.581 -84.1475 -21.2414 -84.9251 -19.937 -83.8929C-18.9805 -83.1361 -19.5393 -79.8184 -19.5393 -78.6972V-62.8416V3.30568ZM-67.3944 -83.7381C-70.2554 -82.813 -69.8451 -74.1053 -65.4154 -75.3708C-62.2683 -76.2699 -62.6044 -85.2868 -67.3944 -83.7381ZM-57.7137 -83.4213C-59.2663 -83.0008 -58.532 -80.7753 -56.9979 -81.3289C-55.5594 -81.848 -56.3156 -83.7999 -57.7137 -83.4213ZM340.777 -83.4681C339.407 -82.9104 339.527 -81.4129 339.526 -80.1836C339.526 -77.699 339.8 -73.9131 343.483 -75.4127C344.931 -76.0021 344.734 -77.6631 344.734 -78.9449C344.734 -81.4533 344.385 -84.9372 340.777 -83.4681ZM-66.8987 -83.2967C-63.4425 -84.2588 -63.432 -76.4379 -65.6684 -75.8326C-69.1986 -74.8772 -69.1706 -82.6642 -66.8987 -83.2967ZM332.143 -83.2192C330.683 -82.5665 331.995 -80.807 333.289 -81.3279C334.789 -81.9314 333.511 -83.8311 332.143 -83.2192ZM341.758 -83.2774C345.179 -83.8579 345.259 -76.2357 342.745 -75.781C339.196 -75.1391 339.268 -82.8549 341.758 -83.2774ZM75.6814 -83.1565V-82.9088L24.8467 -67.2528L5.75282 -61.3896L-4.41412 -58.3823C-2.29432 -63.7978 -1.97094 -70.4581 -1.15813 -76.2197C-0.957195 -77.6439 -0.957644 -81.9938 0.198855 -82.9019C1.22762 -83.7098 4.2382 -83.1565 5.5048 -83.1565H19.8873L75.6814 -83.1565ZM262.38 -83.0491C263.7 -82.9967 264.671 -80.693 265.225 -79.6881C267.305 -75.9169 268.78 -71.9965 269.702 -67.7965C271.74 -58.5114 270.837 -48.5172 270.837 -39.0583C270.837 -31.2122 271.679 -22.7375 269.987 -15.0273C268.96 -10.3446 267.554 -5.68188 265.354 -1.40139C264.664 -0.057895 263.956 2.49202 262.156 2.52577C258.355 2.59704 254.246 1.28976 250.503 0.68912C241.165 -0.809222 231.838 -2.43446 222.482 -3.81153C219.169 -4.29907 215.88 -4.90583 212.563 -5.36529C211.551 -5.50549 209.3 -5.51411 208.58 -6.29242C207.829 -7.10269 207.694 -9.02262 207.461 -10.0724C206.752 -13.2588 205.969 -16.4938 205.581 -19.7344C204.835 -25.9621 205.124 -32.2938 205.124 -38.5628C205.124 -45.3226 204.877 -52.1419 205.349 -58.8777C205.623 -62.7819 206.543 -66.4772 207.441 -70.2739C207.707 -71.3977 207.709 -73.4511 208.722 -74.1971C209.706 -74.9221 211.633 -74.8573 212.811 -75.0774C216.339 -75.7365 219.927 -76.2359 223.474 -76.7833C232.322 -78.1486 241.177 -79.5553 250.007 -81.0347C253.876 -81.6829 258.465 -83.2044 262.38 -83.0491ZM291.418 2.56249C284.763 3.79688 277.11 2.81023 270.341 2.81023C268.357 2.81023 266.07 2.43411 264.141 2.81023C263.984 0.452411 266.622 -2.87228 267.514 -5.11753C269.554 -10.2545 270.768 -15.4855 271.29 -20.9731C272.047 -28.9159 271.333 -37.2701 271.333 -45.2519C271.333 -52.0546 272.054 -59.3655 270.672 -66.0623C269.9 -69.8007 268.825 -73.5141 267.171 -76.963C266.201 -78.9845 264.45 -81.0147 263.894 -83.1565H283.731C285.379 -83.1565 289.672 -83.9268 290.99 -82.9019C292.105 -82.035 292.098 -78.7731 292.361 -77.4584C293.451 -72.0112 294.509 -66.4179 294.646 -60.8597C294.957 -48.2067 295.735 -35.1096 294.868 -22.4595C294.294 -14.0838 291.777 -5.7781 291.418 2.56249ZM75.4336 -82.1656C72.8094 -75.0044 67.5996 -68.941 65.7726 -61.3552C64.4408 -55.8252 65.2668 -49.4266 65.2668 -43.7654C65.2668 -35.2634 63.9085 -25.4657 66.3673 -17.2569C68.4427 -10.3282 72.9326 -4.7118 75.6817 1.81926C69.2311 0.947172 62.2763 -2.28287 56.0917 -4.35558C43.4267 -8.60019 30.5879 -12.3313 17.9038 -16.5139C12.3824 -18.3346 6.84988 -20.1274 1.28959 -21.8241C-0.99417 -22.521 -3.28671 -23.5967 -5.65372 -23.946V-38.5628C-4.22487 -38.5006 -1.72321 -37.1232 -0.45602 -37.7732C2.90777 -39.4986 3.38068 -44.5918 -0.703967 -45.8225C-1.97443 -46.2053 -4.17956 -45.1481 -5.40569 -44.7564L-5.65372 -54.1706L-5.07889 -57.4274L2.03351 -59.746L18.8957 -64.9287L58.5715 -77.1415L75.4336 -82.1656ZM74.9377 -79.9359C74.4994 -75.5376 72.6852 -71.2611 72.2521 -66.8055C71.6132 -60.2315 72.1201 -53.582 71.9584 -46.9861C71.7045 -36.6303 70.7399 -25.8434 71.7561 -15.5227C72.2654 -10.3512 74.0311 -5.44193 75.1857 -0.410436H74.9377C70.9842 -6.86406 67.0662 -14.1666 65.8432 -21.7163C64.6623 -29.0065 65.7627 -37.3642 65.7627 -44.7564C65.7627 -49.4173 65.1789 -54.5125 65.8371 -59.1255C66.4861 -63.6736 68.741 -67.8951 70.6458 -72.0081C71.8475 -74.6028 73.108 -77.7297 74.9377 -79.9359ZM326.383 -70.5217H311.256L316.712 -76.2197L318.944 -77.7257L321.175 -75.972L326.383 -70.5217ZM241.328 -77.3533C233.555 -76.3337 225.887 -74.8682 218.266 -72.9677C216.372 -72.4953 211.888 -72.3088 210.544 -70.8686C209.78 -70.051 209.704 -68.1159 209.488 -67.0533C208.841 -63.8657 208.101 -60.6632 208.1 -57.3913V-23.6983C208.1 -20.285 208.628 -16.8963 209.234 -13.5408C209.42 -12.513 209.397 -10.5445 210.229 -9.80843C211.02 -9.10909 212.562 -9.03847 213.555 -8.83294C216.042 -8.31819 218.518 -7.69771 220.994 -7.12893C229.762 -5.11474 238.515 -3.38335 247.527 -3.38335C249.826 -3.38335 252.438 -3.03485 254.704 -3.42006C256.391 -3.70687 255.462 -7.57133 255.462 -8.8337V-26.1757V-64.5758C255.462 -67.7113 255.393 -70.8555 255.462 -73.9901C255.482 -74.8343 256.03 -76.5669 255.269 -77.2038C254.503 -77.8447 252.435 -77.4585 251.491 -77.4585C248.159 -77.4585 244.629 -77.7868 241.324 -77.3533M206.856 -74.2378L203.89 -58.8778L203.88 -37.3241L203.923 -21.9641L206.856 -6.10853L197.433 -6.61376L179.331 -7.10045L142.631 -7.33748L114.858 -5.86077L112.897 -19.7344L112.874 -37.8196L112.884 -60.3642L114.858 -74.2378L146.847 -73.0027L183.299 -73.4909L206.856 -74.2378ZM-51.7803 -72.0081V-70.7694H-52.0282L-51.7803 -72.0081ZM-50.2925 -70.2739L-50.2925 -10.0724H-51.7803L-52.0282 -70.2739H-50.2925ZM-49.2219 -70.1233C-47.5623 -70.9047 -47.5652 -68.7792 -47.5647 -67.7965V-58.1345L-47.5647 -21.7163V-13.0453C-47.5647 -12.2603 -47.266 -10.6844 -48.1393 -10.2575C-49.6762 -9.50621 -49.7945 -11.3119 -49.7965 -12.3021V-20.9731L-49.7965 -57.1435V-66.8055C-49.7965 -67.6513 -50.1714 -69.6762 -49.2219 -70.1233ZM-47.0688 -10.0724L-47.0688 -70.2739L-45.0919 -69.8767L-44.837 -66.8055V-59.1255V-22.7073L-44.837 -13.7885L-45.0919 -10.4696L-47.0688 -10.0724ZM-39.8776 -70.2739V-62.5939C-43.2758 -61.2499 -42.6052 -56.8729 -42.6052 -53.9229V-28.1576C-42.6052 -25.0514 -43.749 -19.7367 -39.6295 -18.9911L-39.3816 -10.3201C-40.3146 -10.0446 -43.3909 -9.5637 -44.0899 -10.4723C-44.6599 -11.2134 -44.3411 -12.9059 -44.3411 -13.7885V-22.2118L-44.3411 -58.63V-67.0533C-44.3411 -67.8339 -44.6427 -69.466 -43.9435 -70.0193C-43.0981 -70.6882 -40.9109 -70.2739 -39.8776 -70.2739ZM315.716 -69.5307C316.713 -66.163 315.965 -61.6473 315.965 -58.1345C312.896 -58.0982 313.981 -53.9858 313.981 -51.6932V-30.3873C313.981 -28.0025 312.781 -22.9927 315.965 -22.955V-10.8156L310.907 -11.0703L310.509 -14.7795V-25.1847V-69.2829L315.716 -69.5307ZM323.9 -69.5307V-55.4093V-26.9189L324.148 -11.0634L316.46 -10.8156V-22.955C319.147 -23.1598 318.196 -27.4124 318.196 -29.3963V-50.7022C318.196 -52.7808 319.254 -57.9216 316.46 -58.1345V-66.31L316.858 -69.2761L323.9 -69.5307ZM327.123 -69.5307L327.371 -63.0894V-50.95V-10.8156H324.644V-55.6571V-65.5668L324.898 -69.1333L327.123 -69.5307ZM135.192 -61.4978C132.047 -61.0802 129.149 -60.1093 127.513 -57.1435C126.163 -54.6948 126.513 -51.9097 126.513 -49.2158V-34.3512C126.513 -30.5697 125.583 -25.4709 127.911 -22.2118C131.032 -17.8426 136.686 -18.4957 141.391 -18.4957C143.338 -18.4957 145.413 -18.2945 147.342 -18.57C158.117 -20.108 155.526 -32.3156 155.526 -40.297C155.526 -45.0227 156.893 -52.3164 154.841 -56.6481C151.806 -63.0542 141.103 -62.2827 135.192 -61.4978ZM135.192 -61.0367C140.83 -61.7104 151.15 -62.596 154.157 -56.6481C156.393 -52.227 155.03 -44.9048 155.03 -40.0493C155.03 -33.5644 157.555 -20.511 148.334 -19.2836C142.706 -18.5345 131.839 -17.2223 128.306 -22.7494C126.258 -25.955 127.009 -30.4827 127.009 -34.1035V-47.4816C127.009 -54.0507 127.238 -60.0863 135.192 -61.0367ZM317.7 -57.3913V-23.6983L314.725 -23.4505L314.477 -34.3512V-57.3913H317.7ZM-58.2906 -55.1545C-59.4263 -54.2289 -57.698 -52.5791 -56.6041 -53.5771C-55.4847 -54.5984 -57.3246 -55.9417 -58.2906 -55.1545ZM332.14 -55.2216C330.702 -54.6003 331.975 -52.6022 333.286 -53.2473C334.76 -53.9727 333.507 -55.8124 332.14 -55.2216ZM186.77 -46.7383C188.038 -44.138 191.801 -41.878 193.962 -39.9786C194.994 -39.0708 195.796 -38.0997 197.185 -37.8196L190.843 -43.5186L186.77 -46.7383ZM-5.16124 -39.8015V-43.7654C-3.89256 -44.056 -1.92645 -45.0849 -0.701362 -44.3494C1.49254 -43.0323 1.60263 -39.7532 -1.19734 -39.0031C-2.36522 -38.6902 -4.0191 -39.54 -5.16124 -39.8015ZM-57.4827 -27.4226C-58.9072 -27.3348 -58.9645 -25.2581 -57.4827 -25.2581C-55.8996 -25.2581 -55.8466 -27.5235 -57.4827 -27.4226ZM332.139 -27.2267C330.671 -26.5948 331.925 -24.5886 333.286 -25.2744C334.754 -26.0137 333.496 -27.8106 332.139 -27.2267ZM-4.66527 -23.4505L5.0057 -20.2228L23.3557 -14.3473L74.6862 2.06699V2.31474H21.372H6.74149C5.12413 2.31474 2.10218 2.90137 0.649673 2.16525C-0.506751 1.5792 -0.550866 -2.43006 -0.759685 -3.63109C-1.64949 -8.74738 -2.71396 -13.8512 -3.45796 -18.9911C-3.65978 -20.3856 -5.02049 -22.1527 -4.66527 -23.4505ZM326.875 -9.82467C325.752 -7.41912 323.025 -5.72345 321.172 -3.87884C320.609 -3.31839 319.819 -2.2143 318.941 -2.19223C318.031 -2.16934 317.18 -3.35806 316.597 -3.93103C314.898 -5.60051 311.743 -7.53032 311.005 -9.82467H326.875ZM-39.6295 -9.57692L-39.3816 2.56248C-42.7525 3.55792 -47.2723 2.81022 -50.7884 2.81022V2.56248H-39.8776C-39.8776 -0.853378 -40.9461 -6.44248 -39.6295 -9.57692ZM311.005 -8.83369C313.293 -6.54789 317.069 -4.0997 318.444 -1.15366L310.757 5.78313L310.509 -4.86981L311.005 -8.83369ZM327.371 -8.83369V6.03088C325.087 4.96684 320.127 0.560971 319.436 -1.89689L327.371 -8.83369ZM-67.1537 -5.20262C-70.2335 -4.26276 -69.9594 4.62526 -65.4199 3.24645C-62.3076 2.30109 -62.7341 -6.55129 -67.1537 -5.20262ZM341.011 -4.93364C338.071 -3.79505 338.667 4.94571 343.237 3.34183C346.14 2.32311 345.654 -6.73208 341.011 -4.93364ZM-65.6716 -4.63716C-63.529 -4.21143 -63.2996 3.43192 -66.8957 2.75346C-69.188 2.32096 -69.2177 -5.34179 -65.6716 -4.63716ZM341.272 -4.49456C345.176 -5.75478 345.288 2.12987 342.979 2.85515C339.237 4.03073 339.312 -3.86159 341.272 -4.49456ZM-3.92135 34.2736V34.5213L7.98138 35.5123C6.77021 37.6385 6.02874 42.8843 3.94569 44.1764C2.87645 44.8396 1.20486 44.2437 0.0462028 44.1931C-2.88224 44.0649 -7.98956 43.3013 -10.5934 44.7786C-13.3096 46.3197 -12.5522 50.7509 -12.9229 53.3498C-13.1081 54.6488 -13.5177 55.826 -12.6305 56.9906C-11.4351 58.5597 -8.73236 58.902 -6.89703 59.0479L-3.51115 65.7369L-1.85682 67.8171L3.51786 67.9666H16.4125C18.3429 52.7856 29.9546 41.0625 45.9213 43.5488C53.7971 44.7752 60.3053 49.1886 63.9964 56.3227C65.4423 59.1171 66.2818 61.9422 66.9694 64.9937C67.1627 65.8515 67.0259 67.5749 68.0476 67.8879C71.5765 68.9687 76.9356 67.9666 80.6376 67.9666H108.907L202.145 67.9666C203.614 60.8522 206.569 54.1209 212.064 49.1804C220.246 41.8235 233.995 41.0297 242.387 48.5232C246.334 52.0475 249.022 56.3888 250.945 61.2776C251.472 62.6182 252.035 67.2025 253.305 67.8171C255.398 68.83 259.407 67.8271 261.658 67.7286C268.228 67.4412 274.98 68.5546 281.496 67.9246C283.898 67.6924 285.724 66.8298 286.699 64.4982C287.243 63.1967 287.356 61.4333 288.352 60.3653C289.857 58.7524 292.18 59.4879 293.509 57.0659C294.99 54.3655 294.759 48.5722 292.146 46.5711C289.703 44.7006 285.471 44.2448 282.488 44.1833L283.976 33.0349L291.663 34.0258C295.709 26.8093 282.546 24.4815 278.025 23.4595C272.979 22.3189 267.541 22.0144 262.65 20.2914C246.702 14.6728 231.959 5.01939 215.287 1.57077C194.866 -2.65345 174.501 -2.67199 153.79 -2.6401C142.212 -2.62226 129.278 -3.52066 118.082 -0.0546759C114.902 0.929597 111.903 2.85534 108.907 4.29058C102.604 7.31001 96.2433 10.2781 90.0606 13.537C83.8097 16.8318 77.9259 20.2371 70.9666 21.7813C46.4552 27.22 18.8872 21.7932 -3.92135 34.2736ZM150.318 44.6788L141.639 44.431H125.521H73.6944C73.6944 38.7219 74.2104 33.0864 75.8209 27.5845C76.43 25.5037 77.0031 22.9333 78.3974 21.2112C79.3267 20.0636 81.3314 19.5147 82.6214 18.8495C85.6882 17.268 88.709 15.5986 91.7964 14.0573C97.0786 11.4203 102.388 8.84926 107.667 6.21211C111.181 4.45666 114.824 2.22831 118.578 1.04833C122.2 -0.0904104 125.994 -0.34445 129.736 -0.700226C135.532 -1.25121 141.276 -1.26295 147.095 -1.40502C148.564 -1.44092 152.156 -2.39575 153.392 -1.39373C154.057 -0.854811 153.571 0.59581 153.545 1.32379C153.448 3.96598 153.172 6.61107 153.056 9.25157C152.702 17.3135 151.621 25.2562 150.856 33.2826C150.512 36.8912 151.343 41.2147 150.318 44.6788ZM152.054 44.6788C151.349 41.7193 152.074 38.2681 152.28 35.2646C152.827 27.285 154.234 19.236 154.286 11.2335C154.306 8.15245 154.491 4.88095 154.853 1.81928C154.946 1.02516 154.771 -0.583817 155.285 -1.21748C155.863 -1.93131 157.449 -1.64912 158.253 -1.64912H166.188C171.923 -1.64912 177.587 -1.41329 183.299 -1.16338C186.229 -1.03519 190.199 -1.44151 192.97 -0.455527C195.354 0.392884 197.525 2.5443 199.417 4.15488C206.624 10.289 213.404 17.4485 218.969 25.1071C220.893 27.7541 223.976 32.2708 221.608 35.5087C219.494 38.3996 214.629 39.7232 211.568 41.4012C210.021 42.249 208.528 44.02 206.853 44.5096C205.605 44.874 203.941 44.4311 202.641 44.4311H192.474H165.445C161.207 44.4311 156.18 43.6974 152.054 44.6788ZM327.371 8.01285L321.668 10.5895L318.196 9.57825L310.757 6.77413C312.234 4.67994 314.407 3.12622 316.212 1.32379C316.846 0.690935 317.733 -0.564554 318.692 -0.677658C319.637 -0.789068 320.538 0.434674 321.149 1.00168C323.093 2.8055 326.952 5.29963 327.371 8.01285ZM81.6295 23.3729H149.574L151.558 -0.162663C141.889 -0.162663 131.493 -0.576419 122.049 1.79329C113.498 3.93902 104.959 8.97466 97.2519 13.139C93.4802 15.1769 89.6857 17.1831 86.0931 19.5317C84.5009 20.5725 82.5623 21.6654 81.6295 23.3729ZM290.919 32.7871C289.18 32.5675 284.554 31.1093 283.063 32.0544C282.183 32.6121 282.312 34.5931 282.202 35.5123C281.834 38.5711 281.387 41.6229 281 44.6788H259.179C255.821 44.6788 251.756 45.3066 248.474 44.5838C245.934 44.0245 243.348 41.3514 240.829 40.3316C234.254 37.671 226.351 37.2099 219.503 38.9807C220.647 36.9651 223.171 36.4335 223.637 33.7781C224.37 29.6003 220.653 25.3895 218.264 22.3819C214.287 17.3765 210.072 12.3877 205.359 8.05127C202.704 5.60845 197.993 2.89735 196.193 -0.162663C213.063 0.185272 228.363 6.91637 243.556 13.4313C251.604 16.8822 259.438 21.1062 268.106 22.726C274.082 23.8428 280.232 24.7361 285.96 26.8547C288.818 27.9118 291.311 29.4733 290.919 32.7871ZM156.022 23.3729H212.808C212.16 20.1224 208.637 16.7355 206.608 14.2064C202.763 9.412 198.117 3.59544 192.226 1.26454C186.274 -1.09028 178.176 0.0850878 171.892 0.0850878C168.5 0.0850878 165.108 0.326368 161.729 0.205504C160.624 0.166039 158.333 -0.389895 157.411 0.339711C156.53 1.03713 156.797 5.14388 156.769 6.27866C156.627 11.9823 156.022 17.6586 156.022 23.3729ZM-58.1488 0.835393C-59.405 1.67375 -57.9615 3.24353 -56.7777 2.55448C-55.3442 1.72015 -56.9198 0.0152254 -58.1488 0.835393ZM332.12 0.83985C330.625 1.66425 332.183 3.51116 333.492 2.69334C334.795 1.87918 333.333 0.170714 332.12 0.83985ZM200.905 1.81935C202.034 3.74855 204.478 5.25939 206.112 6.78031C210.189 10.5755 214.321 14.3214 218.511 17.9932C220.398 19.6468 222.76 22.4958 225.206 23.2468C228.505 24.2597 232.702 23.6207 236.117 23.6207H257.939C256.783 22.277 254.794 21.6172 253.227 20.8288C250.566 19.4901 247.913 18.0806 245.292 16.664C235.9 11.5888 226.295 7.66402 216.031 4.75747C211.135 3.37089 206.017 1.81935 200.905 1.81935ZM-51.7803 7.51744C-51.7803 6.56845 -52.2081 4.21355 -51.3827 3.56043C-50.7754 3.07993 -49.5263 3.30581 -48.8046 3.30581H-42.3573C-41.6494 3.30581 -40.3715 3.07447 -39.7829 3.56043C-38.9805 4.22279 -39.9072 5.6963 -40.4292 6.22577C-41.9791 7.79786 -44.5602 7.51744 -46.5729 7.51744H-51.7803ZM76.67 21.6388C74.4441 27.0594 73.2159 32.4278 72.5253 38.2376C72.2744 40.3475 72.6055 42.6363 72.2065 44.6789C69.1374 43.9488 65.4506 45.3686 62.5355 44.4663C60.3631 43.7939 58.4496 41.6927 56.3362 40.7222C50.8963 38.2243 44.9364 37.3566 38.978 37.7642C34.7726 38.052 30.3078 39.0079 26.5794 41.0401C24.6718 42.0799 22.8915 44.0266 20.876 44.7463C19.4309 45.2624 17.4347 44.9266 15.9165 44.9266H5.74962L9.46922 34.0259L0.542176 33.7782L5.25365 31.5839L19.3881 28.2659L54.8484 25.0653L68.4869 23.4686L76.67 21.6388ZM135.118 33.0418C134.134 33.7845 134.341 35.8741 135.473 36.3539C137.384 37.1639 140.811 36.5034 142.879 36.5034C143.612 36.5034 144.808 36.72 145.432 36.2487C146.416 35.5061 146.209 33.4165 145.078 32.9367C143.167 32.1267 139.74 32.7872 137.672 32.7872C136.939 32.7872 135.742 32.5705 135.118 33.0418ZM203.987 33.0418C203.007 33.7063 203.072 35.8551 204.185 36.3539C206.094 37.2092 209.729 36.5035 211.816 36.5034C212.527 36.5033 213.567 36.6757 214.188 36.2487C215.106 35.6176 215.037 33.4079 213.991 32.9367C212.087 32.0792 208.443 32.7871 206.36 32.7872C205.645 32.7873 204.613 32.6173 203.987 33.0418ZM54.8484 33.0351C54.697 33.8502 54.3901 34.9266 54.893 35.6816C55.4892 36.577 58.8554 36.5992 59.6585 35.9637C61.883 34.2036 58.6099 33.0352 57.3284 33.0351H54.8484ZM70.719 58.0572C69.5745 58.0572 67.3841 58.4799 66.4134 57.8025C65.2009 56.9564 64.4265 54.3586 63.6031 53.1023C61.9275 50.5455 59.6515 48.1461 57.0804 46.4733C47.973 40.5478 34.2622 40.3941 25.5878 47.284C21.8464 50.2556 19.5475 54.1383 17.4046 58.3049L13.4371 58.0572C15.611 50.4038 20.75 44.0905 28.0675 40.7924C43.3248 33.9157 66.5706 40.1512 70.719 58.0572ZM256.699 58.0572C255.21 58.0572 252.698 58.5454 251.341 57.9077C250.376 57.4546 249.809 55.7114 249.294 54.8365C248.189 52.959 246.81 51.1921 245.289 49.6339C241.102 45.3456 235.566 42.2314 229.422 42.2018C222.353 42.1678 216.257 43.8342 210.846 48.5783C208.962 50.2304 207.344 52.2249 206.011 54.341C205.379 55.3432 204.805 57.1544 203.784 57.8025C202.786 58.436 200.81 58.0572 199.665 58.0572C200.273 55.5025 201.862 53.0408 203.302 50.8726C215.799 32.0642 250.471 34.8359 256.699 58.0572ZM41.7061 45.074C36.2167 45.2722 30.5667 47.2073 26.622 51.1624C19.1488 58.6553 20.448 70.9197 29.0594 76.9424C33.6825 80.1757 38.9033 81.0821 44.4338 80.8398C47.0728 80.7242 49.7373 79.8898 52.1209 78.7909C54.3042 77.7844 56.39 76.3264 58.009 74.5472C59.5037 72.9045 60.7536 71.025 61.5879 68.9578C66.7644 56.1321 54.0899 44.6269 41.7061 45.074ZM73.9426 58.0572H71.2149C69.9836 52.7424 66.276 49.4241 63.2798 45.1745L69.7271 45.1708L72.0572 45.1911L72.5977 48.3951L73.9426 58.0572ZM150.318 44.9267L152.054 58.0571L75.1825 58.0571L73.6946 45.1745H124.777H141.143L150.318 44.9267ZM206.36 45.4222C203.725 47.719 201.83 50.8022 200.181 53.8455C199.626 54.8693 198.907 57.397 197.832 57.9076C195.501 59.0148 190.597 58.0571 188.01 58.0571H163.957H156.518C155.743 58.0571 154.342 58.3158 153.692 57.8025C153.057 57.3014 153.083 55.5902 152.951 54.8365C152.437 51.9122 151.56 47.8469 152.054 44.9267L165.445 45.1745H191.978L201.897 45.1737L206.36 45.4222ZM224.711 45.2808C221.529 45.736 218.54 46.6791 215.783 48.3519C206.452 54.0152 204.136 66.58 211.838 74.6525C216.579 79.6212 224.19 81.7323 230.91 80.7753C233.824 80.3602 236.829 79.4065 239.341 77.8607C241.464 76.5544 243.314 74.912 244.821 72.9219C245.996 71.3716 246.948 69.5821 247.514 67.7193C251.67 54.0641 237.322 43.4765 224.711 45.2808ZM257.195 58.0573C255.923 52.7069 252.017 49.4369 249.012 45.1747C259.344 45.1747 269.677 45.1251 280.009 45.1749C283.161 45.19 289.562 45.304 291.731 47.9937C293.37 50.0269 293.952 57.1426 290.67 57.9786C287.512 58.7832 283.271 58.0573 280.009 58.0573H257.195ZM20.1324 45.4224C17.7488 49.2295 13.1565 53.1317 13.1891 58.0573H-1.44134C-4.20032 58.0573 -7.51248 58.3334 -10.1195 57.2621C-10.8117 56.9776 -11.5233 56.5595 -11.7485 55.8018C-12.0614 54.7489 -11.5824 53.6424 -11.4347 52.607C-11.1309 50.4767 -12.0036 47.2858 -9.85888 45.8541C-7.97943 44.5995 -3.64543 45.4224 -1.44134 45.4224H20.1324ZM17.1567 58.5528L15.1729 66.7283H3.27013C2.02466 66.7283 -0.260515 67.1643 -1.34456 66.4737C-3.24088 65.2656 -4.80907 60.7745 -5.90486 58.8006L1.78229 58.5528H17.1567ZM77.4142 66.7283H68.4872L66.7514 58.5528C68.4568 58.5528 72.4027 57.8158 73.8161 58.8074C74.5037 59.2898 74.685 60.531 74.9345 61.278C75.5838 63.2224 76.6403 64.8654 77.4142 66.7283ZM153.542 66.7283L94.2765 66.7283H83.8616C82.5457 66.7283 80.6017 67.082 79.399 66.4737C77.0222 65.2717 75.7858 61.0135 75.6785 58.5528H134.448H147.095L151.908 58.8074L152.583 61.0302L153.542 66.7283ZM197.681 58.5528C197.428 60.242 196.189 65.4646 194.792 66.4737C194.058 67.0042 192.587 66.7283 191.73 66.7283H184.291H155.03L153.542 58.8006C157.671 57.5812 163.365 58.5528 167.677 58.5528H197.681ZM203.633 58.8006L200.765 66.4737L196.442 66.7283C197.064 62.5736 198.588 57.3107 203.633 58.8006ZM287.944 58.5528C286.799 60.5895 285.92 64.7254 283.966 66.0524C281.839 67.4959 277.739 66.7283 275.297 66.7283H253.971L251.492 58.8006C254.931 57.785 259.56 58.5528 263.146 58.5528H287.944Z" fill="#304A6E"/>
</svg>
