<svg width="72" height="81" viewBox="0 0 72 81" fill="none" xmlns="http://www.w3.org/2000/svg">
<rect width="72" height="81" fill="#1A1E26"/>
<rect x="-858" y="-434" width="980" height="753" rx="4" fill="white"/>
<path d="M-248.027 0.188557C-252.937 1.17049 -257.408 2.56311 -261.127 6.1124C-268.166 12.8283 -268.021 24.2475 -260.673 30.7097C-255.361 35.3809 -247.925 37.0001 -241.084 35.6249C-237.975 35 -234.92 33.7668 -232.404 31.8182C-230.556 30.3858 -228.963 28.8568 -227.776 26.8175C-220.982 15.1474 -229.628 2.57353 -242.075 0.52078C-244.049 0.195298 -246.013 -0.214191 -248.027 0.188557ZM-62.7906 0.23709C-68.5445 1.67945 -73.7854 3.23252 -77.5415 8.23675C-83.6619 16.3907 -80.8002 27.3981 -72.4616 32.7409C-67.2485 36.0812 -60.5349 36.8764 -54.6075 35.3956C-46.6172 33.3993 -39.5458 26.5854 -39.761 17.8987C-39.9911 8.61445 -47.7473 2.18688 -56.3433 0.576603C-58.44 0.183815 -60.6601 -0.296987 -62.7906 0.23709ZM-283.487 36.7272L-280.015 45.8937L-287.951 46.367L-291.918 46.8846C-267.691 58.7039 -240.551 53.6895 -215.046 59.7386C-209.941 60.9495 -205.508 63.5925 -200.912 66.0151C-194.064 69.6251 -187.049 72.961 -180.082 76.3316C-176.866 77.8876 -173.576 79.9832 -170.163 81.0508C-158.683 84.6417 -145.352 83.7983 -133.463 83.7983C-118.534 83.7983 -103.92 83.5889 -89.0758 82.106C-80.66 81.2653 -71.7241 80.0763 -63.7825 77.0617C-50.7382 72.11 -38.3413 65.1002 -25.0986 60.7309C-19.7521 58.9669 -13.9503 58.6145 -8.48438 57.3185C-3.0551 56.0311 5.84489 54.4228 3.91427 47.1324L-4.02085 48.1233C-4.65929 45.5349 -4.77481 42.829 -5.15644 40.1956C-5.27681 39.3653 -5.7939 37.8403 -5.11031 37.1588C-4.09999 36.1518 -0.728856 36.404 0.69047 35.983C5.52149 34.5498 7.68959 29.6626 5.86579 24.8355C5.42792 23.6767 4.55538 22.349 3.39502 21.814C2.22349 21.2739 0.819324 21.5791 0.0491429 20.3492C-1.16174 18.4156 -0.969587 15.926 -2.85312 14.3781C-4.85531 12.7328 -7.81224 13.1916 -10.2204 13.1916L-27.3306 13.1916C-29.304 13.1916 -32.9075 12.4905 -34.6946 13.3411C-35.9684 13.9474 -36.5371 18.5356 -37.0491 19.8807C-38.7868 24.4451 -41.531 28.9393 -45.1847 32.2255C-53.9131 40.0765 -67.9689 39.3655 -76.4293 31.5024C-81.5998 26.6969 -84.4477 19.9941 -85.8523 13.1916L-179.09 13.1916L-207.359 13.1916C-211.061 13.1916 -216.42 12.1896 -219.949 13.2704C-220.976 13.5848 -220.867 15.3013 -221.019 16.1645C-221.521 19.0188 -222.494 21.7588 -223.787 24.34C-227.176 31.1071 -233.303 36.0136 -240.836 37.3555C-257.227 40.2755 -269.532 29.0678 -271.584 13.1916H-284.727C-286.17 13.1916 -288.854 12.679 -290.117 13.4462C-292.386 14.8238 -293.211 19.2719 -294.854 21.334C-296.154 22.9655 -298.896 22.3534 -300.456 23.8868C-301.638 25.0478 -301.042 26.3965 -300.888 27.8084C-300.597 30.4929 -301.236 34.5932 -298.61 36.2965C-297.276 37.1615 -295.415 36.9749 -293.902 36.9749C-290.422 36.9749 -286.973 36.7272 -283.487 36.7272ZM-272.824 14.4303L-270.841 22.6058L-293.654 22.3581C-293.044 20.4318 -290.947 15.5017 -289.138 14.5127C-287.934 13.8548 -285.584 14.1826 -284.231 14.1826C-280.418 14.1826 -276.625 14.4303 -272.824 14.4303ZM-210.583 14.1826L-213.098 19.8807L-214.181 22.3326L-221.246 22.6058L-219.51 14.4303L-210.583 14.1826ZM-134.455 14.1826L-135.943 22.6058C-155.216 21.3151 -174.892 22.3581 -194.217 22.3581C-198.798 22.3581 -203.554 21.9988 -208.103 22.5351C-208.999 22.6406 -211.991 23.0866 -212.194 21.806C-212.332 20.9384 -211.721 19.7025 -211.447 18.8897C-210.968 17.4704 -210.227 15.4413 -208.825 14.6849C-207.751 14.106 -205.6 14.198 -204.384 14.1835C-201.161 14.1453 -197.936 14.1828 -194.713 14.1828L-154.293 14.1828C-147.76 14.1828 -140.954 14.7574 -134.455 14.1826ZM-90.3158 22.606L-110.65 22.3583L-134.207 22.606L-134.455 22.3583L-132.967 14.4305C-123.484 14.4298 -113.954 14.1828 -104.45 14.1828C-101.572 14.1828 -95.9103 13.1009 -93.3604 14.5406C-91.8631 15.386 -90.4852 20.9521 -90.3158 22.606ZM-86.8442 14.4305L-84.6124 22.606H-88.58L-91.5557 14.4305H-86.8442ZM-0.0534504 22.3583H-7.98862H-25.0988H-36.5056L-34.0258 14.4305H-12.7001C-10.242 14.4305 -6.21742 13.6724 -4.04435 14.995C-1.75977 16.3856 -1.79579 20.3425 -0.0534504 22.3583ZM-274.808 23.1015C-274.343 28.4254 -269.991 31.3535 -267.865 35.7364C-275.15 35.7364 -282.434 35.7247 -289.687 35.7364C-291.89 35.7401 -296.182 36.5475 -298.049 35.2188C-299.911 33.8933 -299.195 30.4674 -299.401 28.5519C-299.506 27.5709 -299.955 26.5812 -299.793 25.5828C-299.659 24.7574 -299.094 24.2697 -298.362 23.9348C-295.112 22.4483 -291.129 23.064 -287.703 23.1006C-283.548 23.1449 -278.883 22.43 -274.808 23.1015ZM-217.278 23.1013C-221.541 41.0733 -245.436 47.5577 -260.674 39.995C-267.756 36.4799 -272.158 30.4776 -274.56 23.1013C-269.415 21.84 -268.582 27.259 -265.775 30.5336C-262.392 34.4795 -257.845 37.2277 -252.739 38.2966C-244.817 39.9546 -235.861 38.629 -229.429 33.5056C-227.152 31.6917 -225.326 29.5271 -223.782 27.0652C-223.102 25.9796 -222.501 23.8442 -221.391 23.1583C-220.448 22.5754 -218.286 22.8166 -217.278 23.1013ZM-214.055 22.8536L-215.79 36.2317C-218.365 35.6195 -222.143 35.6195 -224.717 36.2317L-220.608 31.0291L-216.534 22.8536H-214.055ZM-137.431 35.984L-214.303 35.984L-213.311 26.5697L-212.244 23.1403L-207.359 23.0792L-196.201 23.1013L-153.549 23.1013H-140.902L-136.349 23.1214L-136.368 26.322L-137.431 35.984ZM-81.8844 35.984H-135.943L-135.012 26.322L-134.305 23.1591L-131.479 23.0979L-124.288 23.1016L-99.4906 23.1016L-93.2912 23.0804L-90.1712 23.1298L-87.7743 27.3133L-81.8844 35.984ZM-31.2978 23.1017C-37.6863 46.4855 -73.1268 49.1597 -85.1549 29.543C-86.3682 27.5642 -87.7868 25.3738 -88.3318 23.1017C-87.1637 23.0096 -85.5011 22.4696 -84.417 23.1083C-83.3452 23.7401 -82.7791 25.5569 -82.1129 26.5699C-80.7057 28.7094 -79.0764 30.7559 -77.1729 32.4736C-72.0711 37.0778 -65.6453 39.1203 -58.8229 38.9534C-52.5011 38.7987 -46.7814 35.7296 -42.4654 31.2734C-40.9702 29.7295 -39.6994 27.9183 -38.6014 26.0744C-38.0793 25.1977 -37.7045 23.8964 -36.8699 23.2607C-35.9826 22.5847 -32.3919 22.7903 -31.2978 23.1017ZM-38.985 35.9841L-34.1342 30.0383L-30.5539 22.8537C-22.8311 24.2862 -13.8627 23.1141 -6.0045 23.1015C-3.62715 23.0978 1.12544 21.8893 3.15977 23.251C5.74318 24.9801 5.50871 31.0672 3.59126 33.2261C2.5732 34.3723 0.651732 34.8334 -0.797053 35.1294C-6.09801 36.2124 -11.5376 35.9841 -16.9154 35.9841H-38.985ZM-215.79 36.4796L-214.426 49.8577L-211.575 59.5197C-229.128 54.8316 -247.493 55.8433 -265.385 53.3584C-270.662 52.6255 -275.907 51.5712 -281.007 50.036C-283.079 49.4125 -285.689 48.9054 -287.454 47.628C-285.032 46.9125 -281.008 46.649 -278.527 47.1325C-278.328 43.8356 -281.301 39.3071 -282.495 36.2318H-272.08C-270.574 36.2318 -268.556 35.8842 -267.121 36.3777C-265.209 37.0348 -263.506 38.935 -261.665 39.8839C-257.248 42.1607 -252.254 43.3564 -247.283 43.4154C-242.13 43.4767 -236.888 42.7466 -232.156 40.614C-229.848 39.5734 -227.802 37.4265 -225.461 36.6254C-222.777 35.7066 -218.627 36.4796 -215.79 36.4796ZM-137.431 36.4796L-134.207 82.5597C-145.374 82.5597 -157.551 83.2623 -168.427 80.3264C-171.642 79.4586 -174.634 77.6576 -177.602 76.1851C-182.468 73.7717 -187.371 71.4238 -192.233 68.9951C-196.549 66.8391 -200.934 64.7794 -205.127 62.3882C-206.527 61.5902 -208.786 61.0357 -209.751 59.7022C-214.101 53.6911 -214.302 43.5558 -214.302 36.4796L-137.431 36.4796ZM-135.587 36.6291C-134.398 36.0261 -132.051 36.4796 -130.735 36.4796H-118.833H-93.0432C-89.474 36.4796 -84.561 35.5973 -81.1405 36.6067C-79.252 37.164 -77.67 39.0556 -75.933 39.9994C-72.8487 41.6753 -67.5626 43.0051 -65.9456 46.3893C-64.2228 49.995 -67.9854 54.6134 -70.0138 57.29C-74.1151 62.7017 -78.8249 67.6117 -83.6202 72.4023C-86.7196 75.4986 -90.3497 79.1163 -94.2831 81.1429C-96.6511 82.3629 -99.8906 81.8614 -102.466 82.1063C-109.486 82.7737 -116.486 82.8075 -123.544 82.8075H-130.239C-130.952 82.8072 -132.2 83.0088 -132.712 82.3758C-133.461 81.4511 -133.171 78.5347 -133.225 77.3571C-133.419 73.0843 -133.595 68.7334 -134.001 64.4745C-134.675 57.3941 -135.931 50.2951 -135.943 43.1686C-135.943 41.8512 -137.007 37.3493 -135.587 36.6291ZM-5.26058 49.3622L2.92255 48.3712C2.92218 52.2341 0.152701 53.6063 -3.27677 54.6671C-9.05525 56.4545 -14.9752 57.3265 -20.8829 58.5296C-29.4733 60.2791 -37.4353 64.6102 -45.4323 68.0855C-60.4646 74.6183 -75.4181 80.6076 -92.0514 81.321C-89.631 78.188 -85.409 75.5983 -82.4609 72.8701C-77.784 68.5419 -73.5372 63.5635 -69.5684 58.5897C-67.1819 55.5988 -62.7553 50.282 -64.7169 46.1416C-65.5153 44.4562 -67.1356 43.567 -68.4938 42.4254C-67.1822 42.2307 -65.8546 42.8073 -64.5263 42.8987C-60.9329 43.146 -57.1798 43.261 -53.6154 42.5963C-50.1906 41.9576 -47.0186 40.7524 -43.9445 39.1415C-42.5502 38.4109 -41.2321 37.0502 -39.7289 36.6067C-38.0357 36.1071 -35.7827 36.4796 -34.0255 36.4796H-22.3708H-11.2119C-10.1889 36.4796 -7.9884 36.0678 -7.14606 36.7342C-6.45153 37.2837 -6.57302 39.3676 -6.50048 40.1957C-6.23766 43.194 -5.96544 46.4385 -5.26058 49.3622ZM-36.7532 42.3088C-39.4946 42.9421 -41.0078 46.3196 -39.1352 48.6083C-37.7684 50.2788 -35.5308 50.6456 -33.5296 50.0909C-30.7741 49.3272 -29.5643 45.9206 -31.4362 43.71C-32.6936 42.225 -34.9307 41.8878 -36.7532 42.3088ZM-152.282 44.5913C-153.813 44.9195 -153.904 47.6365 -152.524 48.2217C-150.799 48.9531 -144.644 48.9531 -142.919 48.2217C-141.62 47.671 -141.607 45.1952 -142.941 44.6729C-143.74 44.3604 -144.778 44.6446 -145.613 44.6542C-147.667 44.6778 -150.297 44.1657 -152.282 44.5913ZM-83.5868 44.5553C-84.9937 44.9847 -85.1081 47.5611 -83.799 48.1873C-81.9796 49.0576 -78.4324 48.3712 -76.4287 48.3712C-75.6993 48.3712 -74.6978 48.5375 -74.0181 48.2217C-72.7488 47.6322 -72.9943 45.1428 -74.224 44.6668C-75.0685 44.3398 -76.0505 44.6304 -76.9246 44.6515C-78.9122 44.6993 -81.7127 43.9833 -83.5868 44.5553ZM-233.148 44.9028C-233.299 45.7178 -233.606 46.7943 -233.103 47.5492C-232.493 48.466 -229.087 48.4743 -228.338 47.7262C-226.367 45.7568 -229.274 44.9029 -230.668 44.9028H-233.148ZM-87.0913 79.3391C-81.7526 79.2949 -76.2965 77.6248 -71.221 76.0898C-61.6214 73.1864 -52.8775 69.609 -43.9439 65.0338C-39.4608 62.738 -33.6726 60.766 -29.8094 57.5377C-33.3785 56.9245 -37.3416 57.29 -40.9682 57.29C-45.7235 57.29 -50.6244 56.9574 -55.3506 57.466C-57.894 57.7397 -60.866 56.9863 -63.2858 58.0544C-65.34 58.9611 -67.078 60.9896 -68.7412 62.4541C-72.0798 65.394 -75.436 68.3372 -78.6602 71.4017C-81.238 73.852 -85.321 76.2508 -87.0913 79.3391ZM-206.367 57.7854C-205.63 59.2387 -203.973 60.1733 -202.647 61.0692C-199.618 63.1158 -196.434 64.9381 -193.224 66.6841C-184.473 71.4448 -174.937 77.0491 -165.203 79.4691C-161.233 80.456 -157.106 80.5506 -153.052 80.8475C-148.958 81.1474 -144.759 81.321 -140.654 81.321C-139.719 81.321 -137.339 81.7466 -136.693 80.9238C-135.863 79.8665 -136.756 75.9357 -136.934 74.632C-137.699 69.0521 -137.715 63.3752 -138.422 57.7854L-206.367 57.7854ZM-132.222 58.0332C-130.979 63.2522 -131.456 69.5139 -131.221 74.8797C-131.17 76.029 -131.478 80.1122 -130.585 80.8187C-129.637 81.5692 -127.604 80.8827 -126.519 80.8353C-123.03 80.6827 -119.581 81.0733 -116.104 81.0733C-109.95 81.0733 -102.152 82.0601 -96.2663 79.9864C-89.9183 77.7496 -84.5005 71.2103 -80.6405 65.961C-78.8477 63.5229 -75.9619 60.7646 -75.1885 57.7855L-114.12 57.7855H-126.023L-132.222 58.0332ZM59.4611 119.969C58.6185 116.433 59.2131 112.201 59.2131 108.573V86.2759C59.2131 83.3128 59.7507 79.7525 59.0818 76.8617C58.0117 72.2364 53.2062 73.6075 50.0746 72.2528C48.8777 71.735 48.7887 70.1562 47.3104 69.6754C45.7863 69.1796 43.5547 69.2486 42.1029 69.9373C41.2291 70.3519 40.3979 71.4614 39.3752 71.4226C37.3076 71.3441 35.5193 69.1433 33.4238 68.9257C30.8551 68.6588 26.5303 71.9615 24.2489 73.0851C23.4099 73.4983 22.0529 73.9066 21.528 74.7287C20.7228 75.9897 21.2732 78.8694 21.2732 80.3301V94.4514V147.964V163.572C21.2732 165.027 20.6824 168.149 21.528 169.377C22.1027 170.211 23.6091 170.392 24.4968 170.734C26.8249 171.632 31.4509 174.355 33.9198 173.843C35.7101 173.473 37.4855 171.389 39.3044 171.393C40.1203 171.394 40.9139 172.39 41.607 172.758C43.0078 173.502 45.0233 173.717 46.5665 173.349C48.1828 172.965 48.6779 171.518 50.0488 170.884C53.0237 169.508 56.8393 169.946 58.6481 166.545C60.0924 163.829 59.2131 159.143 59.2131 156.139V132.108C59.2131 129.296 58.2381 124.313 59.3627 121.74C59.8361 120.657 61.4855 120.96 62.4367 120.96C64.129 120.96 66.2429 120.622 67.8824 121.066C69.0898 121.394 69.9388 122.677 71.3072 121.872C72.5839 121.121 71.9443 119.374 70.6187 119.166C69.6231 119.011 68.6475 119.772 67.6442 119.842C65.0209 120.023 61.985 119.421 59.4611 119.969ZM-326.634 100.397C-326.634 94.483 -326.527 88.487 -326.382 82.5597C-326.322 80.1091 -325.455 77.1135 -326.88 74.8835C-329.369 70.9893 -335.453 72.3474 -339.277 72.1312C-341.193 72.0229 -342.541 69.572 -344.736 69.256C-346.134 69.0547 -348.012 69.1896 -349.144 70.124C-349.783 70.6519 -349.967 71.6575 -350.743 72.0052C-353.761 73.3581 -357.652 72.1811 -359.501 75.8707C-360.346 77.5562 -359.862 80.2223 -359.862 82.0643V95.6901V144.743V159.608C-359.862 161.641 -360.364 164.45 -359.386 166.297C-357.459 169.935 -353.731 169.163 -350.697 170.763C-348.637 171.849 -347.954 173.674 -345.232 173.407C-342.779 173.166 -341.241 170.963 -339.032 170.771C-335.602 170.473 -331.215 171.644 -328.144 169.647C-324.542 167.303 -326.138 159.157 -326.138 155.396C-326.138 151.663 -325.158 146.368 -326.217 142.798C-326.617 141.447 -328.73 142.021 -329.057 140.28C-329.509 137.876 -329.113 135.049 -329.113 132.604V117.244V104.609C-329.113 102.707 -328.855 100.741 -326.634 100.397ZM31.1922 83.0552L22.7611 75.6229V75.1275C26.7542 73.2371 31.6086 69.1107 35.9037 71.224C37.4942 72.0066 39.9079 72.573 39.2965 74.8575C39.0077 75.9364 37.6935 76.8355 36.9053 77.5592C34.9723 79.334 32.9105 81.0706 31.1922 83.0552ZM-346.967 70.5056C-345.119 70.1246 -342.4 70.676 -341.662 72.651C-341.163 73.9847 -341.512 75.9476 -341.512 77.3571C-341.512 81.0856 -341.878 85.0552 -341.441 88.7533C-340.63 95.6201 -341.264 102.894 -341.264 109.811V149.946C-341.264 153.555 -341.489 157.246 -341.242 160.846C-341.059 163.51 -340.37 167.113 -341.095 169.723C-341.496 171.168 -343.391 171.97 -344.736 172.168C-346.015 172.356 -347.739 172.254 -348.449 170.978C-349.139 169.736 -348.703 167.435 -348.703 166.049V154.157V92.9649V75.8707C-348.703 74.0333 -349.367 71.0005 -346.967 70.5056ZM44.8307 70.5142C45.8564 70.4513 47.4002 70.6467 47.8702 71.7059C48.4822 73.085 48.0543 75.3739 48.0543 76.8617V89.0011V150.194V167.04C48.0543 169.03 48.5578 172.003 45.8225 172.228C44.138 172.367 41.8204 172.159 40.9075 170.485C40.2044 169.196 40.6151 166.982 40.6151 165.554V153.91V92.4695V79.5868C40.6151 77.6477 40.248 75.2798 40.719 73.3933C41.1832 71.5337 43.0478 70.6236 44.8307 70.5142ZM-350.191 73.1455V138.302V158.865L-349.943 169.27C-352.627 169.947 -357.396 168.018 -358.347 165.305C-358.927 163.652 -358.622 161.584 -358.622 159.856V149.202V93.9558V80.8254C-358.622 79.0367 -358.917 76.8359 -357.574 75.4217C-355.622 73.3665 -352.69 73.7398 -350.191 73.1455ZM-327.378 77.357L-340.024 77.6047V73.3931C-335.846 73.0637 -328.621 72.0164 -327.378 77.357ZM49.5421 169.765L49.2942 169.517L49.5421 155.644V129.383V93.4603L49.2942 73.6409C51.6602 72.9909 56.3854 73.888 57.475 76.3882C58.1089 77.8429 57.7228 80.0103 57.7253 81.5686V92.7171V149.946C57.7253 153.652 57.5809 157.391 57.7438 161.094C57.8276 162.999 58.1834 165.196 56.8835 166.781C55.217 168.815 51.9794 169.293 49.5421 169.765ZM22.761 76.1183L30.4482 83.3028V83.7983L22.761 90.7351L22.5129 80.8254L22.761 76.1183ZM39.3752 76.1183V91.2306C36.4918 89.695 33.0654 85.9597 31.1921 83.3028L39.3752 76.1183ZM-315.723 165.801H-307.044V142.761V95.69V82.5596L-307.13 77.7542L-309.028 77.357L-315.358 77.5065L-315.723 82.5596V98.6629V165.801ZM-289.19 77.6047C-290.615 85.1627 -291.403 92.8369 -292.814 100.397C-293.143 102.159 -294.724 103.434 -294.964 105.104C-295.568 109.32 -294.893 114.202 -294.893 118.482C-294.893 124.825 -295.496 131.493 -294.867 137.806C-294.688 139.604 -293.216 140.98 -292.827 142.761C-291.25 149.972 -289.263 158.191 -288.942 165.553H-237.611C-229.214 165.553 -220.427 166.305 -212.07 165.528C-209.202 165.261 -206.272 164.126 -203.433 163.576C-193.364 161.627 -183.364 158.944 -173.243 157.308C-167.317 156.35 -161.025 156.639 -155.036 156.377C-144.789 155.929 -134.563 155.594 -124.287 155.644C-109.945 155.713 -95.1684 155.562 -80.8918 156.925C-62.4984 158.68 -44.4701 163.923 -26.0897 165.759C-16.135 166.753 -5.59813 165.801 4.4111 165.801C5.41769 158.013 7.32971 150.348 8.08859 142.513C8.74785 135.708 8.13099 128.543 8.13099 121.703C8.13099 114.268 8.71593 106.547 7.92417 99.1584C7.36214 93.9134 6.58638 88.7256 5.55211 83.5506C5.26347 82.1062 5.26504 79.0924 4.19885 78.0081C3.34498 77.1397 0.357171 77.6047 -0.796054 77.6047H-15.1785C-36.073 77.6047 -57.0275 83.1188 -77.6678 86.1714C-82.7841 86.928 -87.8935 86.8035 -93.0422 87.0287C-104.776 87.542 -116.487 87.7433 -128.254 87.7622C-139.307 87.78 -150.433 87.7972 -161.483 87.0411C-165.586 86.7604 -169.805 87.0788 -173.882 86.4501C-183.761 84.9262 -193.656 81.8187 -203.39 79.5286C-205.905 78.9369 -208.517 77.9575 -211.078 77.6504C-218.059 76.8131 -225.616 77.6047 -232.651 77.6047C-251.425 77.6047 -270.443 78.4938 -289.19 77.6047ZM-327.377 78.1002L-327.625 80.8254H-327.873V78.3479H-339.776V89.2486L-340.272 80.8254L-339.697 78.1778L-336.056 78.1002H-327.377ZM-307.539 165.306H-315.227V77.8525C-313.581 77.8525 -309.241 77.0749 -307.937 78.1071C-306.98 78.8639 -307.539 82.1816 -307.539 83.3028V99.1584V165.306ZM-355.394 78.2619C-358.255 79.187 -357.845 87.8947 -353.415 86.6292C-350.268 85.7301 -350.604 76.7132 -355.394 78.2619ZM-345.714 78.5787C-347.266 78.9992 -346.532 81.2247 -344.998 80.6711C-343.559 80.152 -344.316 78.2001 -345.714 78.5787ZM52.7771 78.5319C51.4073 79.0896 51.5268 80.5871 51.5264 81.8164C51.5256 84.301 51.7999 88.0869 55.483 86.5873C56.9308 85.9979 56.7337 84.3369 56.7338 83.0551C56.7339 80.5467 56.3855 77.0628 52.7771 78.5319ZM-354.899 78.7033C-351.443 77.7412 -351.432 85.5621 -353.668 86.1674C-357.199 87.1228 -357.171 79.3358 -354.899 78.7033ZM44.1428 78.7808C42.6835 79.4335 43.9951 81.193 45.2893 80.6721C46.7886 80.0686 45.5107 78.1689 44.1428 78.7808ZM53.7581 78.7226C57.1794 78.1421 57.2588 85.7643 54.745 86.219C51.1963 86.8609 51.2685 79.1451 53.7581 78.7226ZM-212.319 78.8435V79.0912L-263.153 94.7472L-282.247 100.61L-292.414 103.618C-290.294 98.2022 -289.971 91.5419 -289.158 85.7803C-288.957 84.3561 -288.958 80.0062 -287.801 79.0981C-286.772 78.2902 -283.762 78.8435 -282.495 78.8435H-268.113L-212.319 78.8435ZM-25.6204 78.9509C-24.3 79.0033 -23.3291 81.307 -22.775 82.3119C-20.6955 86.0831 -19.2202 90.0035 -18.2981 94.2035C-16.2597 103.489 -17.1635 113.483 -17.1635 122.942C-17.1635 130.788 -16.3205 139.263 -18.0127 146.973C-19.0403 151.655 -20.4464 156.318 -22.6456 160.599C-23.3359 161.942 -24.0438 164.492 -25.8435 164.526C-29.6447 164.597 -33.7544 163.29 -37.4973 162.689C-46.8347 161.191 -56.1615 159.566 -65.5183 158.188C-68.8308 157.701 -72.1199 157.094 -75.4372 156.635C-76.4495 156.495 -78.6995 156.486 -79.4203 155.708C-80.1707 154.897 -80.306 152.977 -80.5395 151.928C-81.2478 148.741 -82.0307 145.506 -82.419 142.266C-83.1653 136.038 -82.8764 129.706 -82.8764 123.437C-82.8764 116.677 -83.1233 109.858 -82.6506 103.122C-82.3767 99.2181 -81.457 95.5228 -80.559 91.7261C-80.2932 90.6023 -80.2915 88.5489 -79.2784 87.8029C-78.2937 87.0779 -76.3673 87.1427 -75.1893 86.9226C-71.6606 86.2635 -68.0734 85.7641 -64.5264 85.2167C-55.6779 83.8514 -46.8228 82.4447 -37.9932 80.9653C-34.124 80.3171 -29.5354 78.7956 -25.6204 78.9509ZM3.41835 164.562C-3.23713 165.797 -10.8898 164.81 -17.6594 164.81C-19.6434 164.81 -21.9296 164.434 -23.8588 164.81C-24.0164 162.452 -21.3782 159.128 -20.4864 156.882C-18.4461 151.746 -17.2324 146.514 -16.7096 141.027C-15.953 133.084 -16.6672 124.73 -16.6672 116.748C-16.6672 109.945 -15.946 102.634 -17.3283 95.9377C-18.0999 92.1993 -19.1753 88.4859 -20.8292 85.037C-21.7986 83.0155 -23.5504 80.9853 -24.1064 78.8435H-4.26856C-2.6207 78.8435 1.67185 78.0732 2.99023 79.0981C4.10536 79.965 4.09787 83.2269 4.36099 84.5416C5.45128 89.9888 6.50929 95.5821 6.64594 101.14C6.9569 113.793 7.73533 126.89 6.86807 139.54C6.29391 147.916 3.77692 156.222 3.41835 164.562ZM-212.566 79.8344C-215.191 86.9956 -220.4 93.059 -222.227 100.645C-223.559 106.175 -222.733 112.573 -222.733 118.235C-222.733 126.737 -224.091 136.534 -221.633 144.743C-219.557 151.672 -215.067 157.288 -212.318 163.819C-218.769 162.947 -225.724 159.717 -231.908 157.644C-244.573 153.4 -257.412 149.669 -270.096 145.486C-275.618 143.665 -281.15 141.873 -286.71 140.176C-288.994 139.479 -291.287 138.403 -293.654 138.054V123.437C-292.225 123.499 -289.723 124.877 -288.456 124.227C-285.092 122.501 -284.619 117.408 -288.704 116.178C-289.974 115.795 -292.18 116.852 -293.406 117.244L-293.654 107.829L-293.079 104.573L-285.966 102.254L-269.104 97.0713L-229.429 84.8585L-212.566 79.8344ZM-213.062 82.0641C-213.501 86.4624 -215.315 90.7389 -215.748 95.1945C-216.387 101.768 -215.88 108.418 -216.042 115.014C-216.295 125.37 -217.26 136.157 -216.244 146.477C-215.735 151.649 -213.969 156.558 -212.814 161.59H-213.062C-217.016 155.136 -220.934 147.833 -222.157 140.284C-223.338 132.994 -222.237 124.636 -222.237 117.244C-222.237 112.583 -222.821 107.487 -222.163 102.875C-221.514 98.3264 -219.259 94.1049 -217.354 89.9919C-216.153 87.3972 -214.892 84.2703 -213.062 82.0641ZM38.3829 91.4783H23.2565L28.712 85.7803L30.9437 84.2743L33.1754 86.028L38.3829 91.4783ZM-46.672 84.6467C-54.4447 85.6663 -62.1131 87.1318 -69.7336 89.0323C-71.628 89.5047 -76.1116 89.6912 -77.4562 91.1314C-78.2195 91.949 -78.296 93.8841 -78.5118 94.9467C-79.1588 98.1343 -79.8992 101.337 -79.9004 104.609V138.302C-79.9004 141.715 -79.3716 145.104 -78.7658 148.459C-78.5803 149.487 -78.6032 151.456 -77.7707 152.192C-76.9797 152.891 -75.4381 152.962 -74.4451 153.167C-71.9582 153.682 -69.4817 154.302 -67.0059 154.871C-58.2382 156.885 -49.4855 158.617 -40.4726 158.617C-38.174 158.617 -35.5616 158.965 -33.296 158.58C-31.609 158.293 -32.5375 154.429 -32.5375 153.166V135.824V97.4242C-32.5375 94.2887 -32.6067 91.1445 -32.5375 88.0099C-32.5182 87.1657 -31.97 85.4331 -32.7313 84.7962C-33.4974 84.1553 -35.5654 84.5415 -36.5087 84.5415C-39.8407 84.5415 -43.3708 84.2132 -46.6757 84.6467M-81.144 87.7622L-84.1099 103.122L-84.1196 124.676L-84.0772 140.036L-81.1436 155.891L-90.5667 155.386L-108.669 154.9L-145.369 154.663L-173.142 156.139L-175.103 142.266L-175.126 124.18L-175.116 101.636L-173.142 87.7622L-141.153 88.9973L-104.701 88.5091L-81.144 87.7622ZM-339.78 89.9919V91.2306H-340.028L-339.78 89.9919ZM-338.292 91.7261V151.928H-339.78L-340.028 91.7261H-338.292ZM-337.222 91.8767C-335.562 91.0953 -335.565 93.2208 -335.565 94.2035V103.865V140.284V148.955C-335.565 149.74 -335.266 151.316 -336.139 151.743C-337.676 152.494 -337.794 150.688 -337.796 149.698V141.027V104.856V95.1945C-337.796 94.3487 -338.171 92.3238 -337.222 91.8767ZM-335.069 151.928V91.7261L-333.092 92.1233L-332.837 95.1945V102.875V139.293V148.211L-333.092 151.53L-335.069 151.928ZM-327.878 91.7261V99.4061C-331.276 100.75 -330.605 105.127 -330.605 108.077V133.842C-330.605 136.949 -331.749 142.263 -327.63 143.009L-327.382 151.68C-328.315 151.955 -331.391 152.436 -332.09 151.528C-332.66 150.787 -332.341 149.094 -332.341 148.211V139.788V103.37V94.9467C-332.341 94.1661 -332.643 92.534 -331.943 91.9807C-331.098 91.3118 -328.911 91.7261 -327.878 91.7261ZM27.7165 92.4693C28.7129 95.837 27.9645 100.353 27.9645 103.865C24.8959 103.902 25.9807 108.014 25.9807 110.307V131.613C25.9807 133.997 24.7811 139.007 27.9645 139.045V151.184L22.9067 150.93L22.509 147.22V136.815V92.7171L27.7165 92.4693ZM35.8997 92.4693V106.591V135.081L36.1476 150.937L28.4604 151.184V139.045C31.1468 138.84 30.1963 134.588 30.1963 132.604V111.298C30.1963 109.219 31.2541 104.078 28.4604 103.865V95.69L28.8581 92.7239L35.8997 92.4693ZM39.1233 92.4693L39.3713 98.9106V111.05V151.184H36.6436V106.343V96.4332L36.8984 92.8667L39.1233 92.4693ZM-152.808 100.502C-155.953 100.92 -158.851 101.891 -160.487 104.856C-161.837 107.305 -161.487 110.09 -161.487 112.784V127.649C-161.487 131.43 -162.417 136.529 -160.089 139.788C-156.968 144.157 -151.314 143.504 -146.609 143.504C-144.662 143.504 -142.587 143.705 -140.658 143.43C-129.883 141.892 -132.474 129.684 -132.474 121.703C-132.474 116.977 -131.107 109.684 -133.159 105.352C-136.194 98.9458 -146.897 99.7173 -152.808 100.502ZM-152.808 100.963C-147.17 100.29 -136.85 99.404 -133.843 105.352C-131.607 109.773 -132.97 117.095 -132.97 121.951C-132.97 128.436 -130.445 141.489 -139.666 142.716C-145.294 143.466 -156.161 144.778 -159.694 139.251C-161.742 136.045 -160.991 131.517 -160.991 127.897V114.518C-160.991 107.949 -160.762 101.914 -152.808 100.963ZM29.7003 104.609V138.302L26.7247 138.549L26.4767 127.649V104.609H29.7003ZM-346.291 106.845C-347.426 107.771 -345.698 109.421 -344.604 108.423C-343.485 107.402 -345.325 106.058 -346.291 106.845ZM44.1396 106.778C42.702 107.4 43.9752 109.398 45.2861 108.753C46.7601 108.027 45.5067 106.188 44.1396 106.778ZM-101.23 115.262C-99.9615 117.862 -96.199 120.122 -94.0384 122.021C-93.0059 122.929 -92.2045 123.9 -90.8148 124.18L-97.1569 118.481L-101.23 115.262ZM-293.161 122.198V118.235C-291.893 117.944 -289.926 116.915 -288.701 117.651C-286.507 118.968 -286.397 122.247 -289.197 122.997C-290.365 123.31 -292.019 122.46 -293.161 122.198ZM-345.483 134.577C-346.907 134.665 -346.964 136.742 -345.483 136.742C-343.9 136.742 -343.847 134.476 -345.483 134.577ZM44.1394 134.773C42.6714 135.405 43.9247 137.411 45.2859 136.726C46.7535 135.986 45.4959 134.189 44.1394 134.773ZM-292.665 138.549L-282.994 141.777L-264.644 147.653L-213.314 164.067V164.315H-266.628H-281.259C-282.876 164.315 -285.898 164.901 -287.35 164.165C-288.507 163.579 -288.551 159.57 -288.76 158.369C-289.649 153.253 -290.714 148.149 -291.458 143.009C-291.66 141.614 -293.02 139.847 -292.665 138.549ZM38.8753 152.175C37.7525 154.581 35.0252 156.277 33.1719 158.121C32.6089 158.682 31.8186 159.786 30.9412 159.808C30.0305 159.831 29.1801 158.642 28.5971 158.069C26.8983 156.399 23.7428 154.47 23.005 152.175H38.8753ZM-327.63 152.423L-327.382 164.562C-330.752 165.558 -335.272 164.81 -338.788 164.81V164.562H-327.878C-327.878 161.147 -328.946 155.558 -327.63 152.423ZM23.005 153.166C25.293 155.452 29.0691 157.9 30.4443 160.846L22.7571 167.783L22.509 157.13L23.005 153.166ZM39.3713 153.166V168.031C37.0875 166.967 32.1266 162.561 31.4361 160.103L39.3713 153.166ZM-355.154 156.797C-358.234 157.737 -357.959 166.625 -353.42 165.246C-350.308 164.301 -350.734 155.449 -355.154 156.797ZM53.011 157.066C50.0712 158.205 50.6669 166.946 55.237 165.342C58.1397 164.323 57.6542 155.268 53.011 157.066ZM-353.672 157.363C-351.529 157.789 -351.3 165.432 -354.896 164.753C-357.188 164.321 -357.218 156.658 -353.672 157.363ZM53.2723 157.505C57.1758 156.245 57.2879 164.13 54.9792 164.855C51.2371 166.031 51.3118 158.138 53.2723 157.505ZM-291.921 196.274V196.521L-280.019 197.512C-281.23 199.638 -281.971 204.884 -284.054 206.176C-285.124 206.84 -286.795 206.244 -287.954 206.193C-290.882 206.065 -295.99 205.301 -298.593 206.779C-301.31 208.32 -300.552 212.751 -300.923 215.35C-301.108 216.649 -301.518 217.826 -300.631 218.991C-299.435 220.56 -296.732 220.902 -294.897 221.048L-291.511 227.737L-289.857 229.817L-284.482 229.967H-271.588C-269.657 214.786 -258.045 203.063 -242.079 205.549C-234.203 206.775 -227.695 211.189 -224.004 218.323C-222.558 221.117 -221.718 223.942 -221.031 226.994C-220.837 227.851 -220.974 229.575 -219.952 229.888C-216.424 230.969 -211.064 229.967 -207.362 229.967H-179.093L-85.8553 229.967C-84.3855 222.852 -81.4313 216.121 -75.9364 211.18C-67.754 203.824 -54.0053 203.03 -45.6128 210.523C-41.6657 214.047 -38.9776 218.389 -37.0549 223.278C-36.5276 224.618 -35.965 229.203 -34.6949 229.817C-32.6017 230.83 -28.5928 229.827 -26.3417 229.729C-19.772 229.441 -13.0203 230.555 -6.50382 229.925C-4.1023 229.692 -2.27642 228.83 -1.30114 226.498C-0.756742 225.197 -0.644122 223.433 0.35236 222.365C1.85739 220.752 4.18022 221.488 5.50856 219.066C6.98956 216.365 6.75878 210.572 4.14561 208.571C1.7031 206.701 -2.52905 206.245 -5.51187 206.183L-4.02403 195.035L3.66311 196.026C7.70922 188.809 -5.45429 186.482 -9.9754 185.459C-15.021 184.319 -20.459 184.014 -25.3498 182.291C-41.2985 176.673 -56.0409 167.019 -72.7128 163.571C-93.1341 159.347 -113.499 159.328 -134.21 159.36C-145.788 159.378 -158.722 158.479 -169.918 161.945C-173.098 162.93 -176.097 164.855 -179.093 166.291C-185.396 169.31 -191.757 172.278 -197.939 175.537C-204.19 178.832 -210.074 182.237 -217.033 183.781C-241.545 189.22 -269.113 183.793 -291.921 196.274ZM-137.682 206.679L-146.361 206.431H-162.479H-214.306C-214.306 200.722 -213.79 195.086 -212.179 189.585C-211.57 187.504 -210.997 184.933 -209.603 183.211C-208.673 182.064 -206.669 181.515 -205.379 180.849C-202.312 179.268 -199.291 177.599 -196.204 176.057C-190.921 173.42 -185.612 170.849 -180.333 168.212C-176.819 166.457 -173.176 164.228 -169.422 163.048C-165.8 161.91 -162.006 161.656 -158.264 161.3C-152.468 160.749 -146.724 160.737 -140.905 160.595C-139.436 160.559 -135.844 159.604 -134.608 160.606C-133.943 161.145 -134.429 162.596 -134.455 163.324C-134.552 165.966 -134.828 168.611 -134.944 171.252C-135.298 179.314 -136.379 187.256 -137.144 195.283C-137.488 198.891 -136.657 203.215 -137.682 206.679ZM-135.946 206.679C-136.651 203.719 -135.926 200.268 -135.72 197.265C-135.173 189.285 -133.766 181.236 -133.714 173.234C-133.694 170.152 -133.509 166.881 -133.147 163.819C-133.054 163.025 -133.229 161.416 -132.715 160.783C-132.137 160.069 -130.551 160.351 -129.747 160.351H-121.812C-116.077 160.351 -110.413 160.587 -104.701 160.837C-101.771 160.965 -97.8013 160.558 -95.0304 161.544C-92.646 162.393 -90.4752 164.544 -88.5831 166.155C-81.3765 172.289 -74.5959 179.449 -69.0309 187.107C-67.1075 189.754 -64.0235 194.271 -66.3919 197.509C-68.5065 200.4 -73.3709 201.723 -76.4324 203.401C-77.9792 204.249 -79.4719 206.02 -81.1475 206.51C-82.3945 206.874 -84.0589 206.431 -85.3594 206.431H-95.5263H-122.555C-126.793 206.431 -131.82 205.697 -135.946 206.679ZM39.3713 170.013L33.6679 172.589L30.1963 171.578L22.7571 168.774C24.2336 166.68 26.4069 165.126 28.2125 163.324C28.8465 162.691 29.7327 161.435 30.6922 161.322C31.6374 161.211 32.5375 162.435 33.1488 163.002C35.0934 164.805 38.9523 167.3 39.3713 170.013ZM-206.37 185.373H-138.426L-136.442 161.837C-146.111 161.837 -156.507 161.424 -165.951 163.793C-174.502 165.939 -183.041 170.975 -190.748 175.139C-194.52 177.177 -198.314 179.183 -201.907 181.532C-203.499 182.573 -205.438 183.665 -206.37 185.373ZM2.91919 194.787C1.17953 194.567 -3.44565 193.109 -4.93713 194.054C-5.81719 194.612 -5.68789 196.593 -5.79836 197.512C-6.16593 200.571 -6.61317 203.623 -6.99971 206.679H-28.8214C-32.1788 206.679 -36.2444 207.307 -39.5264 206.584C-42.0658 206.025 -44.6517 203.351 -47.1714 202.332C-53.7456 199.671 -61.6492 199.21 -68.4972 200.981C-67.3532 198.965 -64.8292 198.434 -64.3632 195.778C-63.6299 191.6 -67.3467 187.39 -69.7364 184.382C-73.7132 179.377 -77.9284 174.388 -82.6414 170.051C-85.2964 167.608 -90.0069 164.897 -91.8067 161.837C-74.9372 162.185 -59.6368 168.916 -44.4438 175.431C-36.396 178.882 -28.5622 183.106 -19.8944 184.726C-13.9183 185.843 -7.76782 186.736 -2.0403 188.855C0.817624 189.912 3.31064 191.473 2.91919 194.787ZM-131.978 185.373H-75.1925C-75.84 182.122 -79.3635 178.736 -81.3918 176.206C-85.237 171.412 -89.883 165.595 -95.7743 163.265C-101.726 160.91 -109.824 162.085 -116.108 162.085C-119.5 162.085 -122.892 162.326 -126.271 162.206C-127.376 162.166 -129.667 161.61 -130.589 162.34C-131.47 163.037 -131.203 167.144 -131.231 168.279C-131.373 173.982 -131.978 179.659 -131.978 185.373ZM-346.149 162.835C-347.405 163.674 -345.961 165.244 -344.778 164.554C-343.344 163.72 -344.92 162.015 -346.149 162.835ZM44.1197 162.84C42.6247 163.664 44.1828 165.511 45.4918 164.693C46.7949 163.879 45.3332 162.171 44.1197 162.84ZM-87.0952 163.819C-85.9665 165.749 -83.5217 167.259 -81.8878 168.78C-77.8107 172.575 -73.6791 176.321 -69.4891 179.993C-67.602 181.647 -65.2401 184.496 -62.7938 185.247C-59.4947 186.26 -55.2979 185.621 -51.883 185.621H-30.0613C-31.2172 184.277 -33.206 183.617 -34.7728 182.829C-37.4336 181.49 -40.0866 180.081 -42.7079 178.664C-52.0998 173.589 -61.7046 169.664 -71.9688 166.757C-76.8654 165.371 -81.9827 163.819 -87.0952 163.819ZM-339.78 169.517C-339.78 168.568 -340.208 166.214 -339.383 165.56C-338.775 165.08 -337.526 165.306 -336.805 165.306H-330.357C-329.649 165.306 -328.372 165.074 -327.783 165.56C-326.98 166.223 -327.907 167.696 -328.429 168.226C-329.979 169.798 -332.56 169.517 -334.573 169.517H-339.78ZM-211.33 183.639C-213.556 189.059 -214.784 194.428 -215.475 200.238C-215.726 202.347 -215.395 204.636 -215.793 206.679C-218.863 205.949 -222.549 207.369 -225.464 206.466C-227.637 205.794 -229.55 203.693 -231.664 202.722C-237.104 200.224 -243.064 199.357 -249.022 199.764C-253.227 200.052 -257.692 201.008 -261.421 203.04C-263.328 204.08 -265.109 206.027 -267.124 206.746C-268.569 207.262 -270.565 206.927 -272.084 206.927H-282.25L-278.531 196.026L-287.458 195.778L-282.746 193.584L-268.612 190.266L-233.152 187.065L-219.513 185.469L-211.33 183.639ZM-152.882 195.042C-153.866 195.785 -153.659 197.874 -152.527 198.354C-150.616 199.164 -147.189 198.503 -145.121 198.503C-144.388 198.503 -143.192 198.72 -142.568 198.249C-141.584 197.506 -141.791 195.416 -142.922 194.937C-144.833 194.127 -148.26 194.787 -150.328 194.787C-151.061 194.787 -152.258 194.571 -152.882 195.042ZM-84.0129 195.042C-84.993 195.706 -84.9285 197.855 -83.8151 198.354C-81.9059 199.209 -78.271 198.503 -76.1843 198.503C-75.4732 198.503 -74.4331 198.676 -73.8122 198.249C-72.8944 197.618 -72.9632 195.408 -74.0093 194.937C-75.9129 194.079 -79.5574 194.787 -81.6398 194.787C-82.3549 194.787 -83.3868 194.617 -84.0129 195.042ZM-233.152 195.035C-233.303 195.85 -233.61 196.927 -233.107 197.682C-232.511 198.577 -229.145 198.599 -228.341 197.964C-226.117 196.204 -229.39 195.035 -230.672 195.035H-233.152ZM-217.281 220.057C-218.425 220.057 -220.616 220.48 -221.587 219.803C-222.799 218.956 -223.573 216.359 -224.397 215.102C-226.073 212.546 -228.348 210.146 -230.92 208.473C-240.027 202.548 -253.738 202.394 -262.412 209.284C-266.154 212.256 -268.453 216.138 -270.595 220.305L-274.563 220.057C-272.389 212.404 -267.25 206.091 -259.932 202.792C-244.675 195.916 -221.429 202.151 -217.281 220.057ZM-31.3009 220.057C-32.79 220.057 -35.3019 220.545 -36.6595 219.908C-37.624 219.455 -38.1905 217.711 -38.7056 216.836C-39.8111 214.959 -41.1899 213.192 -42.7113 211.634C-46.8982 207.346 -52.4345 204.231 -58.578 204.202C-65.6466 204.168 -71.7431 205.834 -77.1536 210.578C-79.0377 212.23 -80.6555 214.225 -81.9891 216.341C-82.6207 217.343 -83.1946 219.154 -84.2159 219.803C-85.214 220.436 -87.1895 220.057 -88.3348 220.057C-87.7275 217.502 -86.1382 215.041 -84.6976 212.873C-72.2014 194.064 -37.5292 196.836 -31.3009 220.057ZM-246.294 207.074C-251.783 207.272 -257.433 209.207 -261.378 213.162C-268.851 220.655 -267.552 232.92 -258.941 238.942C-254.318 242.176 -249.097 243.082 -243.566 242.84C-240.927 242.724 -238.263 241.89 -235.879 240.791C-233.696 239.784 -231.61 238.326 -229.991 236.547C-228.496 234.905 -227.246 233.025 -226.412 230.958C-221.236 218.132 -233.91 206.627 -246.294 207.074ZM-214.057 220.057H-216.785C-218.016 214.742 -221.724 211.424 -224.72 207.175L-218.273 207.171L-215.943 207.191L-215.402 210.395L-214.057 220.057ZM-137.682 206.927L-135.946 220.057L-212.818 220.057L-214.305 207.174H-163.223H-146.857L-137.682 206.927ZM-81.6395 207.422C-84.2752 209.719 -86.1702 212.802 -87.8189 215.845C-88.3736 216.869 -89.0933 219.397 -90.1682 219.908C-92.4991 221.015 -97.4029 220.057 -99.9895 220.057H-124.043H-131.482C-132.257 220.057 -133.658 220.316 -134.308 219.802C-134.943 219.301 -134.917 217.59 -135.049 216.836C-135.563 213.912 -136.44 209.847 -135.946 206.927L-122.555 207.174H-96.022L-86.103 207.174L-81.6395 207.422ZM-63.2895 207.281C-66.4712 207.736 -69.4601 208.679 -72.2165 210.352C-81.5482 216.015 -83.8642 228.58 -76.1619 236.652C-71.421 241.621 -63.8097 243.732 -57.0901 242.775C-54.1759 242.36 -51.1708 241.406 -48.659 239.861C-46.5364 238.554 -44.6862 236.912 -43.1787 234.922C-42.0044 233.372 -41.0525 231.582 -40.4856 229.719C-36.3302 216.064 -50.678 205.477 -63.2895 207.281ZM-30.8049 220.057C-32.0769 214.707 -35.9829 211.437 -38.988 207.175C-28.6562 207.175 -18.3231 207.125 -7.99137 207.175C-4.83908 207.19 1.56244 207.304 3.73097 209.994C5.3702 212.027 5.952 219.143 2.67035 219.979C-0.487969 220.783 -4.72853 220.057 -7.99137 220.057H-30.8049ZM-267.868 207.422C-270.251 211.23 -274.844 215.132 -274.811 220.057H-289.441C-292.2 220.057 -295.512 220.333 -298.119 219.262C-298.812 218.978 -299.523 218.559 -299.749 217.802C-300.061 216.749 -299.582 215.642 -299.435 214.607C-299.131 212.477 -300.004 209.286 -297.859 207.854C-295.979 206.599 -291.645 207.422 -289.441 207.422H-267.868ZM-270.843 220.553L-272.827 228.728H-284.73C-285.975 228.728 -288.261 229.164 -289.345 228.474C-291.241 227.266 -292.809 222.774 -293.905 220.801L-286.218 220.553H-270.843ZM-210.586 228.728H-219.513L-221.249 220.553C-219.543 220.553 -215.597 219.816 -214.184 220.807C-213.496 221.29 -213.315 222.531 -213.065 223.278C-212.416 225.222 -211.36 226.865 -210.586 228.728ZM-134.458 228.728L-193.724 228.728H-204.138C-205.454 228.728 -207.398 229.082 -208.601 228.474C-210.978 227.272 -212.214 223.014 -212.322 220.553H-153.552H-140.905L-136.092 220.807L-135.417 223.03L-134.458 228.728ZM-90.3185 220.553C-90.5718 222.242 -91.8114 227.465 -93.2079 228.474C-93.9422 229.004 -95.4134 228.728 -96.2699 228.728H-103.709H-132.97L-134.458 220.801C-130.329 219.581 -124.635 220.553 -120.323 220.553H-90.3185ZM-84.3672 220.801L-87.2345 228.474L-91.5584 228.728C-90.9356 224.574 -89.4124 219.311 -84.3672 220.801ZM-0.0561974 220.553C-1.20087 222.589 -2.08002 226.725 -4.03445 228.052C-6.16065 229.496 -10.2606 228.728 -12.7028 228.728H-34.0286L-36.5083 220.801C-33.0694 219.785 -28.4405 220.553 -24.8535 220.553H-0.0561974Z" fill="#304A6E"/>
</svg>
