<svg width="81" height="72" viewBox="0 0 81 72" fill="none" xmlns="http://www.w3.org/2000/svg">
<rect width="81" height="72" fill="#1A1E26"/>
<rect x="-368" y="-161" width="980" height="753" rx="4" fill="white"/>
<path d="M242.811 111.973C241.83 107.063 240.437 102.592 236.888 98.8727C230.172 91.8342 218.752 91.979 212.29 99.3274C207.619 104.639 206 112.075 207.375 118.916C208 122.025 209.233 125.08 211.182 127.596C212.614 129.444 214.143 131.037 216.183 132.224C227.853 139.018 240.426 130.372 242.479 117.925C242.805 115.951 243.214 113.987 242.811 111.973ZM242.763 297.209C241.321 291.455 239.767 286.215 234.763 282.458C226.609 276.338 215.602 279.2 210.259 287.538C206.919 292.751 206.124 299.465 207.604 305.393C209.601 313.383 216.415 320.454 225.101 320.239C234.386 320.009 240.813 312.253 242.423 303.657C242.816 301.56 243.297 299.34 242.763 297.209ZM206.273 76.5129L197.106 79.9846L196.633 72.0494L196.115 68.0818C184.296 92.3092 189.31 119.449 183.261 144.954C182.05 150.059 179.408 154.492 176.985 159.088C173.375 165.936 170.039 172.951 166.668 179.918C165.112 183.134 163.017 186.424 161.949 189.837C158.358 201.317 159.202 214.648 159.202 226.537C159.202 241.466 159.411 256.08 160.894 270.924C161.735 279.34 162.924 288.276 165.938 296.217C170.89 309.262 177.9 321.659 182.269 334.901C184.033 340.248 184.385 346.05 185.682 351.516C186.969 356.945 188.577 365.845 195.868 363.914L194.877 355.979C197.465 355.341 200.171 355.225 202.804 354.844C203.635 354.723 205.16 354.206 205.841 354.89C206.848 355.9 206.596 359.271 207.017 360.69C208.45 365.521 213.337 367.69 218.164 365.866C219.323 365.428 220.651 364.555 221.186 363.395C221.726 362.223 221.421 360.819 222.651 360.049C224.584 358.838 227.074 359.03 228.622 357.147C230.267 355.145 229.808 352.188 229.808 349.78L229.808 332.669C229.808 330.696 230.51 327.092 229.659 325.305C229.053 324.032 224.464 323.463 223.119 322.951C218.555 321.213 214.061 318.469 210.774 314.815C202.924 306.087 203.634 292.031 211.498 283.571C216.303 278.4 223.006 275.552 229.808 274.148V180.91V152.641C229.808 148.939 230.81 143.58 229.73 140.051C229.415 139.024 227.699 139.133 226.835 138.981C223.981 138.479 221.241 137.506 218.66 136.213C211.893 132.824 206.986 126.697 205.644 119.164C202.725 102.773 213.932 90.4678 229.808 88.4155V75.2729C229.808 73.8296 230.321 71.1464 229.554 69.8827C228.176 67.6138 223.728 66.7887 221.666 65.146C220.034 63.8464 220.647 61.1037 219.113 59.5437C217.952 58.3625 216.604 58.9581 215.192 59.1116C212.507 59.4034 208.407 58.7642 206.704 61.3902C205.839 62.7238 206.025 64.5854 206.025 66.0979C206.025 69.5783 206.273 73.0271 206.273 76.5129ZM228.57 87.1756L220.394 89.1594L220.642 66.3458C222.568 66.956 227.498 69.0533 228.487 70.8622C229.145 72.0656 228.817 74.4163 228.817 75.7689C228.817 79.5819 228.57 83.3754 228.57 87.1756ZM228.817 149.417L223.119 146.902L220.667 145.819L220.394 138.754L228.57 140.49L228.817 149.417ZM228.817 225.545L220.394 224.057C221.685 204.784 220.642 185.108 220.642 165.783C220.642 161.202 221.001 156.446 220.465 151.897C220.359 151.001 219.913 148.009 221.194 147.806C222.062 147.668 223.297 148.279 224.11 148.553C225.53 149.032 227.559 149.773 228.315 151.175C228.894 152.249 228.802 154.4 228.816 155.616C228.855 158.839 228.817 162.064 228.817 165.287V205.707C228.817 212.24 228.243 219.046 228.817 225.545ZM220.394 269.684L220.642 249.35L220.394 225.793L220.642 225.545L228.569 227.033C228.57 236.516 228.817 246.046 228.817 255.55C228.817 258.428 229.899 264.09 228.459 266.64C227.614 268.137 222.048 269.515 220.394 269.684ZM228.569 273.156L220.394 275.388V271.42L228.569 268.444V273.156ZM220.642 359.947V352.011V334.901L220.642 323.494L228.569 325.974L228.569 347.3C228.569 349.758 229.328 353.783 228.005 355.956C226.614 358.24 222.658 358.204 220.642 359.947ZM219.898 85.1919C214.575 85.6571 211.647 90.0089 207.264 92.1351C207.264 84.8501 207.275 77.5658 207.264 70.3135C207.26 68.1105 206.452 63.818 207.781 61.9512C209.107 60.0891 212.533 60.8047 214.448 60.5994C215.429 60.4943 216.419 60.0448 217.417 60.2068C218.243 60.3408 218.73 60.906 219.065 61.6382C220.552 64.8883 219.936 68.8711 219.899 72.2972C219.855 76.4524 220.57 81.1173 219.898 85.1919ZM219.899 142.722C201.927 138.459 195.442 114.564 203.005 99.3264C206.52 92.2441 212.522 87.8422 219.899 85.4398C221.16 90.5853 215.741 91.418 212.466 94.2251C208.52 97.6076 205.772 102.155 204.703 107.261C203.045 115.183 204.371 124.139 209.494 130.571C211.308 132.848 213.473 134.674 215.935 136.218C217.02 136.898 219.156 137.499 219.842 138.609C220.425 139.552 220.183 141.714 219.899 142.722ZM220.146 145.945L206.768 144.21C207.381 141.635 207.381 137.857 206.768 135.283L211.971 139.392L220.146 143.466V145.945ZM207.016 222.569V145.697L216.43 146.689L219.86 147.756L219.921 152.641L219.899 163.799V206.451V219.098L219.879 223.651L216.678 223.632L207.016 222.569ZM207.016 278.116V224.057L216.678 224.988L219.841 225.695L219.902 228.521L219.898 235.712V260.509L219.92 266.709L219.87 269.829L215.687 272.226L207.016 278.116ZM219.898 328.702C196.514 322.314 193.84 286.873 213.457 274.845C215.436 273.632 217.626 272.213 219.898 271.668C219.99 272.836 220.53 274.499 219.892 275.583C219.26 276.655 217.443 277.221 216.43 277.887C214.291 279.294 212.244 280.924 210.526 282.827C205.922 287.929 203.88 294.355 204.047 301.177C204.201 307.499 207.27 313.219 211.727 317.535C213.27 319.03 215.082 320.301 216.926 321.399C217.802 321.921 219.104 322.295 219.739 323.13C220.415 324.017 220.21 327.608 219.898 328.702ZM207.016 321.015L212.962 325.866L220.146 329.446C218.714 337.169 219.886 346.137 219.899 353.996C219.902 356.373 221.111 361.125 219.749 363.16C218.02 365.743 211.933 365.509 209.774 363.591C208.628 362.573 208.167 360.652 207.871 359.203C206.788 353.902 207.016 348.462 207.016 343.085V321.015ZM206.52 144.21L193.142 145.574L183.48 148.425C188.168 130.872 187.157 112.507 189.642 94.6151C190.374 89.3383 191.429 84.0934 192.964 78.9928C193.588 76.921 194.095 74.311 195.372 72.5455C196.087 74.9682 196.351 78.9921 195.867 81.4726C199.164 81.6718 203.693 78.6989 206.768 77.5049V87.9198C206.768 89.4258 207.116 91.4439 206.622 92.8793C205.965 94.7905 204.065 96.4935 203.116 98.3347C200.839 102.752 199.644 107.746 199.585 112.717C199.523 117.87 200.253 123.112 202.386 127.844C203.427 130.152 205.573 132.198 206.375 134.539C207.293 137.223 206.52 141.373 206.52 144.21ZM206.52 222.569L160.44 225.793C160.44 214.626 159.738 202.449 162.674 191.573C163.541 188.358 165.342 185.366 166.815 182.398C169.228 177.532 171.576 172.629 174.005 167.767C176.161 163.451 178.221 159.066 180.612 154.873C181.41 153.473 181.964 151.214 183.298 150.249C189.309 145.899 199.444 145.698 206.52 145.698V222.569ZM206.371 224.413C206.974 225.602 206.52 227.949 206.52 229.265V241.167V266.957C206.52 270.526 207.403 275.439 206.393 278.86C205.836 280.748 203.944 282.33 203.001 284.067C201.325 287.151 199.995 292.437 196.611 294.054C193.005 295.777 188.387 292.015 185.71 289.986C180.298 285.885 175.388 281.175 170.598 276.38C167.501 273.28 163.884 269.65 161.857 265.717C160.637 263.349 161.139 260.109 160.894 257.534C160.226 250.514 160.193 243.514 160.193 236.456V229.761C160.193 229.048 159.991 227.8 160.624 227.288C161.549 226.539 164.465 226.829 165.643 226.775C169.916 226.581 174.267 226.405 178.525 225.999C185.606 225.325 192.705 224.069 199.831 224.057C201.149 224.057 205.651 222.993 206.371 224.413ZM193.638 354.739L194.629 362.923C190.766 362.922 189.394 360.153 188.333 356.723C186.546 350.945 185.673 345.025 184.47 339.117C182.721 330.527 178.39 322.565 174.914 314.568C168.382 299.535 162.392 284.582 161.679 267.949C164.812 270.369 167.402 274.591 170.13 277.539C174.458 282.216 179.436 286.463 184.41 290.432C187.401 292.818 192.718 297.245 196.858 295.283C198.544 294.485 199.433 292.864 200.575 291.506C200.769 292.818 200.193 294.145 200.101 295.474C199.854 299.067 199.739 302.82 200.404 306.385C201.042 309.809 202.248 312.981 203.859 316.056C204.589 317.45 205.95 318.768 206.393 320.271C206.893 321.964 206.52 324.217 206.52 325.974V337.629V348.788C206.52 349.811 206.932 352.012 206.266 352.854C205.716 353.548 203.632 353.427 202.804 353.5C199.806 353.762 196.561 354.035 193.638 354.739ZM200.691 323.247C200.058 320.505 196.68 318.992 194.392 320.865C192.721 322.232 192.354 324.469 192.909 326.47C193.673 329.226 197.079 330.436 199.29 328.564C200.775 327.306 201.112 325.069 200.691 323.247ZM198.409 207.718C198.08 206.187 195.364 206.096 194.778 207.476C194.047 209.201 194.047 215.356 194.778 217.081C195.329 218.38 197.805 218.393 198.327 217.059C198.64 216.26 198.355 215.222 198.346 214.387C198.322 212.333 198.834 209.703 198.409 207.718ZM198.445 276.413C198.015 275.006 195.439 274.892 194.813 276.201C193.942 278.02 194.629 281.568 194.629 283.571C194.629 284.301 194.463 285.302 194.778 285.982C195.368 287.251 197.857 287.006 198.333 285.776C198.66 284.931 198.37 283.949 198.349 283.075C198.301 281.088 199.017 278.287 198.445 276.413ZM198.097 126.852C197.282 126.701 196.206 126.394 195.451 126.897C194.534 127.507 194.526 130.913 195.274 131.662C197.243 133.633 198.097 130.726 198.097 129.332V126.852ZM163.661 272.909C163.705 278.247 165.375 283.704 166.91 288.779C169.814 298.379 173.391 307.122 177.966 316.056C180.262 320.539 182.234 326.327 185.462 330.191C186.075 326.622 185.71 322.658 185.71 319.032C185.71 314.277 186.043 309.376 185.534 304.649C185.26 302.106 186.014 299.134 184.946 296.714C184.039 294.66 182.01 292.922 180.546 291.259C177.606 287.92 174.663 284.564 171.598 281.34C169.148 278.762 166.749 274.679 163.661 272.909ZM185.215 153.633C183.761 154.37 182.827 156.027 181.931 157.353C179.884 160.382 178.062 163.566 176.316 166.776C171.555 175.527 165.951 185.063 163.531 194.797C162.544 198.767 162.449 202.894 162.152 206.948C161.853 211.042 161.679 215.241 161.679 219.346C161.679 220.281 161.253 222.661 162.076 223.307C163.133 224.137 167.064 223.244 168.368 223.066C173.948 222.301 179.625 222.285 185.215 221.578V153.633ZM184.967 227.778C179.748 229.021 173.486 228.544 168.12 228.779C166.971 228.83 162.888 228.522 162.181 229.415C161.431 230.363 162.117 232.396 162.165 233.481C162.317 236.97 161.927 240.419 161.927 243.896C161.927 250.05 160.94 257.848 163.014 263.734C165.25 270.082 171.79 275.5 177.039 279.359C179.477 281.152 182.235 284.038 185.215 284.811V245.88V233.977L184.967 227.778ZM123.031 419.461C126.567 418.618 130.799 419.213 134.427 419.213H156.724C159.687 419.213 163.247 419.751 166.138 419.082C170.764 418.012 169.392 413.206 170.747 410.075C171.265 408.878 172.844 408.789 173.325 407.31C173.82 405.786 173.751 403.555 173.063 402.103C172.648 401.229 171.539 400.398 171.577 399.375C171.656 397.308 173.857 395.519 174.074 393.424C174.341 390.855 171.038 386.53 169.915 384.249C169.502 383.41 169.093 382.053 168.271 381.528C167.01 380.723 164.131 381.273 162.67 381.273H148.549H95.0361H79.4283C77.9735 381.273 74.8512 380.682 73.6234 381.528C72.7889 382.103 72.6079 383.609 72.2658 384.497C71.3684 386.825 68.6451 391.451 69.1566 393.92C69.5275 395.71 71.6113 397.486 71.6074 399.304C71.6059 400.12 70.6098 400.914 70.2418 401.607C69.4979 403.008 69.2831 405.023 69.6505 406.566C70.0354 408.183 71.4824 408.678 72.1165 410.049C73.4925 413.024 73.0545 416.839 76.4554 418.648C79.1711 420.092 83.8565 419.213 86.8606 419.213H110.892C113.704 419.213 118.687 418.238 121.26 419.363C122.343 419.836 122.04 421.485 122.04 422.437C122.04 424.129 122.378 426.243 121.934 427.882C121.606 429.09 120.323 429.939 121.128 431.307C121.879 432.584 123.626 431.944 123.834 430.619C123.989 429.623 123.228 428.647 123.158 427.644C122.977 425.021 123.579 421.985 123.031 419.461ZM142.603 33.3663C148.517 33.3663 154.513 33.4725 160.44 33.6179C162.891 33.6781 165.887 34.5446 168.116 33.1197C172.011 30.6312 170.653 24.5472 170.869 20.7233C170.977 18.8068 173.428 17.4592 173.744 15.2642C173.945 13.8662 173.81 11.9877 172.876 10.8563C172.348 10.2172 171.343 10.0331 170.995 9.25714C169.642 6.23883 170.819 2.3485 167.129 0.499035C165.444 -0.345836 162.778 0.137787 160.936 0.137787L147.31 0.137787L98.2568 0.137787L83.3922 0.137787C81.3585 0.137787 78.5497 -0.364211 76.7033 0.613822C73.0654 2.54095 73.8366 6.26873 72.2371 9.30304C71.1514 11.3628 69.3258 12.0459 69.5932 14.7683C69.8341 17.2212 72.0374 18.7594 72.2293 20.9676C72.5275 24.3985 71.3556 28.7851 73.3535 31.856C75.6969 35.458 83.8432 33.8622 87.6039 33.8622C91.3372 33.8622 96.6321 34.8421 100.202 33.7834C101.553 33.3828 100.979 31.2705 102.72 30.9432C105.124 30.4913 107.951 30.8866 110.396 30.8866L125.756 30.8866H138.391C140.293 30.8873 142.259 31.145 142.603 33.3663ZM159.945 391.192L167.377 382.761H167.873C169.763 386.754 173.889 391.609 171.776 395.904C170.993 397.494 170.427 399.908 168.142 399.296C167.064 399.008 166.165 397.694 165.441 396.905C163.666 394.972 161.929 392.911 159.945 391.192ZM172.494 13.0327C172.875 14.8805 172.324 17.6004 170.349 18.3383C169.015 18.8367 167.052 18.4879 165.643 18.4879C161.914 18.4879 157.945 18.122 154.247 18.5586C147.38 19.3696 140.106 18.7357 133.189 18.7357L93.0542 18.7357C89.445 18.7357 85.754 18.5111 82.1535 18.758C79.4896 18.9406 75.8871 19.6302 73.2768 18.905C71.8325 18.5036 71.0299 16.6089 70.8319 15.2642C70.6436 13.9851 70.7465 12.2607 72.0221 11.5515C73.264 10.861 75.565 11.2966 76.9509 11.2966L88.8426 11.2966L150.035 11.2966L167.129 11.2966C168.967 11.2966 172 10.6328 172.494 13.0327ZM172.486 404.831C172.549 405.856 172.353 407.4 171.294 407.87C169.915 408.482 167.626 408.054 166.138 408.054H153.999H92.8064H75.9599C73.9696 408.054 70.9967 408.558 70.7717 405.823C70.6331 404.138 70.8406 401.82 72.5147 400.907C73.8038 400.204 76.0184 400.615 77.4464 400.615H89.0903H150.531H163.413C165.352 400.615 167.72 400.248 169.607 400.719C171.466 401.183 172.376 403.048 172.486 404.831ZM169.854 9.80876L104.698 9.80876L84.1355 9.80876L73.7303 10.0568C73.0532 7.37338 74.9818 2.60433 77.6951 1.65263C79.3484 1.07267 81.4162 1.37768 83.1445 1.37768L93.7976 1.37768L149.044 1.37768L162.175 1.37768C163.963 1.37768 166.164 1.08264 167.578 2.42601C169.633 4.37828 169.26 7.31 169.854 9.80876ZM165.643 32.6223L165.395 19.9757H169.607C169.936 24.1538 170.984 31.3787 165.643 32.6223ZM73.2349 409.542L73.4827 409.294L87.3563 409.542H113.617H149.54L169.359 409.294C170.009 411.66 169.112 416.385 166.612 417.475C165.157 418.109 162.99 417.723 161.431 417.725H150.283H93.0544C89.348 417.725 85.6086 417.581 81.9059 417.744C80.001 417.828 77.8045 418.183 76.2185 416.884C74.1852 415.217 73.7074 411.979 73.2349 409.542ZM166.882 382.761L159.697 390.448H159.202L152.265 382.761L162.175 382.513L166.882 382.761ZM166.882 399.375H151.769C153.305 396.492 157.04 393.065 159.697 391.192L166.882 399.375ZM77.1988 44.2771V52.9561H100.239L147.31 52.9561L160.44 52.9561L165.246 52.8697L165.643 50.9724L165.494 44.6424L160.44 44.2771L144.337 44.2771L77.1988 44.2771ZM165.395 70.8102C157.837 69.3849 150.163 68.5968 142.603 67.1861C140.841 66.8574 139.566 65.2758 137.896 65.0363C133.68 64.4317 128.798 65.1069 124.518 65.1069C118.175 65.1069 111.507 64.5043 105.194 65.133C103.396 65.312 102.02 66.7836 100.239 67.173C93.0277 68.7501 84.8088 70.737 77.4466 71.0584L77.4466 122.389C77.4466 130.786 76.6955 139.573 77.4723 147.93C77.739 150.798 78.8741 153.728 79.4239 156.567C81.3734 166.636 84.0558 176.636 85.6918 186.757C86.6497 192.683 86.3607 198.975 86.6228 204.964C87.0711 215.211 87.4056 225.437 87.3561 235.713C87.2869 250.055 87.4383 264.832 86.0755 279.108C84.3196 297.502 79.0772 315.53 77.241 333.91C76.2466 343.865 77.1988 354.402 77.1988 364.411C84.9869 365.418 92.6524 367.33 100.487 368.089C107.292 368.748 114.457 368.131 121.297 368.131C128.732 368.131 136.453 368.716 143.842 367.924C149.087 367.362 154.274 366.586 159.449 365.552C160.894 365.263 163.908 365.265 164.992 364.199C165.86 363.345 165.395 360.357 165.395 359.204V344.821C165.395 323.927 159.881 302.972 156.829 282.332C156.072 277.216 156.197 272.107 155.971 266.958C155.458 255.224 155.257 243.513 155.238 231.746C155.22 220.693 155.203 209.567 155.959 198.517C156.24 194.414 155.921 190.195 156.55 186.118C158.074 176.239 161.181 166.344 163.471 156.61C164.063 154.095 165.042 151.483 165.35 148.922C166.187 141.941 165.395 134.384 165.395 127.349C165.395 108.575 164.506 89.5572 165.395 70.8102ZM164.9 32.6228L162.175 32.3748V32.1268H164.652V20.2241H153.751L162.175 19.7282L164.822 20.3029L164.9 23.9437V32.6228ZM77.6943 52.4607V44.7734L165.148 44.7734C165.148 46.419 165.925 50.7586 164.893 52.063C164.136 53.0195 160.818 52.4607 159.697 52.4607L143.842 52.4607L77.6943 52.4607ZM164.738 4.60559C163.813 1.74462 155.105 2.15489 156.371 6.58457C157.27 9.73172 166.287 9.39562 164.738 4.60559ZM164.421 14.2863C164.001 12.7337 161.775 13.468 162.329 15.0021C162.848 16.4406 164.8 15.6844 164.421 14.2863ZM164.468 412.777C163.91 411.407 162.413 411.527 161.184 411.526C158.699 411.526 154.913 411.8 156.413 415.483C157.002 416.931 158.663 416.734 159.945 416.734C162.453 416.734 165.937 416.385 164.468 412.777ZM164.297 5.1013C165.259 8.55748 157.438 8.56797 156.833 6.3316C155.877 2.8014 163.664 2.82937 164.297 5.1013ZM164.219 404.143C163.566 402.683 161.807 403.995 162.328 405.289C162.931 406.789 164.831 405.511 164.219 404.143ZM164.277 413.758C164.858 417.179 157.236 417.259 156.781 414.745C156.139 411.196 163.855 411.268 164.277 413.758ZM164.157 147.681H163.909L148.253 96.8467L142.39 77.7528L139.382 67.5859C144.798 69.7057 151.458 70.0291 157.22 70.8419C158.644 71.0428 162.994 71.0424 163.902 72.1989C164.71 73.2276 164.157 76.2382 164.157 77.5048V91.8873V147.681ZM164.049 334.38C163.997 335.7 161.693 336.671 160.688 337.225C156.917 339.305 152.997 340.78 148.796 341.702C139.511 343.74 129.517 342.837 120.058 342.837C112.212 342.837 103.737 343.679 96.0273 341.987C91.3446 340.96 86.6819 339.554 82.4014 337.354C81.0579 336.664 78.508 335.956 78.4742 334.156C78.403 330.355 79.7102 326.246 80.3109 322.503C81.8092 313.165 83.4345 303.838 84.8115 294.482C85.2991 291.169 85.9058 287.88 86.3653 284.563C86.5055 283.551 86.5141 281.3 87.2924 280.58C88.1027 279.829 90.0226 279.694 91.0724 279.461C94.2588 278.752 97.4938 277.969 100.734 277.581C106.962 276.835 113.294 277.124 119.563 277.124C126.323 277.124 133.142 276.877 139.878 277.349C143.782 277.623 147.477 278.543 151.274 279.441C152.398 279.707 154.451 279.709 155.197 280.722C155.922 281.706 155.857 283.633 156.077 284.811C156.737 288.339 157.236 291.927 157.783 295.474C159.149 304.322 160.555 313.177 162.035 322.007C162.683 325.876 164.204 330.465 164.049 334.38ZM78.4375 363.418C77.2031 356.763 78.1898 349.11 78.1898 342.341C78.1898 340.357 78.5659 338.07 78.1898 336.141C80.5476 335.984 83.8723 338.622 86.1175 339.514C91.2545 341.554 96.4855 342.768 101.973 343.29C109.916 344.047 118.27 343.333 126.252 343.333C133.055 343.333 140.366 344.054 147.062 342.672C150.801 341.9 154.514 340.825 157.963 339.171C159.985 338.201 162.015 336.45 164.157 335.894V355.731C164.157 357.379 164.927 361.672 163.902 362.99C163.035 364.105 159.773 364.098 158.458 364.361C153.011 365.451 147.418 366.509 141.86 366.646C129.207 366.957 116.11 367.735 103.46 366.868C95.0838 366.294 86.7781 363.777 78.4375 363.418ZM163.166 147.434C156.004 144.809 149.941 139.6 142.355 137.773C136.825 136.441 130.427 137.267 124.765 137.267C116.263 137.267 106.466 135.909 98.2569 138.367C91.3282 140.443 85.7118 144.933 79.1807 147.682C80.0528 141.231 83.2829 134.276 85.3556 128.092C89.6002 115.427 93.3313 102.588 97.5139 89.9038C99.3346 84.3824 101.127 78.8499 102.824 73.2896C103.521 71.0058 104.597 68.7133 104.946 66.3463H119.563C119.501 67.7751 118.123 70.2768 118.773 71.544C120.499 74.9078 125.592 75.3807 126.822 71.296C127.205 70.0256 126.148 67.8204 125.756 66.5943L135.171 66.3463L138.427 66.9211L140.746 74.0335L145.929 90.8957L158.142 130.571L163.166 147.434ZM160.936 146.938C156.538 146.499 152.261 144.685 147.806 144.252C141.232 143.613 134.582 144.12 127.986 143.958C117.63 143.705 106.843 142.74 96.5227 143.756C91.3512 144.265 86.4419 146.031 81.4104 147.186V146.938C87.8641 142.984 95.1666 139.066 102.716 137.843C110.006 136.662 118.364 137.763 125.756 137.763C130.417 137.763 135.513 137.179 140.125 137.837C144.674 138.486 148.895 140.741 153.008 142.646C155.603 143.847 158.73 145.108 160.936 146.938ZM151.522 398.383V383.256L157.22 388.712L158.726 390.944L156.972 393.175L151.522 398.383ZM158.353 313.328C157.334 305.555 155.868 297.887 153.968 290.266C153.495 288.372 153.309 283.888 151.869 282.544C151.051 281.78 149.116 281.704 148.053 281.488C144.866 280.841 141.663 280.101 138.391 280.1H104.698C101.285 280.1 97.8963 280.628 94.5408 281.234C93.513 281.42 91.5445 281.397 90.8084 282.229C90.1091 283.02 90.0385 284.562 89.8329 285.555C89.3182 288.042 88.6977 290.518 88.1289 292.994C86.1147 301.762 84.3833 310.515 84.3833 319.527C84.3833 321.826 84.0349 324.438 84.4201 326.704C84.7069 328.391 88.5713 327.462 89.8337 327.462H107.176H145.576C148.711 327.462 151.856 327.393 154.99 327.462C155.834 327.482 157.567 328.03 158.204 327.269C158.845 326.503 158.458 324.435 158.458 323.491C158.458 320.159 158.787 316.629 158.353 313.324M155.238 278.856L139.878 275.89L118.324 275.88L102.964 275.923L87.1085 278.856L87.6138 269.433L88.1004 251.331L88.3375 214.631L86.8608 186.858L100.734 184.897L118.82 184.874L141.364 184.884L155.238 186.858L154.003 218.847L154.491 255.299L155.238 278.856ZM153.008 20.2197H151.769V19.9718L153.008 20.2197ZM151.274 21.7075L91.0724 21.7075V20.2197L151.274 19.9718V21.7075ZM151.123 22.7781C151.905 24.4377 149.779 24.4348 148.796 24.4353L139.135 24.4353L102.716 24.4353H94.0453C93.2603 24.4353 91.6844 24.734 91.2575 23.8607C90.5062 22.3238 92.3119 22.2055 93.3021 22.2035H101.973L138.144 22.2035L147.806 22.2035C148.651 22.2035 150.676 21.8286 151.123 22.7781ZM91.0724 24.9312L151.274 24.9312L150.877 26.9081L147.806 27.163L140.125 27.163L103.707 27.163H94.7885L91.4696 26.9081L91.0724 24.9312ZM151.274 32.1224H143.594C142.25 28.7242 137.873 29.3948 134.923 29.3948L109.158 29.3948C106.051 29.3948 100.737 28.251 99.9911 32.3705L91.3201 32.6184C91.0446 31.6854 90.5637 28.6091 91.4723 27.9101C92.2134 27.3401 93.9059 27.6589 94.7885 27.6589H103.212L139.63 27.6589L148.053 27.6589C148.834 27.6589 150.466 27.3573 151.019 28.0565C151.688 28.9019 151.274 31.0891 151.274 32.1224ZM150.531 387.716C147.163 388.713 142.647 387.965 139.135 387.965C139.098 384.896 134.986 385.981 132.693 385.981H111.387C109.003 385.981 103.993 384.781 103.955 387.965H91.8156L92.0703 382.907L95.7795 382.509H106.185H150.283L150.531 387.716ZM150.531 395.9H136.409H107.919L92.0634 396.148L91.8156 388.46H103.955C104.16 391.147 108.412 390.196 110.396 390.196H131.702C133.781 390.196 138.922 391.254 139.135 388.46H147.31L150.276 388.858L150.531 395.9ZM150.531 399.123L144.089 399.371H131.95H91.8156V396.644H136.657H146.567L150.133 396.898L150.531 399.123ZM142.498 207.192C142.08 204.047 141.109 201.149 138.144 199.513C135.695 198.163 132.91 198.513 130.216 198.513L115.351 198.513C111.57 198.513 106.471 197.583 103.212 199.911C98.8426 203.032 99.4957 208.686 99.4957 213.391C99.4957 215.338 99.2945 217.413 99.57 219.342C101.108 230.117 113.316 227.526 121.297 227.526C126.023 227.526 133.316 228.893 137.648 226.841C144.054 223.806 143.283 213.103 142.498 207.192ZM142.037 207.192C142.71 212.83 143.596 223.15 137.648 226.157C133.227 228.393 125.905 227.03 121.049 227.03C114.564 227.03 101.511 229.555 100.284 220.334C99.5345 214.706 98.2223 203.839 103.749 200.306C106.955 198.258 111.483 199.009 115.103 199.009H128.482C135.051 199.009 141.086 199.238 142.037 207.192ZM138.391 389.7H104.698L104.451 386.725L115.351 386.477H138.391V389.7ZM136.155 13.7094C135.229 12.5737 133.579 14.302 134.577 15.3959C135.598 16.5153 136.942 14.6754 136.155 13.7094ZM136.222 404.14C135.6 402.702 133.602 403.975 134.247 405.286C134.973 406.76 136.812 405.507 136.222 404.14ZM127.738 258.77C125.138 260.038 122.878 263.801 120.979 265.962C120.071 266.994 119.1 267.796 118.82 269.185L124.519 262.843L127.738 258.77ZM120.802 66.8388H124.765C125.056 68.1074 126.085 70.0735 125.349 71.2986C124.032 73.4925 120.753 73.6026 120.003 70.8027C119.69 69.6348 120.54 67.9809 120.802 66.8388ZM108.423 14.5173C108.335 13.0928 106.258 13.0355 106.258 14.5173C106.258 16.1004 108.524 16.1534 108.423 14.5173ZM108.227 404.139C107.595 402.671 105.589 403.925 106.274 405.286C107.014 406.754 108.811 405.496 108.227 404.139ZM104.451 67.3347L101.223 77.0057L95.3473 95.3557L78.933 146.686H78.6853L78.6853 93.372V78.7415C78.6853 77.1241 78.0986 74.1022 78.8348 72.6497C79.4208 71.4932 83.4301 71.4491 84.6311 71.2403C89.7474 70.3505 94.8512 69.286 99.9911 68.542C101.386 68.3402 103.153 66.9795 104.451 67.3347ZM90.8247 398.875C88.4191 397.752 86.7235 395.025 84.8788 393.172C84.3184 392.609 83.2143 391.819 83.1922 390.941C83.1693 390.031 84.3581 389.18 84.931 388.597C86.6005 386.898 88.5303 383.743 90.8247 383.005V398.875ZM90.5769 32.3705L78.4375 32.6184C77.4421 29.2475 78.1898 24.7277 78.1898 21.2116H78.4375V32.1224C81.8534 32.1224 87.4425 31.0539 90.5769 32.3705ZM89.8337 383.005C87.5479 385.293 85.0997 389.069 82.1537 390.444L75.2169 382.757L85.8698 382.509L89.8337 383.005ZM89.8337 399.371H74.9691C76.0332 397.087 80.439 392.127 82.8969 391.436L89.8337 399.371ZM86.2026 4.84628C85.2628 1.76645 76.3747 2.04059 77.7535 6.58007C78.6989 9.69241 87.5513 9.26592 86.2026 4.84628ZM85.9336 413.011C84.795 410.071 76.0543 410.667 77.6582 415.237C78.6769 418.14 87.7321 417.654 85.9336 413.011ZM85.6372 6.3284C85.2114 8.47096 77.5681 8.70039 78.2465 5.10428C78.679 2.81196 86.3418 2.78228 85.6372 6.3284ZM85.4946 413.272C86.7548 417.176 78.8701 417.288 78.1449 414.979C76.9693 411.237 84.8616 411.312 85.4946 413.272ZM46.7264 68.0787H46.4787L45.4877 79.9814C43.3615 78.7702 38.1157 78.0287 36.8236 75.9457C36.1604 74.8765 36.7563 73.2049 36.8069 72.0462C36.9351 69.1178 37.6987 64.0104 36.2214 61.4066C34.6803 58.6904 30.2491 59.4478 27.6502 59.0771C26.3512 58.8919 25.174 58.4823 24.0094 59.3695C22.4403 60.5649 22.098 63.2676 21.9521 65.103L15.2631 68.4888L13.1829 70.1432L13.0334 75.5179V88.4125C28.2144 90.3429 39.9375 101.955 37.4512 117.921C36.2248 125.797 31.8114 132.305 24.6773 135.996C21.8829 137.442 19.0578 138.282 16.0063 138.969C15.1485 139.163 13.4251 139.026 13.1121 140.048C12.0313 143.576 13.0334 148.936 13.0334 152.638V180.907V274.145C20.1478 275.614 26.8791 278.569 31.8196 284.064C39.1765 292.246 39.9703 305.995 32.4768 314.387C28.9525 318.334 24.6112 321.022 19.7224 322.945C18.3818 323.472 13.7975 324.035 13.1829 325.305C12.17 327.398 13.1729 331.407 13.2714 333.658C13.5588 340.228 12.4454 346.98 13.0754 353.496C13.3076 355.898 14.1702 357.724 16.5018 358.699C17.8033 359.243 19.5667 359.356 20.6347 360.352C22.2476 361.857 21.5121 364.18 23.9341 365.509C26.6345 366.99 32.4278 366.759 34.4289 364.146C36.2994 361.703 36.7552 357.471 36.8167 354.488L47.9651 355.976L46.9742 363.663C54.1907 367.709 56.5185 354.546 57.5405 350.025C58.6811 344.979 58.9856 339.541 60.7086 334.65C66.3272 318.702 75.9806 303.959 79.4292 287.287C83.6535 266.866 83.672 246.501 83.6401 225.79C83.6223 214.212 84.5207 201.278 81.0547 190.082C80.0704 186.902 78.1447 183.903 76.7094 180.907C73.69 174.604 70.7219 168.243 67.463 162.061C64.1682 155.81 60.7629 149.926 59.2187 142.967C53.78 118.455 59.2068 90.8872 46.7264 68.0787ZM36.3212 222.318L36.569 213.639V197.521V145.694C42.2781 145.694 47.9136 146.21 53.4155 147.821C55.4963 148.43 58.0667 149.003 59.7888 150.397C60.9364 151.327 61.4853 153.331 62.1505 154.621C63.732 157.688 65.4014 160.709 66.9427 163.796C69.5797 169.079 72.1507 174.388 74.7879 179.667C76.5433 183.181 78.7717 186.824 79.9517 190.578C81.0904 194.2 81.3445 197.994 81.7002 201.736C82.2512 207.532 82.2629 213.276 82.405 219.095C82.4409 220.564 83.3958 224.156 82.3937 225.392C81.8548 226.057 80.4042 225.571 79.6762 225.545C77.034 225.448 74.3889 225.172 71.7484 225.056C63.6865 224.702 55.7438 223.621 47.7174 222.856C44.1088 222.512 39.7853 223.343 36.3212 222.318ZM36.3212 224.054C39.2807 223.349 42.7319 224.074 45.7354 224.28C53.715 224.827 61.764 226.234 69.7665 226.286C72.8475 226.306 76.119 226.491 79.1807 226.853C79.9748 226.946 81.5838 226.771 82.2175 227.285C82.9313 227.863 82.6491 229.449 82.6491 230.253V238.188C82.6491 243.923 82.4133 249.587 82.1634 255.299C82.0352 258.229 82.4415 262.199 81.4555 264.97C80.6071 267.354 78.4557 269.525 76.8451 271.417C70.711 278.624 63.5515 285.404 55.8929 290.969C53.2459 292.893 48.7292 295.976 45.4913 293.608C42.6004 291.494 41.2768 286.629 39.5988 283.568C38.751 282.021 36.98 280.528 36.4904 278.853C36.126 277.605 36.5689 275.941 36.5689 274.641V264.474V237.445C36.5689 233.207 37.3026 228.18 36.3212 224.054ZM72.9871 399.371L70.4105 393.668L71.4217 390.196L74.2259 382.757C76.3201 384.234 77.8738 386.407 79.6762 388.212C80.3091 388.846 81.5646 389.733 81.6777 390.692C81.7891 391.637 80.5653 392.538 79.9983 393.149C78.1945 395.093 75.7004 398.952 72.9871 399.371ZM57.6271 153.63V221.574L81.1627 223.558C81.1627 213.889 81.5764 203.493 79.2067 194.049C77.061 185.498 72.0253 176.959 67.861 169.252C65.8231 165.48 63.8169 161.686 61.4683 158.093C60.4275 156.501 59.3346 154.562 57.6271 153.63ZM48.2129 362.919C48.4325 361.18 49.8907 356.554 48.9456 355.063C48.3879 354.183 46.4069 354.312 45.4877 354.202C42.4289 353.834 39.3771 353.387 36.3212 353L36.3212 331.179C36.3212 327.821 35.6934 323.756 36.4162 320.474C36.9755 317.934 39.6486 315.348 40.6684 312.829C43.329 306.254 43.7901 298.351 42.0193 291.503C44.0349 292.647 44.5665 295.171 47.2219 295.637C51.3997 296.37 55.6105 292.653 58.6181 290.264C63.6235 286.287 68.6123 282.072 72.9487 277.359C75.3915 274.704 78.1026 269.993 81.1627 268.193C80.8147 285.063 74.0836 300.363 67.5687 315.556C64.1178 323.604 59.8938 331.438 58.274 340.106C57.1572 346.082 56.2639 352.232 54.1453 357.96C53.0882 360.818 51.5267 363.311 48.2129 362.919ZM57.6271 228.022V284.808C60.8776 284.16 64.2645 280.637 66.7936 278.608C71.588 274.763 77.4046 270.117 79.7355 264.226C82.0903 258.274 80.9149 250.176 80.9149 243.892C80.9149 240.5 80.6736 237.108 80.7945 233.729C80.834 232.624 81.3899 230.333 80.6603 229.411C79.9629 228.53 75.8561 228.797 74.7213 228.769C69.0177 228.627 63.3414 228.022 57.6271 228.022ZM80.1646 13.8512C79.3263 12.595 77.7565 14.0385 78.4455 15.2223C79.2799 16.6558 80.9848 15.0802 80.1646 13.8512ZM80.1602 404.12C79.3358 402.625 77.4888 404.183 78.3067 405.492C79.1208 406.795 80.8293 405.333 80.1602 404.12ZM79.1806 272.905C77.2514 274.034 75.7406 276.478 74.2197 278.112C70.4245 282.189 66.6786 286.321 63.0068 290.511C61.3532 292.398 58.5042 294.76 57.7532 297.206C56.7403 300.505 57.3793 304.702 57.3793 308.117V329.939C58.723 328.783 59.3828 326.794 60.1712 325.227C61.5099 322.566 62.9194 319.913 64.336 317.292C69.4112 307.9 73.336 298.295 76.2425 288.031C77.6291 283.135 79.1806 278.017 79.1806 272.905ZM73.4826 20.2197C74.4316 20.2197 76.7864 19.7919 77.4396 20.6173C77.9201 21.2246 77.6942 22.4737 77.6942 23.1954V29.6427C77.6942 30.3506 77.9255 31.6285 77.4396 32.2171C76.7772 33.0195 75.3037 32.0928 74.7742 31.5708C73.2021 30.0209 73.4826 27.4398 73.4826 25.4271V20.2197ZM59.3612 148.67C53.9406 146.444 48.5722 145.216 42.7624 144.525C40.6525 144.274 38.3637 144.605 36.3211 144.207C37.0512 141.137 35.6314 137.451 36.5337 134.536C37.2061 132.363 39.3073 130.45 40.2778 128.336C42.7757 122.896 43.6434 116.936 43.2358 110.978C42.948 106.773 41.9921 102.308 39.9599 98.5794C38.9201 96.6718 36.9734 94.8915 36.2537 92.876C35.7376 91.4309 36.0734 89.4347 36.0734 87.9165V77.7496L46.9741 81.4692L47.2218 72.5422L49.4161 77.2536L52.7341 91.3881L55.9347 126.848L57.5314 140.487L59.3612 148.67ZM47.9582 207.118C47.2155 206.134 45.1259 206.341 44.6461 207.473C43.8361 209.384 44.4966 212.811 44.4966 214.879C44.4966 215.612 44.28 216.808 44.7513 217.432C45.4939 218.416 47.5835 218.209 48.0633 217.078C48.8733 215.167 48.2128 211.74 48.2128 209.672C48.2128 208.939 48.4295 207.742 47.9582 207.118ZM47.9582 275.987C47.2937 275.007 45.1449 275.072 44.6461 276.185C43.7908 278.094 44.4965 281.729 44.4966 283.816C44.4967 284.527 44.3243 285.567 44.7513 286.188C45.3824 287.106 47.5921 287.037 48.0633 285.991C48.9208 284.087 48.2129 280.443 48.2128 278.36C48.2127 277.645 48.3827 276.613 47.9582 275.987ZM47.9649 126.848C47.1498 126.697 46.0734 126.39 45.3184 126.893C44.423 127.489 44.4008 130.855 45.0363 131.659C46.7964 133.883 47.9648 130.61 47.9649 129.328V126.848ZM22.9428 142.719C22.9428 141.575 22.5201 139.384 23.1975 138.413C24.0436 137.201 26.6414 136.427 27.8977 135.603C30.4545 133.927 32.8539 131.652 34.5267 129.08C40.4522 119.973 40.6059 106.262 33.716 97.5878C30.7444 93.8464 26.8617 91.5475 22.6951 89.4046L22.9428 85.4371C30.5962 87.611 36.9095 92.75 40.2076 100.068C47.0843 115.325 40.8488 138.571 22.9428 142.719ZM22.9428 328.699C22.9428 327.21 22.4546 324.698 23.0923 323.341C23.5454 322.376 25.2886 321.809 26.1635 321.294C28.041 320.189 29.8079 318.81 31.3661 317.289C35.6544 313.102 38.7686 307.566 38.7982 301.422C38.8322 294.353 37.1658 288.257 32.4217 282.846C30.7696 280.962 28.7751 279.344 26.659 278.011C25.6568 277.379 23.8456 276.805 23.1975 275.784C22.564 274.786 22.9428 272.81 22.9428 271.665C25.4975 272.273 27.9592 273.862 30.1274 275.302C48.9358 287.799 46.1641 322.471 22.9428 328.699ZM35.926 113.706C35.7278 108.217 33.7927 102.567 29.8376 98.622C22.3447 91.1488 10.0803 92.448 4.0576 101.059C0.824288 105.682 -0.0820837 110.903 0.160231 116.434C0.275848 119.073 1.11021 121.737 2.20908 124.121C3.21556 126.304 4.67364 128.39 6.45284 130.009C8.09548 131.504 9.97504 132.754 12.0422 133.588C24.8679 138.764 36.3731 126.09 35.926 113.706ZM22.9428 145.943V143.215C28.2576 141.984 31.5759 138.276 35.8255 135.28L35.8292 141.727L35.8089 144.057L32.6049 144.598L22.9428 145.943ZM36.0733 222.318L22.9429 224.054V147.182L35.8255 145.695V196.777V213.143L36.0733 222.318ZM35.5778 278.36C33.281 275.725 30.1978 273.83 27.1545 272.181C26.1307 271.626 23.603 270.907 23.0924 269.832C21.9852 267.501 22.9429 262.597 22.9429 260.01V235.957V228.518C22.9429 227.743 22.6842 226.342 23.1975 225.692C23.6986 225.057 25.4098 225.083 26.1635 224.951C29.0878 224.437 33.1531 223.56 36.0733 224.054L35.8255 237.445V263.978L35.8263 273.897L35.5778 278.36ZM35.7192 296.711C35.264 293.529 34.3209 290.54 32.6481 287.783C26.9848 278.452 14.42 276.136 6.34755 283.838C1.37879 288.579 -0.732311 296.19 0.224715 302.91C0.639756 305.824 1.59352 308.829 3.13931 311.341C4.44561 313.464 6.08799 315.314 8.07811 316.821C9.62837 317.996 11.4179 318.948 13.2807 319.514C26.9359 323.67 37.5235 309.322 35.7192 296.711ZM22.9427 329.195C28.2931 327.923 31.5631 324.017 35.8253 321.012C35.8253 331.344 35.8749 341.677 35.8251 352.009C35.81 355.161 35.696 361.562 33.0063 363.731C30.9731 365.37 23.8574 365.952 23.0214 362.67C22.2168 359.512 22.9427 355.271 22.9427 352.009L22.9427 329.195ZM35.5776 92.1324C31.7705 89.7488 27.8683 85.1565 22.9427 85.1891V70.5587C22.9427 67.7997 22.6666 64.4875 23.7379 61.8805C24.0224 61.1883 24.4405 60.4767 25.1982 60.2515C26.2511 59.9386 27.3576 60.4176 28.393 60.5653C30.5233 60.8691 33.7142 59.9964 35.1459 62.1411C36.4005 64.0206 35.5776 68.3546 35.5776 70.5587V92.1324ZM22.4472 89.1567L14.2717 87.1729V75.2701C14.2717 74.0247 13.8357 71.7395 14.5263 70.6554C15.7344 68.7591 20.2255 67.1909 22.1994 66.0951L22.4472 73.7823V89.1567ZM14.2717 149.414V140.487L22.4472 138.751C22.4472 140.457 23.1842 144.403 22.1926 145.816C21.7102 146.504 20.469 146.685 19.722 146.935C17.7776 147.584 16.1346 148.64 14.2717 149.414ZM14.2717 225.542V166.276V155.862C14.2717 154.546 13.918 152.602 14.5263 151.399C15.7283 149.022 19.9865 147.786 22.4472 147.678V206.448V219.095L22.1926 223.908L19.9698 224.583L14.2717 225.542ZM22.4472 269.681C20.758 269.428 15.5354 268.189 14.5263 266.792C13.9958 266.058 14.2717 264.587 14.2717 263.73V256.291V227.03L22.1994 225.542C23.4188 229.671 22.4472 235.365 22.4472 239.677V269.681ZM22.1994 275.633L14.5263 272.765L14.2717 268.442C18.4264 269.064 23.6893 270.588 22.1994 275.633ZM22.4472 359.944C20.4105 358.799 16.2746 357.92 14.9476 355.966C13.5041 353.839 14.2717 349.739 14.2717 347.297L14.2717 325.971L22.1994 323.492C23.215 326.931 22.4472 331.56 22.4472 335.146L22.4472 359.944Z" fill="#304A6E"/>
</svg>
