<svg width="72" height="81" viewBox="0 0 72 81" fill="none" xmlns="http://www.w3.org/2000/svg">
<rect width="72" height="81" fill="#1A1E26"/>
<rect x="-498" y="-434" width="980" height="753" rx="4" fill="white"/>
<path d="M111.973 0.188557C107.063 1.17049 102.592 2.56311 98.8727 6.1124C91.8342 12.8283 91.979 24.2475 99.3274 30.7097C104.639 35.3809 112.075 37.0001 118.916 35.6249C122.025 35 125.08 33.7668 127.596 31.8182C129.444 30.3858 131.037 28.8568 132.224 26.8175C139.018 15.1474 130.372 2.57353 117.925 0.52078C115.951 0.195298 113.987 -0.214191 111.973 0.188557ZM297.209 0.23709C291.455 1.67945 286.215 3.23252 282.458 8.23675C276.338 16.3907 279.2 27.3981 287.538 32.7409C292.751 36.0812 299.465 36.8764 305.393 35.3956C313.383 33.3993 320.454 26.5854 320.239 17.8987C320.009 8.61445 312.253 2.18688 303.657 0.576603C301.56 0.183815 299.34 -0.296987 297.209 0.23709ZM76.5129 36.7272L79.9846 45.8937L72.0494 46.367L68.0818 46.8846C92.3092 58.7039 119.449 53.6895 144.954 59.7386C150.059 60.9495 154.492 63.5925 159.088 66.0151C165.936 69.6251 172.951 72.961 179.918 76.3316C183.134 77.8876 186.424 79.9832 189.837 81.0508C201.317 84.6417 214.648 83.7983 226.537 83.7983C241.466 83.7983 256.08 83.5889 270.924 82.106C279.34 81.2653 288.276 80.0763 296.217 77.0617C309.262 72.11 321.659 65.1002 334.901 60.7309C340.248 58.9669 346.05 58.6145 351.516 57.3185C356.945 56.0311 365.845 54.4228 363.914 47.1324L355.979 48.1233C355.341 45.5349 355.225 42.829 354.844 40.1956C354.723 39.3653 354.206 37.8403 354.89 37.1588C355.9 36.1518 359.271 36.404 360.69 35.983C365.521 34.5498 367.69 29.6626 365.866 24.8355C365.428 23.6767 364.555 22.349 363.395 21.814C362.223 21.2739 360.819 21.5791 360.049 20.3492C358.838 18.4156 359.03 15.926 357.147 14.3781C355.145 12.7328 352.188 13.1916 349.78 13.1916L332.669 13.1916C330.696 13.1916 327.092 12.4905 325.305 13.3411C324.032 13.9474 323.463 18.5356 322.951 19.8807C321.213 24.4451 318.469 28.9393 314.815 32.2255C306.087 40.0765 292.031 39.3655 283.571 31.5024C278.4 26.6969 275.552 19.9941 274.148 13.1916L180.91 13.1916L152.641 13.1916C148.939 13.1916 143.58 12.1896 140.051 13.2704C139.024 13.5848 139.133 15.3013 138.981 16.1645C138.479 19.0188 137.506 21.7588 136.213 24.34C132.824 31.1071 126.697 36.0136 119.164 37.3555C102.773 40.2755 90.4678 29.0678 88.4155 13.1916H75.2729C73.8296 13.1916 71.1464 12.679 69.8827 13.4462C67.6138 14.8238 66.7887 19.2719 65.146 21.334C63.8464 22.9655 61.1037 22.3534 59.5437 23.8868C58.3625 25.0478 58.9581 26.3965 59.1116 27.8084C59.4034 30.4929 58.7642 34.5932 61.3902 36.2965C62.7238 37.1615 64.5854 36.9749 66.0979 36.9749C69.5783 36.9749 73.0271 36.7272 76.5129 36.7272ZM87.1756 14.4303L89.1594 22.6058L66.3458 22.3581C66.956 20.4318 69.0533 15.5017 70.8622 14.5127C72.0656 13.8548 74.4163 14.1826 75.7689 14.1826C79.5819 14.1826 83.3754 14.4303 87.1756 14.4303ZM149.417 14.1826L146.902 19.8807L145.819 22.3326L138.754 22.6058L140.49 14.4303L149.417 14.1826ZM225.545 14.1826L224.057 22.6058C204.784 21.3151 185.108 22.3581 165.783 22.3581C161.202 22.3581 156.446 21.9988 151.897 22.5351C151.001 22.6406 148.009 23.0866 147.806 21.806C147.668 20.9384 148.279 19.7025 148.553 18.8897C149.032 17.4704 149.773 15.4413 151.175 14.6849C152.249 14.106 154.4 14.198 155.616 14.1835C158.839 14.1453 162.064 14.1828 165.287 14.1828L205.707 14.1828C212.24 14.1828 219.046 14.7574 225.545 14.1826ZM269.684 22.606L249.35 22.3583L225.793 22.606L225.545 22.3583L227.033 14.4305C236.516 14.4298 246.046 14.1828 255.55 14.1828C258.428 14.1828 264.09 13.1009 266.64 14.5406C268.137 15.386 269.515 20.9521 269.684 22.606ZM273.156 14.4305L275.388 22.606H271.42L268.444 14.4305H273.156ZM359.947 22.3583H352.011H334.901H323.494L325.974 14.4305H347.3C349.758 14.4305 353.783 13.6724 355.956 14.995C358.24 16.3856 358.204 20.3425 359.947 22.3583ZM85.1919 23.1015C85.6571 28.4254 90.0089 31.3535 92.1351 35.7364C84.8501 35.7364 77.5658 35.7247 70.3135 35.7364C68.1105 35.7401 63.818 36.5475 61.9512 35.2188C60.0891 33.8933 60.8047 30.4674 60.5994 28.5519C60.4943 27.5709 60.0448 26.5812 60.2068 25.5828C60.3408 24.7574 60.906 24.2697 61.6382 23.9348C64.8883 22.4483 68.8711 23.064 72.2972 23.1006C76.4524 23.1449 81.1173 22.43 85.1919 23.1015ZM142.722 23.1013C138.459 41.0733 114.564 47.5577 99.3264 39.995C92.2441 36.4799 87.8422 30.4776 85.4398 23.1013C90.5853 21.84 91.418 27.259 94.2251 30.5336C97.6076 34.4795 102.155 37.2277 107.261 38.2966C115.183 39.9546 124.139 38.629 130.571 33.5056C132.848 31.6917 134.674 29.5271 136.218 27.0652C136.898 25.9796 137.499 23.8442 138.609 23.1583C139.552 22.5754 141.714 22.8166 142.722 23.1013ZM145.945 22.8536L144.21 36.2317C141.635 35.6195 137.857 35.6195 135.283 36.2317L139.392 31.0291L143.466 22.8536H145.945ZM222.569 35.984L145.697 35.984L146.689 26.5697L147.756 23.1403L152.641 23.0792L163.799 23.1013L206.451 23.1013H219.098L223.651 23.1214L223.632 26.322L222.569 35.984ZM278.116 35.984H224.057L224.988 26.322L225.695 23.1591L228.521 23.0979L235.712 23.1016L260.509 23.1016L266.709 23.0804L269.829 23.1298L272.226 27.3133L278.116 35.984ZM328.702 23.1017C322.314 46.4855 286.873 49.1597 274.845 29.543C273.632 27.5642 272.213 25.3738 271.668 23.1017C272.836 23.0096 274.499 22.4696 275.583 23.1083C276.655 23.7401 277.221 25.5569 277.887 26.5699C279.294 28.7094 280.924 30.7559 282.827 32.4736C287.929 37.0778 294.355 39.1203 301.177 38.9534C307.499 38.7987 313.219 35.7296 317.535 31.2734C319.03 29.7295 320.301 27.9183 321.399 26.0744C321.921 25.1977 322.295 23.8964 323.13 23.2607C324.017 22.5847 327.608 22.7903 328.702 23.1017ZM321.015 35.9841L325.866 30.0383L329.446 22.8537C337.169 24.2862 346.137 23.1141 353.996 23.1015C356.373 23.0978 361.125 21.8893 363.16 23.251C365.743 24.9801 365.509 31.0672 363.591 33.2261C362.573 34.3723 360.652 34.8334 359.203 35.1294C353.902 36.2124 348.462 35.9841 343.085 35.9841H321.015ZM144.21 36.4796L145.574 49.8577L148.425 59.5197C130.872 54.8316 112.507 55.8433 94.6151 53.3584C89.3383 52.6255 84.0934 51.5712 78.9928 50.036C76.921 49.4125 74.311 48.9054 72.5455 47.628C74.9682 46.9125 78.9921 46.649 81.4726 47.1325C81.6718 43.8356 78.6989 39.3071 77.5049 36.2318H87.9198C89.4258 36.2318 91.4439 35.8842 92.8793 36.3777C94.7905 37.0348 96.4935 38.935 98.3347 39.8839C102.752 42.1607 107.746 43.3564 112.717 43.4154C117.87 43.4767 123.112 42.7466 127.844 40.614C130.152 39.5734 132.198 37.4265 134.539 36.6254C137.223 35.7066 141.373 36.4796 144.21 36.4796ZM222.569 36.4796L225.793 82.5597C214.626 82.5597 202.449 83.2623 191.573 80.3264C188.358 79.4586 185.366 77.6576 182.398 76.1851C177.532 73.7717 172.629 71.4238 167.767 68.9951C163.451 66.8391 159.066 64.7794 154.873 62.3882C153.473 61.5902 151.214 61.0357 150.249 59.7022C145.899 53.6911 145.698 43.5558 145.698 36.4796L222.569 36.4796ZM224.413 36.6291C225.602 36.0261 227.949 36.4796 229.265 36.4796H241.167H266.957C270.526 36.4796 275.439 35.5973 278.86 36.6067C280.748 37.164 282.33 39.0556 284.067 39.9994C287.151 41.6753 292.437 43.0051 294.054 46.3893C295.777 49.995 292.015 54.6134 289.986 57.29C285.885 62.7017 281.175 67.6117 276.38 72.4023C273.28 75.4986 269.65 79.1163 265.717 81.1429C263.349 82.3629 260.109 81.8614 257.534 82.1063C250.514 82.7737 243.514 82.8075 236.456 82.8075H229.761C229.048 82.8072 227.8 83.0088 227.288 82.3758C226.539 81.4511 226.829 78.5347 226.775 77.3571C226.581 73.0843 226.405 68.7334 225.999 64.4745C225.325 57.3941 224.069 50.2951 224.057 43.1686C224.057 41.8512 222.993 37.3493 224.413 36.6291ZM354.739 49.3622L362.923 48.3712C362.922 52.2341 360.153 53.6063 356.723 54.6671C350.945 56.4545 345.025 57.3265 339.117 58.5296C330.527 60.2791 322.565 64.6102 314.568 68.0855C299.535 74.6183 284.582 80.6076 267.949 81.321C270.369 78.188 274.591 75.5983 277.539 72.8701C282.216 68.5419 286.463 63.5635 290.432 58.5897C292.818 55.5988 297.245 50.282 295.283 46.1416C294.485 44.4562 292.864 43.567 291.506 42.4254C292.818 42.2307 294.145 42.8073 295.474 42.8987C299.067 43.146 302.82 43.261 306.385 42.5963C309.809 41.9576 312.981 40.7524 316.056 39.1415C317.45 38.4109 318.768 37.0502 320.271 36.6067C321.964 36.1071 324.217 36.4796 325.974 36.4796H337.629H348.788C349.811 36.4796 352.012 36.0678 352.854 36.7342C353.548 37.2837 353.427 39.3676 353.5 40.1957C353.762 43.194 354.035 46.4385 354.739 49.3622ZM323.247 42.3088C320.505 42.9421 318.992 46.3196 320.865 48.6083C322.232 50.2788 324.469 50.6456 326.47 50.0909C329.226 49.3272 330.436 45.9206 328.564 43.71C327.306 42.225 325.069 41.8878 323.247 42.3088ZM207.718 44.5913C206.187 44.9195 206.096 47.6365 207.476 48.2217C209.201 48.9531 215.356 48.9531 217.081 48.2217C218.38 47.671 218.393 45.1952 217.059 44.6729C216.26 44.3604 215.222 44.6446 214.387 44.6542C212.333 44.6778 209.703 44.1657 207.718 44.5913ZM276.413 44.5553C275.006 44.9847 274.892 47.5611 276.201 48.1873C278.02 49.0576 281.568 48.3712 283.571 48.3712C284.301 48.3712 285.302 48.5375 285.982 48.2217C287.251 47.6322 287.006 45.1428 285.776 44.6668C284.931 44.3398 283.949 44.6304 283.075 44.6515C281.088 44.6993 278.287 43.9833 276.413 44.5553ZM126.852 44.9028C126.701 45.7178 126.394 46.7943 126.897 47.5492C127.507 48.466 130.913 48.4743 131.662 47.7262C133.633 45.7568 130.726 44.9029 129.332 44.9028H126.852ZM272.909 79.3391C278.247 79.2949 283.704 77.6248 288.779 76.0898C298.379 73.1864 307.122 69.609 316.056 65.0338C320.539 62.738 326.327 60.766 330.191 57.5377C326.622 56.9245 322.658 57.29 319.032 57.29C314.277 57.29 309.376 56.9574 304.649 57.466C302.106 57.7397 299.134 56.9863 296.714 58.0544C294.66 58.9611 292.922 60.9896 291.259 62.4541C287.92 65.394 284.564 68.3372 281.34 71.4017C278.762 73.852 274.679 76.2508 272.909 79.3391ZM153.633 57.7854C154.37 59.2387 156.027 60.1733 157.353 61.0692C160.382 63.1158 163.566 64.9381 166.776 66.6841C175.527 71.4448 185.063 77.0491 194.797 79.4691C198.767 80.456 202.894 80.5506 206.948 80.8475C211.042 81.1474 215.241 81.321 219.346 81.321C220.281 81.321 222.661 81.7466 223.307 80.9238C224.137 79.8665 223.244 75.9357 223.066 74.632C222.301 69.0521 222.285 63.3752 221.578 57.7854L153.633 57.7854ZM227.778 58.0332C229.021 63.2522 228.544 69.5139 228.779 74.8797C228.83 76.029 228.522 80.1122 229.415 80.8187C230.363 81.5692 232.396 80.8827 233.481 80.8353C236.97 80.6827 240.419 81.0733 243.896 81.0733C250.05 81.0733 257.848 82.0601 263.734 79.9864C270.082 77.7496 275.5 71.2103 279.359 65.961C281.152 63.5229 284.038 60.7646 284.811 57.7855L245.88 57.7855H233.977L227.778 58.0332ZM419.461 119.969C418.618 116.433 419.213 112.201 419.213 108.573V86.2759C419.213 83.3128 419.751 79.7525 419.082 76.8617C418.012 72.2364 413.206 73.6075 410.075 72.2528C408.878 71.735 408.789 70.1562 407.31 69.6754C405.786 69.1796 403.555 69.2486 402.103 69.9373C401.229 70.3519 400.398 71.4614 399.375 71.4226C397.308 71.3441 395.519 69.1433 393.424 68.9257C390.855 68.6588 386.53 71.9615 384.249 73.0851C383.41 73.4983 382.053 73.9066 381.528 74.7287C380.723 75.9897 381.273 78.8694 381.273 80.3301V94.4514V147.964V163.572C381.273 165.027 380.682 168.149 381.528 169.377C382.103 170.211 383.609 170.392 384.497 170.734C386.825 171.632 391.451 174.355 393.92 173.843C395.71 173.473 397.486 171.389 399.304 171.393C400.12 171.394 400.914 172.39 401.607 172.758C403.008 173.502 405.023 173.717 406.566 173.349C408.183 172.965 408.678 171.518 410.049 170.884C413.024 169.508 416.839 169.946 418.648 166.545C420.092 163.829 419.213 159.143 419.213 156.139V132.108C419.213 129.296 418.238 124.313 419.363 121.74C419.836 120.657 421.485 120.96 422.437 120.96C424.129 120.96 426.243 120.622 427.882 121.066C429.09 121.394 429.939 122.677 431.307 121.872C432.584 121.121 431.944 119.374 430.619 119.166C429.623 119.011 428.647 119.772 427.644 119.842C425.021 120.023 421.985 119.421 419.461 119.969ZM33.3663 100.397C33.3663 94.483 33.4725 88.487 33.6179 82.5597C33.6781 80.1091 34.5446 77.1135 33.1197 74.8835C30.6312 70.9893 24.5472 72.3474 20.7233 72.1312C18.8068 72.0229 17.4592 69.572 15.2642 69.256C13.8662 69.0547 11.9877 69.1896 10.8563 70.124C10.2172 70.6519 10.0331 71.6575 9.25714 72.0052C6.23883 73.3581 2.3485 72.1811 0.499035 75.8707C-0.345836 77.5562 0.137787 80.2223 0.137787 82.0643L0.137787 95.6901L0.137787 144.743L0.137787 159.608C0.137787 161.641 -0.364211 164.45 0.613822 166.297C2.54095 169.935 6.26873 169.163 9.30304 170.763C11.3628 171.849 12.0459 173.674 14.7683 173.407C17.2212 173.166 18.7594 170.963 20.9676 170.771C24.3985 170.473 28.7851 171.644 31.856 169.647C35.458 167.303 33.8622 159.157 33.8622 155.396C33.8622 151.663 34.8421 146.368 33.7834 142.798C33.3828 141.447 31.2705 142.021 30.9432 140.28C30.4913 137.876 30.8866 135.049 30.8866 132.604V117.244V104.609C30.8873 102.707 31.145 100.741 33.3663 100.397ZM391.192 83.0552L382.761 75.6229V75.1275C386.754 73.2371 391.609 69.1107 395.904 71.224C397.494 72.0066 399.908 72.573 399.296 74.8575C399.008 75.9364 397.694 76.8355 396.905 77.5592C394.972 79.334 392.911 81.0706 391.192 83.0552ZM13.0327 70.5056C14.8805 70.1246 17.6004 70.676 18.3383 72.651C18.8367 73.9847 18.4879 75.9476 18.4879 77.3571C18.4879 81.0856 18.122 85.0552 18.5586 88.7533C19.3696 95.6201 18.7357 102.894 18.7357 109.811L18.7357 149.946C18.7357 153.555 18.5111 157.246 18.758 160.846C18.9406 163.51 19.6302 167.113 18.905 169.723C18.5036 171.168 16.6089 171.97 15.2642 172.168C13.9851 172.356 12.2607 172.254 11.5515 170.978C10.861 169.736 11.2966 167.435 11.2966 166.049V154.157L11.2966 92.9649V75.8707C11.2966 74.0333 10.6328 71.0005 13.0327 70.5056ZM404.831 70.5142C405.856 70.4513 407.4 70.6467 407.87 71.7059C408.482 73.085 408.054 75.3739 408.054 76.8617V89.0011V150.194V167.04C408.054 169.03 408.558 172.003 405.823 172.228C404.138 172.367 401.82 172.159 400.907 170.485C400.204 169.196 400.615 166.982 400.615 165.554V153.91V92.4695V79.5868C400.615 77.6477 400.248 75.2798 400.719 73.3933C401.183 71.5337 403.048 70.6236 404.831 70.5142ZM9.80876 73.1455L9.80876 138.302L9.80876 158.865L10.0568 169.27C7.37338 169.947 2.60433 168.018 1.65263 165.305C1.07267 163.652 1.37768 161.584 1.37768 159.856L1.37768 149.202L1.37768 93.9558L1.37768 80.8254C1.37768 79.0367 1.08264 76.8359 2.42601 75.4217C4.37828 73.3665 7.31 73.7398 9.80876 73.1455ZM32.6223 77.357L19.9757 77.6047V73.3931C24.1538 73.0637 31.3787 72.0164 32.6223 77.357ZM409.542 169.765L409.294 169.517L409.542 155.644V129.383V93.4603L409.294 73.6409C411.66 72.9909 416.385 73.888 417.475 76.3882C418.109 77.8429 417.723 80.0103 417.725 81.5686V92.7171V149.946C417.725 153.652 417.581 157.391 417.744 161.094C417.828 162.999 418.183 165.196 416.884 166.781C415.217 168.815 411.979 169.293 409.542 169.765ZM382.761 76.1183L390.448 83.3028V83.7983L382.761 90.7351L382.513 80.8254L382.761 76.1183ZM399.375 76.1183V91.2306C396.492 89.695 393.065 85.9597 391.192 83.3028L399.375 76.1183ZM44.2771 165.801H52.9561V142.761V95.69V82.5596L52.8697 77.7542L50.9724 77.357L44.6424 77.5065L44.2771 82.5596V98.6629V165.801ZM70.8102 77.6047C69.3849 85.1627 68.5968 92.8369 67.1861 100.397C66.8574 102.159 65.2758 103.434 65.0363 105.104C64.4317 109.32 65.1069 114.202 65.1069 118.482C65.1069 124.825 64.5043 131.493 65.133 137.806C65.312 139.604 66.7836 140.98 67.173 142.761C68.7501 149.972 70.737 158.191 71.0584 165.553H122.389C130.786 165.553 139.573 166.305 147.93 165.528C150.798 165.261 153.728 164.126 156.567 163.576C166.636 161.627 176.636 158.944 186.757 157.308C192.683 156.35 198.975 156.639 204.964 156.377C215.211 155.929 225.437 155.594 235.713 155.644C250.055 155.713 264.832 155.562 279.108 156.925C297.502 158.68 315.53 163.923 333.91 165.759C343.865 166.753 354.402 165.801 364.411 165.801C365.418 158.013 367.33 150.348 368.089 142.513C368.748 135.708 368.131 128.543 368.131 121.703C368.131 114.268 368.716 106.547 367.924 99.1584C367.362 93.9134 366.586 88.7256 365.552 83.5506C365.263 82.1062 365.265 79.0924 364.199 78.0081C363.345 77.1397 360.357 77.6047 359.204 77.6047H344.821C323.927 77.6047 302.972 83.1188 282.332 86.1714C277.216 86.928 272.107 86.8035 266.958 87.0287C255.224 87.542 243.513 87.7433 231.746 87.7622C220.693 87.78 209.567 87.7972 198.517 87.0411C194.414 86.7604 190.195 87.0788 186.118 86.4501C176.239 84.9262 166.344 81.8187 156.61 79.5286C154.095 78.9369 151.483 77.9575 148.922 77.6504C141.941 76.8131 134.384 77.6047 127.349 77.6047C108.575 77.6047 89.5572 78.4938 70.8102 77.6047ZM32.6228 78.1002L32.3748 80.8254H32.1268V78.3479H20.2241L20.2241 89.2486L19.7282 80.8254L20.3029 78.1778L23.9437 78.1002H32.6228ZM52.4607 165.306H44.7734V77.8525C46.419 77.8525 50.7586 77.0749 52.063 78.1071C53.0195 78.8639 52.4607 82.1816 52.4607 83.3028V99.1584V165.306ZM4.60559 78.2619C1.74462 79.187 2.15489 87.8947 6.58457 86.6292C9.73172 85.7301 9.39562 76.7132 4.60559 78.2619ZM14.2863 78.5787C12.7337 78.9992 13.468 81.2247 15.0021 80.6711C16.4406 80.152 15.6844 78.2001 14.2863 78.5787ZM412.777 78.5319C411.407 79.0896 411.527 80.5871 411.526 81.8164C411.526 84.301 411.8 88.0869 415.483 86.5873C416.931 85.9979 416.734 84.3369 416.734 83.0551C416.734 80.5467 416.385 77.0628 412.777 78.5319ZM5.1013 78.7033C8.55748 77.7412 8.56797 85.5621 6.3316 86.1674C2.8014 87.1228 2.82937 79.3358 5.1013 78.7033ZM404.143 78.7808C402.683 79.4335 403.995 81.193 405.289 80.6721C406.789 80.0686 405.511 78.1689 404.143 78.7808ZM413.758 78.7226C417.179 78.1421 417.259 85.7643 414.745 86.219C411.196 86.8609 411.268 79.1451 413.758 78.7226ZM147.681 78.8435V79.0912L96.8467 94.7472L77.7528 100.61L67.5859 103.618C69.7057 98.2022 70.0291 91.5419 70.8419 85.7803C71.0428 84.3561 71.0424 80.0062 72.1989 79.0981C73.2276 78.2902 76.2382 78.8435 77.5048 78.8435H91.8873L147.681 78.8435ZM334.38 78.9509C335.7 79.0033 336.671 81.307 337.225 82.3119C339.305 86.0831 340.78 90.0035 341.702 94.2035C343.74 103.489 342.837 113.483 342.837 122.942C342.837 130.788 343.679 139.263 341.987 146.973C340.96 151.655 339.554 156.318 337.354 160.599C336.664 161.942 335.956 164.492 334.156 164.526C330.355 164.597 326.246 163.29 322.503 162.689C313.165 161.191 303.838 159.566 294.482 158.188C291.169 157.701 287.88 157.094 284.563 156.635C283.551 156.495 281.3 156.486 280.58 155.708C279.829 154.897 279.694 152.977 279.461 151.928C278.752 148.741 277.969 145.506 277.581 142.266C276.835 136.038 277.124 129.706 277.124 123.437C277.124 116.677 276.877 109.858 277.349 103.122C277.623 99.2181 278.543 95.5228 279.441 91.7261C279.707 90.6023 279.709 88.5489 280.722 87.8029C281.706 87.0779 283.633 87.1427 284.811 86.9226C288.339 86.2635 291.927 85.7641 295.474 85.2167C304.322 83.8514 313.177 82.4447 322.007 80.9653C325.876 80.3171 330.465 78.7956 334.38 78.9509ZM363.418 164.562C356.763 165.797 349.11 164.81 342.341 164.81C340.357 164.81 338.07 164.434 336.141 164.81C335.984 162.452 338.622 159.128 339.514 156.882C341.554 151.746 342.768 146.514 343.29 141.027C344.047 133.084 343.333 124.73 343.333 116.748C343.333 109.945 344.054 102.634 342.672 95.9377C341.9 92.1993 340.825 88.4859 339.171 85.037C338.201 83.0155 336.45 80.9853 335.894 78.8435H355.731C357.379 78.8435 361.672 78.0732 362.99 79.0981C364.105 79.965 364.098 83.2269 364.361 84.5416C365.451 89.9888 366.509 95.5821 366.646 101.14C366.957 113.793 367.735 126.89 366.868 139.54C366.294 147.916 363.777 156.222 363.418 164.562ZM147.434 79.8344C144.809 86.9956 139.6 93.059 137.773 100.645C136.441 106.175 137.267 112.573 137.267 118.235C137.267 126.737 135.909 136.534 138.367 144.743C140.443 151.672 144.933 157.288 147.682 163.819C141.231 162.947 134.276 159.717 128.092 157.644C115.427 153.4 102.588 149.669 89.9038 145.486C84.3824 143.665 78.8499 141.873 73.2896 140.176C71.0058 139.479 68.7133 138.403 66.3463 138.054V123.437C67.7751 123.499 70.2768 124.877 71.544 124.227C74.9078 122.501 75.3807 117.408 71.296 116.178C70.0256 115.795 67.8204 116.852 66.5943 117.244L66.3463 107.829L66.9211 104.573L74.0335 102.254L90.8957 97.0713L130.571 84.8585L147.434 79.8344ZM146.938 82.0641C146.499 86.4624 144.685 90.7389 144.252 95.1945C143.613 101.768 144.12 108.418 143.958 115.014C143.705 125.37 142.74 136.157 143.756 146.477C144.265 151.649 146.031 156.558 147.186 161.59H146.938C142.984 155.136 139.066 147.833 137.843 140.284C136.662 132.994 137.763 124.636 137.763 117.244C137.763 112.583 137.179 107.487 137.837 102.875C138.486 98.3264 140.741 94.1049 142.646 89.9919C143.847 87.3972 145.108 84.2703 146.938 82.0641ZM398.383 91.4783H383.256L388.712 85.7803L390.944 84.2743L393.175 86.028L398.383 91.4783ZM313.328 84.6467C305.555 85.6663 297.887 87.1318 290.266 89.0323C288.372 89.5047 283.888 89.6912 282.544 91.1314C281.78 91.949 281.704 93.8841 281.488 94.9467C280.841 98.1343 280.101 101.337 280.1 104.609V138.302C280.1 141.715 280.628 145.104 281.234 148.459C281.42 149.487 281.397 151.456 282.229 152.192C283.02 152.891 284.562 152.962 285.555 153.167C288.042 153.682 290.518 154.302 292.994 154.871C301.762 156.885 310.515 158.617 319.527 158.617C321.826 158.617 324.438 158.965 326.704 158.58C328.391 158.293 327.462 154.429 327.462 153.166V135.824V97.4242C327.462 94.2887 327.393 91.1445 327.462 88.0099C327.482 87.1657 328.03 85.4331 327.269 84.7962C326.503 84.1553 324.435 84.5415 323.491 84.5415C320.159 84.5415 316.629 84.2132 313.324 84.6467M278.856 87.7622L275.89 103.122L275.88 124.676L275.923 140.036L278.856 155.891L269.433 155.386L251.331 154.9L214.631 154.663L186.858 156.139L184.897 142.266L184.874 124.18L184.884 101.636L186.858 87.7622L218.847 88.9973L255.299 88.5091L278.856 87.7622ZM20.2197 89.9919V91.2306H19.9718L20.2197 89.9919ZM21.7075 91.7261L21.7075 151.928H20.2197L19.9718 91.7261H21.7075ZM22.7781 91.8767C24.4377 91.0953 24.4348 93.2208 24.4353 94.2035V103.865L24.4353 140.284V148.955C24.4353 149.74 24.734 151.316 23.8607 151.743C22.3238 152.494 22.2055 150.688 22.2035 149.698V141.027L22.2035 104.856V95.1945C22.2035 94.3487 21.8286 92.3238 22.7781 91.8767ZM24.9312 151.928L24.9312 91.7261L26.9081 92.1233L27.163 95.1945V102.875V139.293L27.163 148.211L26.9081 151.53L24.9312 151.928ZM32.1224 91.7261V99.4061C28.7242 100.75 29.3948 105.127 29.3948 108.077V133.842C29.3948 136.949 28.251 142.263 32.3705 143.009L32.6184 151.68C31.6854 151.955 28.6091 152.436 27.9101 151.528C27.3401 150.787 27.6589 149.094 27.6589 148.211V139.788L27.6589 103.37V94.9467C27.6589 94.1661 27.3573 92.534 28.0565 91.9807C28.9019 91.3118 31.0891 91.7261 32.1224 91.7261ZM387.716 92.4693C388.713 95.837 387.965 100.353 387.965 103.865C384.896 103.902 385.981 108.014 385.981 110.307V131.613C385.981 133.997 384.781 139.007 387.965 139.045V151.184L382.907 150.93L382.509 147.22V136.815V92.7171L387.716 92.4693ZM395.9 92.4693V106.591V135.081L396.148 150.937L388.46 151.184V139.045C391.147 138.84 390.196 134.588 390.196 132.604V111.298C390.196 109.219 391.254 104.078 388.46 103.865V95.69L388.858 92.7239L395.9 92.4693ZM399.123 92.4693L399.371 98.9106V111.05V151.184H396.644V106.343V96.4332L396.898 92.8667L399.123 92.4693ZM207.192 100.502C204.047 100.92 201.149 101.891 199.513 104.856C198.163 107.305 198.513 110.09 198.513 112.784V127.649C198.513 131.43 197.583 136.529 199.911 139.788C203.032 144.157 208.686 143.504 213.391 143.504C215.338 143.504 217.413 143.705 219.342 143.43C230.117 141.892 227.526 129.684 227.526 121.703C227.526 116.977 228.893 109.684 226.841 105.352C223.806 98.9458 213.103 99.7173 207.192 100.502ZM207.192 100.963C212.83 100.29 223.15 99.404 226.157 105.352C228.393 109.773 227.03 117.095 227.03 121.951C227.03 128.436 229.555 141.489 220.334 142.716C214.706 143.466 203.839 144.778 200.306 139.251C198.258 136.045 199.009 131.517 199.009 127.897V114.518C199.009 107.949 199.238 101.914 207.192 100.963ZM389.7 104.609V138.302L386.725 138.549L386.477 127.649V104.609H389.7ZM13.7094 106.845C12.5737 107.771 14.302 109.421 15.3959 108.423C16.5153 107.402 14.6754 106.058 13.7094 106.845ZM404.14 106.778C402.702 107.4 403.975 109.398 405.286 108.753C406.76 108.027 405.507 106.188 404.14 106.778ZM258.77 115.262C260.038 117.862 263.801 120.122 265.962 122.021C266.994 122.929 267.796 123.9 269.185 124.18L262.843 118.481L258.77 115.262ZM66.8388 122.198V118.235C68.1074 117.944 70.0735 116.915 71.2986 117.651C73.4925 118.968 73.6026 122.247 70.8027 122.997C69.6348 123.31 67.9809 122.46 66.8388 122.198ZM14.5173 134.577C13.0928 134.665 13.0355 136.742 14.5173 136.742C16.1004 136.742 16.1534 134.476 14.5173 134.577ZM404.139 134.773C402.671 135.405 403.925 137.411 405.286 136.726C406.754 135.986 405.496 134.189 404.139 134.773ZM67.3347 138.549L77.0057 141.777L95.3557 147.653L146.686 164.067V164.315H93.372H78.7415C77.1241 164.315 74.1022 164.901 72.6497 164.165C71.4932 163.579 71.4491 159.57 71.2403 158.369C70.3505 153.253 69.286 148.149 68.542 143.009C68.3402 141.614 66.9795 139.847 67.3347 138.549ZM398.875 152.175C397.752 154.581 395.025 156.277 393.172 158.121C392.609 158.682 391.819 159.786 390.941 159.808C390.031 159.831 389.18 158.642 388.597 158.069C386.898 156.399 383.743 154.47 383.005 152.175H398.875ZM32.3705 152.423L32.6184 164.562C29.2475 165.558 24.7277 164.81 21.2116 164.81V164.562H32.1224C32.1224 161.147 31.0539 155.558 32.3705 152.423ZM383.005 153.166C385.293 155.452 389.069 157.9 390.444 160.846L382.757 167.783L382.509 157.13L383.005 153.166ZM399.371 153.166V168.031C397.087 166.967 392.127 162.561 391.436 160.103L399.371 153.166ZM4.84628 156.797C1.76645 157.737 2.04059 166.625 6.58007 165.246C9.69241 164.301 9.26592 155.449 4.84628 156.797ZM413.011 157.066C410.071 158.205 410.667 166.946 415.237 165.342C418.14 164.323 417.654 155.268 413.011 157.066ZM6.3284 157.363C8.47096 157.789 8.70039 165.432 5.10428 164.753C2.81196 164.321 2.78228 156.658 6.3284 157.363ZM413.272 157.505C417.176 156.245 417.288 164.13 414.979 164.855C411.237 166.031 411.312 158.138 413.272 157.505ZM68.0787 196.274V196.521L79.9814 197.512C78.7702 199.638 78.0287 204.884 75.9457 206.176C74.8765 206.84 73.2049 206.244 72.0462 206.193C69.1178 206.065 64.0104 205.301 61.4066 206.779C58.6904 208.32 59.4478 212.751 59.0771 215.35C58.8919 216.649 58.4823 217.826 59.3695 218.991C60.5649 220.56 63.2676 220.902 65.103 221.048L68.4888 227.737L70.1432 229.817L75.5179 229.967H88.4125C90.3429 214.786 101.955 203.063 117.921 205.549C125.797 206.775 132.305 211.189 135.996 218.323C137.442 221.117 138.282 223.942 138.969 226.994C139.163 227.851 139.026 229.575 140.048 229.888C143.576 230.969 148.936 229.967 152.638 229.967H180.907L274.145 229.967C275.614 222.852 278.569 216.121 284.064 211.18C292.246 203.824 305.995 203.03 314.387 210.523C318.334 214.047 321.022 218.389 322.945 223.278C323.472 224.618 324.035 229.203 325.305 229.817C327.398 230.83 331.407 229.827 333.658 229.729C340.228 229.441 346.98 230.555 353.496 229.925C355.898 229.692 357.724 228.83 358.699 226.498C359.243 225.197 359.356 223.433 360.352 222.365C361.857 220.752 364.18 221.488 365.509 219.066C366.99 216.365 366.759 210.572 364.146 208.571C361.703 206.701 357.471 206.245 354.488 206.183L355.976 195.035L363.663 196.026C367.709 188.809 354.546 186.482 350.025 185.459C344.979 184.319 339.541 184.014 334.65 182.291C318.702 176.673 303.959 167.019 287.287 163.571C266.866 159.347 246.501 159.328 225.79 159.36C214.212 159.378 201.278 158.479 190.082 161.945C186.902 162.93 183.903 164.855 180.907 166.291C174.604 169.31 168.243 172.278 162.061 175.537C155.81 178.832 149.926 182.237 142.967 183.781C118.455 189.22 90.8872 183.793 68.0787 196.274ZM222.318 206.679L213.639 206.431H197.521H145.694C145.694 200.722 146.21 195.086 147.821 189.585C148.43 187.504 149.003 184.933 150.397 183.211C151.327 182.064 153.331 181.515 154.621 180.849C157.688 179.268 160.709 177.599 163.796 176.057C169.079 173.42 174.388 170.849 179.667 168.212C183.181 166.457 186.824 164.228 190.578 163.048C194.2 161.91 197.994 161.656 201.736 161.3C207.532 160.749 213.276 160.737 219.095 160.595C220.564 160.559 224.156 159.604 225.392 160.606C226.057 161.145 225.571 162.596 225.545 163.324C225.448 165.966 225.172 168.611 225.056 171.252C224.702 179.314 223.621 187.256 222.856 195.283C222.512 198.891 223.343 203.215 222.318 206.679ZM224.054 206.679C223.349 203.719 224.074 200.268 224.28 197.265C224.827 189.285 226.234 181.236 226.286 173.234C226.306 170.152 226.491 166.881 226.853 163.819C226.946 163.025 226.771 161.416 227.285 160.783C227.863 160.069 229.449 160.351 230.253 160.351H238.188C243.923 160.351 249.587 160.587 255.299 160.837C258.229 160.965 262.199 160.558 264.97 161.544C267.354 162.393 269.525 164.544 271.417 166.155C278.624 172.289 285.404 179.449 290.969 187.107C292.893 189.754 295.976 194.271 293.608 197.509C291.494 200.4 286.629 201.723 283.568 203.401C282.021 204.249 280.528 206.02 278.853 206.51C277.605 206.874 275.941 206.431 274.641 206.431H264.474H237.445C233.207 206.431 228.18 205.697 224.054 206.679ZM399.371 170.013L393.668 172.589L390.196 171.578L382.757 168.774C384.234 166.68 386.407 165.126 388.212 163.324C388.846 162.691 389.733 161.435 390.692 161.322C391.637 161.211 392.538 162.435 393.149 163.002C395.093 164.805 398.952 167.3 399.371 170.013ZM153.63 185.373H221.574L223.558 161.837C213.889 161.837 203.493 161.424 194.049 163.793C185.498 165.939 176.959 170.975 169.252 175.139C165.48 177.177 161.686 179.183 158.093 181.532C156.501 182.573 154.562 183.665 153.63 185.373ZM362.919 194.787C361.18 194.567 356.554 193.109 355.063 194.054C354.183 194.612 354.312 196.593 354.202 197.512C353.834 200.571 353.387 203.623 353 206.679H331.179C327.821 206.679 323.756 207.307 320.474 206.584C317.934 206.025 315.348 203.351 312.829 202.332C306.254 199.671 298.351 199.21 291.503 200.981C292.647 198.965 295.171 198.434 295.637 195.778C296.37 191.6 292.653 187.39 290.264 184.382C286.287 179.377 282.072 174.388 277.359 170.051C274.704 167.608 269.993 164.897 268.193 161.837C285.063 162.185 300.363 168.916 315.556 175.431C323.604 178.882 331.438 183.106 340.106 184.726C346.082 185.843 352.232 186.736 357.96 188.855C360.818 189.912 363.311 191.473 362.919 194.787ZM228.022 185.373H284.808C284.16 182.122 280.637 178.736 278.608 176.206C274.763 171.412 270.117 165.595 264.226 163.265C258.274 160.91 250.176 162.085 243.892 162.085C240.5 162.085 237.108 162.326 233.729 162.206C232.624 162.166 230.333 161.61 229.411 162.34C228.53 163.037 228.797 167.144 228.769 168.279C228.627 173.982 228.022 179.659 228.022 185.373ZM13.8512 162.835C12.595 163.674 14.0385 165.244 15.2223 164.554C16.6558 163.72 15.0802 162.015 13.8512 162.835ZM404.12 162.84C402.625 163.664 404.183 165.511 405.492 164.693C406.795 163.879 405.333 162.171 404.12 162.84ZM272.905 163.819C274.034 165.749 276.478 167.259 278.112 168.78C282.189 172.575 286.321 176.321 290.511 179.993C292.398 181.647 294.76 184.496 297.206 185.247C300.505 186.26 304.702 185.621 308.117 185.621H329.939C328.783 184.277 326.794 183.617 325.227 182.829C322.566 181.49 319.913 180.081 317.292 178.664C307.9 173.589 298.295 169.664 288.031 166.757C283.135 165.371 278.017 163.819 272.905 163.819ZM20.2197 169.517C20.2197 168.568 19.7919 166.214 20.6173 165.56C21.2246 165.08 22.4737 165.306 23.1954 165.306H29.6427C30.3506 165.306 31.6285 165.074 32.2171 165.56C33.0195 166.223 32.0928 167.696 31.5708 168.226C30.0209 169.798 27.4398 169.517 25.4271 169.517H20.2197ZM148.67 183.639C146.444 189.059 145.216 194.428 144.525 200.238C144.274 202.347 144.605 204.636 144.207 206.679C141.137 205.949 137.451 207.369 134.536 206.466C132.363 205.794 130.45 203.693 128.336 202.722C122.896 200.224 116.936 199.357 110.978 199.764C106.773 200.052 102.308 201.008 98.5794 203.04C96.6718 204.08 94.8915 206.027 92.876 206.746C91.4309 207.262 89.4347 206.927 87.9165 206.927H77.7496L81.4692 196.026L72.5422 195.778L77.2536 193.584L91.3881 190.266L126.848 187.065L140.487 185.469L148.67 183.639ZM207.118 195.042C206.134 195.785 206.341 197.874 207.473 198.354C209.384 199.164 212.811 198.503 214.879 198.503C215.612 198.503 216.808 198.72 217.432 198.249C218.416 197.506 218.209 195.416 217.078 194.937C215.167 194.127 211.74 194.787 209.672 194.787C208.939 194.787 207.742 194.571 207.118 195.042ZM275.987 195.042C275.007 195.706 275.072 197.855 276.185 198.354C278.094 199.209 281.729 198.503 283.816 198.503C284.527 198.503 285.567 198.676 286.188 198.249C287.106 197.618 287.037 195.408 285.991 194.937C284.087 194.079 280.443 194.787 278.36 194.787C277.645 194.787 276.613 194.617 275.987 195.042ZM126.848 195.035C126.697 195.85 126.39 196.927 126.893 197.682C127.489 198.577 130.855 198.599 131.659 197.964C133.883 196.204 130.61 195.035 129.328 195.035H126.848ZM142.719 220.057C141.575 220.057 139.384 220.48 138.413 219.803C137.201 218.956 136.427 216.359 135.603 215.102C133.927 212.546 131.652 210.146 129.08 208.473C119.973 202.548 106.262 202.394 97.5878 209.284C93.8464 212.256 91.5475 216.138 89.4046 220.305L85.4371 220.057C87.611 212.404 92.75 206.091 100.068 202.792C115.325 195.916 138.571 202.151 142.719 220.057ZM328.699 220.057C327.21 220.057 324.698 220.545 323.341 219.908C322.376 219.455 321.809 217.711 321.294 216.836C320.189 214.959 318.81 213.192 317.289 211.634C313.102 207.346 307.566 204.231 301.422 204.202C294.353 204.168 288.257 205.834 282.846 210.578C280.962 212.23 279.344 214.225 278.011 216.341C277.379 217.343 276.805 219.154 275.784 219.803C274.786 220.436 272.81 220.057 271.665 220.057C272.273 217.502 273.862 215.041 275.302 212.873C287.799 194.064 322.471 196.836 328.699 220.057ZM113.706 207.074C108.217 207.272 102.567 209.207 98.622 213.162C91.1488 220.655 92.448 232.92 101.059 238.942C105.682 242.176 110.903 243.082 116.434 242.84C119.073 242.724 121.737 241.89 124.121 240.791C126.304 239.784 128.39 238.326 130.009 236.547C131.504 234.905 132.754 233.025 133.588 230.958C138.764 218.132 126.09 206.627 113.706 207.074ZM145.943 220.057H143.215C141.984 214.742 138.276 211.424 135.28 207.175L141.727 207.171L144.057 207.191L144.598 210.395L145.943 220.057ZM222.318 206.927L224.054 220.057L147.182 220.057L145.695 207.174H196.777H213.143L222.318 206.927ZM278.36 207.422C275.725 209.719 273.83 212.802 272.181 215.845C271.626 216.869 270.907 219.397 269.832 219.908C267.501 221.015 262.597 220.057 260.01 220.057H235.957H228.518C227.743 220.057 226.342 220.316 225.692 219.802C225.057 219.301 225.083 217.59 224.951 216.836C224.437 213.912 223.56 209.847 224.054 206.927L237.445 207.174H263.978L273.897 207.174L278.36 207.422ZM296.711 207.281C293.529 207.736 290.54 208.679 287.783 210.352C278.452 216.015 276.136 228.58 283.838 236.652C288.579 241.621 296.19 243.732 302.91 242.775C305.824 242.36 308.829 241.406 311.341 239.861C313.464 238.554 315.314 236.912 316.821 234.922C317.996 233.372 318.948 231.582 319.514 229.719C323.67 216.064 309.322 205.477 296.711 207.281ZM329.195 220.057C327.923 214.707 324.017 211.437 321.012 207.175C331.344 207.175 341.677 207.125 352.009 207.175C355.161 207.19 361.562 207.304 363.731 209.994C365.37 212.027 365.952 219.143 362.67 219.979C359.512 220.783 355.271 220.057 352.009 220.057H329.195ZM92.1324 207.422C89.7488 211.23 85.1565 215.132 85.1891 220.057H70.5587C67.7997 220.057 64.4875 220.333 61.8805 219.262C61.1883 218.978 60.4767 218.559 60.2515 217.802C59.9386 216.749 60.4176 215.642 60.5653 214.607C60.8691 212.477 59.9964 209.286 62.1411 207.854C64.0206 206.599 68.3546 207.422 70.5587 207.422H92.1324ZM89.1567 220.553L87.1729 228.728H75.2701C74.0247 228.728 71.7395 229.164 70.6554 228.474C68.7591 227.266 67.1909 222.774 66.0951 220.801L73.7823 220.553H89.1567ZM149.414 228.728H140.487L138.751 220.553C140.457 220.553 144.403 219.816 145.816 220.807C146.504 221.29 146.685 222.531 146.935 223.278C147.584 225.222 148.64 226.865 149.414 228.728ZM225.542 228.728L166.276 228.728H155.862C154.546 228.728 152.602 229.082 151.399 228.474C149.022 227.272 147.786 223.014 147.678 220.553H206.448H219.095L223.908 220.807L224.583 223.03L225.542 228.728ZM269.681 220.553C269.428 222.242 268.189 227.465 266.792 228.474C266.058 229.004 264.587 228.728 263.73 228.728H256.291H227.03L225.542 220.801C229.671 219.581 235.365 220.553 239.677 220.553H269.681ZM275.633 220.801L272.765 228.474L268.442 228.728C269.064 224.574 270.588 219.311 275.633 220.801ZM359.944 220.553C358.799 222.589 357.92 226.725 355.966 228.052C353.839 229.496 349.739 228.728 347.297 228.728H325.971L323.492 220.801C326.931 219.785 331.56 220.553 335.146 220.553H359.944Z" fill="#304A6E"/>
</svg>
