<svg width="72" height="81" viewBox="0 0 72 81" fill="none" xmlns="http://www.w3.org/2000/svg">
<rect width="72" height="81" fill="#1A1E26"/>
<rect x="-498" y="-515" width="980" height="753" rx="4" fill="white"/>
<path d="M111.973 -80.8114C107.063 -79.8295 102.592 -78.4369 98.8727 -74.8876C91.8342 -68.1717 91.979 -56.7525 99.3274 -50.2903C104.639 -45.6191 112.075 -43.9999 118.916 -45.3751C122.025 -46 125.08 -47.2332 127.596 -49.1818C129.444 -50.6142 131.037 -52.1432 132.224 -54.1825C139.018 -65.8526 130.372 -78.4265 117.925 -80.4792C115.951 -80.8047 113.987 -81.2142 111.973 -80.8114ZM297.209 -80.7629C291.455 -79.3205 286.215 -77.7675 282.458 -72.7633C276.338 -64.6093 279.2 -53.6019 287.538 -48.2591C292.751 -44.9188 299.465 -44.1236 305.393 -45.6044C313.383 -47.6007 320.454 -54.4146 320.239 -63.1013C320.009 -72.3856 312.253 -78.8131 303.657 -80.4234C301.56 -80.8162 299.34 -81.297 297.209 -80.7629ZM76.5129 -44.2728L79.9846 -35.1063L72.0494 -34.633L68.0818 -34.1154C92.3092 -22.2961 119.449 -27.3105 144.954 -21.2614C150.059 -20.0505 154.492 -17.4075 159.088 -14.9849C165.936 -11.3749 172.951 -8.03899 179.918 -4.66839C183.134 -3.11241 186.424 -1.0168 189.837 0.0507716C201.317 3.6417 214.648 2.79831 226.537 2.79831C241.466 2.79831 256.08 2.58888 270.924 1.10598C279.34 0.265261 288.276 -0.923718 296.217 -3.93835C309.262 -8.88998 321.659 -15.8998 334.901 -20.2691C340.248 -22.0331 346.05 -22.3855 351.516 -23.6815C356.945 -24.9689 365.845 -26.5772 363.914 -33.8676L355.979 -32.8767C355.341 -35.4651 355.225 -38.171 354.844 -40.8044C354.723 -41.6347 354.206 -43.1597 354.89 -43.8412C355.9 -44.8482 359.271 -44.596 360.69 -45.017C365.521 -46.4502 367.69 -51.3374 365.866 -56.1645C365.428 -57.3233 364.555 -58.651 363.395 -59.186C362.223 -59.7261 360.819 -59.4209 360.049 -60.6508C358.838 -62.5844 359.03 -65.074 357.147 -66.6219C355.145 -68.2672 352.188 -67.8084 349.78 -67.8084H332.669C330.696 -67.8084 327.092 -68.5095 325.305 -67.6589C324.032 -67.0526 323.463 -62.4644 322.951 -61.1193C321.213 -56.5549 318.469 -52.0607 314.815 -48.7745C306.087 -40.9235 292.031 -41.6345 283.571 -49.4976C278.4 -54.3031 275.552 -61.0059 274.148 -67.8084H180.91H152.641C148.939 -67.8084 143.58 -68.8104 140.051 -67.7296C139.024 -67.4152 139.133 -65.6987 138.981 -64.8355C138.479 -61.9812 137.506 -59.2412 136.213 -56.66C132.824 -49.8929 126.697 -44.9864 119.164 -43.6445C102.773 -40.7245 90.4678 -51.9322 88.4155 -67.8084H75.2729C73.8296 -67.8084 71.1464 -68.321 69.8827 -67.5538C67.6138 -66.1762 66.7887 -61.7281 65.146 -59.666C63.8464 -58.0345 61.1037 -58.6466 59.5437 -57.1132C58.3625 -55.9522 58.9581 -54.6035 59.1116 -53.1916C59.4034 -50.5071 58.7642 -46.4068 61.3902 -44.7035C62.7238 -43.8385 64.5854 -44.0251 66.0979 -44.0251C69.5783 -44.0251 73.0271 -44.2728 76.5129 -44.2728ZM87.1756 -66.5697L89.1594 -58.3942L66.3458 -58.6419C66.956 -60.5682 69.0533 -65.4983 70.8622 -66.4873C72.0656 -67.1452 74.4163 -66.8174 75.7689 -66.8174C79.5819 -66.8174 83.3754 -66.5697 87.1756 -66.5697ZM149.417 -66.8174L146.902 -61.1193L145.819 -58.6674L138.754 -58.3942L140.49 -66.5697L149.417 -66.8174ZM225.545 -66.8174L224.057 -58.3942C204.784 -59.6849 185.108 -58.6419 165.783 -58.6419C161.202 -58.6419 156.446 -59.0012 151.897 -58.4649C151.001 -58.3594 148.009 -57.9134 147.806 -59.194C147.668 -60.0616 148.279 -61.2975 148.553 -62.1103C149.032 -63.5296 149.773 -65.5587 151.175 -66.3151C152.249 -66.894 154.4 -66.802 155.616 -66.8165C158.839 -66.8547 162.064 -66.8172 165.287 -66.8172H205.707C212.24 -66.8172 219.046 -66.2426 225.545 -66.8174ZM269.684 -58.394L249.35 -58.6417L225.793 -58.394L225.545 -58.6417L227.033 -66.5695C236.516 -66.5702 246.046 -66.8172 255.55 -66.8172C258.428 -66.8172 264.09 -67.8991 266.64 -66.4594C268.137 -65.614 269.515 -60.0479 269.684 -58.394ZM273.156 -66.5695L275.388 -58.394H271.42L268.444 -66.5695H273.156ZM359.947 -58.6417H352.011H334.901H323.494L325.974 -66.5695H347.3C349.758 -66.5695 353.783 -67.3276 355.956 -66.005C358.24 -64.6144 358.204 -60.6575 359.947 -58.6417ZM85.1919 -57.8985C85.6571 -52.5746 90.0089 -49.6465 92.1351 -45.2636C84.8501 -45.2636 77.5658 -45.2753 70.3135 -45.2636C68.1105 -45.2599 63.818 -44.4525 61.9512 -45.7812C60.0891 -47.1067 60.8047 -50.5326 60.5994 -52.4481C60.4943 -53.4291 60.0448 -54.4188 60.2068 -55.4172C60.3408 -56.2426 60.906 -56.7303 61.6382 -57.0652C64.8883 -58.5517 68.8711 -57.936 72.2972 -57.8994C76.4524 -57.8551 81.1173 -58.57 85.1919 -57.8985ZM142.722 -57.8987C138.459 -39.9267 114.564 -33.4423 99.3264 -41.005C92.2441 -44.5201 87.8422 -50.5224 85.4398 -57.8987C90.5853 -59.16 91.418 -53.741 94.2251 -50.4664C97.6076 -46.5205 102.155 -43.7723 107.261 -42.7034C115.183 -41.0454 124.139 -42.371 130.571 -47.4944C132.848 -49.3083 134.674 -51.4729 136.218 -53.9348C136.898 -55.0204 137.499 -57.1558 138.609 -57.8417C139.552 -58.4246 141.714 -58.1834 142.722 -57.8987ZM145.945 -58.1464L144.21 -44.7683C141.635 -45.3805 137.857 -45.3805 135.283 -44.7683L139.392 -49.9709L143.466 -58.1464H145.945ZM222.569 -45.016L145.697 -45.016L146.689 -54.4303L147.756 -57.8597L152.641 -57.9208L163.799 -57.8987H206.451H219.098L223.651 -57.8786L223.632 -54.678L222.569 -45.016ZM278.116 -45.016H224.057L224.988 -54.678L225.695 -57.8409L228.521 -57.9021L235.712 -57.8984H260.509L266.709 -57.9196L269.829 -57.8702L272.226 -53.6867L278.116 -45.016ZM328.702 -57.8983C322.314 -34.5145 286.873 -31.8403 274.845 -51.457C273.632 -53.4358 272.213 -55.6262 271.668 -57.8983C272.836 -57.9904 274.499 -58.5304 275.583 -57.8917C276.655 -57.2599 277.221 -55.4431 277.887 -54.4301C279.294 -52.2906 280.924 -50.2441 282.827 -48.5264C287.929 -43.9222 294.355 -41.8797 301.177 -42.0466C307.499 -42.2013 313.219 -45.2704 317.535 -49.7266C319.03 -51.2705 320.301 -53.0817 321.399 -54.9256C321.921 -55.8023 322.295 -57.1036 323.13 -57.7393C324.017 -58.4153 327.608 -58.2097 328.702 -57.8983ZM321.015 -45.0159L325.866 -50.9617L329.446 -58.1463C337.169 -56.7138 346.137 -57.8859 353.996 -57.8985C356.373 -57.9022 361.125 -59.1107 363.16 -57.749C365.743 -56.0199 365.509 -49.9328 363.591 -47.7739C362.573 -46.6277 360.652 -46.1666 359.203 -45.8706C353.902 -44.7876 348.462 -45.0159 343.085 -45.0159H321.015ZM144.21 -44.5204L145.574 -31.1423L148.425 -21.4803C130.872 -26.1684 112.507 -25.1567 94.6151 -27.6416C89.3383 -28.3745 84.0934 -29.4288 78.9928 -30.964C76.921 -31.5875 74.311 -32.0946 72.5455 -33.372C74.9682 -34.0875 78.9921 -34.351 81.4726 -33.8675C81.6718 -37.1644 78.6989 -41.6929 77.5049 -44.7682H87.9198C89.4258 -44.7682 91.4439 -45.1158 92.8793 -44.6223C94.7905 -43.9652 96.4935 -42.065 98.3347 -41.1161C102.752 -38.8393 107.746 -37.6436 112.717 -37.5846C117.87 -37.5233 123.112 -38.2534 127.844 -40.386C130.152 -41.4266 132.198 -43.5735 134.539 -44.3746C137.223 -45.2934 141.373 -44.5204 144.21 -44.5204ZM222.569 -44.5204L225.793 1.55975C214.626 1.55975 202.449 2.26232 191.573 -0.673563C188.358 -1.54138 185.366 -3.34243 182.398 -4.81485C177.532 -7.22829 172.629 -9.57621 167.767 -12.0049C163.451 -14.1609 159.066 -16.2206 154.873 -18.6118C153.473 -19.4098 151.214 -19.9643 150.249 -21.2978C145.899 -27.3089 145.698 -37.4442 145.698 -44.5204L222.569 -44.5204ZM224.413 -44.3709C225.602 -44.9739 227.949 -44.5204 229.265 -44.5204H241.167H266.957C270.526 -44.5204 275.439 -45.4027 278.86 -44.3933C280.748 -43.836 282.33 -41.9444 284.067 -41.0006C287.151 -39.3247 292.437 -37.9949 294.054 -34.6107C295.777 -31.005 292.015 -26.3866 289.986 -23.71C285.885 -18.2983 281.175 -13.3883 276.38 -8.59771C273.28 -5.50141 269.65 -1.88367 265.717 0.142864C263.349 1.36289 260.109 0.861412 257.534 1.10631C250.514 1.77374 243.514 1.80749 236.456 1.80749H229.761C229.048 1.80722 227.8 2.00883 227.288 1.37584C226.539 0.451119 226.829 -2.46526 226.775 -3.64285C226.581 -7.91566 226.405 -12.2666 225.999 -16.5255C225.325 -23.6059 224.069 -30.7049 224.057 -37.8314C224.057 -39.1488 222.993 -43.6507 224.413 -44.3709ZM354.739 -31.6378L362.923 -32.6288C362.922 -28.7659 360.153 -27.3937 356.723 -26.3329C350.945 -24.5455 345.025 -23.6735 339.117 -22.4704C330.527 -20.7209 322.565 -16.3898 314.568 -12.9145C299.535 -6.38169 284.582 -0.392362 267.949 0.321033C270.369 -2.81198 274.591 -5.40171 277.539 -8.12994C282.216 -12.4581 286.463 -17.4365 290.432 -22.4103C292.818 -25.4012 297.245 -30.718 295.283 -34.8584C294.485 -36.5438 292.864 -37.433 291.506 -38.5746C292.818 -38.7693 294.145 -38.1927 295.474 -38.1013C299.067 -37.854 302.82 -37.739 306.385 -38.4037C309.809 -39.0424 312.981 -40.2476 316.056 -41.8585C317.45 -42.5891 318.768 -43.9498 320.271 -44.3933C321.964 -44.8929 324.217 -44.5204 325.974 -44.5204H337.629H348.788C349.811 -44.5204 352.012 -44.9322 352.854 -44.2658C353.548 -43.7163 353.427 -41.6324 353.5 -40.8043C353.762 -37.806 354.035 -34.5615 354.739 -31.6378ZM323.247 -38.6912C320.505 -38.0579 318.992 -34.6804 320.865 -32.3917C322.232 -30.7212 324.469 -30.3544 326.47 -30.9091C329.226 -31.6728 330.436 -35.0794 328.564 -37.29C327.306 -38.775 325.069 -39.1122 323.247 -38.6912ZM207.718 -36.4087C206.187 -36.0805 206.096 -33.3635 207.476 -32.7783C209.201 -32.0469 215.356 -32.0469 217.081 -32.7783C218.38 -33.329 218.393 -35.8048 217.059 -36.3271C216.26 -36.6396 215.222 -36.3554 214.387 -36.3458C212.333 -36.3222 209.703 -36.8343 207.718 -36.4087ZM276.413 -36.4447C275.006 -36.0153 274.892 -33.4389 276.201 -32.8127C278.02 -31.9424 281.568 -32.6288 283.571 -32.6288C284.301 -32.6288 285.302 -32.4625 285.982 -32.7783C287.251 -33.3678 287.006 -35.8572 285.776 -36.3332C284.931 -36.6602 283.949 -36.3696 283.075 -36.3485C281.088 -36.3007 278.287 -37.0167 276.413 -36.4447ZM126.852 -36.0972C126.701 -35.2822 126.394 -34.2057 126.897 -33.4508C127.507 -32.534 130.913 -32.5257 131.662 -33.2738C133.633 -35.2432 130.726 -36.0971 129.332 -36.0972H126.852ZM272.909 -1.66092C278.247 -1.70507 283.704 -3.37521 288.779 -4.91025C298.379 -7.81356 307.122 -11.391 316.056 -15.9662C320.539 -18.262 326.327 -20.234 330.191 -23.4623C326.622 -24.0755 322.658 -23.71 319.032 -23.71C314.277 -23.71 309.376 -24.0426 304.649 -23.534C302.106 -23.2603 299.134 -24.0137 296.714 -22.9456C294.66 -22.0389 292.922 -20.0104 291.259 -18.5459C287.92 -15.606 284.564 -12.6628 281.34 -9.59825C278.762 -7.14805 274.679 -4.74915 272.909 -1.66092ZM153.633 -23.2146C154.37 -21.7613 156.027 -20.8267 157.353 -19.9308C160.382 -17.8842 163.566 -16.0619 166.776 -14.3159C175.527 -9.55519 185.063 -3.95088 194.797 -1.53094C198.767 -0.544024 202.894 -0.449383 206.948 -0.152478C211.042 0.14737 215.241 0.321016 219.346 0.321016C220.281 0.321016 222.661 0.74664 223.307 -0.076211C224.137 -1.13348 223.244 -5.06432 223.066 -6.36804C222.301 -11.9479 222.285 -17.6248 221.578 -23.2146L153.633 -23.2146ZM227.778 -22.9668C229.021 -17.7478 228.544 -11.4861 228.779 -6.12029C228.83 -4.97102 228.522 -0.887799 229.415 -0.181346C230.363 0.569167 232.396 -0.117279 233.481 -0.164697C236.97 -0.317334 240.419 0.0732887 243.896 0.0732887C250.05 0.0732887 257.848 1.06012 263.734 -1.01363C270.082 -3.25042 275.5 -9.78967 279.359 -15.039C281.152 -17.4771 284.038 -20.2354 284.811 -23.2145L245.88 -23.2145H233.977L227.778 -22.9668ZM419.461 38.9689C418.618 35.4333 419.213 31.2011 419.213 27.5727V5.27589C419.213 2.31279 419.751 -1.24748 419.082 -4.13834C418.012 -8.76355 413.206 -7.39246 410.075 -8.7472C408.878 -9.26497 408.789 -10.8438 407.31 -11.3246C405.786 -11.8204 403.555 -11.7514 402.103 -11.0627C401.229 -10.6481 400.398 -9.53857 399.375 -9.5774C397.308 -9.65589 395.519 -11.8567 393.424 -12.0743C390.855 -12.3412 386.53 -9.03846 384.249 -7.91489C383.41 -7.50171 382.053 -7.09343 381.528 -6.27129C380.723 -5.01027 381.273 -2.13057 381.273 -0.66994V13.4514V66.9639V82.5717C381.273 84.0265 380.682 87.1488 381.528 88.3766C382.103 89.2111 383.609 89.3921 384.497 89.7342C386.825 90.6316 391.451 93.3549 393.92 92.8434C395.71 92.4725 397.486 90.3887 399.304 90.3926C400.12 90.3941 400.914 91.3902 401.607 91.7582C403.008 92.5021 405.023 92.7169 406.566 92.3495C408.183 91.9646 408.678 90.5176 410.049 89.8835C413.024 88.5075 416.839 88.9455 418.648 85.5446C420.092 82.8289 419.213 78.1435 419.213 75.1394V51.1083C419.213 48.2958 418.238 43.3133 419.363 40.7398C419.836 39.6565 421.485 39.9599 422.437 39.9599C424.129 39.9599 426.243 39.6217 427.882 40.0664C429.09 40.3938 429.939 41.6772 431.307 40.8719C432.584 40.1205 431.944 38.3738 430.619 38.1664C429.623 38.0106 428.647 38.7723 427.644 38.8416C425.021 39.0228 421.985 38.4206 419.461 38.9689ZM33.3663 19.3972C33.3663 13.483 33.4725 7.487 33.6179 1.55975C33.6781 -0.890931 34.5446 -3.88653 33.1197 -6.11646C30.6312 -10.0107 24.5472 -8.65259 20.7233 -8.86877C18.8068 -8.97712 17.4592 -11.428 15.2642 -11.744C13.8662 -11.9453 11.9877 -11.8104 10.8563 -10.876C10.2172 -10.3481 10.0331 -9.34254 9.25714 -8.99476C6.23883 -7.6419 2.3485 -8.81887 0.499035 -5.12931C-0.345836 -3.44377 0.137787 -0.777689 0.137787 1.06426L0.137787 14.6901L0.137787 63.7432L0.137787 78.6078C0.137787 80.6415 -0.364211 83.4503 0.613822 85.2967C2.54095 88.9346 6.26873 88.1634 9.30304 89.7629C11.3628 90.8486 12.0459 92.6742 14.7683 92.4068C17.2212 92.1659 18.7594 89.9626 20.9676 89.7707C24.3985 89.4725 28.7851 90.6444 31.856 88.6465C35.458 86.3031 33.8622 78.1568 33.8622 74.3961C33.8622 70.6628 34.8421 65.3679 33.7834 61.798C33.3828 60.4472 31.2705 61.0214 30.9432 59.28C30.4913 56.8763 30.8866 54.0491 30.8866 51.6038V36.2437V23.6089C30.8873 21.7074 31.145 19.7407 33.3663 19.3972ZM391.192 2.05524L382.761 -5.37705V-5.87254C386.754 -7.76287 391.609 -11.8893 395.904 -9.77602C397.494 -8.99345 399.908 -8.42697 399.296 -6.14245C399.008 -5.06359 397.694 -4.16455 396.905 -3.44081C394.972 -1.66601 392.911 0.0705846 391.192 2.05524ZM13.0327 -10.4944C14.8805 -10.8754 17.6004 -10.324 18.3383 -8.34901C18.8367 -7.01525 18.4879 -5.05244 18.4879 -3.64285C18.4879 0.0855966 18.122 4.05524 18.5586 7.75332C19.3696 14.6201 18.7357 21.8944 18.7357 28.8115L18.7357 68.9458C18.7357 72.555 18.5111 76.246 18.758 79.8465C18.9406 82.5104 19.6302 86.1129 18.905 88.7232C18.5036 90.1675 16.6089 90.9701 15.2642 91.1681C13.9851 91.3564 12.2607 91.2535 11.5515 89.9779C10.861 88.736 11.2966 86.435 11.2966 85.0491V73.1574L11.2966 11.9649V-5.12931C11.2966 -6.96666 10.6328 -9.99951 13.0327 -10.4944ZM404.831 -10.4858C405.856 -10.5487 407.4 -10.3533 407.87 -9.29409C408.482 -7.91504 408.054 -5.62611 408.054 -4.13833V8.00108V69.1936V86.0401C408.054 88.0304 408.558 91.0033 405.823 91.2283C404.138 91.3669 401.82 91.1594 400.907 89.4853C400.204 88.1962 400.615 85.9816 400.615 84.5536V72.9097V11.4695V-1.41317C400.615 -3.35234 400.248 -5.72015 400.719 -7.60674C401.183 -9.46627 403.048 -10.3764 404.831 -10.4858ZM9.80876 -7.85449L9.80876 57.3019L9.80876 77.8645L10.0568 88.2697C7.37338 88.9468 2.60433 87.0182 1.65263 84.3049C1.07267 82.6516 1.37768 80.5838 1.37768 78.8555L1.37768 68.2024L1.37768 12.9558L1.37768 -0.174598C1.37768 -1.9633 1.08264 -4.16408 2.42601 -5.57829C4.37828 -7.63345 7.31 -7.26016 9.80876 -7.85449ZM32.6223 -3.643L19.9757 -3.39526V-7.60688C24.1538 -7.93634 31.3787 -8.98364 32.6223 -3.643ZM409.542 88.7651L409.294 88.5173L409.542 74.6437V48.383V12.4603L409.294 -7.35915C411.66 -8.00908 416.385 -7.11202 417.475 -4.6118C418.109 -3.15708 417.723 -0.989749 417.725 0.568631V11.7171V68.9456C417.725 72.652 417.581 76.3914 417.744 80.0941C417.828 81.999 418.183 84.1955 416.884 85.7815C415.217 87.8148 411.979 88.2926 409.542 88.7651ZM382.761 -4.88172L390.448 2.30283V2.79832L382.761 9.73511L382.513 -0.174598L382.761 -4.88172ZM399.375 -4.88172V10.2306C396.492 8.69504 393.065 4.95974 391.192 2.30283L399.375 -4.88172ZM44.2771 84.8012H52.9561V61.7611V14.69V1.5596L52.8697 -3.24577L50.9724 -3.643L44.6424 -3.49351L44.2771 1.5596V17.6629V84.8012ZM70.8102 -3.39526C69.3849 4.16267 68.5968 11.8369 67.1861 19.3971C66.8574 21.1588 65.2758 22.4335 65.0363 24.1042C64.4317 28.3202 65.1069 33.2017 65.1069 37.4823C65.1069 43.8254 64.5043 50.4927 65.133 56.8063C65.312 58.6041 66.7836 59.9802 67.173 61.7611C68.7501 68.9723 70.737 77.1912 71.0584 84.5534H122.389C130.786 84.5534 139.573 85.3045 147.93 84.5277C150.798 84.261 153.728 83.1259 156.567 82.5761C166.636 80.6266 176.636 77.9442 186.757 76.3082C192.683 75.3503 198.975 75.6393 204.964 75.3772C215.211 74.9289 225.437 74.5944 235.713 74.6439C250.055 74.7131 264.832 74.5617 279.108 75.9245C297.502 77.6804 315.53 82.9228 333.91 84.759C343.865 85.7534 354.402 84.8012 364.411 84.8012C365.418 77.0131 367.33 69.3476 368.089 61.5133C368.748 54.7076 368.131 47.5428 368.131 40.703C368.131 33.2685 368.716 25.547 367.924 18.1584C367.362 12.9134 366.586 7.72559 365.552 2.55055C365.263 1.10618 365.265 -1.90764 364.199 -2.99193C363.345 -3.86029 360.357 -3.39527 359.204 -3.39527H344.821C323.927 -3.39527 302.972 2.11881 282.332 5.17137C277.216 5.928 272.107 5.80346 266.958 6.02871C255.224 6.54202 243.513 6.74329 231.746 6.76219C220.693 6.77995 209.567 6.79719 198.517 6.04112C194.414 5.76039 190.195 6.0788 186.118 5.45006C176.239 3.92622 166.344 0.818697 156.61 -1.47144C154.095 -2.06308 151.483 -3.04247 148.922 -3.34958C141.941 -4.18687 134.384 -3.39529 127.349 -3.39529C108.575 -3.39529 89.5572 -2.50618 70.8102 -3.39526ZM32.6228 -2.8998L32.3748 -0.174626H32.1268V-2.65206H20.2241L20.2241 8.24863L19.7282 -0.174626L20.3029 -2.82219L23.9437 -2.8998H32.6228ZM52.4607 84.3057H44.7734V-3.14751C46.419 -3.14751 50.7586 -3.92511 52.063 -2.89289C53.0195 -2.1361 52.4607 1.18156 52.4607 2.30283V18.1584V84.3057ZM4.60559 -2.73805C1.74462 -1.81304 2.15489 6.89469 6.58457 5.62919C9.73172 4.7301 9.39562 -4.28678 4.60559 -2.73805ZM14.2863 -2.42129C12.7337 -2.00083 13.468 0.224733 15.0021 -0.328861C16.4406 -0.847998 15.6844 -2.79994 14.2863 -2.42129ZM412.777 -2.46812C411.407 -1.91045 411.527 -0.412911 411.526 0.816381C411.526 3.30099 411.8 7.08686 415.483 5.58733C416.931 4.99792 416.734 3.33687 416.734 2.05509C416.734 -0.453273 416.385 -3.93724 412.777 -2.46812ZM5.1013 -2.29665C8.55748 -3.25876 8.56797 4.56207 6.3316 5.16736C2.8014 6.12282 2.82937 -1.6642 5.1013 -2.29665ZM404.143 -2.21924C402.683 -1.56647 403.995 0.192991 405.289 -0.327908C406.789 -0.931372 405.511 -2.83112 404.143 -2.21924ZM413.758 -2.27735C417.179 -2.85791 417.259 4.76428 414.745 5.21897C411.196 5.86087 411.268 -1.85487 413.758 -2.27735ZM147.681 -2.15653V-1.90879L96.8467 13.7472L77.7528 19.6104L67.5859 22.6177C69.7057 17.2022 70.0291 10.5419 70.8419 4.78026C71.0428 3.35609 71.0424 -0.993789 72.1989 -1.90191C73.2276 -2.70981 76.2382 -2.15653 77.5048 -2.15653H91.8873L147.681 -2.15653ZM334.38 -2.0491C335.7 -1.9967 336.671 0.307027 337.225 1.31186C339.305 5.08307 340.78 9.00349 341.702 13.2035C343.74 22.4886 342.837 32.4828 342.837 41.9417C342.837 49.7878 343.679 58.2625 341.987 65.9727C340.96 70.6554 339.554 75.3181 337.354 79.5986C336.664 80.9421 335.956 83.492 334.156 83.5258C330.355 83.597 326.246 82.2898 322.503 81.6891C313.165 80.1908 303.838 78.5655 294.482 77.1885C291.169 76.7009 287.88 76.0942 284.563 75.6347C283.551 75.4945 281.3 75.4859 280.58 74.7076C279.829 73.8973 279.694 71.9774 279.461 70.9276C278.752 67.7412 277.969 64.5062 277.581 61.2656C276.835 55.0379 277.124 48.7062 277.124 42.4372C277.124 35.6774 276.877 28.8581 277.349 22.1223C277.623 18.2181 278.543 14.5228 279.441 10.7261C279.707 9.60229 279.709 7.54889 280.722 6.80293C281.706 6.07795 283.633 6.14269 284.811 5.92262C288.339 5.26345 291.927 4.76406 295.474 4.21673C304.322 2.85135 313.177 1.44466 322.007 -0.0346641C325.876 -0.682915 330.465 -2.20442 334.38 -2.0491ZM363.418 83.5625C356.763 84.7969 349.11 83.8102 342.341 83.8102C340.357 83.8102 338.07 83.4341 336.141 83.8102C335.984 81.4524 338.622 78.1277 339.514 75.8825C341.554 70.7455 342.768 65.5145 343.29 60.0269C344.047 52.0841 343.333 43.7299 343.333 35.7481C343.333 28.9454 344.054 21.6345 342.672 14.9377C341.9 11.1993 340.825 7.48593 339.171 4.03703C338.201 2.01548 336.45 -0.0146598 335.894 -2.15653H355.731C357.379 -2.15653 361.672 -2.92683 362.99 -1.90191C364.105 -1.03496 364.098 2.22691 364.361 3.54155C365.451 8.98876 366.509 14.5821 366.646 20.1403C366.957 32.7933 367.735 45.8904 366.868 58.5405C366.294 66.9162 363.777 75.2219 363.418 83.5625ZM147.434 -1.16557C144.809 5.99558 139.6 12.059 137.773 19.6448C136.441 25.1748 137.267 31.5734 137.267 37.2346C137.267 45.7366 135.909 55.5343 138.367 63.7431C140.443 70.6718 144.933 76.2882 147.682 82.8193C141.231 81.9472 134.276 78.7171 128.092 76.6444C115.427 72.3998 102.588 68.6687 89.9038 64.4861C84.3824 62.6654 78.8499 60.8726 73.2896 59.1759C71.0058 58.479 68.7133 57.4033 66.3463 57.054V42.4372C67.7751 42.4994 70.2768 43.8768 71.544 43.2268C74.9078 41.5014 75.3807 36.4082 71.296 35.1775C70.0256 34.7947 67.8204 35.8519 66.5943 36.2436L66.3463 26.8294L66.9211 23.5726L74.0335 21.254L90.8957 16.0713L130.571 3.85848L147.434 -1.16557ZM146.938 1.06411C146.499 5.46242 144.685 9.73887 144.252 14.1945C143.613 20.7685 144.12 27.418 143.958 34.0139C143.705 44.3697 142.74 55.1566 143.756 65.4773C144.265 70.6488 146.031 75.5581 147.186 80.5896H146.938C142.984 74.1359 139.066 66.8334 137.843 59.2837C136.662 51.9935 137.763 43.6358 137.763 36.2436C137.763 31.5827 137.179 26.4875 137.837 21.8745C138.486 17.3264 140.741 13.1049 142.646 8.99188C143.847 6.39718 145.108 3.27032 146.938 1.06411ZM398.383 10.4783H383.256L388.712 4.78025L390.944 3.27431L393.175 5.028L398.383 10.4783ZM313.328 3.64667C305.555 4.6663 297.887 6.1318 290.266 8.03226C288.372 8.5047 283.888 8.69122 282.544 10.1314C281.78 10.949 281.704 12.8841 281.488 13.9467C280.841 17.1343 280.101 20.3368 280.1 23.6087V57.3017C280.1 60.715 280.628 64.1037 281.234 67.4592C281.42 68.487 281.397 70.4555 282.229 71.1916C283.02 71.8909 284.562 71.9615 285.555 72.1671C288.042 72.6818 290.518 73.3023 292.994 73.8711C301.762 75.8853 310.515 77.6167 319.527 77.6167C321.826 77.6167 324.438 77.9651 326.704 77.5799C328.391 77.2931 327.462 73.4287 327.462 72.1663V54.8243V16.4242C327.462 13.2887 327.393 10.1445 327.462 7.00994C327.482 6.16575 328.03 4.43312 327.269 3.79617C326.503 3.15527 324.435 3.54154 323.491 3.54154C320.159 3.54154 316.629 3.21316 313.324 3.64667M278.856 6.7622L275.89 22.1222L275.88 43.6759L275.923 59.0359L278.856 74.8915L269.433 74.3862L251.331 73.8996L214.631 73.6625L186.858 75.1392L184.897 61.2656L184.874 43.1804L184.884 20.6358L186.858 6.7622L218.847 7.99728L255.299 7.50906L278.856 6.7622ZM20.2197 8.99188V10.2306H19.9718L20.2197 8.99188ZM21.7075 10.7261L21.7075 70.9276H20.2197L19.9718 10.7261H21.7075ZM22.7781 10.8767C24.4377 10.0953 24.4348 12.2208 24.4353 13.2035V22.8655L24.4353 59.2837V67.9547C24.4353 68.7397 24.734 70.3156 23.8607 70.7425C22.3238 71.4938 22.2055 69.6881 22.2035 68.6979V60.0269L22.2035 23.8565V14.1945C22.2035 13.3487 21.8286 11.3238 22.7781 10.8767ZM24.9312 70.9276L24.9312 10.7261L26.9081 11.1233L27.163 14.1945V21.8745V58.2927L27.163 67.2115L26.9081 70.5304L24.9312 70.9276ZM32.1224 10.7261V18.4061C28.7242 19.7501 29.3948 24.1271 29.3948 27.0771V52.8424C29.3948 55.9486 28.251 61.2633 32.3705 62.0089L32.6184 70.6799C31.6854 70.9554 28.6091 71.4363 27.9101 70.5277C27.3401 69.7866 27.6589 68.0941 27.6589 67.2115V58.7882L27.6589 22.37V13.9467C27.6589 13.1661 27.3573 11.534 28.0565 10.9807C28.9019 10.3118 31.0891 10.7261 32.1224 10.7261ZM387.716 11.4693C388.713 14.837 387.965 19.3527 387.965 22.8655C384.896 22.9018 385.981 27.0142 385.981 29.3068V50.6127C385.981 52.9975 384.781 58.0073 387.965 58.045V70.1844L382.907 69.9297L382.509 66.2205V55.8153V11.7171L387.716 11.4693ZM395.9 11.4693V25.5907V54.0811L396.148 69.9366L388.46 70.1844V58.045C391.147 57.8402 390.196 53.5876 390.196 51.6037V30.2978C390.196 28.2192 391.254 23.0784 388.46 22.8655V14.69L388.858 11.7239L395.9 11.4693ZM399.123 11.4693L399.371 17.9106V30.05V70.1844H396.644V25.3429V15.4332L396.898 11.8667L399.123 11.4693ZM207.192 19.5022C204.047 19.9198 201.149 20.8907 199.513 23.8565C198.163 26.3052 198.513 29.0903 198.513 31.7842V46.6488C198.513 50.4303 197.583 55.5291 199.911 58.7882C203.032 63.1574 208.686 62.5043 213.391 62.5043C215.338 62.5043 217.413 62.7055 219.342 62.43C230.117 60.892 227.526 48.6844 227.526 40.703C227.526 35.9773 228.893 28.6836 226.841 24.3519C223.806 17.9458 213.103 18.7173 207.192 19.5022ZM207.192 19.9633C212.83 19.2896 223.15 18.404 226.157 24.3519C228.393 28.773 227.03 36.0952 227.03 40.9507C227.03 47.4356 229.555 60.489 220.334 61.7164C214.706 62.4655 203.839 63.7777 200.306 58.2506C198.258 55.045 199.009 50.5173 199.009 46.8965V33.5184C199.009 26.9493 199.238 20.9137 207.192 19.9633ZM389.7 23.6087V57.3017L386.725 57.5495L386.477 46.6488V23.6087H389.7ZM13.7094 25.8455C12.5737 26.7711 14.302 28.4209 15.3959 27.4229C16.5153 26.4016 14.6754 25.0583 13.7094 25.8455ZM404.14 25.7784C402.702 26.3997 403.975 28.3978 405.286 27.7527C406.76 27.0273 405.507 25.1876 404.14 25.7784ZM258.77 34.2617C260.038 36.862 263.801 39.122 265.962 41.0214C266.994 41.9292 267.796 42.9003 269.185 43.1804L262.843 37.4814L258.77 34.2617ZM66.8388 41.1985V37.2346C68.1074 36.944 70.0735 35.9151 71.2986 36.6506C73.4925 37.9677 73.6026 41.2468 70.8027 41.9969C69.6348 42.3098 67.9809 41.46 66.8388 41.1985ZM14.5173 53.5774C13.0928 53.6652 13.0355 55.7419 14.5173 55.7419C16.1004 55.7419 16.1534 53.4765 14.5173 53.5774ZM404.139 53.7733C402.671 54.4052 403.925 56.4114 405.286 55.7256C406.754 54.9863 405.496 53.1894 404.139 53.7733ZM67.3347 57.5495L77.0057 60.7772L95.3557 66.6527L146.686 83.067V83.3147H93.372H78.7415C77.1241 83.3147 74.1022 83.9014 72.6497 83.1652C71.4932 82.5792 71.4491 78.5699 71.2403 77.3689C70.3505 72.2526 69.286 67.1488 68.542 62.0089C68.3402 60.6144 66.9795 58.8473 67.3347 57.5495ZM398.875 71.1753C397.752 73.5809 395.025 75.2765 393.172 77.1212C392.609 77.6816 391.819 78.7857 390.941 78.8078C390.031 78.8307 389.18 77.6419 388.597 77.069C386.898 75.3995 383.743 73.4697 383.005 71.1753H398.875ZM32.3705 71.4231L32.6184 83.5625C29.2475 84.5579 24.7277 83.8102 21.2116 83.8102V83.5625H32.1224C32.1224 80.1466 31.0539 74.5575 32.3705 71.4231ZM383.005 72.1663C385.293 74.4521 389.069 76.9003 390.444 79.8463L382.757 86.7831L382.509 76.1302L383.005 72.1663ZM399.371 72.1663V87.0309C397.087 85.9668 392.127 81.561 391.436 79.1031L399.371 72.1663ZM4.84628 75.7974C1.76645 76.7372 2.04059 85.6253 6.58007 84.2465C9.69241 83.3011 9.26592 74.4487 4.84628 75.7974ZM413.011 76.0664C410.071 77.205 410.667 85.9457 415.237 84.3418C418.14 83.3231 417.654 74.2679 413.011 76.0664ZM6.3284 76.3628C8.47096 76.7886 8.70039 84.4319 5.10428 83.7535C2.81196 83.321 2.78228 75.6582 6.3284 76.3628ZM413.272 76.5054C417.176 75.2452 417.288 83.1299 414.979 83.8551C411.237 85.0307 411.312 77.1384 413.272 76.5054ZM68.0787 115.274V115.521L79.9814 116.512C78.7702 118.638 78.0287 123.884 75.9457 125.176C74.8765 125.84 73.2049 125.244 72.0462 125.193C69.1178 125.065 64.0104 124.301 61.4066 125.779C58.6904 127.32 59.4478 131.751 59.0771 134.35C58.8919 135.649 58.4823 136.826 59.3695 137.991C60.5649 139.56 63.2676 139.902 65.103 140.048L68.4888 146.737L70.1432 148.817L75.5179 148.967H88.4125C90.3429 133.786 101.955 122.063 117.921 124.549C125.797 125.775 132.305 130.189 135.996 137.323C137.442 140.117 138.282 142.942 138.969 145.994C139.163 146.851 139.026 148.575 140.048 148.888C143.576 149.969 148.936 148.967 152.638 148.967H180.907L274.145 148.967C275.614 141.852 278.569 135.121 284.064 130.18C292.246 122.824 305.995 122.03 314.387 129.523C318.334 133.047 321.022 137.389 322.945 142.278C323.472 143.618 324.035 148.203 325.305 148.817C327.398 149.83 331.407 148.827 333.658 148.729C340.228 148.441 346.98 149.555 353.496 148.925C355.898 148.692 357.724 147.83 358.699 145.498C359.243 144.197 359.356 142.433 360.352 141.365C361.857 139.752 364.18 140.488 365.509 138.066C366.99 135.365 366.759 129.572 364.146 127.571C361.703 125.701 357.471 125.245 354.488 125.183L355.976 114.035L363.663 115.026C367.709 107.809 354.546 105.482 350.025 104.459C344.979 103.319 339.541 103.014 334.65 101.291C318.702 95.6728 303.959 86.0194 287.287 82.5708C266.866 78.3465 246.501 78.328 225.79 78.3599C214.212 78.3777 201.278 77.4793 190.082 80.9453C186.902 81.9296 183.903 83.8553 180.907 85.2906C174.604 88.31 168.243 91.2781 162.061 94.537C155.81 97.8318 149.926 101.237 142.967 102.781C118.455 108.22 90.8872 102.793 68.0787 115.274ZM222.318 125.679L213.639 125.431H197.521H145.694C145.694 119.722 146.21 114.086 147.821 108.585C148.43 106.504 149.003 103.933 150.397 102.211C151.327 101.064 153.331 100.515 154.621 99.8495C157.688 98.268 160.709 96.5986 163.796 95.0573C169.079 92.4203 174.388 89.8493 179.667 87.2121C183.181 85.4567 186.824 83.2283 190.578 82.0483C194.2 80.9096 197.994 80.6555 201.736 80.2998C207.532 79.7488 213.276 79.7371 219.095 79.595C220.564 79.5591 224.156 78.6042 225.392 79.6063C226.057 80.1452 225.571 81.5958 225.545 82.3238C225.448 84.966 225.172 87.6111 225.056 90.2516C224.702 98.3135 223.621 106.256 222.856 114.283C222.512 117.891 223.343 122.215 222.318 125.679ZM224.054 125.679C223.349 122.719 224.074 119.268 224.28 116.265C224.827 108.285 226.234 100.236 226.286 92.2335C226.306 89.1525 226.491 85.881 226.853 82.8193C226.946 82.0252 226.771 80.4162 227.285 79.7825C227.863 79.0687 229.449 79.3509 230.253 79.3509H238.188C243.923 79.3509 249.587 79.5867 255.299 79.8366C258.229 79.9648 262.199 79.5585 264.97 80.5445C267.354 81.3929 269.525 83.5443 271.417 85.1549C278.624 91.289 285.404 98.4485 290.969 106.107C292.893 108.754 295.976 113.271 293.608 116.509C291.494 119.4 286.629 120.723 283.568 122.401C282.021 123.249 280.528 125.02 278.853 125.51C277.605 125.874 275.941 125.431 274.641 125.431H264.474H237.445C233.207 125.431 228.18 124.697 224.054 125.679ZM399.371 89.0129L393.668 91.5895L390.196 90.5783L382.757 87.7741C384.234 85.6799 386.407 84.1262 388.212 82.3238C388.846 81.6909 389.733 80.4354 390.692 80.3223C391.637 80.2109 392.538 81.4347 393.149 82.0017C395.093 83.8055 398.952 86.2996 399.371 89.0129ZM153.63 104.373H221.574L223.558 80.8373C213.889 80.8373 203.493 80.4236 194.049 82.7933C185.498 84.939 176.959 89.9747 169.252 94.139C165.48 96.1769 161.686 98.1831 158.093 100.532C156.501 101.573 154.562 102.665 153.63 104.373ZM362.919 113.787C361.18 113.567 356.554 112.109 355.063 113.054C354.183 113.612 354.312 115.593 354.202 116.512C353.834 119.571 353.387 122.623 353 125.679H331.179C327.821 125.679 323.756 126.307 320.474 125.584C317.934 125.025 315.348 122.351 312.829 121.332C306.254 118.671 298.351 118.21 291.503 119.981C292.647 117.965 295.171 117.434 295.637 114.778C296.37 110.6 292.653 106.39 290.264 103.382C286.287 98.3765 282.072 93.3877 277.359 89.0513C274.704 86.6085 269.993 83.8974 268.193 80.8373C285.063 81.1853 300.363 87.9164 315.556 94.4313C323.604 97.8822 331.438 102.106 340.106 103.726C346.082 104.843 352.232 105.736 357.96 107.855C360.818 108.912 363.311 110.473 362.919 113.787ZM228.022 104.373H284.808C284.16 101.122 280.637 97.7355 278.608 95.2064C274.763 90.412 270.117 84.5954 264.226 82.2645C258.274 79.9097 250.176 81.0851 243.892 81.0851C240.5 81.0851 237.108 81.3264 233.729 81.2055C232.624 81.166 230.333 80.6101 229.411 81.3397C228.53 82.0371 228.797 86.1439 228.769 87.2787C228.627 92.9823 228.022 98.6586 228.022 104.373ZM13.8512 81.8354C12.595 82.6737 14.0385 84.2435 15.2223 83.5545C16.6558 82.7201 15.0802 81.0152 13.8512 81.8354ZM404.12 81.8398C402.625 82.6642 404.183 84.5112 405.492 83.6933C406.795 82.8792 405.333 81.1707 404.12 81.8398ZM272.905 82.8194C274.034 84.7486 276.478 86.2594 278.112 87.7803C282.189 91.5755 286.321 95.3214 290.511 98.9932C292.398 100.647 294.76 103.496 297.206 104.247C300.505 105.26 304.702 104.621 308.117 104.621H329.939C328.783 103.277 326.794 102.617 325.227 101.829C322.566 100.49 319.913 99.0806 317.292 97.664C307.9 92.5888 298.295 88.664 288.031 85.7575C283.135 84.3709 278.017 82.8194 272.905 82.8194ZM20.2197 88.5174C20.2197 87.5684 19.7919 85.2136 20.6173 84.5604C21.2246 84.0799 22.4737 84.3058 23.1954 84.3058H29.6427C30.3506 84.3058 31.6285 84.0745 32.2171 84.5604C33.0195 85.2228 32.0928 86.6963 31.5708 87.2258C30.0209 88.7979 27.4398 88.5174 25.4271 88.5174H20.2197ZM148.67 102.639C146.444 108.059 145.216 113.428 144.525 119.238C144.274 121.347 144.605 123.636 144.207 125.679C141.137 124.949 137.451 126.369 134.536 125.466C132.363 124.794 130.45 122.693 128.336 121.722C122.896 119.224 116.936 118.357 110.978 118.764C106.773 119.052 102.308 120.008 98.5794 122.04C96.6718 123.08 94.8915 125.027 92.876 125.746C91.4309 126.262 89.4347 125.927 87.9165 125.927H77.7496L81.4692 115.026L72.5422 114.778L77.2536 112.584L91.3881 109.266L126.848 106.065L140.487 104.469L148.67 102.639ZM207.118 114.042C206.134 114.785 206.341 116.874 207.473 117.354C209.384 118.164 212.811 117.503 214.879 117.503C215.612 117.503 216.808 117.72 217.432 117.249C218.416 116.506 218.209 114.416 217.078 113.937C215.167 113.127 211.74 113.787 209.672 113.787C208.939 113.787 207.742 113.571 207.118 114.042ZM275.987 114.042C275.007 114.706 275.072 116.855 276.185 117.354C278.094 118.209 281.729 117.503 283.816 117.503C284.527 117.503 285.567 117.676 286.188 117.249C287.106 116.618 287.037 114.408 285.991 113.937C284.087 113.079 280.443 113.787 278.36 113.787C277.645 113.787 276.613 113.617 275.987 114.042ZM126.848 114.035C126.697 114.85 126.39 115.927 126.893 116.682C127.489 117.577 130.855 117.599 131.659 116.964C133.883 115.204 130.61 114.035 129.328 114.035H126.848ZM142.719 139.057C141.575 139.057 139.384 139.48 138.413 138.803C137.201 137.956 136.427 135.359 135.603 134.102C133.927 131.546 131.652 129.146 129.08 127.473C119.973 121.548 106.262 121.394 97.5878 128.284C93.8464 131.256 91.5475 135.138 89.4046 139.305L85.4371 139.057C87.611 131.404 92.75 125.091 100.068 121.792C115.325 114.916 138.571 121.151 142.719 139.057ZM328.699 139.057C327.21 139.057 324.698 139.545 323.341 138.908C322.376 138.455 321.809 136.711 321.294 135.836C320.189 133.959 318.81 132.192 317.289 130.634C313.102 126.346 307.566 123.231 301.422 123.202C294.353 123.168 288.257 124.834 282.846 129.578C280.962 131.23 279.344 133.225 278.011 135.341C277.379 136.343 276.805 138.154 275.784 138.803C274.786 139.436 272.81 139.057 271.665 139.057C272.273 136.502 273.862 134.041 275.302 131.873C287.799 113.064 322.471 115.836 328.699 139.057ZM113.706 126.074C108.217 126.272 102.567 128.207 98.622 132.162C91.1488 139.655 92.448 151.92 101.059 157.942C105.682 161.176 110.903 162.082 116.434 161.84C119.073 161.724 121.737 160.89 124.121 159.791C126.304 158.784 128.39 157.326 130.009 155.547C131.504 153.905 132.754 152.025 133.588 149.958C138.764 137.132 126.09 125.627 113.706 126.074ZM145.943 139.057H143.215C141.984 133.742 138.276 130.424 135.28 126.175L141.727 126.171L144.057 126.191L144.598 129.395L145.943 139.057ZM222.318 125.927L224.054 139.057L147.182 139.057L145.695 126.174H196.777H213.143L222.318 125.927ZM278.36 126.422C275.725 128.719 273.83 131.802 272.181 134.845C271.626 135.869 270.907 138.397 269.832 138.908C267.501 140.015 262.597 139.057 260.01 139.057H235.957H228.518C227.743 139.057 226.342 139.316 225.692 138.802C225.057 138.301 225.083 136.59 224.951 135.836C224.437 132.912 223.56 128.847 224.054 125.927L237.445 126.174H263.978L273.897 126.174L278.36 126.422ZM296.711 126.281C293.529 126.736 290.54 127.679 287.783 129.352C278.452 135.015 276.136 147.58 283.838 155.652C288.579 160.621 296.19 162.732 302.91 161.775C305.824 161.36 308.829 160.406 311.341 158.861C313.464 157.554 315.314 155.912 316.821 153.922C317.996 152.372 318.948 150.582 319.514 148.719C323.67 135.064 309.322 124.477 296.711 126.281ZM329.195 139.057C327.923 133.707 324.017 130.437 321.012 126.175C331.344 126.175 341.677 126.125 352.009 126.175C355.161 126.19 361.562 126.304 363.731 128.994C365.37 131.027 365.952 138.143 362.67 138.979C359.512 139.783 355.271 139.057 352.009 139.057H329.195ZM92.1324 126.422C89.7488 130.23 85.1565 134.132 85.1891 139.057H70.5587C67.7997 139.057 64.4875 139.333 61.8805 138.262C61.1883 137.978 60.4767 137.559 60.2515 136.802C59.9386 135.749 60.4176 134.642 60.5653 133.607C60.8691 131.477 59.9964 128.286 62.1411 126.854C64.0206 125.599 68.3546 126.422 70.5587 126.422H92.1324ZM89.1567 139.553L87.1729 147.728H75.2701C74.0247 147.728 71.7395 148.164 70.6554 147.474C68.7591 146.266 67.1909 141.774 66.0951 139.801L73.7823 139.553H89.1567ZM149.414 147.728H140.487L138.751 139.553C140.457 139.553 144.403 138.816 145.816 139.807C146.504 140.29 146.685 141.531 146.935 142.278C147.584 144.222 148.64 145.865 149.414 147.728ZM225.542 147.728L166.276 147.728H155.862C154.546 147.728 152.602 148.082 151.399 147.474C149.022 146.272 147.786 142.014 147.678 139.553H206.448H219.095L223.908 139.807L224.583 142.03L225.542 147.728ZM269.681 139.553C269.428 141.242 268.189 146.465 266.792 147.474C266.058 148.004 264.587 147.728 263.73 147.728H256.291H227.03L225.542 139.801C229.671 138.581 235.365 139.553 239.677 139.553H269.681ZM275.633 139.801L272.765 147.474L268.442 147.728C269.064 143.574 270.588 138.311 275.633 139.801ZM359.944 139.553C358.799 141.589 357.92 145.725 355.966 147.052C353.839 148.496 349.739 147.728 347.297 147.728H325.971L323.492 139.801C326.931 138.785 331.56 139.553 335.146 139.553H359.944Z" fill="#304A6E"/>
</svg>
