<svg width="72" height="81" viewBox="0 0 72 81" fill="none" xmlns="http://www.w3.org/2000/svg">
<rect width="72" height="81" fill="#1A1E26"/>
<rect x="-642" y="-596" width="980" height="753" rx="4" fill="white"/>
<path d="M-32.0268 -161.811C-36.937 -160.83 -41.4077 -159.437 -45.1273 -155.888C-52.1658 -149.172 -52.021 -137.752 -44.6726 -131.29C-39.3606 -126.619 -31.925 -125 -25.0836 -126.375C-21.9747 -127 -18.9197 -128.233 -16.4045 -130.182C-14.5556 -131.614 -12.963 -133.143 -11.7759 -135.183C-4.98234 -146.853 -13.6278 -159.426 -26.0755 -161.479C-28.0491 -161.805 -30.0129 -162.214 -32.0268 -161.811ZM153.209 -161.763C147.455 -160.321 142.215 -158.767 138.458 -153.763C132.338 -145.609 135.2 -134.602 143.538 -129.259C148.751 -125.919 155.465 -125.124 161.393 -126.604C169.383 -128.601 176.454 -135.415 176.239 -144.101C176.009 -153.386 168.253 -159.813 159.657 -161.423C157.56 -161.816 155.34 -162.297 153.209 -161.763ZM-67.4871 -125.273L-64.0154 -116.106L-71.9506 -115.633L-75.9182 -115.115C-51.6908 -103.296 -24.5509 -108.31 0.953631 -102.261C6.05938 -101.05 10.4925 -98.4075 15.0881 -95.9849C21.9361 -92.3749 28.9509 -89.039 35.9179 -85.6684C39.1341 -84.1124 42.4239 -82.0168 45.8368 -80.9492C57.3169 -77.3583 70.6484 -78.2017 82.5369 -78.2017C97.4657 -78.2017 112.08 -78.4111 126.924 -79.894C135.34 -80.7347 144.276 -81.9237 152.217 -84.9383C165.262 -89.89 177.659 -96.8998 190.901 -101.269C196.248 -103.033 202.05 -103.385 207.516 -104.682C212.945 -105.969 221.845 -107.577 219.914 -114.868L211.979 -113.877C211.341 -116.465 211.225 -119.171 210.844 -121.804C210.723 -122.635 210.206 -124.16 210.89 -124.841C211.9 -125.848 215.271 -125.596 216.69 -126.017C221.521 -127.45 223.69 -132.337 221.866 -137.164C221.428 -138.323 220.555 -139.651 219.395 -140.186C218.223 -140.726 216.819 -140.421 216.049 -141.651C214.838 -143.584 215.03 -146.074 213.147 -147.622C211.145 -149.267 208.188 -148.808 205.78 -148.808H188.669C186.696 -148.808 183.092 -149.51 181.305 -148.659C180.032 -148.053 179.463 -143.464 178.951 -142.119C177.213 -137.555 174.469 -133.061 170.815 -129.774C162.087 -121.924 148.031 -122.634 139.571 -130.498C134.4 -135.303 131.552 -142.006 130.148 -148.808L36.9096 -148.808H8.64064C4.93859 -148.808 -0.420389 -149.81 -3.94933 -148.73C-4.97601 -148.415 -4.86695 -146.699 -5.01871 -145.835C-5.52064 -142.981 -6.49421 -140.241 -7.78685 -137.66C-11.1756 -130.893 -17.3028 -125.986 -24.8358 -124.644C-41.227 -121.725 -53.5322 -132.932 -55.5845 -148.808H-68.7271C-70.1704 -148.808 -72.8536 -149.321 -74.1173 -148.554C-76.3862 -147.176 -77.2113 -142.728 -78.854 -140.666C-80.1536 -139.034 -82.8963 -139.647 -84.4563 -138.113C-85.6375 -136.952 -85.0419 -135.604 -84.8884 -134.192C-84.5966 -131.507 -85.2358 -127.407 -82.6098 -125.704C-81.2762 -124.839 -79.4146 -125.025 -77.9021 -125.025C-74.4217 -125.025 -70.9729 -125.273 -67.4871 -125.273ZM-56.8244 -147.57L-54.8406 -139.394L-77.6542 -139.642C-77.044 -141.568 -74.9467 -146.498 -73.1378 -147.487C-71.9344 -148.145 -69.5837 -147.817 -68.2311 -147.817C-64.4181 -147.817 -60.6246 -147.57 -56.8244 -147.57ZM5.41701 -147.817L2.9024 -142.119L1.81889 -139.667L-5.24583 -139.394L-3.51004 -147.57L5.41701 -147.817ZM81.5449 -147.817L80.057 -139.394C60.7839 -140.685 41.1076 -139.642 21.7833 -139.642C17.2021 -139.642 12.4458 -140.001 7.89672 -139.465C7.00141 -139.359 4.00861 -138.913 3.80574 -140.194C3.66827 -141.062 4.27903 -142.297 4.55309 -143.11C5.03173 -144.53 5.7726 -146.559 7.17519 -147.315C8.24882 -147.894 10.4003 -147.802 11.6163 -147.816C14.839 -147.855 18.0644 -147.817 21.2873 -147.817H61.707C68.2398 -147.817 75.0457 -147.243 81.5449 -147.817ZM125.684 -139.394L105.35 -139.642L81.7929 -139.394L81.5449 -139.642L83.0327 -147.569C92.5157 -147.57 102.046 -147.817 111.55 -147.817C114.428 -147.817 120.09 -148.899 122.64 -147.459C124.137 -146.614 125.515 -141.048 125.684 -139.394ZM129.156 -147.569L131.388 -139.394H127.42L124.444 -147.569H129.156ZM215.947 -139.642H208.011H190.901H179.494L181.974 -147.569H203.3C205.758 -147.569 209.783 -148.328 211.956 -147.005C214.24 -145.614 214.204 -141.658 215.947 -139.642ZM-58.8081 -138.898C-58.3429 -133.575 -53.9911 -130.647 -51.8649 -126.264C-59.1499 -126.264 -66.4342 -126.275 -73.6865 -126.264C-75.8895 -126.26 -80.182 -125.452 -82.0488 -126.781C-83.9109 -128.107 -83.1953 -131.533 -83.4006 -133.448C-83.5057 -134.429 -83.9552 -135.419 -83.7932 -136.417C-83.6592 -137.243 -83.094 -137.73 -82.3618 -138.065C-79.1117 -139.552 -75.1289 -138.936 -71.7028 -138.899C-67.5476 -138.855 -62.8827 -139.57 -58.8081 -138.898ZM-1.27828 -138.899C-5.54117 -120.927 -29.4362 -114.442 -44.6736 -122.005C-51.7559 -125.52 -56.1578 -131.522 -58.5602 -138.899C-53.4147 -140.16 -52.582 -134.741 -49.7749 -131.466C-46.3924 -127.52 -41.8455 -124.772 -36.7385 -123.703C-28.8167 -122.045 -19.8608 -123.371 -13.429 -128.494C-11.1519 -130.308 -9.32601 -132.473 -7.78237 -134.935C-7.10176 -136.02 -6.50053 -138.156 -5.3909 -138.842C-4.44798 -139.425 -2.28555 -139.183 -1.27828 -138.899ZM1.94535 -139.146L0.209563 -125.768C-2.36455 -126.381 -6.14337 -126.381 -8.71749 -125.768L-4.60792 -130.971L-0.534358 -139.146H1.94535ZM78.5692 -126.016L1.6974 -126.016L2.68927 -135.43L3.75635 -138.86L8.64064 -138.921L19.7994 -138.899H62.451H75.0976L79.6506 -138.879L79.632 -135.678L78.5692 -126.016ZM134.116 -126.016H80.0573L80.9882 -135.678L81.6948 -138.841L84.5208 -138.902L91.7121 -138.898L116.509 -138.898L122.709 -138.92L125.829 -138.87L128.226 -134.687L134.116 -126.016ZM184.702 -138.898C178.314 -115.514 142.873 -112.84 130.845 -132.457C129.632 -134.436 128.213 -136.626 127.668 -138.898C128.836 -138.99 130.499 -139.53 131.583 -138.892C132.655 -138.26 133.221 -136.443 133.887 -135.43C135.294 -133.291 136.924 -131.244 138.827 -129.526C143.929 -124.922 150.355 -122.88 157.177 -123.047C163.499 -123.201 169.219 -126.27 173.535 -130.727C175.03 -132.27 176.301 -134.082 177.399 -135.926C177.921 -136.802 178.295 -138.104 179.13 -138.739C180.017 -139.415 183.608 -139.21 184.702 -138.898ZM177.015 -126.016L181.866 -131.962L185.446 -139.146C193.169 -137.714 202.137 -138.886 209.996 -138.899C212.373 -138.902 217.125 -140.111 219.16 -138.749C221.743 -137.02 221.509 -130.933 219.591 -128.774C218.573 -127.628 216.652 -127.167 215.203 -126.871C209.902 -125.788 204.462 -126.016 199.085 -126.016H177.015ZM0.209858 -125.52L1.57354 -112.142L4.42543 -102.48C-13.1278 -107.168 -31.4929 -106.157 -49.3849 -108.642C-54.6617 -109.374 -59.9066 -110.429 -65.0072 -111.964C-67.079 -112.588 -69.689 -113.095 -71.4545 -114.372C-69.0318 -115.087 -65.0079 -115.351 -62.5274 -114.867C-62.3282 -118.164 -65.3011 -122.693 -66.4951 -125.768H-56.0802C-54.5742 -125.768 -52.5561 -126.116 -51.1207 -125.622C-49.2095 -124.965 -47.5065 -123.065 -45.6653 -122.116C-41.2478 -119.839 -36.2543 -118.644 -31.2828 -118.585C-26.1298 -118.523 -20.888 -119.253 -16.1564 -121.386C-13.8477 -122.427 -11.8016 -124.573 -9.46111 -125.375C-6.77667 -126.293 -2.62716 -125.52 0.209858 -125.52ZM78.5695 -125.52L81.7932 -79.4403C70.6256 -79.4403 58.449 -78.7377 47.5728 -81.6736C44.3579 -82.5414 41.3664 -84.3424 38.3978 -85.8149C33.532 -88.2283 28.6293 -90.5762 23.7674 -93.0049C19.4514 -95.1609 15.0659 -97.2206 10.8727 -99.6118C9.47331 -100.41 7.21365 -100.964 6.24864 -102.298C1.89856 -108.309 1.6977 -118.444 1.6977 -125.52L78.5695 -125.52ZM80.4128 -125.371C81.6019 -125.974 83.9485 -125.52 85.2648 -125.52H97.1675H122.957C126.526 -125.52 131.439 -126.403 134.86 -125.393C136.748 -124.836 138.33 -122.944 140.067 -122.001C143.151 -120.325 148.437 -118.995 150.054 -115.611C151.777 -112.005 148.015 -107.387 145.986 -104.71C141.885 -99.2983 137.175 -94.3883 132.38 -89.5977C129.28 -86.5014 125.65 -82.8837 121.717 -80.8571C119.349 -79.6371 116.109 -80.1386 113.534 -79.8937C106.514 -79.2263 99.5139 -79.1925 92.456 -79.1925H85.7607C85.0484 -79.1928 83.8005 -78.9912 83.2879 -79.6242C82.539 -80.5489 82.8288 -83.4653 82.7753 -84.6429C82.5811 -88.9157 82.4047 -93.2666 81.999 -97.5255C81.3246 -104.606 80.0693 -111.705 80.0573 -118.831C80.0573 -120.149 78.9925 -124.651 80.4128 -125.371ZM210.739 -112.638L218.923 -113.629C218.922 -109.766 216.153 -108.394 212.723 -107.333C206.945 -105.546 201.025 -104.673 195.117 -103.47C186.527 -101.721 178.565 -97.3898 170.568 -93.9145C155.535 -87.3817 140.582 -81.3924 123.949 -80.679C126.369 -83.812 130.591 -86.4017 133.539 -89.1299C138.216 -93.4581 142.463 -98.4365 146.432 -103.41C148.818 -106.401 153.245 -111.718 151.283 -115.858C150.485 -117.544 148.864 -118.433 147.506 -119.575C148.818 -119.769 150.145 -119.193 151.474 -119.101C155.067 -118.854 158.82 -118.739 162.385 -119.404C165.809 -120.042 168.981 -121.248 172.056 -122.859C173.45 -123.589 174.768 -124.95 176.271 -125.393C177.964 -125.893 180.217 -125.52 181.974 -125.52H193.629H204.788C205.811 -125.52 208.012 -125.932 208.854 -125.266C209.548 -124.716 209.427 -122.632 209.5 -121.804C209.762 -118.806 210.035 -115.561 210.739 -112.638ZM179.247 -119.691C176.505 -119.058 174.992 -115.68 176.865 -113.392C178.232 -111.721 180.469 -111.354 182.47 -111.909C185.226 -112.673 186.436 -116.079 184.564 -118.29C183.306 -119.775 181.069 -120.112 179.247 -119.691ZM63.7179 -117.409C62.1869 -117.08 62.0955 -114.364 63.4762 -113.778C65.2014 -113.047 71.3558 -113.047 73.081 -113.778C74.3802 -114.329 74.3935 -116.805 73.0587 -117.327C72.26 -117.64 71.2221 -117.355 70.3866 -117.346C68.3326 -117.322 65.7026 -117.834 63.7179 -117.409ZM132.413 -117.445C131.006 -117.015 130.892 -114.439 132.201 -113.813C134.02 -112.942 137.568 -113.629 139.571 -113.629C140.301 -113.629 141.302 -113.463 141.982 -113.778C143.251 -114.368 143.006 -116.857 141.776 -117.333C140.931 -117.66 139.949 -117.37 139.075 -117.349C137.088 -117.301 134.287 -118.017 132.413 -117.445ZM-17.148 -117.097C-17.2994 -116.282 -17.6062 -115.206 -17.1033 -114.451C-16.4929 -113.534 -13.0866 -113.526 -12.3379 -114.274C-10.3666 -116.243 -13.2735 -117.097 -14.668 -117.097H-17.148ZM128.909 -82.6609C134.247 -82.7051 139.704 -84.3752 144.779 -85.9102C154.379 -88.8136 163.122 -92.391 172.056 -96.9662C176.539 -99.262 182.327 -101.234 186.191 -104.462C182.622 -105.075 178.658 -104.71 175.032 -104.71C170.277 -104.71 165.376 -105.043 160.649 -104.534C158.106 -104.26 155.134 -105.014 152.714 -103.946C150.66 -103.039 148.922 -101.01 147.259 -99.5459C143.92 -96.606 140.564 -93.6628 137.34 -90.5983C134.762 -88.148 130.679 -85.7492 128.909 -82.6609ZM9.63347 -104.215C10.3704 -102.761 12.027 -101.827 13.3531 -100.931C16.3823 -98.8842 19.5664 -97.0619 22.776 -95.3159C31.5274 -90.5552 41.0629 -84.9509 50.7971 -82.5309C54.7669 -81.544 58.8937 -81.4494 62.9477 -81.1525C67.0422 -80.8526 71.2405 -80.679 75.3464 -80.679C76.2809 -80.679 78.6609 -80.2534 79.3069 -81.0762C80.137 -82.1335 79.2444 -86.0643 79.0661 -87.368C78.3012 -92.9479 78.2853 -98.6248 77.5782 -104.215L9.63347 -104.215ZM83.7775 -103.967C85.0212 -98.7478 84.5437 -92.4861 84.7792 -87.1203C84.8298 -85.971 84.5222 -81.8878 85.415 -81.1813C86.3635 -80.4308 88.3958 -81.1173 89.4809 -81.1647C92.9699 -81.3173 96.4193 -80.9267 99.8958 -80.9267C106.05 -80.9267 113.848 -79.9399 119.734 -82.0136C126.082 -84.2504 131.5 -90.7897 135.359 -96.039C137.152 -98.4771 140.038 -101.235 140.811 -104.215L101.88 -104.215H89.9769L83.7775 -103.967ZM275.461 -42.0311C274.618 -45.5667 275.213 -49.7989 275.213 -53.4273V-75.7241C275.213 -78.6872 275.751 -82.2475 275.082 -85.1383C274.012 -89.7636 269.206 -88.3925 266.075 -89.7472C264.878 -90.265 264.789 -91.8438 263.31 -92.3246C261.786 -92.8204 259.555 -92.7514 258.103 -92.0627C257.229 -91.6481 256.398 -90.5386 255.375 -90.5774C253.308 -90.6559 251.519 -92.8567 249.424 -93.0743C246.855 -93.3412 242.53 -90.0385 240.249 -88.9149C239.41 -88.5017 238.053 -88.0934 237.528 -87.2713C236.723 -86.0103 237.273 -83.1306 237.273 -81.6699V-67.5486V-14.0361V1.57166C237.273 3.02651 236.682 6.14876 237.528 7.3766C238.103 8.21111 239.609 8.39208 240.497 8.73422C242.825 9.63157 247.451 12.3549 249.92 11.8434C251.71 11.4725 253.486 9.38872 255.304 9.39257C256.12 9.39406 256.914 10.3902 257.607 10.7582C259.008 11.5021 261.023 11.7169 262.566 11.3495C264.183 10.9646 264.678 9.51762 266.049 8.88352C269.024 7.50753 272.839 7.94551 274.648 4.54457C276.092 1.82891 275.213 -2.85651 275.213 -5.86063V-29.8917C275.213 -32.7042 274.238 -37.6867 275.363 -40.2602C275.836 -41.3435 277.485 -41.0401 278.437 -41.0401C280.129 -41.0401 282.243 -41.3783 283.882 -40.9336C285.09 -40.6062 285.939 -39.3228 287.307 -40.1281C288.584 -40.8795 287.944 -42.6262 286.619 -42.8336C285.623 -42.9894 284.647 -42.2277 283.644 -42.1584C281.021 -41.9772 277.985 -42.5794 275.461 -42.0311ZM-110.634 -61.6028C-110.634 -67.517 -110.527 -73.513 -110.382 -79.4403C-110.322 -81.8909 -109.455 -84.8865 -110.88 -87.1165C-113.369 -91.0107 -119.453 -89.6526 -123.277 -89.8688C-125.193 -89.9771 -126.541 -92.428 -128.736 -92.744C-130.134 -92.9453 -132.012 -92.8104 -133.144 -91.876C-133.783 -91.3481 -133.967 -90.3425 -134.743 -89.9948C-137.761 -88.6419 -141.652 -89.8189 -143.501 -86.1293C-144.346 -84.4438 -143.862 -81.7777 -143.862 -79.9357V-66.3099V-17.2568V-2.39223C-143.862 -0.358531 -144.364 2.45032 -143.386 4.29665C-141.459 7.93456 -137.731 7.16345 -134.697 8.76288C-132.637 9.84861 -131.954 11.6742 -129.232 11.4068C-126.779 11.1659 -125.241 8.96264 -123.032 8.77071C-119.602 8.47253 -115.215 9.64444 -112.144 7.64651C-108.542 5.3031 -110.138 -2.84323 -110.138 -6.60386C-110.138 -10.3372 -109.158 -15.6321 -110.217 -19.202C-110.617 -20.5528 -112.73 -19.9786 -113.057 -21.72C-113.509 -24.1237 -113.113 -26.9509 -113.113 -29.3962V-44.7563V-57.3911C-113.113 -59.2926 -112.855 -61.2593 -110.634 -61.6028ZM247.192 -78.9448L238.761 -86.3771V-86.8725C242.754 -88.7629 247.609 -92.8893 251.904 -90.776C253.494 -89.9934 255.908 -89.427 255.296 -87.1425C255.008 -86.0636 253.694 -85.1645 252.905 -84.4408C250.972 -82.666 248.911 -80.9294 247.192 -78.9448ZM-130.967 -91.4944C-129.119 -91.8754 -126.4 -91.324 -125.662 -89.349C-125.163 -88.0153 -125.512 -86.0524 -125.512 -84.6429C-125.512 -80.9144 -125.878 -76.9448 -125.441 -73.2467C-124.63 -66.3799 -125.264 -59.1056 -125.264 -52.1885L-125.264 -12.0542C-125.264 -8.445 -125.489 -4.75398 -125.242 -1.15352C-125.059 1.51044 -124.37 5.11291 -125.095 7.72316C-125.496 9.16752 -127.391 9.97011 -128.736 10.1681C-130.015 10.3564 -131.739 10.2535 -132.449 8.97793C-133.139 7.73599 -132.703 5.43498 -132.703 4.04908V-7.84257V-69.0351V-86.1293C-132.703 -87.9667 -133.367 -90.9995 -130.967 -91.4944ZM260.831 -91.4858C261.856 -91.5487 263.4 -91.3533 263.87 -90.2941C264.482 -88.915 264.054 -86.6261 264.054 -85.1383V-72.9989V-11.8064V5.04007C264.054 7.03037 264.558 10.0033 261.823 10.2283C260.138 10.3669 257.82 10.1594 256.907 8.48534C256.204 7.19621 256.615 4.98156 256.615 3.55362V-8.09031V-69.5305V-82.4132C256.615 -84.3523 256.248 -86.7202 256.719 -88.6067C257.183 -90.4663 259.048 -91.3764 260.831 -91.4858ZM-134.191 -88.8545V-23.6981V-3.13546L-133.943 7.26974C-136.627 7.94677 -141.396 6.01817 -142.347 3.3049C-142.927 1.65155 -142.622 -0.416218 -142.622 -2.14448V-12.7976V-68.0442V-81.1746C-142.622 -82.9633 -142.917 -85.1641 -141.574 -86.5783C-139.622 -88.6335 -136.69 -88.2602 -134.191 -88.8545ZM-111.378 -84.643L-124.024 -84.3953V-88.6069C-119.846 -88.9363 -112.621 -89.9836 -111.378 -84.643ZM265.542 7.76508L265.294 7.51733L265.542 -6.35626V-32.617V-68.5397L265.294 -88.3591C267.66 -89.0091 272.385 -88.112 273.475 -85.6118C274.109 -84.1571 273.723 -81.9897 273.725 -80.4314V-69.2829V-12.0544C273.725 -8.34804 273.581 -4.60856 273.744 -0.905925C273.828 0.999022 274.183 3.19552 272.884 4.78146C271.217 6.81484 267.979 7.29259 265.542 7.76508ZM238.761 -85.8817L246.448 -78.6972V-78.2017L238.761 -71.2649L238.513 -81.1746L238.761 -85.8817ZM255.375 -85.8817V-70.7694C252.492 -72.305 249.065 -76.0403 247.192 -78.6972L255.375 -85.8817ZM-99.7229 3.8012H-91.0439V-19.2389V-66.31V-79.4404L-91.1303 -84.2458L-93.0276 -84.643L-99.3576 -84.4935L-99.7229 -79.4404V-63.3371V3.8012ZM-73.1898 -84.3953C-74.6151 -76.8373 -75.4032 -69.1631 -76.8139 -61.6029C-77.1426 -59.8412 -78.7242 -58.5665 -78.9637 -56.8958C-79.5683 -52.6798 -78.8931 -47.7983 -78.8931 -43.5177C-78.8931 -37.1746 -79.4957 -30.5073 -78.867 -24.1937C-78.688 -22.3959 -77.2164 -21.0198 -76.827 -19.2389C-75.2499 -12.0277 -73.263 -3.80878 -72.9416 3.55345H-21.6111C-13.214 3.55345 -4.42711 4.30451 3.93016 3.52766C6.7985 3.26103 9.72754 2.1259 12.5672 1.57613C22.6364 -0.373399 32.6364 -3.0558 42.7568 -4.69181C48.6825 -5.64973 54.9746 -5.3607 60.9641 -5.62277C71.2106 -6.07107 81.4373 -6.40555 91.7128 -6.35606C106.055 -6.28694 120.832 -6.43833 135.108 -5.07546C153.502 -3.31961 171.53 1.92285 189.91 3.75896C199.865 4.7534 210.402 3.80119 220.411 3.80119C221.418 -3.98688 223.33 -11.6524 224.089 -19.4867C224.748 -26.2924 224.131 -33.4572 224.131 -40.297C224.131 -47.7315 224.716 -55.453 223.924 -62.8416C223.362 -68.0866 222.586 -73.2744 221.552 -78.4494C221.263 -79.8938 221.265 -82.9076 220.199 -83.9919C219.345 -84.8603 216.357 -84.3953 215.204 -84.3953H200.821C179.927 -84.3953 158.972 -78.8812 138.332 -75.8286C133.216 -75.072 128.107 -75.1965 122.958 -74.9713C111.224 -74.458 99.5131 -74.2567 87.7456 -74.2378C76.6925 -74.22 65.5674 -74.2028 54.5171 -74.9589C50.4139 -75.2396 46.1946 -74.9212 42.1184 -75.5499C32.2391 -77.0738 22.3443 -80.1813 12.6096 -82.4714C10.0947 -83.0631 7.48299 -84.0425 4.92234 -84.3496C-2.05891 -85.1869 -9.61588 -84.3953 -16.6514 -84.3953C-35.4246 -84.3953 -54.4428 -83.5062 -73.1898 -84.3953ZM-111.377 -83.8998L-111.625 -81.1746H-111.873V-83.6521H-123.776V-72.7514L-124.272 -81.1746L-123.697 -83.8222L-120.056 -83.8998H-111.377ZM-91.5393 3.30568H-99.2266V-84.1475C-97.581 -84.1475 -93.2414 -84.9251 -91.937 -83.8929C-90.9805 -83.1361 -91.5393 -79.8184 -91.5393 -78.6972V-62.8416V3.30568ZM-139.394 -83.7381C-142.255 -82.813 -141.845 -74.1053 -137.415 -75.3708C-134.268 -76.2699 -134.604 -85.2868 -139.394 -83.7381ZM-129.714 -83.4213C-131.266 -83.0008 -130.532 -80.7753 -128.998 -81.3289C-127.559 -81.848 -128.316 -83.7999 -129.714 -83.4213ZM268.777 -83.4681C267.407 -82.9104 267.527 -81.4129 267.526 -80.1836C267.526 -77.699 267.8 -73.9131 271.483 -75.4127C272.931 -76.0021 272.734 -77.6631 272.734 -78.9449C272.734 -81.4533 272.385 -84.9372 268.777 -83.4681ZM-138.899 -83.2967C-135.443 -84.2588 -135.432 -76.4379 -137.668 -75.8326C-141.199 -74.8772 -141.171 -82.6642 -138.899 -83.2967ZM260.143 -83.2192C258.683 -82.5665 259.995 -80.807 261.289 -81.3279C262.789 -81.9314 261.511 -83.8311 260.143 -83.2192ZM269.758 -83.2774C273.179 -83.8579 273.259 -76.2357 270.745 -75.781C267.196 -75.1391 267.268 -82.8549 269.758 -83.2774ZM3.68137 -83.1565V-82.9088L-47.1533 -67.2528L-66.2472 -61.3896L-76.4141 -58.3823C-74.2943 -63.7978 -73.9709 -70.4581 -73.1581 -76.2197C-72.9572 -77.6439 -72.9576 -81.9938 -71.8011 -82.9019C-70.7724 -83.7098 -67.7618 -83.1565 -66.4952 -83.1565H-52.1127L3.68137 -83.1565ZM190.38 -83.0491C191.7 -82.9967 192.671 -80.693 193.225 -79.6881C195.305 -75.9169 196.78 -71.9965 197.702 -67.7965C199.74 -58.5114 198.837 -48.5172 198.837 -39.0583C198.837 -31.2122 199.679 -22.7375 197.987 -15.0273C196.96 -10.3446 195.554 -5.68188 193.354 -1.40139C192.664 -0.057895 191.956 2.49202 190.156 2.52577C186.355 2.59704 182.246 1.28976 178.503 0.68912C169.165 -0.809222 159.838 -2.43446 150.482 -3.81153C147.169 -4.29907 143.88 -4.90583 140.563 -5.36529C139.551 -5.50549 137.3 -5.51411 136.58 -6.29242C135.829 -7.10269 135.694 -9.02262 135.461 -10.0724C134.752 -13.2588 133.969 -16.4938 133.581 -19.7344C132.835 -25.9621 133.124 -32.2938 133.124 -38.5628C133.124 -45.3226 132.877 -52.1419 133.349 -58.8777C133.623 -62.7819 134.543 -66.4772 135.441 -70.2739C135.707 -71.3977 135.709 -73.4511 136.722 -74.1971C137.706 -74.9221 139.633 -74.8573 140.811 -75.0774C144.339 -75.7365 147.927 -76.2359 151.474 -76.7833C160.322 -78.1486 169.177 -79.5553 178.007 -81.0347C181.876 -81.6829 186.465 -83.2044 190.38 -83.0491ZM219.418 2.56249C212.763 3.79688 205.11 2.81023 198.341 2.81023C196.357 2.81023 194.07 2.43411 192.141 2.81023C191.984 0.452411 194.622 -2.87228 195.514 -5.11753C197.554 -10.2545 198.768 -15.4855 199.29 -20.9731C200.047 -28.9159 199.333 -37.2701 199.333 -45.2519C199.333 -52.0546 200.054 -59.3655 198.672 -66.0623C197.9 -69.8007 196.825 -73.5141 195.171 -76.963C194.201 -78.9845 192.45 -81.0147 191.894 -83.1565H211.731C213.379 -83.1565 217.672 -83.9268 218.99 -82.9019C220.105 -82.035 220.098 -78.7731 220.361 -77.4584C221.451 -72.0112 222.509 -66.4179 222.646 -60.8597C222.957 -48.2067 223.735 -35.1096 222.868 -22.4595C222.294 -14.0838 219.777 -5.7781 219.418 2.56249ZM3.43364 -82.1656C0.80938 -75.0044 -4.40036 -68.941 -6.22736 -61.3552C-7.5592 -55.8252 -6.73323 -49.4266 -6.73323 -43.7654C-6.73323 -35.2634 -8.09148 -25.4657 -5.63267 -17.2569C-3.55728 -10.3282 0.932577 -4.7118 3.68166 1.81926C-2.76895 0.947172 -9.72372 -2.28287 -15.9083 -4.35558C-28.5733 -8.60019 -41.4121 -12.3313 -54.0962 -16.5139C-59.6176 -18.3346 -65.1501 -20.1274 -70.7104 -21.8241C-72.9942 -22.521 -75.2867 -23.5967 -77.6537 -23.946V-38.5628C-76.2249 -38.5006 -73.7232 -37.1232 -72.456 -37.7732C-69.0922 -39.4986 -68.6193 -44.5918 -72.704 -45.8225C-73.9744 -46.2053 -76.1796 -45.1481 -77.4057 -44.7564L-77.6537 -54.1706L-77.0789 -57.4274L-69.9665 -59.746L-53.1043 -64.9287L-13.4285 -77.1415L3.43364 -82.1656ZM2.93774 -79.9359C2.49942 -75.5376 0.685155 -71.2611 0.252119 -66.8055C-0.386835 -60.2315 0.120143 -53.582 -0.0415855 -46.9861C-0.295486 -36.6303 -1.26005 -25.8434 -0.243855 -15.5227C0.265359 -10.3512 2.03112 -5.44193 3.18569 -0.410436H2.93774C-1.01575 -6.86406 -4.93376 -14.1666 -6.15676 -21.7163C-7.33774 -29.0065 -6.23733 -37.3642 -6.23733 -44.7564C-6.23733 -49.4173 -6.82108 -54.5125 -6.16286 -59.1255C-5.51386 -63.6736 -3.25905 -67.8951 -1.35416 -72.0081C-0.152507 -74.6028 1.10799 -77.7297 2.93774 -79.9359ZM254.383 -70.5217H239.256L244.712 -76.2197L246.944 -77.7257L249.175 -75.972L254.383 -70.5217ZM169.328 -77.3533C161.555 -76.3337 153.887 -74.8682 146.266 -72.9677C144.372 -72.4953 139.888 -72.3088 138.544 -70.8686C137.78 -70.051 137.704 -68.1159 137.488 -67.0533C136.841 -63.8657 136.101 -60.6632 136.1 -57.3913V-23.6983C136.1 -20.285 136.628 -16.8963 137.234 -13.5408C137.42 -12.513 137.397 -10.5445 138.229 -9.80843C139.02 -9.10909 140.562 -9.03847 141.555 -8.83294C144.042 -8.31819 146.518 -7.69771 148.994 -7.12893C157.762 -5.11474 166.515 -3.38335 175.527 -3.38335C177.826 -3.38335 180.438 -3.03485 182.704 -3.42006C184.391 -3.70687 183.462 -7.57133 183.462 -8.8337V-26.1757V-64.5758C183.462 -67.7113 183.393 -70.8555 183.462 -73.9901C183.482 -74.8343 184.03 -76.5669 183.269 -77.2038C182.503 -77.8447 180.435 -77.4585 179.491 -77.4585C176.159 -77.4585 172.629 -77.7868 169.324 -77.3533M134.856 -74.2378L131.89 -58.8778L131.88 -37.3241L131.923 -21.9641L134.856 -6.10853L125.433 -6.61376L107.331 -7.10045L70.6312 -7.33748L42.8582 -5.86077L40.8966 -19.7344L40.8743 -37.8196L40.884 -60.3642L42.8579 -74.2378L74.8465 -73.0027L111.299 -73.4909L134.856 -74.2378ZM-123.78 -72.0081V-70.7694H-124.028L-123.78 -72.0081ZM-122.292 -70.2739L-122.292 -10.0724H-123.78L-124.028 -70.2739H-122.292ZM-121.222 -70.1233C-119.562 -70.9047 -119.565 -68.7792 -119.565 -67.7965V-58.1345L-119.565 -21.7163V-13.0453C-119.565 -12.2603 -119.266 -10.6844 -120.139 -10.2575C-121.676 -9.50621 -121.794 -11.3119 -121.796 -12.3021V-20.9731L-121.796 -57.1435V-66.8055C-121.796 -67.6513 -122.171 -69.6762 -121.222 -70.1233ZM-119.069 -10.0724L-119.069 -70.2739L-117.092 -69.8767L-116.837 -66.8055V-59.1255V-22.7073L-116.837 -13.7885L-117.092 -10.4696L-119.069 -10.0724ZM-111.878 -70.2739V-62.5939C-115.276 -61.2499 -114.605 -56.8729 -114.605 -53.9229V-28.1576C-114.605 -25.0514 -115.749 -19.7367 -111.63 -18.9911L-111.382 -10.3201C-112.315 -10.0446 -115.391 -9.5637 -116.09 -10.4723C-116.66 -11.2134 -116.341 -12.9059 -116.341 -13.7885V-22.2118L-116.341 -58.63V-67.0533C-116.341 -67.8339 -116.643 -69.466 -115.943 -70.0193C-115.098 -70.6882 -112.911 -70.2739 -111.878 -70.2739ZM243.716 -69.5307C244.713 -66.163 243.965 -61.6473 243.965 -58.1345C240.896 -58.0982 241.981 -53.9858 241.981 -51.6932V-30.3873C241.981 -28.0025 240.781 -22.9927 243.965 -22.955V-10.8156L238.907 -11.0703L238.509 -14.7795V-25.1847V-69.2829L243.716 -69.5307ZM251.9 -69.5307V-55.4093V-26.9189L252.148 -11.0634L244.46 -10.8156V-22.955C247.147 -23.1598 246.196 -27.4124 246.196 -29.3963V-50.7022C246.196 -52.7808 247.254 -57.9216 244.46 -58.1345V-66.31L244.858 -69.2761L251.9 -69.5307ZM255.123 -69.5307L255.371 -63.0894V-50.95V-10.8156H252.644V-55.6571V-65.5668L252.898 -69.1333L255.123 -69.5307ZM63.1918 -61.4978C60.047 -61.0802 57.1486 -60.1093 55.5134 -57.1435C54.1633 -54.6948 54.5127 -51.9097 54.5127 -49.2158V-34.3512C54.5127 -30.5697 53.5825 -25.4709 55.9108 -22.2118C59.0321 -17.8426 64.6858 -18.4957 69.3911 -18.4957C71.3381 -18.4957 73.4128 -18.2945 75.3425 -18.57C86.1171 -20.108 83.5256 -32.3156 83.5256 -40.297C83.5256 -45.0227 84.8933 -52.3164 82.841 -56.6481C79.806 -63.0542 69.1026 -62.2827 63.1918 -61.4978ZM63.1918 -61.0367C68.8296 -61.7104 79.1498 -62.596 82.1572 -56.6481C84.3926 -52.227 83.0297 -44.9048 83.0297 -40.0493C83.0297 -33.5644 85.5551 -20.511 76.3344 -19.2836C70.7063 -18.5345 59.8386 -17.2223 56.3063 -22.7494C54.2576 -25.955 55.0087 -30.4827 55.0087 -34.1035V-47.4816C55.0087 -54.0507 55.2383 -60.0863 63.1918 -61.0367ZM245.7 -57.3913V-23.6983L242.725 -23.4505L242.477 -34.3512V-57.3913H245.7ZM-130.291 -55.1545C-131.426 -54.2289 -129.698 -52.5791 -128.604 -53.5771C-127.485 -54.5984 -129.325 -55.9417 -130.291 -55.1545ZM260.14 -55.2216C258.702 -54.6003 259.975 -52.6022 261.286 -53.2473C262.76 -53.9727 261.507 -55.8124 260.14 -55.2216ZM114.77 -46.7383C116.038 -44.138 119.801 -41.878 121.962 -39.9786C122.994 -39.0708 123.796 -38.0997 125.185 -37.8196L118.843 -43.5186L114.77 -46.7383ZM-77.1612 -39.8015V-43.7654C-75.8926 -44.056 -73.9265 -45.0849 -72.7014 -44.3494C-70.5075 -43.0323 -70.3974 -39.7532 -73.1973 -39.0031C-74.3652 -38.6902 -76.0191 -39.54 -77.1612 -39.8015ZM-129.483 -27.4226C-130.907 -27.3348 -130.964 -25.2581 -129.483 -25.2581C-127.9 -25.2581 -127.847 -27.5235 -129.483 -27.4226ZM260.139 -27.2267C258.671 -26.5948 259.925 -24.5886 261.286 -25.2744C262.754 -26.0137 261.496 -27.8106 260.139 -27.2267ZM-76.6653 -23.4505L-66.9943 -20.2228L-48.6443 -14.3473L2.68622 2.06699V2.31474H-50.628H-65.2585C-66.8759 2.31474 -69.8978 2.90137 -71.3503 2.16525C-72.5068 1.5792 -72.5509 -2.43006 -72.7597 -3.63109C-73.6495 -8.74738 -74.714 -13.8512 -75.458 -18.9911C-75.6598 -20.3856 -77.0205 -22.1527 -76.6653 -23.4505ZM254.875 -9.82467C253.752 -7.41912 251.025 -5.72345 249.172 -3.87884C248.609 -3.31839 247.819 -2.2143 246.941 -2.19223C246.031 -2.16934 245.18 -3.35806 244.597 -3.93103C242.898 -5.60051 239.743 -7.53032 239.005 -9.82467H254.875ZM-111.63 -9.57692L-111.382 2.56248C-114.752 3.55792 -119.272 2.81022 -122.788 2.81022V2.56248H-111.878C-111.878 -0.853378 -112.946 -6.44248 -111.63 -9.57692ZM239.005 -8.83369C241.293 -6.54789 245.069 -4.0997 246.444 -1.15366L238.757 5.78313L238.509 -4.86981L239.005 -8.83369ZM255.371 -8.83369V6.03088C253.087 4.96684 248.127 0.560971 247.436 -1.89689L255.371 -8.83369ZM-139.154 -5.20262C-142.234 -4.26276 -141.959 4.62526 -137.42 3.24645C-134.308 2.30109 -134.734 -6.55129 -139.154 -5.20262ZM269.011 -4.93364C266.071 -3.79505 266.667 4.94571 271.237 3.34183C274.14 2.32311 273.654 -6.73208 269.011 -4.93364ZM-137.672 -4.63716C-135.529 -4.21143 -135.3 3.43192 -138.896 2.75346C-141.188 2.32096 -141.218 -5.34179 -137.672 -4.63716ZM269.272 -4.49456C273.176 -5.75478 273.288 2.12987 270.979 2.85515C267.237 4.03073 267.312 -3.86159 269.272 -4.49456ZM-75.9213 34.2736V34.5213L-64.0186 35.5123C-65.2298 37.6385 -65.9713 42.8843 -68.0543 44.1764C-69.1235 44.8396 -70.7951 44.2437 -71.9538 44.1931C-74.8822 44.0649 -79.9896 43.3013 -82.5934 44.7786C-85.3096 46.3197 -84.5522 50.7509 -84.9229 53.3498C-85.1081 54.6488 -85.5177 55.826 -84.6305 56.9906C-83.4351 58.5597 -80.7324 58.902 -78.897 59.0479L-75.5112 65.7369L-73.8568 67.8171L-68.4821 67.9666H-55.5875C-53.6571 52.7856 -42.0454 41.0625 -26.0787 43.5488C-18.2029 44.7752 -11.6947 49.1886 -8.00362 56.3227C-6.55774 59.1171 -5.71815 61.9422 -5.03062 64.9937C-4.83735 65.8515 -4.97408 67.5749 -3.95238 67.8879C-0.423517 68.9687 4.93561 67.9666 8.63758 67.9666H36.9066L130.145 67.9666C131.614 60.8522 134.569 54.1209 140.064 49.1804C148.246 41.8235 161.995 41.0297 170.387 48.5232C174.334 52.0475 177.022 56.3888 178.945 61.2776C179.472 62.6182 180.035 67.2025 181.305 67.8171C183.398 68.83 187.407 67.8271 189.658 67.7286C196.228 67.4412 202.98 68.5546 209.496 67.9246C211.898 67.6924 213.724 66.8298 214.699 64.4982C215.243 63.1967 215.356 61.4333 216.352 60.3653C217.857 58.7524 220.18 59.4879 221.509 57.0659C222.99 54.3655 222.759 48.5722 220.146 46.5711C217.703 44.7006 213.471 44.2448 210.488 44.1833L211.976 33.0349L219.663 34.0258C223.709 26.8093 210.546 24.4815 206.025 23.4595C200.979 22.3189 195.541 22.0144 190.65 20.2914C174.702 14.6728 159.959 5.01939 143.287 1.57077C122.866 -2.65345 102.501 -2.67199 81.7898 -2.6401C70.2118 -2.62226 57.2776 -3.52066 46.0816 -0.0546759C42.9022 0.929597 39.9026 2.85534 36.9066 4.29058C30.6036 7.31001 24.2433 10.2781 18.0606 13.537C11.8097 16.8318 5.92592 20.2371 -1.03339 21.7813C-25.5448 27.22 -53.1128 21.7932 -75.9213 34.2736ZM78.3182 44.6788L69.6391 44.431H53.5209H1.69435C1.69435 38.7219 2.21041 33.0864 3.82085 27.5845C4.42997 25.5037 5.00309 22.9333 6.39742 21.2112C7.32665 20.0636 9.33137 19.5147 10.6214 18.8495C13.6882 17.268 16.709 15.5986 19.7964 14.0573C25.0786 11.4203 30.3875 8.84926 35.6668 6.21211C39.1809 4.45666 42.8244 2.22831 46.5775 1.04833C50.1996 -0.0904104 53.9944 -0.34445 57.7364 -0.700226C63.5316 -1.25121 69.2757 -1.26295 75.0946 -1.40502C76.564 -1.44092 80.1562 -2.39575 81.3922 -1.39373C82.0571 -0.854811 81.5711 0.59581 81.5445 1.32379C81.4483 3.96598 81.1716 6.61107 81.0557 9.25157C80.7018 17.3135 79.6213 25.2562 78.8562 33.2826C78.5123 36.8912 79.3431 41.2147 78.3182 44.6788ZM80.054 44.6788C79.3488 41.7193 80.0741 38.2681 80.2798 35.2646C80.8268 27.285 82.2345 19.236 82.2859 11.2335C82.306 8.15245 82.4909 4.88095 82.8525 1.81928C82.9463 1.02516 82.7714 -0.583817 83.2845 -1.21748C83.8626 -1.93131 85.4491 -1.64912 86.2534 -1.64912H94.1885C99.9228 -1.64912 105.587 -1.41329 111.299 -1.16338C114.229 -1.03519 118.199 -1.44151 120.97 -0.455527C123.354 0.392884 125.525 2.5443 127.417 4.15488C134.624 10.289 141.404 17.4485 146.969 25.1071C148.893 27.7541 151.976 32.2708 149.608 35.5087C147.494 38.3996 142.629 39.7232 139.568 41.4012C138.021 42.249 136.528 44.02 134.853 44.5096C133.605 44.874 131.941 44.4311 130.641 44.4311H120.474H93.4446C89.2073 44.4311 84.1798 43.6974 80.054 44.6788ZM255.371 8.01285L249.668 10.5895L246.196 9.57825L238.757 6.77413C240.234 4.67994 242.407 3.12622 244.212 1.32379C244.846 0.690935 245.733 -0.564554 246.692 -0.677658C247.637 -0.789068 248.538 0.434674 249.149 1.00168C251.093 2.8055 254.952 5.29963 255.371 8.01285ZM9.62953 23.3729H77.5743L79.5581 -0.162663C69.8894 -0.162663 59.4932 -0.576419 50.0492 1.79329C41.4978 3.93902 32.9588 8.97466 25.2519 13.139C21.4802 15.1769 17.6857 17.1831 14.0931 19.5317C12.5009 20.5725 10.5623 21.6654 9.62953 23.3729ZM218.919 32.7871C217.18 32.5675 212.554 31.1093 211.063 32.0544C210.183 32.6121 210.312 34.5931 210.202 35.5123C209.834 38.5711 209.387 41.6229 209 44.6788H187.179C183.821 44.6788 179.756 45.3066 176.474 44.5838C173.934 44.0245 171.348 41.3514 168.829 40.3316C162.254 37.671 154.351 37.2099 147.503 38.9807C148.647 36.9651 151.171 36.4335 151.637 33.7781C152.37 29.6003 148.653 25.3895 146.264 22.3819C142.287 17.3765 138.072 12.3877 133.359 8.05127C130.704 5.60845 125.993 2.89735 124.193 -0.162663C141.063 0.185272 156.363 6.91637 171.556 13.4313C179.604 16.8822 187.438 21.1062 196.106 22.726C202.082 23.8428 208.232 24.7361 213.96 26.8547C216.818 27.9118 219.311 29.4733 218.919 32.7871ZM84.0216 23.3729H140.808C140.16 20.1224 136.637 16.7355 134.608 14.2064C130.763 9.412 126.117 3.59544 120.226 1.26454C114.274 -1.09028 106.176 0.0850878 99.8919 0.0850878C96.4999 0.0850878 93.1084 0.326368 89.7286 0.205504C88.6236 0.166039 86.3331 -0.389895 85.4111 0.339711C84.5296 1.03713 84.7974 5.14388 84.7691 6.27866C84.6271 11.9823 84.0216 17.6586 84.0216 23.3729ZM-130.149 0.835393C-131.405 1.67375 -129.961 3.24353 -128.778 2.55448C-127.344 1.72015 -128.92 0.0152254 -130.149 0.835393ZM260.12 0.83985C258.625 1.66425 260.183 3.51116 261.492 2.69334C262.795 1.87918 261.333 0.170714 260.12 0.83985ZM128.905 1.81935C130.034 3.74855 132.478 5.25939 134.112 6.78031C138.189 10.5755 142.321 14.3214 146.511 17.9932C148.398 19.6468 150.76 22.4958 153.206 23.2468C156.505 24.2597 160.702 23.6207 164.117 23.6207H185.939C184.783 22.277 182.794 21.6172 181.227 20.8288C178.566 19.4901 175.913 18.0806 173.292 16.664C163.9 11.5888 154.295 7.66402 144.031 4.75747C139.135 3.37089 134.017 1.81935 128.905 1.81935ZM-123.78 7.51744C-123.78 6.56845 -124.208 4.21355 -123.383 3.56043C-122.775 3.07993 -121.526 3.30581 -120.805 3.30581H-114.357C-113.649 3.30581 -112.372 3.07447 -111.783 3.56043C-110.98 4.22279 -111.907 5.6963 -112.429 6.22577C-113.979 7.79786 -116.56 7.51744 -118.573 7.51744H-123.78ZM4.67003 21.6388C2.44407 27.0594 1.21593 32.4278 0.525277 38.2376C0.274427 40.3475 0.605474 42.6363 0.206509 44.6789C-2.86261 43.9488 -6.54941 45.3686 -9.46446 44.4663C-11.6369 43.7939 -13.5504 41.6927 -15.6638 40.7222C-21.1037 38.2243 -27.0636 37.3566 -33.022 37.7642C-37.2274 38.052 -41.6922 39.0079 -45.4206 41.0401C-47.3282 42.0799 -49.1085 44.0266 -51.124 44.7463C-52.5691 45.2624 -54.5653 44.9266 -56.0835 44.9266H-66.2504L-62.5308 34.0259L-71.4578 33.7782L-66.7464 31.5839L-52.6119 28.2659L-17.1516 25.0653L-3.51309 23.4686L4.67003 21.6388ZM63.1181 33.0418C62.1343 33.7845 62.3411 35.8741 63.4729 36.3539C65.3837 37.1639 68.8105 36.5034 70.879 36.5034C71.6115 36.5034 72.808 36.72 73.4323 36.2487C74.4162 35.5061 74.2094 33.4165 73.0776 32.9367C71.1668 32.1267 67.74 32.7872 65.6715 32.7872C64.939 32.7872 63.7425 32.5705 63.1181 33.0418ZM131.987 33.0418C131.007 33.7063 131.072 35.8551 132.185 36.3539C134.094 37.2092 137.729 36.5035 139.816 36.5034C140.527 36.5033 141.567 36.6757 142.188 36.2487C143.106 35.6176 143.037 33.4079 141.991 32.9367C140.087 32.0792 136.443 32.7871 134.36 32.7872C133.645 32.7873 132.613 32.6173 131.987 33.0418ZM-17.1516 33.0351C-17.303 33.8502 -17.6099 34.9266 -17.107 35.6816C-16.5108 36.577 -13.1446 36.5992 -12.3415 35.9637C-10.117 34.2036 -13.3901 33.0352 -14.6716 33.0351H-17.1516ZM-1.28104 58.0572C-2.42548 58.0572 -4.61588 58.4799 -5.58655 57.8025C-6.79914 56.9564 -7.57348 54.3586 -8.39686 53.1023C-10.0725 50.5455 -12.3485 48.1461 -14.9196 46.4733C-24.027 40.5478 -37.7378 40.3941 -46.4122 47.284C-50.1536 50.2556 -52.4525 54.1383 -54.5954 58.3049L-58.5629 58.0572C-56.389 50.4038 -51.25 44.0905 -43.9325 40.7924C-28.6752 33.9157 -5.42944 40.1512 -1.28104 58.0572ZM184.699 58.0572C183.21 58.0572 180.698 58.5454 179.341 57.9077C178.376 57.4546 177.809 55.7114 177.294 54.8365C176.189 52.959 174.81 51.1921 173.289 49.6339C169.102 45.3456 163.566 42.2314 157.422 42.2018C150.353 42.1678 144.257 43.8342 138.846 48.5783C136.962 50.2304 135.344 52.2249 134.011 54.341C133.379 55.3432 132.805 57.1544 131.784 57.8025C130.786 58.436 128.81 58.0572 127.665 58.0572C128.273 55.5025 129.862 53.0408 131.302 50.8726C143.799 32.0642 178.471 34.8359 184.699 58.0572ZM-30.2939 45.074C-35.7833 45.2722 -41.4333 47.2073 -45.378 51.1624C-52.8512 58.6553 -51.552 70.9197 -42.9406 76.9424C-38.3175 80.1757 -33.0967 81.0821 -27.5662 80.8398C-24.9272 80.7242 -22.2627 79.8898 -19.8791 78.7909C-17.6958 77.7844 -15.61 76.3264 -13.991 74.5472C-12.4963 72.9045 -11.2464 71.025 -10.4121 68.9578C-5.23557 56.1321 -17.9101 44.6269 -30.2939 45.074ZM1.9426 58.0572H-0.785064C-2.0164 52.7424 -5.72395 49.4241 -8.72024 45.1745L-2.2729 45.1708L0.0572051 45.1911L0.597744 48.3951L1.9426 58.0572ZM78.3185 44.9267L80.0543 58.0571L3.18249 58.0571L1.69465 45.1745H52.7772H69.1435L78.3185 44.9267ZM134.36 45.4222C131.725 47.719 129.83 50.8022 128.181 53.8455C127.626 54.8693 126.907 57.397 125.832 57.9076C123.501 59.0148 118.597 58.0571 116.01 58.0571H91.957H84.5178C83.7429 58.0571 82.3421 58.3158 81.6918 57.8025C81.0569 57.3014 81.0831 55.5902 80.9507 54.8365C80.4371 51.9122 79.5597 47.8469 80.0543 44.9267L93.4448 45.1745H119.978L129.897 45.1737L134.36 45.4222ZM152.711 45.2808C149.529 45.736 146.54 46.6791 143.783 48.3519C134.452 54.0152 132.136 66.58 139.838 74.6525C144.579 79.6212 152.19 81.7323 158.91 80.7753C161.824 80.3602 164.829 79.4065 167.341 77.8607C169.464 76.5544 171.314 74.912 172.821 72.9219C173.996 71.3716 174.948 69.5821 175.514 67.7193C179.67 54.0641 165.322 43.4765 152.711 45.2808ZM185.195 58.0573C183.923 52.7069 180.017 49.4369 177.012 45.1747C187.344 45.1747 197.677 45.1251 208.009 45.1749C211.161 45.19 217.562 45.304 219.731 47.9937C221.37 50.0269 221.952 57.1426 218.67 57.9786C215.512 58.7832 211.271 58.0573 208.009 58.0573H185.195ZM-51.8676 45.4224C-54.2512 49.2295 -58.8435 53.1317 -58.8109 58.0573H-73.4413C-76.2003 58.0573 -79.5125 58.3334 -82.1195 57.2621C-82.8117 56.9776 -83.5233 56.5595 -83.7485 55.8018C-84.0614 54.7489 -83.5824 53.6424 -83.4347 52.607C-83.1309 50.4767 -84.0036 47.2858 -81.8589 45.8541C-79.9794 44.5995 -75.6454 45.4224 -73.4413 45.4224H-51.8676ZM-54.8433 58.5528L-56.8271 66.7283H-68.7299C-69.9753 66.7283 -72.2605 67.1643 -73.3446 66.4737C-75.2409 65.2656 -76.8091 60.7745 -77.9049 58.8006L-70.2177 58.5528H-54.8433ZM5.41425 66.7283H-3.5128L-5.24859 58.5528C-3.54322 58.5528 0.402678 57.8158 1.81613 58.8074C2.50373 59.2898 2.68503 60.531 2.93454 61.278C3.58383 63.2224 4.64035 64.8654 5.41425 66.7283ZM81.5421 66.7283L22.2765 66.7283H11.8616C10.5457 66.7283 8.60173 67.082 7.39896 66.4737C5.02221 65.2717 3.78581 61.0135 3.67846 58.5528H62.4482H75.0949L79.9083 58.8074L80.5827 61.0302L81.5421 66.7283ZM125.681 58.5528C125.428 60.242 124.189 65.4646 122.792 66.4737C122.058 67.0042 120.587 66.7283 119.73 66.7283H112.291H83.03L81.5421 58.8006C85.6711 57.5812 91.3654 58.5528 95.6766 58.5528H125.681ZM131.633 58.8006L128.765 66.4737L124.442 66.7283C125.064 62.5736 126.588 57.3107 131.633 58.8006ZM215.944 58.5528C214.799 60.5895 213.92 64.7254 211.966 66.0524C209.839 67.4959 205.739 66.7283 203.297 66.7283H181.971L179.492 58.8006C182.931 57.785 187.56 58.5528 191.146 58.5528H215.944Z" fill="#304A6E"/>
</svg>
