<svg width="81" height="72" viewBox="0 0 81 72" fill="none" xmlns="http://www.w3.org/2000/svg">
<rect width="81" height="72" fill="#1A1E26"/>
<rect x="-368" y="-377" width="980" height="753" rx="4" fill="white"/>
<path d="M242.811 -104.027C241.83 -108.937 240.437 -113.408 236.888 -117.127C230.172 -124.166 218.752 -124.021 212.29 -116.673C207.619 -111.361 206 -103.925 207.375 -97.0836C208 -93.9747 209.233 -90.9197 211.182 -88.4045C212.614 -86.5556 214.143 -84.963 216.183 -83.7759C227.853 -76.9823 240.426 -85.6278 242.479 -98.0755C242.805 -100.049 243.214 -102.013 242.811 -104.027ZM242.763 81.2094C241.321 75.4555 239.767 70.2146 234.763 66.4585C226.609 60.3381 215.602 63.1998 210.259 71.5384C206.919 76.7515 206.124 83.4651 207.604 89.3925C209.601 97.3828 216.415 104.454 225.101 104.239C234.386 104.009 240.813 96.2527 242.423 87.6567C242.816 85.56 243.297 83.3399 242.763 81.2094ZM206.273 -139.487L197.106 -136.015L196.633 -143.951L196.115 -147.918C184.296 -123.691 189.31 -96.5509 183.261 -71.0464C182.05 -65.9406 179.408 -61.5075 176.985 -56.9119C173.375 -50.0639 170.039 -43.0491 166.668 -36.0821C165.112 -32.8659 163.017 -29.5761 161.949 -26.1632C158.358 -14.6831 159.202 -1.35165 159.202 10.5369C159.202 25.4657 159.411 40.0799 160.894 54.9242C161.735 63.34 162.924 72.2759 165.938 80.2175C170.89 93.2618 177.9 105.659 182.269 118.901C184.033 124.248 184.385 130.05 185.682 135.516C186.969 140.945 188.577 149.845 195.868 147.914L194.877 139.979C197.465 139.341 200.171 139.225 202.804 138.844C203.635 138.723 205.16 138.206 205.841 138.89C206.848 139.9 206.596 143.271 207.017 144.69C208.45 149.521 213.337 151.69 218.164 149.866C219.323 149.428 220.651 148.555 221.186 147.395C221.726 146.223 221.421 144.819 222.651 144.049C224.584 142.838 227.074 143.03 228.622 141.147C230.267 139.145 229.808 136.188 229.808 133.78L229.808 116.669C229.808 114.696 230.51 111.092 229.659 109.305C229.053 108.032 224.464 107.463 223.119 106.951C218.555 105.213 214.061 102.469 210.774 98.8153C202.924 90.0869 203.634 76.0311 211.498 67.5707C216.303 62.4002 223.006 59.5523 229.808 58.1477V-35.0904V-63.3594C229.808 -67.0614 230.81 -72.4204 229.73 -75.9493C229.415 -76.976 227.699 -76.867 226.835 -77.0187C223.981 -77.5206 221.241 -78.4942 218.66 -79.7868C211.893 -83.1756 206.986 -89.3028 205.644 -96.8358C202.725 -113.227 213.932 -125.532 229.808 -127.584V-140.727C229.808 -142.17 230.321 -144.854 229.554 -146.117C228.176 -148.386 223.728 -149.211 221.666 -150.854C220.034 -152.154 220.647 -154.896 219.113 -156.456C217.952 -157.638 216.604 -157.042 215.192 -156.888C212.507 -156.597 208.407 -157.236 206.704 -154.61C205.839 -153.276 206.025 -151.415 206.025 -149.902C206.025 -146.422 206.273 -142.973 206.273 -139.487ZM228.57 -128.824L220.394 -126.841L220.642 -149.654C222.568 -149.044 227.498 -146.947 228.487 -145.138C229.145 -143.934 228.817 -141.584 228.817 -140.231C228.817 -136.418 228.57 -132.625 228.57 -128.824ZM228.817 -66.583L223.119 -69.0976L220.667 -70.1811L220.394 -77.2458L228.57 -75.51L228.817 -66.583ZM228.817 9.54486L220.394 8.05702C221.685 -11.2161 220.642 -30.8924 220.642 -50.2167C220.642 -54.7979 221.001 -59.5542 220.465 -64.1033C220.359 -64.9986 219.913 -67.9914 221.194 -68.1943C222.062 -68.3317 223.297 -67.721 224.11 -67.4469C225.53 -66.9683 227.559 -66.2274 228.315 -64.8248C228.894 -63.7512 228.802 -61.5997 228.816 -60.3837C228.855 -57.161 228.817 -53.9356 228.817 -50.7127V-10.293C228.817 -3.76023 228.243 3.04575 228.817 9.54486ZM220.394 53.6842L220.642 33.3503L220.394 9.79289L220.642 9.54486L228.569 11.0327C228.57 20.5157 228.817 30.0456 228.817 39.5497C228.817 42.4277 229.899 48.0897 228.459 50.6396C227.614 52.1369 222.048 53.5148 220.394 53.6842ZM228.569 57.1558L220.394 59.3876V55.42L228.569 52.4443V57.1558ZM220.642 143.947V136.011V118.901L220.642 107.494L228.569 109.974L228.569 131.3C228.569 133.758 229.328 137.783 228.005 139.956C226.614 142.24 222.658 142.204 220.642 143.947ZM219.898 -130.808C214.575 -130.343 211.647 -125.991 207.264 -123.865C207.264 -131.15 207.275 -138.434 207.264 -145.687C207.26 -147.89 206.452 -152.182 207.781 -154.049C209.107 -155.911 212.533 -155.195 214.448 -155.401C215.429 -155.506 216.419 -155.955 217.417 -155.793C218.243 -155.659 218.73 -155.094 219.065 -154.362C220.552 -151.112 219.936 -147.129 219.899 -143.703C219.855 -139.548 220.57 -134.883 219.898 -130.808ZM219.899 -73.2783C201.927 -77.5412 195.442 -101.436 203.005 -116.674C206.52 -123.756 212.522 -128.158 219.899 -130.56C221.16 -125.415 215.741 -124.582 212.466 -121.775C208.52 -118.392 205.772 -113.845 204.703 -108.739C203.045 -100.817 204.371 -91.8608 209.494 -85.429C211.308 -83.1519 213.473 -81.326 215.935 -79.7824C217.02 -79.1018 219.156 -78.5005 219.842 -77.3909C220.425 -76.448 220.183 -74.2855 219.899 -73.2783ZM220.146 -70.0546L206.768 -71.7904C207.381 -74.3646 207.381 -78.1434 206.768 -80.7175L211.971 -76.6079L220.146 -72.5344V-70.0546ZM207.016 6.56918V-70.3026L216.43 -69.3107L219.86 -68.2436L219.921 -63.3594L219.899 -52.2006V-9.54905V3.0976L219.879 7.65062L216.678 7.63203L207.016 6.56918ZM207.016 62.1156V8.05732L216.678 8.9882L219.841 9.69484L219.902 12.5208L219.898 19.7121V44.5094L219.92 50.7088L219.87 53.8288L215.687 56.2257L207.016 62.1156ZM219.898 112.702C196.514 106.314 193.84 70.8732 213.457 58.8451C215.436 57.6318 217.626 56.2132 219.898 55.6682C219.99 56.8363 220.53 58.4989 219.892 59.583C219.26 60.6548 217.443 61.2209 216.43 61.8871C214.291 63.2943 212.244 64.9236 210.526 66.8271C205.922 71.9289 203.88 78.3547 204.047 85.1771C204.201 91.4989 207.27 97.2186 211.727 101.535C213.27 103.03 215.082 104.301 216.926 105.399C217.802 105.921 219.104 106.295 219.739 107.13C220.415 108.017 220.21 111.608 219.898 112.702ZM207.016 105.015L212.962 109.866L220.146 113.446C218.714 121.169 219.886 130.137 219.899 137.996C219.902 140.373 221.111 145.125 219.749 147.16C218.02 149.743 211.933 149.509 209.774 147.591C208.628 146.573 208.167 144.652 207.871 143.203C206.788 137.902 207.016 132.462 207.016 127.085V105.015ZM206.52 -71.7901L193.142 -70.4265L183.48 -67.5746C188.168 -85.1278 187.157 -103.493 189.642 -121.385C190.374 -126.662 191.429 -131.907 192.964 -137.007C193.588 -139.079 194.095 -141.689 195.372 -143.454C196.087 -141.032 196.351 -137.008 195.867 -134.527C199.164 -134.328 203.693 -137.301 206.768 -138.495V-128.08C206.768 -126.574 207.116 -124.556 206.622 -123.121C205.965 -121.209 204.065 -119.506 203.116 -117.665C200.839 -113.248 199.644 -108.254 199.585 -103.283C199.523 -98.1298 200.253 -92.888 202.386 -88.1564C203.427 -85.8477 205.573 -83.8016 206.375 -81.4611C207.293 -78.7767 206.52 -74.6272 206.52 -71.7901ZM206.52 6.56948L160.44 9.79319C160.44 -1.3744 159.738 -13.551 162.674 -24.4272C163.541 -27.6421 165.342 -30.6336 166.815 -33.6022C169.228 -38.468 171.576 -43.3707 174.005 -48.2326C176.161 -52.5486 178.221 -56.9341 180.612 -61.1273C181.41 -62.5267 181.964 -64.7863 183.298 -65.7514C189.309 -70.1014 199.444 -70.3023 206.52 -70.3023V6.56948ZM206.371 8.41284C206.974 9.60192 206.52 11.9485 206.52 13.2648V25.1675V50.9568C206.52 54.526 207.403 59.439 206.393 62.8595C205.836 64.748 203.944 66.33 203.001 68.067C201.325 71.1513 199.995 76.4374 196.611 78.0544C193.005 79.7772 188.387 76.0146 185.71 73.9862C180.298 69.8849 175.388 65.1751 170.598 60.3798C167.501 57.2804 163.884 53.6503 161.857 49.7169C160.637 47.3489 161.139 44.1094 160.894 41.5337C160.226 34.5141 160.193 27.5139 160.193 20.456V13.7607C160.193 13.0484 159.991 11.8005 160.624 11.2879C161.549 10.539 164.465 10.8288 165.643 10.7753C169.916 10.5811 174.267 10.4047 178.525 9.99903C185.606 9.32459 192.705 8.0693 199.831 8.05732C201.149 8.05732 205.651 6.99255 206.371 8.41284ZM193.638 138.739L194.629 146.923C190.766 146.922 189.394 144.153 188.333 140.723C186.546 134.945 185.673 129.025 184.47 123.117C182.721 114.527 178.39 106.565 174.914 98.5677C168.382 83.5354 162.392 68.5819 161.679 51.9486C164.812 54.369 167.402 58.591 170.13 61.5391C174.458 66.216 179.436 70.4628 184.41 74.4316C187.401 76.8181 192.718 81.2447 196.858 79.2831C198.544 78.4847 199.433 76.8644 200.575 75.5062C200.769 76.8178 200.193 78.1454 200.101 79.4737C199.854 83.0671 199.739 86.8202 200.404 90.3846C201.042 93.8094 202.248 96.9814 203.859 100.056C204.589 101.45 205.95 102.768 206.393 104.271C206.893 105.964 206.52 108.217 206.52 109.974V121.629V132.788C206.52 133.811 206.932 136.012 206.266 136.854C205.716 137.548 203.632 137.427 202.804 137.5C199.806 137.762 196.561 138.035 193.638 138.739ZM200.691 107.247C200.058 104.505 196.68 102.992 194.392 104.865C192.721 106.232 192.354 108.469 192.909 110.47C193.673 113.226 197.079 114.436 199.29 112.564C200.775 111.306 201.112 109.069 200.691 107.247ZM198.409 -8.28215C198.08 -9.81314 195.364 -9.90449 194.778 -8.52377C194.047 -6.79862 194.047 -0.644179 194.778 1.08097C195.329 2.38023 197.805 2.39347 198.327 1.05866C198.64 0.259983 198.355 -0.777933 198.346 -1.61336C198.322 -3.6674 198.834 -6.29737 198.409 -8.28215ZM198.445 60.4132C198.015 59.0063 195.439 58.8919 194.813 60.201C193.942 62.0204 194.629 65.5676 194.629 67.5713C194.629 68.3007 194.463 69.3022 194.778 69.9819C195.368 71.2512 197.857 71.0057 198.333 69.776C198.66 68.9315 198.37 67.9495 198.349 67.0754C198.301 65.0878 199.017 62.2873 198.445 60.4132ZM198.097 -89.148C197.282 -89.2994 196.206 -89.6062 195.451 -89.1033C194.534 -88.4929 194.526 -85.0866 195.274 -84.3379C197.243 -82.3666 198.097 -85.2735 198.097 -86.668V-89.148ZM163.661 56.9087C163.705 62.2474 165.375 67.7035 166.91 72.779C169.814 82.3786 173.391 91.1225 177.966 100.056C180.262 104.539 182.234 110.327 185.462 114.191C186.075 110.622 185.71 106.658 185.71 103.032C185.71 98.2765 186.043 93.3756 185.534 88.6494C185.26 86.106 186.014 83.134 184.946 80.7142C184.039 78.66 182.01 76.922 180.546 75.2588C177.606 71.9202 174.663 68.564 171.598 65.3398C169.148 62.762 166.749 58.679 163.661 56.9087ZM185.215 -62.3665C183.761 -61.6296 182.827 -59.973 181.931 -58.6469C179.884 -55.6177 178.062 -52.4336 176.316 -49.224C171.555 -40.4726 165.951 -30.9371 163.531 -21.2029C162.544 -17.2331 162.449 -13.1063 162.152 -9.05227C161.853 -4.9578 161.679 -0.759473 161.679 3.34645C161.679 4.28089 161.253 6.66091 162.076 7.30693C163.133 8.13699 167.064 7.24444 168.368 7.06605C173.948 6.30115 179.625 6.28531 185.215 5.57821V-62.3665ZM184.967 11.7775C179.748 13.0212 173.486 12.5437 168.12 12.7792C166.971 12.8298 162.888 12.5222 162.181 13.415C161.431 14.3635 162.117 16.3958 162.165 17.4809C162.317 20.9699 161.927 24.4193 161.927 27.8958C161.927 34.0504 160.94 41.8484 163.014 47.7337C165.25 54.0817 171.79 59.4995 177.039 63.3595C179.477 65.1523 182.235 68.0381 185.215 68.8115V29.8796V17.9769L184.967 11.7775ZM123.031 203.461C126.567 202.618 130.799 203.213 134.427 203.213H156.724C159.687 203.213 163.247 203.751 166.138 203.082C170.764 202.012 169.392 197.206 170.747 194.075C171.265 192.878 172.844 192.789 173.325 191.31C173.82 189.786 173.751 187.555 173.063 186.103C172.648 185.229 171.539 184.398 171.577 183.375C171.656 181.308 173.857 179.519 174.074 177.424C174.341 174.855 171.038 170.53 169.915 168.249C169.502 167.41 169.093 166.053 168.271 165.528C167.01 164.723 164.131 165.273 162.67 165.273H148.549H95.0361H79.4283C77.9735 165.273 74.8512 164.682 73.6234 165.528C72.7889 166.103 72.6079 167.609 72.2658 168.497C71.3684 170.825 68.6451 175.451 69.1566 177.92C69.5275 179.71 71.6113 181.486 71.6074 183.304C71.6059 184.12 70.6098 184.914 70.2418 185.607C69.4979 187.008 69.2831 189.023 69.6505 190.566C70.0354 192.183 71.4824 192.678 72.1165 194.049C73.4925 197.024 73.0545 200.839 76.4554 202.648C79.1711 204.092 83.8565 203.213 86.8606 203.213H110.892C113.704 203.213 118.687 202.238 121.26 203.363C122.343 203.836 122.04 205.485 122.04 206.437C122.04 208.129 122.378 210.243 121.934 211.882C121.606 213.09 120.323 213.939 121.128 215.307C121.879 216.584 123.626 215.944 123.834 214.619C123.989 213.623 123.228 212.647 123.158 211.644C122.977 209.021 123.579 205.985 123.031 203.461ZM142.603 -182.634C148.517 -182.634 154.513 -182.527 160.44 -182.382C162.891 -182.322 165.887 -181.455 168.116 -182.88C172.011 -185.369 170.653 -191.453 170.869 -195.277C170.977 -197.193 173.428 -198.541 173.744 -200.736C173.945 -202.134 173.81 -204.012 172.876 -205.144C172.348 -205.783 171.343 -205.967 170.995 -206.743C169.642 -209.761 170.819 -213.652 167.129 -215.501C165.444 -216.346 162.778 -215.862 160.936 -215.862H147.31L98.2568 -215.862H83.3922C81.3585 -215.862 78.5497 -216.364 76.7033 -215.386C73.0654 -213.459 73.8366 -209.731 72.2371 -206.697C71.1514 -204.637 69.3258 -203.954 69.5932 -201.232C69.8341 -198.779 72.0374 -197.241 72.2293 -195.032C72.5275 -191.602 71.3556 -187.215 73.3535 -184.144C75.6969 -180.542 83.8432 -182.138 87.6039 -182.138C91.3372 -182.138 96.6321 -181.158 100.202 -182.217C101.553 -182.617 100.979 -184.73 102.72 -185.057C105.124 -185.509 107.951 -185.113 110.396 -185.113L125.756 -185.113H138.391C140.293 -185.113 142.259 -184.855 142.603 -182.634ZM159.945 175.192L167.377 166.761H167.873C169.763 170.754 173.889 175.609 171.776 179.904C170.993 181.494 170.427 183.908 168.142 183.296C167.064 183.008 166.165 181.694 165.441 180.905C163.666 178.972 161.929 176.911 159.945 175.192ZM172.494 -202.967C172.875 -201.119 172.324 -198.4 170.349 -197.662C169.015 -197.163 167.052 -197.512 165.643 -197.512C161.914 -197.512 157.945 -197.878 154.247 -197.441C147.38 -196.63 140.106 -197.264 133.189 -197.264L93.0542 -197.264C89.445 -197.264 85.754 -197.489 82.1535 -197.242C79.4896 -197.059 75.8871 -196.37 73.2768 -197.095C71.8325 -197.496 71.0299 -199.391 70.8319 -200.736C70.6436 -202.015 70.7465 -203.739 72.0221 -204.449C73.264 -205.139 75.565 -204.703 76.9509 -204.703H88.8426L150.035 -204.703H167.129C168.967 -204.703 172 -205.367 172.494 -202.967ZM172.486 188.831C172.549 189.856 172.353 191.4 171.294 191.87C169.915 192.482 167.626 192.054 166.138 192.054H153.999H92.8064H75.9599C73.9696 192.054 70.9967 192.558 70.7717 189.823C70.6331 188.138 70.8406 185.82 72.5147 184.907C73.8038 184.204 76.0184 184.615 77.4464 184.615H89.0903H150.531H163.413C165.352 184.615 167.72 184.248 169.607 184.719C171.466 185.183 172.376 187.048 172.486 188.831ZM169.854 -206.191L104.698 -206.191H84.1355L73.7303 -205.943C73.0532 -208.627 74.9818 -213.396 77.6951 -214.347C79.3484 -214.927 81.4162 -214.622 83.1445 -214.622H93.7976H149.044H162.175C163.963 -214.622 166.164 -214.917 167.578 -213.574C169.633 -211.622 169.26 -208.69 169.854 -206.191ZM165.643 -183.378L165.395 -196.024H169.607C169.936 -191.846 170.984 -184.621 165.643 -183.378ZM73.2349 193.542L73.4827 193.294L87.3563 193.542H113.617H149.54L169.359 193.294C170.009 195.66 169.112 200.385 166.612 201.475C165.157 202.109 162.99 201.723 161.431 201.725H150.283H93.0544C89.348 201.725 85.6086 201.581 81.9059 201.744C80.001 201.828 77.8045 202.183 76.2185 200.884C74.1852 199.217 73.7074 195.979 73.2349 193.542ZM166.882 166.761L159.697 174.448H159.202L152.265 166.761L162.175 166.513L166.882 166.761ZM166.882 183.375H151.769C153.305 180.492 157.04 177.065 159.697 175.192L166.882 183.375ZM77.1988 -171.723V-163.044H100.239L147.31 -163.044H160.44L165.246 -163.13L165.643 -165.028L165.494 -171.358L160.44 -171.723H144.337L77.1988 -171.723ZM165.395 -145.19C157.837 -146.615 150.163 -147.403 142.603 -148.814C140.841 -149.143 139.566 -150.724 137.896 -150.964C133.68 -151.568 128.798 -150.893 124.518 -150.893C118.175 -150.893 111.507 -151.496 105.194 -150.867C103.396 -150.688 102.02 -149.216 100.239 -148.827C93.0277 -147.25 84.8088 -145.263 77.4466 -144.942L77.4466 -93.6111C77.4466 -85.214 76.6955 -76.4271 77.4723 -68.0698C77.739 -65.2015 78.8741 -62.2725 79.4239 -59.4328C81.3734 -49.3636 84.0558 -39.3636 85.6918 -29.2432C86.6497 -23.3175 86.3607 -17.0254 86.6228 -11.0359C87.0711 -0.789424 87.4056 9.43734 87.3561 19.7128C87.2869 34.0554 87.4383 48.8316 86.0755 63.1082C84.3196 81.5016 79.0772 99.5299 77.241 117.91C76.2466 127.865 77.1988 138.402 77.1988 148.411C84.9869 149.418 92.6524 151.33 100.487 152.089C107.292 152.748 114.457 152.131 121.297 152.131C128.732 152.131 136.453 152.716 143.842 151.924C149.087 151.362 154.274 150.586 159.449 149.552C160.894 149.263 163.908 149.265 164.992 148.199C165.86 147.345 165.395 144.357 165.395 143.204V128.821C165.395 107.927 159.881 86.9725 156.829 66.3322C156.072 61.2159 156.197 56.1065 155.971 50.9578C155.458 39.224 155.257 27.5131 155.238 15.7456C155.22 4.69253 155.203 -6.43265 155.959 -17.4829C156.24 -21.5861 155.921 -25.8054 156.55 -29.8816C158.074 -39.7609 161.181 -49.6557 163.471 -59.3904C164.063 -61.9053 165.042 -64.517 165.35 -67.0777C166.187 -74.0589 165.395 -81.6159 165.395 -88.6514C165.395 -107.425 164.506 -126.443 165.395 -145.19ZM164.9 -183.377L162.175 -183.625V-183.873H164.652V-195.776H153.751L162.175 -196.272L164.822 -195.697L164.9 -192.056V-183.377ZM77.6943 -163.539V-171.227L165.148 -171.227C165.148 -169.581 165.925 -165.241 164.893 -163.937C164.136 -162.98 160.818 -163.539 159.697 -163.539H143.842L77.6943 -163.539ZM164.738 -211.394C163.813 -214.255 155.105 -213.845 156.371 -209.415C157.27 -206.268 166.287 -206.604 164.738 -211.394ZM164.421 -201.714C164.001 -203.266 161.775 -202.532 162.329 -200.998C162.848 -199.559 164.8 -200.316 164.421 -201.714ZM164.468 196.777C163.91 195.407 162.413 195.527 161.184 195.526C158.699 195.526 154.913 195.8 156.413 199.483C157.002 200.931 158.663 200.734 159.945 200.734C162.453 200.734 165.937 200.385 164.468 196.777ZM164.297 -210.899C165.259 -207.443 157.438 -207.432 156.833 -209.668C155.877 -213.199 163.664 -213.171 164.297 -210.899ZM164.219 188.143C163.566 186.683 161.807 187.995 162.328 189.289C162.931 190.789 164.831 189.511 164.219 188.143ZM164.277 197.758C164.858 201.179 157.236 201.259 156.781 198.745C156.139 195.196 163.855 195.268 164.277 197.758ZM164.157 -68.3186H163.909L148.253 -119.153L142.39 -138.247L139.382 -148.414C144.798 -146.294 151.458 -145.971 157.22 -145.158C158.644 -144.957 162.994 -144.958 163.902 -143.801C164.71 -142.772 164.157 -139.762 164.157 -138.495V-124.113V-68.3186ZM164.049 118.38C163.997 119.7 161.693 120.671 160.688 121.225C156.917 123.305 152.997 124.78 148.796 125.702C139.511 127.74 129.517 126.837 120.058 126.837C112.212 126.837 103.737 127.679 96.0273 125.987C91.3446 124.96 86.6819 123.554 82.4014 121.354C81.0579 120.664 78.508 119.956 78.4742 118.156C78.403 114.355 79.7102 110.246 80.3109 106.503C81.8092 97.1653 83.4345 87.8385 84.8115 78.4817C85.2991 75.1692 85.9058 71.8801 86.3653 68.5628C86.5055 67.5505 86.5141 65.3005 87.2924 64.5797C88.1027 63.8293 90.0226 63.694 91.0724 63.4605C94.2588 62.7522 97.4938 61.9693 100.734 61.581C106.962 60.8347 113.294 61.1236 119.563 61.1236C126.323 61.1236 133.142 60.8767 139.878 61.3494C143.782 61.6233 147.477 62.543 151.274 63.441C152.398 63.7068 154.451 63.7085 155.197 64.7216C155.922 65.7063 155.857 67.6327 156.077 68.8107C156.737 72.3394 157.236 75.9266 157.783 79.4736C159.149 88.3221 160.555 97.1772 162.035 106.007C162.683 109.876 164.204 114.465 164.049 118.38ZM78.4375 147.418C77.2031 140.763 78.1898 133.11 78.1898 126.341C78.1898 124.357 78.5659 122.07 78.1898 120.141C80.5476 119.984 83.8723 122.622 86.1175 123.514C91.2545 125.554 96.4855 126.768 101.973 127.29C109.916 128.047 118.27 127.333 126.252 127.333C133.055 127.333 140.366 128.054 147.062 126.672C150.801 125.9 154.514 124.825 157.963 123.171C159.985 122.201 162.015 120.45 164.157 119.894V139.731C164.157 141.379 164.927 145.672 163.902 146.99C163.035 148.105 159.773 148.098 158.458 148.361C153.011 149.451 147.418 150.509 141.86 150.646C129.207 150.957 116.11 151.735 103.46 150.868C95.0838 150.294 86.7781 147.777 78.4375 147.418ZM163.166 -68.5664C156.004 -71.1906 149.941 -76.4004 142.355 -78.2274C136.825 -79.5592 130.427 -78.7332 124.765 -78.7332C116.263 -78.7332 106.466 -80.0915 98.2569 -77.6327C91.3282 -75.5573 85.7118 -71.0674 79.1807 -68.3183C80.0528 -74.7689 83.2829 -81.7237 85.3556 -87.9083C89.6002 -100.573 93.3313 -113.412 97.5139 -126.096C99.3346 -131.618 101.127 -137.15 102.824 -142.71C103.521 -144.994 104.597 -147.287 104.946 -149.654H119.563C119.501 -148.225 118.123 -145.723 118.773 -144.456C120.499 -141.092 125.592 -140.619 126.822 -144.704C127.205 -145.974 126.148 -148.18 125.756 -149.406L135.171 -149.654L138.427 -149.079L140.746 -141.966L145.929 -125.104L158.142 -85.4285L163.166 -68.5664ZM160.936 -69.0623C156.538 -69.5006 152.261 -71.3148 147.806 -71.7479C141.232 -72.3868 134.582 -71.8799 127.986 -72.0416C117.63 -72.2955 106.843 -73.2601 96.5227 -72.2439C91.3512 -71.7346 86.4419 -69.9689 81.4104 -68.8143V-69.0623C87.8641 -73.0158 95.1666 -76.9338 102.716 -78.1568C110.006 -79.3377 118.364 -78.2373 125.756 -78.2373C130.417 -78.2373 135.513 -78.8211 140.125 -78.1629C144.674 -77.5139 148.895 -75.259 153.008 -73.3542C155.603 -72.1525 158.73 -70.892 160.936 -69.0623ZM151.522 182.383V167.256L157.22 172.712L158.726 174.944L156.972 177.175L151.522 182.383ZM158.353 97.328C157.334 89.5553 155.868 81.8869 153.968 74.2664C153.495 72.372 153.309 67.8884 151.869 66.5438C151.051 65.7805 149.116 65.704 148.053 65.4882C144.866 64.8412 141.663 64.1008 138.391 64.0996H104.698C101.285 64.0996 97.8963 64.6284 94.5408 65.2342C93.513 65.4197 91.5445 65.3968 90.8084 66.2293C90.1091 67.0203 90.0385 68.5619 89.8329 69.5549C89.3182 72.0418 88.6977 74.5183 88.1289 76.9941C86.1147 85.7618 84.3833 94.5145 84.3833 103.527C84.3833 105.826 84.0349 108.438 84.4201 110.704C84.7069 112.391 88.5713 111.462 89.8337 111.462H107.176H145.576C148.711 111.462 151.856 111.393 154.99 111.462C155.834 111.482 157.567 112.03 158.204 111.269C158.845 110.503 158.458 108.435 158.458 107.491C158.458 104.159 158.787 100.629 158.353 97.3243M155.238 62.856L139.878 59.8901L118.324 59.8804L102.964 59.9228L87.1085 62.8564L87.6138 53.4333L88.1004 35.3313L88.3375 -1.36876L86.8608 -29.1418L100.734 -31.1034L118.82 -31.1257L141.364 -31.116L155.238 -29.1421L154.003 2.84654L154.491 39.2986L155.238 62.856ZM153.008 -195.78H151.769V-196.028L153.008 -195.78ZM151.274 -194.292L91.0724 -194.292V-195.78L151.274 -196.028V-194.292ZM151.123 -193.222C151.905 -191.562 149.779 -191.565 148.796 -191.565H139.135L102.716 -191.565H94.0453C93.2603 -191.565 91.6844 -191.266 91.2575 -192.139C90.5062 -193.676 92.3119 -193.794 93.3021 -193.796H101.973L138.144 -193.796H147.806C148.651 -193.796 150.676 -194.171 151.123 -193.222ZM91.0724 -191.069L151.274 -191.069L150.877 -189.092L147.806 -188.837H140.125L103.707 -188.837H94.7885L91.4696 -189.092L91.0724 -191.069ZM151.274 -183.878H143.594C142.25 -187.276 137.873 -186.605 134.923 -186.605L109.158 -186.605C106.051 -186.605 100.737 -187.749 99.9911 -183.63L91.3201 -183.382C91.0446 -184.315 90.5637 -187.391 91.4723 -188.09C92.2134 -188.66 93.9059 -188.341 94.7885 -188.341H103.212L139.63 -188.341H148.053C148.834 -188.341 150.466 -188.643 151.019 -187.943C151.688 -187.098 151.274 -184.911 151.274 -183.878ZM150.531 171.716C147.163 172.713 142.647 171.965 139.135 171.965C139.098 168.896 134.986 169.981 132.693 169.981H111.387C109.003 169.981 103.993 168.781 103.955 171.965H91.8156L92.0703 166.907L95.7795 166.509H106.185H150.283L150.531 171.716ZM150.531 179.9H136.409H107.919L92.0634 180.148L91.8156 172.46H103.955C104.16 175.147 108.412 174.196 110.396 174.196H131.702C133.781 174.196 138.922 175.254 139.135 172.46H147.31L150.276 172.858L150.531 179.9ZM150.531 183.123L144.089 183.371H131.95H91.8156V180.644H136.657H146.567L150.133 180.898L150.531 183.123ZM142.498 -8.80817C142.08 -11.953 141.109 -14.8514 138.144 -16.4866C135.695 -17.8367 132.91 -17.4873 130.216 -17.4873L115.351 -17.4873C111.57 -17.4873 106.471 -18.4175 103.212 -16.0892C98.8426 -12.9679 99.4957 -7.31424 99.4957 -2.60887C99.4957 -0.661878 99.2945 1.41277 99.57 3.3425C101.108 14.1171 113.316 11.5256 121.297 11.5256C126.023 11.5256 133.316 12.8933 137.648 10.841C144.054 7.80596 143.283 -2.89742 142.498 -8.80817ZM142.037 -8.80817C142.71 -3.17044 143.596 7.1498 137.648 10.1572C133.227 12.3926 125.905 11.0297 121.049 11.0297C114.564 11.0297 101.511 13.5551 100.284 4.33438C99.5345 -1.29368 98.2223 -12.1614 103.749 -15.6937C106.955 -17.7424 111.483 -16.9913 115.103 -16.9913H128.482C135.051 -16.9913 141.086 -16.7617 142.037 -8.80817ZM138.391 173.7H104.698L104.451 170.725L115.351 170.477H138.391V173.7ZM136.155 -202.291C135.229 -203.426 133.579 -201.698 134.577 -200.604C135.598 -199.485 136.942 -201.325 136.155 -202.291ZM136.222 188.14C135.6 186.702 133.602 187.975 134.247 189.286C134.973 190.76 136.812 189.507 136.222 188.14ZM127.738 42.7703C125.138 44.0385 122.878 47.801 120.979 49.9616C120.071 50.9941 119.1 51.7955 118.82 53.1852L124.519 46.8431L127.738 42.7703ZM120.802 -149.161H124.765C125.056 -147.893 126.085 -145.926 125.349 -144.701C124.032 -142.507 120.753 -142.397 120.003 -145.197C119.69 -146.365 120.54 -148.019 120.802 -149.161ZM108.423 -201.483C108.335 -202.907 106.258 -202.964 106.258 -201.483C106.258 -199.9 108.524 -199.847 108.423 -201.483ZM108.227 188.139C107.595 186.671 105.589 187.925 106.274 189.286C107.014 190.754 108.811 189.496 108.227 188.139ZM104.451 -148.665L101.223 -138.994L95.3473 -120.644L78.933 -69.3138H78.6853L78.6853 -122.628V-137.259C78.6853 -138.876 78.0986 -141.898 78.8348 -143.35C79.4208 -144.507 83.4301 -144.551 84.6311 -144.76C89.7474 -145.649 94.8512 -146.714 99.9911 -147.458C101.386 -147.66 103.153 -149.02 104.451 -148.665ZM90.8247 182.875C88.4191 181.752 86.7235 179.025 84.8788 177.172C84.3184 176.609 83.2143 175.819 83.1922 174.941C83.1693 174.031 84.3581 173.18 84.931 172.597C86.6005 170.898 88.5303 167.743 90.8247 167.005V182.875ZM90.5769 -183.63L78.4375 -183.382C77.4421 -186.752 78.1898 -191.272 78.1898 -194.788H78.4375V-183.878C81.8534 -183.878 87.4425 -184.946 90.5769 -183.63ZM89.8337 167.005C87.5479 169.293 85.0997 173.069 82.1537 174.444L75.2169 166.757L85.8698 166.509L89.8337 167.005ZM89.8337 183.371H74.9691C76.0332 181.087 80.439 176.127 82.8969 175.436L89.8337 183.371ZM86.2026 -211.154C85.2628 -214.234 76.3747 -213.959 77.7535 -209.42C78.6989 -206.308 87.5513 -206.734 86.2026 -211.154ZM85.9336 197.011C84.795 194.071 76.0543 194.667 77.6582 199.237C78.6769 202.14 87.7321 201.654 85.9336 197.011ZM85.6372 -209.672C85.2114 -207.529 77.5681 -207.3 78.2465 -210.896C78.679 -213.188 86.3418 -213.218 85.6372 -209.672ZM85.4946 197.272C86.7548 201.176 78.8701 201.288 78.1449 198.979C76.9693 195.237 84.8616 195.312 85.4946 197.272ZM46.7264 -147.921H46.4787L45.4877 -136.019C43.3615 -137.23 38.1157 -137.971 36.8236 -140.054C36.1604 -141.124 36.7563 -142.795 36.8069 -143.954C36.9351 -146.882 37.6987 -151.99 36.2214 -154.593C34.6803 -157.31 30.2491 -156.552 27.6502 -156.923C26.3512 -157.108 25.174 -157.518 24.0094 -156.631C22.4403 -155.435 22.098 -152.732 21.9521 -150.897L15.2631 -147.511L13.1829 -145.857L13.0334 -140.482V-127.588C28.2144 -125.657 39.9375 -114.045 37.4512 -98.0787C36.2248 -90.2029 31.8114 -83.6947 24.6773 -80.0036C21.8829 -78.5577 19.0578 -77.7182 16.0063 -77.0306C15.1485 -76.8373 13.4251 -76.9741 13.1121 -75.9524C12.0313 -72.4235 13.0334 -67.0644 13.0334 -63.3624V-35.0934V58.1447C20.1478 59.6145 26.8791 62.5687 31.8196 68.0636C39.1765 76.246 39.9703 89.9947 32.4768 98.3872C28.9525 102.334 24.6112 105.022 19.7224 106.945C18.3818 107.472 13.7975 108.035 13.1829 109.305C12.17 111.398 13.1729 115.407 13.2714 117.658C13.5588 124.228 12.4454 130.98 13.0754 137.496C13.3076 139.898 14.1702 141.724 16.5018 142.699C17.8033 143.243 19.5667 143.356 20.6347 144.352C22.2476 145.857 21.5121 148.18 23.9341 149.509C26.6345 150.99 32.4278 150.759 34.4289 148.146C36.2994 145.703 36.7552 141.471 36.8167 138.488L47.9651 139.976L46.9742 147.663C54.1907 151.709 56.5185 138.546 57.5405 134.025C58.6811 128.979 58.9856 123.541 60.7086 118.65C66.3272 102.702 75.9806 87.9591 79.4292 71.2872C83.6535 50.8659 83.672 30.5007 83.6401 9.78985C83.6223 -1.78824 84.5207 -14.7224 81.0547 -25.9184C80.0704 -29.0978 78.1447 -32.0974 76.7094 -35.0934C73.69 -41.3964 70.7219 -47.7567 67.463 -53.9394C64.1682 -60.1903 60.7629 -66.0741 59.2187 -73.0334C53.78 -97.5448 59.2068 -125.113 46.7264 -147.921ZM36.3212 6.31818L36.569 -2.36091V-18.4791V-70.3056C42.2781 -70.3056 47.9136 -69.7896 53.4155 -68.1791C55.4963 -67.57 58.0667 -66.9969 59.7888 -65.6026C60.9364 -64.6733 61.4853 -62.6686 62.1505 -61.3786C63.732 -58.3118 65.4014 -55.291 66.9427 -52.2036C69.5797 -46.9214 72.1507 -41.6125 74.7879 -36.3332C76.5433 -32.8191 78.7717 -29.1756 79.9517 -25.4225C81.0904 -21.8004 81.3445 -18.0056 81.7002 -14.2636C82.2512 -8.46842 82.2629 -2.72431 82.405 3.09456C82.4409 4.56395 83.3958 8.15619 82.3937 9.39221C81.8548 10.0571 80.4042 9.57106 79.6762 9.5445C77.034 9.44831 74.3889 9.17157 71.7484 9.05567C63.6865 8.70178 55.7438 7.62131 47.7174 6.85619C44.1088 6.51227 39.7853 7.34308 36.3212 6.31818ZM36.3212 8.05398C39.2807 7.34882 42.7319 8.07406 45.7354 8.27976C53.715 8.82676 61.764 10.2345 69.7665 10.2859C72.8475 10.306 76.119 10.4909 79.1807 10.8525C79.9748 10.9463 81.5838 10.7714 82.2175 11.2845C82.9313 11.8626 82.6491 13.4491 82.6491 14.2534V22.1885C82.6491 27.9228 82.4133 33.5868 82.1634 39.2986C82.0352 42.2287 82.4415 46.1987 81.4555 48.9696C80.6071 51.354 78.4557 53.5248 76.8451 55.4169C70.711 62.6235 63.5515 69.4041 55.8929 74.9691C53.2459 76.8925 48.7292 79.9765 45.4913 77.6081C42.6004 75.4935 41.2768 70.6291 39.5988 67.5676C38.751 66.0208 36.98 64.5281 36.4904 62.8525C36.126 61.6055 36.5689 59.9411 36.5689 58.6406V48.4737V21.4446C36.5689 17.2073 37.3026 12.1798 36.3212 8.05398ZM72.9871 183.371L70.4105 177.668L71.4217 174.196L74.2259 166.757C76.3201 168.234 77.8738 170.407 79.6762 172.212C80.3091 172.846 81.5646 173.733 81.6777 174.692C81.7891 175.637 80.5653 176.538 79.9983 177.149C78.1945 179.093 75.7004 182.952 72.9871 183.371ZM57.6271 -62.3705V5.57426L81.1627 7.55809C81.1627 -2.11058 81.5764 -12.5068 79.2067 -21.9508C77.061 -30.5022 72.0253 -39.0412 67.861 -46.7481C65.8231 -50.5198 63.8169 -54.3143 61.4683 -57.9069C60.4275 -59.4991 59.3346 -61.4377 57.6271 -62.3705ZM48.2129 146.919C48.4325 145.18 49.8907 140.554 48.9456 139.063C48.3879 138.183 46.4069 138.312 45.4877 138.202C42.4289 137.834 39.3771 137.387 36.3212 137L36.3212 115.179C36.3212 111.821 35.6934 107.756 36.4162 104.474C36.9755 101.934 39.6486 99.3483 40.6684 96.8286C43.329 90.2544 43.7901 82.3508 42.0193 75.5028C44.0349 76.6468 44.5665 79.1708 47.2219 79.6368C51.3997 80.3701 55.6105 76.6533 58.6181 74.2636C63.6235 70.2868 68.6123 66.0716 72.9487 61.3586C75.3915 58.7036 78.1026 53.9931 81.1627 52.1933C80.8147 69.0628 74.0836 84.3632 67.5687 99.5562C64.1178 107.604 59.8938 115.438 58.274 124.106C57.1572 130.082 56.2639 136.232 54.1453 141.96C53.0882 144.818 51.5267 147.311 48.2129 146.919ZM57.6271 12.0216V68.8075C60.8776 68.16 64.2645 64.6365 66.7936 62.6082C71.588 58.763 77.4046 54.117 79.7355 48.2257C82.0903 42.274 80.9149 34.1762 80.9149 27.8919C80.9149 24.4999 80.6736 21.1084 80.7945 17.7286C80.834 16.6236 81.3899 14.3331 80.6603 13.4111C79.9629 12.5296 75.8561 12.7974 74.7213 12.7691C69.0177 12.6271 63.3414 12.0216 57.6271 12.0216ZM80.1646 -202.149C79.3263 -203.405 77.7565 -201.961 78.4455 -200.778C79.2799 -199.344 80.9848 -200.92 80.1646 -202.149ZM80.1602 188.12C79.3358 186.625 77.4888 188.183 78.3067 189.492C79.1208 190.795 80.8293 189.333 80.1602 188.12ZM79.1806 56.9048C77.2514 58.0335 75.7406 60.4783 74.2197 62.1122C70.4245 66.1893 66.6786 70.3209 63.0068 74.5109C61.3532 76.398 58.5042 78.7599 57.7532 81.2062C56.7403 84.5053 57.3793 88.7021 57.3793 92.117V113.939C58.723 112.783 59.3828 110.794 60.1712 109.227C61.5099 106.566 62.9194 103.913 64.336 101.292C69.4112 91.9002 73.336 82.2954 76.2425 72.0312C77.6291 67.1346 79.1806 62.0173 79.1806 56.9048ZM73.4826 -195.78C74.4316 -195.78 76.7864 -196.208 77.4396 -195.383C77.9201 -194.775 77.6942 -193.526 77.6942 -192.805V-186.357C77.6942 -185.649 77.9255 -184.372 77.4396 -183.783C76.7772 -182.98 75.3037 -183.907 74.7742 -184.429C73.2021 -185.979 73.4826 -188.56 73.4826 -190.573V-195.78ZM59.3612 -67.33C53.9406 -69.5559 48.5722 -70.7841 42.7624 -71.4747C40.6525 -71.7256 38.3637 -71.3945 36.3211 -71.7935C37.0512 -74.8626 35.6314 -78.5494 36.5337 -81.4645C37.2061 -83.6369 39.3073 -85.5504 40.2778 -87.6638C42.7757 -93.1037 43.6434 -99.0636 43.2358 -105.022C42.948 -109.227 41.9921 -113.692 39.9599 -117.421C38.9201 -119.328 36.9734 -121.109 36.2537 -123.124C35.7376 -124.569 36.0734 -126.565 36.0734 -128.084V-138.25L46.9741 -134.531L47.2218 -143.458L49.4161 -138.746L52.7341 -124.612L55.9347 -89.1516L57.5314 -75.5131L59.3612 -67.33ZM47.9582 -8.88191C47.2155 -9.86567 45.1259 -9.65893 44.6461 -8.52713C43.8361 -6.6163 44.4966 -3.1895 44.4966 -1.12103C44.4966 -0.388487 44.28 0.808044 44.7513 1.43234C45.4939 2.41618 47.5835 2.20944 48.0633 1.07764C48.8733 -0.833199 48.2128 -4.26 48.2128 -6.32847C48.2128 -7.06101 48.4295 -8.25753 47.9582 -8.88191ZM47.9582 59.9871C47.2937 59.007 45.1449 59.0715 44.6461 60.1849C43.7908 62.0941 44.4965 65.729 44.4966 67.8157C44.4967 68.5268 44.3243 69.5669 44.7513 70.1878C45.3824 71.1056 47.5921 71.0368 48.0633 69.9907C48.9208 68.0871 48.2129 64.4426 48.2128 62.3602C48.2127 61.6451 48.3827 60.6132 47.9582 59.9871ZM47.9649 -89.1516C47.1498 -89.303 46.0734 -89.6099 45.3184 -89.107C44.423 -88.5108 44.4008 -85.1446 45.0363 -84.3415C46.7964 -82.117 47.9648 -85.3901 47.9649 -86.6716V-89.1516ZM22.9428 -73.281C22.9428 -74.4255 22.5201 -76.6159 23.1975 -77.5866C24.0436 -78.7991 26.6414 -79.5735 27.8977 -80.3969C30.4545 -82.0725 32.8539 -84.3485 34.5267 -86.9196C40.4522 -96.027 40.6059 -109.738 33.716 -118.412C30.7444 -122.154 26.8617 -124.453 22.6951 -126.595L22.9428 -130.563C30.5962 -128.389 36.9095 -123.25 40.2076 -115.932C47.0843 -100.675 40.8488 -77.4294 22.9428 -73.281ZM22.9428 112.699C22.9428 111.21 22.4546 108.698 23.0923 107.341C23.5454 106.376 25.2886 105.809 26.1635 105.294C28.041 104.189 29.8079 102.81 31.3661 101.289C35.6544 97.1018 38.7686 91.5655 38.7982 85.422C38.8322 78.3534 37.1658 72.2569 32.4217 66.8464C30.7696 64.9623 28.7751 63.3445 26.659 62.0109C25.6568 61.3793 23.8456 60.8054 23.1975 59.7841C22.564 58.786 22.9428 56.8105 22.9428 55.6652C25.4975 56.2725 27.9592 57.8618 30.1274 59.3024C48.9358 71.7986 46.1641 106.471 22.9428 112.699ZM35.926 -102.294C35.7278 -107.783 33.7927 -113.433 29.8376 -117.378C22.3447 -124.851 10.0803 -123.552 4.0576 -114.941C0.824288 -110.318 -0.0820837 -105.097 0.160231 -99.5662C0.275848 -96.9272 1.11021 -94.2627 2.20908 -91.8791C3.21556 -89.6958 4.67364 -87.61 6.45284 -85.991C8.09548 -84.4963 9.97504 -83.2464 12.0422 -82.4121C24.8679 -77.2356 36.3731 -89.9101 35.926 -102.294ZM22.9428 -70.0574V-72.7851C28.2576 -74.0164 31.5759 -77.724 35.8255 -80.7202L35.8292 -74.2729L35.8089 -71.9428L32.6049 -71.4023L22.9428 -70.0574ZM36.0733 6.31848L22.9429 8.05428V-68.8175L35.8255 -70.3054V-19.2228V-2.85651L36.0733 6.31848ZM35.5778 62.3605C33.281 59.7248 30.1978 57.8298 27.1545 56.1811C26.1307 55.6264 23.603 54.9067 23.0924 53.8318C21.9852 51.5009 22.9429 46.5971 22.9429 44.0105V19.957V12.5178C22.9429 11.7429 22.6842 10.3421 23.1975 9.6918C23.6986 9.05693 25.4098 9.08311 26.1635 8.95069C29.0878 8.43709 33.1531 7.55972 36.0733 8.05428L35.8255 21.4448V47.978L35.8263 57.897L35.5778 62.3605ZM35.7192 80.7105C35.264 77.5288 34.3209 74.5399 32.6481 71.7835C26.9848 62.4518 14.42 60.1358 6.34755 67.8381C1.37879 72.579 -0.732311 80.1903 0.224715 86.9099C0.639756 89.8241 1.59352 92.8292 3.13931 95.341C4.44561 97.4636 6.08799 99.3138 8.07811 100.821C9.62837 101.996 11.4179 102.948 13.2807 103.514C26.9359 107.67 37.5235 93.322 35.7192 80.7105ZM22.9427 113.195C28.2931 111.923 31.5631 108.017 35.8253 105.012C35.8253 115.344 35.8749 125.677 35.8251 136.009C35.81 139.161 35.696 145.562 33.0063 147.731C30.9731 149.37 23.8574 149.952 23.0214 146.67C22.2168 143.512 22.9427 139.271 22.9427 136.009L22.9427 113.195ZM35.5776 -123.868C31.7705 -126.251 27.8683 -130.844 22.9427 -130.811V-145.441C22.9427 -148.2 22.6666 -151.512 23.7379 -154.119C24.0224 -154.812 24.4405 -155.523 25.1982 -155.749C26.2511 -156.061 27.3576 -155.582 28.393 -155.435C30.5233 -155.131 33.7142 -156.004 35.1459 -153.859C36.4005 -151.979 35.5776 -147.645 35.5776 -145.441V-123.868ZM22.4472 -126.843L14.2717 -128.827V-140.73C14.2717 -141.975 13.8357 -144.261 14.5263 -145.345C15.7344 -147.241 20.2255 -148.809 22.1994 -149.905L22.4472 -142.218V-126.843ZM14.2717 -66.5858V-75.5128L22.4472 -77.2486C22.4472 -75.5432 23.1842 -71.5973 22.1926 -70.1839C21.7102 -69.4963 20.469 -69.315 19.722 -69.0655C17.7776 -68.4162 16.1346 -67.3597 14.2717 -66.5858ZM14.2717 9.54212V-49.7235V-60.1384C14.2717 -61.4543 13.918 -63.3983 14.5263 -64.601C15.7283 -66.9778 19.9865 -68.2142 22.4472 -68.3215V-9.55179V3.09486L22.1926 7.90832L19.9698 8.58275L14.2717 9.54212ZM22.4472 53.6815C20.758 53.4282 15.5354 52.1886 14.5263 50.7921C13.9958 50.0578 14.2717 48.5866 14.2717 47.7301V40.2909V11.03L22.1994 9.54212C23.4188 13.6711 22.4472 19.3654 22.4472 23.6766V53.6815ZM22.1994 59.6328L14.5263 56.7655L14.2717 52.4416C18.4264 53.0644 23.6893 54.5876 22.1994 59.6328ZM22.4472 143.944C20.4105 142.799 16.2746 141.92 14.9476 139.966C13.5041 137.839 14.2717 133.739 14.2717 131.297L14.2717 109.971L22.1994 107.492C23.215 110.931 22.4472 115.56 22.4472 119.146L22.4472 143.944Z" fill="#304A6E"/>
</svg>
