<svg width="81" height="72" viewBox="0 0 81 72" fill="none" xmlns="http://www.w3.org/2000/svg">
<rect width="81" height="72" fill="#1A1E26"/>
<rect x="-368" y="-449" width="980" height="753" rx="4" fill="white"/>
<path d="M242.811 -176.027C241.83 -180.937 240.437 -185.408 236.888 -189.127C230.172 -196.166 218.752 -196.021 212.29 -188.673C207.619 -183.361 206 -175.925 207.375 -169.084C208 -165.975 209.233 -162.92 211.182 -160.404C212.614 -158.556 214.143 -156.963 216.183 -155.776C227.853 -148.982 240.426 -157.628 242.479 -170.075C242.805 -172.049 243.214 -174.013 242.811 -176.027ZM242.763 9.20941C241.321 3.45548 239.767 -1.78542 234.763 -5.54155C226.609 -11.6619 215.602 -8.80016 210.259 -0.461556C206.919 4.75147 206.124 11.4651 207.604 17.3925C209.601 25.3828 216.415 32.4542 225.101 32.239C234.386 32.0089 240.813 24.2527 242.423 15.6567C242.816 13.56 243.297 11.3399 242.763 9.20941ZM206.273 -211.487L197.106 -208.015L196.633 -215.951L196.115 -219.918C184.296 -195.691 189.31 -168.551 183.261 -143.046C182.05 -137.941 179.408 -133.508 176.985 -128.912C173.375 -122.064 170.039 -115.049 166.668 -108.082C165.112 -104.866 163.017 -101.576 161.949 -98.1632C158.358 -86.6831 159.202 -73.3516 159.202 -61.4631C159.202 -46.5343 159.411 -31.9201 160.894 -17.0758C161.735 -8.65999 162.924 0.275912 165.938 8.21749C170.89 21.2618 177.9 33.6587 182.269 46.9014C184.033 52.2479 184.385 58.0497 185.682 63.5156C186.969 68.9449 188.577 77.8449 195.868 75.9143L194.877 67.9791C197.465 67.3407 200.171 67.2252 202.804 66.8436C203.635 66.7232 205.16 66.2061 205.841 66.8897C206.848 67.9 206.596 71.2711 207.017 72.6905C208.45 77.5215 213.337 79.6896 218.164 77.8658C219.323 77.4279 220.651 76.5554 221.186 75.395C221.726 74.2235 221.421 72.8193 222.651 72.0491C224.584 70.8383 227.074 71.0304 228.622 69.1469C230.267 67.1447 229.808 64.1878 229.808 61.7796L229.808 44.6694C229.808 42.696 230.51 39.0925 229.659 37.3054C229.053 36.0316 224.464 35.4629 223.119 34.9509C218.555 33.2132 214.061 30.469 210.774 26.8153C202.924 18.0869 203.634 4.03114 211.498 -4.42932C216.303 -9.59979 223.006 -12.4477 229.808 -13.8523V-107.09V-135.359C229.808 -139.061 230.81 -144.42 229.73 -147.949C229.415 -148.976 227.699 -148.867 226.835 -149.019C223.981 -149.521 221.241 -150.494 218.66 -151.787C211.893 -155.176 206.986 -161.303 205.644 -168.836C202.725 -185.227 213.932 -197.532 229.808 -199.584V-212.727C229.808 -214.17 230.321 -216.854 229.554 -218.117C228.176 -220.386 223.728 -221.211 221.666 -222.854C220.034 -224.154 220.647 -226.896 219.113 -228.456C217.952 -229.638 216.604 -229.042 215.192 -228.888C212.507 -228.597 208.407 -229.236 206.704 -226.61C205.839 -225.276 206.025 -223.415 206.025 -221.902C206.025 -218.422 206.273 -214.973 206.273 -211.487ZM228.57 -200.824L220.394 -198.841L220.642 -221.654C222.568 -221.044 227.498 -218.947 228.487 -217.138C229.145 -215.934 228.817 -213.584 228.817 -212.231C228.817 -208.418 228.57 -204.625 228.57 -200.824ZM228.817 -138.583L223.119 -141.098L220.667 -142.181L220.394 -149.246L228.57 -147.51L228.817 -138.583ZM228.817 -62.4551L220.394 -63.943C221.685 -83.2161 220.642 -102.892 220.642 -122.217C220.642 -126.798 221.001 -131.554 220.465 -136.103C220.359 -136.999 219.913 -139.991 221.194 -140.194C222.062 -140.332 223.297 -139.721 224.11 -139.447C225.53 -138.968 227.559 -138.227 228.315 -136.825C228.894 -135.751 228.802 -133.6 228.816 -132.384C228.855 -129.161 228.817 -125.936 228.817 -122.713V-82.293C228.817 -75.7602 228.243 -68.9543 228.817 -62.4551ZM220.394 -18.3158L220.642 -38.6497L220.394 -62.2071L220.642 -62.4551L228.569 -60.9673C228.57 -51.4843 228.817 -41.9544 228.817 -32.4503C228.817 -29.5723 229.899 -23.9103 228.459 -21.3604C227.614 -19.8631 222.048 -18.4852 220.394 -18.3158ZM228.569 -14.8442L220.394 -12.6124V-16.58L228.569 -19.5557V-14.8442ZM220.642 71.9465V64.0114V46.9012L220.642 35.4944L228.569 37.9742L228.569 59.2999C228.569 61.758 229.328 65.7826 228.005 67.9556C226.614 70.2402 222.658 70.2042 220.642 71.9465ZM219.898 -202.808C214.575 -202.343 211.647 -197.991 207.264 -195.865C207.264 -203.15 207.275 -210.434 207.264 -217.687C207.26 -219.89 206.452 -224.182 207.781 -226.049C209.107 -227.911 212.533 -227.195 214.448 -227.401C215.429 -227.506 216.419 -227.955 217.417 -227.793C218.243 -227.659 218.73 -227.094 219.065 -226.362C220.552 -223.112 219.936 -219.129 219.899 -215.703C219.855 -211.548 220.57 -206.883 219.898 -202.808ZM219.899 -145.278C201.927 -149.541 195.442 -173.436 203.005 -188.674C206.52 -195.756 212.522 -200.158 219.899 -202.56C221.16 -197.415 215.741 -196.582 212.466 -193.775C208.52 -190.392 205.772 -185.845 204.703 -180.739C203.045 -172.817 204.371 -163.861 209.494 -157.429C211.308 -155.152 213.473 -153.326 215.935 -151.782C217.02 -151.102 219.156 -150.501 219.842 -149.391C220.425 -148.448 220.183 -146.286 219.899 -145.278ZM220.146 -142.055L206.768 -143.79C207.381 -146.365 207.381 -150.143 206.768 -152.717L211.971 -148.608L220.146 -144.534V-142.055ZM207.016 -65.4308V-142.303L216.43 -141.311L219.86 -140.244L219.921 -135.359L219.899 -124.201V-81.549V-68.9024L219.879 -64.3494L216.678 -64.368L207.016 -65.4308ZM207.016 -9.88441V-63.9427L216.678 -63.0118L219.841 -62.3052L219.902 -59.4792L219.898 -52.2879V-27.4906L219.92 -21.2912L219.87 -18.1712L215.687 -15.7743L207.016 -9.88441ZM219.898 40.7022C196.514 34.3137 193.84 -1.12675 213.457 -13.1549C215.436 -14.3682 217.626 -15.7868 219.898 -16.3318C219.99 -15.1637 220.53 -13.5011 219.892 -12.417C219.26 -11.3452 217.443 -10.7791 216.43 -10.1129C214.291 -8.70569 212.244 -7.07642 210.526 -5.17295C205.922 -0.0710656 203.88 6.35471 204.047 13.1771C204.201 19.4989 207.27 25.2186 211.727 29.5346C213.27 31.0298 215.082 32.3006 216.926 33.3986C217.802 33.9207 219.104 34.2955 219.739 35.1301C220.415 36.0174 220.21 39.6081 219.898 40.7022ZM207.016 33.015L212.962 37.8658L220.146 41.4461C218.714 49.1689 219.886 58.1373 219.899 65.9955C219.902 68.3728 221.111 73.1254 219.749 75.1598C218.02 77.7432 211.933 77.5087 209.774 75.5913C208.628 74.5732 208.167 72.6517 207.871 71.2029C206.788 65.902 207.016 60.4624 207.016 55.0846V33.015ZM206.52 -143.79L193.142 -142.426L183.48 -139.575C188.168 -157.128 187.157 -175.493 189.642 -193.385C190.374 -198.662 191.429 -203.907 192.964 -209.007C193.588 -211.079 194.095 -213.689 195.372 -215.454C196.087 -213.032 196.351 -209.008 195.867 -206.527C199.164 -206.328 203.693 -209.301 206.768 -210.495V-200.08C206.768 -198.574 207.116 -196.556 206.622 -195.121C205.965 -193.209 204.065 -191.506 203.116 -189.665C200.839 -185.248 199.644 -180.254 199.585 -175.283C199.523 -170.13 200.253 -164.888 202.386 -160.156C203.427 -157.848 205.573 -155.802 206.375 -153.461C207.293 -150.777 206.52 -146.627 206.52 -143.79ZM206.52 -65.4305L160.44 -62.2068C160.44 -73.3744 159.738 -85.551 162.674 -96.4272C163.541 -99.6421 165.342 -102.634 166.815 -105.602C169.228 -110.468 171.576 -115.371 174.005 -120.233C176.161 -124.549 178.221 -128.934 180.612 -133.127C181.41 -134.527 181.964 -136.786 183.298 -137.751C189.309 -142.101 199.444 -142.302 206.52 -142.302V-65.4305ZM206.371 -63.5872C206.974 -62.3981 206.52 -60.0515 206.52 -58.7352V-46.8325V-21.0432C206.52 -17.474 207.403 -12.561 206.393 -9.14049C205.836 -7.25204 203.944 -5.67002 203.001 -3.93304C201.325 -0.848673 199.995 4.43739 196.611 6.05438C193.005 7.77722 188.387 4.01462 185.71 1.98618C180.298 -2.11506 175.388 -6.82489 170.598 -11.6202C167.501 -14.7196 163.884 -18.3497 161.857 -22.2831C160.637 -24.6511 161.139 -27.8906 160.894 -30.4663C160.226 -37.4859 160.193 -44.4861 160.193 -51.544V-58.2393C160.193 -58.9516 159.991 -60.1995 160.624 -60.7121C161.549 -61.461 164.465 -61.1712 165.643 -61.2247C169.916 -61.4189 174.267 -61.5953 178.525 -62.001C185.606 -62.6754 192.705 -63.9307 199.831 -63.9427C201.149 -63.9427 205.651 -65.0075 206.371 -63.5872ZM193.638 66.7394L194.629 74.9226C190.766 74.9222 189.394 72.1527 188.333 68.7232C186.546 62.9447 185.673 57.0248 184.47 51.1171C182.721 42.5267 178.39 34.5647 174.914 26.5677C168.382 11.5354 162.392 -3.41811 161.679 -20.0514C164.812 -17.631 167.402 -13.409 170.13 -10.4609C174.458 -5.78399 179.436 -1.53719 184.41 2.43156C187.401 4.81805 192.718 9.24468 196.858 7.28311C198.544 6.48474 199.433 4.86441 200.575 3.50616C200.769 4.81785 200.193 6.14543 200.101 7.4737C199.854 11.0671 199.739 14.8202 200.404 18.3846C201.042 21.8094 202.248 24.9814 203.859 28.0555C204.589 29.4498 205.95 30.7679 206.393 32.2711C206.893 33.9643 206.52 36.2173 206.52 37.9745V49.6292V60.7881C206.52 61.8111 206.932 64.0116 206.266 64.8539C205.716 65.5485 203.632 65.427 202.804 65.4995C199.806 65.7623 196.561 66.0346 193.638 66.7394ZM200.691 35.2468C200.058 32.5054 196.68 30.9922 194.392 32.8648C192.721 34.2316 192.354 36.4692 192.909 38.4704C193.673 41.2259 197.079 42.4357 199.29 40.5638C200.775 39.3064 201.112 37.0693 200.691 35.2468ZM198.409 -80.2821C198.08 -81.8131 195.364 -81.9045 194.778 -80.5238C194.047 -78.7986 194.047 -72.6442 194.778 -70.919C195.329 -69.6198 197.805 -69.6065 198.327 -70.9413C198.64 -71.74 198.355 -72.7779 198.346 -73.6134C198.322 -75.6674 198.834 -78.2974 198.409 -80.2821ZM198.445 -11.5868C198.015 -12.9937 195.439 -13.1081 194.813 -11.799C193.942 -9.97963 194.629 -6.43241 194.629 -4.42873C194.629 -3.69932 194.463 -2.69777 194.778 -2.01805C195.368 -0.748847 197.857 -0.994337 198.333 -2.22396C198.66 -3.06854 198.37 -4.05052 198.349 -4.92463C198.301 -6.91216 199.017 -9.71265 198.445 -11.5868ZM198.097 -161.148C197.282 -161.299 196.206 -161.606 195.451 -161.103C194.534 -160.493 194.526 -157.087 195.274 -156.338C197.243 -154.367 198.097 -157.274 198.097 -158.668V-161.148ZM163.661 -15.0913C163.705 -9.75259 165.375 -4.29647 166.91 0.779008C169.814 10.3786 173.391 19.1225 177.966 28.0561C180.262 32.5392 182.234 38.3274 185.462 42.1906C186.075 38.6215 185.71 34.6584 185.71 31.0318C185.71 26.2765 186.043 21.3756 185.534 16.6494C185.26 14.106 186.014 11.134 184.946 8.7142C184.039 6.66001 182.01 4.92198 180.546 3.2588C177.606 -0.0798451 174.663 -3.43605 171.598 -6.6602C169.148 -9.23796 166.749 -13.321 163.661 -15.0913ZM185.215 -134.367C183.761 -133.63 182.827 -131.973 181.931 -130.647C179.884 -127.618 178.062 -124.434 176.316 -121.224C171.555 -112.473 165.951 -102.937 163.531 -93.2029C162.544 -89.2331 162.449 -85.1063 162.152 -81.0523C161.853 -76.9578 161.679 -72.7595 161.679 -68.6536C161.679 -67.7191 161.253 -65.3391 162.076 -64.6931C163.133 -63.863 167.064 -64.7556 168.368 -64.9339C173.948 -65.6988 179.625 -65.7147 185.215 -66.4218V-134.367ZM184.967 -60.2225C179.748 -58.9788 173.486 -59.4563 168.12 -59.2208C166.971 -59.1702 162.888 -59.4778 162.181 -58.585C161.431 -57.6365 162.117 -55.6042 162.165 -54.5191C162.317 -51.0301 161.927 -47.5807 161.927 -44.1042C161.927 -37.9496 160.94 -30.1516 163.014 -24.2663C165.25 -17.9183 171.79 -12.5005 177.039 -8.64051C179.477 -6.84773 182.235 -3.96191 185.215 -3.18853V-42.1204V-54.0231L184.967 -60.2225ZM123.031 131.461C126.567 130.618 130.799 131.213 134.427 131.213H156.724C159.687 131.213 163.247 131.751 166.138 131.082C170.764 130.012 169.392 125.206 170.747 122.075C171.265 120.878 172.844 120.789 173.325 119.31C173.82 117.786 173.751 115.555 173.063 114.103C172.648 113.229 171.539 112.398 171.577 111.375C171.656 109.308 173.857 107.519 174.074 105.424C174.341 102.855 171.038 98.5303 169.915 96.2489C169.502 95.4099 169.093 94.0529 168.271 93.528C167.01 92.7228 164.131 93.2732 162.67 93.2732H148.549H95.0361H79.4283C77.9735 93.2732 74.8512 92.6824 73.6234 93.528C72.7889 94.1027 72.6079 95.6091 72.2658 96.4968C71.3684 98.8249 68.6451 103.451 69.1566 105.92C69.5275 107.71 71.6113 109.486 71.6074 111.304C71.6059 112.12 70.6098 112.914 70.2418 113.607C69.4979 115.008 69.2831 117.023 69.6505 118.566C70.0354 120.183 71.4824 120.678 72.1165 122.049C73.4925 125.024 73.0545 128.839 76.4554 130.648C79.1711 132.092 83.8565 131.213 86.8606 131.213H110.892C113.704 131.213 118.687 130.238 121.26 131.363C122.343 131.836 122.04 133.485 122.04 134.437C122.04 136.129 122.378 138.243 121.934 139.882C121.606 141.09 120.323 141.939 121.128 143.307C121.879 144.584 123.626 143.944 123.834 142.619C123.989 141.623 123.228 140.647 123.158 139.644C122.977 137.021 123.579 133.985 123.031 131.461ZM142.603 -254.634C148.517 -254.634 154.513 -254.527 160.44 -254.382C162.891 -254.322 165.887 -253.455 168.116 -254.88C172.011 -257.369 170.653 -263.453 170.869 -267.277C170.977 -269.193 173.428 -270.541 173.744 -272.736C173.945 -274.134 173.81 -276.012 172.876 -277.144C172.348 -277.783 171.343 -277.967 170.995 -278.743C169.642 -281.761 170.819 -285.652 167.129 -287.501C165.444 -288.346 162.778 -287.862 160.936 -287.862H147.31H98.2568H83.3922C81.3585 -287.862 78.5497 -288.364 76.7033 -287.386C73.0654 -285.459 73.8366 -281.731 72.2371 -278.697C71.1514 -276.637 69.3258 -275.954 69.5932 -273.232C69.8341 -270.779 72.0374 -269.241 72.2293 -267.032C72.5275 -263.602 71.3556 -259.215 73.3535 -256.144C75.6969 -252.542 83.8432 -254.138 87.6039 -254.138C91.3372 -254.138 96.6321 -253.158 100.202 -254.217C101.553 -254.617 100.979 -256.73 102.72 -257.057C105.124 -257.509 107.951 -257.113 110.396 -257.113H125.756H138.391C140.293 -257.113 142.259 -256.855 142.603 -254.634ZM159.945 103.192L167.377 94.7611H167.873C169.763 98.7542 173.889 103.609 171.776 107.904C170.993 109.494 170.427 111.908 168.142 111.296C167.064 111.008 166.165 109.694 165.441 108.905C163.666 106.972 161.929 104.911 159.945 103.192ZM172.494 -274.967C172.875 -273.119 172.324 -270.4 170.349 -269.662C169.015 -269.163 167.052 -269.512 165.643 -269.512C161.914 -269.512 157.945 -269.878 154.247 -269.441C147.38 -268.63 140.106 -269.264 133.189 -269.264H93.0542C89.445 -269.264 85.754 -269.489 82.1535 -269.242C79.4896 -269.059 75.8871 -268.37 73.2768 -269.095C71.8325 -269.496 71.0299 -271.391 70.8319 -272.736C70.6436 -274.015 70.7465 -275.739 72.0221 -276.449C73.264 -277.139 75.565 -276.703 76.9509 -276.703H88.8426H150.035H167.129C168.967 -276.703 172 -277.367 172.494 -274.967ZM172.486 116.831C172.549 117.856 172.353 119.4 171.294 119.87C169.915 120.482 167.626 120.054 166.138 120.054H153.999H92.8064H75.9599C73.9696 120.054 70.9967 120.558 70.7717 117.823C70.6331 116.138 70.8406 113.82 72.5147 112.907C73.8038 112.204 76.0184 112.615 77.4464 112.615H89.0903H150.531H163.413C165.352 112.615 167.72 112.248 169.607 112.719C171.466 113.183 172.376 115.048 172.486 116.831ZM169.854 -278.191H104.698H84.1355L73.7303 -277.943C73.0532 -280.627 74.9818 -285.396 77.6951 -286.347C79.3484 -286.927 81.4162 -286.622 83.1445 -286.622H93.7976H149.044H162.175C163.963 -286.622 166.164 -286.917 167.578 -285.574C169.633 -283.622 169.26 -280.69 169.854 -278.191ZM165.643 -255.378L165.395 -268.024H169.607C169.936 -263.846 170.984 -256.621 165.643 -255.378ZM73.2349 121.542L73.4827 121.294L87.3563 121.542H113.617H149.54L169.359 121.294C170.009 123.66 169.112 128.385 166.612 129.475C165.157 130.109 162.99 129.723 161.431 129.725H150.283H93.0544C89.348 129.725 85.6086 129.581 81.9059 129.744C80.001 129.828 77.8045 130.183 76.2185 128.884C74.1852 127.217 73.7074 123.979 73.2349 121.542ZM166.882 94.761L159.697 102.448H159.202L152.265 94.761L162.175 94.5129L166.882 94.761ZM166.882 111.375H151.769C153.305 108.492 157.04 105.065 159.697 103.192L166.882 111.375ZM77.1988 -243.723V-235.044H100.239L147.31 -235.044H160.44L165.246 -235.13L165.643 -237.028L165.494 -243.358L160.44 -243.723H144.337L77.1988 -243.723ZM165.395 -217.19C157.837 -218.615 150.163 -219.403 142.603 -220.814C140.841 -221.143 139.566 -222.724 137.896 -222.964C133.68 -223.568 128.798 -222.893 124.518 -222.893C118.175 -222.893 111.507 -223.496 105.194 -222.867C103.396 -222.688 102.02 -221.216 100.239 -220.827C93.0277 -219.25 84.8088 -217.263 77.4466 -216.942L77.4466 -165.611C77.4466 -157.214 76.6955 -148.427 77.4723 -140.07C77.739 -137.202 78.8741 -134.272 79.4239 -131.433C81.3734 -121.364 84.0558 -111.364 85.6918 -101.243C86.6497 -95.3175 86.3607 -89.0254 86.6228 -83.0359C87.0711 -72.7894 87.4056 -62.5627 87.3561 -52.2872C87.2869 -37.9446 87.4383 -23.1684 86.0755 -8.89185C84.3196 9.50159 79.0772 27.5299 77.241 45.9103C76.2466 55.865 77.1988 66.4019 77.1988 76.4111C84.9869 77.4177 92.6524 79.3297 100.487 80.0886C107.292 80.7478 114.457 80.131 121.297 80.131C128.732 80.131 136.453 80.7159 143.842 79.9242C149.087 79.3621 154.274 78.5864 159.449 77.5521C160.894 77.2635 163.908 77.265 164.992 76.1988C165.86 75.345 165.395 72.3572 165.395 71.2039V56.8215C165.395 35.927 159.881 14.9725 156.829 -5.66784C156.072 -10.7841 156.197 -15.8935 155.971 -21.0422C155.458 -32.776 155.257 -44.4869 155.238 -56.2544C155.22 -67.3075 155.203 -78.4326 155.959 -89.4829C156.24 -93.5861 155.921 -97.8054 156.55 -101.882C158.074 -111.761 161.181 -121.656 163.471 -131.39C164.063 -133.905 165.042 -136.517 165.35 -139.078C166.187 -146.059 165.395 -153.616 165.395 -160.651C165.395 -179.425 164.506 -198.443 165.395 -217.19ZM164.9 -255.377L162.175 -255.625V-255.873H164.652V-267.776H153.751L162.175 -268.272L164.822 -267.697L164.9 -264.056V-255.377ZM77.6943 -235.539V-243.227L165.148 -243.227C165.148 -241.581 165.925 -237.241 164.893 -235.937C164.136 -234.98 160.818 -235.539 159.697 -235.539H143.842L77.6943 -235.539ZM164.738 -283.394C163.813 -286.255 155.105 -285.845 156.371 -281.415C157.27 -278.268 166.287 -278.604 164.738 -283.394ZM164.421 -273.714C164.001 -275.266 161.775 -274.532 162.329 -272.998C162.848 -271.559 164.8 -272.316 164.421 -273.714ZM164.468 124.777C163.91 123.407 162.413 123.527 161.184 123.526C158.699 123.526 154.913 123.8 156.413 127.483C157.002 128.931 158.663 128.734 159.945 128.734C162.453 128.734 165.937 128.385 164.468 124.777ZM164.297 -282.899C165.259 -279.443 157.438 -279.432 156.833 -281.668C155.877 -285.199 163.664 -285.171 164.297 -282.899ZM164.219 116.143C163.566 114.683 161.807 115.995 162.328 117.289C162.931 118.789 164.831 117.511 164.219 116.143ZM164.277 125.758C164.858 129.179 157.236 129.259 156.781 126.745C156.139 123.196 163.855 123.268 164.277 125.758ZM164.157 -140.319H163.909L148.253 -191.153L142.39 -210.247L139.382 -220.414C144.798 -218.294 151.458 -217.971 157.22 -217.158C158.644 -216.957 162.994 -216.958 163.902 -215.801C164.71 -214.772 164.157 -211.762 164.157 -210.495V-196.113V-140.319ZM164.049 46.3796C163.997 47.7 161.693 48.6709 160.688 49.225C156.917 51.3045 152.997 52.7798 148.796 53.7019C139.511 55.7403 129.517 54.8365 120.058 54.8365C112.212 54.8365 103.737 55.6795 96.0273 53.9873C91.3446 52.9597 86.6819 51.5536 82.4014 49.3544C81.0579 48.6641 78.508 47.9562 78.4742 46.1565C78.403 42.3553 79.7102 38.2456 80.3109 34.5027C81.8092 25.1653 83.4345 15.8385 84.8115 6.48169C85.2991 3.16916 85.9058 -0.119948 86.3653 -3.43724C86.5055 -4.44949 86.5141 -6.69954 87.2924 -7.42033C88.1027 -8.17072 90.0226 -8.30604 91.0724 -8.53948C94.2588 -9.24777 97.4938 -10.0307 100.734 -10.419C106.962 -11.1653 113.294 -10.8764 119.563 -10.8764C126.323 -10.8764 133.142 -11.1233 139.878 -10.6506C143.782 -10.3767 147.477 -9.45704 151.274 -8.55898C152.398 -8.29318 154.451 -8.29146 155.197 -7.27839C155.922 -6.29374 155.857 -4.36728 156.077 -3.18928C156.737 0.339358 157.236 3.92655 157.783 7.47357C159.149 16.3221 160.555 25.1772 162.035 34.0068C162.683 37.876 164.204 42.4646 164.049 46.3796ZM78.4375 75.4184C77.2031 68.7629 78.1898 61.1102 78.1898 54.3406C78.1898 52.3566 78.5659 50.0704 78.1898 48.1412C80.5476 47.9836 83.8723 50.6218 86.1175 51.5136C91.2545 53.5539 96.4855 54.7676 101.973 55.2904C109.916 56.047 118.27 55.3328 126.252 55.3328C133.055 55.3328 140.366 56.054 147.062 54.6717C150.801 53.9001 154.514 52.8247 157.963 51.1708C159.985 50.2014 162.015 48.4496 164.157 47.8936V67.7314C164.157 69.3793 164.927 73.6719 163.902 74.9902C163.035 76.1054 159.773 76.0979 158.458 76.361C153.011 77.4513 147.418 78.5093 141.86 78.6459C129.207 78.9569 116.11 79.7353 103.46 78.8681C95.0838 78.2939 86.7781 75.7769 78.4375 75.4184ZM163.166 -140.566C156.004 -143.191 149.941 -148.4 142.355 -150.227C136.825 -151.559 130.427 -150.733 124.765 -150.733C116.263 -150.733 106.466 -152.091 98.2569 -149.633C91.3282 -147.557 85.7118 -143.067 79.1807 -140.318C80.0528 -146.769 83.2829 -153.724 85.3556 -159.908C89.6002 -172.573 93.3313 -185.412 97.5139 -198.096C99.3346 -203.618 101.127 -209.15 102.824 -214.71C103.521 -216.994 104.597 -219.287 104.946 -221.654H119.563C119.501 -220.225 118.123 -217.723 118.773 -216.456C120.499 -213.092 125.592 -212.619 126.822 -216.704C127.205 -217.974 126.148 -220.18 125.756 -221.406L135.171 -221.654L138.427 -221.079L140.746 -213.966L145.929 -197.104L158.142 -157.429L163.166 -140.566ZM160.936 -141.062C156.538 -141.501 152.261 -143.315 147.806 -143.748C141.232 -144.387 134.582 -143.88 127.986 -144.042C117.63 -144.295 106.843 -145.26 96.5227 -144.244C91.3512 -143.735 86.4419 -141.969 81.4104 -140.814V-141.062C87.8641 -145.016 95.1666 -148.934 102.716 -150.157C110.006 -151.338 118.364 -150.237 125.756 -150.237C130.417 -150.237 135.513 -150.821 140.125 -150.163C144.674 -149.514 148.895 -147.259 153.008 -145.354C155.603 -144.153 158.73 -142.892 160.936 -141.062ZM151.522 110.383V95.2565L157.22 100.712L158.726 102.944L156.972 105.175L151.522 110.383ZM158.353 25.328C157.334 17.5553 155.868 9.88692 153.968 2.26642C153.495 0.372024 153.309 -4.1116 151.869 -5.45616C151.051 -6.2195 149.116 -6.29603 148.053 -6.51177C144.866 -7.15876 141.663 -7.89918 138.391 -7.90045H104.698C101.285 -7.90045 97.8963 -7.37161 94.5408 -6.76583C93.513 -6.5803 91.5445 -6.60321 90.8084 -5.77069C90.1091 -4.97968 90.0385 -3.43805 89.8329 -2.44506C89.3182 0.0417877 88.6977 2.5183 88.1289 4.99414C86.1147 13.7618 84.3833 22.5145 84.3833 31.5274C84.3833 33.826 84.0349 36.4384 84.4201 38.704C84.7069 40.391 88.5713 39.4625 89.8337 39.4625H107.176H145.576C148.711 39.4625 151.856 39.3933 154.99 39.4625C155.834 39.4818 157.567 40.03 158.204 39.2687C158.845 38.5026 158.458 36.4346 158.458 35.4913C158.458 32.1593 158.787 28.6292 158.353 25.3243M155.238 -9.14398L139.878 -12.1099L118.324 -12.1196L102.964 -12.0772L87.1085 -9.14362L87.6138 -18.5667L88.1004 -36.6687L88.3375 -73.3688L86.8608 -101.142L100.734 -103.103L118.82 -103.126L141.364 -103.116L155.238 -101.142L154.003 -69.1535L154.491 -32.7014L155.238 -9.14398ZM153.008 -267.78H151.769V-268.028L153.008 -267.78ZM151.274 -266.292H91.0724V-267.78L151.274 -268.028V-266.292ZM151.123 -265.222C151.905 -263.562 149.779 -263.565 148.796 -263.565H139.135H102.716H94.0453C93.2603 -263.565 91.6844 -263.266 91.2575 -264.139C90.5062 -265.676 92.3119 -265.794 93.3021 -265.796H101.973H138.144H147.806C148.651 -265.796 150.676 -266.171 151.123 -265.222ZM91.0724 -263.069H151.274L150.877 -261.092L147.806 -260.837H140.125H103.707H94.7885L91.4696 -261.092L91.0724 -263.069ZM151.274 -255.878H143.594C142.25 -259.276 137.873 -258.605 134.923 -258.605H109.158C106.051 -258.605 100.737 -259.749 99.9911 -255.63L91.3201 -255.382C91.0446 -256.315 90.5637 -259.391 91.4723 -260.09C92.2134 -260.66 93.9059 -260.341 94.7885 -260.341H103.212H139.63H148.053C148.834 -260.341 150.466 -260.643 151.019 -259.943C151.688 -259.098 151.274 -256.911 151.274 -255.878ZM150.531 99.7165C147.163 100.713 142.647 99.9645 139.135 99.9645C139.098 96.8959 134.986 97.9807 132.693 97.9807H111.387C109.003 97.9807 103.993 96.7811 103.955 99.9645H91.8156L92.0703 94.9067L95.7795 94.509H106.185H150.283L150.531 99.7165ZM150.531 107.9H136.409H107.919L92.0634 108.148L91.8156 100.46H103.955C104.16 103.147 108.412 102.196 110.396 102.196H131.702C133.781 102.196 138.922 103.254 139.135 100.46H147.31L150.276 100.858L150.531 107.9ZM150.531 111.123L144.089 111.371H131.95H91.8156V108.644H136.657H146.567L150.133 108.898L150.531 111.123ZM142.498 -80.8082C142.08 -83.953 141.109 -86.8514 138.144 -88.4866C135.695 -89.8367 132.91 -89.4873 130.216 -89.4873L115.351 -89.4873C111.57 -89.4873 106.471 -90.4175 103.212 -88.0892C98.8426 -84.9679 99.4957 -79.3142 99.4957 -74.6089C99.4957 -72.6619 99.2945 -70.5872 99.57 -68.6575C101.108 -57.8829 113.316 -60.4744 121.297 -60.4744C126.023 -60.4744 133.316 -59.1067 137.648 -61.159C144.054 -64.194 143.283 -74.8974 142.498 -80.8082ZM142.037 -80.8082C142.71 -75.1704 143.596 -64.8502 137.648 -61.8428C133.227 -59.6074 125.905 -60.9703 121.049 -60.9703C114.564 -60.9703 101.511 -58.4449 100.284 -67.6656C99.5345 -73.2937 98.2223 -84.1614 103.749 -87.6937C106.955 -89.7424 111.483 -88.9913 115.103 -88.9913H128.482C135.051 -88.9913 141.086 -88.7617 142.037 -80.8082ZM138.391 101.7H104.698L104.451 98.7247L115.351 98.4767H138.391V101.7ZM136.155 -274.291C135.229 -275.426 133.579 -273.698 134.577 -272.604C135.598 -271.485 136.942 -273.325 136.155 -274.291ZM136.222 116.14C135.6 114.702 133.602 115.975 134.247 117.286C134.973 118.76 136.812 117.507 136.222 116.14ZM127.738 -29.2297C125.138 -27.9615 122.878 -24.199 120.979 -22.0384C120.071 -21.0059 119.1 -20.2045 118.82 -18.8148L124.519 -25.1569L127.738 -29.2297ZM120.802 -221.161H124.765C125.056 -219.893 126.085 -217.926 125.349 -216.701C124.032 -214.507 120.753 -214.397 120.003 -217.197C119.69 -218.365 120.54 -220.019 120.802 -221.161ZM108.423 -273.483C108.335 -274.907 106.258 -274.964 106.258 -273.483C106.258 -271.9 108.524 -271.847 108.423 -273.483ZM108.227 116.139C107.595 114.671 105.589 115.925 106.274 117.286C107.014 118.754 108.811 117.496 108.227 116.139ZM104.451 -220.665L101.223 -210.994L95.3473 -192.644L78.933 -141.314H78.6853L78.6853 -194.628V-209.259C78.6853 -210.876 78.0986 -213.898 78.8348 -215.35C79.4208 -216.507 83.4301 -216.551 84.6311 -216.76C89.7474 -217.649 94.8512 -218.714 99.9911 -219.458C101.386 -219.66 103.153 -221.02 104.451 -220.665ZM90.8247 110.875C88.4191 109.752 86.7235 107.025 84.8788 105.172C84.3184 104.609 83.2143 103.819 83.1922 102.941C83.1693 102.031 84.3581 101.18 84.931 100.597C86.6005 98.8983 88.5303 95.7428 90.8247 95.005V110.875ZM90.5769 -255.63L78.4375 -255.382C77.4421 -258.752 78.1898 -263.272 78.1898 -266.788H78.4375V-255.878C81.8534 -255.878 87.4425 -256.946 90.5769 -255.63ZM89.8337 95.005C87.5479 97.293 85.0997 101.069 82.1537 102.444L75.2169 94.7571L85.8698 94.509L89.8337 95.005ZM89.8337 111.371H74.9691C76.0332 109.087 80.439 104.127 82.8969 103.436L89.8337 111.371ZM86.2026 -283.154C85.2628 -286.234 76.3747 -285.959 77.7535 -281.42C78.6989 -278.308 87.5513 -278.734 86.2026 -283.154ZM85.9336 125.011C84.795 122.071 76.0543 122.667 77.6582 127.237C78.6769 130.14 87.7321 129.654 85.9336 125.011ZM85.6372 -281.672C85.2114 -279.529 77.5681 -279.3 78.2465 -282.896C78.679 -285.188 86.3418 -285.218 85.6372 -281.672ZM85.4946 125.272C86.7548 129.176 78.8701 129.288 78.1449 126.979C76.9693 123.237 84.8616 123.312 85.4946 125.272ZM46.7264 -219.921H46.4787L45.4877 -208.019C43.3615 -209.23 38.1157 -209.971 36.8236 -212.054C36.1604 -213.124 36.7563 -214.795 36.8069 -215.954C36.9351 -218.882 37.6987 -223.99 36.2214 -226.593C34.6803 -229.31 30.2491 -228.552 27.6502 -228.923C26.3512 -229.108 25.174 -229.518 24.0094 -228.631C22.4403 -227.435 22.098 -224.732 21.9521 -222.897L15.2631 -219.511L13.1829 -217.857L13.0334 -212.482V-199.588C28.2144 -197.657 39.9375 -186.045 37.4512 -170.079C36.2248 -162.203 31.8114 -155.695 24.6773 -152.004C21.8829 -150.558 19.0578 -149.718 16.0063 -149.031C15.1485 -148.837 13.4251 -148.974 13.1121 -147.952C12.0313 -144.424 13.0334 -139.064 13.0334 -135.362V-107.093V-13.8553C20.1478 -12.3855 26.8791 -9.4313 31.8196 -3.9364C39.1765 4.24598 39.9703 17.9947 32.4768 26.3872C28.9525 30.3343 24.6112 33.0224 19.7224 34.9451C18.3818 35.4724 13.7975 36.035 13.1829 37.3051C12.17 39.3983 13.1729 43.4072 13.2714 45.6583C13.5588 52.228 12.4454 58.9797 13.0754 65.4962C13.3076 67.8977 14.1702 69.7236 16.5018 70.6989C17.8033 71.2433 19.5667 71.3559 20.6347 72.3524C22.2476 73.8574 21.5121 76.1802 23.9341 77.5086C26.6345 78.9896 32.4278 78.7588 34.4289 76.1456C36.2994 73.7031 36.7552 69.471 36.8167 66.4881L47.9651 67.976L46.9742 75.6631C54.1907 79.7092 56.5185 66.5457 57.5405 62.0246C58.6811 56.979 58.9856 51.541 60.7086 46.6502C66.3272 30.7015 75.9806 15.9591 79.4292 -0.712761C83.6535 -21.1341 83.672 -41.4993 83.6401 -62.2102C83.6223 -73.7882 84.5207 -86.7224 81.0547 -97.9184C80.0704 -101.098 78.1447 -104.097 76.7094 -107.093C73.69 -113.396 70.7219 -119.757 67.463 -125.939C64.1682 -132.19 60.7629 -138.074 59.2187 -145.033C53.78 -169.545 59.2068 -197.113 46.7264 -219.921ZM36.3212 -65.6818L36.569 -74.3609V-90.4791V-142.306C42.2781 -142.306 47.9136 -141.79 53.4155 -140.179C55.4963 -139.57 58.0667 -138.997 59.7888 -137.603C60.9364 -136.673 61.4853 -134.669 62.1505 -133.379C63.732 -130.312 65.4014 -127.291 66.9427 -124.204C69.5797 -118.921 72.1507 -113.612 74.7879 -108.333C76.5433 -104.819 78.7717 -101.176 79.9517 -97.4225C81.0904 -93.8004 81.3445 -90.0056 81.7002 -86.2636C82.2512 -80.4684 82.2629 -74.7243 82.405 -68.9054C82.4409 -67.436 83.3958 -63.8438 82.3937 -62.6078C81.8548 -61.9429 80.4042 -62.4289 79.6762 -62.4555C77.034 -62.5517 74.3889 -62.8284 71.7484 -62.9443C63.6865 -63.2982 55.7438 -64.3787 47.7174 -65.1438C44.1088 -65.4877 39.7853 -64.6569 36.3212 -65.6818ZM36.3212 -63.946C39.2807 -64.6512 42.7319 -63.9259 45.7354 -63.7202C53.715 -63.1732 61.764 -61.7655 69.7665 -61.7141C72.8475 -61.694 76.119 -61.5091 79.1807 -61.1475C79.9748 -61.0537 81.5838 -61.2286 82.2175 -60.7155C82.9313 -60.1374 82.6491 -58.5509 82.6491 -57.7466V-49.8115C82.6491 -44.0772 82.4133 -38.4132 82.1634 -32.7014C82.0352 -29.7713 82.4415 -25.8013 81.4555 -23.0304C80.6071 -20.646 78.4557 -18.4752 76.8451 -16.5831C70.711 -9.37647 63.5515 -2.59586 55.8929 2.96911C53.2459 4.89252 48.7292 7.97646 45.4913 5.60811C42.6004 3.49352 41.2768 -1.37091 39.5988 -4.43236C38.751 -5.9792 36.98 -7.47195 36.4904 -9.14748C36.126 -10.3945 36.5689 -12.0589 36.5689 -13.3594V-23.5263V-50.5554C36.5689 -54.7927 37.3026 -59.8202 36.3212 -63.946ZM72.9871 111.371L70.4105 105.668L71.4217 102.196L74.2259 94.7571C76.3201 96.2336 77.8738 98.4069 79.6762 100.212C80.3091 100.846 81.5646 101.733 81.6777 102.692C81.7891 103.637 80.5653 104.538 79.9983 105.149C78.1945 107.093 75.7004 110.952 72.9871 111.371ZM57.6271 -134.37V-66.4257L81.1627 -64.4419C81.1627 -74.1106 81.5764 -84.5068 79.2067 -93.9508C77.061 -102.502 72.0253 -111.041 67.861 -118.748C65.8231 -122.52 63.8169 -126.314 61.4683 -129.907C60.4275 -131.499 59.3346 -133.438 57.6271 -134.37ZM48.2129 74.9192C48.4325 73.1795 49.8907 68.5544 48.9456 67.0629C48.3879 66.1828 46.4069 66.3121 45.4877 66.2016C42.4289 65.8341 39.3771 65.3868 36.3212 65.0003L36.3212 43.1786C36.3212 39.8212 35.6934 35.7556 36.4162 32.4736C36.9755 29.9342 39.6486 27.3483 40.6684 24.8286C43.329 18.2544 43.7901 10.3508 42.0193 3.5028C44.0349 4.64681 44.5665 7.17078 47.2219 7.63684C51.3997 8.37005 55.6105 4.65327 58.6181 2.26365C63.6235 -1.7132 68.6123 -5.92839 72.9487 -10.6414C75.3915 -13.2964 78.1026 -18.0069 81.1627 -19.8067C80.8147 -2.93715 74.0836 12.3632 67.5687 27.5562C64.1178 35.604 59.8938 43.4378 58.274 52.1056C57.1572 58.0817 56.2639 64.2322 54.1453 69.9597C53.0882 72.8176 51.5267 75.3106 48.2129 74.9192ZM57.6271 -59.9784V-3.19248C60.8776 -3.83999 64.2645 -7.36348 66.7936 -9.39178C71.588 -13.237 77.4046 -17.883 79.7355 -23.7743C82.0903 -29.726 80.9149 -37.8238 80.9149 -44.1081C80.9149 -47.5001 80.6736 -50.8916 80.7945 -54.2714C80.834 -55.3764 81.3899 -57.6669 80.6603 -58.5889C79.9629 -59.4704 75.8561 -59.2026 74.7213 -59.2309C69.0177 -59.3729 63.3414 -59.9784 57.6271 -59.9784ZM80.1646 -274.149C79.3263 -275.405 77.7565 -273.961 78.4455 -272.778C79.2799 -271.344 80.9848 -272.92 80.1646 -274.149ZM80.1602 116.12C79.3358 114.625 77.4888 116.183 78.3067 117.492C79.1208 118.795 80.8293 117.333 80.1602 116.12ZM79.1806 -15.0952C77.2514 -13.9665 75.7406 -11.5217 74.2197 -9.88777C70.4245 -5.81071 66.6786 -1.67911 63.0068 2.51095C61.3532 4.39798 58.5042 6.75993 57.7532 9.20623C56.7403 12.5053 57.3793 16.7021 57.3793 20.117V41.9387C58.723 40.7828 59.3828 38.794 60.1712 37.2272C61.5099 34.5664 62.9194 31.9134 64.336 29.2921C69.4112 19.9002 73.336 10.2954 76.2425 0.0311595C77.6291 -4.8654 79.1806 -9.98269 79.1806 -15.0952ZM73.4826 -267.78C74.4316 -267.78 76.7864 -268.208 77.4396 -267.383C77.9201 -266.775 77.6942 -265.526 77.6942 -264.805V-258.357C77.6942 -257.649 77.9255 -256.372 77.4396 -255.783C76.7772 -254.98 75.3037 -255.907 74.7742 -256.429C73.2021 -257.979 73.4826 -260.56 73.4826 -262.573V-267.78ZM59.3612 -139.33C53.9406 -141.556 48.5722 -142.784 42.7624 -143.475C40.6525 -143.726 38.3637 -143.395 36.3211 -143.793C37.0512 -146.863 35.6314 -150.549 36.5337 -153.464C37.2061 -155.637 39.3073 -157.55 40.2778 -159.664C42.7757 -165.104 43.6434 -171.064 43.2358 -177.022C42.948 -181.227 41.9921 -185.692 39.9599 -189.421C38.9201 -191.328 36.9734 -193.109 36.2537 -195.124C35.7376 -196.569 36.0734 -198.565 36.0734 -200.084V-210.25L46.9741 -206.531L47.2218 -215.458L49.4161 -210.746L52.7341 -196.612L55.9347 -161.152L57.5314 -147.513L59.3612 -139.33ZM47.9582 -80.8819C47.2155 -81.8657 45.1259 -81.6589 44.6461 -80.5271C43.8361 -78.6163 44.4966 -75.1895 44.4966 -73.121C44.4966 -72.3885 44.28 -71.192 44.7513 -70.5677C45.4939 -69.5838 47.5835 -69.7906 48.0633 -70.9224C48.8733 -72.8332 48.2128 -76.26 48.2128 -78.3285C48.2128 -79.061 48.4295 -80.2575 47.9582 -80.8819ZM47.9582 -12.0129C47.2937 -12.993 45.1449 -12.9285 44.6461 -11.8151C43.7908 -9.90591 44.4965 -6.27096 44.4966 -4.18434C44.4967 -3.47322 44.3243 -2.43308 44.7513 -1.81221C45.3824 -0.894356 47.5921 -0.963163 48.0633 -2.00926C48.9208 -3.91288 48.2129 -7.55735 48.2128 -9.63981C48.2127 -10.3549 48.3827 -11.3868 47.9582 -12.0129ZM47.9649 -161.152C47.1498 -161.303 46.0734 -161.61 45.3184 -161.107C44.423 -160.511 44.4008 -157.145 45.0363 -156.341C46.7964 -154.117 47.9648 -157.39 47.9649 -158.672V-161.152ZM22.9428 -145.281C22.9428 -146.425 22.5201 -148.616 23.1975 -149.587C24.0436 -150.799 26.6414 -151.573 27.8977 -152.397C30.4545 -154.073 32.8539 -156.348 34.5267 -158.92C40.4522 -168.027 40.6059 -181.738 33.716 -190.412C30.7444 -194.154 26.8617 -196.453 22.6951 -198.595L22.9428 -202.563C30.5962 -200.389 36.9095 -195.25 40.2076 -187.932C47.0843 -172.675 40.8488 -149.429 22.9428 -145.281ZM22.9428 40.6991C22.9428 39.21 22.4546 36.6981 23.0923 35.3405C23.5454 34.376 25.2886 33.8095 26.1635 33.2944C28.041 32.1889 29.8079 30.8101 31.3661 29.2887C35.6544 25.1018 38.7686 19.5655 38.7982 13.422C38.8322 6.35344 37.1658 0.256856 32.4217 -5.15361C30.7696 -7.03773 28.7751 -8.65554 26.659 -9.98909C25.6568 -10.6207 23.8456 -11.1946 23.1975 -12.2159C22.564 -13.214 22.9428 -15.1895 22.9428 -16.3348C25.4975 -15.7275 27.9592 -14.1382 30.1274 -12.6976C48.9358 -0.201399 46.1641 34.4708 22.9428 40.6991ZM35.926 -174.294C35.7278 -179.783 33.7927 -185.433 29.8376 -189.378C22.3447 -196.851 10.0803 -195.552 4.0576 -186.941C0.824288 -182.318 -0.0820837 -177.097 0.160231 -171.566C0.275848 -168.927 1.11021 -166.263 2.20908 -163.879C3.21556 -161.696 4.67364 -159.61 6.45284 -157.991C8.09548 -156.496 9.97504 -155.246 12.0422 -154.412C24.8679 -149.236 36.3731 -161.91 35.926 -174.294ZM22.9428 -142.057V-144.785C28.2576 -146.016 31.5759 -149.724 35.8255 -152.72L35.8292 -146.273L35.8089 -143.943L32.6049 -143.402L22.9428 -142.057ZM36.0733 -65.6815L22.9429 -63.9457V-140.818L35.8255 -142.305V-91.2228V-74.8565L36.0733 -65.6815ZM35.5778 -9.63951C33.281 -12.2752 30.1978 -14.1702 27.1545 -15.8189C26.1307 -16.3736 23.603 -17.0933 23.0924 -18.1682C21.9852 -20.4991 22.9429 -25.4029 22.9429 -27.9895V-52.043V-59.4822C22.9429 -60.2571 22.6842 -61.6579 23.1975 -62.3082C23.6986 -62.9431 25.4098 -62.9169 26.1635 -63.0493C29.0878 -63.5629 33.1531 -64.4403 36.0733 -63.9457L35.8255 -50.5552V-24.022L35.8263 -14.103L35.5778 -9.63951ZM35.7192 8.71054C35.264 5.5288 34.3209 2.53995 32.6481 -0.216504C26.9848 -9.54824 14.42 -11.8642 6.34755 -4.16189C1.37879 0.579047 -0.732311 8.19026 0.224715 14.9099C0.639756 17.8241 1.59352 20.8292 3.13931 23.341C4.44561 25.4636 6.08799 27.3138 8.07811 28.8213C9.62837 29.9956 11.4179 30.9475 13.2807 31.5144C26.9359 35.6698 37.5235 21.322 35.7192 8.71054ZM22.9427 41.1951C28.2931 39.9231 31.5631 36.0171 35.8253 33.012C35.8253 43.3438 35.8749 53.6769 35.8251 64.0086C35.81 67.1609 35.696 73.5624 33.0063 75.731C30.9731 77.3702 23.8574 77.952 23.0214 74.6703C22.2168 71.512 22.9427 67.2715 22.9427 64.0086L22.9427 41.1951ZM35.5776 -195.868C31.7705 -198.251 27.8683 -202.844 22.9427 -202.811V-217.441C22.9427 -220.2 22.6666 -223.512 23.7379 -226.119C24.0224 -226.812 24.4405 -227.523 25.1982 -227.749C26.2511 -228.061 27.3576 -227.582 28.393 -227.435C30.5233 -227.131 33.7142 -228.004 35.1459 -225.859C36.4005 -223.979 35.5776 -219.645 35.5776 -217.441V-195.868ZM22.4472 -198.843L14.2717 -200.827V-212.73C14.2717 -213.975 13.8357 -216.261 14.5263 -217.345C15.7344 -219.241 20.2255 -220.809 22.1994 -221.905L22.4472 -214.218V-198.843ZM14.2717 -138.586V-147.513L22.4472 -149.249C22.4472 -147.543 23.1842 -143.597 22.1926 -142.184C21.7102 -141.496 20.469 -141.315 19.722 -141.065C17.7776 -140.416 16.1346 -139.36 14.2717 -138.586ZM14.2717 -62.4579V-121.724V-132.138C14.2717 -133.454 13.918 -135.398 14.5263 -136.601C15.7283 -138.978 19.9865 -140.214 22.4472 -140.322V-81.5518V-68.9051L22.1926 -64.0917L19.9698 -63.4173L14.2717 -62.4579ZM22.4472 -18.3185C20.758 -18.5718 15.5354 -19.8114 14.5263 -21.2079C13.9958 -21.9422 14.2717 -23.4134 14.2717 -24.2699V-31.7091V-60.97L22.1994 -62.4579C23.4188 -58.3289 22.4472 -52.6346 22.4472 -48.3234V-18.3185ZM22.1994 -12.3672L14.5263 -15.2345L14.2717 -19.5584C18.4264 -18.9356 23.6893 -17.4124 22.1994 -12.3672ZM22.4472 71.9438C20.4105 70.7991 16.2746 69.92 14.9476 67.9655C13.5041 65.8393 14.2717 61.7394 14.2717 59.2972L14.2717 37.9714L22.1994 35.4917C23.215 38.9306 22.4472 43.5595 22.4472 47.1465L22.4472 71.9438Z" fill="#304A6E"/>
</svg>
