<svg width="72" height="81" viewBox="0 0 72 81" fill="none" xmlns="http://www.w3.org/2000/svg">
<rect width="72" height="81" fill="#1A1E26"/>
<rect x="-714" y="-596" width="980" height="753" rx="4" fill="white"/>
<path d="M-104.027 -161.811C-108.937 -160.83 -113.408 -159.437 -117.127 -155.888C-124.166 -149.172 -124.021 -137.752 -116.673 -131.29C-111.361 -126.619 -103.925 -125 -97.0836 -126.375C-93.9747 -127 -90.9197 -128.233 -88.4045 -130.182C-86.5556 -131.614 -84.963 -133.143 -83.7759 -135.183C-76.9823 -146.853 -85.6278 -159.426 -98.0755 -161.479C-100.049 -161.805 -102.013 -162.214 -104.027 -161.811ZM81.2094 -161.763C75.4555 -160.321 70.2146 -158.767 66.4585 -153.763C60.3381 -145.609 63.1998 -134.602 71.5384 -129.259C76.7515 -125.919 83.4651 -125.124 89.3925 -126.604C97.3828 -128.601 104.454 -135.415 104.239 -144.101C104.009 -153.386 96.2527 -159.813 87.6567 -161.423C85.56 -161.816 83.3399 -162.297 81.2094 -161.763ZM-139.487 -125.273L-136.015 -116.106L-143.951 -115.633L-147.918 -115.115C-123.691 -103.296 -96.5509 -108.31 -71.0464 -102.261C-65.9406 -101.05 -61.5075 -98.4075 -56.9119 -95.9849C-50.0639 -92.3749 -43.0491 -89.039 -36.0821 -85.6684C-32.8659 -84.1124 -29.5761 -82.0168 -26.1632 -80.9492C-14.6831 -77.3583 -1.35165 -78.2017 10.5369 -78.2017C25.4657 -78.2017 40.0799 -78.4111 54.9242 -79.894C63.34 -80.7347 72.2759 -81.9237 80.2175 -84.9383C93.2618 -89.89 105.659 -96.8998 118.901 -101.269C124.248 -103.033 130.05 -103.385 135.516 -104.682C140.945 -105.969 149.845 -107.577 147.914 -114.868L139.979 -113.877C139.341 -116.465 139.225 -119.171 138.844 -121.804C138.723 -122.635 138.206 -124.16 138.89 -124.841C139.9 -125.848 143.271 -125.596 144.69 -126.017C149.521 -127.45 151.69 -132.337 149.866 -137.164C149.428 -138.323 148.555 -139.651 147.395 -140.186C146.223 -140.726 144.819 -140.421 144.049 -141.651C142.838 -143.584 143.03 -146.074 141.147 -147.622C139.145 -149.267 136.188 -148.808 133.78 -148.808H116.669C114.696 -148.808 111.092 -149.51 109.305 -148.659C108.032 -148.053 107.463 -143.464 106.951 -142.119C105.213 -137.555 102.469 -133.061 98.8153 -129.774C90.0869 -121.924 76.0311 -122.634 67.5707 -130.498C62.4002 -135.303 59.5523 -142.006 58.1477 -148.808L-35.0904 -148.808H-63.3594C-67.0614 -148.808 -72.4204 -149.81 -75.9493 -148.73C-76.976 -148.415 -76.867 -146.699 -77.0187 -145.835C-77.5206 -142.981 -78.4942 -140.241 -79.7868 -137.66C-83.1756 -130.893 -89.3028 -125.986 -96.8358 -124.644C-113.227 -121.725 -125.532 -132.932 -127.584 -148.808H-140.727C-142.17 -148.808 -144.854 -149.321 -146.117 -148.554C-148.386 -147.176 -149.211 -142.728 -150.854 -140.666C-152.154 -139.034 -154.896 -139.647 -156.456 -138.113C-157.638 -136.952 -157.042 -135.604 -156.888 -134.192C-156.597 -131.507 -157.236 -127.407 -154.61 -125.704C-153.276 -124.839 -151.415 -125.025 -149.902 -125.025C-146.422 -125.025 -142.973 -125.273 -139.487 -125.273ZM-128.824 -147.57L-126.841 -139.394L-149.654 -139.642C-149.044 -141.568 -146.947 -146.498 -145.138 -147.487C-143.934 -148.145 -141.584 -147.817 -140.231 -147.817C-136.418 -147.817 -132.625 -147.57 -128.824 -147.57ZM-66.583 -147.817L-69.0976 -142.119L-70.1811 -139.667L-77.2458 -139.394L-75.51 -147.57L-66.583 -147.817ZM9.54486 -147.817L8.05702 -139.394C-11.2161 -140.685 -30.8924 -139.642 -50.2167 -139.642C-54.7979 -139.642 -59.5542 -140.001 -64.1033 -139.465C-64.9986 -139.359 -67.9914 -138.913 -68.1943 -140.194C-68.3317 -141.062 -67.721 -142.297 -67.4469 -143.11C-66.9683 -144.53 -66.2274 -146.559 -64.8248 -147.315C-63.7512 -147.894 -61.5997 -147.802 -60.3837 -147.816C-57.161 -147.855 -53.9356 -147.817 -50.7127 -147.817H-10.293C-3.76023 -147.817 3.04575 -147.243 9.54486 -147.817ZM53.6842 -139.394L33.3503 -139.642L9.79289 -139.394L9.54486 -139.642L11.0327 -147.569C20.5157 -147.57 30.0456 -147.817 39.5497 -147.817C42.4277 -147.817 48.0897 -148.899 50.6396 -147.459C52.1369 -146.614 53.5148 -141.048 53.6842 -139.394ZM57.1558 -147.569L59.3876 -139.394H55.42L52.4443 -147.569H57.1558ZM143.947 -139.642H136.011H118.901H107.494L109.974 -147.569H131.3C133.758 -147.569 137.783 -148.328 139.956 -147.005C142.24 -145.614 142.204 -141.658 143.947 -139.642ZM-130.808 -138.898C-130.343 -133.575 -125.991 -130.647 -123.865 -126.264C-131.15 -126.264 -138.434 -126.275 -145.687 -126.264C-147.89 -126.26 -152.182 -125.452 -154.049 -126.781C-155.911 -128.107 -155.195 -131.533 -155.401 -133.448C-155.506 -134.429 -155.955 -135.419 -155.793 -136.417C-155.659 -137.243 -155.094 -137.73 -154.362 -138.065C-151.112 -139.552 -147.129 -138.936 -143.703 -138.899C-139.548 -138.855 -134.883 -139.57 -130.808 -138.898ZM-73.2783 -138.899C-77.5412 -120.927 -101.436 -114.442 -116.674 -122.005C-123.756 -125.52 -128.158 -131.522 -130.56 -138.899C-125.415 -140.16 -124.582 -134.741 -121.775 -131.466C-118.392 -127.52 -113.845 -124.772 -108.739 -123.703C-100.817 -122.045 -91.8608 -123.371 -85.429 -128.494C-83.1519 -130.308 -81.326 -132.473 -79.7824 -134.935C-79.1018 -136.02 -78.5005 -138.156 -77.3909 -138.842C-76.448 -139.425 -74.2855 -139.183 -73.2783 -138.899ZM-70.0546 -139.146L-71.7904 -125.768C-74.3646 -126.381 -78.1434 -126.381 -80.7175 -125.768L-76.6079 -130.971L-72.5344 -139.146H-70.0546ZM6.56918 -126.016L-70.3026 -126.016L-69.3107 -135.43L-68.2436 -138.86L-63.3594 -138.921L-52.2006 -138.899H-9.54905H3.0976L7.65062 -138.879L7.63203 -135.678L6.56918 -126.016ZM62.1156 -126.016H8.05732L8.9882 -135.678L9.69484 -138.841L12.5208 -138.902L19.7121 -138.898L44.5094 -138.898L50.7088 -138.92L53.8288 -138.87L56.2257 -134.687L62.1156 -126.016ZM112.702 -138.898C106.314 -115.514 70.8732 -112.84 58.8451 -132.457C57.6318 -134.436 56.2132 -136.626 55.6682 -138.898C56.8363 -138.99 58.4989 -139.53 59.583 -138.892C60.6548 -138.26 61.2209 -136.443 61.8871 -135.43C63.2943 -133.291 64.9236 -131.244 66.8271 -129.526C71.9289 -124.922 78.3547 -122.88 85.1771 -123.047C91.4989 -123.201 97.2186 -126.27 101.535 -130.727C103.03 -132.27 104.301 -134.082 105.399 -135.926C105.921 -136.802 106.295 -138.104 107.13 -138.739C108.017 -139.415 111.608 -139.21 112.702 -138.898ZM105.015 -126.016L109.866 -131.962L113.446 -139.146C121.169 -137.714 130.137 -138.886 137.996 -138.899C140.373 -138.902 145.125 -140.111 147.16 -138.749C149.743 -137.02 149.509 -130.933 147.591 -128.774C146.573 -127.628 144.652 -127.167 143.203 -126.871C137.902 -125.788 132.462 -126.016 127.085 -126.016H105.015ZM-71.7901 -125.52L-70.4265 -112.142L-67.5746 -102.48C-85.1278 -107.168 -103.493 -106.157 -121.385 -108.642C-126.662 -109.374 -131.907 -110.429 -137.007 -111.964C-139.079 -112.588 -141.689 -113.095 -143.454 -114.372C-141.032 -115.087 -137.008 -115.351 -134.527 -114.867C-134.328 -118.164 -137.301 -122.693 -138.495 -125.768H-128.08C-126.574 -125.768 -124.556 -126.116 -123.121 -125.622C-121.209 -124.965 -119.506 -123.065 -117.665 -122.116C-113.248 -119.839 -108.254 -118.644 -103.283 -118.585C-98.1298 -118.523 -92.888 -119.253 -88.1564 -121.386C-85.8477 -122.427 -83.8016 -124.573 -81.4611 -125.375C-78.7767 -126.293 -74.6272 -125.52 -71.7901 -125.52ZM6.56948 -125.52L9.79319 -79.4403C-1.3744 -79.4403 -13.551 -78.7377 -24.4272 -81.6736C-27.6421 -82.5414 -30.6336 -84.3424 -33.6022 -85.8149C-38.468 -88.2283 -43.3707 -90.5762 -48.2326 -93.0049C-52.5486 -95.1609 -56.9341 -97.2206 -61.1273 -99.6118C-62.5267 -100.41 -64.7863 -100.964 -65.7514 -102.298C-70.1014 -108.309 -70.3023 -118.444 -70.3023 -125.52L6.56948 -125.52ZM8.41284 -125.371C9.60192 -125.974 11.9485 -125.52 13.2648 -125.52H25.1675H50.9568C54.526 -125.52 59.439 -126.403 62.8595 -125.393C64.748 -124.836 66.33 -122.944 68.067 -122.001C71.1513 -120.325 76.4374 -118.995 78.0544 -115.611C79.7772 -112.005 76.0146 -107.387 73.9862 -104.71C69.8849 -99.2983 65.1751 -94.3883 60.3798 -89.5977C57.2804 -86.5014 53.6503 -82.8837 49.7169 -80.8571C47.3489 -79.6371 44.1094 -80.1386 41.5337 -79.8937C34.5141 -79.2263 27.5139 -79.1925 20.456 -79.1925H13.7607C13.0484 -79.1928 11.8005 -78.9912 11.2879 -79.6242C10.539 -80.5489 10.8288 -83.4653 10.7753 -84.6429C10.5811 -88.9157 10.4047 -93.2666 9.99903 -97.5255C9.32459 -104.606 8.0693 -111.705 8.05732 -118.831C8.05732 -120.149 6.99255 -124.651 8.41284 -125.371ZM138.739 -112.638L146.923 -113.629C146.922 -109.766 144.153 -108.394 140.723 -107.333C134.945 -105.546 129.025 -104.673 123.117 -103.47C114.527 -101.721 106.565 -97.3898 98.5677 -93.9145C83.5354 -87.3817 68.5819 -81.3924 51.9486 -80.679C54.369 -83.812 58.591 -86.4017 61.5391 -89.1299C66.216 -93.4581 70.4628 -98.4365 74.4316 -103.41C76.8181 -106.401 81.2447 -111.718 79.2831 -115.858C78.4847 -117.544 76.8644 -118.433 75.5062 -119.575C76.8178 -119.769 78.1454 -119.193 79.4737 -119.101C83.0671 -118.854 86.8202 -118.739 90.3846 -119.404C93.8094 -120.042 96.9814 -121.248 100.056 -122.859C101.45 -123.589 102.768 -124.95 104.271 -125.393C105.964 -125.893 108.217 -125.52 109.974 -125.52H121.629H132.788C133.811 -125.52 136.012 -125.932 136.854 -125.266C137.548 -124.716 137.427 -122.632 137.5 -121.804C137.762 -118.806 138.035 -115.561 138.739 -112.638ZM107.247 -119.691C104.505 -119.058 102.992 -115.68 104.865 -113.392C106.232 -111.721 108.469 -111.354 110.47 -111.909C113.226 -112.673 114.436 -116.079 112.564 -118.29C111.306 -119.775 109.069 -120.112 107.247 -119.691ZM-8.28215 -117.409C-9.81314 -117.08 -9.90449 -114.364 -8.52377 -113.778C-6.79862 -113.047 -0.644179 -113.047 1.08097 -113.778C2.38023 -114.329 2.39347 -116.805 1.05866 -117.327C0.259983 -117.64 -0.777933 -117.355 -1.61336 -117.346C-3.6674 -117.322 -6.29737 -117.834 -8.28215 -117.409ZM60.4132 -117.445C59.0063 -117.015 58.8919 -114.439 60.201 -113.813C62.0204 -112.942 65.5676 -113.629 67.5713 -113.629C68.3007 -113.629 69.3022 -113.463 69.9819 -113.778C71.2512 -114.368 71.0057 -116.857 69.776 -117.333C68.9315 -117.66 67.9495 -117.37 67.0754 -117.349C65.0878 -117.301 62.2873 -118.017 60.4132 -117.445ZM-89.148 -117.097C-89.2994 -116.282 -89.6062 -115.206 -89.1033 -114.451C-88.4929 -113.534 -85.0866 -113.526 -84.3379 -114.274C-82.3666 -116.243 -85.2735 -117.097 -86.668 -117.097H-89.148ZM56.9087 -82.6609C62.2474 -82.7051 67.7035 -84.3752 72.779 -85.9102C82.3786 -88.8136 91.1225 -92.391 100.056 -96.9662C104.539 -99.262 110.327 -101.234 114.191 -104.462C110.622 -105.075 106.658 -104.71 103.032 -104.71C98.2765 -104.71 93.3756 -105.043 88.6494 -104.534C86.106 -104.26 83.134 -105.014 80.7142 -103.946C78.66 -103.039 76.922 -101.01 75.2588 -99.5459C71.9202 -96.606 68.564 -93.6628 65.3398 -90.5983C62.762 -88.148 58.679 -85.7492 56.9087 -82.6609ZM-62.3665 -104.215C-61.6296 -102.761 -59.973 -101.827 -58.6469 -100.931C-55.6177 -98.8842 -52.4336 -97.0619 -49.224 -95.3159C-40.4726 -90.5552 -30.9371 -84.9509 -21.2029 -82.5309C-17.2331 -81.544 -13.1063 -81.4494 -9.05227 -81.1525C-4.9578 -80.8526 -0.759473 -80.679 3.34645 -80.679C4.28089 -80.679 6.66091 -80.2534 7.30693 -81.0762C8.13699 -82.1335 7.24444 -86.0643 7.06605 -87.368C6.30115 -92.9479 6.28531 -98.6248 5.57821 -104.215L-62.3665 -104.215ZM11.7775 -103.967C13.0212 -98.7478 12.5437 -92.4861 12.7792 -87.1203C12.8298 -85.971 12.5222 -81.8878 13.415 -81.1813C14.3635 -80.4308 16.3958 -81.1173 17.4809 -81.1647C20.9699 -81.3173 24.4193 -80.9267 27.8958 -80.9267C34.0504 -80.9267 41.8484 -79.9399 47.7337 -82.0136C54.0817 -84.2504 59.4995 -90.7897 63.3595 -96.039C65.1523 -98.4771 68.0381 -101.235 68.8115 -104.215L29.8796 -104.215H17.9769L11.7775 -103.967ZM203.461 -42.0311C202.618 -45.5667 203.213 -49.7989 203.213 -53.4273V-75.7241C203.213 -78.6872 203.751 -82.2475 203.082 -85.1383C202.012 -89.7636 197.206 -88.3925 194.075 -89.7472C192.878 -90.265 192.789 -91.8438 191.31 -92.3246C189.786 -92.8204 187.555 -92.7514 186.103 -92.0627C185.229 -91.6481 184.398 -90.5386 183.375 -90.5774C181.308 -90.6559 179.519 -92.8567 177.424 -93.0743C174.855 -93.3412 170.53 -90.0385 168.249 -88.9149C167.41 -88.5017 166.053 -88.0934 165.528 -87.2713C164.723 -86.0103 165.273 -83.1306 165.273 -81.6699V-67.5486V-14.0361V1.57166C165.273 3.02651 164.682 6.14876 165.528 7.3766C166.103 8.21111 167.609 8.39208 168.497 8.73422C170.825 9.63157 175.451 12.3549 177.92 11.8434C179.71 11.4725 181.486 9.38872 183.304 9.39257C184.12 9.39406 184.914 10.3902 185.607 10.7582C187.008 11.5021 189.023 11.7169 190.566 11.3495C192.183 10.9646 192.678 9.51762 194.049 8.88352C197.024 7.50753 200.839 7.94551 202.648 4.54457C204.092 1.82891 203.213 -2.85651 203.213 -5.86063V-29.8917C203.213 -32.7042 202.238 -37.6867 203.363 -40.2602C203.836 -41.3435 205.485 -41.0401 206.437 -41.0401C208.129 -41.0401 210.243 -41.3783 211.882 -40.9336C213.09 -40.6062 213.939 -39.3228 215.307 -40.1281C216.584 -40.8795 215.944 -42.6262 214.619 -42.8336C213.623 -42.9894 212.647 -42.2277 211.644 -42.1584C209.021 -41.9772 205.985 -42.5794 203.461 -42.0311ZM-182.634 -61.6028C-182.634 -67.517 -182.527 -73.513 -182.382 -79.4403C-182.322 -81.8909 -181.455 -84.8865 -182.88 -87.1165C-185.369 -91.0107 -191.453 -89.6526 -195.277 -89.8688C-197.193 -89.9771 -198.541 -92.428 -200.736 -92.744C-202.134 -92.9453 -204.012 -92.8104 -205.144 -91.876C-205.783 -91.3481 -205.967 -90.3425 -206.743 -89.9948C-209.761 -88.6419 -213.652 -89.8189 -215.501 -86.1293C-216.346 -84.4438 -215.862 -81.7777 -215.862 -79.9357V-66.3099V-17.2568V-2.39223C-215.862 -0.358531 -216.364 2.45032 -215.386 4.29665C-213.459 7.93456 -209.731 7.16345 -206.697 8.76288C-204.637 9.84861 -203.954 11.6742 -201.232 11.4068C-198.779 11.1659 -197.241 8.96264 -195.032 8.77071C-191.602 8.47253 -187.215 9.64444 -184.144 7.64651C-180.542 5.3031 -182.138 -2.84323 -182.138 -6.60386C-182.138 -10.3372 -181.158 -15.6321 -182.217 -19.202C-182.617 -20.5528 -184.73 -19.9786 -185.057 -21.72C-185.509 -24.1237 -185.113 -26.9509 -185.113 -29.3962V-44.7563V-57.3911C-185.113 -59.2926 -184.855 -61.2593 -182.634 -61.6028ZM175.192 -78.9448L166.761 -86.3771V-86.8725C170.754 -88.7629 175.609 -92.8893 179.904 -90.776C181.494 -89.9934 183.908 -89.427 183.296 -87.1425C183.008 -86.0636 181.694 -85.1645 180.905 -84.4408C178.972 -82.666 176.911 -80.9294 175.192 -78.9448ZM-202.967 -91.4944C-201.119 -91.8754 -198.4 -91.324 -197.662 -89.349C-197.163 -88.0153 -197.512 -86.0524 -197.512 -84.6429C-197.512 -80.9144 -197.878 -76.9448 -197.441 -73.2467C-196.63 -66.3799 -197.264 -59.1056 -197.264 -52.1885V-12.0542C-197.264 -8.445 -197.489 -4.75398 -197.242 -1.15352C-197.059 1.51044 -196.37 5.11291 -197.095 7.72316C-197.496 9.16752 -199.391 9.97011 -200.736 10.1681C-202.015 10.3564 -203.739 10.2535 -204.449 8.97793C-205.139 7.73599 -204.703 5.43498 -204.703 4.04908V-7.84257V-69.0351V-86.1293C-204.703 -87.9667 -205.367 -90.9995 -202.967 -91.4944ZM188.831 -91.4858C189.856 -91.5487 191.4 -91.3533 191.87 -90.2941C192.482 -88.915 192.054 -86.6261 192.054 -85.1383V-72.9989V-11.8064V5.04007C192.054 7.03037 192.558 10.0033 189.823 10.2283C188.138 10.3669 185.82 10.1594 184.907 8.48534C184.204 7.19621 184.615 4.98156 184.615 3.55362V-8.09031V-69.5305V-82.4132C184.615 -84.3523 184.248 -86.7202 184.719 -88.6067C185.183 -90.4663 187.048 -91.3764 188.831 -91.4858ZM-206.191 -88.8545V-23.6981V-3.13546L-205.943 7.26974C-208.627 7.94677 -213.396 6.01817 -214.347 3.3049C-214.927 1.65155 -214.622 -0.416218 -214.622 -2.14448V-12.7976V-68.0442V-81.1746C-214.622 -82.9633 -214.917 -85.1641 -213.574 -86.5783C-211.622 -88.6335 -208.69 -88.2602 -206.191 -88.8545ZM-183.378 -84.643L-196.024 -84.3953V-88.6069C-191.846 -88.9363 -184.621 -89.9836 -183.378 -84.643ZM193.542 7.76508L193.294 7.51733L193.542 -6.35626V-32.617V-68.5397L193.294 -88.3591C195.66 -89.0091 200.385 -88.112 201.475 -85.6118C202.109 -84.1571 201.723 -81.9897 201.725 -80.4314V-69.2829V-12.0544C201.725 -8.34804 201.581 -4.60856 201.744 -0.905925C201.828 0.999022 202.183 3.19552 200.884 4.78146C199.217 6.81484 195.979 7.29259 193.542 7.76508ZM166.761 -85.8817L174.448 -78.6972V-78.2017L166.761 -71.2649L166.513 -81.1746L166.761 -85.8817ZM183.375 -85.8817V-70.7694C180.492 -72.305 177.065 -76.0403 175.192 -78.6972L183.375 -85.8817ZM-171.723 3.8012H-163.044V-19.2389V-66.31V-79.4404L-163.13 -84.2458L-165.028 -84.643L-171.358 -84.4935L-171.723 -79.4404V-63.3371V3.8012ZM-145.19 -84.3953C-146.615 -76.8373 -147.403 -69.1631 -148.814 -61.6029C-149.143 -59.8412 -150.724 -58.5665 -150.964 -56.8958C-151.568 -52.6798 -150.893 -47.7983 -150.893 -43.5177C-150.893 -37.1746 -151.496 -30.5073 -150.867 -24.1937C-150.688 -22.3959 -149.216 -21.0198 -148.827 -19.2389C-147.25 -12.0277 -145.263 -3.80878 -144.942 3.55345H-93.6111C-85.214 3.55345 -76.4271 4.30451 -68.0698 3.52766C-65.2015 3.26103 -62.2725 2.1259 -59.4328 1.57613C-49.3636 -0.373399 -39.3636 -3.0558 -29.2432 -4.69181C-23.3175 -5.64973 -17.0254 -5.3607 -11.0359 -5.62277C-0.789424 -6.07107 9.43734 -6.40555 19.7128 -6.35606C34.0554 -6.28694 48.8316 -6.43833 63.1082 -5.07546C81.5016 -3.31961 99.5299 1.92285 117.91 3.75896C127.865 4.7534 138.402 3.80119 148.411 3.80119C149.418 -3.98688 151.33 -11.6524 152.089 -19.4867C152.748 -26.2924 152.131 -33.4572 152.131 -40.297C152.131 -47.7315 152.716 -55.453 151.924 -62.8416C151.362 -68.0866 150.586 -73.2744 149.552 -78.4494C149.263 -79.8938 149.265 -82.9076 148.199 -83.9919C147.345 -84.8603 144.357 -84.3953 143.204 -84.3953H128.821C107.927 -84.3953 86.9725 -78.8812 66.3322 -75.8286C61.2159 -75.072 56.1065 -75.1965 50.9578 -74.9713C39.224 -74.458 27.5131 -74.2567 15.7456 -74.2378C4.69253 -74.22 -6.43265 -74.2028 -17.4829 -74.9589C-21.5861 -75.2396 -25.8054 -74.9212 -29.8816 -75.5499C-39.7609 -77.0738 -49.6557 -80.1813 -59.3904 -82.4714C-61.9053 -83.0631 -64.517 -84.0425 -67.0777 -84.3496C-74.0589 -85.1869 -81.6159 -84.3953 -88.6514 -84.3953C-107.425 -84.3953 -126.443 -83.5062 -145.19 -84.3953ZM-183.377 -83.8998L-183.625 -81.1746H-183.873V-83.6521H-195.776V-72.7514L-196.272 -81.1746L-195.697 -83.8222L-192.056 -83.8998H-183.377ZM-163.539 3.30568H-171.227V-84.1475C-169.581 -84.1475 -165.241 -84.9251 -163.937 -83.8929C-162.98 -83.1361 -163.539 -79.8184 -163.539 -78.6972V-62.8416V3.30568ZM-211.394 -83.7381C-214.255 -82.813 -213.845 -74.1053 -209.415 -75.3708C-206.268 -76.2699 -206.604 -85.2868 -211.394 -83.7381ZM-201.714 -83.4213C-203.266 -83.0008 -202.532 -80.7753 -200.998 -81.3289C-199.559 -81.848 -200.316 -83.7999 -201.714 -83.4213ZM196.777 -83.4681C195.407 -82.9104 195.527 -81.4129 195.526 -80.1836C195.526 -77.699 195.8 -73.9131 199.483 -75.4127C200.931 -76.0021 200.734 -77.6631 200.734 -78.9449C200.734 -81.4533 200.385 -84.9372 196.777 -83.4681ZM-210.899 -83.2967C-207.443 -84.2588 -207.432 -76.4379 -209.668 -75.8326C-213.199 -74.8772 -213.171 -82.6642 -210.899 -83.2967ZM188.143 -83.2192C186.683 -82.5665 187.995 -80.807 189.289 -81.3279C190.789 -81.9314 189.511 -83.8311 188.143 -83.2192ZM197.758 -83.2774C201.179 -83.8579 201.259 -76.2357 198.745 -75.781C195.196 -75.1391 195.268 -82.8549 197.758 -83.2774ZM-68.3186 -83.1565V-82.9088L-119.153 -67.2528L-138.247 -61.3896L-148.414 -58.3823C-146.294 -63.7978 -145.971 -70.4581 -145.158 -76.2197C-144.957 -77.6439 -144.958 -81.9938 -143.801 -82.9019C-142.772 -83.7098 -139.762 -83.1565 -138.495 -83.1565H-124.113L-68.3186 -83.1565ZM118.38 -83.0491C119.7 -82.9967 120.671 -80.693 121.225 -79.6881C123.305 -75.9169 124.78 -71.9965 125.702 -67.7965C127.74 -58.5114 126.837 -48.5172 126.837 -39.0583C126.837 -31.2122 127.679 -22.7375 125.987 -15.0273C124.96 -10.3446 123.554 -5.68188 121.354 -1.40139C120.664 -0.057895 119.956 2.49202 118.156 2.52577C114.355 2.59704 110.246 1.28976 106.503 0.68912C97.1653 -0.809222 87.8385 -2.43446 78.4817 -3.81153C75.1692 -4.29907 71.8801 -4.90583 68.5628 -5.36529C67.5505 -5.50549 65.3005 -5.51411 64.5797 -6.29242C63.8293 -7.10269 63.694 -9.02262 63.4605 -10.0724C62.7522 -13.2588 61.9693 -16.4938 61.581 -19.7344C60.8347 -25.9621 61.1236 -32.2938 61.1236 -38.5628C61.1236 -45.3226 60.8767 -52.1419 61.3494 -58.8777C61.6233 -62.7819 62.543 -66.4772 63.441 -70.2739C63.7068 -71.3977 63.7085 -73.4511 64.7216 -74.1971C65.7063 -74.9221 67.6327 -74.8573 68.8107 -75.0774C72.3394 -75.7365 75.9266 -76.2359 79.4736 -76.7833C88.3221 -78.1486 97.1772 -79.5553 106.007 -81.0347C109.876 -81.6829 114.465 -83.2044 118.38 -83.0491ZM147.418 2.56249C140.763 3.79688 133.11 2.81023 126.341 2.81023C124.357 2.81023 122.07 2.43411 120.141 2.81023C119.984 0.452411 122.622 -2.87228 123.514 -5.11753C125.554 -10.2545 126.768 -15.4855 127.29 -20.9731C128.047 -28.9159 127.333 -37.2701 127.333 -45.2519C127.333 -52.0546 128.054 -59.3655 126.672 -66.0623C125.9 -69.8007 124.825 -73.5141 123.171 -76.963C122.201 -78.9845 120.45 -81.0147 119.894 -83.1565H139.731C141.379 -83.1565 145.672 -83.9268 146.99 -82.9019C148.105 -82.035 148.098 -78.7731 148.361 -77.4584C149.451 -72.0112 150.509 -66.4179 150.646 -60.8597C150.957 -48.2067 151.735 -35.1096 150.868 -22.4595C150.294 -14.0838 147.777 -5.7781 147.418 2.56249ZM-68.5664 -82.1656C-71.1906 -75.0044 -76.4004 -68.941 -78.2274 -61.3552C-79.5592 -55.8252 -78.7332 -49.4266 -78.7332 -43.7654C-78.7332 -35.2634 -80.0915 -25.4657 -77.6327 -17.2569C-75.5573 -10.3282 -71.0674 -4.7118 -68.3183 1.81926C-74.7689 0.947172 -81.7237 -2.28287 -87.9083 -4.35558C-100.573 -8.60019 -113.412 -12.3313 -126.096 -16.5139C-131.618 -18.3346 -137.15 -20.1274 -142.71 -21.8241C-144.994 -22.521 -147.287 -23.5967 -149.654 -23.946V-38.5628C-148.225 -38.5006 -145.723 -37.1232 -144.456 -37.7732C-141.092 -39.4986 -140.619 -44.5918 -144.704 -45.8225C-145.974 -46.2053 -148.18 -45.1481 -149.406 -44.7564L-149.654 -54.1706L-149.079 -57.4274L-141.966 -59.746L-125.104 -64.9287L-85.4285 -77.1415L-68.5664 -82.1656ZM-69.0623 -79.9359C-69.5006 -75.5376 -71.3148 -71.2611 -71.7479 -66.8055C-72.3868 -60.2315 -71.8799 -53.582 -72.0416 -46.9861C-72.2955 -36.6303 -73.2601 -25.8434 -72.2439 -15.5227C-71.7346 -10.3512 -69.9689 -5.44193 -68.8143 -0.410436H-69.0623C-73.0158 -6.86406 -76.9338 -14.1666 -78.1568 -21.7163C-79.3377 -29.0065 -78.2373 -37.3642 -78.2373 -44.7564C-78.2373 -49.4173 -78.8211 -54.5125 -78.1629 -59.1255C-77.5139 -63.6736 -75.259 -67.8951 -73.3542 -72.0081C-72.1525 -74.6028 -70.892 -77.7297 -69.0623 -79.9359ZM182.383 -70.5217H167.256L172.712 -76.2197L174.944 -77.7257L177.175 -75.972L182.383 -70.5217ZM97.328 -77.3533C89.5553 -76.3337 81.8869 -74.8682 74.2664 -72.9677C72.372 -72.4953 67.8884 -72.3088 66.5438 -70.8686C65.7805 -70.051 65.704 -68.1159 65.4882 -67.0533C64.8412 -63.8657 64.1008 -60.6632 64.0996 -57.3913V-23.6983C64.0996 -20.285 64.6284 -16.8963 65.2342 -13.5408C65.4197 -12.513 65.3968 -10.5445 66.2293 -9.80843C67.0203 -9.10909 68.5619 -9.03847 69.5549 -8.83294C72.0418 -8.31819 74.5183 -7.69771 76.9941 -7.12893C85.7618 -5.11474 94.5145 -3.38335 103.527 -3.38335C105.826 -3.38335 108.438 -3.03485 110.704 -3.42006C112.391 -3.70687 111.462 -7.57133 111.462 -8.8337V-26.1757V-64.5758C111.462 -67.7113 111.393 -70.8555 111.462 -73.9901C111.482 -74.8343 112.03 -76.5669 111.269 -77.2038C110.503 -77.8447 108.435 -77.4585 107.491 -77.4585C104.159 -77.4585 100.629 -77.7868 97.3243 -77.3533M62.856 -74.2378L59.8901 -58.8778L59.8804 -37.3241L59.9228 -21.9641L62.8564 -6.10853L53.4333 -6.61376L35.3313 -7.10045L-1.36876 -7.33748L-29.1418 -5.86077L-31.1034 -19.7344L-31.1257 -37.8196L-31.116 -60.3642L-29.1421 -74.2378L2.84654 -73.0027L39.2986 -73.4909L62.856 -74.2378ZM-195.78 -72.0081V-70.7694H-196.028L-195.78 -72.0081ZM-194.292 -70.2739V-10.0724H-195.78L-196.028 -70.2739H-194.292ZM-193.222 -70.1233C-191.562 -70.9047 -191.565 -68.7792 -191.565 -67.7965V-58.1345V-21.7163V-13.0453C-191.565 -12.2603 -191.266 -10.6844 -192.139 -10.2575C-193.676 -9.50621 -193.794 -11.3119 -193.796 -12.3021V-20.9731V-57.1435V-66.8055C-193.796 -67.6513 -194.171 -69.6762 -193.222 -70.1233ZM-191.069 -10.0724V-70.2739L-189.092 -69.8767L-188.837 -66.8055V-59.1255V-22.7073V-13.7885L-189.092 -10.4696L-191.069 -10.0724ZM-183.878 -70.2739V-62.5939C-187.276 -61.2499 -186.605 -56.8729 -186.605 -53.9229V-28.1576C-186.605 -25.0514 -187.749 -19.7367 -183.63 -18.9911L-183.382 -10.3201C-184.315 -10.0446 -187.391 -9.5637 -188.09 -10.4723C-188.66 -11.2134 -188.341 -12.9059 -188.341 -13.7885V-22.2118V-58.63V-67.0533C-188.341 -67.8339 -188.643 -69.466 -187.943 -70.0193C-187.098 -70.6882 -184.911 -70.2739 -183.878 -70.2739ZM171.716 -69.5307C172.713 -66.163 171.965 -61.6473 171.965 -58.1345C168.896 -58.0982 169.981 -53.9858 169.981 -51.6932V-30.3873C169.981 -28.0025 168.781 -22.9927 171.965 -22.955V-10.8156L166.907 -11.0703L166.509 -14.7795V-25.1847V-69.2829L171.716 -69.5307ZM179.9 -69.5307V-55.4093V-26.9189L180.148 -11.0634L172.46 -10.8156V-22.955C175.147 -23.1598 174.196 -27.4124 174.196 -29.3963V-50.7022C174.196 -52.7808 175.254 -57.9216 172.46 -58.1345V-66.31L172.858 -69.2761L179.9 -69.5307ZM183.123 -69.5307L183.371 -63.0894V-50.95V-10.8156H180.644V-55.6571V-65.5668L180.898 -69.1333L183.123 -69.5307ZM-8.80817 -61.4978C-11.953 -61.0802 -14.8514 -60.1093 -16.4866 -57.1435C-17.8367 -54.6948 -17.4873 -51.9097 -17.4873 -49.2158V-34.3512C-17.4873 -30.5697 -18.4175 -25.4709 -16.0892 -22.2118C-12.9679 -17.8426 -7.31424 -18.4957 -2.60887 -18.4957C-0.661878 -18.4957 1.41277 -18.2945 3.3425 -18.57C14.1171 -20.108 11.5256 -32.3156 11.5256 -40.297C11.5256 -45.0227 12.8933 -52.3164 10.841 -56.6481C7.80596 -63.0542 -2.89742 -62.2827 -8.80817 -61.4978ZM-8.80817 -61.0367C-3.17044 -61.7104 7.1498 -62.596 10.1572 -56.6481C12.3926 -52.227 11.0297 -44.9048 11.0297 -40.0493C11.0297 -33.5644 13.5551 -20.511 4.33438 -19.2836C-1.29368 -18.5345 -12.1614 -17.2223 -15.6937 -22.7494C-17.7424 -25.955 -16.9913 -30.4827 -16.9913 -34.1035V-47.4816C-16.9913 -54.0507 -16.7617 -60.0863 -8.80817 -61.0367ZM173.7 -57.3913V-23.6983L170.725 -23.4505L170.477 -34.3512V-57.3913H173.7ZM-202.291 -55.1545C-203.426 -54.2289 -201.698 -52.5791 -200.604 -53.5771C-199.485 -54.5984 -201.325 -55.9417 -202.291 -55.1545ZM188.14 -55.2216C186.702 -54.6003 187.975 -52.6022 189.286 -53.2473C190.76 -53.9727 189.507 -55.8124 188.14 -55.2216ZM42.7703 -46.7383C44.0385 -44.138 47.801 -41.878 49.9616 -39.9786C50.9941 -39.0708 51.7955 -38.0997 53.1852 -37.8196L46.8431 -43.5186L42.7703 -46.7383ZM-149.161 -39.8015V-43.7654C-147.893 -44.056 -145.926 -45.0849 -144.701 -44.3494C-142.507 -43.0323 -142.397 -39.7532 -145.197 -39.0031C-146.365 -38.6902 -148.019 -39.54 -149.161 -39.8015ZM-201.483 -27.4226C-202.907 -27.3348 -202.964 -25.2581 -201.483 -25.2581C-199.9 -25.2581 -199.847 -27.5235 -201.483 -27.4226ZM188.139 -27.2267C186.671 -26.5948 187.925 -24.5886 189.286 -25.2744C190.754 -26.0137 189.496 -27.8106 188.139 -27.2267ZM-148.665 -23.4505L-138.994 -20.2228L-120.644 -14.3473L-69.3138 2.06699V2.31474H-122.628H-137.259C-138.876 2.31474 -141.898 2.90137 -143.35 2.16525C-144.507 1.5792 -144.551 -2.43006 -144.76 -3.63109C-145.649 -8.74738 -146.714 -13.8512 -147.458 -18.9911C-147.66 -20.3856 -149.02 -22.1527 -148.665 -23.4505ZM182.875 -9.82467C181.752 -7.41912 179.025 -5.72345 177.172 -3.87884C176.609 -3.31839 175.819 -2.2143 174.941 -2.19223C174.031 -2.16934 173.18 -3.35806 172.597 -3.93103C170.898 -5.60051 167.743 -7.53032 167.005 -9.82467H182.875ZM-183.63 -9.57692L-183.382 2.56248C-186.752 3.55792 -191.272 2.81022 -194.788 2.81022V2.56248H-183.878C-183.878 -0.853378 -184.946 -6.44248 -183.63 -9.57692ZM167.005 -8.83369C169.293 -6.54789 173.069 -4.0997 174.444 -1.15366L166.757 5.78313L166.509 -4.86981L167.005 -8.83369ZM183.371 -8.83369V6.03088C181.087 4.96684 176.127 0.560971 175.436 -1.89689L183.371 -8.83369ZM-211.154 -5.20262C-214.234 -4.26276 -213.959 4.62526 -209.42 3.24645C-206.308 2.30109 -206.734 -6.55129 -211.154 -5.20262ZM197.011 -4.93364C194.071 -3.79505 194.667 4.94571 199.237 3.34183C202.14 2.32311 201.654 -6.73208 197.011 -4.93364ZM-209.672 -4.63716C-207.529 -4.21143 -207.3 3.43192 -210.896 2.75346C-213.188 2.32096 -213.218 -5.34179 -209.672 -4.63716ZM197.272 -4.49456C201.176 -5.75478 201.288 2.12987 198.979 2.85515C195.237 4.03073 195.312 -3.86159 197.272 -4.49456ZM-147.921 34.2736V34.5213L-136.019 35.5123C-137.23 37.6385 -137.971 42.8843 -140.054 44.1764C-141.124 44.8396 -142.795 44.2437 -143.954 44.1931C-146.882 44.0649 -151.99 43.3013 -154.593 44.7786C-157.31 46.3197 -156.552 50.7509 -156.923 53.3498C-157.108 54.6488 -157.518 55.826 -156.631 56.9906C-155.435 58.5597 -152.732 58.902 -150.897 59.0479L-147.511 65.7369L-145.857 67.8171L-140.482 67.9666H-127.588C-125.657 52.7856 -114.045 41.0625 -98.0787 43.5488C-90.2029 44.7752 -83.6947 49.1886 -80.0036 56.3227C-78.5577 59.1171 -77.7182 61.9422 -77.0306 64.9937C-76.8373 65.8515 -76.9741 67.5749 -75.9524 67.8879C-72.4235 68.9687 -67.0644 67.9666 -63.3624 67.9666H-35.0934L58.1447 67.9666C59.6145 60.8522 62.5687 54.1209 68.0636 49.1804C76.246 41.8235 89.9947 41.0297 98.3872 48.5232C102.334 52.0475 105.022 56.3888 106.945 61.2776C107.472 62.6182 108.035 67.2025 109.305 67.8171C111.398 68.83 115.407 67.8271 117.658 67.7286C124.228 67.4412 130.98 68.5546 137.496 67.9246C139.898 67.6924 141.724 66.8298 142.699 64.4982C143.243 63.1967 143.356 61.4333 144.352 60.3653C145.857 58.7524 148.18 59.4879 149.509 57.0659C150.99 54.3655 150.759 48.5722 148.146 46.5711C145.703 44.7006 141.471 44.2448 138.488 44.1833L139.976 33.0349L147.663 34.0258C151.709 26.8093 138.546 24.4815 134.025 23.4595C128.979 22.3189 123.541 22.0144 118.65 20.2914C102.702 14.6728 87.9591 5.01939 71.2872 1.57077C50.8659 -2.65345 30.5007 -2.67199 9.78985 -2.6401C-1.78824 -2.62226 -14.7224 -3.52066 -25.9184 -0.0546759C-29.0978 0.929597 -32.0974 2.85534 -35.0934 4.29058C-41.3964 7.31001 -47.7567 10.2781 -53.9394 13.537C-60.1903 16.8318 -66.0741 20.2371 -73.0334 21.7813C-97.5448 27.22 -125.113 21.7932 -147.921 34.2736ZM6.31818 44.6788L-2.36091 44.431H-18.4791H-70.3056C-70.3056 38.7219 -69.7896 33.0864 -68.1791 27.5845C-67.57 25.5037 -66.9969 22.9333 -65.6026 21.2112C-64.6733 20.0636 -62.6686 19.5147 -61.3786 18.8495C-58.3118 17.268 -55.291 15.5986 -52.2036 14.0573C-46.9214 11.4203 -41.6125 8.84926 -36.3332 6.21211C-32.8191 4.45666 -29.1756 2.22831 -25.4225 1.04833C-21.8004 -0.0904104 -18.0056 -0.34445 -14.2636 -0.700226C-8.46842 -1.25121 -2.72431 -1.26295 3.09456 -1.40502C4.56395 -1.44092 8.15619 -2.39575 9.39221 -1.39373C10.0571 -0.854811 9.57106 0.59581 9.5445 1.32379C9.44831 3.96598 9.17157 6.61107 9.05567 9.25157C8.70178 17.3135 7.62131 25.2562 6.85619 33.2826C6.51227 36.8912 7.34308 41.2147 6.31818 44.6788ZM8.05398 44.6788C7.34882 41.7193 8.07406 38.2681 8.27976 35.2646C8.82676 27.285 10.2345 19.236 10.2859 11.2335C10.306 8.15245 10.4909 4.88095 10.8525 1.81928C10.9463 1.02516 10.7714 -0.583817 11.2845 -1.21748C11.8626 -1.93131 13.4491 -1.64912 14.2534 -1.64912H22.1885C27.9228 -1.64912 33.5868 -1.41329 39.2986 -1.16338C42.2287 -1.03519 46.1987 -1.44151 48.9696 -0.455527C51.354 0.392884 53.5248 2.5443 55.4169 4.15488C62.6235 10.289 69.4041 17.4485 74.9691 25.1071C76.8925 27.7541 79.9765 32.2708 77.6081 35.5087C75.4935 38.3996 70.6291 39.7232 67.5676 41.4012C66.0208 42.249 64.5281 44.02 62.8525 44.5096C61.6055 44.874 59.9411 44.4311 58.6406 44.4311H48.4737H21.4446C17.2073 44.4311 12.1798 43.6974 8.05398 44.6788ZM183.371 8.01285L177.668 10.5895L174.196 9.57825L166.757 6.77413C168.234 4.67994 170.407 3.12622 172.212 1.32379C172.846 0.690935 173.733 -0.564554 174.692 -0.677658C175.637 -0.789068 176.538 0.434674 177.149 1.00168C179.093 2.8055 182.952 5.29963 183.371 8.01285ZM-62.3705 23.3729H5.57426L7.55809 -0.162663C-2.11058 -0.162663 -12.5068 -0.576419 -21.9508 1.79329C-30.5022 3.93902 -39.0412 8.97466 -46.7481 13.139C-50.5198 15.1769 -54.3143 17.1831 -57.9069 19.5317C-59.4991 20.5725 -61.4377 21.6654 -62.3705 23.3729ZM146.919 32.7871C145.18 32.5675 140.554 31.1093 139.063 32.0544C138.183 32.6121 138.312 34.5931 138.202 35.5123C137.834 38.5711 137.387 41.6229 137 44.6788H115.179C111.821 44.6788 107.756 45.3066 104.474 44.5838C101.934 44.0245 99.3483 41.3514 96.8286 40.3316C90.2544 37.671 82.3508 37.2099 75.5028 38.9807C76.6468 36.9651 79.1708 36.4335 79.6368 33.7781C80.3701 29.6003 76.6533 25.3895 74.2636 22.3819C70.2868 17.3765 66.0716 12.3877 61.3586 8.05127C58.7036 5.60845 53.9931 2.89735 52.1933 -0.162663C69.0628 0.185272 84.3632 6.91637 99.5562 13.4313C107.604 16.8822 115.438 21.1062 124.106 22.726C130.082 23.8428 136.232 24.7361 141.96 26.8547C144.818 27.9118 147.311 29.4733 146.919 32.7871ZM12.0216 23.3729H68.8075C68.16 20.1224 64.6365 16.7355 62.6082 14.2064C58.763 9.412 54.117 3.59544 48.2257 1.26454C42.274 -1.09028 34.1762 0.0850878 27.8919 0.0850878C24.4999 0.0850878 21.1084 0.326368 17.7286 0.205504C16.6236 0.166039 14.3331 -0.389895 13.4111 0.339711C12.5296 1.03713 12.7974 5.14388 12.7691 6.27866C12.6271 11.9823 12.0216 17.6586 12.0216 23.3729ZM-202.149 0.835393C-203.405 1.67375 -201.961 3.24353 -200.778 2.55448C-199.344 1.72015 -200.92 0.0152254 -202.149 0.835393ZM188.12 0.83985C186.625 1.66425 188.183 3.51116 189.492 2.69334C190.795 1.87918 189.333 0.170714 188.12 0.83985ZM56.9048 1.81935C58.0335 3.74855 60.4783 5.25939 62.1122 6.78031C66.1893 10.5755 70.3209 14.3214 74.5109 17.9932C76.398 19.6468 78.7599 22.4958 81.2062 23.2468C84.5053 24.2597 88.7021 23.6207 92.117 23.6207H113.939C112.783 22.277 110.794 21.6172 109.227 20.8288C106.566 19.4901 103.913 18.0806 101.292 16.664C91.9002 11.5888 82.2954 7.66402 72.0312 4.75747C67.1346 3.37089 62.0173 1.81935 56.9048 1.81935ZM-195.78 7.51744C-195.78 6.56845 -196.208 4.21355 -195.383 3.56043C-194.775 3.07993 -193.526 3.30581 -192.805 3.30581H-186.357C-185.649 3.30581 -184.372 3.07447 -183.783 3.56043C-182.98 4.22279 -183.907 5.6963 -184.429 6.22577C-185.979 7.79786 -188.56 7.51744 -190.573 7.51744H-195.78ZM-67.33 21.6388C-69.5559 27.0594 -70.7841 32.4278 -71.4747 38.2376C-71.7256 40.3475 -71.3945 42.6363 -71.7935 44.6789C-74.8626 43.9488 -78.5494 45.3686 -81.4645 44.4663C-83.6369 43.7939 -85.5504 41.6927 -87.6638 40.7222C-93.1037 38.2243 -99.0636 37.3566 -105.022 37.7642C-109.227 38.052 -113.692 39.0079 -117.421 41.0401C-119.328 42.0799 -121.109 44.0266 -123.124 44.7463C-124.569 45.2624 -126.565 44.9266 -128.084 44.9266H-138.25L-134.531 34.0259L-143.458 33.7782L-138.746 31.5839L-124.612 28.2659L-89.1516 25.0653L-75.5131 23.4686L-67.33 21.6388ZM-8.88191 33.0418C-9.86567 33.7845 -9.65893 35.8741 -8.52713 36.3539C-6.6163 37.1639 -3.1895 36.5034 -1.12103 36.5034C-0.388487 36.5034 0.808044 36.72 1.43234 36.2487C2.41618 35.5061 2.20944 33.4165 1.07764 32.9367C-0.833199 32.1267 -4.26 32.7872 -6.32847 32.7872C-7.06101 32.7872 -8.25753 32.5705 -8.88191 33.0418ZM59.9871 33.0418C59.007 33.7063 59.0715 35.8551 60.1849 36.3539C62.0941 37.2092 65.729 36.5035 67.8157 36.5034C68.5268 36.5033 69.5669 36.6757 70.1878 36.2487C71.1056 35.6176 71.0368 33.4079 69.9907 32.9367C68.0871 32.0792 64.4426 32.7871 62.3602 32.7872C61.6451 32.7873 60.6132 32.6173 59.9871 33.0418ZM-89.1516 33.0351C-89.303 33.8502 -89.6099 34.9266 -89.107 35.6816C-88.5108 36.577 -85.1446 36.5992 -84.3415 35.9637C-82.117 34.2036 -85.3901 33.0352 -86.6716 33.0351H-89.1516ZM-73.281 58.0572C-74.4255 58.0572 -76.6159 58.4799 -77.5866 57.8025C-78.7991 56.9564 -79.5735 54.3586 -80.3969 53.1023C-82.0725 50.5455 -84.3485 48.1461 -86.9196 46.4733C-96.027 40.5478 -109.738 40.3941 -118.412 47.284C-122.154 50.2556 -124.453 54.1383 -126.595 58.3049L-130.563 58.0572C-128.389 50.4038 -123.25 44.0905 -115.932 40.7924C-100.675 33.9157 -77.4294 40.1512 -73.281 58.0572ZM112.699 58.0572C111.21 58.0572 108.698 58.5454 107.341 57.9077C106.376 57.4546 105.809 55.7114 105.294 54.8365C104.189 52.959 102.81 51.1921 101.289 49.6339C97.1018 45.3456 91.5655 42.2314 85.422 42.2018C78.3534 42.1678 72.2569 43.8342 66.8464 48.5783C64.9623 50.2304 63.3445 52.2249 62.0109 54.341C61.3793 55.3432 60.8054 57.1544 59.7841 57.8025C58.786 58.436 56.8105 58.0572 55.6652 58.0572C56.2725 55.5025 57.8618 53.0408 59.3024 50.8726C71.7986 32.0642 106.471 34.8359 112.699 58.0572ZM-102.294 45.074C-107.783 45.2722 -113.433 47.2073 -117.378 51.1624C-124.851 58.6553 -123.552 70.9197 -114.941 76.9424C-110.318 80.1757 -105.097 81.0821 -99.5662 80.8398C-96.9272 80.7242 -94.2627 79.8898 -91.8791 78.7909C-89.6958 77.7844 -87.61 76.3264 -85.991 74.5472C-84.4963 72.9045 -83.2464 71.025 -82.4121 68.9578C-77.2356 56.1321 -89.9101 44.6269 -102.294 45.074ZM-70.0574 58.0572H-72.7851C-74.0164 52.7424 -77.724 49.4241 -80.7202 45.1745L-74.2729 45.1708L-71.9428 45.1911L-71.4023 48.3951L-70.0574 58.0572ZM6.31848 44.9267L8.05428 58.0571L-68.8175 58.0571L-70.3054 45.1745H-19.2228H-2.85651L6.31848 44.9267ZM62.3605 45.4222C59.7248 47.719 57.8298 50.8022 56.1811 53.8455C55.6264 54.8693 54.9067 57.397 53.8318 57.9076C51.5009 59.0148 46.5971 58.0571 44.0105 58.0571H19.957H12.5178C11.7429 58.0571 10.3421 58.3158 9.6918 57.8025C9.05693 57.3014 9.08311 55.5902 8.95069 54.8365C8.43709 51.9122 7.55972 47.8469 8.05428 44.9267L21.4448 45.1745H47.978L57.897 45.1737L62.3605 45.4222ZM80.7105 45.2808C77.5288 45.736 74.5399 46.6791 71.7835 48.3519C62.4518 54.0152 60.1358 66.58 67.8381 74.6525C72.579 79.6212 80.1903 81.7323 86.9099 80.7753C89.8241 80.3602 92.8292 79.4065 95.341 77.8607C97.4636 76.5544 99.3138 74.912 100.821 72.9219C101.996 71.3716 102.948 69.5821 103.514 67.7193C107.67 54.0641 93.322 43.4765 80.7105 45.2808ZM113.195 58.0573C111.923 52.7069 108.017 49.4369 105.012 45.1747C115.344 45.1747 125.677 45.1251 136.009 45.1749C139.161 45.19 145.562 45.304 147.731 47.9937C149.37 50.0269 149.952 57.1426 146.67 57.9786C143.512 58.7832 139.271 58.0573 136.009 58.0573H113.195ZM-123.868 45.4224C-126.251 49.2295 -130.844 53.1317 -130.811 58.0573H-145.441C-148.2 58.0573 -151.512 58.3334 -154.119 57.2621C-154.812 56.9776 -155.523 56.5595 -155.749 55.8018C-156.061 54.7489 -155.582 53.6424 -155.435 52.607C-155.131 50.4767 -156.004 47.2858 -153.859 45.8541C-151.979 44.5995 -147.645 45.4224 -145.441 45.4224H-123.868ZM-126.843 58.5528L-128.827 66.7283H-140.73C-141.975 66.7283 -144.261 67.1643 -145.345 66.4737C-147.241 65.2656 -148.809 60.7745 -149.905 58.8006L-142.218 58.5528H-126.843ZM-66.5858 66.7283H-75.5128L-77.2486 58.5528C-75.5432 58.5528 -71.5973 57.8158 -70.1839 58.8074C-69.4963 59.2898 -69.315 60.531 -69.0655 61.278C-68.4162 63.2224 -67.3597 64.8654 -66.5858 66.7283ZM9.54212 66.7283L-49.7235 66.7283H-60.1384C-61.4543 66.7283 -63.3983 67.082 -64.601 66.4737C-66.9778 65.2717 -68.2142 61.0135 -68.3215 58.5528H-9.55179H3.09486L7.90832 58.8074L8.58275 61.0302L9.54212 66.7283ZM53.6815 58.5528C53.4282 60.242 52.1886 65.4646 50.7921 66.4737C50.0578 67.0042 48.5866 66.7283 47.7301 66.7283H40.2909H11.03L9.54212 58.8006C13.6711 57.5812 19.3654 58.5528 23.6766 58.5528H53.6815ZM59.6328 58.8006L56.7655 66.4737L52.4416 66.7283C53.0644 62.5736 54.5876 57.3107 59.6328 58.8006ZM143.944 58.5528C142.799 60.5895 141.92 64.7254 139.966 66.0524C137.839 67.4959 133.739 66.7283 131.297 66.7283H109.971L107.492 58.8006C110.931 57.785 115.56 58.5528 119.146 58.5528H143.944Z" fill="#304A6E"/>
</svg>
