<svg width="81" height="72" viewBox="0 0 81 72" fill="none" xmlns="http://www.w3.org/2000/svg">
<rect width="81" height="72" fill="#1A1E26"/>
<rect x="-530" y="-449" width="980" height="753" rx="4" fill="white"/>
<path d="M80.8114 -176.027C79.8295 -180.937 78.4369 -185.408 74.8876 -189.127C68.1717 -196.166 56.7525 -196.021 50.2903 -188.673C45.6191 -183.361 43.9999 -175.925 45.3751 -169.084C46 -165.975 47.2332 -162.92 49.1818 -160.404C50.6142 -158.556 52.1432 -156.963 54.1825 -155.776C65.8526 -148.982 78.4265 -157.628 80.4792 -170.075C80.8047 -172.049 81.2142 -174.013 80.8114 -176.027ZM80.7629 9.20941C79.3205 3.45548 77.7675 -1.78542 72.7633 -5.54155C64.6093 -11.6619 53.6019 -8.80016 48.2591 -0.461556C44.9188 4.75147 44.1236 11.4651 45.6044 17.3925C47.6007 25.3828 54.4146 32.4542 63.1013 32.239C72.3856 32.0089 78.8131 24.2527 80.4234 15.6567C80.8162 13.56 81.297 11.3399 80.7629 9.20941ZM44.2728 -211.487L35.1063 -208.015L34.633 -215.951L34.1154 -219.918C22.2961 -195.691 27.3105 -168.551 21.2614 -143.046C20.0505 -137.941 17.4075 -133.508 14.9849 -128.912C11.3749 -122.064 8.03899 -115.049 4.66839 -108.082C3.11241 -104.866 1.0168 -101.576 -0.0507716 -98.1632C-3.6417 -86.6831 -2.79831 -73.3516 -2.79831 -61.4631C-2.79831 -46.5343 -2.58888 -31.9201 -1.10598 -17.0758C-0.265261 -8.65999 0.923718 0.275912 3.93835 8.21749C8.88998 21.2618 15.8998 33.6587 20.2691 46.9014C22.0331 52.2479 22.3855 58.0497 23.6815 63.5156C24.9689 68.9449 26.5772 77.8449 33.8676 75.9143L32.8767 67.9791C35.4651 67.3407 38.171 67.2252 40.8044 66.8436C41.6347 66.7232 43.1597 66.2061 43.8412 66.8897C44.8482 67.9 44.596 71.2711 45.017 72.6905C46.4502 77.5215 51.3374 79.6896 56.1645 77.8658C57.3233 77.4279 58.651 76.5554 59.186 75.395C59.7261 74.2235 59.4209 72.8193 60.6508 72.0491C62.5844 70.8383 65.074 71.0304 66.6219 69.1469C68.2672 67.1447 67.8084 64.1878 67.8084 61.7796V44.6694C67.8084 42.696 68.5095 39.0925 67.6589 37.3054C67.0526 36.0316 62.4644 35.4629 61.1193 34.9509C56.5549 33.2132 52.0607 30.469 48.7745 26.8153C40.9235 18.0869 41.6345 4.03114 49.4976 -4.42932C54.3031 -9.59979 61.0059 -12.4477 67.8084 -13.8523V-107.09L67.8084 -135.359C67.8084 -139.061 68.8104 -144.42 67.7296 -147.949C67.4152 -148.976 65.6987 -148.867 64.8355 -149.019C61.9812 -149.521 59.2412 -150.494 56.66 -151.787C49.8929 -155.176 44.9864 -161.303 43.6445 -168.836C40.7245 -185.227 51.9322 -197.532 67.8084 -199.584V-212.727C67.8084 -214.17 68.321 -216.854 67.5538 -218.117C66.1762 -220.386 61.7281 -221.211 59.666 -222.854C58.0345 -224.154 58.6466 -226.896 57.1132 -228.456C55.9522 -229.638 54.6035 -229.042 53.1916 -228.888C50.5071 -228.597 46.4068 -229.236 44.7035 -226.61C43.8385 -225.276 44.0251 -223.415 44.0251 -221.902C44.0251 -218.422 44.2728 -214.973 44.2728 -211.487ZM66.5697 -200.824L58.3942 -198.841L58.6419 -221.654C60.5682 -221.044 65.4983 -218.947 66.4873 -217.138C67.1452 -215.934 66.8174 -213.584 66.8174 -212.231C66.8174 -208.418 66.5697 -204.625 66.5697 -200.824ZM66.8174 -138.583L61.1193 -141.098L58.6674 -142.181L58.3942 -149.246L66.5697 -147.51L66.8174 -138.583ZM66.8174 -62.4551L58.3942 -63.943C59.6849 -83.2161 58.6419 -102.892 58.6419 -122.217C58.6419 -126.798 59.0012 -131.554 58.4649 -136.103C58.3594 -136.999 57.9134 -139.991 59.194 -140.194C60.0616 -140.332 61.2975 -139.721 62.1103 -139.447C63.5296 -138.968 65.5587 -138.227 66.3151 -136.825C66.894 -135.751 66.802 -133.6 66.8165 -132.384C66.8547 -129.161 66.8172 -125.936 66.8172 -122.713V-82.293C66.8172 -75.7602 66.2426 -68.9543 66.8174 -62.4551ZM58.394 -18.3158L58.6417 -38.6497L58.394 -62.2071L58.6417 -62.4551L66.5695 -60.9673C66.5702 -51.4843 66.8172 -41.9544 66.8172 -32.4503C66.8172 -29.5723 67.8991 -23.9103 66.4594 -21.3604C65.614 -19.8631 60.0479 -18.4852 58.394 -18.3158ZM66.5695 -14.8442L58.394 -12.6124V-16.58L66.5695 -19.5557V-14.8442ZM58.6417 71.9465V64.0114V46.9012V35.4944L66.5695 37.9742V59.2999C66.5695 61.758 67.3276 65.7826 66.005 67.9556C64.6144 70.2402 60.6575 70.2042 58.6417 71.9465ZM57.8985 -202.808C52.5746 -202.343 49.6465 -197.991 45.2636 -195.865C45.2636 -203.15 45.2753 -210.434 45.2636 -217.687C45.2599 -219.89 44.4525 -224.182 45.7812 -226.049C47.1067 -227.911 50.5326 -227.195 52.4481 -227.401C53.4291 -227.506 54.4188 -227.955 55.4172 -227.793C56.2426 -227.659 56.7303 -227.094 57.0652 -226.362C58.5517 -223.112 57.936 -219.129 57.8994 -215.703C57.8551 -211.548 58.57 -206.883 57.8985 -202.808ZM57.8987 -145.278C39.9267 -149.541 33.4423 -173.436 41.005 -188.674C44.5201 -195.756 50.5224 -200.158 57.8987 -202.56C59.16 -197.415 53.741 -196.582 50.4664 -193.775C46.5205 -190.392 43.7723 -185.845 42.7034 -180.739C41.0454 -172.817 42.371 -163.861 47.4944 -157.429C49.3083 -155.152 51.4729 -153.326 53.9348 -151.782C55.0204 -151.102 57.1558 -150.501 57.8417 -149.391C58.4246 -148.448 58.1834 -146.286 57.8987 -145.278ZM58.1464 -142.055L44.7683 -143.79C45.3805 -146.365 45.3805 -150.143 44.7683 -152.717L49.9709 -148.608L58.1464 -144.534V-142.055ZM45.016 -65.4308L45.016 -142.303L54.4303 -141.311L57.8597 -140.244L57.9208 -135.359L57.8987 -124.201L57.8987 -81.549V-68.9024L57.8786 -64.3494L54.678 -64.368L45.016 -65.4308ZM45.016 -9.88441L45.016 -63.9427L54.678 -63.0118L57.8409 -62.3052L57.9021 -59.4792L57.8984 -52.2879V-27.4906L57.9196 -21.2912L57.8702 -18.1712L53.6867 -15.7743L45.016 -9.88441ZM57.8983 40.7022C34.5145 34.3137 31.8403 -1.12675 51.457 -13.1549C53.4358 -14.3682 55.6262 -15.7868 57.8983 -16.3318C57.9904 -15.1637 58.5304 -13.5011 57.8917 -12.417C57.2599 -11.3452 55.4431 -10.7791 54.4301 -10.1129C52.2906 -8.70569 50.2441 -7.07642 48.5264 -5.17295C43.9222 -0.0710656 41.8797 6.35471 42.0466 13.1771C42.2013 19.4989 45.2704 25.2186 49.7266 29.5346C51.2705 31.0298 53.0817 32.3006 54.9256 33.3986C55.8023 33.9207 57.1036 34.2955 57.7393 35.1301C58.4153 36.0174 58.2097 39.6081 57.8983 40.7022ZM45.0159 33.015L50.9617 37.8658L58.1463 41.4461C56.7138 49.1689 57.8859 58.1373 57.8985 65.9955C57.9022 68.3728 59.1107 73.1254 57.749 75.1598C56.0199 77.7432 49.9328 77.5087 47.7739 75.5913C46.6277 74.5732 46.1666 72.6517 45.8706 71.2029C44.7876 65.902 45.0159 60.4624 45.0159 55.0846V33.015ZM44.5204 -143.79L31.1423 -142.426L21.4803 -139.575C26.1684 -157.128 25.1567 -175.493 27.6416 -193.385C28.3745 -198.662 29.4288 -203.907 30.964 -209.007C31.5875 -211.079 32.0946 -213.689 33.372 -215.454C34.0875 -213.032 34.351 -209.008 33.8675 -206.527C37.1644 -206.328 41.6929 -209.301 44.7682 -210.495L44.7682 -200.08C44.7682 -198.574 45.1158 -196.556 44.6223 -195.121C43.9652 -193.209 42.065 -191.506 41.1161 -189.665C38.8393 -185.248 37.6436 -180.254 37.5846 -175.283C37.5233 -170.13 38.2534 -164.888 40.386 -160.156C41.4266 -157.848 43.5735 -155.802 44.3746 -153.461C45.2934 -150.777 44.5204 -146.627 44.5204 -143.79ZM44.5204 -65.4305L-1.55975 -62.2068C-1.55975 -73.3744 -2.26232 -85.551 0.673563 -96.4272C1.54138 -99.6421 3.34243 -102.634 4.81485 -105.602C7.22829 -110.468 9.57621 -115.371 12.0049 -120.233C14.1609 -124.549 16.2206 -128.934 18.6118 -133.127C19.4098 -134.527 19.9643 -136.786 21.2978 -137.751C27.3089 -142.101 37.4442 -142.302 44.5204 -142.302L44.5204 -65.4305ZM44.3709 -63.5872C44.9739 -62.3981 44.5204 -60.0515 44.5204 -58.7352V-46.8325L44.5204 -21.0432C44.5204 -17.474 45.4027 -12.561 44.3933 -9.14049C43.836 -7.25204 41.9444 -5.67002 41.0006 -3.93304C39.3247 -0.848673 37.9949 4.43739 34.6107 6.05438C31.005 7.77722 26.3866 4.01462 23.71 1.98618C18.2983 -2.11506 13.3883 -6.82489 8.59771 -11.6202C5.50141 -14.7196 1.88367 -18.3497 -0.142864 -22.2831C-1.36289 -24.6511 -0.861412 -27.8906 -1.10631 -30.4663C-1.77374 -37.4859 -1.80749 -44.4861 -1.80749 -51.544V-58.2393C-1.80722 -58.9516 -2.00883 -60.1995 -1.37584 -60.7121C-0.451119 -61.461 2.46526 -61.1712 3.64285 -61.2247C7.91566 -61.4189 12.2666 -61.5953 16.5255 -62.001C23.6059 -62.6754 30.7049 -63.9307 37.8314 -63.9427C39.1488 -63.9427 43.6507 -65.0075 44.3709 -63.5872ZM31.6378 66.7394L32.6288 74.9226C28.7659 74.9222 27.3937 72.1527 26.3329 68.7232C24.5455 62.9447 23.6735 57.0248 22.4704 51.1171C20.7209 42.5267 16.3898 34.5647 12.9145 26.5677C6.38169 11.5354 0.392362 -3.41811 -0.321033 -20.0514C2.81198 -17.631 5.40171 -13.409 8.12994 -10.4609C12.4581 -5.78399 17.4365 -1.53719 22.4103 2.43156C25.4012 4.81805 30.718 9.24468 34.8584 7.28311C36.5438 6.48474 37.433 4.86441 38.5746 3.50616C38.7693 4.81785 38.1927 6.14543 38.1013 7.4737C37.854 11.0671 37.739 14.8202 38.4037 18.3846C39.0424 21.8094 40.2476 24.9814 41.8585 28.0555C42.5891 29.4498 43.9498 30.7679 44.3933 32.2711C44.8929 33.9643 44.5204 36.2173 44.5204 37.9745V49.6292V60.7881C44.5204 61.8111 44.9322 64.0116 44.2658 64.8539C43.7163 65.5485 41.6324 65.427 40.8043 65.4995C37.806 65.7623 34.5615 66.0346 31.6378 66.7394ZM38.6912 35.2468C38.0579 32.5054 34.6804 30.9922 32.3917 32.8648C30.7212 34.2316 30.3544 36.4692 30.9091 38.4704C31.6728 41.2259 35.0794 42.4357 37.29 40.5638C38.775 39.3064 39.1122 37.0693 38.6912 35.2468ZM36.4087 -80.2821C36.0805 -81.8131 33.3635 -81.9045 32.7783 -80.5238C32.0469 -78.7986 32.0469 -72.6442 32.7783 -70.919C33.329 -69.6198 35.8048 -69.6065 36.3271 -70.9413C36.6396 -71.74 36.3554 -72.7779 36.3458 -73.6134C36.3222 -75.6674 36.8343 -78.2974 36.4087 -80.2821ZM36.4447 -11.5868C36.0153 -12.9937 33.4389 -13.1081 32.8127 -11.799C31.9424 -9.97963 32.6288 -6.43241 32.6288 -4.42873C32.6288 -3.69932 32.4625 -2.69777 32.7783 -2.01805C33.3678 -0.748847 35.8572 -0.994337 36.3332 -2.22396C36.6602 -3.06854 36.3696 -4.05052 36.3485 -4.92463C36.3007 -6.91216 37.0167 -9.71265 36.4447 -11.5868ZM36.0972 -161.148C35.2822 -161.299 34.2057 -161.606 33.4508 -161.103C32.534 -160.493 32.5257 -157.087 33.2738 -156.338C35.2432 -154.367 36.0971 -157.274 36.0972 -158.668V-161.148ZM1.66092 -15.0913C1.70507 -9.75259 3.37521 -4.29647 4.91025 0.779008C7.81356 10.3786 11.391 19.1225 15.9662 28.0561C18.262 32.5392 20.234 38.3274 23.4623 42.1906C24.0755 38.6215 23.71 34.6584 23.71 31.0318C23.71 26.2765 24.0426 21.3756 23.534 16.6494C23.2603 14.106 24.0137 11.134 22.9456 8.7142C22.0389 6.66001 20.0104 4.92198 18.5459 3.2588C15.606 -0.0798451 12.6628 -3.43605 9.59825 -6.6602C7.14805 -9.23796 4.74915 -13.321 1.66092 -15.0913ZM23.2146 -134.367C21.7613 -133.63 20.8267 -131.973 19.9308 -130.647C17.8842 -127.618 16.0619 -124.434 14.3159 -121.224C9.55519 -112.473 3.95088 -102.937 1.53094 -93.2029C0.544024 -89.2331 0.449383 -85.1063 0.152478 -81.0523C-0.14737 -76.9578 -0.321016 -72.7595 -0.321016 -68.6536C-0.321016 -67.7191 -0.74664 -65.3391 0.076211 -64.6931C1.13348 -63.863 5.06432 -64.7556 6.36804 -64.9339C11.9479 -65.6988 17.6248 -65.7147 23.2146 -66.4218L23.2146 -134.367ZM22.9668 -60.2225C17.7478 -58.9788 11.4861 -59.4563 6.12029 -59.2208C4.97102 -59.1702 0.887799 -59.4778 0.181346 -58.585C-0.569167 -57.6365 0.117279 -55.6042 0.164697 -54.5191C0.317334 -51.0301 -0.0732887 -47.5807 -0.0732887 -44.1042C-0.0732887 -37.9496 -1.06012 -30.1516 1.01363 -24.2663C3.25042 -17.9183 9.78967 -12.5005 15.039 -8.64051C17.4771 -6.84773 20.2354 -3.96191 23.2145 -3.18853L23.2145 -42.1204V-54.0231L22.9668 -60.2225ZM-38.9689 131.461C-35.4333 130.618 -31.2011 131.213 -27.5727 131.213H-5.27589C-2.31279 131.213 1.24748 131.751 4.13834 131.082C8.76355 130.012 7.39246 125.206 8.7472 122.075C9.26497 120.878 10.8438 120.789 11.3246 119.31C11.8204 117.786 11.7514 115.555 11.0627 114.103C10.6481 113.229 9.53857 112.398 9.5774 111.375C9.65589 109.308 11.8567 107.519 12.0743 105.424C12.3412 102.855 9.03846 98.5303 7.91489 96.2489C7.50171 95.4099 7.09343 94.0529 6.27129 93.528C5.01027 92.7228 2.13057 93.2732 0.66994 93.2732H-13.4514H-66.9639H-82.5717C-84.0265 93.2732 -87.1488 92.6824 -88.3766 93.528C-89.2111 94.1027 -89.3921 95.6091 -89.7342 96.4968C-90.6316 98.8249 -93.3549 103.451 -92.8434 105.92C-92.4725 107.71 -90.3887 109.486 -90.3926 111.304C-90.3941 112.12 -91.3902 112.914 -91.7582 113.607C-92.5021 115.008 -92.7169 117.023 -92.3495 118.566C-91.9646 120.183 -90.5176 120.678 -89.8835 122.049C-88.5075 125.024 -88.9455 128.839 -85.5446 130.648C-82.8289 132.092 -78.1435 131.213 -75.1394 131.213H-51.1083C-48.2958 131.213 -43.3133 130.238 -40.7398 131.363C-39.6565 131.836 -39.9599 133.485 -39.9599 134.437C-39.9599 136.129 -39.6217 138.243 -40.0664 139.882C-40.3938 141.09 -41.6772 141.939 -40.8719 143.307C-40.1205 144.584 -38.3738 143.944 -38.1664 142.619C-38.0106 141.623 -38.7723 140.647 -38.8416 139.644C-39.0228 137.021 -38.4206 133.985 -38.9689 131.461ZM-19.3972 -254.634C-13.483 -254.634 -7.487 -254.527 -1.55975 -254.382C0.890931 -254.322 3.88653 -253.455 6.11646 -254.88C10.0107 -257.369 8.65259 -263.453 8.86877 -267.277C8.97712 -269.193 11.428 -270.541 11.744 -272.736C11.9453 -274.134 11.8104 -276.012 10.876 -277.144C10.3481 -277.783 9.34254 -277.967 8.99476 -278.743C7.6419 -281.761 8.81887 -285.652 5.12931 -287.501C3.44377 -288.346 0.777689 -287.862 -1.06426 -287.862H-14.6901H-63.7432H-78.6078C-80.6415 -287.862 -83.4503 -288.364 -85.2967 -287.386C-88.9346 -285.459 -88.1634 -281.731 -89.7629 -278.697C-90.8486 -276.637 -92.6742 -275.954 -92.4068 -273.232C-92.1659 -270.779 -89.9626 -269.241 -89.7707 -267.032C-89.4725 -263.602 -90.6444 -259.215 -88.6465 -256.144C-86.3031 -252.542 -78.1568 -254.138 -74.3961 -254.138C-70.6628 -254.138 -65.3679 -253.158 -61.798 -254.217C-60.4472 -254.617 -61.0214 -256.73 -59.28 -257.057C-56.8763 -257.509 -54.0491 -257.113 -51.6038 -257.113H-36.2437H-23.6089C-21.7074 -257.113 -19.7407 -256.855 -19.3972 -254.634ZM-2.05524 103.192L5.37705 94.7611H5.87254C7.76287 98.7542 11.8893 103.609 9.77602 107.904C8.99345 109.494 8.42697 111.908 6.14245 111.296C5.06359 111.008 4.16455 109.694 3.44081 108.905C1.66601 106.972 -0.0705846 104.911 -2.05524 103.192ZM10.4944 -274.967C10.8754 -273.119 10.324 -270.4 8.34901 -269.662C7.01525 -269.163 5.05244 -269.512 3.64285 -269.512C-0.0855966 -269.512 -4.05524 -269.878 -7.75332 -269.441C-14.6201 -268.63 -21.8944 -269.264 -28.8115 -269.264H-68.9458C-72.555 -269.264 -76.246 -269.489 -79.8465 -269.242C-82.5104 -269.059 -86.1129 -268.37 -88.7232 -269.095C-90.1675 -269.496 -90.9701 -271.391 -91.1681 -272.736C-91.3564 -274.015 -91.2535 -275.739 -89.9779 -276.449C-88.736 -277.139 -86.435 -276.703 -85.0491 -276.703H-73.1574H-11.9649H5.12931C6.96666 -276.703 9.99951 -277.367 10.4944 -274.967ZM10.4858 116.831C10.5487 117.856 10.3533 119.4 9.29409 119.87C7.91504 120.482 5.62611 120.054 4.13833 120.054H-8.00108H-69.1936H-86.0401C-88.0304 120.054 -91.0033 120.558 -91.2283 117.823C-91.3669 116.138 -91.1594 113.82 -89.4853 112.907C-88.1962 112.204 -85.9816 112.615 -84.5536 112.615H-72.9097H-11.4695H1.41317C3.35234 112.615 5.72015 112.248 7.60674 112.719C9.46627 113.183 10.3764 115.048 10.4858 116.831ZM7.85449 -278.191H-57.3019H-77.8645L-88.2697 -277.943C-88.9468 -280.627 -87.0182 -285.396 -84.3049 -286.347C-82.6516 -286.927 -80.5838 -286.622 -78.8555 -286.622H-68.2024H-12.9558H0.174598C1.9633 -286.622 4.16408 -286.917 5.57829 -285.574C7.63345 -283.622 7.26016 -280.69 7.85449 -278.191ZM3.643 -255.378L3.39526 -268.024H7.60688C7.93634 -263.846 8.98364 -256.621 3.643 -255.378ZM-88.7651 121.542L-88.5173 121.294L-74.6437 121.542H-48.383H-12.4603L7.35915 121.294C8.00908 123.66 7.11202 128.385 4.6118 129.475C3.15708 130.109 0.989749 129.723 -0.568631 129.725H-11.7171H-68.9456C-72.652 129.725 -76.3914 129.581 -80.0941 129.744C-81.999 129.828 -84.1955 130.183 -85.7815 128.884C-87.8148 127.217 -88.2926 123.979 -88.7651 121.542ZM4.88172 94.761L-2.30283 102.448H-2.79832L-9.73511 94.761L0.174598 94.5129L4.88172 94.761ZM4.88172 111.375H-10.2306C-8.69504 108.492 -4.95974 105.065 -2.30283 103.192L4.88172 111.375ZM-84.8012 -243.723V-235.044H-61.7611L-14.69 -235.044H-1.5596L3.24577 -235.13L3.643 -237.028L3.49351 -243.358L-1.5596 -243.723H-17.6629L-84.8012 -243.723ZM3.39526 -217.19C-4.16267 -218.615 -11.8369 -219.403 -19.3971 -220.814C-21.1588 -221.143 -22.4335 -222.724 -24.1042 -222.964C-28.3202 -223.568 -33.2017 -222.893 -37.4823 -222.893C-43.8254 -222.893 -50.4927 -223.496 -56.8063 -222.867C-58.6041 -222.688 -59.9802 -221.216 -61.7611 -220.827C-68.9723 -219.25 -77.1912 -217.263 -84.5534 -216.942L-84.5534 -165.611C-84.5534 -157.214 -85.3045 -148.427 -84.5277 -140.07C-84.261 -137.202 -83.1259 -134.272 -82.5761 -131.433C-80.6266 -121.364 -77.9442 -111.364 -76.3082 -101.243C-75.3503 -95.3175 -75.6393 -89.0254 -75.3772 -83.0359C-74.9289 -72.7894 -74.5944 -62.5627 -74.6439 -52.2872C-74.7131 -37.9446 -74.5617 -23.1684 -75.9245 -8.89185C-77.6804 9.50159 -82.9228 27.5299 -84.759 45.9103C-85.7534 55.865 -84.8012 66.4019 -84.8012 76.4111C-77.0131 77.4177 -69.3476 79.3297 -61.5133 80.0886C-54.7076 80.7478 -47.5428 80.131 -40.703 80.131C-33.2685 80.131 -25.547 80.7159 -18.1584 79.9242C-12.9134 79.3621 -7.72559 78.5864 -2.55055 77.5521C-1.10618 77.2635 1.90764 77.265 2.99193 76.1988C3.86029 75.345 3.39527 72.3572 3.39527 71.2039V56.8215C3.39527 35.927 -2.11881 14.9725 -5.17137 -5.66784C-5.928 -10.7841 -5.80346 -15.8935 -6.02871 -21.0422C-6.54202 -32.776 -6.74329 -44.4869 -6.76219 -56.2544C-6.77995 -67.3075 -6.79719 -78.4326 -6.04112 -89.4829C-5.76039 -93.5861 -6.0788 -97.8054 -5.45006 -101.882C-3.92622 -111.761 -0.818697 -121.656 1.47144 -131.39C2.06308 -133.905 3.04247 -136.517 3.34958 -139.078C4.18687 -146.059 3.39529 -153.616 3.39529 -160.651C3.39529 -179.425 2.50618 -198.443 3.39526 -217.19ZM2.8998 -255.377L0.174626 -255.625V-255.873H2.65206V-267.776H-8.24863L0.174626 -268.272L2.82219 -267.697L2.8998 -264.056V-255.377ZM-84.3057 -235.539V-243.227L3.14751 -243.227C3.14751 -241.581 3.92511 -237.241 2.89289 -235.937C2.1361 -234.98 -1.18156 -235.539 -2.30283 -235.539H-18.1584L-84.3057 -235.539ZM2.73805 -283.394C1.81304 -286.255 -6.89469 -285.845 -5.62919 -281.415C-4.7301 -278.268 4.28678 -278.604 2.73805 -283.394ZM2.42129 -273.714C2.00083 -275.266 -0.224733 -274.532 0.328861 -272.998C0.847998 -271.559 2.79994 -272.316 2.42129 -273.714ZM2.46812 124.777C1.91045 123.407 0.412911 123.527 -0.816381 123.526C-3.30099 123.526 -7.08686 123.8 -5.58733 127.483C-4.99792 128.931 -3.33687 128.734 -2.05509 128.734C0.453273 128.734 3.93724 128.385 2.46812 124.777ZM2.29665 -282.899C3.25876 -279.443 -4.56207 -279.432 -5.16736 -281.668C-6.12282 -285.199 1.6642 -285.171 2.29665 -282.899ZM2.21924 116.143C1.56647 114.683 -0.192991 115.995 0.327908 117.289C0.931372 118.789 2.83112 117.511 2.21924 116.143ZM2.27735 125.758C2.85791 129.179 -4.76428 129.259 -5.21897 126.745C-5.86087 123.196 1.85487 123.268 2.27735 125.758ZM2.15653 -140.319H1.90879L-13.7472 -191.153L-19.6104 -210.247L-22.6177 -220.414C-17.2022 -218.294 -10.5419 -217.971 -4.78026 -217.158C-3.35609 -216.957 0.993789 -216.958 1.90191 -215.801C2.70981 -214.772 2.15653 -211.762 2.15653 -210.495V-196.113V-140.319ZM2.0491 46.3796C1.9967 47.7 -0.307027 48.6709 -1.31186 49.225C-5.08307 51.3045 -9.00349 52.7798 -13.2035 53.7019C-22.4886 55.7403 -32.4828 54.8365 -41.9417 54.8365C-49.7878 54.8365 -58.2625 55.6795 -65.9727 53.9873C-70.6554 52.9597 -75.3181 51.5536 -79.5986 49.3544C-80.9421 48.6641 -83.492 47.9562 -83.5258 46.1565C-83.597 42.3553 -82.2898 38.2456 -81.6891 34.5027C-80.1908 25.1653 -78.5655 15.8385 -77.1885 6.48169C-76.7009 3.16916 -76.0942 -0.119948 -75.6347 -3.43724C-75.4945 -4.44949 -75.4859 -6.69954 -74.7076 -7.42033C-73.8973 -8.17072 -71.9774 -8.30604 -70.9276 -8.53948C-67.7412 -9.24777 -64.5062 -10.0307 -61.2656 -10.419C-55.0379 -11.1653 -48.7062 -10.8764 -42.4372 -10.8764C-35.6774 -10.8764 -28.8581 -11.1233 -22.1223 -10.6506C-18.2181 -10.3767 -14.5228 -9.45704 -10.7261 -8.55898C-9.60229 -8.29318 -7.54889 -8.29146 -6.80293 -7.27839C-6.07795 -6.29374 -6.14269 -4.36728 -5.92262 -3.18928C-5.26345 0.339358 -4.76406 3.92655 -4.21673 7.47357C-2.85135 16.3221 -1.44466 25.1772 0.0346641 34.0068C0.682915 37.876 2.20442 42.4646 2.0491 46.3796ZM-83.5625 75.4184C-84.7969 68.7629 -83.8102 61.1102 -83.8102 54.3406C-83.8102 52.3566 -83.4341 50.0704 -83.8102 48.1412C-81.4524 47.9836 -78.1277 50.6218 -75.8825 51.5136C-70.7455 53.5539 -65.5145 54.7676 -60.0269 55.2904C-52.0841 56.047 -43.7299 55.3328 -35.7481 55.3328C-28.9454 55.3328 -21.6345 56.054 -14.9377 54.6717C-11.1993 53.9001 -7.48593 52.8247 -4.03703 51.1708C-2.01548 50.2014 0.0146598 48.4496 2.15653 47.8936V67.7314C2.15653 69.3793 2.92683 73.6719 1.90191 74.9902C1.03496 76.1054 -2.22691 76.0979 -3.54155 76.361C-8.98876 77.4513 -14.5821 78.5093 -20.1403 78.6459C-32.7933 78.9569 -45.8904 79.7353 -58.5405 78.8681C-66.9162 78.2939 -75.2219 75.7769 -83.5625 75.4184ZM1.16557 -140.566C-5.99558 -143.191 -12.059 -148.4 -19.6448 -150.227C-25.1748 -151.559 -31.5734 -150.733 -37.2346 -150.733C-45.7366 -150.733 -55.5343 -152.091 -63.7431 -149.633C-70.6718 -147.557 -76.2882 -143.067 -82.8193 -140.318C-81.9472 -146.769 -78.7171 -153.724 -76.6444 -159.908C-72.3998 -172.573 -68.6687 -185.412 -64.4861 -198.096C-62.6654 -203.618 -60.8726 -209.15 -59.1759 -214.71C-58.479 -216.994 -57.4033 -219.287 -57.054 -221.654H-42.4372C-42.4994 -220.225 -43.8768 -217.723 -43.2268 -216.456C-41.5014 -213.092 -36.4082 -212.619 -35.1775 -216.704C-34.7947 -217.974 -35.8519 -220.18 -36.2436 -221.406L-26.8294 -221.654L-23.5726 -221.079L-21.254 -213.966L-16.0713 -197.104L-3.85848 -157.429L1.16557 -140.566ZM-1.06411 -141.062C-5.46242 -141.501 -9.73887 -143.315 -14.1945 -143.748C-20.7685 -144.387 -27.418 -143.88 -34.0139 -144.042C-44.3697 -144.295 -55.1566 -145.26 -65.4773 -144.244C-70.6488 -143.735 -75.5581 -141.969 -80.5896 -140.814V-141.062C-74.1359 -145.016 -66.8334 -148.934 -59.2837 -150.157C-51.9935 -151.338 -43.6358 -150.237 -36.2436 -150.237C-31.5827 -150.237 -26.4875 -150.821 -21.8745 -150.163C-17.3264 -149.514 -13.1049 -147.259 -8.99188 -145.354C-6.39718 -144.153 -3.27032 -142.892 -1.06411 -141.062ZM-10.4783 110.383L-10.4783 95.2565L-4.78025 100.712L-3.27431 102.944L-5.028 105.175L-10.4783 110.383ZM-3.64667 25.328C-4.6663 17.5553 -6.1318 9.88692 -8.03226 2.26642C-8.5047 0.372024 -8.69122 -4.1116 -10.1314 -5.45616C-10.949 -6.2195 -12.8841 -6.29603 -13.9467 -6.51177C-17.1343 -7.15876 -20.3368 -7.89918 -23.6087 -7.90045H-57.3017C-60.715 -7.90045 -64.1037 -7.37161 -67.4592 -6.76583C-68.487 -6.5803 -70.4555 -6.60321 -71.1916 -5.77069C-71.8909 -4.97968 -71.9615 -3.43805 -72.1671 -2.44506C-72.6818 0.0417877 -73.3023 2.5183 -73.8711 4.99414C-75.8853 13.7618 -77.6167 22.5145 -77.6167 31.5274C-77.6167 33.826 -77.9651 36.4384 -77.5799 38.704C-77.2931 40.391 -73.4287 39.4625 -72.1663 39.4625H-54.8243H-16.4242C-13.2887 39.4625 -10.1445 39.3933 -7.00994 39.4625C-6.16575 39.4818 -4.43312 40.03 -3.79617 39.2687C-3.15527 38.5026 -3.54154 36.4346 -3.54154 35.4913C-3.54154 32.1593 -3.21316 28.6292 -3.64667 25.3243M-6.7622 -9.14398L-22.1222 -12.1099L-43.6759 -12.1196L-59.0359 -12.0772L-74.8915 -9.14362L-74.3862 -18.5667L-73.8996 -36.6687L-73.6625 -73.3688L-75.1392 -101.142L-61.2656 -103.103L-43.1804 -103.126L-20.6358 -103.116L-6.7622 -101.142L-7.99728 -69.1535L-7.50906 -32.7014L-6.7622 -9.14398ZM-8.99188 -267.78H-10.2306V-268.028L-8.99188 -267.78ZM-10.7261 -266.292H-70.9276V-267.78L-10.7261 -268.028V-266.292ZM-10.8767 -265.222C-10.0953 -263.562 -12.2208 -263.565 -13.2035 -263.565H-22.8655H-59.2837H-67.9547C-68.7397 -263.565 -70.3156 -263.266 -70.7425 -264.139C-71.4938 -265.676 -69.6881 -265.794 -68.6979 -265.796H-60.0269H-23.8565H-14.1945C-13.3487 -265.796 -11.3238 -266.171 -10.8767 -265.222ZM-70.9276 -263.069H-10.7261L-11.1233 -261.092L-14.1945 -260.837H-21.8745H-58.2927H-67.2115L-70.5304 -261.092L-70.9276 -263.069ZM-10.7261 -255.878H-18.4061C-19.7501 -259.276 -24.1271 -258.605 -27.0771 -258.605H-52.8424C-55.9486 -258.605 -61.2633 -259.749 -62.0089 -255.63L-70.6799 -255.382C-70.9554 -256.315 -71.4363 -259.391 -70.5277 -260.09C-69.7866 -260.66 -68.0941 -260.341 -67.2115 -260.341H-58.7882H-22.37H-13.9467C-13.1661 -260.341 -11.534 -260.643 -10.9807 -259.943C-10.3118 -259.098 -10.7261 -256.911 -10.7261 -255.878ZM-11.4693 99.7165C-14.837 100.713 -19.3527 99.9645 -22.8655 99.9645C-22.9018 96.8959 -27.0142 97.9807 -29.3068 97.9807H-50.6127C-52.9975 97.9807 -58.0073 96.7811 -58.045 99.9645H-70.1844L-69.9297 94.9067L-66.2205 94.509H-55.8153H-11.7171L-11.4693 99.7165ZM-11.4693 107.9H-25.5907H-54.0811L-69.9366 108.148L-70.1844 100.46H-58.045C-57.8402 103.147 -53.5876 102.196 -51.6037 102.196H-30.2978C-28.2192 102.196 -23.0784 103.254 -22.8655 100.46H-14.69L-11.7239 100.858L-11.4693 107.9ZM-11.4693 111.123L-17.9106 111.371H-30.05H-70.1844V108.644H-25.3429H-15.4332L-11.8667 108.898L-11.4693 111.123ZM-19.5022 -80.8082C-19.9198 -83.953 -20.8907 -86.8514 -23.8565 -88.4866C-26.3052 -89.8367 -29.0903 -89.4873 -31.7842 -89.4873L-46.6488 -89.4873C-50.4303 -89.4873 -55.5291 -90.4175 -58.7882 -88.0892C-63.1574 -84.9679 -62.5043 -79.3142 -62.5043 -74.6089C-62.5043 -72.6619 -62.7055 -70.5872 -62.43 -68.6575C-60.892 -57.8829 -48.6844 -60.4744 -40.703 -60.4744C-35.9773 -60.4744 -28.6836 -59.1067 -24.3519 -61.159C-17.9458 -64.194 -18.7173 -74.8974 -19.5022 -80.8082ZM-19.9633 -80.8082C-19.2896 -75.1704 -18.404 -64.8502 -24.3519 -61.8428C-28.773 -59.6074 -36.0952 -60.9703 -40.9507 -60.9703C-47.4356 -60.9703 -60.489 -58.4449 -61.7164 -67.6656C-62.4655 -73.2937 -63.7777 -84.1614 -58.2506 -87.6937C-55.045 -89.7424 -50.5173 -88.9913 -46.8965 -88.9913H-33.5184C-26.9493 -88.9913 -20.9137 -88.7617 -19.9633 -80.8082ZM-23.6087 101.7H-57.3017L-57.5495 98.7247L-46.6488 98.4767H-23.6087V101.7ZM-25.8455 -274.291C-26.7711 -275.426 -28.4209 -273.698 -27.4229 -272.604C-26.4016 -271.485 -25.0583 -273.325 -25.8455 -274.291ZM-25.7784 116.14C-26.3997 114.702 -28.3978 115.975 -27.7527 117.286C-27.0273 118.76 -25.1876 117.507 -25.7784 116.14ZM-34.2617 -29.2297C-36.862 -27.9615 -39.122 -24.199 -41.0214 -22.0384C-41.9292 -21.0059 -42.9003 -20.2045 -43.1804 -18.8148L-37.4814 -25.1569L-34.2617 -29.2297ZM-41.1985 -221.161H-37.2346C-36.944 -219.893 -35.9151 -217.926 -36.6506 -216.701C-37.9677 -214.507 -41.2468 -214.397 -41.9969 -217.197C-42.3098 -218.365 -41.46 -220.019 -41.1985 -221.161ZM-53.5774 -273.483C-53.6652 -274.907 -55.7419 -274.964 -55.7419 -273.483C-55.7419 -271.9 -53.4765 -271.847 -53.5774 -273.483ZM-53.7733 116.139C-54.4052 114.671 -56.4114 115.925 -55.7256 117.286C-54.9863 118.754 -53.1894 117.496 -53.7733 116.139ZM-57.5495 -220.665L-60.7772 -210.994L-66.6527 -192.644L-83.067 -141.314H-83.3147L-83.3147 -194.628V-209.259C-83.3147 -210.876 -83.9014 -213.898 -83.1652 -215.35C-82.5792 -216.507 -78.5699 -216.551 -77.3689 -216.76C-72.2526 -217.649 -67.1488 -218.714 -62.0089 -219.458C-60.6144 -219.66 -58.8473 -221.02 -57.5495 -220.665ZM-71.1753 110.875C-73.5809 109.752 -75.2765 107.025 -77.1212 105.172C-77.6816 104.609 -78.7857 103.819 -78.8078 102.941C-78.8307 102.031 -77.6419 101.18 -77.069 100.597C-75.3995 98.8983 -73.4697 95.7428 -71.1753 95.005V110.875ZM-71.4231 -255.63L-83.5625 -255.382C-84.5579 -258.752 -83.8102 -263.272 -83.8102 -266.788H-83.5625V-255.878C-80.1466 -255.878 -74.5575 -256.946 -71.4231 -255.63ZM-72.1663 95.005C-74.4521 97.293 -76.9003 101.069 -79.8463 102.444L-86.7831 94.7571L-76.1302 94.509L-72.1663 95.005ZM-72.1663 111.371H-87.0309C-85.9668 109.087 -81.561 104.127 -79.1031 103.436L-72.1663 111.371ZM-75.7974 -283.154C-76.7372 -286.234 -85.6253 -285.959 -84.2465 -281.42C-83.3011 -278.308 -74.4487 -278.734 -75.7974 -283.154ZM-76.0664 125.011C-77.205 122.071 -85.9457 122.667 -84.3418 127.237C-83.3231 130.14 -74.2679 129.654 -76.0664 125.011ZM-76.3628 -281.672C-76.7886 -279.529 -84.4319 -279.3 -83.7535 -282.896C-83.321 -285.188 -75.6582 -285.218 -76.3628 -281.672ZM-76.5054 125.272C-75.2452 129.176 -83.1299 129.288 -83.8551 126.979C-85.0307 123.237 -77.1384 123.312 -76.5054 125.272ZM-115.274 -219.921H-115.521L-116.512 -208.019C-118.638 -209.23 -123.884 -209.971 -125.176 -212.054C-125.84 -213.124 -125.244 -214.795 -125.193 -215.954C-125.065 -218.882 -124.301 -223.99 -125.779 -226.593C-127.32 -229.31 -131.751 -228.552 -134.35 -228.923C-135.649 -229.108 -136.826 -229.518 -137.991 -228.631C-139.56 -227.435 -139.902 -224.732 -140.048 -222.897L-146.737 -219.511L-148.817 -217.857L-148.967 -212.482V-199.588C-133.786 -197.657 -122.063 -186.045 -124.549 -170.079C-125.775 -162.203 -130.189 -155.695 -137.323 -152.004C-140.117 -150.558 -142.942 -149.718 -145.994 -149.031C-146.851 -148.837 -148.575 -148.974 -148.888 -147.952C-149.969 -144.424 -148.967 -139.064 -148.967 -135.362V-107.093V-13.8553C-141.852 -12.3855 -135.121 -9.4313 -130.18 -3.9364C-122.824 4.24598 -122.03 17.9947 -129.523 26.3872C-133.047 30.3343 -137.389 33.0224 -142.278 34.9451C-143.618 35.4724 -148.203 36.035 -148.817 37.3051C-149.83 39.3983 -148.827 43.4072 -148.729 45.6583C-148.441 52.228 -149.555 58.9797 -148.925 65.4962C-148.692 67.8977 -147.83 69.7236 -145.498 70.6989C-144.197 71.2433 -142.433 71.3559 -141.365 72.3524C-139.752 73.8574 -140.488 76.1802 -138.066 77.5086C-135.365 78.9896 -129.572 78.7588 -127.571 76.1456C-125.701 73.7031 -125.245 69.471 -125.183 66.4881L-114.035 67.976L-115.026 75.6631C-107.809 79.7092 -105.482 66.5457 -104.459 62.0246C-103.319 56.979 -103.014 51.541 -101.291 46.6502C-95.6728 30.7015 -86.0194 15.9591 -82.5708 -0.712761C-78.3465 -21.1341 -78.328 -41.4993 -78.3599 -62.2102C-78.3777 -73.7882 -77.4793 -86.7224 -80.9453 -97.9184C-81.9296 -101.098 -83.8553 -104.097 -85.2906 -107.093C-88.31 -113.396 -91.2781 -119.757 -94.537 -125.939C-97.8318 -132.19 -101.237 -138.074 -102.781 -145.033C-108.22 -169.545 -102.793 -197.113 -115.274 -219.921ZM-125.679 -65.6818L-125.431 -74.3609V-90.4791V-142.306C-119.722 -142.306 -114.086 -141.79 -108.585 -140.179C-106.504 -139.57 -103.933 -138.997 -102.211 -137.603C-101.064 -136.673 -100.515 -134.669 -99.8495 -133.379C-98.268 -130.312 -96.5986 -127.291 -95.0573 -124.204C-92.4203 -118.921 -89.8493 -113.612 -87.2121 -108.333C-85.4567 -104.819 -83.2283 -101.176 -82.0483 -97.4225C-80.9096 -93.8004 -80.6555 -90.0056 -80.2998 -86.2636C-79.7488 -80.4684 -79.7371 -74.7243 -79.595 -68.9054C-79.5591 -67.436 -78.6042 -63.8438 -79.6063 -62.6078C-80.1452 -61.9429 -81.5958 -62.4289 -82.3238 -62.4555C-84.966 -62.5517 -87.6111 -62.8284 -90.2516 -62.9443C-98.3135 -63.2982 -106.256 -64.3787 -114.283 -65.1438C-117.891 -65.4877 -122.215 -64.6569 -125.679 -65.6818ZM-125.679 -63.946C-122.719 -64.6512 -119.268 -63.9259 -116.265 -63.7202C-108.285 -63.1732 -100.236 -61.7655 -92.2335 -61.7141C-89.1525 -61.694 -85.881 -61.5091 -82.8193 -61.1475C-82.0252 -61.0537 -80.4162 -61.2286 -79.7825 -60.7155C-79.0687 -60.1374 -79.3509 -58.5509 -79.3509 -57.7466V-49.8115C-79.3509 -44.0772 -79.5867 -38.4132 -79.8366 -32.7014C-79.9648 -29.7713 -79.5585 -25.8013 -80.5445 -23.0304C-81.3929 -20.646 -83.5443 -18.4752 -85.1549 -16.5831C-91.289 -9.37647 -98.4485 -2.59586 -106.107 2.96911C-108.754 4.89252 -113.271 7.97646 -116.509 5.60811C-119.4 3.49352 -120.723 -1.37091 -122.401 -4.43236C-123.249 -5.9792 -125.02 -7.47195 -125.51 -9.14748C-125.874 -10.3945 -125.431 -12.0589 -125.431 -13.3594V-23.5263V-50.5554C-125.431 -54.7927 -124.697 -59.8202 -125.679 -63.946ZM-89.0129 111.371L-91.5895 105.668L-90.5783 102.196L-87.7741 94.7571C-85.6799 96.2336 -84.1262 98.4069 -82.3238 100.212C-81.6909 100.846 -80.4354 101.733 -80.3223 102.692C-80.2109 103.637 -81.4347 104.538 -82.0017 105.149C-83.8055 107.093 -86.2996 110.952 -89.0129 111.371ZM-104.373 -134.37V-66.4257L-80.8373 -64.4419C-80.8373 -74.1106 -80.4236 -84.5068 -82.7933 -93.9508C-84.939 -102.502 -89.9747 -111.041 -94.139 -118.748C-96.1769 -122.52 -98.1831 -126.314 -100.532 -129.907C-101.573 -131.499 -102.665 -133.438 -104.373 -134.37ZM-113.787 74.9192C-113.567 73.1795 -112.109 68.5544 -113.054 67.0629C-113.612 66.1828 -115.593 66.3121 -116.512 66.2016C-119.571 65.8341 -122.623 65.3868 -125.679 65.0003L-125.679 43.1786C-125.679 39.8212 -126.307 35.7556 -125.584 32.4736C-125.025 29.9342 -122.351 27.3483 -121.332 24.8286C-118.671 18.2544 -118.21 10.3508 -119.981 3.5028C-117.965 4.64681 -117.434 7.17078 -114.778 7.63684C-110.6 8.37005 -106.39 4.65327 -103.382 2.26365C-98.3765 -1.7132 -93.3877 -5.92839 -89.0513 -10.6414C-86.6085 -13.2964 -83.8974 -18.0069 -80.8373 -19.8067C-81.1853 -2.93715 -87.9164 12.3632 -94.4313 27.5562C-97.8822 35.604 -102.106 43.4378 -103.726 52.1056C-104.843 58.0817 -105.736 64.2322 -107.855 69.9597C-108.912 72.8176 -110.473 75.3106 -113.787 74.9192ZM-104.373 -59.9784V-3.19248C-101.122 -3.83999 -97.7355 -7.36348 -95.2064 -9.39178C-90.412 -13.237 -84.5954 -17.883 -82.2645 -23.7743C-79.9097 -29.726 -81.0851 -37.8238 -81.0851 -44.1081C-81.0851 -47.5001 -81.3264 -50.8916 -81.2055 -54.2714C-81.166 -55.3764 -80.6101 -57.6669 -81.3397 -58.5889C-82.0371 -59.4704 -86.1439 -59.2026 -87.2787 -59.2309C-92.9823 -59.3729 -98.6586 -59.9784 -104.373 -59.9784ZM-81.8354 -274.149C-82.6737 -275.405 -84.2435 -273.961 -83.5545 -272.778C-82.7201 -271.344 -81.0152 -272.92 -81.8354 -274.149ZM-81.8398 116.12C-82.6642 114.625 -84.5112 116.183 -83.6933 117.492C-82.8792 118.795 -81.1707 117.333 -81.8398 116.12ZM-82.8194 -15.0952C-84.7486 -13.9665 -86.2594 -11.5217 -87.7803 -9.88777C-91.5755 -5.81071 -95.3214 -1.67911 -98.9932 2.51095C-100.647 4.39798 -103.496 6.75993 -104.247 9.20623C-105.26 12.5053 -104.621 16.7021 -104.621 20.117V41.9387C-103.277 40.7828 -102.617 38.794 -101.829 37.2272C-100.49 34.5664 -99.0806 31.9134 -97.664 29.2921C-92.5888 19.9002 -88.664 10.2954 -85.7575 0.0311595C-84.3709 -4.8654 -82.8194 -9.98269 -82.8194 -15.0952ZM-88.5174 -267.78C-87.5684 -267.78 -85.2136 -268.208 -84.5604 -267.383C-84.0799 -266.775 -84.3058 -265.526 -84.3058 -264.805V-258.357C-84.3058 -257.649 -84.0745 -256.372 -84.5604 -255.783C-85.2228 -254.98 -86.6963 -255.907 -87.2258 -256.429C-88.7979 -257.979 -88.5174 -260.56 -88.5174 -262.573V-267.78ZM-102.639 -139.33C-108.059 -141.556 -113.428 -142.784 -119.238 -143.475C-121.347 -143.726 -123.636 -143.395 -125.679 -143.793C-124.949 -146.863 -126.369 -150.549 -125.466 -153.464C-124.794 -155.637 -122.693 -157.55 -121.722 -159.664C-119.224 -165.104 -118.357 -171.064 -118.764 -177.022C-119.052 -181.227 -120.008 -185.692 -122.04 -189.421C-123.08 -191.328 -125.027 -193.109 -125.746 -195.124C-126.262 -196.569 -125.927 -198.565 -125.927 -200.084V-210.25L-115.026 -206.531L-114.778 -215.458L-112.584 -210.746L-109.266 -196.612L-106.065 -161.152L-104.469 -147.513L-102.639 -139.33ZM-114.042 -80.8819C-114.785 -81.8657 -116.874 -81.6589 -117.354 -80.5271C-118.164 -78.6163 -117.503 -75.1895 -117.503 -73.121C-117.503 -72.3885 -117.72 -71.192 -117.249 -70.5677C-116.506 -69.5838 -114.416 -69.7906 -113.937 -70.9224C-113.127 -72.8332 -113.787 -76.26 -113.787 -78.3285C-113.787 -79.061 -113.571 -80.2575 -114.042 -80.8819ZM-114.042 -12.0129C-114.706 -12.993 -116.855 -12.9285 -117.354 -11.8151C-118.209 -9.90591 -117.503 -6.27096 -117.503 -4.18434C-117.503 -3.47322 -117.676 -2.43308 -117.249 -1.81221C-116.618 -0.894356 -114.408 -0.963163 -113.937 -2.00926C-113.079 -3.91288 -113.787 -7.55735 -113.787 -9.63981C-113.787 -10.3549 -113.617 -11.3868 -114.042 -12.0129ZM-114.035 -161.152C-114.85 -161.303 -115.927 -161.61 -116.682 -161.107C-117.577 -160.511 -117.599 -157.145 -116.964 -156.341C-115.204 -154.117 -114.035 -157.39 -114.035 -158.672V-161.152ZM-139.057 -145.281C-139.057 -146.425 -139.48 -148.616 -138.803 -149.587C-137.956 -150.799 -135.359 -151.573 -134.102 -152.397C-131.546 -154.073 -129.146 -156.348 -127.473 -158.92C-121.548 -168.027 -121.394 -181.738 -128.284 -190.412C-131.256 -194.154 -135.138 -196.453 -139.305 -198.595L-139.057 -202.563C-131.404 -200.389 -125.091 -195.25 -121.792 -187.932C-114.916 -172.675 -121.151 -149.429 -139.057 -145.281ZM-139.057 40.6991C-139.057 39.21 -139.545 36.6981 -138.908 35.3405C-138.455 34.376 -136.711 33.8095 -135.836 33.2944C-133.959 32.1889 -132.192 30.8101 -130.634 29.2887C-126.346 25.1018 -123.231 19.5655 -123.202 13.422C-123.168 6.35344 -124.834 0.256856 -129.578 -5.15361C-131.23 -7.03773 -133.225 -8.65554 -135.341 -9.98909C-136.343 -10.6207 -138.154 -11.1946 -138.803 -12.2159C-139.436 -13.214 -139.057 -15.1895 -139.057 -16.3348C-136.502 -15.7275 -134.041 -14.1382 -131.873 -12.6976C-113.064 -0.201399 -115.836 34.4708 -139.057 40.6991ZM-126.074 -174.294C-126.272 -179.783 -128.207 -185.433 -132.162 -189.378C-139.655 -196.851 -151.92 -195.552 -157.942 -186.941C-161.176 -182.318 -162.082 -177.097 -161.84 -171.566C-161.724 -168.927 -160.89 -166.263 -159.791 -163.879C-158.784 -161.696 -157.326 -159.61 -155.547 -157.991C-153.905 -156.496 -152.025 -155.246 -149.958 -154.412C-137.132 -149.236 -125.627 -161.91 -126.074 -174.294ZM-139.057 -142.057V-144.785C-133.742 -146.016 -130.424 -149.724 -126.175 -152.72L-126.171 -146.273L-126.191 -143.943L-129.395 -143.402L-139.057 -142.057ZM-125.927 -65.6815L-139.057 -63.9457V-140.818L-126.174 -142.305V-91.2228V-74.8565L-125.927 -65.6815ZM-126.422 -9.63951C-128.719 -12.2752 -131.802 -14.1702 -134.845 -15.8189C-135.869 -16.3736 -138.397 -17.0933 -138.908 -18.1682C-140.015 -20.4991 -139.057 -25.4029 -139.057 -27.9895V-52.043V-59.4822C-139.057 -60.2571 -139.316 -61.6579 -138.802 -62.3082C-138.301 -62.9431 -136.59 -62.9169 -135.836 -63.0493C-132.912 -63.5629 -128.847 -64.4403 -125.927 -63.9457L-126.174 -50.5552V-24.022L-126.174 -14.103L-126.422 -9.63951ZM-126.281 8.71054C-126.736 5.5288 -127.679 2.53995 -129.352 -0.216504C-135.015 -9.54824 -147.58 -11.8642 -155.652 -4.16189C-160.621 0.579047 -162.732 8.19026 -161.775 14.9099C-161.36 17.8241 -160.406 20.8292 -158.861 23.341C-157.554 25.4636 -155.912 27.3138 -153.922 28.8213C-152.372 29.9956 -150.582 30.9475 -148.719 31.5144C-135.064 35.6698 -124.477 21.322 -126.281 8.71054ZM-139.057 41.1951C-133.707 39.9231 -130.437 36.0171 -126.175 33.012C-126.175 43.3438 -126.125 53.6769 -126.175 64.0086C-126.19 67.1609 -126.304 73.5624 -128.994 75.731C-131.027 77.3702 -138.143 77.952 -138.979 74.6703C-139.783 71.512 -139.057 67.2715 -139.057 64.0086L-139.057 41.1951ZM-126.422 -195.868C-130.23 -198.251 -134.132 -202.844 -139.057 -202.811V-217.441C-139.057 -220.2 -139.333 -223.512 -138.262 -226.119C-137.978 -226.812 -137.559 -227.523 -136.802 -227.749C-135.749 -228.061 -134.642 -227.582 -133.607 -227.435C-131.477 -227.131 -128.286 -228.004 -126.854 -225.859C-125.599 -223.979 -126.422 -219.645 -126.422 -217.441V-195.868ZM-139.553 -198.843L-147.728 -200.827V-212.73C-147.728 -213.975 -148.164 -216.261 -147.474 -217.345C-146.266 -219.241 -141.774 -220.809 -139.801 -221.905L-139.553 -214.218V-198.843ZM-147.728 -138.586V-147.513L-139.553 -149.249C-139.553 -147.543 -138.816 -143.597 -139.807 -142.184C-140.29 -141.496 -141.531 -141.315 -142.278 -141.065C-144.222 -140.416 -145.865 -139.36 -147.728 -138.586ZM-147.728 -62.4579V-121.724V-132.138C-147.728 -133.454 -148.082 -135.398 -147.474 -136.601C-146.272 -138.978 -142.014 -140.214 -139.553 -140.322V-81.5518V-68.9051L-139.807 -64.0917L-142.03 -63.4173L-147.728 -62.4579ZM-139.553 -18.3185C-141.242 -18.5718 -146.465 -19.8114 -147.474 -21.2079C-148.004 -21.9422 -147.728 -23.4134 -147.728 -24.2699V-31.7091V-60.97L-139.801 -62.4579C-138.581 -58.3289 -139.553 -52.6346 -139.553 -48.3234V-18.3185ZM-139.801 -12.3672L-147.474 -15.2345L-147.728 -19.5584C-143.574 -18.9356 -138.311 -17.4124 -139.801 -12.3672ZM-139.553 71.9438C-141.589 70.7991 -145.725 69.92 -147.052 67.9655C-148.496 65.8393 -147.728 61.7394 -147.728 59.2972L-147.728 37.9714L-139.801 35.4917C-138.785 38.9306 -139.553 43.5595 -139.553 47.1465L-139.553 71.9438Z" fill="#304A6E"/>
</svg>
