<svg width="81" height="72" viewBox="0 0 81 72" fill="none" xmlns="http://www.w3.org/2000/svg">
<rect width="81" height="72" fill="#1A1E26"/>
<rect x="-449" y="-161" width="980" height="753" rx="4" fill="white"/>
<path d="M161.811 111.973C160.83 107.063 159.437 102.592 155.888 98.8727C149.172 91.8342 137.752 91.979 131.29 99.3274C126.619 104.639 125 112.075 126.375 118.916C127 122.025 128.233 125.08 130.182 127.596C131.614 129.444 133.143 131.037 135.183 132.224C146.853 139.018 159.426 130.372 161.479 117.925C161.805 115.951 162.214 113.987 161.811 111.973ZM161.763 297.209C160.321 291.455 158.767 286.215 153.763 282.458C145.609 276.338 134.602 279.2 129.259 287.538C125.919 292.751 125.124 299.465 126.604 305.393C128.601 313.383 135.415 320.454 144.101 320.239C153.386 320.009 159.813 312.253 161.423 303.657C161.816 301.56 162.297 299.34 161.763 297.209ZM125.273 76.5129L116.106 79.9846L115.633 72.0494L115.115 68.0818C103.296 92.3092 108.31 119.449 102.261 144.954C101.05 150.059 98.4075 154.492 95.9849 159.088C92.3749 165.936 89.039 172.951 85.6684 179.918C84.1124 183.134 82.0168 186.424 80.9492 189.837C77.3583 201.317 78.2017 214.648 78.2017 226.537C78.2017 241.466 78.4111 256.08 79.894 270.924C80.7347 279.34 81.9237 288.276 84.9383 296.217C89.89 309.262 96.8998 321.659 101.269 334.901C103.033 340.248 103.385 346.05 104.682 351.516C105.969 356.945 107.577 365.845 114.868 363.914L113.877 355.979C116.465 355.341 119.171 355.225 121.804 354.844C122.635 354.723 124.16 354.206 124.841 354.89C125.848 355.9 125.596 359.271 126.017 360.69C127.45 365.521 132.337 367.69 137.164 365.866C138.323 365.428 139.651 364.555 140.186 363.395C140.726 362.223 140.421 360.819 141.651 360.049C143.584 358.838 146.074 359.03 147.622 357.147C149.267 355.145 148.808 352.188 148.808 349.78L148.808 332.669C148.808 330.696 149.51 327.092 148.659 325.305C148.053 324.032 143.464 323.463 142.119 322.951C137.555 321.213 133.061 318.469 129.774 314.815C121.924 306.087 122.634 292.031 130.498 283.571C135.303 278.4 142.006 275.552 148.808 274.148V180.91V152.641C148.808 148.939 149.81 143.58 148.73 140.051C148.415 139.024 146.699 139.133 145.835 138.981C142.981 138.479 140.241 137.506 137.66 136.213C130.893 132.824 125.986 126.697 124.644 119.164C121.725 102.773 132.932 90.4678 148.808 88.4155V75.2729C148.808 73.8296 149.321 71.1464 148.554 69.8827C147.176 67.6138 142.728 66.7887 140.666 65.146C139.034 63.8464 139.647 61.1037 138.113 59.5437C136.952 58.3625 135.604 58.9581 134.192 59.1116C131.507 59.4034 127.407 58.7642 125.704 61.3902C124.839 62.7238 125.025 64.5854 125.025 66.0979C125.025 69.5783 125.273 73.0271 125.273 76.5129ZM147.57 87.1756L139.394 89.1594L139.642 66.3458C141.568 66.956 146.498 69.0533 147.487 70.8622C148.145 72.0656 147.817 74.4163 147.817 75.7689C147.817 79.5819 147.57 83.3754 147.57 87.1756ZM147.817 149.417L142.119 146.902L139.667 145.819L139.394 138.754L147.57 140.49L147.817 149.417ZM147.817 225.545L139.394 224.057C140.685 204.784 139.642 185.108 139.642 165.783C139.642 161.202 140.001 156.446 139.465 151.897C139.359 151.001 138.913 148.009 140.194 147.806C141.062 147.668 142.297 148.279 143.11 148.553C144.53 149.032 146.559 149.773 147.315 151.175C147.894 152.249 147.802 154.4 147.816 155.616C147.855 158.839 147.817 162.064 147.817 165.287V205.707C147.817 212.24 147.243 219.046 147.817 225.545ZM139.394 269.684L139.642 249.35L139.394 225.793L139.642 225.545L147.569 227.033C147.57 236.516 147.817 246.046 147.817 255.55C147.817 258.428 148.899 264.09 147.459 266.64C146.614 268.137 141.048 269.515 139.394 269.684ZM147.569 273.156L139.394 275.388V271.42L147.569 268.444V273.156ZM139.642 359.947V352.011V334.901L139.642 323.494L147.569 325.974L147.569 347.3C147.569 349.758 148.328 353.783 147.005 355.956C145.614 358.24 141.658 358.204 139.642 359.947ZM138.898 85.1919C133.575 85.6571 130.647 90.0089 126.264 92.1351C126.264 84.8501 126.275 77.5658 126.264 70.3135C126.26 68.1105 125.452 63.818 126.781 61.9512C128.107 60.0891 131.533 60.8047 133.448 60.5994C134.429 60.4943 135.419 60.0448 136.417 60.2068C137.243 60.3408 137.73 60.906 138.065 61.6382C139.552 64.8883 138.936 68.8711 138.899 72.2972C138.855 76.4524 139.57 81.1173 138.898 85.1919ZM138.899 142.722C120.927 138.459 114.442 114.564 122.005 99.3264C125.52 92.2441 131.522 87.8422 138.899 85.4398C140.16 90.5853 134.741 91.418 131.466 94.2251C127.52 97.6076 124.772 102.155 123.703 107.261C122.045 115.183 123.371 124.139 128.494 130.571C130.308 132.848 132.473 134.674 134.935 136.218C136.02 136.898 138.156 137.499 138.842 138.609C139.425 139.552 139.183 141.714 138.899 142.722ZM139.146 145.945L125.768 144.21C126.381 141.635 126.381 137.857 125.768 135.283L130.971 139.392L139.146 143.466V145.945ZM126.016 222.569V145.697L135.43 146.689L138.86 147.756L138.921 152.641L138.899 163.799V206.451V219.098L138.879 223.651L135.678 223.632L126.016 222.569ZM126.016 278.116V224.057L135.678 224.988L138.841 225.695L138.902 228.521L138.898 235.712V260.509L138.92 266.709L138.87 269.829L134.687 272.226L126.016 278.116ZM138.898 328.702C115.514 322.314 112.84 286.873 132.457 274.845C134.436 273.632 136.626 272.213 138.898 271.668C138.99 272.836 139.53 274.499 138.892 275.583C138.26 276.655 136.443 277.221 135.43 277.887C133.291 279.294 131.244 280.924 129.526 282.827C124.922 287.929 122.88 294.355 123.047 301.177C123.201 307.499 126.27 313.219 130.727 317.535C132.27 319.03 134.082 320.301 135.926 321.399C136.802 321.921 138.104 322.295 138.739 323.13C139.415 324.017 139.21 327.608 138.898 328.702ZM126.016 321.015L131.962 325.866L139.146 329.446C137.714 337.169 138.886 346.137 138.899 353.996C138.902 356.373 140.111 361.125 138.749 363.16C137.02 365.743 130.933 365.509 128.774 363.591C127.628 362.573 127.167 360.652 126.871 359.203C125.788 353.902 126.016 348.462 126.016 343.085V321.015ZM125.52 144.21L112.142 145.574L102.48 148.425C107.168 130.872 106.157 112.507 108.642 94.6151C109.374 89.3383 110.429 84.0934 111.964 78.9928C112.588 76.921 113.095 74.311 114.372 72.5455C115.087 74.9682 115.351 78.9921 114.867 81.4726C118.164 81.6718 122.693 78.6989 125.768 77.5049L125.768 87.9198C125.768 89.4258 126.116 91.4439 125.622 92.8793C124.965 94.7905 123.065 96.4935 122.116 98.3347C119.839 102.752 118.644 107.746 118.585 112.717C118.523 117.87 119.253 123.112 121.386 127.844C122.427 130.152 124.573 132.198 125.375 134.539C126.293 137.223 125.52 141.373 125.52 144.21ZM125.52 222.569L79.4403 225.793C79.4403 214.626 78.7377 202.449 81.6736 191.573C82.5414 188.358 84.3424 185.366 85.8149 182.398C88.2283 177.532 90.5762 172.629 93.0049 167.767C95.1609 163.451 97.2206 159.066 99.6118 154.873C100.41 153.473 100.964 151.214 102.298 150.249C108.309 145.899 118.444 145.698 125.52 145.698V222.569ZM125.371 224.413C125.974 225.602 125.52 227.949 125.52 229.265V241.167V266.957C125.52 270.526 126.403 275.439 125.393 278.86C124.836 280.748 122.944 282.33 122.001 284.067C120.325 287.151 118.995 292.437 115.611 294.054C112.005 295.777 107.387 292.015 104.71 289.986C99.2983 285.885 94.3883 281.175 89.5977 276.38C86.5014 273.28 82.8837 269.65 80.8571 265.717C79.6371 263.349 80.1386 260.109 79.8937 257.534C79.2263 250.514 79.1925 243.514 79.1925 236.456V229.761C79.1928 229.048 78.9912 227.8 79.6242 227.288C80.5489 226.539 83.4653 226.829 84.6429 226.775C88.9157 226.581 93.2666 226.405 97.5255 225.999C104.606 225.325 111.705 224.069 118.831 224.057C120.149 224.057 124.651 222.993 125.371 224.413ZM112.638 354.739L113.629 362.923C109.766 362.922 108.394 360.153 107.333 356.723C105.546 350.945 104.673 345.025 103.47 339.117C101.721 330.527 97.3898 322.565 93.9145 314.568C87.3817 299.535 81.3924 284.582 80.679 267.949C83.812 270.369 86.4017 274.591 89.1299 277.539C93.4581 282.216 98.4365 286.463 103.41 290.432C106.401 292.818 111.718 297.245 115.858 295.283C117.544 294.485 118.433 292.864 119.575 291.506C119.769 292.818 119.193 294.145 119.101 295.474C118.854 299.067 118.739 302.82 119.404 306.385C120.042 309.809 121.248 312.981 122.859 316.056C123.589 317.45 124.95 318.768 125.393 320.271C125.893 321.964 125.52 324.217 125.52 325.974V337.629V348.788C125.52 349.811 125.932 352.012 125.266 352.854C124.716 353.548 122.632 353.427 121.804 353.5C118.806 353.762 115.561 354.035 112.638 354.739ZM119.691 323.247C119.058 320.505 115.68 318.992 113.392 320.865C111.721 322.232 111.354 324.469 111.909 326.47C112.673 329.226 116.079 330.436 118.29 328.564C119.775 327.306 120.112 325.069 119.691 323.247ZM117.409 207.718C117.08 206.187 114.364 206.096 113.778 207.476C113.047 209.201 113.047 215.356 113.778 217.081C114.329 218.38 116.805 218.393 117.327 217.059C117.64 216.26 117.355 215.222 117.346 214.387C117.322 212.333 117.834 209.703 117.409 207.718ZM117.445 276.413C117.015 275.006 114.439 274.892 113.813 276.201C112.942 278.02 113.629 281.568 113.629 283.571C113.629 284.301 113.463 285.302 113.778 285.982C114.368 287.251 116.857 287.006 117.333 285.776C117.66 284.931 117.37 283.949 117.349 283.075C117.301 281.088 118.017 278.287 117.445 276.413ZM117.097 126.852C116.282 126.701 115.206 126.394 114.451 126.897C113.534 127.507 113.526 130.913 114.274 131.662C116.243 133.633 117.097 130.726 117.097 129.332V126.852ZM82.6609 272.909C82.7051 278.247 84.3752 283.704 85.9102 288.779C88.8136 298.379 92.391 307.122 96.9662 316.056C99.262 320.539 101.234 326.327 104.462 330.191C105.075 326.622 104.71 322.658 104.71 319.032C104.71 314.277 105.043 309.376 104.534 304.649C104.26 302.106 105.014 299.134 103.946 296.714C103.039 294.66 101.01 292.922 99.5459 291.259C96.606 287.92 93.6628 284.564 90.5983 281.34C88.148 278.762 85.7492 274.679 82.6609 272.909ZM104.215 153.633C102.761 154.37 101.827 156.027 100.931 157.353C98.8842 160.382 97.0619 163.566 95.3159 166.776C90.5552 175.527 84.9509 185.063 82.5309 194.797C81.544 198.767 81.4494 202.894 81.1525 206.948C80.8526 211.042 80.679 215.241 80.679 219.346C80.679 220.281 80.2534 222.661 81.0762 223.307C82.1335 224.137 86.0643 223.244 87.368 223.066C92.9479 222.301 98.6248 222.285 104.215 221.578V153.633ZM103.967 227.778C98.7478 229.021 92.4861 228.544 87.1203 228.779C85.971 228.83 81.8878 228.522 81.1813 229.415C80.4308 230.363 81.1173 232.396 81.1647 233.481C81.3173 236.97 80.9267 240.419 80.9267 243.896C80.9267 250.05 79.9399 257.848 82.0136 263.734C84.2504 270.082 90.7897 275.5 96.039 279.359C98.4771 281.152 101.235 284.038 104.215 284.811V245.88V233.977L103.967 227.778ZM42.0311 419.461C45.5667 418.618 49.7989 419.213 53.4273 419.213H75.7241C78.6872 419.213 82.2475 419.751 85.1383 419.082C89.7636 418.012 88.3925 413.206 89.7472 410.075C90.265 408.878 91.8438 408.789 92.3246 407.31C92.8204 405.786 92.7514 403.555 92.0627 402.103C91.6481 401.229 90.5386 400.398 90.5774 399.375C90.6559 397.308 92.8567 395.519 93.0743 393.424C93.3412 390.855 90.0385 386.53 88.9149 384.249C88.5017 383.41 88.0934 382.053 87.2713 381.528C86.0103 380.723 83.1306 381.273 81.6699 381.273H67.5486H14.0361H-1.57166C-3.02651 381.273 -6.14876 380.682 -7.3766 381.528C-8.21111 382.103 -8.39208 383.609 -8.73422 384.497C-9.63157 386.825 -12.3549 391.451 -11.8434 393.92C-11.4725 395.71 -9.38872 397.486 -9.39257 399.304C-9.39406 400.12 -10.3902 400.914 -10.7582 401.607C-11.5021 403.008 -11.7169 405.023 -11.3495 406.566C-10.9646 408.183 -9.51762 408.678 -8.88352 410.049C-7.50753 413.024 -7.94551 416.839 -4.54457 418.648C-1.82891 420.092 2.85651 419.213 5.86063 419.213H29.8917C32.7042 419.213 37.6867 418.238 40.2602 419.363C41.3435 419.836 41.0401 421.485 41.0401 422.437C41.0401 424.129 41.3783 426.243 40.9336 427.882C40.6062 429.09 39.3228 429.939 40.1281 431.307C40.8795 432.584 42.6262 431.944 42.8336 430.619C42.9894 429.623 42.2277 428.647 42.1584 427.644C41.9772 425.021 42.5794 421.985 42.0311 419.461ZM61.6028 33.3663C67.517 33.3663 73.513 33.4725 79.4403 33.6179C81.8909 33.6781 84.8865 34.5446 87.1165 33.1197C91.0107 30.6312 89.6526 24.5472 89.8688 20.7233C89.9771 18.8068 92.428 17.4592 92.744 15.2642C92.9453 13.8662 92.8104 11.9877 91.876 10.8563C91.3481 10.2172 90.3425 10.0331 89.9948 9.25714C88.6419 6.23883 89.8189 2.3485 86.1293 0.499035C84.4438 -0.345836 81.7777 0.137787 79.9357 0.137787L66.3099 0.137787L17.2568 0.137787L2.39223 0.137787C0.358531 0.137787 -2.45032 -0.364211 -4.29665 0.613822C-7.93456 2.54095 -7.16345 6.26873 -8.76288 9.30304C-9.84861 11.3628 -11.6742 12.0459 -11.4068 14.7683C-11.1659 17.2212 -8.96264 18.7594 -8.77071 20.9676C-8.47253 24.3985 -9.64444 28.7851 -7.64651 31.856C-5.3031 35.458 2.84323 33.8622 6.60386 33.8622C10.3372 33.8622 15.6321 34.8421 19.202 33.7834C20.5528 33.3828 19.9786 31.2705 21.72 30.9432C24.1237 30.4913 26.9509 30.8866 29.3962 30.8866L44.7563 30.8866H57.3911C59.2926 30.8873 61.2593 31.145 61.6028 33.3663ZM78.9448 391.192L86.3771 382.761H86.8725C88.7629 386.754 92.8893 391.609 90.776 395.904C89.9934 397.494 89.427 399.908 87.1425 399.296C86.0636 399.008 85.1645 397.694 84.4408 396.905C82.666 394.972 80.9294 392.911 78.9448 391.192ZM91.4944 13.0327C91.8754 14.8805 91.324 17.6004 89.349 18.3383C88.0153 18.8367 86.0524 18.4879 84.6429 18.4879C80.9144 18.4879 76.9448 18.122 73.2467 18.5586C66.3799 19.3696 59.1056 18.7357 52.1885 18.7357L12.0542 18.7357C8.445 18.7357 4.75398 18.5111 1.15352 18.758C-1.51044 18.9406 -5.11291 19.6302 -7.72316 18.905C-9.16752 18.5036 -9.97011 16.6089 -10.1681 15.2642C-10.3564 13.9851 -10.2535 12.2607 -8.97793 11.5515C-7.73599 10.861 -5.43498 11.2966 -4.04908 11.2966L7.84257 11.2966L69.0351 11.2966L86.1293 11.2966C87.9667 11.2966 90.9995 10.6328 91.4944 13.0327ZM91.4858 404.831C91.5487 405.856 91.3533 407.4 90.2941 407.87C88.915 408.482 86.6261 408.054 85.1383 408.054H72.9989H11.8064H-5.04007C-7.03037 408.054 -10.0033 408.558 -10.2283 405.823C-10.3669 404.138 -10.1594 401.82 -8.48534 400.907C-7.19621 400.204 -4.98156 400.615 -3.55362 400.615H8.09031H69.5305H82.4132C84.3523 400.615 86.7202 400.248 88.6067 400.719C90.4663 401.183 91.3764 403.048 91.4858 404.831ZM88.8545 9.80876L23.6981 9.80876L3.13546 9.80876L-7.26974 10.0568C-7.94677 7.37338 -6.01817 2.60433 -3.3049 1.65263C-1.65155 1.07267 0.416218 1.37768 2.14448 1.37768L12.7976 1.37768L68.0442 1.37768L81.1746 1.37768C82.9633 1.37768 85.1641 1.08264 86.5783 2.42601C88.6335 4.37828 88.2602 7.31 88.8545 9.80876ZM84.643 32.6223L84.3953 19.9757H88.6069C88.9363 24.1538 89.9836 31.3787 84.643 32.6223ZM-7.76508 409.542L-7.51733 409.294L6.35626 409.542H32.617H68.5397L88.3591 409.294C89.0091 411.66 88.112 416.385 85.6118 417.475C84.1571 418.109 81.9897 417.723 80.4314 417.725H69.2829H12.0544C8.34804 417.725 4.60856 417.581 0.905925 417.744C-0.999022 417.828 -3.19552 418.183 -4.78146 416.884C-6.81484 415.217 -7.29259 411.979 -7.76508 409.542ZM85.8817 382.761L78.6972 390.448H78.2017L71.2649 382.761L81.1746 382.513L85.8817 382.761ZM85.8817 399.375H70.7694C72.305 396.492 76.0403 393.065 78.6972 391.192L85.8817 399.375ZM-3.8012 44.2771V52.9561H19.2389L66.31 52.9561L79.4404 52.9561L84.2458 52.8697L84.643 50.9724L84.4935 44.6424L79.4404 44.2771L63.3371 44.2771L-3.8012 44.2771ZM84.3953 70.8102C76.8373 69.3849 69.1631 68.5968 61.6029 67.1861C59.8412 66.8574 58.5665 65.2758 56.8958 65.0363C52.6798 64.4317 47.7983 65.1069 43.5177 65.1069C37.1746 65.1069 30.5073 64.5043 24.1937 65.133C22.3959 65.312 21.0198 66.7836 19.2389 67.173C12.0277 68.7501 3.80878 70.737 -3.55345 71.0584L-3.55345 122.389C-3.55345 130.786 -4.30451 139.573 -3.52766 147.93C-3.26103 150.798 -2.1259 153.728 -1.57613 156.567C0.373399 166.636 3.0558 176.636 4.69181 186.757C5.64973 192.683 5.3607 198.975 5.62277 204.964C6.07107 215.211 6.40555 225.437 6.35606 235.713C6.28694 250.055 6.43833 264.832 5.07546 279.108C3.31961 297.502 -1.92285 315.53 -3.75896 333.91C-4.7534 343.865 -3.80119 354.402 -3.80119 364.411C3.98688 365.418 11.6524 367.33 19.4867 368.089C26.2924 368.748 33.4572 368.131 40.297 368.131C47.7315 368.131 55.453 368.716 62.8416 367.924C68.0866 367.362 73.2744 366.586 78.4494 365.552C79.8938 365.263 82.9076 365.265 83.9919 364.199C84.8603 363.345 84.3953 360.357 84.3953 359.204V344.821C84.3953 323.927 78.8812 302.972 75.8286 282.332C75.072 277.216 75.1965 272.107 74.9713 266.958C74.458 255.224 74.2567 243.513 74.2378 231.746C74.22 220.693 74.2028 209.567 74.9589 198.517C75.2396 194.414 74.9212 190.195 75.5499 186.118C77.0738 176.239 80.1813 166.344 82.4714 156.61C83.0631 154.095 84.0425 151.483 84.3496 148.922C85.1869 141.941 84.3953 134.384 84.3953 127.349C84.3953 108.575 83.5062 89.5572 84.3953 70.8102ZM83.8998 32.6228L81.1746 32.3748V32.1268H83.6521V20.2241H72.7514L81.1746 19.7282L83.8222 20.3029L83.8998 23.9437V32.6228ZM-3.30568 52.4607V44.7734L84.1475 44.7734C84.1475 46.419 84.9251 50.7586 83.8929 52.063C83.1361 53.0195 79.8184 52.4607 78.6972 52.4607L62.8416 52.4607L-3.30568 52.4607ZM83.7381 4.60559C82.813 1.74462 74.1053 2.15489 75.3708 6.58457C76.2699 9.73172 85.2868 9.39562 83.7381 4.60559ZM83.4213 14.2863C83.0008 12.7337 80.7753 13.468 81.3289 15.0021C81.848 16.4406 83.7999 15.6844 83.4213 14.2863ZM83.4681 412.777C82.9104 411.407 81.4129 411.527 80.1836 411.526C77.699 411.526 73.9131 411.8 75.4127 415.483C76.0021 416.931 77.6631 416.734 78.9449 416.734C81.4533 416.734 84.9372 416.385 83.4681 412.777ZM83.2967 5.1013C84.2588 8.55748 76.4379 8.56797 75.8326 6.3316C74.8772 2.8014 82.6642 2.82937 83.2967 5.1013ZM83.2192 404.143C82.5665 402.683 80.807 403.995 81.3279 405.289C81.9314 406.789 83.8311 405.511 83.2192 404.143ZM83.2774 413.758C83.8579 417.179 76.2357 417.259 75.781 414.745C75.1391 411.196 82.8549 411.268 83.2774 413.758ZM83.1565 147.681H82.9088L67.2528 96.8467L61.3896 77.7528L58.3823 67.5859C63.7978 69.7057 70.4581 70.0291 76.2197 70.8419C77.6439 71.0428 81.9938 71.0424 82.9019 72.1989C83.7098 73.2276 83.1565 76.2382 83.1565 77.5048V91.8873V147.681ZM83.0491 334.38C82.9967 335.7 80.693 336.671 79.6881 337.225C75.9169 339.305 71.9965 340.78 67.7965 341.702C58.5114 343.74 48.5172 342.837 39.0583 342.837C31.2122 342.837 22.7375 343.679 15.0273 341.987C10.3446 340.96 5.68188 339.554 1.40139 337.354C0.057895 336.664 -2.49202 335.956 -2.52577 334.156C-2.59704 330.355 -1.28976 326.246 -0.68912 322.503C0.809222 313.165 2.43446 303.838 3.81153 294.482C4.29907 291.169 4.90583 287.88 5.36529 284.563C5.50549 283.551 5.51411 281.3 6.29242 280.58C7.10269 279.829 9.02262 279.694 10.0724 279.461C13.2588 278.752 16.4938 277.969 19.7344 277.581C25.9621 276.835 32.2938 277.124 38.5628 277.124C45.3226 277.124 52.1419 276.877 58.8777 277.349C62.7819 277.623 66.4772 278.543 70.2739 279.441C71.3977 279.707 73.4511 279.709 74.1971 280.722C74.9221 281.706 74.8573 283.633 75.0774 284.811C75.7365 288.339 76.2359 291.927 76.7833 295.474C78.1486 304.322 79.5553 313.177 81.0347 322.007C81.6829 325.876 83.2044 330.465 83.0491 334.38ZM-2.56249 363.418C-3.79688 356.763 -2.81023 349.11 -2.81023 342.341C-2.81023 340.357 -2.43411 338.07 -2.81023 336.141C-0.452411 335.984 2.87228 338.622 5.11753 339.514C10.2545 341.554 15.4855 342.768 20.9731 343.29C28.9159 344.047 37.2701 343.333 45.2519 343.333C52.0546 343.333 59.3655 344.054 66.0623 342.672C69.8007 341.9 73.5141 340.825 76.963 339.171C78.9845 338.201 81.0147 336.45 83.1565 335.894V355.731C83.1565 357.379 83.9268 361.672 82.9019 362.99C82.035 364.105 78.7731 364.098 77.4584 364.361C72.0112 365.451 66.4179 366.509 60.8597 366.646C48.2067 366.957 35.1096 367.735 22.4595 366.868C14.0838 366.294 5.7781 363.777 -2.56249 363.418ZM82.1656 147.434C75.0044 144.809 68.941 139.6 61.3552 137.773C55.8252 136.441 49.4266 137.267 43.7654 137.267C35.2634 137.267 25.4657 135.909 17.2569 138.367C10.3282 140.443 4.7118 144.933 -1.81926 147.682C-0.947172 141.231 2.28287 134.276 4.35558 128.092C8.60019 115.427 12.3313 102.588 16.5139 89.9038C18.3346 84.3824 20.1274 78.8499 21.8241 73.2896C22.521 71.0058 23.5967 68.7133 23.946 66.3463H38.5628C38.5006 67.7751 37.1232 70.2768 37.7732 71.544C39.4986 74.9078 44.5918 75.3807 45.8225 71.296C46.2053 70.0256 45.1481 67.8204 44.7564 66.5943L54.1706 66.3463L57.4274 66.9211L59.746 74.0335L64.9287 90.8957L77.1415 130.571L82.1656 147.434ZM79.9359 146.938C75.5376 146.499 71.2611 144.685 66.8055 144.252C60.2315 143.613 53.582 144.12 46.9861 143.958C36.6303 143.705 25.8434 142.74 15.5227 143.756C10.3512 144.265 5.44193 146.031 0.410436 147.186V146.938C6.86406 142.984 14.1666 139.066 21.7163 137.843C29.0065 136.662 37.3642 137.763 44.7564 137.763C49.4173 137.763 54.5125 137.179 59.1255 137.837C63.6736 138.486 67.8951 140.741 72.0081 142.646C74.6028 143.847 77.7297 145.108 79.9359 146.938ZM70.5217 398.383L70.5217 383.256L76.2197 388.712L77.7257 390.944L75.972 393.175L70.5217 398.383ZM77.3533 313.328C76.3337 305.555 74.8682 297.887 72.9677 290.266C72.4953 288.372 72.3088 283.888 70.8686 282.544C70.051 281.78 68.1159 281.704 67.0533 281.488C63.8657 280.841 60.6632 280.101 57.3913 280.1H23.6983C20.285 280.1 16.8963 280.628 13.5408 281.234C12.513 281.42 10.5445 281.397 9.80843 282.229C9.10909 283.02 9.03847 284.562 8.83294 285.555C8.31819 288.042 7.69771 290.518 7.12893 292.994C5.11474 301.762 3.38335 310.515 3.38335 319.527C3.38335 321.826 3.03485 324.438 3.42006 326.704C3.70687 328.391 7.57133 327.462 8.8337 327.462H26.1757H64.5758C67.7113 327.462 70.8555 327.393 73.9901 327.462C74.8343 327.482 76.5669 328.03 77.2038 327.269C77.8447 326.503 77.4585 324.435 77.4585 323.491C77.4585 320.159 77.7868 316.629 77.3533 313.324M74.2378 278.856L58.8778 275.89L37.3241 275.88L21.9641 275.923L6.10853 278.856L6.61376 269.433L7.10045 251.331L7.33748 214.631L5.86077 186.858L19.7344 184.897L37.8196 184.874L60.3642 184.884L74.2378 186.858L73.0027 218.847L73.4909 255.299L74.2378 278.856ZM72.0081 20.2197H70.7694V19.9718L72.0081 20.2197ZM70.2739 21.7075L10.0724 21.7075V20.2197L70.2739 19.9718V21.7075ZM70.1233 22.7781C70.9047 24.4377 68.7792 24.4348 67.7965 24.4353L58.1345 24.4353L21.7163 24.4353H13.0453C12.2603 24.4353 10.6844 24.734 10.2575 23.8607C9.50621 22.3238 11.3119 22.2055 12.3021 22.2035H20.9731L57.1435 22.2035L66.8055 22.2035C67.6513 22.2035 69.6762 21.8286 70.1233 22.7781ZM10.0724 24.9312L70.2739 24.9312L69.8767 26.9081L66.8055 27.163L59.1255 27.163L22.7073 27.163H13.7885L10.4696 26.9081L10.0724 24.9312ZM70.2739 32.1224H62.5939C61.2499 28.7242 56.8729 29.3948 53.9229 29.3948L28.1576 29.3948C25.0514 29.3948 19.7367 28.251 18.9911 32.3705L10.3201 32.6184C10.0446 31.6854 9.5637 28.6091 10.4723 27.9101C11.2134 27.3401 12.9059 27.6589 13.7885 27.6589H22.2118L58.63 27.6589L67.0533 27.6589C67.8339 27.6589 69.466 27.3573 70.0193 28.0565C70.6882 28.9019 70.2739 31.0891 70.2739 32.1224ZM69.5307 387.716C66.163 388.713 61.6473 387.965 58.1345 387.965C58.0982 384.896 53.9858 385.981 51.6932 385.981H30.3873C28.0025 385.981 22.9927 384.781 22.955 387.965H10.8156L11.0703 382.907L14.7795 382.509H25.1847H69.2829L69.5307 387.716ZM69.5307 395.9H55.4093H26.9189L11.0634 396.148L10.8156 388.46H22.955C23.1598 391.147 27.4124 390.196 29.3963 390.196H50.7022C52.7808 390.196 57.9216 391.254 58.1345 388.46H66.31L69.2761 388.858L69.5307 395.9ZM69.5307 399.123L63.0894 399.371H50.95H10.8156V396.644H55.6571H65.5668L69.1333 396.898L69.5307 399.123ZM61.4978 207.192C61.0802 204.047 60.1093 201.149 57.1435 199.513C54.6948 198.163 51.9097 198.513 49.2158 198.513L34.3512 198.513C30.5697 198.513 25.4709 197.583 22.2118 199.911C17.8426 203.032 18.4957 208.686 18.4957 213.391C18.4957 215.338 18.2945 217.413 18.57 219.342C20.108 230.117 32.3156 227.526 40.297 227.526C45.0227 227.526 52.3164 228.893 56.6481 226.841C63.0542 223.806 62.2827 213.103 61.4978 207.192ZM61.0367 207.192C61.7104 212.83 62.596 223.15 56.6481 226.157C52.227 228.393 44.9048 227.03 40.0493 227.03C33.5644 227.03 20.511 229.555 19.2836 220.334C18.5345 214.706 17.2223 203.839 22.7494 200.306C25.955 198.258 30.4827 199.009 34.1035 199.009H47.4816C54.0507 199.009 60.0863 199.238 61.0367 207.192ZM57.3913 389.7H23.6983L23.4505 386.725L34.3512 386.477H57.3913V389.7ZM55.1545 13.7094C54.2289 12.5737 52.5791 14.302 53.5771 15.3959C54.5984 16.5153 55.9417 14.6754 55.1545 13.7094ZM55.2216 404.14C54.6003 402.702 52.6022 403.975 53.2473 405.286C53.9727 406.76 55.8124 405.507 55.2216 404.14ZM46.7383 258.77C44.138 260.038 41.878 263.801 39.9786 265.962C39.0708 266.994 38.0997 267.796 37.8196 269.185L43.5186 262.843L46.7383 258.77ZM39.8015 66.8388H43.7654C44.056 68.1074 45.0849 70.0735 44.3494 71.2986C43.0323 73.4925 39.7532 73.6026 39.0031 70.8027C38.6902 69.6348 39.54 67.9809 39.8015 66.8388ZM27.4226 14.5173C27.3348 13.0928 25.2581 13.0355 25.2581 14.5173C25.2581 16.1004 27.5235 16.1534 27.4226 14.5173ZM27.2267 404.139C26.5948 402.671 24.5886 403.925 25.2744 405.286C26.0137 406.754 27.8106 405.496 27.2267 404.139ZM23.4505 67.3347L20.2228 77.0057L14.3473 95.3557L-2.06699 146.686H-2.31474L-2.31474 93.372V78.7415C-2.31474 77.1241 -2.90137 74.1022 -2.16525 72.6497C-1.5792 71.4932 2.43006 71.4491 3.63109 71.2403C8.74738 70.3505 13.8512 69.286 18.9911 68.542C20.3856 68.3402 22.1527 66.9795 23.4505 67.3347ZM9.82467 398.875C7.41912 397.752 5.72345 395.025 3.87884 393.172C3.31839 392.609 2.2143 391.819 2.19223 390.941C2.16934 390.031 3.35806 389.18 3.93103 388.597C5.60051 386.898 7.53032 383.743 9.82467 383.005V398.875ZM9.57692 32.3705L-2.56248 32.6184C-3.55792 29.2475 -2.81022 24.7277 -2.81022 21.2116H-2.56248V32.1224C0.853378 32.1224 6.44248 31.0539 9.57692 32.3705ZM8.83369 383.005C6.54789 385.293 4.0997 389.069 1.15366 390.444L-5.78313 382.757L4.86981 382.509L8.83369 383.005ZM8.83369 399.371H-6.03088C-4.96684 397.087 -0.560971 392.127 1.89689 391.436L8.83369 399.371ZM5.20262 4.84628C4.26276 1.76645 -4.62526 2.04059 -3.24645 6.58007C-2.30109 9.69241 6.55129 9.26592 5.20262 4.84628ZM4.93364 413.011C3.79505 410.071 -4.94571 410.667 -3.34183 415.237C-2.32311 418.14 6.73208 417.654 4.93364 413.011ZM4.63716 6.3284C4.21143 8.47096 -3.43192 8.70039 -2.75346 5.10428C-2.32096 2.81196 5.34179 2.78228 4.63716 6.3284ZM4.49456 413.272C5.75478 417.176 -2.12987 417.288 -2.85515 414.979C-4.03073 411.237 3.86159 411.312 4.49456 413.272ZM-34.2736 68.0787H-34.5213L-35.5123 79.9814C-37.6385 78.7702 -42.8843 78.0287 -44.1764 75.9457C-44.8396 74.8765 -44.2437 73.2049 -44.1931 72.0462C-44.0649 69.1178 -43.3013 64.0104 -44.7786 61.4066C-46.3197 58.6904 -50.7509 59.4478 -53.3498 59.0771C-54.6488 58.8919 -55.826 58.4823 -56.9906 59.3695C-58.5597 60.5649 -58.902 63.2676 -59.0479 65.103L-65.7369 68.4888L-67.8171 70.1432L-67.9666 75.5179V88.4125C-52.7856 90.3429 -41.0625 101.955 -43.5488 117.921C-44.7752 125.797 -49.1886 132.305 -56.3227 135.996C-59.1171 137.442 -61.9422 138.282 -64.9937 138.969C-65.8515 139.163 -67.5749 139.026 -67.8879 140.048C-68.9687 143.576 -67.9666 148.936 -67.9666 152.638V180.907V274.145C-60.8522 275.614 -54.1209 278.569 -49.1804 284.064C-41.8235 292.246 -41.0297 305.995 -48.5232 314.387C-52.0475 318.334 -56.3888 321.022 -61.2776 322.945C-62.6182 323.472 -67.2025 324.035 -67.8171 325.305C-68.83 327.398 -67.8271 331.407 -67.7286 333.658C-67.4412 340.228 -68.5546 346.98 -67.9246 353.496C-67.6924 355.898 -66.8298 357.724 -64.4982 358.699C-63.1967 359.243 -61.4333 359.356 -60.3653 360.352C-58.7524 361.857 -59.4879 364.18 -57.0659 365.509C-54.3655 366.99 -48.5722 366.759 -46.5711 364.146C-44.7006 361.703 -44.2448 357.471 -44.1833 354.488L-33.0349 355.976L-34.0258 363.663C-26.8093 367.709 -24.4815 354.546 -23.4595 350.025C-22.3189 344.979 -22.0144 339.541 -20.2914 334.65C-14.6728 318.702 -5.01939 303.959 -1.57077 287.287C2.65345 266.866 2.67199 246.501 2.6401 225.79C2.62226 214.212 3.52066 201.278 0.0546759 190.082C-0.929597 186.902 -2.85534 183.903 -4.29058 180.907C-7.31001 174.604 -10.2781 168.243 -13.537 162.061C-16.8318 155.81 -20.2371 149.926 -21.7813 142.967C-27.22 118.455 -21.7932 90.8872 -34.2736 68.0787ZM-44.6788 222.318L-44.431 213.639V197.521V145.694C-38.7219 145.694 -33.0864 146.21 -27.5845 147.821C-25.5037 148.43 -22.9333 149.003 -21.2112 150.397C-20.0636 151.327 -19.5147 153.331 -18.8495 154.621C-17.268 157.688 -15.5986 160.709 -14.0573 163.796C-11.4203 169.079 -8.84926 174.388 -6.21211 179.667C-4.45666 183.181 -2.22831 186.824 -1.04833 190.578C0.0904104 194.2 0.34445 197.994 0.700226 201.736C1.25121 207.532 1.26295 213.276 1.40502 219.095C1.44092 220.564 2.39575 224.156 1.39373 225.392C0.854811 226.057 -0.59581 225.571 -1.32379 225.545C-3.96598 225.448 -6.61107 225.172 -9.25157 225.056C-17.3135 224.702 -25.2562 223.621 -33.2826 222.856C-36.8912 222.512 -41.2147 223.343 -44.6788 222.318ZM-44.6788 224.054C-41.7193 223.349 -38.2681 224.074 -35.2646 224.28C-27.285 224.827 -19.236 226.234 -11.2335 226.286C-8.15245 226.306 -4.88095 226.491 -1.81928 226.853C-1.02516 226.946 0.583817 226.771 1.21748 227.285C1.93131 227.863 1.64912 229.449 1.64912 230.253V238.188C1.64912 243.923 1.41329 249.587 1.16338 255.299C1.03519 258.229 1.44151 262.199 0.455527 264.97C-0.392884 267.354 -2.5443 269.525 -4.15488 271.417C-10.289 278.624 -17.4485 285.404 -25.1071 290.969C-27.7541 292.893 -32.2708 295.976 -35.5087 293.608C-38.3996 291.494 -39.7232 286.629 -41.4012 283.568C-42.249 282.021 -44.02 280.528 -44.5096 278.853C-44.874 277.605 -44.4311 275.941 -44.4311 274.641V264.474V237.445C-44.4311 233.207 -43.6974 228.18 -44.6788 224.054ZM-8.01285 399.371L-10.5895 393.668L-9.57825 390.196L-6.77413 382.757C-4.67994 384.234 -3.12622 386.407 -1.32379 388.212C-0.690935 388.846 0.564554 389.733 0.677658 390.692C0.789068 391.637 -0.434674 392.538 -1.00168 393.149C-2.8055 395.093 -5.29963 398.952 -8.01285 399.371ZM-23.3729 153.63V221.574L0.162663 223.558C0.162663 213.889 0.576419 203.493 -1.79329 194.049C-3.93902 185.498 -8.97466 176.959 -13.139 169.252C-15.1769 165.48 -17.1831 161.686 -19.5317 158.093C-20.5725 156.501 -21.6654 154.562 -23.3729 153.63ZM-32.7871 362.919C-32.5675 361.18 -31.1093 356.554 -32.0544 355.063C-32.6121 354.183 -34.5931 354.312 -35.5123 354.202C-38.5711 353.834 -41.6229 353.387 -44.6788 353L-44.6788 331.179C-44.6788 327.821 -45.3066 323.756 -44.5838 320.474C-44.0245 317.934 -41.3514 315.348 -40.3316 312.829C-37.671 306.254 -37.2099 298.351 -38.9807 291.503C-36.9651 292.647 -36.4335 295.171 -33.7781 295.637C-29.6003 296.37 -25.3895 292.653 -22.3819 290.264C-17.3765 286.287 -12.3877 282.072 -8.05127 277.359C-5.60845 274.704 -2.89735 269.993 0.162663 268.193C-0.185272 285.063 -6.91637 300.363 -13.4313 315.556C-16.8822 323.604 -21.1062 331.438 -22.726 340.106C-23.8428 346.082 -24.7361 352.232 -26.8547 357.96C-27.9118 360.818 -29.4733 363.311 -32.7871 362.919ZM-23.3729 228.022V284.808C-20.1224 284.16 -16.7355 280.637 -14.2064 278.608C-9.412 274.763 -3.59544 270.117 -1.26454 264.226C1.09028 258.274 -0.0850878 250.176 -0.0850878 243.892C-0.0850878 240.5 -0.326368 237.108 -0.205504 233.729C-0.166039 232.624 0.389895 230.333 -0.339711 229.411C-1.03713 228.53 -5.14388 228.797 -6.27866 228.769C-11.9823 228.627 -17.6586 228.022 -23.3729 228.022ZM-0.835393 13.8512C-1.67375 12.595 -3.24353 14.0385 -2.55448 15.2223C-1.72015 16.6558 -0.0152254 15.0802 -0.835393 13.8512ZM-0.83985 404.12C-1.66425 402.625 -3.51116 404.183 -2.69334 405.492C-1.87918 406.795 -0.170714 405.333 -0.83985 404.12ZM-1.81935 272.905C-3.74855 274.034 -5.25939 276.478 -6.78031 278.112C-10.5755 282.189 -14.3214 286.321 -17.9932 290.511C-19.6468 292.398 -22.4958 294.76 -23.2468 297.206C-24.2597 300.505 -23.6207 304.702 -23.6207 308.117V329.939C-22.277 328.783 -21.6172 326.794 -20.8288 325.227C-19.4901 322.566 -18.0806 319.913 -16.664 317.292C-11.5888 307.9 -7.66402 298.295 -4.75747 288.031C-3.37089 283.135 -1.81935 278.017 -1.81935 272.905ZM-7.51744 20.2197C-6.56845 20.2197 -4.21355 19.7919 -3.56043 20.6173C-3.07993 21.2246 -3.30581 22.4737 -3.30581 23.1954V29.6427C-3.30581 30.3506 -3.07447 31.6285 -3.56043 32.2171C-4.22279 33.0195 -5.6963 32.0928 -6.22577 31.5708C-7.79786 30.0209 -7.51744 27.4398 -7.51744 25.4271V20.2197ZM-21.6388 148.67C-27.0594 146.444 -32.4278 145.216 -38.2376 144.525C-40.3475 144.274 -42.6363 144.605 -44.6789 144.207C-43.9488 141.137 -45.3686 137.451 -44.4663 134.536C-43.7939 132.363 -41.6927 130.45 -40.7222 128.336C-38.2243 122.896 -37.3566 116.936 -37.7642 110.978C-38.052 106.773 -39.0079 102.308 -41.0401 98.5794C-42.0799 96.6718 -44.0266 94.8915 -44.7463 92.876C-45.2624 91.4309 -44.9266 89.4347 -44.9266 87.9165V77.7496L-34.0259 81.4692L-33.7782 72.5422L-31.5839 77.2536L-28.2659 91.3881L-25.0653 126.848L-23.4686 140.487L-21.6388 148.67ZM-33.0418 207.118C-33.7845 206.134 -35.8741 206.341 -36.3539 207.473C-37.1639 209.384 -36.5034 212.811 -36.5034 214.879C-36.5034 215.612 -36.72 216.808 -36.2487 217.432C-35.5061 218.416 -33.4165 218.209 -32.9367 217.078C-32.1267 215.167 -32.7872 211.74 -32.7872 209.672C-32.7872 208.939 -32.5705 207.742 -33.0418 207.118ZM-33.0418 275.987C-33.7063 275.007 -35.8551 275.072 -36.3539 276.185C-37.2092 278.094 -36.5035 281.729 -36.5034 283.816C-36.5033 284.527 -36.6757 285.567 -36.2487 286.188C-35.6176 287.106 -33.4079 287.037 -32.9367 285.991C-32.0792 284.087 -32.7871 280.443 -32.7872 278.36C-32.7873 277.645 -32.6173 276.613 -33.0418 275.987ZM-33.0351 126.848C-33.8502 126.697 -34.9266 126.39 -35.6816 126.893C-36.577 127.489 -36.5992 130.855 -35.9637 131.659C-34.2036 133.883 -33.0352 130.61 -33.0351 129.328V126.848ZM-58.0572 142.719C-58.0572 141.575 -58.4799 139.384 -57.8025 138.413C-56.9564 137.201 -54.3586 136.427 -53.1023 135.603C-50.5455 133.927 -48.1461 131.652 -46.4733 129.08C-40.5478 119.973 -40.3941 106.262 -47.284 97.5878C-50.2556 93.8464 -54.1383 91.5475 -58.3049 89.4046L-58.0572 85.4371C-50.4038 87.611 -44.0905 92.75 -40.7924 100.068C-33.9157 115.325 -40.1512 138.571 -58.0572 142.719ZM-58.0572 328.699C-58.0572 327.21 -58.5454 324.698 -57.9077 323.341C-57.4546 322.376 -55.7114 321.809 -54.8365 321.294C-52.959 320.189 -51.1921 318.81 -49.6339 317.289C-45.3456 313.102 -42.2314 307.566 -42.2018 301.422C-42.1678 294.353 -43.8342 288.257 -48.5783 282.846C-50.2304 280.962 -52.2249 279.344 -54.341 278.011C-55.3432 277.379 -57.1544 276.805 -57.8025 275.784C-58.436 274.786 -58.0572 272.81 -58.0572 271.665C-55.5025 272.273 -53.0408 273.862 -50.8726 275.302C-32.0642 287.799 -34.8359 322.471 -58.0572 328.699ZM-45.074 113.706C-45.2722 108.217 -47.2073 102.567 -51.1624 98.622C-58.6553 91.1488 -70.9197 92.448 -76.9424 101.059C-80.1757 105.682 -81.0821 110.903 -80.8398 116.434C-80.7242 119.073 -79.8898 121.737 -78.7909 124.121C-77.7844 126.304 -76.3264 128.39 -74.5472 130.009C-72.9045 131.504 -71.025 132.754 -68.9578 133.588C-56.1321 138.764 -44.6269 126.09 -45.074 113.706ZM-58.0572 145.943V143.215C-52.7424 141.984 -49.4241 138.276 -45.1745 135.28L-45.1708 141.727L-45.1911 144.057L-48.3951 144.598L-58.0572 145.943ZM-44.9267 222.318L-58.0571 224.054V147.182L-45.1745 145.695V196.777V213.143L-44.9267 222.318ZM-45.4222 278.36C-47.719 275.725 -50.8022 273.83 -53.8455 272.181C-54.8693 271.626 -57.397 270.907 -57.9076 269.832C-59.0148 267.501 -58.0571 262.597 -58.0571 260.01V235.957V228.518C-58.0571 227.743 -58.3158 226.342 -57.8025 225.692C-57.3014 225.057 -55.5902 225.083 -54.8365 224.951C-51.9122 224.437 -47.8469 223.56 -44.9267 224.054L-45.1745 237.445V263.978L-45.1737 273.897L-45.4222 278.36ZM-45.2808 296.711C-45.736 293.529 -46.6791 290.54 -48.3519 287.783C-54.0152 278.452 -66.58 276.136 -74.6525 283.838C-79.6212 288.579 -81.7323 296.19 -80.7753 302.91C-80.3602 305.824 -79.4065 308.829 -77.8607 311.341C-76.5544 313.464 -74.912 315.314 -72.9219 316.821C-71.3716 317.996 -69.5821 318.948 -67.7193 319.514C-54.0641 323.67 -43.4765 309.322 -45.2808 296.711ZM-58.0573 329.195C-52.7069 327.923 -49.4369 324.017 -45.1747 321.012C-45.1747 331.344 -45.1251 341.677 -45.1749 352.009C-45.19 355.161 -45.304 361.562 -47.9937 363.731C-50.0269 365.37 -57.1426 365.952 -57.9786 362.67C-58.7832 359.512 -58.0573 355.271 -58.0573 352.009L-58.0573 329.195ZM-45.4224 92.1324C-49.2295 89.7488 -53.1317 85.1565 -58.0573 85.1891V70.5587C-58.0573 67.7997 -58.3334 64.4875 -57.2621 61.8805C-56.9776 61.1883 -56.5595 60.4767 -55.8018 60.2515C-54.7489 59.9386 -53.6424 60.4176 -52.607 60.5653C-50.4767 60.8691 -47.2858 59.9964 -45.8541 62.1411C-44.5995 64.0206 -45.4224 68.3546 -45.4224 70.5587V92.1324ZM-58.5528 89.1567L-66.7283 87.1729V75.2701C-66.7283 74.0247 -67.1643 71.7395 -66.4737 70.6554C-65.2656 68.7591 -60.7745 67.1909 -58.8006 66.0951L-58.5528 73.7823V89.1567ZM-66.7283 149.414V140.487L-58.5528 138.751C-58.5528 140.457 -57.8158 144.403 -58.8074 145.816C-59.2898 146.504 -60.531 146.685 -61.278 146.935C-63.2224 147.584 -64.8654 148.64 -66.7283 149.414ZM-66.7283 225.542V166.276V155.862C-66.7283 154.546 -67.082 152.602 -66.4737 151.399C-65.2717 149.022 -61.0135 147.786 -58.5528 147.678V206.448V219.095L-58.8074 223.908L-61.0302 224.583L-66.7283 225.542ZM-58.5528 269.681C-60.242 269.428 -65.4646 268.189 -66.4737 266.792C-67.0042 266.058 -66.7283 264.587 -66.7283 263.73V256.291V227.03L-58.8006 225.542C-57.5812 229.671 -58.5528 235.365 -58.5528 239.677V269.681ZM-58.8006 275.633L-66.4737 272.765L-66.7283 268.442C-62.5736 269.064 -57.3107 270.588 -58.8006 275.633ZM-58.5528 359.944C-60.5895 358.799 -64.7254 357.92 -66.0524 355.966C-67.4959 353.839 -66.7283 349.739 -66.7283 347.297L-66.7283 325.971L-58.8006 323.492C-57.785 326.931 -58.5528 331.56 -58.5528 335.146L-58.5528 359.944Z" fill="#304A6E"/>
</svg>
