<svg width="81" height="72" viewBox="0 0 81 72" fill="none" xmlns="http://www.w3.org/2000/svg">
<rect width="81" height="72" fill="#1A1E26"/>
<rect x="-449" y="-449" width="980" height="753" rx="4" fill="white"/>
<path d="M161.811 -176.027C160.83 -180.937 159.437 -185.408 155.888 -189.127C149.172 -196.166 137.752 -196.021 131.29 -188.673C126.619 -183.361 125 -175.925 126.375 -169.084C127 -165.975 128.233 -162.92 130.182 -160.404C131.614 -158.556 133.143 -156.963 135.183 -155.776C146.853 -148.982 159.426 -157.628 161.479 -170.075C161.805 -172.049 162.214 -174.013 161.811 -176.027ZM161.763 9.20941C160.321 3.45548 158.767 -1.78542 153.763 -5.54155C145.609 -11.6619 134.602 -8.80016 129.259 -0.461556C125.919 4.75147 125.124 11.4651 126.604 17.3925C128.601 25.3828 135.415 32.4542 144.101 32.239C153.386 32.0089 159.813 24.2527 161.423 15.6567C161.816 13.56 162.297 11.3399 161.763 9.20941ZM125.273 -211.487L116.106 -208.015L115.633 -215.951L115.115 -219.918C103.296 -195.691 108.31 -168.551 102.261 -143.046C101.05 -137.941 98.4075 -133.508 95.9849 -128.912C92.3749 -122.064 89.039 -115.049 85.6684 -108.082C84.1124 -104.866 82.0168 -101.576 80.9492 -98.1632C77.3583 -86.6831 78.2017 -73.3516 78.2017 -61.4631C78.2017 -46.5343 78.4111 -31.9201 79.894 -17.0758C80.7347 -8.65999 81.9237 0.275912 84.9383 8.21749C89.89 21.2618 96.8998 33.6587 101.269 46.9014C103.033 52.2479 103.385 58.0497 104.682 63.5156C105.969 68.9449 107.577 77.8449 114.868 75.9143L113.877 67.9791C116.465 67.3407 119.171 67.2252 121.804 66.8436C122.635 66.7232 124.16 66.2061 124.841 66.8897C125.848 67.9 125.596 71.2711 126.017 72.6905C127.45 77.5215 132.337 79.6896 137.164 77.8658C138.323 77.4279 139.651 76.5554 140.186 75.395C140.726 74.2235 140.421 72.8193 141.651 72.0491C143.584 70.8383 146.074 71.0304 147.622 69.1469C149.267 67.1447 148.808 64.1878 148.808 61.7796L148.808 44.6694C148.808 42.696 149.51 39.0925 148.659 37.3054C148.053 36.0316 143.464 35.4629 142.119 34.9509C137.555 33.2132 133.061 30.469 129.774 26.8153C121.924 18.0869 122.634 4.03114 130.498 -4.42932C135.303 -9.59979 142.006 -12.4477 148.808 -13.8523V-107.09V-135.359C148.808 -139.061 149.81 -144.42 148.73 -147.949C148.415 -148.976 146.699 -148.867 145.835 -149.019C142.981 -149.521 140.241 -150.494 137.66 -151.787C130.893 -155.176 125.986 -161.303 124.644 -168.836C121.725 -185.227 132.932 -197.532 148.808 -199.584V-212.727C148.808 -214.17 149.321 -216.854 148.554 -218.117C147.176 -220.386 142.728 -221.211 140.666 -222.854C139.034 -224.154 139.647 -226.896 138.113 -228.456C136.952 -229.638 135.604 -229.042 134.192 -228.888C131.507 -228.597 127.407 -229.236 125.704 -226.61C124.839 -225.276 125.025 -223.415 125.025 -221.902C125.025 -218.422 125.273 -214.973 125.273 -211.487ZM147.57 -200.824L139.394 -198.841L139.642 -221.654C141.568 -221.044 146.498 -218.947 147.487 -217.138C148.145 -215.934 147.817 -213.584 147.817 -212.231C147.817 -208.418 147.57 -204.625 147.57 -200.824ZM147.817 -138.583L142.119 -141.098L139.667 -142.181L139.394 -149.246L147.57 -147.51L147.817 -138.583ZM147.817 -62.4551L139.394 -63.943C140.685 -83.2161 139.642 -102.892 139.642 -122.217C139.642 -126.798 140.001 -131.554 139.465 -136.103C139.359 -136.999 138.913 -139.991 140.194 -140.194C141.062 -140.332 142.297 -139.721 143.11 -139.447C144.53 -138.968 146.559 -138.227 147.315 -136.825C147.894 -135.751 147.802 -133.6 147.816 -132.384C147.855 -129.161 147.817 -125.936 147.817 -122.713V-82.293C147.817 -75.7602 147.243 -68.9543 147.817 -62.4551ZM139.394 -18.3158L139.642 -38.6497L139.394 -62.2071L139.642 -62.4551L147.569 -60.9673C147.57 -51.4843 147.817 -41.9544 147.817 -32.4503C147.817 -29.5723 148.899 -23.9103 147.459 -21.3604C146.614 -19.8631 141.048 -18.4852 139.394 -18.3158ZM147.569 -14.8442L139.394 -12.6124V-16.58L147.569 -19.5557V-14.8442ZM139.642 71.9465V64.0114V46.9012L139.642 35.4944L147.569 37.9742L147.569 59.2999C147.569 61.758 148.328 65.7826 147.005 67.9556C145.614 70.2402 141.658 70.2042 139.642 71.9465ZM138.898 -202.808C133.575 -202.343 130.647 -197.991 126.264 -195.865C126.264 -203.15 126.275 -210.434 126.264 -217.687C126.26 -219.89 125.452 -224.182 126.781 -226.049C128.107 -227.911 131.533 -227.195 133.448 -227.401C134.429 -227.506 135.419 -227.955 136.417 -227.793C137.243 -227.659 137.73 -227.094 138.065 -226.362C139.552 -223.112 138.936 -219.129 138.899 -215.703C138.855 -211.548 139.57 -206.883 138.898 -202.808ZM138.899 -145.278C120.927 -149.541 114.442 -173.436 122.005 -188.674C125.52 -195.756 131.522 -200.158 138.899 -202.56C140.16 -197.415 134.741 -196.582 131.466 -193.775C127.52 -190.392 124.772 -185.845 123.703 -180.739C122.045 -172.817 123.371 -163.861 128.494 -157.429C130.308 -155.152 132.473 -153.326 134.935 -151.782C136.02 -151.102 138.156 -150.501 138.842 -149.391C139.425 -148.448 139.183 -146.286 138.899 -145.278ZM139.146 -142.055L125.768 -143.79C126.381 -146.365 126.381 -150.143 125.768 -152.717L130.971 -148.608L139.146 -144.534V-142.055ZM126.016 -65.4308V-142.303L135.43 -141.311L138.86 -140.244L138.921 -135.359L138.899 -124.201V-81.549V-68.9024L138.879 -64.3494L135.678 -64.368L126.016 -65.4308ZM126.016 -9.88441V-63.9427L135.678 -63.0118L138.841 -62.3052L138.902 -59.4792L138.898 -52.2879V-27.4906L138.92 -21.2912L138.87 -18.1712L134.687 -15.7743L126.016 -9.88441ZM138.898 40.7022C115.514 34.3137 112.84 -1.12675 132.457 -13.1549C134.436 -14.3682 136.626 -15.7868 138.898 -16.3318C138.99 -15.1637 139.53 -13.5011 138.892 -12.417C138.26 -11.3452 136.443 -10.7791 135.43 -10.1129C133.291 -8.70569 131.244 -7.07642 129.526 -5.17295C124.922 -0.0710656 122.88 6.35471 123.047 13.1771C123.201 19.4989 126.27 25.2186 130.727 29.5346C132.27 31.0298 134.082 32.3006 135.926 33.3986C136.802 33.9207 138.104 34.2955 138.739 35.1301C139.415 36.0174 139.21 39.6081 138.898 40.7022ZM126.016 33.015L131.962 37.8658L139.146 41.4461C137.714 49.1689 138.886 58.1373 138.899 65.9955C138.902 68.3728 140.111 73.1254 138.749 75.1598C137.02 77.7432 130.933 77.5087 128.774 75.5913C127.628 74.5732 127.167 72.6517 126.871 71.2029C125.788 65.902 126.016 60.4624 126.016 55.0846V33.015ZM125.52 -143.79L112.142 -142.426L102.48 -139.575C107.168 -157.128 106.157 -175.493 108.642 -193.385C109.374 -198.662 110.429 -203.907 111.964 -209.007C112.588 -211.079 113.095 -213.689 114.372 -215.454C115.087 -213.032 115.351 -209.008 114.867 -206.527C118.164 -206.328 122.693 -209.301 125.768 -210.495L125.768 -200.08C125.768 -198.574 126.116 -196.556 125.622 -195.121C124.965 -193.209 123.065 -191.506 122.116 -189.665C119.839 -185.248 118.644 -180.254 118.585 -175.283C118.523 -170.13 119.253 -164.888 121.386 -160.156C122.427 -157.848 124.573 -155.802 125.375 -153.461C126.293 -150.777 125.52 -146.627 125.52 -143.79ZM125.52 -65.4305L79.4403 -62.2068C79.4403 -73.3744 78.7377 -85.551 81.6736 -96.4272C82.5414 -99.6421 84.3424 -102.634 85.8149 -105.602C88.2283 -110.468 90.5762 -115.371 93.0049 -120.233C95.1609 -124.549 97.2206 -128.934 99.6118 -133.127C100.41 -134.527 100.964 -136.786 102.298 -137.751C108.309 -142.101 118.444 -142.302 125.52 -142.302V-65.4305ZM125.371 -63.5872C125.974 -62.3981 125.52 -60.0515 125.52 -58.7352V-46.8325V-21.0432C125.52 -17.474 126.403 -12.561 125.393 -9.14049C124.836 -7.25204 122.944 -5.67002 122.001 -3.93304C120.325 -0.848673 118.995 4.43739 115.611 6.05438C112.005 7.77722 107.387 4.01462 104.71 1.98618C99.2983 -2.11506 94.3883 -6.82489 89.5977 -11.6202C86.5014 -14.7196 82.8837 -18.3497 80.8571 -22.2831C79.6371 -24.6511 80.1386 -27.8906 79.8937 -30.4663C79.2263 -37.4859 79.1925 -44.4861 79.1925 -51.544V-58.2393C79.1928 -58.9516 78.9912 -60.1995 79.6242 -60.7121C80.5489 -61.461 83.4653 -61.1712 84.6429 -61.2247C88.9157 -61.4189 93.2666 -61.5953 97.5255 -62.001C104.606 -62.6754 111.705 -63.9307 118.831 -63.9427C120.149 -63.9427 124.651 -65.0075 125.371 -63.5872ZM112.638 66.7394L113.629 74.9226C109.766 74.9222 108.394 72.1527 107.333 68.7232C105.546 62.9447 104.673 57.0248 103.47 51.1171C101.721 42.5267 97.3898 34.5647 93.9145 26.5677C87.3817 11.5354 81.3924 -3.41811 80.679 -20.0514C83.812 -17.631 86.4017 -13.409 89.1299 -10.4609C93.4581 -5.78399 98.4365 -1.53719 103.41 2.43156C106.401 4.81805 111.718 9.24468 115.858 7.28311C117.544 6.48474 118.433 4.86441 119.575 3.50616C119.769 4.81785 119.193 6.14543 119.101 7.4737C118.854 11.0671 118.739 14.8202 119.404 18.3846C120.042 21.8094 121.248 24.9814 122.859 28.0555C123.589 29.4498 124.95 30.7679 125.393 32.2711C125.893 33.9643 125.52 36.2173 125.52 37.9745V49.6292V60.7881C125.52 61.8111 125.932 64.0116 125.266 64.8539C124.716 65.5485 122.632 65.427 121.804 65.4995C118.806 65.7623 115.561 66.0346 112.638 66.7394ZM119.691 35.2468C119.058 32.5054 115.68 30.9922 113.392 32.8648C111.721 34.2316 111.354 36.4692 111.909 38.4704C112.673 41.2259 116.079 42.4357 118.29 40.5638C119.775 39.3064 120.112 37.0693 119.691 35.2468ZM117.409 -80.2821C117.08 -81.8131 114.364 -81.9045 113.778 -80.5238C113.047 -78.7986 113.047 -72.6442 113.778 -70.919C114.329 -69.6198 116.805 -69.6065 117.327 -70.9413C117.64 -71.74 117.355 -72.7779 117.346 -73.6134C117.322 -75.6674 117.834 -78.2974 117.409 -80.2821ZM117.445 -11.5868C117.015 -12.9937 114.439 -13.1081 113.813 -11.799C112.942 -9.97963 113.629 -6.43241 113.629 -4.42873C113.629 -3.69932 113.463 -2.69777 113.778 -2.01805C114.368 -0.748847 116.857 -0.994337 117.333 -2.22396C117.66 -3.06854 117.37 -4.05052 117.349 -4.92463C117.301 -6.91216 118.017 -9.71265 117.445 -11.5868ZM117.097 -161.148C116.282 -161.299 115.206 -161.606 114.451 -161.103C113.534 -160.493 113.526 -157.087 114.274 -156.338C116.243 -154.367 117.097 -157.274 117.097 -158.668V-161.148ZM82.6609 -15.0913C82.7051 -9.75259 84.3752 -4.29647 85.9102 0.779008C88.8136 10.3786 92.391 19.1225 96.9662 28.0561C99.262 32.5392 101.234 38.3274 104.462 42.1906C105.075 38.6215 104.71 34.6584 104.71 31.0318C104.71 26.2765 105.043 21.3756 104.534 16.6494C104.26 14.106 105.014 11.134 103.946 8.7142C103.039 6.66001 101.01 4.92198 99.5459 3.2588C96.606 -0.0798451 93.6628 -3.43605 90.5983 -6.6602C88.148 -9.23796 85.7492 -13.321 82.6609 -15.0913ZM104.215 -134.367C102.761 -133.63 101.827 -131.973 100.931 -130.647C98.8842 -127.618 97.0619 -124.434 95.3159 -121.224C90.5552 -112.473 84.9509 -102.937 82.5309 -93.2029C81.544 -89.2331 81.4494 -85.1063 81.1525 -81.0523C80.8526 -76.9578 80.679 -72.7595 80.679 -68.6536C80.679 -67.7191 80.2534 -65.3391 81.0762 -64.6931C82.1335 -63.863 86.0643 -64.7556 87.368 -64.9339C92.9479 -65.6988 98.6248 -65.7147 104.215 -66.4218V-134.367ZM103.967 -60.2225C98.7478 -58.9788 92.4861 -59.4563 87.1203 -59.2208C85.971 -59.1702 81.8878 -59.4778 81.1813 -58.585C80.4308 -57.6365 81.1173 -55.6042 81.1647 -54.5191C81.3173 -51.0301 80.9267 -47.5807 80.9267 -44.1042C80.9267 -37.9496 79.9399 -30.1516 82.0136 -24.2663C84.2504 -17.9183 90.7897 -12.5005 96.039 -8.64051C98.4771 -6.84773 101.235 -3.96191 104.215 -3.18853V-42.1204V-54.0231L103.967 -60.2225ZM42.0311 131.461C45.5667 130.618 49.7989 131.213 53.4273 131.213H75.7241C78.6872 131.213 82.2475 131.751 85.1383 131.082C89.7636 130.012 88.3925 125.206 89.7472 122.075C90.265 120.878 91.8438 120.789 92.3246 119.31C92.8204 117.786 92.7514 115.555 92.0627 114.103C91.6481 113.229 90.5386 112.398 90.5774 111.375C90.6559 109.308 92.8567 107.519 93.0743 105.424C93.3412 102.855 90.0385 98.5303 88.9149 96.2489C88.5017 95.4099 88.0934 94.0529 87.2713 93.528C86.0103 92.7228 83.1306 93.2732 81.6699 93.2732H67.5486H14.0361H-1.57166C-3.02651 93.2732 -6.14876 92.6824 -7.3766 93.528C-8.21111 94.1027 -8.39208 95.6091 -8.73422 96.4968C-9.63157 98.8249 -12.3549 103.451 -11.8434 105.92C-11.4725 107.71 -9.38872 109.486 -9.39257 111.304C-9.39406 112.12 -10.3902 112.914 -10.7582 113.607C-11.5021 115.008 -11.7169 117.023 -11.3495 118.566C-10.9646 120.183 -9.51762 120.678 -8.88352 122.049C-7.50753 125.024 -7.94551 128.839 -4.54457 130.648C-1.82891 132.092 2.85651 131.213 5.86063 131.213H29.8917C32.7042 131.213 37.6867 130.238 40.2602 131.363C41.3435 131.836 41.0401 133.485 41.0401 134.437C41.0401 136.129 41.3783 138.243 40.9336 139.882C40.6062 141.09 39.3228 141.939 40.1281 143.307C40.8795 144.584 42.6262 143.944 42.8336 142.619C42.9894 141.623 42.2277 140.647 42.1584 139.644C41.9772 137.021 42.5794 133.985 42.0311 131.461ZM61.6028 -254.634C67.517 -254.634 73.513 -254.527 79.4403 -254.382C81.8909 -254.322 84.8865 -253.455 87.1165 -254.88C91.0107 -257.369 89.6526 -263.453 89.8688 -267.277C89.9771 -269.193 92.428 -270.541 92.744 -272.736C92.9453 -274.134 92.8104 -276.012 91.876 -277.144C91.3481 -277.783 90.3425 -277.967 89.9948 -278.743C88.6419 -281.761 89.8189 -285.652 86.1293 -287.501C84.4438 -288.346 81.7777 -287.862 79.9357 -287.862H66.3099H17.2568H2.39223C0.358531 -287.862 -2.45032 -288.364 -4.29665 -287.386C-7.93456 -285.459 -7.16345 -281.731 -8.76288 -278.697C-9.84861 -276.637 -11.6742 -275.954 -11.4068 -273.232C-11.1659 -270.779 -8.96264 -269.241 -8.77071 -267.032C-8.47253 -263.602 -9.64444 -259.215 -7.64651 -256.144C-5.3031 -252.542 2.84323 -254.138 6.60386 -254.138C10.3372 -254.138 15.6321 -253.158 19.202 -254.217C20.5528 -254.617 19.9786 -256.73 21.72 -257.057C24.1237 -257.509 26.9509 -257.113 29.3962 -257.113H44.7563H57.3911C59.2926 -257.113 61.2593 -256.855 61.6028 -254.634ZM78.9448 103.192L86.3771 94.7611H86.8725C88.7629 98.7542 92.8893 103.609 90.776 107.904C89.9934 109.494 89.427 111.908 87.1425 111.296C86.0636 111.008 85.1645 109.694 84.4408 108.905C82.666 106.972 80.9294 104.911 78.9448 103.192ZM91.4944 -274.967C91.8754 -273.119 91.324 -270.4 89.349 -269.662C88.0153 -269.163 86.0524 -269.512 84.6429 -269.512C80.9144 -269.512 76.9448 -269.878 73.2467 -269.441C66.3799 -268.63 59.1056 -269.264 52.1885 -269.264H12.0542C8.445 -269.264 4.75398 -269.489 1.15352 -269.242C-1.51044 -269.059 -5.11291 -268.37 -7.72316 -269.095C-9.16752 -269.496 -9.97011 -271.391 -10.1681 -272.736C-10.3564 -274.015 -10.2535 -275.739 -8.97793 -276.449C-7.73599 -277.139 -5.43498 -276.703 -4.04908 -276.703H7.84257H69.0351H86.1293C87.9667 -276.703 90.9995 -277.367 91.4944 -274.967ZM91.4858 116.831C91.5487 117.856 91.3533 119.4 90.2941 119.87C88.915 120.482 86.6261 120.054 85.1383 120.054H72.9989H11.8064H-5.04007C-7.03037 120.054 -10.0033 120.558 -10.2283 117.823C-10.3669 116.138 -10.1594 113.82 -8.48534 112.907C-7.19621 112.204 -4.98156 112.615 -3.55362 112.615H8.09031H69.5305H82.4132C84.3523 112.615 86.7202 112.248 88.6067 112.719C90.4663 113.183 91.3764 115.048 91.4858 116.831ZM88.8545 -278.191H23.6981H3.13546L-7.26974 -277.943C-7.94677 -280.627 -6.01817 -285.396 -3.3049 -286.347C-1.65155 -286.927 0.416218 -286.622 2.14448 -286.622H12.7976H68.0442H81.1746C82.9633 -286.622 85.1641 -286.917 86.5783 -285.574C88.6335 -283.622 88.2602 -280.69 88.8545 -278.191ZM84.643 -255.378L84.3953 -268.024H88.6069C88.9363 -263.846 89.9836 -256.621 84.643 -255.378ZM-7.76508 121.542L-7.51733 121.294L6.35626 121.542H32.617H68.5397L88.3591 121.294C89.0091 123.66 88.112 128.385 85.6118 129.475C84.1571 130.109 81.9897 129.723 80.4314 129.725H69.2829H12.0544C8.34804 129.725 4.60856 129.581 0.905925 129.744C-0.999022 129.828 -3.19552 130.183 -4.78146 128.884C-6.81484 127.217 -7.29259 123.979 -7.76508 121.542ZM85.8817 94.761L78.6972 102.448H78.2017L71.2649 94.761L81.1746 94.5129L85.8817 94.761ZM85.8817 111.375H70.7694C72.305 108.492 76.0403 105.065 78.6972 103.192L85.8817 111.375ZM-3.8012 -243.723V-235.044H19.2389L66.31 -235.044H79.4404L84.2458 -235.13L84.643 -237.028L84.4935 -243.358L79.4404 -243.723H63.3371L-3.8012 -243.723ZM84.3953 -217.19C76.8373 -218.615 69.1631 -219.403 61.6029 -220.814C59.8412 -221.143 58.5665 -222.724 56.8958 -222.964C52.6798 -223.568 47.7983 -222.893 43.5177 -222.893C37.1746 -222.893 30.5073 -223.496 24.1937 -222.867C22.3959 -222.688 21.0198 -221.216 19.2389 -220.827C12.0277 -219.25 3.80878 -217.263 -3.55345 -216.942L-3.55345 -165.611C-3.55345 -157.214 -4.30451 -148.427 -3.52766 -140.07C-3.26103 -137.202 -2.1259 -134.272 -1.57613 -131.433C0.373399 -121.364 3.0558 -111.364 4.69181 -101.243C5.64973 -95.3175 5.3607 -89.0254 5.62277 -83.0359C6.07107 -72.7894 6.40555 -62.5627 6.35606 -52.2872C6.28694 -37.9446 6.43833 -23.1684 5.07546 -8.89185C3.31961 9.50159 -1.92285 27.5299 -3.75896 45.9103C-4.7534 55.865 -3.80119 66.4019 -3.80119 76.4111C3.98688 77.4177 11.6524 79.3297 19.4867 80.0886C26.2924 80.7478 33.4572 80.131 40.297 80.131C47.7315 80.131 55.453 80.7159 62.8416 79.9242C68.0866 79.3621 73.2744 78.5864 78.4494 77.5521C79.8938 77.2635 82.9076 77.265 83.9919 76.1988C84.8603 75.345 84.3953 72.3572 84.3953 71.2039V56.8215C84.3953 35.927 78.8812 14.9725 75.8286 -5.66784C75.072 -10.7841 75.1965 -15.8935 74.9713 -21.0422C74.458 -32.776 74.2567 -44.4869 74.2378 -56.2544C74.22 -67.3075 74.2028 -78.4326 74.9589 -89.4829C75.2396 -93.5861 74.9212 -97.8054 75.5499 -101.882C77.0738 -111.761 80.1813 -121.656 82.4714 -131.39C83.0631 -133.905 84.0425 -136.517 84.3496 -139.078C85.1869 -146.059 84.3953 -153.616 84.3953 -160.651C84.3953 -179.425 83.5062 -198.443 84.3953 -217.19ZM83.8998 -255.377L81.1746 -255.625V-255.873H83.6521V-267.776H72.7514L81.1746 -268.272L83.8222 -267.697L83.8998 -264.056V-255.377ZM-3.30568 -235.539V-243.227L84.1475 -243.227C84.1475 -241.581 84.9251 -237.241 83.8929 -235.937C83.1361 -234.98 79.8184 -235.539 78.6972 -235.539H62.8416L-3.30568 -235.539ZM83.7381 -283.394C82.813 -286.255 74.1053 -285.845 75.3708 -281.415C76.2699 -278.268 85.2868 -278.604 83.7381 -283.394ZM83.4213 -273.714C83.0008 -275.266 80.7753 -274.532 81.3289 -272.998C81.848 -271.559 83.7999 -272.316 83.4213 -273.714ZM83.4681 124.777C82.9104 123.407 81.4129 123.527 80.1836 123.526C77.699 123.526 73.9131 123.8 75.4127 127.483C76.0021 128.931 77.6631 128.734 78.9449 128.734C81.4533 128.734 84.9372 128.385 83.4681 124.777ZM83.2967 -282.899C84.2588 -279.443 76.4379 -279.432 75.8326 -281.668C74.8772 -285.199 82.6642 -285.171 83.2967 -282.899ZM83.2192 116.143C82.5665 114.683 80.807 115.995 81.3279 117.289C81.9314 118.789 83.8311 117.511 83.2192 116.143ZM83.2774 125.758C83.8579 129.179 76.2357 129.259 75.781 126.745C75.1391 123.196 82.8549 123.268 83.2774 125.758ZM83.1565 -140.319H82.9088L67.2528 -191.153L61.3896 -210.247L58.3823 -220.414C63.7978 -218.294 70.4581 -217.971 76.2197 -217.158C77.6439 -216.957 81.9938 -216.958 82.9019 -215.801C83.7098 -214.772 83.1565 -211.762 83.1565 -210.495V-196.113V-140.319ZM83.0491 46.3796C82.9967 47.7 80.693 48.6709 79.6881 49.225C75.9169 51.3045 71.9965 52.7798 67.7965 53.7019C58.5114 55.7403 48.5172 54.8365 39.0583 54.8365C31.2122 54.8365 22.7375 55.6795 15.0273 53.9873C10.3446 52.9597 5.68188 51.5536 1.40139 49.3544C0.057895 48.6641 -2.49202 47.9562 -2.52577 46.1565C-2.59704 42.3553 -1.28976 38.2456 -0.68912 34.5027C0.809222 25.1653 2.43446 15.8385 3.81153 6.48169C4.29907 3.16916 4.90583 -0.119948 5.36529 -3.43724C5.50549 -4.44949 5.51411 -6.69954 6.29242 -7.42033C7.10269 -8.17072 9.02262 -8.30604 10.0724 -8.53948C13.2588 -9.24777 16.4938 -10.0307 19.7344 -10.419C25.9621 -11.1653 32.2938 -10.8764 38.5628 -10.8764C45.3226 -10.8764 52.1419 -11.1233 58.8777 -10.6506C62.7819 -10.3767 66.4772 -9.45704 70.2739 -8.55898C71.3977 -8.29318 73.4511 -8.29146 74.1971 -7.27839C74.9221 -6.29374 74.8573 -4.36728 75.0774 -3.18928C75.7365 0.339358 76.2359 3.92655 76.7833 7.47357C78.1486 16.3221 79.5553 25.1772 81.0347 34.0068C81.6829 37.876 83.2044 42.4646 83.0491 46.3796ZM-2.56249 75.4184C-3.79688 68.7629 -2.81023 61.1102 -2.81023 54.3406C-2.81023 52.3566 -2.43411 50.0704 -2.81023 48.1412C-0.452411 47.9836 2.87228 50.6218 5.11753 51.5136C10.2545 53.5539 15.4855 54.7676 20.9731 55.2904C28.9159 56.047 37.2701 55.3328 45.2519 55.3328C52.0546 55.3328 59.3655 56.054 66.0623 54.6717C69.8007 53.9001 73.5141 52.8247 76.963 51.1708C78.9845 50.2014 81.0147 48.4496 83.1565 47.8936V67.7314C83.1565 69.3793 83.9268 73.6719 82.9019 74.9902C82.035 76.1054 78.7731 76.0979 77.4584 76.361C72.0112 77.4513 66.4179 78.5093 60.8597 78.6459C48.2067 78.9569 35.1096 79.7353 22.4595 78.8681C14.0838 78.2939 5.7781 75.7769 -2.56249 75.4184ZM82.1656 -140.566C75.0044 -143.191 68.941 -148.4 61.3552 -150.227C55.8252 -151.559 49.4266 -150.733 43.7654 -150.733C35.2634 -150.733 25.4657 -152.091 17.2569 -149.633C10.3282 -147.557 4.7118 -143.067 -1.81926 -140.318C-0.947172 -146.769 2.28287 -153.724 4.35558 -159.908C8.60019 -172.573 12.3313 -185.412 16.5139 -198.096C18.3346 -203.618 20.1274 -209.15 21.8241 -214.71C22.521 -216.994 23.5967 -219.287 23.946 -221.654H38.5628C38.5006 -220.225 37.1232 -217.723 37.7732 -216.456C39.4986 -213.092 44.5918 -212.619 45.8225 -216.704C46.2053 -217.974 45.1481 -220.18 44.7564 -221.406L54.1706 -221.654L57.4274 -221.079L59.746 -213.966L64.9287 -197.104L77.1415 -157.429L82.1656 -140.566ZM79.9359 -141.062C75.5376 -141.501 71.2611 -143.315 66.8055 -143.748C60.2315 -144.387 53.582 -143.88 46.9861 -144.042C36.6303 -144.295 25.8434 -145.26 15.5227 -144.244C10.3512 -143.735 5.44193 -141.969 0.410436 -140.814V-141.062C6.86406 -145.016 14.1666 -148.934 21.7163 -150.157C29.0065 -151.338 37.3642 -150.237 44.7564 -150.237C49.4173 -150.237 54.5125 -150.821 59.1255 -150.163C63.6736 -149.514 67.8951 -147.259 72.0081 -145.354C74.6028 -144.153 77.7297 -142.892 79.9359 -141.062ZM70.5217 110.383L70.5217 95.2565L76.2197 100.712L77.7257 102.944L75.972 105.175L70.5217 110.383ZM77.3533 25.328C76.3337 17.5553 74.8682 9.88692 72.9677 2.26642C72.4953 0.372024 72.3088 -4.1116 70.8686 -5.45616C70.051 -6.2195 68.1159 -6.29603 67.0533 -6.51177C63.8657 -7.15876 60.6632 -7.89918 57.3913 -7.90045H23.6983C20.285 -7.90045 16.8963 -7.37161 13.5408 -6.76583C12.513 -6.5803 10.5445 -6.60321 9.80843 -5.77069C9.10909 -4.97968 9.03847 -3.43805 8.83294 -2.44506C8.31819 0.0417877 7.69771 2.5183 7.12893 4.99414C5.11474 13.7618 3.38335 22.5145 3.38335 31.5274C3.38335 33.826 3.03485 36.4384 3.42006 38.704C3.70687 40.391 7.57133 39.4625 8.8337 39.4625H26.1757H64.5758C67.7113 39.4625 70.8555 39.3933 73.9901 39.4625C74.8343 39.4818 76.5669 40.03 77.2038 39.2687C77.8447 38.5026 77.4585 36.4346 77.4585 35.4913C77.4585 32.1593 77.7868 28.6292 77.3533 25.3243M74.2378 -9.14398L58.8778 -12.1099L37.3241 -12.1196L21.9641 -12.0772L6.10853 -9.14362L6.61376 -18.5667L7.10045 -36.6687L7.33748 -73.3688L5.86077 -101.142L19.7344 -103.103L37.8196 -103.126L60.3642 -103.116L74.2378 -101.142L73.0027 -69.1535L73.4909 -32.7014L74.2378 -9.14398ZM72.0081 -267.78H70.7694V-268.028L72.0081 -267.78ZM70.2739 -266.292H10.0724V-267.78L70.2739 -268.028V-266.292ZM70.1233 -265.222C70.9047 -263.562 68.7792 -263.565 67.7965 -263.565H58.1345H21.7163H13.0453C12.2603 -263.565 10.6844 -263.266 10.2575 -264.139C9.50621 -265.676 11.3119 -265.794 12.3021 -265.796H20.9731H57.1435H66.8055C67.6513 -265.796 69.6762 -266.171 70.1233 -265.222ZM10.0724 -263.069H70.2739L69.8767 -261.092L66.8055 -260.837H59.1255H22.7073H13.7885L10.4696 -261.092L10.0724 -263.069ZM70.2739 -255.878H62.5939C61.2499 -259.276 56.8729 -258.605 53.9229 -258.605H28.1576C25.0514 -258.605 19.7367 -259.749 18.9911 -255.63L10.3201 -255.382C10.0446 -256.315 9.5637 -259.391 10.4723 -260.09C11.2134 -260.66 12.9059 -260.341 13.7885 -260.341H22.2118H58.63H67.0533C67.8339 -260.341 69.466 -260.643 70.0193 -259.943C70.6882 -259.098 70.2739 -256.911 70.2739 -255.878ZM69.5307 99.7165C66.163 100.713 61.6473 99.9645 58.1345 99.9645C58.0982 96.8959 53.9858 97.9807 51.6932 97.9807H30.3873C28.0025 97.9807 22.9927 96.7811 22.955 99.9645H10.8156L11.0703 94.9067L14.7795 94.509H25.1847H69.2829L69.5307 99.7165ZM69.5307 107.9H55.4093H26.9189L11.0634 108.148L10.8156 100.46H22.955C23.1598 103.147 27.4124 102.196 29.3963 102.196H50.7022C52.7808 102.196 57.9216 103.254 58.1345 100.46H66.31L69.2761 100.858L69.5307 107.9ZM69.5307 111.123L63.0894 111.371H50.95H10.8156V108.644H55.6571H65.5668L69.1333 108.898L69.5307 111.123ZM61.4978 -80.8082C61.0802 -83.953 60.1093 -86.8514 57.1435 -88.4866C54.6948 -89.8367 51.9097 -89.4873 49.2158 -89.4873L34.3512 -89.4873C30.5697 -89.4873 25.4709 -90.4175 22.2118 -88.0892C17.8426 -84.9679 18.4957 -79.3142 18.4957 -74.6089C18.4957 -72.6619 18.2945 -70.5872 18.57 -68.6575C20.108 -57.8829 32.3156 -60.4744 40.297 -60.4744C45.0227 -60.4744 52.3164 -59.1067 56.6481 -61.159C63.0542 -64.194 62.2827 -74.8974 61.4978 -80.8082ZM61.0367 -80.8082C61.7104 -75.1704 62.596 -64.8502 56.6481 -61.8428C52.227 -59.6074 44.9048 -60.9703 40.0493 -60.9703C33.5644 -60.9703 20.511 -58.4449 19.2836 -67.6656C18.5345 -73.2937 17.2223 -84.1614 22.7494 -87.6937C25.955 -89.7424 30.4827 -88.9913 34.1035 -88.9913H47.4816C54.0507 -88.9913 60.0863 -88.7617 61.0367 -80.8082ZM57.3913 101.7H23.6983L23.4505 98.7247L34.3512 98.4767H57.3913V101.7ZM55.1545 -274.291C54.2289 -275.426 52.5791 -273.698 53.5771 -272.604C54.5984 -271.485 55.9417 -273.325 55.1545 -274.291ZM55.2216 116.14C54.6003 114.702 52.6022 115.975 53.2473 117.286C53.9727 118.76 55.8124 117.507 55.2216 116.14ZM46.7383 -29.2297C44.138 -27.9615 41.878 -24.199 39.9786 -22.0384C39.0708 -21.0059 38.0997 -20.2045 37.8196 -18.8148L43.5186 -25.1569L46.7383 -29.2297ZM39.8015 -221.161H43.7654C44.056 -219.893 45.0849 -217.926 44.3494 -216.701C43.0323 -214.507 39.7532 -214.397 39.0031 -217.197C38.6902 -218.365 39.54 -220.019 39.8015 -221.161ZM27.4226 -273.483C27.3348 -274.907 25.2581 -274.964 25.2581 -273.483C25.2581 -271.9 27.5235 -271.847 27.4226 -273.483ZM27.2267 116.139C26.5948 114.671 24.5886 115.925 25.2744 117.286C26.0137 118.754 27.8106 117.496 27.2267 116.139ZM23.4505 -220.665L20.2228 -210.994L14.3473 -192.644L-2.06699 -141.314H-2.31474L-2.31474 -194.628V-209.259C-2.31474 -210.876 -2.90137 -213.898 -2.16525 -215.35C-1.5792 -216.507 2.43006 -216.551 3.63109 -216.76C8.74738 -217.649 13.8512 -218.714 18.9911 -219.458C20.3856 -219.66 22.1527 -221.02 23.4505 -220.665ZM9.82467 110.875C7.41912 109.752 5.72345 107.025 3.87884 105.172C3.31839 104.609 2.2143 103.819 2.19223 102.941C2.16934 102.031 3.35806 101.18 3.93103 100.597C5.60051 98.8983 7.53032 95.7428 9.82467 95.005V110.875ZM9.57692 -255.63L-2.56248 -255.382C-3.55792 -258.752 -2.81022 -263.272 -2.81022 -266.788H-2.56248V-255.878C0.853378 -255.878 6.44248 -256.946 9.57692 -255.63ZM8.83369 95.005C6.54789 97.293 4.0997 101.069 1.15366 102.444L-5.78313 94.7571L4.86981 94.509L8.83369 95.005ZM8.83369 111.371H-6.03088C-4.96684 109.087 -0.560971 104.127 1.89689 103.436L8.83369 111.371ZM5.20262 -283.154C4.26276 -286.234 -4.62526 -285.959 -3.24645 -281.42C-2.30109 -278.308 6.55129 -278.734 5.20262 -283.154ZM4.93364 125.011C3.79505 122.071 -4.94571 122.667 -3.34183 127.237C-2.32311 130.14 6.73208 129.654 4.93364 125.011ZM4.63716 -281.672C4.21143 -279.529 -3.43192 -279.3 -2.75346 -282.896C-2.32096 -285.188 5.34179 -285.218 4.63716 -281.672ZM4.49456 125.272C5.75478 129.176 -2.12987 129.288 -2.85515 126.979C-4.03073 123.237 3.86159 123.312 4.49456 125.272ZM-34.2736 -219.921H-34.5213L-35.5123 -208.019C-37.6385 -209.23 -42.8843 -209.971 -44.1764 -212.054C-44.8396 -213.124 -44.2437 -214.795 -44.1931 -215.954C-44.0649 -218.882 -43.3013 -223.99 -44.7786 -226.593C-46.3197 -229.31 -50.7509 -228.552 -53.3498 -228.923C-54.6488 -229.108 -55.826 -229.518 -56.9906 -228.631C-58.5597 -227.435 -58.902 -224.732 -59.0479 -222.897L-65.7369 -219.511L-67.8171 -217.857L-67.9666 -212.482V-199.588C-52.7856 -197.657 -41.0625 -186.045 -43.5488 -170.079C-44.7752 -162.203 -49.1886 -155.695 -56.3227 -152.004C-59.1171 -150.558 -61.9422 -149.718 -64.9937 -149.031C-65.8515 -148.837 -67.5749 -148.974 -67.8879 -147.952C-68.9687 -144.424 -67.9666 -139.064 -67.9666 -135.362V-107.093V-13.8553C-60.8522 -12.3855 -54.1209 -9.4313 -49.1804 -3.9364C-41.8235 4.24598 -41.0297 17.9947 -48.5232 26.3872C-52.0475 30.3343 -56.3888 33.0224 -61.2776 34.9451C-62.6182 35.4724 -67.2025 36.035 -67.8171 37.3051C-68.83 39.3983 -67.8271 43.4072 -67.7286 45.6583C-67.4412 52.228 -68.5546 58.9797 -67.9246 65.4962C-67.6924 67.8977 -66.8298 69.7236 -64.4982 70.6989C-63.1967 71.2433 -61.4333 71.3559 -60.3653 72.3524C-58.7524 73.8574 -59.4879 76.1802 -57.0659 77.5086C-54.3655 78.9896 -48.5722 78.7588 -46.5711 76.1456C-44.7006 73.7031 -44.2448 69.471 -44.1833 66.4881L-33.0349 67.976L-34.0258 75.6631C-26.8093 79.7092 -24.4815 66.5457 -23.4595 62.0246C-22.3189 56.979 -22.0144 51.541 -20.2914 46.6502C-14.6728 30.7015 -5.01939 15.9591 -1.57077 -0.712761C2.65345 -21.1341 2.67199 -41.4993 2.6401 -62.2102C2.62226 -73.7882 3.52066 -86.7224 0.0546759 -97.9184C-0.929597 -101.098 -2.85534 -104.097 -4.29058 -107.093C-7.31001 -113.396 -10.2781 -119.757 -13.537 -125.939C-16.8318 -132.19 -20.2371 -138.074 -21.7813 -145.033C-27.22 -169.545 -21.7932 -197.113 -34.2736 -219.921ZM-44.6788 -65.6818L-44.431 -74.3609V-90.4791V-142.306C-38.7219 -142.306 -33.0864 -141.79 -27.5845 -140.179C-25.5037 -139.57 -22.9333 -138.997 -21.2112 -137.603C-20.0636 -136.673 -19.5147 -134.669 -18.8495 -133.379C-17.268 -130.312 -15.5986 -127.291 -14.0573 -124.204C-11.4203 -118.921 -8.84926 -113.612 -6.21211 -108.333C-4.45666 -104.819 -2.22831 -101.176 -1.04833 -97.4225C0.0904104 -93.8004 0.34445 -90.0056 0.700226 -86.2636C1.25121 -80.4684 1.26295 -74.7243 1.40502 -68.9054C1.44092 -67.436 2.39575 -63.8438 1.39373 -62.6078C0.854811 -61.9429 -0.59581 -62.4289 -1.32379 -62.4555C-3.96598 -62.5517 -6.61107 -62.8284 -9.25157 -62.9443C-17.3135 -63.2982 -25.2562 -64.3787 -33.2826 -65.1438C-36.8912 -65.4877 -41.2147 -64.6569 -44.6788 -65.6818ZM-44.6788 -63.946C-41.7193 -64.6512 -38.2681 -63.9259 -35.2646 -63.7202C-27.285 -63.1732 -19.236 -61.7655 -11.2335 -61.7141C-8.15245 -61.694 -4.88095 -61.5091 -1.81928 -61.1475C-1.02516 -61.0537 0.583817 -61.2286 1.21748 -60.7155C1.93131 -60.1374 1.64912 -58.5509 1.64912 -57.7466V-49.8115C1.64912 -44.0772 1.41329 -38.4132 1.16338 -32.7014C1.03519 -29.7713 1.44151 -25.8013 0.455527 -23.0304C-0.392884 -20.646 -2.5443 -18.4752 -4.15488 -16.5831C-10.289 -9.37647 -17.4485 -2.59586 -25.1071 2.96911C-27.7541 4.89252 -32.2708 7.97646 -35.5087 5.60811C-38.3996 3.49352 -39.7232 -1.37091 -41.4012 -4.43236C-42.249 -5.9792 -44.02 -7.47195 -44.5096 -9.14748C-44.874 -10.3945 -44.4311 -12.0589 -44.4311 -13.3594V-23.5263V-50.5554C-44.4311 -54.7927 -43.6974 -59.8202 -44.6788 -63.946ZM-8.01285 111.371L-10.5895 105.668L-9.57825 102.196L-6.77413 94.7571C-4.67994 96.2336 -3.12622 98.4069 -1.32379 100.212C-0.690935 100.846 0.564554 101.733 0.677658 102.692C0.789068 103.637 -0.434674 104.538 -1.00168 105.149C-2.8055 107.093 -5.29963 110.952 -8.01285 111.371ZM-23.3729 -134.37V-66.4257L0.162663 -64.4419C0.162663 -74.1106 0.576419 -84.5068 -1.79329 -93.9508C-3.93902 -102.502 -8.97466 -111.041 -13.139 -118.748C-15.1769 -122.52 -17.1831 -126.314 -19.5317 -129.907C-20.5725 -131.499 -21.6654 -133.438 -23.3729 -134.37ZM-32.7871 74.9192C-32.5675 73.1795 -31.1093 68.5544 -32.0544 67.0629C-32.6121 66.1828 -34.5931 66.3121 -35.5123 66.2016C-38.5711 65.8341 -41.6229 65.3868 -44.6788 65.0003L-44.6788 43.1786C-44.6788 39.8212 -45.3066 35.7556 -44.5838 32.4736C-44.0245 29.9342 -41.3514 27.3483 -40.3316 24.8286C-37.671 18.2544 -37.2099 10.3508 -38.9807 3.5028C-36.9651 4.64681 -36.4335 7.17078 -33.7781 7.63684C-29.6003 8.37005 -25.3895 4.65327 -22.3819 2.26365C-17.3765 -1.7132 -12.3877 -5.92839 -8.05127 -10.6414C-5.60845 -13.2964 -2.89735 -18.0069 0.162663 -19.8067C-0.185272 -2.93715 -6.91637 12.3632 -13.4313 27.5562C-16.8822 35.604 -21.1062 43.4378 -22.726 52.1056C-23.8428 58.0817 -24.7361 64.2322 -26.8547 69.9597C-27.9118 72.8176 -29.4733 75.3106 -32.7871 74.9192ZM-23.3729 -59.9784V-3.19248C-20.1224 -3.83999 -16.7355 -7.36348 -14.2064 -9.39178C-9.412 -13.237 -3.59544 -17.883 -1.26454 -23.7743C1.09028 -29.726 -0.0850878 -37.8238 -0.0850878 -44.1081C-0.0850878 -47.5001 -0.326368 -50.8916 -0.205504 -54.2714C-0.166039 -55.3764 0.389895 -57.6669 -0.339711 -58.5889C-1.03713 -59.4704 -5.14388 -59.2026 -6.27866 -59.2309C-11.9823 -59.3729 -17.6586 -59.9784 -23.3729 -59.9784ZM-0.835393 -274.149C-1.67375 -275.405 -3.24353 -273.961 -2.55448 -272.778C-1.72015 -271.344 -0.0152254 -272.92 -0.835393 -274.149ZM-0.83985 116.12C-1.66425 114.625 -3.51116 116.183 -2.69334 117.492C-1.87918 118.795 -0.170714 117.333 -0.83985 116.12ZM-1.81935 -15.0952C-3.74855 -13.9665 -5.25939 -11.5217 -6.78031 -9.88777C-10.5755 -5.81071 -14.3214 -1.67911 -17.9932 2.51095C-19.6468 4.39798 -22.4958 6.75993 -23.2468 9.20623C-24.2597 12.5053 -23.6207 16.7021 -23.6207 20.117V41.9387C-22.277 40.7828 -21.6172 38.794 -20.8288 37.2272C-19.4901 34.5664 -18.0806 31.9134 -16.664 29.2921C-11.5888 19.9002 -7.66402 10.2954 -4.75747 0.0311595C-3.37089 -4.8654 -1.81935 -9.98269 -1.81935 -15.0952ZM-7.51744 -267.78C-6.56845 -267.78 -4.21355 -268.208 -3.56043 -267.383C-3.07993 -266.775 -3.30581 -265.526 -3.30581 -264.805V-258.357C-3.30581 -257.649 -3.07447 -256.372 -3.56043 -255.783C-4.22279 -254.98 -5.6963 -255.907 -6.22577 -256.429C-7.79786 -257.979 -7.51744 -260.56 -7.51744 -262.573V-267.78ZM-21.6388 -139.33C-27.0594 -141.556 -32.4278 -142.784 -38.2376 -143.475C-40.3475 -143.726 -42.6363 -143.395 -44.6789 -143.793C-43.9488 -146.863 -45.3686 -150.549 -44.4663 -153.464C-43.7939 -155.637 -41.6927 -157.55 -40.7222 -159.664C-38.2243 -165.104 -37.3566 -171.064 -37.7642 -177.022C-38.052 -181.227 -39.0079 -185.692 -41.0401 -189.421C-42.0799 -191.328 -44.0266 -193.109 -44.7463 -195.124C-45.2624 -196.569 -44.9266 -198.565 -44.9266 -200.084V-210.25L-34.0259 -206.531L-33.7782 -215.458L-31.5839 -210.746L-28.2659 -196.612L-25.0653 -161.152L-23.4686 -147.513L-21.6388 -139.33ZM-33.0418 -80.8819C-33.7845 -81.8657 -35.8741 -81.6589 -36.3539 -80.5271C-37.1639 -78.6163 -36.5034 -75.1895 -36.5034 -73.121C-36.5034 -72.3885 -36.72 -71.192 -36.2487 -70.5677C-35.5061 -69.5838 -33.4165 -69.7906 -32.9367 -70.9224C-32.1267 -72.8332 -32.7872 -76.26 -32.7872 -78.3285C-32.7872 -79.061 -32.5705 -80.2575 -33.0418 -80.8819ZM-33.0418 -12.0129C-33.7063 -12.993 -35.8551 -12.9285 -36.3539 -11.8151C-37.2092 -9.90591 -36.5035 -6.27096 -36.5034 -4.18434C-36.5033 -3.47322 -36.6757 -2.43308 -36.2487 -1.81221C-35.6176 -0.894356 -33.4079 -0.963163 -32.9367 -2.00926C-32.0792 -3.91288 -32.7871 -7.55735 -32.7872 -9.63981C-32.7873 -10.3549 -32.6173 -11.3868 -33.0418 -12.0129ZM-33.0351 -161.152C-33.8502 -161.303 -34.9266 -161.61 -35.6816 -161.107C-36.577 -160.511 -36.5992 -157.145 -35.9637 -156.341C-34.2036 -154.117 -33.0352 -157.39 -33.0351 -158.672V-161.152ZM-58.0572 -145.281C-58.0572 -146.425 -58.4799 -148.616 -57.8025 -149.587C-56.9564 -150.799 -54.3586 -151.573 -53.1023 -152.397C-50.5455 -154.073 -48.1461 -156.348 -46.4733 -158.92C-40.5478 -168.027 -40.3941 -181.738 -47.284 -190.412C-50.2556 -194.154 -54.1383 -196.453 -58.3049 -198.595L-58.0572 -202.563C-50.4038 -200.389 -44.0905 -195.25 -40.7924 -187.932C-33.9157 -172.675 -40.1512 -149.429 -58.0572 -145.281ZM-58.0572 40.6991C-58.0572 39.21 -58.5454 36.6981 -57.9077 35.3405C-57.4546 34.376 -55.7114 33.8095 -54.8365 33.2944C-52.959 32.1889 -51.1921 30.8101 -49.6339 29.2887C-45.3456 25.1018 -42.2314 19.5655 -42.2018 13.422C-42.1678 6.35344 -43.8342 0.256856 -48.5783 -5.15361C-50.2304 -7.03773 -52.2249 -8.65554 -54.341 -9.98909C-55.3432 -10.6207 -57.1544 -11.1946 -57.8025 -12.2159C-58.436 -13.214 -58.0572 -15.1895 -58.0572 -16.3348C-55.5025 -15.7275 -53.0408 -14.1382 -50.8726 -12.6976C-32.0642 -0.201399 -34.8359 34.4708 -58.0572 40.6991ZM-45.074 -174.294C-45.2722 -179.783 -47.2073 -185.433 -51.1624 -189.378C-58.6553 -196.851 -70.9197 -195.552 -76.9424 -186.941C-80.1757 -182.318 -81.0821 -177.097 -80.8398 -171.566C-80.7242 -168.927 -79.8898 -166.263 -78.7909 -163.879C-77.7844 -161.696 -76.3264 -159.61 -74.5472 -157.991C-72.9045 -156.496 -71.025 -155.246 -68.9578 -154.412C-56.1321 -149.236 -44.6269 -161.91 -45.074 -174.294ZM-58.0572 -142.057V-144.785C-52.7424 -146.016 -49.4241 -149.724 -45.1745 -152.72L-45.1708 -146.273L-45.1911 -143.943L-48.3951 -143.402L-58.0572 -142.057ZM-44.9267 -65.6815L-58.0571 -63.9457V-140.818L-45.1745 -142.305V-91.2228V-74.8565L-44.9267 -65.6815ZM-45.4222 -9.63951C-47.719 -12.2752 -50.8022 -14.1702 -53.8455 -15.8189C-54.8693 -16.3736 -57.397 -17.0933 -57.9076 -18.1682C-59.0148 -20.4991 -58.0571 -25.4029 -58.0571 -27.9895V-52.043V-59.4822C-58.0571 -60.2571 -58.3158 -61.6579 -57.8025 -62.3082C-57.3014 -62.9431 -55.5902 -62.9169 -54.8365 -63.0493C-51.9122 -63.5629 -47.8469 -64.4403 -44.9267 -63.9457L-45.1745 -50.5552V-24.022L-45.1737 -14.103L-45.4222 -9.63951ZM-45.2808 8.71054C-45.736 5.5288 -46.6791 2.53995 -48.3519 -0.216504C-54.0152 -9.54824 -66.58 -11.8642 -74.6525 -4.16189C-79.6212 0.579047 -81.7323 8.19026 -80.7753 14.9099C-80.3602 17.8241 -79.4065 20.8292 -77.8607 23.341C-76.5544 25.4636 -74.912 27.3138 -72.9219 28.8213C-71.3716 29.9956 -69.5821 30.9475 -67.7193 31.5144C-54.0641 35.6698 -43.4765 21.322 -45.2808 8.71054ZM-58.0573 41.1951C-52.7069 39.9231 -49.4369 36.0171 -45.1747 33.012C-45.1747 43.3438 -45.1251 53.6769 -45.1749 64.0086C-45.19 67.1609 -45.304 73.5624 -47.9937 75.731C-50.0269 77.3702 -57.1426 77.952 -57.9786 74.6703C-58.7832 71.512 -58.0573 67.2715 -58.0573 64.0086L-58.0573 41.1951ZM-45.4224 -195.868C-49.2295 -198.251 -53.1317 -202.844 -58.0573 -202.811V-217.441C-58.0573 -220.2 -58.3334 -223.512 -57.2621 -226.119C-56.9776 -226.812 -56.5595 -227.523 -55.8018 -227.749C-54.7489 -228.061 -53.6424 -227.582 -52.607 -227.435C-50.4767 -227.131 -47.2858 -228.004 -45.8541 -225.859C-44.5995 -223.979 -45.4224 -219.645 -45.4224 -217.441V-195.868ZM-58.5528 -198.843L-66.7283 -200.827V-212.73C-66.7283 -213.975 -67.1643 -216.261 -66.4737 -217.345C-65.2656 -219.241 -60.7745 -220.809 -58.8006 -221.905L-58.5528 -214.218V-198.843ZM-66.7283 -138.586V-147.513L-58.5528 -149.249C-58.5528 -147.543 -57.8158 -143.597 -58.8074 -142.184C-59.2898 -141.496 -60.531 -141.315 -61.278 -141.065C-63.2224 -140.416 -64.8654 -139.36 -66.7283 -138.586ZM-66.7283 -62.4579V-121.724V-132.138C-66.7283 -133.454 -67.082 -135.398 -66.4737 -136.601C-65.2717 -138.978 -61.0135 -140.214 -58.5528 -140.322V-81.5518V-68.9051L-58.8074 -64.0917L-61.0302 -63.4173L-66.7283 -62.4579ZM-58.5528 -18.3185C-60.242 -18.5718 -65.4646 -19.8114 -66.4737 -21.2079C-67.0042 -21.9422 -66.7283 -23.4134 -66.7283 -24.2699V-31.7091V-60.97L-58.8006 -62.4579C-57.5812 -58.3289 -58.5528 -52.6346 -58.5528 -48.3234V-18.3185ZM-58.8006 -12.3672L-66.4737 -15.2345L-66.7283 -19.5584C-62.5736 -18.9356 -57.3107 -17.4124 -58.8006 -12.3672ZM-58.5528 71.9438C-60.5895 70.7991 -64.7254 69.92 -66.0524 67.9655C-67.4959 65.8393 -66.7283 61.7394 -66.7283 59.2972L-66.7283 37.9714L-58.8006 35.4917C-57.785 38.9306 -58.5528 43.5595 -58.5528 47.1465L-58.5528 71.9438Z" fill="#304A6E"/>
</svg>
