<svg width="81" height="72" viewBox="0 0 81 72" fill="none" xmlns="http://www.w3.org/2000/svg">
<rect width="81" height="72" fill="#1A1E26"/>
<rect x="-530" y="-233" width="980" height="753" rx="4" fill="white"/>
<path d="M80.8114 39.9732C79.8295 35.063 78.4369 30.5923 74.8876 26.8727C68.1717 19.8342 56.7525 19.979 50.2903 27.3274C45.6191 32.6394 43.9999 40.075 45.3751 46.9164C46 50.0253 47.2332 53.0803 49.1818 55.5955C50.6142 57.4444 52.1432 59.037 54.1825 60.2241C65.8526 67.0177 78.4265 58.3722 80.4792 45.9245C80.8047 43.9509 81.2142 41.9871 80.8114 39.9732ZM80.7629 225.209C79.3205 219.455 77.7675 214.215 72.7633 210.458C64.6093 204.338 53.6019 207.2 48.2591 215.538C44.9188 220.751 44.1236 227.465 45.6044 233.393C47.6007 241.383 54.4146 248.454 63.1013 248.239C72.3856 248.009 78.8131 240.253 80.4234 231.657C80.8162 229.56 81.297 227.34 80.7629 225.209ZM44.2728 4.51293L35.1063 7.98458L34.633 0.0494039L34.1154 -3.91815C22.2961 20.3092 27.3105 47.4491 21.2614 72.9536C20.0505 78.0594 17.4075 82.4925 14.9849 87.0881C11.3749 93.9361 8.03899 100.951 4.66839 107.918C3.11241 111.134 1.0168 114.424 -0.0507716 117.837C-3.6417 129.317 -2.79831 142.648 -2.79831 154.537C-2.79831 169.466 -2.58888 184.08 -1.10598 198.924C-0.265261 207.34 0.923718 216.276 3.93835 224.217C8.88998 237.262 15.8998 249.659 20.2691 262.901C22.0331 268.248 22.3855 274.05 23.6815 279.516C24.9689 284.945 26.5772 293.845 33.8676 291.914L32.8767 283.979C35.4651 283.341 38.171 283.225 40.8044 282.844C41.6347 282.723 43.1597 282.206 43.8412 282.89C44.8482 283.9 44.596 287.271 45.017 288.69C46.4502 293.521 51.3374 295.69 56.1645 293.866C57.3233 293.428 58.651 292.555 59.186 291.395C59.7261 290.223 59.4209 288.819 60.6508 288.049C62.5844 286.838 65.074 287.03 66.6219 285.147C68.2672 283.145 67.8084 280.188 67.8084 277.78V260.669C67.8084 258.696 68.5095 255.092 67.6589 253.305C67.0526 252.032 62.4644 251.463 61.1193 250.951C56.5549 249.213 52.0607 246.469 48.7745 242.815C40.9235 234.087 41.6345 220.031 49.4976 211.571C54.3031 206.4 61.0059 203.552 67.8084 202.148V108.91L67.8084 80.6406C67.8084 76.9386 68.8104 71.5796 67.7296 68.0507C67.4152 67.024 65.6987 67.133 64.8355 66.9813C61.9812 66.4794 59.2412 65.5058 56.66 64.2132C49.8929 60.8244 44.9864 54.6972 43.6445 47.1642C40.7245 30.773 51.9322 18.4678 67.8084 16.4155V3.27289C67.8084 1.8296 68.321 -0.853566 67.5538 -2.11726C66.1762 -4.38622 61.7281 -5.21131 59.666 -6.85403C58.0345 -8.15359 58.6466 -10.8963 57.1132 -12.4563C55.9522 -13.6375 54.6035 -13.0419 53.1916 -12.8884C50.5071 -12.5966 46.4068 -13.2358 44.7035 -10.6098C43.8385 -9.27616 44.0251 -7.41465 44.0251 -5.90211C44.0251 -2.42168 44.2728 1.02706 44.2728 4.51293ZM66.5697 15.1756L58.3942 17.1594L58.6419 -5.65416C60.5682 -5.044 65.4983 -2.94674 66.4873 -1.13782C67.1452 0.0656202 66.8174 2.41626 66.8174 3.76886C66.8174 7.5819 66.5697 11.3754 66.5697 15.1756ZM66.8174 77.417L61.1193 74.9024L58.6674 73.8189L58.3942 66.7542L66.5697 68.49L66.8174 77.417ZM66.8174 153.545L58.3942 152.057C59.6849 132.784 58.6419 113.108 58.6419 93.7833C58.6419 89.2021 59.0012 84.4458 58.4649 79.8967C58.3594 79.0014 57.9134 76.0086 59.194 75.8057C60.0616 75.6683 61.2975 76.279 62.1103 76.5531C63.5296 77.0317 65.5587 77.7726 66.3151 79.1752C66.894 80.2488 66.802 82.4003 66.8165 83.6163C66.8547 86.839 66.8172 90.0644 66.8172 93.2873V133.707C66.8172 140.24 66.2426 147.046 66.8174 153.545ZM58.394 197.684L58.6417 177.35L58.394 153.793L58.6417 153.545L66.5695 155.033C66.5702 164.516 66.8172 174.046 66.8172 183.55C66.8172 186.428 67.8991 192.09 66.4594 194.64C65.614 196.137 60.0479 197.515 58.394 197.684ZM66.5695 201.156L58.394 203.388V199.42L66.5695 196.444V201.156ZM58.6417 287.947V280.011V262.901V251.494L66.5695 253.974V275.3C66.5695 277.758 67.3276 281.783 66.005 283.956C64.6144 286.24 60.6575 286.204 58.6417 287.947ZM57.8985 13.1919C52.5746 13.6571 49.6465 18.0089 45.2636 20.1351C45.2636 12.8501 45.2753 5.5658 45.2636 -1.68654C45.2599 -3.88951 44.4525 -8.18201 45.7812 -10.0488C47.1067 -11.9109 50.5326 -11.1953 52.4481 -11.4006C53.4291 -11.5057 54.4188 -11.9552 55.4172 -11.7932C56.2426 -11.6592 56.7303 -11.094 57.0652 -10.3618C58.5517 -7.11173 57.936 -3.12892 57.8994 0.297203C57.8551 4.45245 58.57 9.11735 57.8985 13.1919ZM57.8987 70.7217C39.9267 66.4588 33.4423 42.5638 41.005 27.3264C44.5201 20.2441 50.5224 15.8422 57.8987 13.4398C59.16 18.5853 53.741 19.418 50.4664 22.2251C46.5205 25.6076 43.7723 30.1545 42.7034 35.2615C41.0454 43.1833 42.371 52.1392 47.4944 58.571C49.3083 60.8481 51.4729 62.674 53.9348 64.2176C55.0204 64.8982 57.1558 65.4995 57.8417 66.6091C58.4246 67.552 58.1834 69.7145 57.8987 70.7217ZM58.1464 73.9454L44.7683 72.2096C45.3805 69.6354 45.3805 65.8566 44.7683 63.2825L49.9709 67.3921L58.1464 71.4656V73.9454ZM45.016 150.569L45.016 73.6974L54.4303 74.6893L57.8597 75.7564L57.9208 80.6406L57.8987 91.7994L57.8987 134.451V147.098L57.8786 151.651L54.678 151.632L45.016 150.569ZM45.016 206.116L45.016 152.057L54.678 152.988L57.8409 153.695L57.9021 156.521L57.8984 163.712V188.509L57.9196 194.709L57.8702 197.829L53.6867 200.226L45.016 206.116ZM57.8983 256.702C34.5145 250.314 31.8403 214.873 51.457 202.845C53.4358 201.632 55.6262 200.213 57.8983 199.668C57.9904 200.836 58.5304 202.499 57.8917 203.583C57.2599 204.655 55.4431 205.221 54.4301 205.887C52.2906 207.294 50.2441 208.924 48.5264 210.827C43.9222 215.929 41.8797 222.355 42.0466 229.177C42.2013 235.499 45.2704 241.219 49.7266 245.535C51.2705 247.03 53.0817 248.301 54.9256 249.399C55.8023 249.921 57.1036 250.295 57.7393 251.13C58.4153 252.017 58.2097 255.608 57.8983 256.702ZM45.0159 249.015L50.9617 253.866L58.1463 257.446C56.7138 265.169 57.8859 274.137 57.8985 281.996C57.9022 284.373 59.1107 289.125 57.749 291.16C56.0199 293.743 49.9328 293.509 47.7739 291.591C46.6277 290.573 46.1666 288.652 45.8706 287.203C44.7876 281.902 45.0159 276.462 45.0159 271.085V249.015ZM44.5204 72.2099L31.1423 73.5735L21.4803 76.4254C26.1684 58.8722 25.1567 40.5071 27.6416 22.6151C28.3745 17.3383 29.4288 12.0934 30.964 6.99278C31.5875 4.92097 32.0946 2.311 33.372 0.545525C34.0875 2.96818 34.351 6.99212 33.8675 9.47257C37.1644 9.6718 41.6929 6.69886 44.7682 5.50494L44.7682 15.9198C44.7682 17.4258 45.1158 19.4439 44.6223 20.8793C43.9652 22.7905 42.065 24.4935 41.1161 26.3347C38.8393 30.7522 37.6436 35.7457 37.5846 40.7172C37.5233 45.8702 38.2534 51.112 40.386 55.8436C41.4266 58.1523 43.5735 60.1984 44.3746 62.5389C45.2934 65.2233 44.5204 69.3728 44.5204 72.2099ZM44.5204 150.569L-1.55975 153.793C-1.55975 142.626 -2.26232 130.449 0.673563 119.573C1.54138 116.358 3.34243 113.366 4.81485 110.398C7.22829 105.532 9.57621 100.629 12.0049 95.7674C14.1609 91.4514 16.2206 87.0659 18.6118 82.8727C19.4098 81.4733 19.9643 79.2137 21.2978 78.2486C27.3089 73.8986 37.4442 73.6977 44.5204 73.6977L44.5204 150.569ZM44.3709 152.413C44.9739 153.602 44.5204 155.949 44.5204 157.265V169.167L44.5204 194.957C44.5204 198.526 45.4027 203.439 44.3933 206.86C43.836 208.748 41.9444 210.33 41.0006 212.067C39.3247 215.151 37.9949 220.437 34.6107 222.054C31.005 223.777 26.3866 220.015 23.71 217.986C18.2983 213.885 13.3883 209.175 8.59771 204.38C5.50141 201.28 1.88367 197.65 -0.142864 193.717C-1.36289 191.349 -0.861412 188.109 -1.10631 185.534C-1.77374 178.514 -1.80749 171.514 -1.80749 164.456V157.761C-1.80722 157.048 -2.00883 155.8 -1.37584 155.288C-0.451119 154.539 2.46526 154.829 3.64285 154.775C7.91566 154.581 12.2666 154.405 16.5255 153.999C23.6059 153.325 30.7049 152.069 37.8314 152.057C39.1488 152.057 43.6507 150.993 44.3709 152.413ZM31.6378 282.739L32.6288 290.923C28.7659 290.922 27.3937 288.153 26.3329 284.723C24.5455 278.945 23.6735 273.025 22.4704 267.117C20.7209 258.527 16.3898 250.565 12.9145 242.568C6.38169 227.535 0.392362 212.582 -0.321033 195.949C2.81198 198.369 5.40171 202.591 8.12994 205.539C12.4581 210.216 17.4365 214.463 22.4103 218.432C25.4012 220.818 30.718 225.245 34.8584 223.283C36.5438 222.485 37.433 220.864 38.5746 219.506C38.7693 220.818 38.1927 222.145 38.1013 223.474C37.854 227.067 37.739 230.82 38.4037 234.385C39.0424 237.809 40.2476 240.981 41.8585 244.056C42.5891 245.45 43.9498 246.768 44.3933 248.271C44.8929 249.964 44.5204 252.217 44.5204 253.974V265.629V276.788C44.5204 277.811 44.9322 280.012 44.2658 280.854C43.7163 281.548 41.6324 281.427 40.8043 281.5C37.806 281.762 34.5615 282.035 31.6378 282.739ZM38.6912 251.247C38.0579 248.505 34.6804 246.992 32.3917 248.865C30.7212 250.232 30.3544 252.469 30.9091 254.47C31.6728 257.226 35.0794 258.436 37.29 256.564C38.775 255.306 39.1122 253.069 38.6912 251.247ZM36.4087 135.718C36.0805 134.187 33.3635 134.096 32.7783 135.476C32.0469 137.201 32.0469 143.356 32.7783 145.081C33.329 146.38 35.8048 146.393 36.3271 145.059C36.6396 144.26 36.3554 143.222 36.3458 142.387C36.3222 140.333 36.8343 137.703 36.4087 135.718ZM36.4447 204.413C36.0153 203.006 33.4389 202.892 32.8127 204.201C31.9424 206.02 32.6288 209.568 32.6288 211.571C32.6288 212.301 32.4625 213.302 32.7783 213.982C33.3678 215.251 35.8572 215.006 36.3332 213.776C36.6602 212.931 36.3696 211.949 36.3485 211.075C36.3007 209.088 37.0167 206.287 36.4447 204.413ZM36.0972 54.852C35.2822 54.7006 34.2057 54.3938 33.4508 54.8967C32.534 55.5071 32.5257 58.9134 33.2738 59.6621C35.2432 61.6334 36.0971 58.7265 36.0972 57.332V54.852ZM1.66092 200.909C1.70507 206.247 3.37521 211.704 4.91025 216.779C7.81356 226.379 11.391 235.122 15.9662 244.056C18.262 248.539 20.234 254.327 23.4623 258.191C24.0755 254.622 23.71 250.658 23.71 247.032C23.71 242.277 24.0426 237.376 23.534 232.649C23.2603 230.106 24.0137 227.134 22.9456 224.714C22.0389 222.66 20.0104 220.922 18.5459 219.259C15.606 215.92 12.6628 212.564 9.59825 209.34C7.14805 206.762 4.74915 202.679 1.66092 200.909ZM23.2146 81.6335C21.7613 82.3704 20.8267 84.027 19.9308 85.3531C17.8842 88.3823 16.0619 91.5664 14.3159 94.776C9.55519 103.527 3.95088 113.063 1.53094 122.797C0.544024 126.767 0.449383 130.894 0.152478 134.948C-0.14737 139.042 -0.321016 143.241 -0.321016 147.346C-0.321016 148.281 -0.74664 150.661 0.076211 151.307C1.13348 152.137 5.06432 151.244 6.36804 151.066C11.9479 150.301 17.6248 150.285 23.2146 149.578L23.2146 81.6335ZM22.9668 155.778C17.7478 157.021 11.4861 156.544 6.12029 156.779C4.97102 156.83 0.887799 156.522 0.181346 157.415C-0.569167 158.363 0.117279 160.396 0.164697 161.481C0.317334 164.97 -0.0732887 168.419 -0.0732887 171.896C-0.0732887 178.05 -1.06012 185.848 1.01363 191.734C3.25042 198.082 9.78967 203.5 15.039 207.359C17.4771 209.152 20.2354 212.038 23.2145 212.811L23.2145 173.88V161.977L22.9668 155.778ZM-38.9689 347.461C-35.4333 346.618 -31.2011 347.213 -27.5727 347.213H-5.27589C-2.31279 347.213 1.24748 347.751 4.13834 347.082C8.76355 346.012 7.39246 341.206 8.7472 338.075C9.26497 336.878 10.8438 336.789 11.3246 335.31C11.8204 333.786 11.7514 331.555 11.0627 330.103C10.6481 329.229 9.53857 328.398 9.5774 327.375C9.65589 325.308 11.8567 323.519 12.0743 321.424C12.3412 318.855 9.03846 314.53 7.91489 312.249C7.50171 311.41 7.09343 310.053 6.27129 309.528C5.01027 308.723 2.13057 309.273 0.66994 309.273H-13.4514H-66.9639H-82.5717C-84.0265 309.273 -87.1488 308.682 -88.3766 309.528C-89.2111 310.103 -89.3921 311.609 -89.7342 312.497C-90.6316 314.825 -93.3549 319.451 -92.8434 321.92C-92.4725 323.71 -90.3887 325.486 -90.3926 327.304C-90.3941 328.12 -91.3902 328.914 -91.7582 329.607C-92.5021 331.008 -92.7169 333.023 -92.3495 334.566C-91.9646 336.183 -90.5176 336.678 -89.8835 338.049C-88.5075 341.024 -88.9455 344.839 -85.5446 346.648C-82.8289 348.092 -78.1435 347.213 -75.1394 347.213H-51.1083C-48.2958 347.213 -43.3133 346.238 -40.7398 347.363C-39.6565 347.836 -39.9599 349.485 -39.9599 350.437C-39.9599 352.129 -39.6217 354.243 -40.0664 355.882C-40.3938 357.09 -41.6772 357.939 -40.8719 359.307C-40.1205 360.584 -38.3738 359.944 -38.1664 358.619C-38.0106 357.623 -38.7723 356.647 -38.8416 355.644C-39.0228 353.021 -38.4206 349.985 -38.9689 347.461ZM-19.3972 -38.6337C-13.483 -38.6337 -7.487 -38.5275 -1.55975 -38.3821C0.890931 -38.3219 3.88653 -37.4554 6.11646 -38.8803C10.0107 -41.3688 8.65259 -47.4528 8.86877 -51.2767C8.97712 -53.1932 11.428 -54.5408 11.744 -56.7358C11.9453 -58.1338 11.8104 -60.0123 10.876 -61.1437C10.3481 -61.7828 9.34254 -61.9669 8.99476 -62.7429C7.6419 -65.7612 8.81887 -69.6515 5.12931 -71.501C3.44377 -72.3458 0.777689 -71.8622 -1.06426 -71.8622L-14.6901 -71.8622H-63.7432H-78.6078C-80.6415 -71.8622 -83.4503 -72.3642 -85.2967 -71.3862C-88.9346 -69.4591 -88.1634 -65.7313 -89.7629 -62.697C-90.8486 -60.6372 -92.6742 -59.9541 -92.4068 -57.2317C-92.1659 -54.7788 -89.9626 -53.2406 -89.7707 -51.0324C-89.4725 -47.6015 -90.6444 -43.2149 -88.6465 -40.144C-86.3031 -36.542 -78.1568 -38.1378 -74.3961 -38.1378C-70.6628 -38.1378 -65.3679 -37.1579 -61.798 -38.2166C-60.4472 -38.6172 -61.0214 -40.7295 -59.28 -41.0568C-56.8763 -41.5087 -54.0491 -41.1134 -51.6038 -41.1134H-36.2437H-23.6089C-21.7074 -41.1127 -19.7407 -40.855 -19.3972 -38.6337ZM-2.05524 319.192L5.37705 310.761H5.87254C7.76287 314.754 11.8893 319.609 9.77602 323.904C8.99345 325.494 8.42697 327.908 6.14245 327.296C5.06359 327.008 4.16455 325.694 3.44081 324.905C1.66601 322.972 -0.0705846 320.911 -2.05524 319.192ZM10.4944 -58.9673C10.8754 -57.1195 10.324 -54.3996 8.34901 -53.6617C7.01525 -53.1633 5.05244 -53.5121 3.64285 -53.5121C-0.0855966 -53.5121 -4.05524 -53.878 -7.75332 -53.4414C-14.6201 -52.6304 -21.8944 -53.2643 -28.8115 -53.2643H-68.9458C-72.555 -53.2643 -76.246 -53.4889 -79.8465 -53.242C-82.5104 -53.0594 -86.1129 -52.3698 -88.7232 -53.095C-90.1675 -53.4964 -90.9701 -55.3911 -91.1681 -56.7358C-91.3564 -58.0149 -91.2535 -59.7393 -89.9779 -60.4485C-88.736 -61.139 -86.435 -60.7034 -85.0491 -60.7034H-73.1574L-11.9649 -60.7034L5.12931 -60.7034C6.96666 -60.7034 9.99951 -61.3672 10.4944 -58.9673ZM10.4858 332.831C10.5487 333.856 10.3533 335.4 9.29409 335.87C7.91504 336.482 5.62611 336.054 4.13833 336.054H-8.00108H-69.1936H-86.0401C-88.0304 336.054 -91.0033 336.558 -91.2283 333.823C-91.3669 332.138 -91.1594 329.82 -89.4853 328.907C-88.1962 328.204 -85.9816 328.615 -84.5536 328.615H-72.9097H-11.4695H1.41317C3.35234 328.615 5.72015 328.248 7.60674 328.719C9.46627 329.183 10.3764 331.048 10.4858 332.831ZM7.85449 -62.1912L-57.3019 -62.1912L-77.8645 -62.1912L-88.2697 -61.9432C-88.9468 -64.6266 -87.0182 -69.3957 -84.3049 -70.3474C-82.6516 -70.9273 -80.5838 -70.6223 -78.8555 -70.6223H-68.2024H-12.9558H0.174598C1.9633 -70.6223 4.16408 -70.9174 5.57829 -69.574C7.63345 -67.6217 7.26016 -64.69 7.85449 -62.1912ZM3.643 -39.3777L3.39526 -52.0243H7.60688C7.93634 -47.8462 8.98364 -40.6213 3.643 -39.3777ZM-88.7651 337.542L-88.5173 337.294L-74.6437 337.542H-48.383H-12.4603L7.35915 337.294C8.00908 339.66 7.11202 344.385 4.6118 345.475C3.15708 346.109 0.989749 345.723 -0.568631 345.725H-11.7171H-68.9456C-72.652 345.725 -76.3914 345.581 -80.0941 345.744C-81.999 345.828 -84.1955 346.183 -85.7815 344.884C-87.8148 343.217 -88.2926 339.979 -88.7651 337.542ZM4.88172 310.761L-2.30283 318.448H-2.79832L-9.73511 310.761L0.174598 310.513L4.88172 310.761ZM4.88172 327.375H-10.2306C-8.69504 324.492 -4.95974 321.065 -2.30283 319.192L4.88172 327.375ZM-84.8012 -27.7229V-19.0439H-61.7611L-14.69 -19.0439L-1.5596 -19.0439L3.24577 -19.1303L3.643 -21.0276L3.49351 -27.3576L-1.5596 -27.7229L-17.6629 -27.7229L-84.8012 -27.7229ZM3.39526 -1.18978C-4.16267 -2.61506 -11.8369 -3.40325 -19.3971 -4.81387C-21.1588 -5.14261 -22.4335 -6.72418 -24.1042 -6.96373C-28.3202 -7.56831 -33.2017 -6.89305 -37.4823 -6.89305C-43.8254 -6.89305 -50.4927 -7.4957 -56.8063 -6.86701C-58.6041 -6.68795 -59.9802 -5.2164 -61.7611 -4.82696C-68.9723 -3.24985 -77.1912 -1.26299 -84.5534 -0.941613L-84.5534 50.3889C-84.5534 58.786 -85.3045 67.5729 -84.5277 75.9302C-84.261 78.7985 -83.1259 81.7275 -82.5761 84.5672C-80.6266 94.6364 -77.9442 104.636 -76.3082 114.757C-75.3503 120.683 -75.6393 126.975 -75.3772 132.964C-74.9289 143.211 -74.5944 153.437 -74.6439 163.713C-74.7131 178.055 -74.5617 192.832 -75.9245 207.108C-77.6804 225.502 -82.9228 243.53 -84.759 261.91C-85.7534 271.865 -84.8012 282.402 -84.8012 292.411C-77.0131 293.418 -69.3476 295.33 -61.5133 296.089C-54.7076 296.748 -47.5428 296.131 -40.703 296.131C-33.2685 296.131 -25.547 296.716 -18.1584 295.924C-12.9134 295.362 -7.72559 294.586 -2.55055 293.552C-1.10618 293.263 1.90764 293.265 2.99193 292.199C3.86029 291.345 3.39527 288.357 3.39527 287.204V272.821C3.39527 251.927 -2.11881 230.972 -5.17137 210.332C-5.928 205.216 -5.80346 200.107 -6.02871 194.958C-6.54202 183.224 -6.74329 171.513 -6.76219 159.746C-6.77995 148.693 -6.79719 137.567 -6.04112 126.517C-5.76039 122.414 -6.0788 118.195 -5.45006 114.118C-3.92622 104.239 -0.818697 94.3443 1.47144 84.6096C2.06308 82.0947 3.04247 79.483 3.34958 76.9223C4.18687 69.9411 3.39529 62.3841 3.39529 55.3486C3.39529 36.5754 2.50618 17.5572 3.39526 -1.18978ZM2.8998 -39.3772L0.174626 -39.6252V-39.8732H2.65206V-51.7759H-8.24863L0.174626 -52.2718L2.82219 -51.6971L2.8998 -48.0563V-39.3772ZM-84.3057 -19.5393V-27.2266L3.14751 -27.2266C3.14751 -25.581 3.92511 -21.2414 2.89289 -19.937C2.1361 -18.9805 -1.18156 -19.5393 -2.30283 -19.5393L-18.1584 -19.5393L-84.3057 -19.5393ZM2.73805 -67.3944C1.81304 -70.2554 -6.89469 -69.8451 -5.62919 -65.4154C-4.7301 -62.2683 4.28678 -62.6044 2.73805 -67.3944ZM2.42129 -57.7137C2.00083 -59.2663 -0.224733 -58.532 0.328861 -56.9979C0.847998 -55.5594 2.79994 -56.3156 2.42129 -57.7137ZM2.46812 340.777C1.91045 339.407 0.412911 339.527 -0.816381 339.526C-3.30099 339.526 -7.08686 339.8 -5.58733 343.483C-4.99792 344.931 -3.33687 344.734 -2.05509 344.734C0.453273 344.734 3.93724 344.385 2.46812 340.777ZM2.29665 -66.8987C3.25876 -63.4425 -4.56207 -63.432 -5.16736 -65.6684C-6.12282 -69.1986 1.6642 -69.1706 2.29665 -66.8987ZM2.21924 332.143C1.56647 330.683 -0.192991 331.995 0.327908 333.289C0.931372 334.789 2.83112 333.511 2.21924 332.143ZM2.27735 341.758C2.85791 345.179 -4.76428 345.259 -5.21897 342.745C-5.86087 339.196 1.85487 339.268 2.27735 341.758ZM2.15653 75.6814H1.90879L-13.7472 24.8467L-19.6104 5.75282L-22.6177 -4.41412C-17.2022 -2.29432 -10.5419 -1.97094 -4.78026 -1.15813C-3.35609 -0.957195 0.993789 -0.957644 1.90191 0.198855C2.70981 1.22762 2.15653 4.2382 2.15653 5.5048V19.8873V75.6814ZM2.0491 262.38C1.9967 263.7 -0.307027 264.671 -1.31186 265.225C-5.08307 267.305 -9.00349 268.78 -13.2035 269.702C-22.4886 271.74 -32.4828 270.837 -41.9417 270.837C-49.7878 270.837 -58.2625 271.679 -65.9727 269.987C-70.6554 268.96 -75.3181 267.554 -79.5986 265.354C-80.9421 264.664 -83.492 263.956 -83.5258 262.156C-83.597 258.355 -82.2898 254.246 -81.6891 250.503C-80.1908 241.165 -78.5655 231.838 -77.1885 222.482C-76.7009 219.169 -76.0942 215.88 -75.6347 212.563C-75.4945 211.551 -75.4859 209.3 -74.7076 208.58C-73.8973 207.829 -71.9774 207.694 -70.9276 207.461C-67.7412 206.752 -64.5062 205.969 -61.2656 205.581C-55.0379 204.835 -48.7062 205.124 -42.4372 205.124C-35.6774 205.124 -28.8581 204.877 -22.1223 205.349C-18.2181 205.623 -14.5228 206.543 -10.7261 207.441C-9.60229 207.707 -7.54889 207.709 -6.80293 208.722C-6.07795 209.706 -6.14269 211.633 -5.92262 212.811C-5.26345 216.339 -4.76406 219.927 -4.21673 223.474C-2.85135 232.322 -1.44466 241.177 0.0346641 250.007C0.682915 253.876 2.20442 258.465 2.0491 262.38ZM-83.5625 291.418C-84.7969 284.763 -83.8102 277.11 -83.8102 270.341C-83.8102 268.357 -83.4341 266.07 -83.8102 264.141C-81.4524 263.984 -78.1277 266.622 -75.8825 267.514C-70.7455 269.554 -65.5145 270.768 -60.0269 271.29C-52.0841 272.047 -43.7299 271.333 -35.7481 271.333C-28.9454 271.333 -21.6345 272.054 -14.9377 270.672C-11.1993 269.9 -7.48593 268.825 -4.03703 267.171C-2.01548 266.201 0.0146598 264.45 2.15653 263.894V283.731C2.15653 285.379 2.92683 289.672 1.90191 290.99C1.03496 292.105 -2.22691 292.098 -3.54155 292.361C-8.98876 293.451 -14.5821 294.509 -20.1403 294.646C-32.7933 294.957 -45.8904 295.735 -58.5405 294.868C-66.9162 294.294 -75.2219 291.777 -83.5625 291.418ZM1.16557 75.4336C-5.99558 72.8094 -12.059 67.5996 -19.6448 65.7726C-25.1748 64.4408 -31.5734 65.2668 -37.2346 65.2668C-45.7366 65.2668 -55.5343 63.9085 -63.7431 66.3673C-70.6718 68.4427 -76.2882 72.9326 -82.8193 75.6817C-81.9472 69.2311 -78.7171 62.2763 -76.6444 56.0917C-72.3998 43.4267 -68.6687 30.5879 -64.4861 17.9038C-62.6654 12.3824 -60.8726 6.84988 -59.1759 1.28959C-58.479 -0.99417 -57.4033 -3.28671 -57.054 -5.65372H-42.4372C-42.4994 -4.22487 -43.8768 -1.72321 -43.2268 -0.45602C-41.5014 2.90777 -36.4082 3.38068 -35.1775 -0.703967C-34.7947 -1.97443 -35.8519 -4.17956 -36.2436 -5.40569L-26.8294 -5.65372L-23.5726 -5.07889L-21.254 2.03351L-16.0713 18.8957L-3.85848 58.5715L1.16557 75.4336ZM-1.06411 74.9377C-5.46242 74.4994 -9.73887 72.6852 -14.1945 72.2521C-20.7685 71.6132 -27.418 72.1201 -34.0139 71.9584C-44.3697 71.7045 -55.1566 70.7399 -65.4773 71.7561C-70.6488 72.2654 -75.5581 74.0311 -80.5896 75.1857V74.9377C-74.1359 70.9842 -66.8334 67.0662 -59.2837 65.8432C-51.9935 64.6623 -43.6358 65.7627 -36.2436 65.7627C-31.5827 65.7627 -26.4875 65.1789 -21.8745 65.8371C-17.3264 66.4861 -13.1049 68.741 -8.99188 70.6458C-6.39718 71.8475 -3.27032 73.108 -1.06411 74.9377ZM-10.4783 326.383L-10.4783 311.256L-4.78025 316.712L-3.27431 318.944L-5.028 321.175L-10.4783 326.383ZM-3.64667 241.328C-4.6663 233.555 -6.1318 225.887 -8.03226 218.266C-8.5047 216.372 -8.69122 211.888 -10.1314 210.544C-10.949 209.78 -12.8841 209.704 -13.9467 209.488C-17.1343 208.841 -20.3368 208.101 -23.6087 208.1H-57.3017C-60.715 208.1 -64.1037 208.628 -67.4592 209.234C-68.487 209.42 -70.4555 209.397 -71.1916 210.229C-71.8909 211.02 -71.9615 212.562 -72.1671 213.555C-72.6818 216.042 -73.3023 218.518 -73.8711 220.994C-75.8853 229.762 -77.6167 238.515 -77.6167 247.527C-77.6167 249.826 -77.9651 252.438 -77.5799 254.704C-77.2931 256.391 -73.4287 255.462 -72.1663 255.462H-54.8243H-16.4242C-13.2887 255.462 -10.1445 255.393 -7.00994 255.462C-6.16575 255.482 -4.43312 256.03 -3.79617 255.269C-3.15527 254.503 -3.54154 252.435 -3.54154 251.491C-3.54154 248.159 -3.21316 244.629 -3.64667 241.324M-6.7622 206.856L-22.1222 203.89L-43.6759 203.88L-59.0359 203.923L-74.8915 206.856L-74.3862 197.433L-73.8996 179.331L-73.6625 142.631L-75.1392 114.858L-61.2656 112.897L-43.1804 112.874L-20.6358 112.884L-6.7622 114.858L-7.99728 146.847L-7.50906 183.299L-6.7622 206.856ZM-8.99188 -51.7803H-10.2306V-52.0282L-8.99188 -51.7803ZM-10.7261 -50.2925H-70.9276V-51.7803L-10.7261 -52.0282V-50.2925ZM-10.8767 -49.2219C-10.0953 -47.5623 -12.2208 -47.5652 -13.2035 -47.5647H-22.8655H-59.2837H-67.9547C-68.7397 -47.5647 -70.3156 -47.266 -70.7425 -48.1393C-71.4938 -49.6762 -69.6881 -49.7945 -68.6979 -49.7965H-60.0269H-23.8565H-14.1945C-13.3487 -49.7965 -11.3238 -50.1714 -10.8767 -49.2219ZM-70.9276 -47.0688H-10.7261L-11.1233 -45.0919L-14.1945 -44.837H-21.8745H-58.2927H-67.2115L-70.5304 -45.0919L-70.9276 -47.0688ZM-10.7261 -39.8776H-18.4061C-19.7501 -43.2758 -24.1271 -42.6052 -27.0771 -42.6052H-52.8424C-55.9486 -42.6052 -61.2633 -43.749 -62.0089 -39.6295L-70.6799 -39.3816C-70.9554 -40.3146 -71.4363 -43.3909 -70.5277 -44.0899C-69.7866 -44.6599 -68.0941 -44.3411 -67.2115 -44.3411H-58.7882H-22.37H-13.9467C-13.1661 -44.3411 -11.534 -44.6427 -10.9807 -43.9435C-10.3118 -43.0981 -10.7261 -40.9109 -10.7261 -39.8776ZM-11.4693 315.716C-14.837 316.713 -19.3527 315.965 -22.8655 315.965C-22.9018 312.896 -27.0142 313.981 -29.3068 313.981H-50.6127C-52.9975 313.981 -58.0073 312.781 -58.045 315.965H-70.1844L-69.9297 310.907L-66.2205 310.509H-55.8153H-11.7171L-11.4693 315.716ZM-11.4693 323.9H-25.5907H-54.0811L-69.9366 324.148L-70.1844 316.46H-58.045C-57.8402 319.147 -53.5876 318.196 -51.6037 318.196H-30.2978C-28.2192 318.196 -23.0784 319.254 -22.8655 316.46H-14.69L-11.7239 316.858L-11.4693 323.9ZM-11.4693 327.123L-17.9106 327.371H-30.05H-70.1844V324.644H-25.3429H-15.4332L-11.8667 324.898L-11.4693 327.123ZM-19.5022 135.192C-19.9198 132.047 -20.8907 129.149 -23.8565 127.513C-26.3052 126.163 -29.0903 126.513 -31.7842 126.513L-46.6488 126.513C-50.4303 126.513 -55.5291 125.583 -58.7882 127.911C-63.1574 131.032 -62.5043 136.686 -62.5043 141.391C-62.5043 143.338 -62.7055 145.413 -62.43 147.342C-60.892 158.117 -48.6844 155.526 -40.703 155.526C-35.9773 155.526 -28.6836 156.893 -24.3519 154.841C-17.9458 151.806 -18.7173 141.103 -19.5022 135.192ZM-19.9633 135.192C-19.2896 140.83 -18.404 151.15 -24.3519 154.157C-28.773 156.393 -36.0952 155.03 -40.9507 155.03C-47.4356 155.03 -60.489 157.555 -61.7164 148.334C-62.4655 142.706 -63.7777 131.839 -58.2506 128.306C-55.045 126.258 -50.5173 127.009 -46.8965 127.009H-33.5184C-26.9493 127.009 -20.9137 127.238 -19.9633 135.192ZM-23.6087 317.7H-57.3017L-57.5495 314.725L-46.6488 314.477H-23.6087V317.7ZM-25.8455 -58.2906C-26.7711 -59.4263 -28.4209 -57.698 -27.4229 -56.6041C-26.4016 -55.4847 -25.0583 -57.3246 -25.8455 -58.2906ZM-25.7784 332.14C-26.3997 330.702 -28.3978 331.975 -27.7527 333.286C-27.0273 334.76 -25.1876 333.507 -25.7784 332.14ZM-34.2617 186.77C-36.862 188.038 -39.122 191.801 -41.0214 193.962C-41.9292 194.994 -42.9003 195.796 -43.1804 197.185L-37.4814 190.843L-34.2617 186.77ZM-41.1985 -5.16124H-37.2346C-36.944 -3.89256 -35.9151 -1.92645 -36.6506 -0.701362C-37.9677 1.49254 -41.2468 1.60263 -41.9969 -1.19734C-42.3098 -2.36522 -41.46 -4.0191 -41.1985 -5.16124ZM-53.5774 -57.4827C-53.6652 -58.9072 -55.7419 -58.9645 -55.7419 -57.4827C-55.7419 -55.8996 -53.4765 -55.8466 -53.5774 -57.4827ZM-53.7733 332.139C-54.4052 330.671 -56.4114 331.925 -55.7256 333.286C-54.9863 334.754 -53.1894 333.496 -53.7733 332.139ZM-57.5495 -4.66527L-60.7772 5.0057L-66.6527 23.3557L-83.067 74.6862H-83.3147L-83.3147 21.372V6.74149C-83.3147 5.12413 -83.9014 2.10218 -83.1652 0.649673C-82.5792 -0.506751 -78.5699 -0.550866 -77.3689 -0.759685C-72.2526 -1.64949 -67.1488 -2.71396 -62.0089 -3.45796C-60.6144 -3.65978 -58.8473 -5.02049 -57.5495 -4.66527ZM-71.1753 326.875C-73.5809 325.752 -75.2765 323.025 -77.1212 321.172C-77.6816 320.609 -78.7857 319.819 -78.8078 318.941C-78.8307 318.031 -77.6419 317.18 -77.069 316.597C-75.3995 314.898 -73.4697 311.743 -71.1753 311.005V326.875ZM-71.4231 -39.6295L-83.5625 -39.3816C-84.5579 -42.7525 -83.8102 -47.2723 -83.8102 -50.7884H-83.5625V-39.8776C-80.1466 -39.8776 -74.5575 -40.9461 -71.4231 -39.6295ZM-72.1663 311.005C-74.4521 313.293 -76.9003 317.069 -79.8463 318.444L-86.7831 310.757L-76.1302 310.509L-72.1663 311.005ZM-72.1663 327.371H-87.0309C-85.9668 325.087 -81.561 320.127 -79.1031 319.436L-72.1663 327.371ZM-75.7974 -67.1537C-76.7372 -70.2335 -85.6253 -69.9594 -84.2465 -65.4199C-83.3011 -62.3076 -74.4487 -62.7341 -75.7974 -67.1537ZM-76.0664 341.011C-77.205 338.071 -85.9457 338.667 -84.3418 343.237C-83.3231 346.14 -74.2679 345.654 -76.0664 341.011ZM-76.3628 -65.6716C-76.7886 -63.529 -84.4319 -63.2996 -83.7535 -66.8957C-83.321 -69.188 -75.6582 -69.2177 -76.3628 -65.6716ZM-76.5054 341.272C-75.2452 345.176 -83.1299 345.288 -83.8551 342.979C-85.0307 339.237 -77.1384 339.312 -76.5054 341.272ZM-115.274 -3.92135H-115.521L-116.512 7.98138C-118.638 6.77021 -123.884 6.02874 -125.176 3.94569C-125.84 2.87645 -125.244 1.20486 -125.193 0.0462028C-125.065 -2.88224 -124.301 -7.98956 -125.779 -10.5934C-127.32 -13.3096 -131.751 -12.5522 -134.35 -12.9229C-135.649 -13.1081 -136.826 -13.5177 -137.991 -12.6305C-139.56 -11.4351 -139.902 -8.73236 -140.048 -6.89703L-146.737 -3.51115L-148.817 -1.85682L-148.967 3.51786V16.4125C-133.786 18.3429 -122.063 29.9546 -124.549 45.9213C-125.775 53.7971 -130.189 60.3053 -137.323 63.9964C-140.117 65.4423 -142.942 66.2818 -145.994 66.9694C-146.851 67.1627 -148.575 67.0259 -148.888 68.0476C-149.969 71.5765 -148.967 76.9356 -148.967 80.6376V108.907V202.145C-141.852 203.614 -135.121 206.569 -130.18 212.064C-122.824 220.246 -122.03 233.995 -129.523 242.387C-133.047 246.334 -137.389 249.022 -142.278 250.945C-143.618 251.472 -148.203 252.035 -148.817 253.305C-149.83 255.398 -148.827 259.407 -148.729 261.658C-148.441 268.228 -149.555 274.98 -148.925 281.496C-148.692 283.898 -147.83 285.724 -145.498 286.699C-144.197 287.243 -142.433 287.356 -141.365 288.352C-139.752 289.857 -140.488 292.18 -138.066 293.509C-135.365 294.99 -129.572 294.759 -127.571 292.146C-125.701 289.703 -125.245 285.471 -125.183 282.488L-114.035 283.976L-115.026 291.663C-107.809 295.709 -105.482 282.546 -104.459 278.025C-103.319 272.979 -103.014 267.541 -101.291 262.65C-95.6728 246.702 -86.0194 231.959 -82.5708 215.287C-78.3465 194.866 -78.328 174.501 -78.3599 153.79C-78.3777 142.212 -77.4793 129.278 -80.9453 118.082C-81.9296 114.902 -83.8553 111.903 -85.2906 108.907C-88.31 102.604 -91.2781 96.2433 -94.537 90.0606C-97.8318 83.8097 -101.237 77.9259 -102.781 70.9666C-108.22 46.4552 -102.793 18.8872 -115.274 -3.92135ZM-125.679 150.318L-125.431 141.639V125.521V73.6944C-119.722 73.6944 -114.086 74.2104 -108.585 75.8209C-106.504 76.43 -103.933 77.0031 -102.211 78.3974C-101.064 79.3267 -100.515 81.3314 -99.8495 82.6214C-98.268 85.6882 -96.5986 88.709 -95.0573 91.7964C-92.4203 97.0786 -89.8493 102.388 -87.2121 107.667C-85.4567 111.181 -83.2283 114.824 -82.0483 118.578C-80.9096 122.2 -80.6555 125.994 -80.2998 129.736C-79.7488 135.532 -79.7371 141.276 -79.595 147.095C-79.5591 148.564 -78.6042 152.156 -79.6063 153.392C-80.1452 154.057 -81.5958 153.571 -82.3238 153.545C-84.966 153.448 -87.6111 153.172 -90.2516 153.056C-98.3135 152.702 -106.256 151.621 -114.283 150.856C-117.891 150.512 -122.215 151.343 -125.679 150.318ZM-125.679 152.054C-122.719 151.349 -119.268 152.074 -116.265 152.28C-108.285 152.827 -100.236 154.234 -92.2335 154.286C-89.1525 154.306 -85.881 154.491 -82.8193 154.853C-82.0252 154.946 -80.4162 154.771 -79.7825 155.285C-79.0687 155.863 -79.3509 157.449 -79.3509 158.253V166.188C-79.3509 171.923 -79.5867 177.587 -79.8366 183.299C-79.9648 186.229 -79.5585 190.199 -80.5445 192.97C-81.3929 195.354 -83.5443 197.525 -85.1549 199.417C-91.289 206.624 -98.4485 213.404 -106.107 218.969C-108.754 220.893 -113.271 223.976 -116.509 221.608C-119.4 219.494 -120.723 214.629 -122.401 211.568C-123.249 210.021 -125.02 208.528 -125.51 206.853C-125.874 205.605 -125.431 203.941 -125.431 202.641V192.474V165.445C-125.431 161.207 -124.697 156.18 -125.679 152.054ZM-89.0129 327.371L-91.5895 321.668L-90.5783 318.196L-87.7741 310.757C-85.6799 312.234 -84.1262 314.407 -82.3238 316.212C-81.6909 316.846 -80.4354 317.733 -80.3223 318.692C-80.2109 319.637 -81.4347 320.538 -82.0017 321.149C-83.8055 323.093 -86.2996 326.952 -89.0129 327.371ZM-104.373 81.6295V149.574L-80.8373 151.558C-80.8373 141.889 -80.4236 131.493 -82.7933 122.049C-84.939 113.498 -89.9747 104.959 -94.139 97.2519C-96.1769 93.4802 -98.1831 89.6857 -100.532 86.0931C-101.573 84.5009 -102.665 82.5623 -104.373 81.6295ZM-113.787 290.919C-113.567 289.18 -112.109 284.554 -113.054 283.063C-113.612 282.183 -115.593 282.312 -116.512 282.202C-119.571 281.834 -122.623 281.387 -125.679 281L-125.679 259.179C-125.679 255.821 -126.307 251.756 -125.584 248.474C-125.025 245.934 -122.351 243.348 -121.332 240.829C-118.671 234.254 -118.21 226.351 -119.981 219.503C-117.965 220.647 -117.434 223.171 -114.778 223.637C-110.6 224.37 -106.39 220.653 -103.382 218.264C-98.3765 214.287 -93.3877 210.072 -89.0513 205.359C-86.6085 202.704 -83.8974 197.993 -80.8373 196.193C-81.1853 213.063 -87.9164 228.363 -94.4313 243.556C-97.8822 251.604 -102.106 259.438 -103.726 268.106C-104.843 274.082 -105.736 280.232 -107.855 285.96C-108.912 288.818 -110.473 291.311 -113.787 290.919ZM-104.373 156.022V212.808C-101.122 212.16 -97.7355 208.637 -95.2064 206.608C-90.412 202.763 -84.5954 198.117 -82.2645 192.226C-79.9097 186.274 -81.0851 178.176 -81.0851 171.892C-81.0851 168.5 -81.3264 165.108 -81.2055 161.729C-81.166 160.624 -80.6101 158.333 -81.3397 157.411C-82.0371 156.53 -86.1439 156.797 -87.2787 156.769C-92.9823 156.627 -98.6586 156.022 -104.373 156.022ZM-81.8354 -58.1488C-82.6737 -59.405 -84.2435 -57.9615 -83.5545 -56.7777C-82.7201 -55.3442 -81.0152 -56.9198 -81.8354 -58.1488ZM-81.8398 332.12C-82.6642 330.625 -84.5112 332.183 -83.6933 333.492C-82.8792 334.795 -81.1707 333.333 -81.8398 332.12ZM-82.8194 200.905C-84.7486 202.034 -86.2594 204.478 -87.7803 206.112C-91.5755 210.189 -95.3214 214.321 -98.9932 218.511C-100.647 220.398 -103.496 222.76 -104.247 225.206C-105.26 228.505 -104.621 232.702 -104.621 236.117V257.939C-103.277 256.783 -102.617 254.794 -101.829 253.227C-100.49 250.566 -99.0806 247.913 -97.664 245.292C-92.5888 235.9 -88.664 226.295 -85.7575 216.031C-84.3709 211.135 -82.8194 206.017 -82.8194 200.905ZM-88.5174 -51.7803C-87.5684 -51.7803 -85.2136 -52.2081 -84.5604 -51.3827C-84.0799 -50.7754 -84.3058 -49.5263 -84.3058 -48.8046V-42.3573C-84.3058 -41.6494 -84.0745 -40.3715 -84.5604 -39.7829C-85.2228 -38.9805 -86.6963 -39.9072 -87.2258 -40.4292C-88.7979 -41.9791 -88.5174 -44.5602 -88.5174 -46.5729V-51.7803ZM-102.639 76.67C-108.059 74.4441 -113.428 73.2159 -119.238 72.5253C-121.347 72.2744 -123.636 72.6055 -125.679 72.2065C-124.949 69.1374 -126.369 65.4506 -125.466 62.5355C-124.794 60.3631 -122.693 58.4496 -121.722 56.3362C-119.224 50.8963 -118.357 44.9364 -118.764 38.978C-119.052 34.7726 -120.008 30.3078 -122.04 26.5794C-123.08 24.6718 -125.027 22.8915 -125.746 20.876C-126.262 19.4309 -125.927 17.4347 -125.927 15.9165V5.74962L-115.026 9.46922L-114.778 0.542176L-112.584 5.25365L-109.266 19.3881L-106.065 54.8484L-104.469 68.4869L-102.639 76.67ZM-114.042 135.118C-114.785 134.134 -116.874 134.341 -117.354 135.473C-118.164 137.384 -117.503 140.811 -117.503 142.879C-117.503 143.612 -117.72 144.808 -117.249 145.432C-116.506 146.416 -114.416 146.209 -113.937 145.078C-113.127 143.167 -113.787 139.74 -113.787 137.672C-113.787 136.939 -113.571 135.742 -114.042 135.118ZM-114.042 203.987C-114.706 203.007 -116.855 203.072 -117.354 204.185C-118.209 206.094 -117.503 209.729 -117.503 211.816C-117.503 212.527 -117.676 213.567 -117.249 214.188C-116.618 215.106 -114.408 215.037 -113.937 213.991C-113.079 212.087 -113.787 208.443 -113.787 206.36C-113.787 205.645 -113.617 204.613 -114.042 203.987ZM-114.035 54.8484C-114.85 54.697 -115.927 54.3901 -116.682 54.893C-117.577 55.4892 -117.599 58.8554 -116.964 59.6585C-115.204 61.883 -114.035 58.6099 -114.035 57.3284V54.8484ZM-139.057 70.719C-139.057 69.5745 -139.48 67.3841 -138.803 66.4134C-137.956 65.2009 -135.359 64.4265 -134.102 63.6031C-131.546 61.9275 -129.146 59.6515 -127.473 57.0804C-121.548 47.973 -121.394 34.2622 -128.284 25.5878C-131.256 21.8464 -135.138 19.5475 -139.305 17.4046L-139.057 13.4371C-131.404 15.611 -125.091 20.75 -121.792 28.0675C-114.916 43.3248 -121.151 66.5706 -139.057 70.719ZM-139.057 256.699C-139.057 255.21 -139.545 252.698 -138.908 251.341C-138.455 250.376 -136.711 249.809 -135.836 249.294C-133.959 248.189 -132.192 246.81 -130.634 245.289C-126.346 241.102 -123.231 235.566 -123.202 229.422C-123.168 222.353 -124.834 216.257 -129.578 210.846C-131.23 208.962 -133.225 207.344 -135.341 206.011C-136.343 205.379 -138.154 204.805 -138.803 203.784C-139.436 202.786 -139.057 200.81 -139.057 199.665C-136.502 200.273 -134.041 201.862 -131.873 203.302C-113.064 215.799 -115.836 250.471 -139.057 256.699ZM-126.074 41.7061C-126.272 36.2167 -128.207 30.5667 -132.162 26.622C-139.655 19.1488 -151.92 20.448 -157.942 29.0594C-161.176 33.6825 -162.082 38.9033 -161.84 44.4338C-161.724 47.0728 -160.89 49.7373 -159.791 52.1209C-158.784 54.3042 -157.326 56.39 -155.547 58.009C-153.905 59.5037 -152.025 60.7536 -149.958 61.5879C-137.132 66.7644 -125.627 54.0899 -126.074 41.7061ZM-139.057 73.9426V71.2149C-133.742 69.9836 -130.424 66.276 -126.175 63.2798L-126.171 69.7271L-126.191 72.0572L-129.395 72.5977L-139.057 73.9426ZM-125.927 150.318L-139.057 152.054V75.1825L-126.174 73.6946V124.777V141.143L-125.927 150.318ZM-126.422 206.36C-128.719 203.725 -131.802 201.83 -134.845 200.181C-135.869 199.626 -138.397 198.907 -138.908 197.832C-140.015 195.501 -139.057 190.597 -139.057 188.01V163.957V156.518C-139.057 155.743 -139.316 154.342 -138.802 153.692C-138.301 153.057 -136.59 153.083 -135.836 152.951C-132.912 152.437 -128.847 151.56 -125.927 152.054L-126.174 165.445V191.978L-126.174 201.897L-126.422 206.36ZM-126.281 224.711C-126.736 221.529 -127.679 218.54 -129.352 215.783C-135.015 206.452 -147.58 204.136 -155.652 211.838C-160.621 216.579 -162.732 224.19 -161.775 230.91C-161.36 233.824 -160.406 236.829 -158.861 239.341C-157.554 241.464 -155.912 243.314 -153.922 244.821C-152.372 245.996 -150.582 246.948 -148.719 247.514C-135.064 251.67 -124.477 237.322 -126.281 224.711ZM-139.057 257.195C-133.707 255.923 -130.437 252.017 -126.175 249.012C-126.175 259.344 -126.125 269.677 -126.175 280.009C-126.19 283.161 -126.304 289.562 -128.994 291.731C-131.027 293.37 -138.143 293.952 -138.979 290.67C-139.783 287.512 -139.057 283.271 -139.057 280.009L-139.057 257.195ZM-126.422 20.1324C-130.23 17.7488 -134.132 13.1565 -139.057 13.1891V-1.44134C-139.057 -4.20032 -139.333 -7.51248 -138.262 -10.1195C-137.978 -10.8117 -137.559 -11.5233 -136.802 -11.7485C-135.749 -12.0614 -134.642 -11.5824 -133.607 -11.4347C-131.477 -11.1309 -128.286 -12.0036 -126.854 -9.85888C-125.599 -7.97943 -126.422 -3.64543 -126.422 -1.44134V20.1324ZM-139.553 17.1567L-147.728 15.1729V3.27013C-147.728 2.02466 -148.164 -0.260515 -147.474 -1.34456C-146.266 -3.24088 -141.774 -4.80907 -139.801 -5.90486L-139.553 1.78229V17.1567ZM-147.728 77.4142V68.4872L-139.553 66.7514C-139.553 68.4568 -138.816 72.4027 -139.807 73.8161C-140.29 74.5037 -141.531 74.685 -142.278 74.9345C-144.222 75.5838 -145.865 76.6403 -147.728 77.4142ZM-147.728 153.542V94.2765V83.8616C-147.728 82.5457 -148.082 80.6017 -147.474 79.399C-146.272 77.0222 -142.014 75.7858 -139.553 75.6785V134.448V147.095L-139.807 151.908L-142.03 152.583L-147.728 153.542ZM-139.553 197.681C-141.242 197.428 -146.465 196.189 -147.474 194.792C-148.004 194.058 -147.728 192.587 -147.728 191.73V184.291V155.03L-139.801 153.542C-138.581 157.671 -139.553 163.365 -139.553 167.677V197.681ZM-139.801 203.633L-147.474 200.765L-147.728 196.442C-143.574 197.064 -138.311 198.588 -139.801 203.633ZM-139.553 287.944C-141.589 286.799 -145.725 285.92 -147.052 283.966C-148.496 281.839 -147.728 277.739 -147.728 275.297L-147.728 253.971L-139.801 251.492C-138.785 254.931 -139.553 259.56 -139.553 263.146L-139.553 287.944Z" fill="#304A6E"/>
</svg>
