<svg width="81" height="72" viewBox="0 0 81 72" fill="none" xmlns="http://www.w3.org/2000/svg">
<rect width="81" height="72" fill="#1A1E26"/>
<rect x="-368" y="-521" width="980" height="753" rx="4" fill="white"/>
<path d="M242.811 -248.027C241.83 -252.937 240.437 -257.408 236.888 -261.127C230.172 -268.166 218.752 -268.021 212.29 -260.673C207.619 -255.361 206 -247.925 207.375 -241.084C208 -237.975 209.233 -234.92 211.182 -232.404C212.614 -230.556 214.143 -228.963 216.183 -227.776C227.853 -220.982 240.426 -229.628 242.479 -242.075C242.805 -244.049 243.214 -246.013 242.811 -248.027ZM242.763 -62.7906C241.321 -68.5445 239.767 -73.7854 234.763 -77.5415C226.609 -83.6619 215.602 -80.8002 210.259 -72.4616C206.919 -67.2485 206.124 -60.5349 207.604 -54.6075C209.601 -46.6172 216.415 -39.5458 225.101 -39.761C234.386 -39.9911 240.813 -47.7473 242.423 -56.3433C242.816 -58.44 243.297 -60.6601 242.763 -62.7906ZM206.273 -283.487L197.106 -280.015L196.633 -287.951L196.115 -291.918C184.296 -267.691 189.31 -240.551 183.261 -215.046C182.05 -209.941 179.408 -205.508 176.985 -200.912C173.375 -194.064 170.039 -187.049 166.668 -180.082C165.112 -176.866 163.017 -173.576 161.949 -170.163C158.358 -158.683 159.202 -145.352 159.202 -133.463C159.202 -118.534 159.411 -103.92 160.894 -89.0758C161.735 -80.66 162.924 -71.7241 165.938 -63.7825C170.89 -50.7382 177.9 -38.3413 182.269 -25.0986C184.033 -19.7521 184.385 -13.9503 185.682 -8.48438C186.969 -3.0551 188.577 5.84489 195.868 3.91427L194.877 -4.02085C197.465 -4.65929 200.171 -4.77481 202.804 -5.15644C203.635 -5.27681 205.16 -5.7939 205.841 -5.11031C206.848 -4.09999 206.596 -0.728856 207.017 0.69047C208.45 5.52149 213.337 7.68959 218.164 5.86579C219.323 5.42792 220.651 4.55538 221.186 3.39502C221.726 2.22349 221.421 0.819324 222.651 0.0491429C224.584 -1.16174 227.074 -0.969587 228.622 -2.85312C230.267 -4.85531 229.808 -7.81224 229.808 -10.2204L229.808 -27.3306C229.808 -29.304 230.51 -32.9075 229.659 -34.6946C229.053 -35.9684 224.464 -36.5371 223.119 -37.0491C218.555 -38.7868 214.061 -41.531 210.774 -45.1847C202.924 -53.9131 203.634 -67.9689 211.498 -76.4293C216.303 -81.5998 223.006 -84.4477 229.808 -85.8523V-179.09V-207.359C229.808 -211.061 230.81 -216.42 229.73 -219.949C229.415 -220.976 227.699 -220.867 226.835 -221.019C223.981 -221.521 221.241 -222.494 218.66 -223.787C211.893 -227.176 206.986 -233.303 205.644 -240.836C202.725 -257.227 213.932 -269.532 229.808 -271.584V-284.727C229.808 -286.17 230.321 -288.854 229.554 -290.117C228.176 -292.386 223.728 -293.211 221.666 -294.854C220.034 -296.154 220.647 -298.896 219.113 -300.456C217.952 -301.638 216.604 -301.042 215.192 -300.888C212.507 -300.597 208.407 -301.236 206.704 -298.61C205.839 -297.276 206.025 -295.415 206.025 -293.902C206.025 -290.422 206.273 -286.973 206.273 -283.487ZM228.57 -272.824L220.394 -270.841L220.642 -293.654C222.568 -293.044 227.498 -290.947 228.487 -289.138C229.145 -287.934 228.817 -285.584 228.817 -284.231C228.817 -280.418 228.57 -276.625 228.57 -272.824ZM228.817 -210.583L223.119 -213.098L220.667 -214.181L220.394 -221.246L228.57 -219.51L228.817 -210.583ZM228.817 -134.455L220.394 -135.943C221.685 -155.216 220.642 -174.892 220.642 -194.217C220.642 -198.798 221.001 -203.554 220.465 -208.103C220.359 -208.999 219.913 -211.991 221.194 -212.194C222.062 -212.332 223.297 -211.721 224.11 -211.447C225.53 -210.968 227.559 -210.227 228.315 -208.825C228.894 -207.751 228.802 -205.6 228.816 -204.384C228.855 -201.161 228.817 -197.936 228.817 -194.713V-154.293C228.817 -147.76 228.243 -140.954 228.817 -134.455ZM220.394 -90.3158L220.642 -110.65L220.394 -134.207L220.642 -134.455L228.569 -132.967C228.57 -123.484 228.817 -113.954 228.817 -104.45C228.817 -101.572 229.899 -95.9103 228.459 -93.3604C227.614 -91.8631 222.048 -90.4852 220.394 -90.3158ZM228.569 -86.8442L220.394 -84.6124V-88.58L228.569 -91.5557V-86.8442ZM220.642 -0.0534504V-7.98862V-25.0988L220.642 -36.5056L228.569 -34.0258L228.569 -12.7001C228.569 -10.242 229.328 -6.21742 228.005 -4.04435C226.614 -1.75977 222.658 -1.79579 220.642 -0.0534504ZM219.898 -274.808C214.575 -274.343 211.647 -269.991 207.264 -267.865C207.264 -275.15 207.275 -282.434 207.264 -289.687C207.26 -291.89 206.452 -296.182 207.781 -298.049C209.107 -299.911 212.533 -299.195 214.448 -299.401C215.429 -299.506 216.419 -299.955 217.417 -299.793C218.243 -299.659 218.73 -299.094 219.065 -298.362C220.552 -295.112 219.936 -291.129 219.899 -287.703C219.855 -283.548 220.57 -278.883 219.898 -274.808ZM219.899 -217.278C201.927 -221.541 195.442 -245.436 203.005 -260.674C206.52 -267.756 212.522 -272.158 219.899 -274.56C221.16 -269.415 215.741 -268.582 212.466 -265.775C208.52 -262.392 205.772 -257.845 204.703 -252.739C203.045 -244.817 204.371 -235.861 209.494 -229.429C211.308 -227.152 213.473 -225.326 215.935 -223.782C217.02 -223.102 219.156 -222.501 219.842 -221.391C220.425 -220.448 220.183 -218.286 219.899 -217.278ZM220.146 -214.055L206.768 -215.79C207.381 -218.365 207.381 -222.143 206.768 -224.717L211.971 -220.608L220.146 -216.534V-214.055ZM207.016 -137.431V-214.303L216.43 -213.311L219.86 -212.244L219.921 -207.359L219.899 -196.201V-153.549V-140.902L219.879 -136.349L216.678 -136.368L207.016 -137.431ZM207.016 -81.8844V-135.943L216.678 -135.012L219.841 -134.305L219.902 -131.479L219.898 -124.288V-99.4906L219.92 -93.2912L219.87 -90.1712L215.687 -87.7743L207.016 -81.8844ZM219.898 -31.2978C196.514 -37.6863 193.84 -73.1268 213.457 -85.1549C215.436 -86.3682 217.626 -87.7868 219.898 -88.3318C219.99 -87.1637 220.53 -85.5011 219.892 -84.417C219.26 -83.3452 217.443 -82.7791 216.43 -82.1129C214.291 -80.7057 212.244 -79.0764 210.526 -77.1729C205.922 -72.0711 203.88 -65.6453 204.047 -58.8229C204.201 -52.5011 207.27 -46.7814 211.727 -42.4654C213.27 -40.9702 215.082 -39.6994 216.926 -38.6014C217.802 -38.0793 219.104 -37.7045 219.739 -36.8699C220.415 -35.9826 220.21 -32.3919 219.898 -31.2978ZM207.016 -38.985L212.962 -34.1342L220.146 -30.5539C218.714 -22.8311 219.886 -13.8627 219.899 -6.0045C219.902 -3.62715 221.111 1.12544 219.749 3.15977C218.02 5.74318 211.933 5.50871 209.774 3.59126C208.628 2.5732 208.167 0.651732 207.871 -0.797053C206.788 -6.09801 207.016 -11.5376 207.016 -16.9154V-38.985ZM206.52 -215.79L193.142 -214.426L183.48 -211.575C188.168 -229.128 187.157 -247.493 189.642 -265.385C190.374 -270.662 191.429 -275.907 192.964 -281.007C193.588 -283.079 194.095 -285.689 195.372 -287.454C196.087 -285.032 196.351 -281.008 195.867 -278.527C199.164 -278.328 203.693 -281.301 206.768 -282.495V-272.08C206.768 -270.574 207.116 -268.556 206.622 -267.121C205.965 -265.209 204.065 -263.506 203.116 -261.665C200.839 -257.248 199.644 -252.254 199.585 -247.283C199.523 -242.13 200.253 -236.888 202.386 -232.156C203.427 -229.848 205.573 -227.802 206.375 -225.461C207.293 -222.777 206.52 -218.627 206.52 -215.79ZM206.52 -137.431L160.44 -134.207C160.44 -145.374 159.738 -157.551 162.674 -168.427C163.541 -171.642 165.342 -174.634 166.815 -177.602C169.228 -182.468 171.576 -187.371 174.005 -192.233C176.161 -196.549 178.221 -200.934 180.612 -205.127C181.41 -206.527 181.964 -208.786 183.298 -209.751C189.309 -214.101 199.444 -214.302 206.52 -214.302V-137.431ZM206.371 -135.587C206.974 -134.398 206.52 -132.051 206.52 -130.735V-118.833V-93.0432C206.52 -89.474 207.403 -84.561 206.393 -81.1405C205.836 -79.252 203.944 -77.67 203.001 -75.933C201.325 -72.8487 199.995 -67.5626 196.611 -65.9456C193.005 -64.2228 188.387 -67.9854 185.71 -70.0138C180.298 -74.1151 175.388 -78.8249 170.598 -83.6202C167.501 -86.7196 163.884 -90.3497 161.857 -94.2831C160.637 -96.6511 161.139 -99.8906 160.894 -102.466C160.226 -109.486 160.193 -116.486 160.193 -123.544V-130.239C160.193 -130.952 159.991 -132.2 160.624 -132.712C161.549 -133.461 164.465 -133.171 165.643 -133.225C169.916 -133.419 174.267 -133.595 178.525 -134.001C185.606 -134.675 192.705 -135.931 199.831 -135.943C201.149 -135.943 205.651 -137.007 206.371 -135.587ZM193.638 -5.26058L194.629 2.92255C190.766 2.92218 189.394 0.152701 188.333 -3.27677C186.546 -9.05525 185.673 -14.9752 184.47 -20.8829C182.721 -29.4733 178.39 -37.4353 174.914 -45.4323C168.382 -60.4646 162.392 -75.4181 161.679 -92.0514C164.812 -89.631 167.402 -85.409 170.13 -82.4609C174.458 -77.784 179.436 -73.5372 184.41 -69.5684C187.401 -67.1819 192.718 -62.7553 196.858 -64.7169C198.544 -65.5153 199.433 -67.1356 200.575 -68.4938C200.769 -67.1822 200.193 -65.8546 200.101 -64.5263C199.854 -60.9329 199.739 -57.1798 200.404 -53.6154C201.042 -50.1906 202.248 -47.0186 203.859 -43.9445C204.589 -42.5502 205.95 -41.2321 206.393 -39.7289C206.893 -38.0357 206.52 -35.7827 206.52 -34.0255V-22.3708V-11.2119C206.52 -10.1889 206.932 -7.9884 206.266 -7.14606C205.716 -6.45153 203.632 -6.57302 202.804 -6.50048C199.806 -6.23766 196.561 -5.96544 193.638 -5.26058ZM200.691 -36.7532C200.058 -39.4946 196.68 -41.0078 194.392 -39.1352C192.721 -37.7684 192.354 -35.5308 192.909 -33.5296C193.673 -30.7741 197.079 -29.5643 199.29 -31.4362C200.775 -32.6936 201.112 -34.9307 200.691 -36.7532ZM198.409 -152.282C198.08 -153.813 195.364 -153.904 194.778 -152.524C194.047 -150.799 194.047 -144.644 194.778 -142.919C195.329 -141.62 197.805 -141.607 198.327 -142.941C198.64 -143.74 198.355 -144.778 198.346 -145.613C198.322 -147.667 198.834 -150.297 198.409 -152.282ZM198.445 -83.5868C198.015 -84.9937 195.439 -85.1081 194.813 -83.799C193.942 -81.9796 194.629 -78.4324 194.629 -76.4287C194.629 -75.6993 194.463 -74.6978 194.778 -74.0181C195.368 -72.7488 197.857 -72.9943 198.333 -74.224C198.66 -75.0685 198.37 -76.0505 198.349 -76.9246C198.301 -78.9122 199.017 -81.7127 198.445 -83.5868ZM198.097 -233.148C197.282 -233.299 196.206 -233.606 195.451 -233.103C194.534 -232.493 194.526 -229.087 195.274 -228.338C197.243 -226.367 198.097 -229.274 198.097 -230.668V-233.148ZM163.661 -87.0913C163.705 -81.7526 165.375 -76.2965 166.91 -71.221C169.814 -61.6214 173.391 -52.8775 177.966 -43.9439C180.262 -39.4608 182.234 -33.6726 185.462 -29.8094C186.075 -33.3785 185.71 -37.3416 185.71 -40.9682C185.71 -45.7235 186.043 -50.6244 185.534 -55.3506C185.26 -57.894 186.014 -60.866 184.946 -63.2858C184.039 -65.34 182.01 -67.078 180.546 -68.7412C177.606 -72.0798 174.663 -75.436 171.598 -78.6602C169.148 -81.238 166.749 -85.321 163.661 -87.0913ZM185.215 -206.367C183.761 -205.63 182.827 -203.973 181.931 -202.647C179.884 -199.618 178.062 -196.434 176.316 -193.224C171.555 -184.473 165.951 -174.937 163.531 -165.203C162.544 -161.233 162.449 -157.106 162.152 -153.052C161.853 -148.958 161.679 -144.759 161.679 -140.654C161.679 -139.719 161.253 -137.339 162.076 -136.693C163.133 -135.863 167.064 -136.756 168.368 -136.934C173.948 -137.699 179.625 -137.715 185.215 -138.422V-206.367ZM184.967 -132.222C179.748 -130.979 173.486 -131.456 168.12 -131.221C166.971 -131.17 162.888 -131.478 162.181 -130.585C161.431 -129.637 162.117 -127.604 162.165 -126.519C162.317 -123.03 161.927 -119.581 161.927 -116.104C161.927 -109.95 160.94 -102.152 163.014 -96.2663C165.25 -89.9183 171.79 -84.5005 177.039 -80.6405C179.477 -78.8477 182.235 -75.9619 185.215 -75.1885V-114.12V-126.023L184.967 -132.222ZM123.031 59.4611C126.567 58.6185 130.799 59.2131 134.427 59.2131H156.724C159.687 59.2131 163.247 59.7507 166.138 59.0818C170.764 58.0117 169.392 53.2062 170.747 50.0746C171.265 48.8777 172.844 48.7887 173.325 47.3104C173.82 45.7863 173.751 43.5547 173.063 42.1029C172.648 41.2291 171.539 40.3979 171.577 39.3752C171.656 37.3076 173.857 35.5193 174.074 33.4238C174.341 30.8551 171.038 26.5303 169.915 24.2489C169.502 23.4099 169.093 22.0529 168.271 21.528C167.01 20.7228 164.131 21.2732 162.67 21.2732H148.549H95.0361H79.4283C77.9735 21.2732 74.8512 20.6824 73.6234 21.528C72.7889 22.1027 72.6079 23.6091 72.2658 24.4968C71.3684 26.8249 68.6451 31.4509 69.1566 33.9198C69.5275 35.7101 71.6113 37.4855 71.6074 39.3044C71.6059 40.1203 70.6098 40.9139 70.2418 41.607C69.4979 43.0078 69.2831 45.0233 69.6505 46.5665C70.0354 48.1828 71.4824 48.6779 72.1165 50.0488C73.4925 53.0237 73.0545 56.8393 76.4554 58.6481C79.1711 60.0924 83.8565 59.2131 86.8606 59.2131H110.892C113.704 59.2131 118.687 58.2381 121.26 59.3627C122.343 59.8361 122.04 61.4855 122.04 62.4367C122.04 64.129 122.378 66.2429 121.934 67.8824C121.606 69.0898 120.323 69.9388 121.128 71.3072C121.879 72.5839 123.626 71.9443 123.834 70.6187C123.989 69.6231 123.228 68.6475 123.158 67.6442C122.977 65.0209 123.579 61.985 123.031 59.4611ZM142.603 -326.634C148.517 -326.634 154.513 -326.527 160.44 -326.382C162.891 -326.322 165.887 -325.455 168.116 -326.88C172.011 -329.369 170.653 -335.453 170.869 -339.277C170.977 -341.193 173.428 -342.541 173.744 -344.736C173.945 -346.134 173.81 -348.012 172.876 -349.144C172.348 -349.783 171.343 -349.967 170.995 -350.743C169.642 -353.761 170.819 -357.652 167.129 -359.501C165.444 -360.346 162.778 -359.862 160.936 -359.862H147.31H98.2568H83.3922C81.3585 -359.862 78.5497 -360.364 76.7033 -359.386C73.0654 -357.459 73.8366 -353.731 72.2371 -350.697C71.1514 -348.637 69.3258 -347.954 69.5932 -345.232C69.8341 -342.779 72.0374 -341.241 72.2293 -339.032C72.5275 -335.602 71.3556 -331.215 73.3535 -328.144C75.6969 -324.542 83.8432 -326.138 87.6039 -326.138C91.3372 -326.138 96.6321 -325.158 100.202 -326.217C101.553 -326.617 100.979 -328.73 102.72 -329.057C105.124 -329.509 107.951 -329.113 110.396 -329.113H125.756H138.391C140.293 -329.113 142.259 -328.855 142.603 -326.634ZM159.945 31.1922L167.377 22.7611H167.873C169.763 26.7542 173.889 31.6086 171.776 35.9037C170.993 37.4942 170.427 39.9079 168.142 39.2965C167.064 39.0077 166.165 37.6935 165.441 36.9053C163.666 34.9723 161.929 32.9105 159.945 31.1922ZM172.494 -346.967C172.875 -345.119 172.324 -342.4 170.349 -341.662C169.015 -341.163 167.052 -341.512 165.643 -341.512C161.914 -341.512 157.945 -341.878 154.247 -341.441C147.38 -340.63 140.106 -341.264 133.189 -341.264H93.0542C89.445 -341.264 85.754 -341.489 82.1535 -341.242C79.4896 -341.059 75.8871 -340.37 73.2768 -341.095C71.8325 -341.496 71.0299 -343.391 70.8319 -344.736C70.6436 -346.015 70.7465 -347.739 72.0221 -348.449C73.264 -349.139 75.565 -348.703 76.9509 -348.703H88.8426H150.035H167.129C168.967 -348.703 172 -349.367 172.494 -346.967ZM172.486 44.8307C172.549 45.8564 172.353 47.4002 171.294 47.8702C169.915 48.4822 167.626 48.0543 166.138 48.0543H153.999H92.8064H75.9599C73.9696 48.0543 70.9967 48.5578 70.7717 45.8225C70.6331 44.138 70.8406 41.8204 72.5147 40.9075C73.8038 40.2044 76.0184 40.6151 77.4464 40.6151H89.0903H150.531H163.413C165.352 40.6151 167.72 40.248 169.607 40.719C171.466 41.1832 172.376 43.0478 172.486 44.8307ZM169.854 -350.191H104.698H84.1355L73.7303 -349.943C73.0532 -352.627 74.9818 -357.396 77.6951 -358.347C79.3484 -358.927 81.4162 -358.622 83.1445 -358.622H93.7976H149.044H162.175C163.963 -358.622 166.164 -358.917 167.578 -357.574C169.633 -355.622 169.26 -352.69 169.854 -350.191ZM165.643 -327.378L165.395 -340.024H169.607C169.936 -335.846 170.984 -328.621 165.643 -327.378ZM73.2349 49.5421L73.4827 49.2942L87.3563 49.5421H113.617H149.54L169.359 49.2942C170.009 51.6602 169.112 56.3854 166.612 57.475C165.157 58.1089 162.99 57.7228 161.431 57.7253H150.283H93.0544C89.348 57.7253 85.6086 57.5809 81.9059 57.7438C80.001 57.8276 77.8045 58.1834 76.2185 56.8835C74.1852 55.217 73.7074 51.9794 73.2349 49.5421ZM166.882 22.761L159.697 30.4482H159.202L152.265 22.761L162.175 22.5129L166.882 22.761ZM166.882 39.3752H151.769C153.305 36.4918 157.04 33.0654 159.697 31.1921L166.882 39.3752ZM77.1988 -315.723V-307.044H100.239H147.31H160.44L165.246 -307.13L165.643 -309.028L165.494 -315.358L160.44 -315.723H144.337H77.1988ZM165.395 -289.19C157.837 -290.615 150.163 -291.403 142.603 -292.814C140.841 -293.143 139.566 -294.724 137.896 -294.964C133.68 -295.568 128.798 -294.893 124.518 -294.893C118.175 -294.893 111.507 -295.496 105.194 -294.867C103.396 -294.688 102.02 -293.216 100.239 -292.827C93.0277 -291.25 84.8088 -289.263 77.4466 -288.942L77.4466 -237.611C77.4466 -229.214 76.6955 -220.427 77.4723 -212.07C77.739 -209.202 78.8741 -206.272 79.4239 -203.433C81.3734 -193.364 84.0558 -183.364 85.6918 -173.243C86.6497 -167.317 86.3607 -161.025 86.6228 -155.036C87.0711 -144.789 87.4056 -134.563 87.3561 -124.287C87.2869 -109.945 87.4383 -95.1684 86.0755 -80.8918C84.3196 -62.4984 79.0772 -44.4701 77.241 -26.0897C76.2466 -16.135 77.1988 -5.59813 77.1988 4.4111C84.9869 5.41769 92.6524 7.32971 100.487 8.08859C107.292 8.74785 114.457 8.13099 121.297 8.13099C128.732 8.13099 136.453 8.71593 143.842 7.92417C149.087 7.36214 154.274 6.58638 159.449 5.55211C160.894 5.26347 163.908 5.26504 164.992 4.19885C165.86 3.34498 165.395 0.357171 165.395 -0.796054V-15.1785C165.395 -36.073 159.881 -57.0275 156.829 -77.6678C156.072 -82.7841 156.197 -87.8935 155.971 -93.0422C155.458 -104.776 155.257 -116.487 155.238 -128.254C155.22 -139.307 155.203 -150.433 155.959 -161.483C156.24 -165.586 155.921 -169.805 156.55 -173.882C158.074 -183.761 161.181 -193.656 163.471 -203.39C164.063 -205.905 165.042 -208.517 165.35 -211.078C166.187 -218.059 165.395 -225.616 165.395 -232.651C165.395 -251.425 164.506 -270.443 165.395 -289.19ZM164.9 -327.377L162.175 -327.625V-327.873H164.652V-339.776H153.751L162.175 -340.272L164.822 -339.697L164.9 -336.056V-327.377ZM77.6943 -307.539V-315.227H165.148C165.148 -313.581 165.925 -309.241 164.893 -307.937C164.136 -306.98 160.818 -307.539 159.697 -307.539H143.842H77.6943ZM164.738 -355.394C163.813 -358.255 155.105 -357.845 156.371 -353.415C157.27 -350.268 166.287 -350.604 164.738 -355.394ZM164.421 -345.714C164.001 -347.266 161.775 -346.532 162.329 -344.998C162.848 -343.559 164.8 -344.316 164.421 -345.714ZM164.468 52.7771C163.91 51.4073 162.413 51.5268 161.184 51.5264C158.699 51.5256 154.913 51.7999 156.413 55.483C157.002 56.9308 158.663 56.7337 159.945 56.7338C162.453 56.7339 165.937 56.3855 164.468 52.7771ZM164.297 -354.899C165.259 -351.443 157.438 -351.432 156.833 -353.668C155.877 -357.199 163.664 -357.171 164.297 -354.899ZM164.219 44.1428C163.566 42.6835 161.807 43.9951 162.328 45.2893C162.931 46.7886 164.831 45.5107 164.219 44.1428ZM164.277 53.7581C164.858 57.1794 157.236 57.2588 156.781 54.745C156.139 51.1963 163.855 51.2685 164.277 53.7581ZM164.157 -212.319H163.909L148.253 -263.153L142.39 -282.247L139.382 -292.414C144.798 -290.294 151.458 -289.971 157.22 -289.158C158.644 -288.957 162.994 -288.958 163.902 -287.801C164.71 -286.772 164.157 -283.762 164.157 -282.495V-268.113V-212.319ZM164.049 -25.6204C163.997 -24.3 161.693 -23.3291 160.688 -22.775C156.917 -20.6955 152.997 -19.2202 148.796 -18.2981C139.511 -16.2597 129.517 -17.1635 120.058 -17.1635C112.212 -17.1635 103.737 -16.3205 96.0273 -18.0127C91.3446 -19.0403 86.6819 -20.4464 82.4014 -22.6456C81.0579 -23.3359 78.508 -24.0438 78.4742 -25.8435C78.403 -29.6447 79.7102 -33.7544 80.3109 -37.4973C81.8092 -46.8347 83.4345 -56.1615 84.8115 -65.5183C85.2991 -68.8308 85.9058 -72.1199 86.3653 -75.4372C86.5055 -76.4495 86.5141 -78.6995 87.2924 -79.4203C88.1027 -80.1707 90.0226 -80.306 91.0724 -80.5395C94.2588 -81.2478 97.4938 -82.0307 100.734 -82.419C106.962 -83.1653 113.294 -82.8764 119.563 -82.8764C126.323 -82.8764 133.142 -83.1233 139.878 -82.6506C143.782 -82.3767 147.477 -81.457 151.274 -80.559C152.398 -80.2932 154.451 -80.2915 155.197 -79.2784C155.922 -78.2937 155.857 -76.3673 156.077 -75.1893C156.737 -71.6606 157.236 -68.0734 157.783 -64.5264C159.149 -55.6779 160.555 -46.8228 162.035 -37.9932C162.683 -34.124 164.204 -29.5354 164.049 -25.6204ZM78.4375 3.41835C77.2031 -3.23713 78.1898 -10.8898 78.1898 -17.6594C78.1898 -19.6434 78.5659 -21.9296 78.1898 -23.8588C80.5476 -24.0164 83.8723 -21.3782 86.1175 -20.4864C91.2545 -18.4461 96.4855 -17.2324 101.973 -16.7096C109.916 -15.953 118.27 -16.6672 126.252 -16.6672C133.055 -16.6672 140.366 -15.946 147.062 -17.3283C150.801 -18.0999 154.514 -19.1753 157.963 -20.8292C159.985 -21.7986 162.015 -23.5504 164.157 -24.1064V-4.26856C164.157 -2.6207 164.927 1.67185 163.902 2.99023C163.035 4.10536 159.773 4.09787 158.458 4.36099C153.011 5.45128 147.418 6.50929 141.86 6.64594C129.207 6.9569 116.11 7.73533 103.46 6.86807C95.0838 6.29391 86.7781 3.77692 78.4375 3.41835ZM163.166 -212.566C156.004 -215.191 149.941 -220.4 142.355 -222.227C136.825 -223.559 130.427 -222.733 124.765 -222.733C116.263 -222.733 106.466 -224.091 98.2569 -221.633C91.3282 -219.557 85.7118 -215.067 79.1807 -212.318C80.0528 -218.769 83.2829 -225.724 85.3556 -231.908C89.6002 -244.573 93.3313 -257.412 97.5139 -270.096C99.3346 -275.618 101.127 -281.15 102.824 -286.71C103.521 -288.994 104.597 -291.287 104.946 -293.654H119.563C119.501 -292.225 118.123 -289.723 118.773 -288.456C120.499 -285.092 125.592 -284.619 126.822 -288.704C127.205 -289.974 126.148 -292.18 125.756 -293.406L135.171 -293.654L138.427 -293.079L140.746 -285.966L145.929 -269.104L158.142 -229.429L163.166 -212.566ZM160.936 -213.062C156.538 -213.501 152.261 -215.315 147.806 -215.748C141.232 -216.387 134.582 -215.88 127.986 -216.042C117.63 -216.295 106.843 -217.26 96.5227 -216.244C91.3512 -215.735 86.4419 -213.969 81.4104 -212.814V-213.062C87.8641 -217.016 95.1666 -220.934 102.716 -222.157C110.006 -223.338 118.364 -222.237 125.756 -222.237C130.417 -222.237 135.513 -222.821 140.125 -222.163C144.674 -221.514 148.895 -219.259 153.008 -217.354C155.603 -216.153 158.73 -214.892 160.936 -213.062ZM151.522 38.3829V23.2565L157.22 28.712L158.726 30.9437L156.972 33.1754L151.522 38.3829ZM158.353 -46.672C157.334 -54.4447 155.868 -62.1131 153.968 -69.7336C153.495 -71.628 153.309 -76.1116 151.869 -77.4562C151.051 -78.2195 149.116 -78.296 148.053 -78.5118C144.866 -79.1588 141.663 -79.8992 138.391 -79.9004H104.698C101.285 -79.9004 97.8963 -79.3716 94.5408 -78.7658C93.513 -78.5803 91.5445 -78.6032 90.8084 -77.7707C90.1091 -76.9797 90.0385 -75.4381 89.8329 -74.4451C89.3182 -71.9582 88.6977 -69.4817 88.1289 -67.0059C86.1147 -58.2382 84.3833 -49.4855 84.3833 -40.4726C84.3833 -38.174 84.0349 -35.5616 84.4201 -33.296C84.7069 -31.609 88.5713 -32.5375 89.8337 -32.5375H107.176H145.576C148.711 -32.5375 151.856 -32.6067 154.99 -32.5375C155.834 -32.5182 157.567 -31.97 158.204 -32.7313C158.845 -33.4974 158.458 -35.5654 158.458 -36.5087C158.458 -39.8407 158.787 -43.3708 158.353 -46.6757M155.238 -81.144L139.878 -84.1099L118.324 -84.1196L102.964 -84.0772L87.1085 -81.1436L87.6138 -90.5667L88.1004 -108.669L88.3375 -145.369L86.8608 -173.142L100.734 -175.103L118.82 -175.126L141.364 -175.116L155.238 -173.142L154.003 -141.153L154.491 -104.701L155.238 -81.144ZM153.008 -339.78H151.769V-340.028L153.008 -339.78ZM151.274 -338.292H91.0724V-339.78L151.274 -340.028V-338.292ZM151.123 -337.222C151.905 -335.562 149.779 -335.565 148.796 -335.565H139.135H102.716H94.0453C93.2603 -335.565 91.6844 -335.266 91.2575 -336.139C90.5062 -337.676 92.3119 -337.794 93.3021 -337.796H101.973H138.144H147.806C148.651 -337.796 150.676 -338.171 151.123 -337.222ZM91.0724 -335.069H151.274L150.877 -333.092L147.806 -332.837H140.125H103.707H94.7885L91.4696 -333.092L91.0724 -335.069ZM151.274 -327.878H143.594C142.25 -331.276 137.873 -330.605 134.923 -330.605H109.158C106.051 -330.605 100.737 -331.749 99.9911 -327.63L91.3201 -327.382C91.0446 -328.315 90.5637 -331.391 91.4723 -332.09C92.2134 -332.66 93.9059 -332.341 94.7885 -332.341H103.212H139.63H148.053C148.834 -332.341 150.466 -332.643 151.019 -331.943C151.688 -331.098 151.274 -328.911 151.274 -327.878ZM150.531 27.7165C147.163 28.7129 142.647 27.9645 139.135 27.9645C139.098 24.8959 134.986 25.9807 132.693 25.9807H111.387C109.003 25.9807 103.993 24.7811 103.955 27.9645H91.8156L92.0703 22.9067L95.7795 22.509H106.185H150.283L150.531 27.7165ZM150.531 35.8997H136.409H107.919L92.0634 36.1476L91.8156 28.4604H103.955C104.16 31.1468 108.412 30.1963 110.396 30.1963H131.702C133.781 30.1963 138.922 31.2541 139.135 28.4604H147.31L150.276 28.8581L150.531 35.8997ZM150.531 39.1233L144.089 39.3713H131.95H91.8156V36.6436H136.657H146.567L150.133 36.8984L150.531 39.1233ZM142.498 -152.808C142.08 -155.953 141.109 -158.851 138.144 -160.487C135.695 -161.837 132.91 -161.487 130.216 -161.487L115.351 -161.487C111.57 -161.487 106.471 -162.417 103.212 -160.089C98.8426 -156.968 99.4957 -151.314 99.4957 -146.609C99.4957 -144.662 99.2945 -142.587 99.57 -140.658C101.108 -129.883 113.316 -132.474 121.297 -132.474C126.023 -132.474 133.316 -131.107 137.648 -133.159C144.054 -136.194 143.283 -146.897 142.498 -152.808ZM142.037 -152.808C142.71 -147.17 143.596 -136.85 137.648 -133.843C133.227 -131.607 125.905 -132.97 121.049 -132.97C114.564 -132.97 101.511 -130.445 100.284 -139.666C99.5345 -145.294 98.2223 -156.161 103.749 -159.694C106.955 -161.742 111.483 -160.991 115.103 -160.991H128.482C135.051 -160.991 141.086 -160.762 142.037 -152.808ZM138.391 29.7003H104.698L104.451 26.7247L115.351 26.4767H138.391V29.7003ZM136.155 -346.291C135.229 -347.426 133.579 -345.698 134.577 -344.604C135.598 -343.485 136.942 -345.325 136.155 -346.291ZM136.222 44.1396C135.6 42.702 133.602 43.9752 134.247 45.2861C134.973 46.7601 136.812 45.5067 136.222 44.1396ZM127.738 -101.23C125.138 -99.9615 122.878 -96.199 120.979 -94.0384C120.071 -93.0059 119.1 -92.2045 118.82 -90.8148L124.519 -97.1569L127.738 -101.23ZM120.802 -293.161H124.765C125.056 -291.893 126.085 -289.926 125.349 -288.701C124.032 -286.507 120.753 -286.397 120.003 -289.197C119.69 -290.365 120.54 -292.019 120.802 -293.161ZM108.423 -345.483C108.335 -346.907 106.258 -346.964 106.258 -345.483C106.258 -343.9 108.524 -343.847 108.423 -345.483ZM108.227 44.1394C107.595 42.6714 105.589 43.9247 106.274 45.2859C107.014 46.7535 108.811 45.4959 108.227 44.1394ZM104.451 -292.665L101.223 -282.994L95.3473 -264.644L78.933 -213.314H78.6853L78.6853 -266.628V-281.259C78.6853 -282.876 78.0986 -285.898 78.8348 -287.35C79.4208 -288.507 83.4301 -288.551 84.6311 -288.76C89.7474 -289.649 94.8512 -290.714 99.9911 -291.458C101.386 -291.66 103.153 -293.02 104.451 -292.665ZM90.8247 38.8753C88.4191 37.7525 86.7235 35.0252 84.8788 33.1719C84.3184 32.6089 83.2143 31.8186 83.1922 30.9412C83.1693 30.0305 84.3581 29.1801 84.931 28.5971C86.6005 26.8983 88.5303 23.7428 90.8247 23.005V38.8753ZM90.5769 -327.63L78.4375 -327.382C77.4421 -330.752 78.1898 -335.272 78.1898 -338.788H78.4375V-327.878C81.8534 -327.878 87.4425 -328.946 90.5769 -327.63ZM89.8337 23.005C87.5479 25.293 85.0997 29.0691 82.1537 30.4443L75.2169 22.7571L85.8698 22.509L89.8337 23.005ZM89.8337 39.3713H74.9691C76.0332 37.0875 80.439 32.1266 82.8969 31.4361L89.8337 39.3713ZM86.2026 -355.154C85.2628 -358.234 76.3747 -357.959 77.7535 -353.42C78.6989 -350.308 87.5513 -350.734 86.2026 -355.154ZM85.9336 53.011C84.795 50.0712 76.0543 50.6669 77.6582 55.237C78.6769 58.1397 87.7321 57.6542 85.9336 53.011ZM85.6372 -353.672C85.2114 -351.529 77.5681 -351.3 78.2465 -354.896C78.679 -357.188 86.3418 -357.218 85.6372 -353.672ZM85.4946 53.2723C86.7548 57.1758 78.8701 57.2879 78.1449 54.9792C76.9693 51.2371 84.8616 51.3118 85.4946 53.2723ZM46.7264 -291.921H46.4787L45.4877 -280.019C43.3615 -281.23 38.1157 -281.971 36.8236 -284.054C36.1604 -285.124 36.7563 -286.795 36.8069 -287.954C36.9351 -290.882 37.6987 -295.99 36.2214 -298.593C34.6803 -301.31 30.2491 -300.552 27.6502 -300.923C26.3512 -301.108 25.174 -301.518 24.0094 -300.631C22.4403 -299.435 22.098 -296.732 21.9521 -294.897L15.2631 -291.511L13.1829 -289.857L13.0334 -284.482V-271.588C28.2144 -269.657 39.9375 -258.045 37.4512 -242.079C36.2248 -234.203 31.8114 -227.695 24.6773 -224.004C21.8829 -222.558 19.0578 -221.718 16.0063 -221.031C15.1485 -220.837 13.4251 -220.974 13.1121 -219.952C12.0313 -216.424 13.0334 -211.064 13.0334 -207.362V-179.093V-85.8553C20.1478 -84.3855 26.8791 -81.4313 31.8196 -75.9364C39.1765 -67.754 39.9703 -54.0053 32.4768 -45.6128C28.9525 -41.6657 24.6112 -38.9776 19.7224 -37.0549C18.3818 -36.5276 13.7975 -35.965 13.1829 -34.6949C12.17 -32.6017 13.1729 -28.5928 13.2714 -26.3417C13.5588 -19.772 12.4454 -13.0203 13.0754 -6.50382C13.3076 -4.1023 14.1702 -2.27642 16.5018 -1.30114C17.8033 -0.756742 19.5667 -0.644122 20.6347 0.35236C22.2476 1.85739 21.5121 4.18022 23.9341 5.50856C26.6345 6.98956 32.4278 6.75878 34.4289 4.14561C36.2994 1.7031 36.7552 -2.52905 36.8167 -5.51187L47.9651 -4.02403L46.9742 3.66311C54.1907 7.70922 56.5185 -5.45429 57.5405 -9.9754C58.6811 -15.021 58.9856 -20.459 60.7086 -25.3498C66.3272 -41.2985 75.9806 -56.0409 79.4292 -72.7128C83.6535 -93.1341 83.672 -113.499 83.6401 -134.21C83.6223 -145.788 84.5207 -158.722 81.0547 -169.918C80.0704 -173.098 78.1447 -176.097 76.7094 -179.093C73.69 -185.396 70.7219 -191.757 67.463 -197.939C64.1682 -204.19 60.7629 -210.074 59.2187 -217.033C53.78 -241.545 59.2068 -269.113 46.7264 -291.921ZM36.3212 -137.682L36.569 -146.361V-162.479V-214.306C42.2781 -214.306 47.9136 -213.79 53.4155 -212.179C55.4963 -211.57 58.0667 -210.997 59.7888 -209.603C60.9364 -208.673 61.4853 -206.669 62.1505 -205.379C63.732 -202.312 65.4014 -199.291 66.9427 -196.204C69.5797 -190.921 72.1507 -185.612 74.7879 -180.333C76.5433 -176.819 78.7717 -173.176 79.9517 -169.422C81.0904 -165.8 81.3445 -162.006 81.7002 -158.264C82.2512 -152.468 82.2629 -146.724 82.405 -140.905C82.4409 -139.436 83.3958 -135.844 82.3937 -134.608C81.8548 -133.943 80.4042 -134.429 79.6762 -134.455C77.034 -134.552 74.3889 -134.828 71.7484 -134.944C63.6865 -135.298 55.7438 -136.379 47.7174 -137.144C44.1088 -137.488 39.7853 -136.657 36.3212 -137.682ZM36.3212 -135.946C39.2807 -136.651 42.7319 -135.926 45.7354 -135.72C53.715 -135.173 61.764 -133.766 69.7665 -133.714C72.8475 -133.694 76.119 -133.509 79.1807 -133.147C79.9748 -133.054 81.5838 -133.229 82.2175 -132.715C82.9313 -132.137 82.6491 -130.551 82.6491 -129.747V-121.812C82.6491 -116.077 82.4133 -110.413 82.1634 -104.701C82.0352 -101.771 82.4415 -97.8013 81.4555 -95.0304C80.6071 -92.646 78.4557 -90.4752 76.8451 -88.5831C70.711 -81.3765 63.5515 -74.5959 55.8929 -69.0309C53.2459 -67.1075 48.7292 -64.0235 45.4913 -66.3919C42.6004 -68.5065 41.2768 -73.3709 39.5988 -76.4324C38.751 -77.9792 36.98 -79.4719 36.4904 -81.1475C36.126 -82.3945 36.5689 -84.0589 36.5689 -85.3594V-95.5263V-122.555C36.5689 -126.793 37.3026 -131.82 36.3212 -135.946ZM72.9871 39.3713L70.4105 33.6679L71.4217 30.1963L74.2259 22.7571C76.3201 24.2336 77.8738 26.4069 79.6762 28.2125C80.3091 28.8465 81.5646 29.7327 81.6777 30.6922C81.7891 31.6374 80.5653 32.5375 79.9983 33.1488C78.1945 35.0934 75.7004 38.9523 72.9871 39.3713ZM57.6271 -206.37V-138.426L81.1627 -136.442C81.1627 -146.111 81.5764 -156.507 79.2067 -165.951C77.061 -174.502 72.0253 -183.041 67.861 -190.748C65.8231 -194.52 63.8169 -198.314 61.4683 -201.907C60.4275 -203.499 59.3346 -205.438 57.6271 -206.37ZM48.2129 2.91919C48.4325 1.17953 49.8907 -3.44565 48.9456 -4.93713C48.3879 -5.81719 46.4069 -5.68789 45.4877 -5.79836C42.4289 -6.16593 39.3771 -6.61317 36.3212 -6.99971L36.3212 -28.8214C36.3212 -32.1788 35.6934 -36.2444 36.4162 -39.5264C36.9755 -42.0658 39.6486 -44.6517 40.6684 -47.1714C43.329 -53.7456 43.7901 -61.6492 42.0193 -68.4972C44.0349 -67.3532 44.5665 -64.8292 47.2219 -64.3632C51.3997 -63.6299 55.6105 -67.3467 58.6181 -69.7364C63.6235 -73.7132 68.6123 -77.9284 72.9487 -82.6414C75.3915 -85.2964 78.1026 -90.0069 81.1627 -91.8067C80.8147 -74.9372 74.0836 -59.6368 67.5687 -44.4438C64.1178 -36.396 59.8938 -28.5622 58.274 -19.8944C57.1572 -13.9183 56.2639 -7.76782 54.1453 -2.0403C53.0882 0.817624 51.5267 3.31064 48.2129 2.91919ZM57.6271 -131.978V-75.1925C60.8776 -75.84 64.2645 -79.3635 66.7936 -81.3918C71.588 -85.237 77.4046 -89.883 79.7355 -95.7743C82.0903 -101.726 80.9149 -109.824 80.9149 -116.108C80.9149 -119.5 80.6736 -122.892 80.7945 -126.271C80.834 -127.376 81.3899 -129.667 80.6603 -130.589C79.9629 -131.47 75.8561 -131.203 74.7213 -131.231C69.0177 -131.373 63.3414 -131.978 57.6271 -131.978ZM80.1646 -346.149C79.3263 -347.405 77.7565 -345.961 78.4455 -344.778C79.2799 -343.344 80.9848 -344.92 80.1646 -346.149ZM80.1602 44.1197C79.3358 42.6247 77.4888 44.1828 78.3067 45.4918C79.1208 46.7949 80.8293 45.3332 80.1602 44.1197ZM79.1806 -87.0952C77.2514 -85.9665 75.7406 -83.5217 74.2197 -81.8878C70.4245 -77.8107 66.6786 -73.6791 63.0068 -69.4891C61.3532 -67.602 58.5042 -65.2401 57.7532 -62.7938C56.7403 -59.4947 57.3793 -55.2979 57.3793 -51.883V-30.0613C58.723 -31.2172 59.3828 -33.206 60.1712 -34.7728C61.5099 -37.4336 62.9194 -40.0866 64.336 -42.7079C69.4112 -52.0998 73.336 -61.7046 76.2425 -71.9688C77.6291 -76.8654 79.1806 -81.9827 79.1806 -87.0952ZM73.4826 -339.78C74.4316 -339.78 76.7864 -340.208 77.4396 -339.383C77.9201 -338.775 77.6942 -337.526 77.6942 -336.805V-330.357C77.6942 -329.649 77.9255 -328.372 77.4396 -327.783C76.7772 -326.98 75.3037 -327.907 74.7742 -328.429C73.2021 -329.979 73.4826 -332.56 73.4826 -334.573V-339.78ZM59.3612 -211.33C53.9406 -213.556 48.5722 -214.784 42.7624 -215.475C40.6525 -215.726 38.3637 -215.395 36.3211 -215.793C37.0512 -218.863 35.6314 -222.549 36.5337 -225.464C37.2061 -227.637 39.3073 -229.55 40.2778 -231.664C42.7757 -237.104 43.6434 -243.064 43.2358 -249.022C42.948 -253.227 41.9921 -257.692 39.9599 -261.421C38.9201 -263.328 36.9734 -265.109 36.2537 -267.124C35.7376 -268.569 36.0734 -270.565 36.0734 -272.084V-282.25L46.9741 -278.531L47.2218 -287.458L49.4161 -282.746L52.7341 -268.612L55.9347 -233.152L57.5314 -219.513L59.3612 -211.33ZM47.9582 -152.882C47.2155 -153.866 45.1259 -153.659 44.6461 -152.527C43.8361 -150.616 44.4966 -147.189 44.4966 -145.121C44.4966 -144.388 44.28 -143.192 44.7513 -142.568C45.4939 -141.584 47.5835 -141.791 48.0633 -142.922C48.8733 -144.833 48.2128 -148.26 48.2128 -150.328C48.2128 -151.061 48.4295 -152.258 47.9582 -152.882ZM47.9582 -84.0129C47.2937 -84.993 45.1449 -84.9285 44.6461 -83.8151C43.7908 -81.9059 44.4965 -78.271 44.4966 -76.1843C44.4967 -75.4732 44.3243 -74.4331 44.7513 -73.8122C45.3824 -72.8944 47.5921 -72.9632 48.0633 -74.0093C48.9208 -75.9129 48.2129 -79.5574 48.2128 -81.6398C48.2127 -82.3549 48.3827 -83.3868 47.9582 -84.0129ZM47.9649 -233.152C47.1498 -233.303 46.0734 -233.61 45.3184 -233.107C44.423 -232.511 44.4008 -229.145 45.0363 -228.341C46.7964 -226.117 47.9648 -229.39 47.9649 -230.672V-233.152ZM22.9428 -217.281C22.9428 -218.425 22.5201 -220.616 23.1975 -221.587C24.0436 -222.799 26.6414 -223.573 27.8977 -224.397C30.4545 -226.073 32.8539 -228.348 34.5267 -230.92C40.4522 -240.027 40.6059 -253.738 33.716 -262.412C30.7444 -266.154 26.8617 -268.453 22.6951 -270.595L22.9428 -274.563C30.5962 -272.389 36.9095 -267.25 40.2076 -259.932C47.0843 -244.675 40.8488 -221.429 22.9428 -217.281ZM22.9428 -31.3009C22.9428 -32.79 22.4546 -35.3019 23.0923 -36.6595C23.5454 -37.624 25.2886 -38.1905 26.1635 -38.7056C28.041 -39.8111 29.8079 -41.1899 31.3661 -42.7113C35.6544 -46.8982 38.7686 -52.4345 38.7982 -58.578C38.8322 -65.6466 37.1658 -71.7431 32.4217 -77.1536C30.7696 -79.0377 28.7751 -80.6555 26.659 -81.9891C25.6568 -82.6207 23.8456 -83.1946 23.1975 -84.2159C22.564 -85.214 22.9428 -87.1895 22.9428 -88.3348C25.4975 -87.7275 27.9592 -86.1382 30.1274 -84.6976C48.9358 -72.2014 46.1641 -37.5292 22.9428 -31.3009ZM35.926 -246.294C35.7278 -251.783 33.7927 -257.433 29.8376 -261.378C22.3447 -268.851 10.0803 -267.552 4.0576 -258.941C0.824288 -254.318 -0.0820837 -249.097 0.160231 -243.566C0.275848 -240.927 1.11021 -238.263 2.20908 -235.879C3.21556 -233.696 4.67364 -231.61 6.45284 -229.991C8.09548 -228.496 9.97504 -227.246 12.0422 -226.412C24.8679 -221.236 36.3731 -233.91 35.926 -246.294ZM22.9428 -214.057V-216.785C28.2576 -218.016 31.5759 -221.724 35.8255 -224.72L35.8292 -218.273L35.8089 -215.943L32.6049 -215.402L22.9428 -214.057ZM36.0733 -137.682L22.9429 -135.946V-212.818L35.8255 -214.305V-163.223V-146.857L36.0733 -137.682ZM35.5778 -81.6395C33.281 -84.2752 30.1978 -86.1702 27.1545 -87.8189C26.1307 -88.3736 23.603 -89.0933 23.0924 -90.1682C21.9852 -92.4991 22.9429 -97.4029 22.9429 -99.9895V-124.043V-131.482C22.9429 -132.257 22.6842 -133.658 23.1975 -134.308C23.6986 -134.943 25.4098 -134.917 26.1635 -135.049C29.0878 -135.563 33.1531 -136.44 36.0733 -135.946L35.8255 -122.555V-96.022L35.8263 -86.103L35.5778 -81.6395ZM35.7192 -63.2895C35.264 -66.4712 34.3209 -69.4601 32.6481 -72.2165C26.9848 -81.5482 14.42 -83.8642 6.34755 -76.1619C1.37879 -71.421 -0.732311 -63.8097 0.224715 -57.0901C0.639756 -54.1759 1.59352 -51.1708 3.13931 -48.659C4.44561 -46.5364 6.08799 -44.6862 8.07811 -43.1787C9.62837 -42.0044 11.4179 -41.0525 13.2807 -40.4856C26.9359 -36.3302 37.5235 -50.678 35.7192 -63.2895ZM22.9427 -30.8049C28.2931 -32.0769 31.5631 -35.9829 35.8253 -38.988C35.8253 -28.6562 35.8749 -18.3231 35.8251 -7.99137C35.81 -4.83908 35.696 1.56244 33.0063 3.73097C30.9731 5.3702 23.8574 5.952 23.0214 2.67035C22.2168 -0.487969 22.9427 -4.72853 22.9427 -7.99137L22.9427 -30.8049ZM35.5776 -267.868C31.7705 -270.251 27.8683 -274.844 22.9427 -274.811V-289.441C22.9427 -292.2 22.6666 -295.512 23.7379 -298.119C24.0224 -298.812 24.4405 -299.523 25.1982 -299.749C26.2511 -300.061 27.3576 -299.582 28.393 -299.435C30.5233 -299.131 33.7142 -300.004 35.1459 -297.859C36.4005 -295.979 35.5776 -291.645 35.5776 -289.441V-267.868ZM22.4472 -270.843L14.2717 -272.827V-284.73C14.2717 -285.975 13.8357 -288.261 14.5263 -289.345C15.7344 -291.241 20.2255 -292.809 22.1994 -293.905L22.4472 -286.218V-270.843ZM14.2717 -210.586V-219.513L22.4472 -221.249C22.4472 -219.543 23.1842 -215.597 22.1926 -214.184C21.7102 -213.496 20.469 -213.315 19.722 -213.065C17.7776 -212.416 16.1346 -211.36 14.2717 -210.586ZM14.2717 -134.458V-193.724V-204.138C14.2717 -205.454 13.918 -207.398 14.5263 -208.601C15.7283 -210.978 19.9865 -212.214 22.4472 -212.322V-153.552V-140.905L22.1926 -136.092L19.9698 -135.417L14.2717 -134.458ZM22.4472 -90.3185C20.758 -90.5718 15.5354 -91.8114 14.5263 -93.2079C13.9958 -93.9422 14.2717 -95.4134 14.2717 -96.2699V-103.709V-132.97L22.1994 -134.458C23.4188 -130.329 22.4472 -124.635 22.4472 -120.323V-90.3185ZM22.1994 -84.3672L14.5263 -87.2345L14.2717 -91.5584C18.4264 -90.9356 23.6893 -89.4124 22.1994 -84.3672ZM22.4472 -0.0561974C20.4105 -1.20087 16.2746 -2.08002 14.9476 -4.03445C13.5041 -6.16065 14.2717 -10.2606 14.2717 -12.7028L14.2717 -34.0286L22.1994 -36.5083C23.215 -33.0694 22.4472 -28.4405 22.4472 -24.8535L22.4472 -0.0561974Z" fill="#304A6E"/>
</svg>
