<svg width="81" height="72" viewBox="0 0 81 72" fill="none" xmlns="http://www.w3.org/2000/svg">
<rect width="81" height="72" fill="#1A1E26"/>
<rect x="-530" y="-161" width="980" height="753" rx="4" fill="white"/>
<path d="M80.8114 111.973C79.8295 107.063 78.4369 102.592 74.8876 98.8727C68.1717 91.8342 56.7525 91.979 50.2903 99.3274C45.6191 104.639 43.9999 112.075 45.3751 118.916C46 122.025 47.2332 125.08 49.1818 127.596C50.6142 129.444 52.1432 131.037 54.1825 132.224C65.8526 139.018 78.4265 130.372 80.4792 117.925C80.8047 115.951 81.2142 113.987 80.8114 111.973ZM80.7629 297.209C79.3205 291.455 77.7675 286.215 72.7633 282.458C64.6093 276.338 53.6019 279.2 48.2591 287.538C44.9188 292.751 44.1236 299.465 45.6044 305.393C47.6007 313.383 54.4146 320.454 63.1013 320.239C72.3856 320.009 78.8131 312.253 80.4234 303.657C80.8162 301.56 81.297 299.34 80.7629 297.209ZM44.2728 76.5129L35.1063 79.9846L34.633 72.0494L34.1154 68.0818C22.2961 92.3092 27.3105 119.449 21.2614 144.954C20.0505 150.059 17.4075 154.492 14.9849 159.088C11.3749 165.936 8.03899 172.951 4.66839 179.918C3.11241 183.134 1.0168 186.424 -0.0507716 189.837C-3.6417 201.317 -2.79831 214.648 -2.79831 226.537C-2.79831 241.466 -2.58888 256.08 -1.10598 270.924C-0.265261 279.34 0.923718 288.276 3.93835 296.217C8.88998 309.262 15.8998 321.659 20.2691 334.901C22.0331 340.248 22.3855 346.05 23.6815 351.516C24.9689 356.945 26.5772 365.845 33.8676 363.914L32.8767 355.979C35.4651 355.341 38.171 355.225 40.8044 354.844C41.6347 354.723 43.1597 354.206 43.8412 354.89C44.8482 355.9 44.596 359.271 45.017 360.69C46.4502 365.521 51.3374 367.69 56.1645 365.866C57.3233 365.428 58.651 364.555 59.186 363.395C59.7261 362.223 59.4209 360.819 60.6508 360.049C62.5844 358.838 65.074 359.03 66.6219 357.147C68.2672 355.145 67.8084 352.188 67.8084 349.78V332.669C67.8084 330.696 68.5095 327.092 67.6589 325.305C67.0526 324.032 62.4644 323.463 61.1193 322.951C56.5549 321.213 52.0607 318.469 48.7745 314.815C40.9235 306.087 41.6345 292.031 49.4976 283.571C54.3031 278.4 61.0059 275.552 67.8084 274.148V180.91L67.8084 152.641C67.8084 148.939 68.8104 143.58 67.7296 140.051C67.4152 139.024 65.6987 139.133 64.8355 138.981C61.9812 138.479 59.2412 137.506 56.66 136.213C49.8929 132.824 44.9864 126.697 43.6445 119.164C40.7245 102.773 51.9322 90.4678 67.8084 88.4155V75.2729C67.8084 73.8296 68.321 71.1464 67.5538 69.8827C66.1762 67.6138 61.7281 66.7887 59.666 65.146C58.0345 63.8464 58.6466 61.1037 57.1132 59.5437C55.9522 58.3625 54.6035 58.9581 53.1916 59.1116C50.5071 59.4034 46.4068 58.7642 44.7035 61.3902C43.8385 62.7238 44.0251 64.5854 44.0251 66.0979C44.0251 69.5783 44.2728 73.0271 44.2728 76.5129ZM66.5697 87.1756L58.3942 89.1594L58.6419 66.3458C60.5682 66.956 65.4983 69.0533 66.4873 70.8622C67.1452 72.0656 66.8174 74.4163 66.8174 75.7689C66.8174 79.5819 66.5697 83.3754 66.5697 87.1756ZM66.8174 149.417L61.1193 146.902L58.6674 145.819L58.3942 138.754L66.5697 140.49L66.8174 149.417ZM66.8174 225.545L58.3942 224.057C59.6849 204.784 58.6419 185.108 58.6419 165.783C58.6419 161.202 59.0012 156.446 58.4649 151.897C58.3594 151.001 57.9134 148.009 59.194 147.806C60.0616 147.668 61.2975 148.279 62.1103 148.553C63.5296 149.032 65.5587 149.773 66.3151 151.175C66.894 152.249 66.802 154.4 66.8165 155.616C66.8547 158.839 66.8172 162.064 66.8172 165.287V205.707C66.8172 212.24 66.2426 219.046 66.8174 225.545ZM58.394 269.684L58.6417 249.35L58.394 225.793L58.6417 225.545L66.5695 227.033C66.5702 236.516 66.8172 246.046 66.8172 255.55C66.8172 258.428 67.8991 264.09 66.4594 266.64C65.614 268.137 60.0479 269.515 58.394 269.684ZM66.5695 273.156L58.394 275.388V271.42L66.5695 268.444V273.156ZM58.6417 359.947V352.011V334.901V323.494L66.5695 325.974V347.3C66.5695 349.758 67.3276 353.783 66.005 355.956C64.6144 358.24 60.6575 358.204 58.6417 359.947ZM57.8985 85.1919C52.5746 85.6571 49.6465 90.0089 45.2636 92.1351C45.2636 84.8501 45.2753 77.5658 45.2636 70.3135C45.2599 68.1105 44.4525 63.818 45.7812 61.9512C47.1067 60.0891 50.5326 60.8047 52.4481 60.5994C53.4291 60.4943 54.4188 60.0448 55.4172 60.2068C56.2426 60.3408 56.7303 60.906 57.0652 61.6382C58.5517 64.8883 57.936 68.8711 57.8994 72.2972C57.8551 76.4524 58.57 81.1173 57.8985 85.1919ZM57.8987 142.722C39.9267 138.459 33.4423 114.564 41.005 99.3264C44.5201 92.2441 50.5224 87.8422 57.8987 85.4398C59.16 90.5853 53.741 91.418 50.4664 94.2251C46.5205 97.6076 43.7723 102.155 42.7034 107.261C41.0454 115.183 42.371 124.139 47.4944 130.571C49.3083 132.848 51.4729 134.674 53.9348 136.218C55.0204 136.898 57.1558 137.499 57.8417 138.609C58.4246 139.552 58.1834 141.714 57.8987 142.722ZM58.1464 145.945L44.7683 144.21C45.3805 141.635 45.3805 137.857 44.7683 135.283L49.9709 139.392L58.1464 143.466V145.945ZM45.016 222.569L45.016 145.697L54.4303 146.689L57.8597 147.756L57.9208 152.641L57.8987 163.799L57.8987 206.451V219.098L57.8786 223.651L54.678 223.632L45.016 222.569ZM45.016 278.116L45.016 224.057L54.678 224.988L57.8409 225.695L57.9021 228.521L57.8984 235.712V260.509L57.9196 266.709L57.8702 269.829L53.6867 272.226L45.016 278.116ZM57.8983 328.702C34.5145 322.314 31.8403 286.873 51.457 274.845C53.4358 273.632 55.6262 272.213 57.8983 271.668C57.9904 272.836 58.5304 274.499 57.8917 275.583C57.2599 276.655 55.4431 277.221 54.4301 277.887C52.2906 279.294 50.2441 280.924 48.5264 282.827C43.9222 287.929 41.8797 294.355 42.0466 301.177C42.2013 307.499 45.2704 313.219 49.7266 317.535C51.2705 319.03 53.0817 320.301 54.9256 321.399C55.8023 321.921 57.1036 322.295 57.7393 323.13C58.4153 324.017 58.2097 327.608 57.8983 328.702ZM45.0159 321.015L50.9617 325.866L58.1463 329.446C56.7138 337.169 57.8859 346.137 57.8985 353.996C57.9022 356.373 59.1107 361.125 57.749 363.16C56.0199 365.743 49.9328 365.509 47.7739 363.591C46.6277 362.573 46.1666 360.652 45.8706 359.203C44.7876 353.902 45.0159 348.462 45.0159 343.085V321.015ZM44.5204 144.21L31.1423 145.574L21.4803 148.425C26.1684 130.872 25.1567 112.507 27.6416 94.6151C28.3745 89.3383 29.4288 84.0934 30.964 78.9928C31.5875 76.921 32.0946 74.311 33.372 72.5455C34.0875 74.9682 34.351 78.9921 33.8675 81.4726C37.1644 81.6718 41.6929 78.6989 44.7682 77.5049L44.7682 87.9198C44.7682 89.4258 45.1158 91.4439 44.6223 92.8793C43.9652 94.7905 42.065 96.4935 41.1161 98.3347C38.8393 102.752 37.6436 107.746 37.5846 112.717C37.5233 117.87 38.2534 123.112 40.386 127.844C41.4266 130.152 43.5735 132.198 44.3746 134.539C45.2934 137.223 44.5204 141.373 44.5204 144.21ZM44.5204 222.569L-1.55975 225.793C-1.55975 214.626 -2.26232 202.449 0.673563 191.573C1.54138 188.358 3.34243 185.366 4.81485 182.398C7.22829 177.532 9.57621 172.629 12.0049 167.767C14.1609 163.451 16.2206 159.066 18.6118 154.873C19.4098 153.473 19.9643 151.214 21.2978 150.249C27.3089 145.899 37.4442 145.698 44.5204 145.698L44.5204 222.569ZM44.3709 224.413C44.9739 225.602 44.5204 227.949 44.5204 229.265V241.167L44.5204 266.957C44.5204 270.526 45.4027 275.439 44.3933 278.86C43.836 280.748 41.9444 282.33 41.0006 284.067C39.3247 287.151 37.9949 292.437 34.6107 294.054C31.005 295.777 26.3866 292.015 23.71 289.986C18.2983 285.885 13.3883 281.175 8.59771 276.38C5.50141 273.28 1.88367 269.65 -0.142864 265.717C-1.36289 263.349 -0.861412 260.109 -1.10631 257.534C-1.77374 250.514 -1.80749 243.514 -1.80749 236.456V229.761C-1.80722 229.048 -2.00883 227.8 -1.37584 227.288C-0.451119 226.539 2.46526 226.829 3.64285 226.775C7.91566 226.581 12.2666 226.405 16.5255 225.999C23.6059 225.325 30.7049 224.069 37.8314 224.057C39.1488 224.057 43.6507 222.993 44.3709 224.413ZM31.6378 354.739L32.6288 362.923C28.7659 362.922 27.3937 360.153 26.3329 356.723C24.5455 350.945 23.6735 345.025 22.4704 339.117C20.7209 330.527 16.3898 322.565 12.9145 314.568C6.38169 299.535 0.392362 284.582 -0.321033 267.949C2.81198 270.369 5.40171 274.591 8.12994 277.539C12.4581 282.216 17.4365 286.463 22.4103 290.432C25.4012 292.818 30.718 297.245 34.8584 295.283C36.5438 294.485 37.433 292.864 38.5746 291.506C38.7693 292.818 38.1927 294.145 38.1013 295.474C37.854 299.067 37.739 302.82 38.4037 306.385C39.0424 309.809 40.2476 312.981 41.8585 316.056C42.5891 317.45 43.9498 318.768 44.3933 320.271C44.8929 321.964 44.5204 324.217 44.5204 325.974V337.629V348.788C44.5204 349.811 44.9322 352.012 44.2658 352.854C43.7163 353.548 41.6324 353.427 40.8043 353.5C37.806 353.762 34.5615 354.035 31.6378 354.739ZM38.6912 323.247C38.0579 320.505 34.6804 318.992 32.3917 320.865C30.7212 322.232 30.3544 324.469 30.9091 326.47C31.6728 329.226 35.0794 330.436 37.29 328.564C38.775 327.306 39.1122 325.069 38.6912 323.247ZM36.4087 207.718C36.0805 206.187 33.3635 206.096 32.7783 207.476C32.0469 209.201 32.0469 215.356 32.7783 217.081C33.329 218.38 35.8048 218.393 36.3271 217.059C36.6396 216.26 36.3554 215.222 36.3458 214.387C36.3222 212.333 36.8343 209.703 36.4087 207.718ZM36.4447 276.413C36.0153 275.006 33.4389 274.892 32.8127 276.201C31.9424 278.02 32.6288 281.568 32.6288 283.571C32.6288 284.301 32.4625 285.302 32.7783 285.982C33.3678 287.251 35.8572 287.006 36.3332 285.776C36.6602 284.931 36.3696 283.949 36.3485 283.075C36.3007 281.088 37.0167 278.287 36.4447 276.413ZM36.0972 126.852C35.2822 126.701 34.2057 126.394 33.4508 126.897C32.534 127.507 32.5257 130.913 33.2738 131.662C35.2432 133.633 36.0971 130.726 36.0972 129.332V126.852ZM1.66092 272.909C1.70507 278.247 3.37521 283.704 4.91025 288.779C7.81356 298.379 11.391 307.122 15.9662 316.056C18.262 320.539 20.234 326.327 23.4623 330.191C24.0755 326.622 23.71 322.658 23.71 319.032C23.71 314.277 24.0426 309.376 23.534 304.649C23.2603 302.106 24.0137 299.134 22.9456 296.714C22.0389 294.66 20.0104 292.922 18.5459 291.259C15.606 287.92 12.6628 284.564 9.59825 281.34C7.14805 278.762 4.74915 274.679 1.66092 272.909ZM23.2146 153.633C21.7613 154.37 20.8267 156.027 19.9308 157.353C17.8842 160.382 16.0619 163.566 14.3159 166.776C9.55519 175.527 3.95088 185.063 1.53094 194.797C0.544024 198.767 0.449383 202.894 0.152478 206.948C-0.14737 211.042 -0.321016 215.241 -0.321016 219.346C-0.321016 220.281 -0.74664 222.661 0.076211 223.307C1.13348 224.137 5.06432 223.244 6.36804 223.066C11.9479 222.301 17.6248 222.285 23.2146 221.578L23.2146 153.633ZM22.9668 227.778C17.7478 229.021 11.4861 228.544 6.12029 228.779C4.97102 228.83 0.887799 228.522 0.181346 229.415C-0.569167 230.363 0.117279 232.396 0.164697 233.481C0.317334 236.97 -0.0732887 240.419 -0.0732887 243.896C-0.0732887 250.05 -1.06012 257.848 1.01363 263.734C3.25042 270.082 9.78967 275.5 15.039 279.359C17.4771 281.152 20.2354 284.038 23.2145 284.811L23.2145 245.88V233.977L22.9668 227.778ZM-38.9689 419.461C-35.4333 418.618 -31.2011 419.213 -27.5727 419.213H-5.27589C-2.31279 419.213 1.24748 419.751 4.13834 419.082C8.76355 418.012 7.39246 413.206 8.7472 410.075C9.26497 408.878 10.8438 408.789 11.3246 407.31C11.8204 405.786 11.7514 403.555 11.0627 402.103C10.6481 401.229 9.53857 400.398 9.5774 399.375C9.65589 397.308 11.8567 395.519 12.0743 393.424C12.3412 390.855 9.03846 386.53 7.91489 384.249C7.50171 383.41 7.09343 382.053 6.27129 381.528C5.01027 380.723 2.13057 381.273 0.66994 381.273H-13.4514H-66.9639H-82.5717C-84.0265 381.273 -87.1488 380.682 -88.3766 381.528C-89.2111 382.103 -89.3921 383.609 -89.7342 384.497C-90.6316 386.825 -93.3549 391.451 -92.8434 393.92C-92.4725 395.71 -90.3887 397.486 -90.3926 399.304C-90.3941 400.12 -91.3902 400.914 -91.7582 401.607C-92.5021 403.008 -92.7169 405.023 -92.3495 406.566C-91.9646 408.183 -90.5176 408.678 -89.8835 410.049C-88.5075 413.024 -88.9455 416.839 -85.5446 418.648C-82.8289 420.092 -78.1435 419.213 -75.1394 419.213H-51.1083C-48.2958 419.213 -43.3133 418.238 -40.7398 419.363C-39.6565 419.836 -39.9599 421.485 -39.9599 422.437C-39.9599 424.129 -39.6217 426.243 -40.0664 427.882C-40.3938 429.09 -41.6772 429.939 -40.8719 431.307C-40.1205 432.584 -38.3738 431.944 -38.1664 430.619C-38.0106 429.623 -38.7723 428.647 -38.8416 427.644C-39.0228 425.021 -38.4206 421.985 -38.9689 419.461ZM-19.3972 33.3663C-13.483 33.3663 -7.487 33.4725 -1.55975 33.6179C0.890931 33.6781 3.88653 34.5446 6.11646 33.1197C10.0107 30.6312 8.65259 24.5472 8.86877 20.7233C8.97712 18.8068 11.428 17.4592 11.744 15.2642C11.9453 13.8662 11.8104 11.9877 10.876 10.8563C10.3481 10.2172 9.34254 10.0331 8.99476 9.25714C7.6419 6.23883 8.81887 2.3485 5.12931 0.499035C3.44377 -0.345836 0.777689 0.137787 -1.06426 0.137787L-14.6901 0.137787L-63.7432 0.137787L-78.6078 0.137787C-80.6415 0.137787 -83.4503 -0.364211 -85.2967 0.613822C-88.9346 2.54095 -88.1634 6.26873 -89.7629 9.30304C-90.8486 11.3628 -92.6742 12.0459 -92.4068 14.7683C-92.1659 17.2212 -89.9626 18.7594 -89.7707 20.9676C-89.4725 24.3985 -90.6444 28.7851 -88.6465 31.856C-86.3031 35.458 -78.1568 33.8622 -74.3961 33.8622C-70.6628 33.8622 -65.3679 34.8421 -61.798 33.7834C-60.4472 33.3828 -61.0214 31.2705 -59.28 30.9432C-56.8763 30.4913 -54.0491 30.8866 -51.6038 30.8866L-36.2437 30.8866H-23.6089C-21.7074 30.8873 -19.7407 31.145 -19.3972 33.3663ZM-2.05524 391.192L5.37705 382.761H5.87254C7.76287 386.754 11.8893 391.609 9.77602 395.904C8.99345 397.494 8.42697 399.908 6.14245 399.296C5.06359 399.008 4.16455 397.694 3.44081 396.905C1.66601 394.972 -0.0705846 392.911 -2.05524 391.192ZM10.4944 13.0327C10.8754 14.8805 10.324 17.6004 8.34901 18.3383C7.01525 18.8367 5.05244 18.4879 3.64285 18.4879C-0.0855966 18.4879 -4.05524 18.122 -7.75332 18.5586C-14.6201 19.3696 -21.8944 18.7357 -28.8115 18.7357L-68.9458 18.7357C-72.555 18.7357 -76.246 18.5111 -79.8465 18.758C-82.5104 18.9406 -86.1129 19.6302 -88.7232 18.905C-90.1675 18.5036 -90.9701 16.6089 -91.1681 15.2642C-91.3564 13.9851 -91.2535 12.2607 -89.9779 11.5515C-88.736 10.861 -86.435 11.2966 -85.0491 11.2966L-73.1574 11.2966L-11.9649 11.2966L5.12931 11.2966C6.96666 11.2966 9.99951 10.6328 10.4944 13.0327ZM10.4858 404.831C10.5487 405.856 10.3533 407.4 9.29409 407.87C7.91504 408.482 5.62611 408.054 4.13833 408.054H-8.00108H-69.1936H-86.0401C-88.0304 408.054 -91.0033 408.558 -91.2283 405.823C-91.3669 404.138 -91.1594 401.82 -89.4853 400.907C-88.1962 400.204 -85.9816 400.615 -84.5536 400.615H-72.9097H-11.4695H1.41317C3.35234 400.615 5.72015 400.248 7.60674 400.719C9.46627 401.183 10.3764 403.048 10.4858 404.831ZM7.85449 9.80876L-57.3019 9.80876L-77.8645 9.80876L-88.2697 10.0568C-88.9468 7.37338 -87.0182 2.60433 -84.3049 1.65263C-82.6516 1.07267 -80.5838 1.37768 -78.8555 1.37768L-68.2024 1.37768L-12.9558 1.37768L0.174598 1.37768C1.9633 1.37768 4.16408 1.08264 5.57829 2.42601C7.63345 4.37828 7.26016 7.31 7.85449 9.80876ZM3.643 32.6223L3.39526 19.9757H7.60688C7.93634 24.1538 8.98364 31.3787 3.643 32.6223ZM-88.7651 409.542L-88.5173 409.294L-74.6437 409.542H-48.383H-12.4603L7.35915 409.294C8.00908 411.66 7.11202 416.385 4.6118 417.475C3.15708 418.109 0.989749 417.723 -0.568631 417.725H-11.7171H-68.9456C-72.652 417.725 -76.3914 417.581 -80.0941 417.744C-81.999 417.828 -84.1955 418.183 -85.7815 416.884C-87.8148 415.217 -88.2926 411.979 -88.7651 409.542ZM4.88172 382.761L-2.30283 390.448H-2.79832L-9.73511 382.761L0.174598 382.513L4.88172 382.761ZM4.88172 399.375H-10.2306C-8.69504 396.492 -4.95974 393.065 -2.30283 391.192L4.88172 399.375ZM-84.8012 44.2771V52.9561H-61.7611L-14.69 52.9561L-1.5596 52.9561L3.24577 52.8697L3.643 50.9724L3.49351 44.6424L-1.5596 44.2771L-17.6629 44.2771L-84.8012 44.2771ZM3.39526 70.8102C-4.16267 69.3849 -11.8369 68.5968 -19.3971 67.1861C-21.1588 66.8574 -22.4335 65.2758 -24.1042 65.0363C-28.3202 64.4317 -33.2017 65.1069 -37.4823 65.1069C-43.8254 65.1069 -50.4927 64.5043 -56.8063 65.133C-58.6041 65.312 -59.9802 66.7836 -61.7611 67.173C-68.9723 68.7501 -77.1912 70.737 -84.5534 71.0584L-84.5534 122.389C-84.5534 130.786 -85.3045 139.573 -84.5277 147.93C-84.261 150.798 -83.1259 153.728 -82.5761 156.567C-80.6266 166.636 -77.9442 176.636 -76.3082 186.757C-75.3503 192.683 -75.6393 198.975 -75.3772 204.964C-74.9289 215.211 -74.5944 225.437 -74.6439 235.713C-74.7131 250.055 -74.5617 264.832 -75.9245 279.108C-77.6804 297.502 -82.9228 315.53 -84.759 333.91C-85.7534 343.865 -84.8012 354.402 -84.8012 364.411C-77.0131 365.418 -69.3476 367.33 -61.5133 368.089C-54.7076 368.748 -47.5428 368.131 -40.703 368.131C-33.2685 368.131 -25.547 368.716 -18.1584 367.924C-12.9134 367.362 -7.72559 366.586 -2.55055 365.552C-1.10618 365.263 1.90764 365.265 2.99193 364.199C3.86029 363.345 3.39527 360.357 3.39527 359.204V344.821C3.39527 323.927 -2.11881 302.972 -5.17137 282.332C-5.928 277.216 -5.80346 272.107 -6.02871 266.958C-6.54202 255.224 -6.74329 243.513 -6.76219 231.746C-6.77995 220.693 -6.79719 209.567 -6.04112 198.517C-5.76039 194.414 -6.0788 190.195 -5.45006 186.118C-3.92622 176.239 -0.818697 166.344 1.47144 156.61C2.06308 154.095 3.04247 151.483 3.34958 148.922C4.18687 141.941 3.39529 134.384 3.39529 127.349C3.39529 108.575 2.50618 89.5572 3.39526 70.8102ZM2.8998 32.6228L0.174626 32.3748V32.1268H2.65206V20.2241H-8.24863L0.174626 19.7282L2.82219 20.3029L2.8998 23.9437V32.6228ZM-84.3057 52.4607V44.7734L3.14751 44.7734C3.14751 46.419 3.92511 50.7586 2.89289 52.063C2.1361 53.0195 -1.18156 52.4607 -2.30283 52.4607L-18.1584 52.4607L-84.3057 52.4607ZM2.73805 4.60559C1.81304 1.74462 -6.89469 2.15489 -5.62919 6.58457C-4.7301 9.73172 4.28678 9.39562 2.73805 4.60559ZM2.42129 14.2863C2.00083 12.7337 -0.224733 13.468 0.328861 15.0021C0.847998 16.4406 2.79994 15.6844 2.42129 14.2863ZM2.46812 412.777C1.91045 411.407 0.412911 411.527 -0.816381 411.526C-3.30099 411.526 -7.08686 411.8 -5.58733 415.483C-4.99792 416.931 -3.33687 416.734 -2.05509 416.734C0.453273 416.734 3.93724 416.385 2.46812 412.777ZM2.29665 5.1013C3.25876 8.55748 -4.56207 8.56797 -5.16736 6.3316C-6.12282 2.8014 1.6642 2.82937 2.29665 5.1013ZM2.21924 404.143C1.56647 402.683 -0.192991 403.995 0.327908 405.289C0.931372 406.789 2.83112 405.511 2.21924 404.143ZM2.27735 413.758C2.85791 417.179 -4.76428 417.259 -5.21897 414.745C-5.86087 411.196 1.85487 411.268 2.27735 413.758ZM2.15653 147.681H1.90879L-13.7472 96.8467L-19.6104 77.7528L-22.6177 67.5859C-17.2022 69.7057 -10.5419 70.0291 -4.78026 70.8419C-3.35609 71.0428 0.993789 71.0424 1.90191 72.1989C2.70981 73.2276 2.15653 76.2382 2.15653 77.5048V91.8873V147.681ZM2.0491 334.38C1.9967 335.7 -0.307027 336.671 -1.31186 337.225C-5.08307 339.305 -9.00349 340.78 -13.2035 341.702C-22.4886 343.74 -32.4828 342.837 -41.9417 342.837C-49.7878 342.837 -58.2625 343.679 -65.9727 341.987C-70.6554 340.96 -75.3181 339.554 -79.5986 337.354C-80.9421 336.664 -83.492 335.956 -83.5258 334.156C-83.597 330.355 -82.2898 326.246 -81.6891 322.503C-80.1908 313.165 -78.5655 303.838 -77.1885 294.482C-76.7009 291.169 -76.0942 287.88 -75.6347 284.563C-75.4945 283.551 -75.4859 281.3 -74.7076 280.58C-73.8973 279.829 -71.9774 279.694 -70.9276 279.461C-67.7412 278.752 -64.5062 277.969 -61.2656 277.581C-55.0379 276.835 -48.7062 277.124 -42.4372 277.124C-35.6774 277.124 -28.8581 276.877 -22.1223 277.349C-18.2181 277.623 -14.5228 278.543 -10.7261 279.441C-9.60229 279.707 -7.54889 279.709 -6.80293 280.722C-6.07795 281.706 -6.14269 283.633 -5.92262 284.811C-5.26345 288.339 -4.76406 291.927 -4.21673 295.474C-2.85135 304.322 -1.44466 313.177 0.0346641 322.007C0.682915 325.876 2.20442 330.465 2.0491 334.38ZM-83.5625 363.418C-84.7969 356.763 -83.8102 349.11 -83.8102 342.341C-83.8102 340.357 -83.4341 338.07 -83.8102 336.141C-81.4524 335.984 -78.1277 338.622 -75.8825 339.514C-70.7455 341.554 -65.5145 342.768 -60.0269 343.29C-52.0841 344.047 -43.7299 343.333 -35.7481 343.333C-28.9454 343.333 -21.6345 344.054 -14.9377 342.672C-11.1993 341.9 -7.48593 340.825 -4.03703 339.171C-2.01548 338.201 0.0146598 336.45 2.15653 335.894V355.731C2.15653 357.379 2.92683 361.672 1.90191 362.99C1.03496 364.105 -2.22691 364.098 -3.54155 364.361C-8.98876 365.451 -14.5821 366.509 -20.1403 366.646C-32.7933 366.957 -45.8904 367.735 -58.5405 366.868C-66.9162 366.294 -75.2219 363.777 -83.5625 363.418ZM1.16557 147.434C-5.99558 144.809 -12.059 139.6 -19.6448 137.773C-25.1748 136.441 -31.5734 137.267 -37.2346 137.267C-45.7366 137.267 -55.5343 135.909 -63.7431 138.367C-70.6718 140.443 -76.2882 144.933 -82.8193 147.682C-81.9472 141.231 -78.7171 134.276 -76.6444 128.092C-72.3998 115.427 -68.6687 102.588 -64.4861 89.9038C-62.6654 84.3824 -60.8726 78.8499 -59.1759 73.2896C-58.479 71.0058 -57.4033 68.7133 -57.054 66.3463H-42.4372C-42.4994 67.7751 -43.8768 70.2768 -43.2268 71.544C-41.5014 74.9078 -36.4082 75.3807 -35.1775 71.296C-34.7947 70.0256 -35.8519 67.8204 -36.2436 66.5943L-26.8294 66.3463L-23.5726 66.9211L-21.254 74.0335L-16.0713 90.8957L-3.85848 130.571L1.16557 147.434ZM-1.06411 146.938C-5.46242 146.499 -9.73887 144.685 -14.1945 144.252C-20.7685 143.613 -27.418 144.12 -34.0139 143.958C-44.3697 143.705 -55.1566 142.74 -65.4773 143.756C-70.6488 144.265 -75.5581 146.031 -80.5896 147.186V146.938C-74.1359 142.984 -66.8334 139.066 -59.2837 137.843C-51.9935 136.662 -43.6358 137.763 -36.2436 137.763C-31.5827 137.763 -26.4875 137.179 -21.8745 137.837C-17.3264 138.486 -13.1049 140.741 -8.99188 142.646C-6.39718 143.847 -3.27032 145.108 -1.06411 146.938ZM-10.4783 398.383L-10.4783 383.256L-4.78025 388.712L-3.27431 390.944L-5.028 393.175L-10.4783 398.383ZM-3.64667 313.328C-4.6663 305.555 -6.1318 297.887 -8.03226 290.266C-8.5047 288.372 -8.69122 283.888 -10.1314 282.544C-10.949 281.78 -12.8841 281.704 -13.9467 281.488C-17.1343 280.841 -20.3368 280.101 -23.6087 280.1H-57.3017C-60.715 280.1 -64.1037 280.628 -67.4592 281.234C-68.487 281.42 -70.4555 281.397 -71.1916 282.229C-71.8909 283.02 -71.9615 284.562 -72.1671 285.555C-72.6818 288.042 -73.3023 290.518 -73.8711 292.994C-75.8853 301.762 -77.6167 310.515 -77.6167 319.527C-77.6167 321.826 -77.9651 324.438 -77.5799 326.704C-77.2931 328.391 -73.4287 327.462 -72.1663 327.462H-54.8243H-16.4242C-13.2887 327.462 -10.1445 327.393 -7.00994 327.462C-6.16575 327.482 -4.43312 328.03 -3.79617 327.269C-3.15527 326.503 -3.54154 324.435 -3.54154 323.491C-3.54154 320.159 -3.21316 316.629 -3.64667 313.324M-6.7622 278.856L-22.1222 275.89L-43.6759 275.88L-59.0359 275.923L-74.8915 278.856L-74.3862 269.433L-73.8996 251.331L-73.6625 214.631L-75.1392 186.858L-61.2656 184.897L-43.1804 184.874L-20.6358 184.884L-6.7622 186.858L-7.99728 218.847L-7.50906 255.299L-6.7622 278.856ZM-8.99188 20.2197H-10.2306V19.9718L-8.99188 20.2197ZM-10.7261 21.7075L-70.9276 21.7075V20.2197L-10.7261 19.9718V21.7075ZM-10.8767 22.7781C-10.0953 24.4377 -12.2208 24.4348 -13.2035 24.4353L-22.8655 24.4353L-59.2837 24.4353H-67.9547C-68.7397 24.4353 -70.3156 24.734 -70.7425 23.8607C-71.4938 22.3238 -69.6881 22.2055 -68.6979 22.2035H-60.0269L-23.8565 22.2035L-14.1945 22.2035C-13.3487 22.2035 -11.3238 21.8286 -10.8767 22.7781ZM-70.9276 24.9312L-10.7261 24.9312L-11.1233 26.9081L-14.1945 27.163L-21.8745 27.163L-58.2927 27.163H-67.2115L-70.5304 26.9081L-70.9276 24.9312ZM-10.7261 32.1224H-18.4061C-19.7501 28.7242 -24.1271 29.3948 -27.0771 29.3948L-52.8424 29.3948C-55.9486 29.3948 -61.2633 28.251 -62.0089 32.3705L-70.6799 32.6184C-70.9554 31.6854 -71.4363 28.6091 -70.5277 27.9101C-69.7866 27.3401 -68.0941 27.6589 -67.2115 27.6589H-58.7882L-22.37 27.6589L-13.9467 27.6589C-13.1661 27.6589 -11.534 27.3573 -10.9807 28.0565C-10.3118 28.9019 -10.7261 31.0891 -10.7261 32.1224ZM-11.4693 387.716C-14.837 388.713 -19.3527 387.965 -22.8655 387.965C-22.9018 384.896 -27.0142 385.981 -29.3068 385.981H-50.6127C-52.9975 385.981 -58.0073 384.781 -58.045 387.965H-70.1844L-69.9297 382.907L-66.2205 382.509H-55.8153H-11.7171L-11.4693 387.716ZM-11.4693 395.9H-25.5907H-54.0811L-69.9366 396.148L-70.1844 388.46H-58.045C-57.8402 391.147 -53.5876 390.196 -51.6037 390.196H-30.2978C-28.2192 390.196 -23.0784 391.254 -22.8655 388.46H-14.69L-11.7239 388.858L-11.4693 395.9ZM-11.4693 399.123L-17.9106 399.371H-30.05H-70.1844V396.644H-25.3429H-15.4332L-11.8667 396.898L-11.4693 399.123ZM-19.5022 207.192C-19.9198 204.047 -20.8907 201.149 -23.8565 199.513C-26.3052 198.163 -29.0903 198.513 -31.7842 198.513L-46.6488 198.513C-50.4303 198.513 -55.5291 197.583 -58.7882 199.911C-63.1574 203.032 -62.5043 208.686 -62.5043 213.391C-62.5043 215.338 -62.7055 217.413 -62.43 219.342C-60.892 230.117 -48.6844 227.526 -40.703 227.526C-35.9773 227.526 -28.6836 228.893 -24.3519 226.841C-17.9458 223.806 -18.7173 213.103 -19.5022 207.192ZM-19.9633 207.192C-19.2896 212.83 -18.404 223.15 -24.3519 226.157C-28.773 228.393 -36.0952 227.03 -40.9507 227.03C-47.4356 227.03 -60.489 229.555 -61.7164 220.334C-62.4655 214.706 -63.7777 203.839 -58.2506 200.306C-55.045 198.258 -50.5173 199.009 -46.8965 199.009H-33.5184C-26.9493 199.009 -20.9137 199.238 -19.9633 207.192ZM-23.6087 389.7H-57.3017L-57.5495 386.725L-46.6488 386.477H-23.6087V389.7ZM-25.8455 13.7094C-26.7711 12.5737 -28.4209 14.302 -27.4229 15.3959C-26.4016 16.5153 -25.0583 14.6754 -25.8455 13.7094ZM-25.7784 404.14C-26.3997 402.702 -28.3978 403.975 -27.7527 405.286C-27.0273 406.76 -25.1876 405.507 -25.7784 404.14ZM-34.2617 258.77C-36.862 260.038 -39.122 263.801 -41.0214 265.962C-41.9292 266.994 -42.9003 267.796 -43.1804 269.185L-37.4814 262.843L-34.2617 258.77ZM-41.1985 66.8388H-37.2346C-36.944 68.1074 -35.9151 70.0735 -36.6506 71.2986C-37.9677 73.4925 -41.2468 73.6026 -41.9969 70.8027C-42.3098 69.6348 -41.46 67.9809 -41.1985 66.8388ZM-53.5774 14.5173C-53.6652 13.0928 -55.7419 13.0355 -55.7419 14.5173C-55.7419 16.1004 -53.4765 16.1534 -53.5774 14.5173ZM-53.7733 404.139C-54.4052 402.671 -56.4114 403.925 -55.7256 405.286C-54.9863 406.754 -53.1894 405.496 -53.7733 404.139ZM-57.5495 67.3347L-60.7772 77.0057L-66.6527 95.3557L-83.067 146.686H-83.3147L-83.3147 93.372V78.7415C-83.3147 77.1241 -83.9014 74.1022 -83.1652 72.6497C-82.5792 71.4932 -78.5699 71.4491 -77.3689 71.2403C-72.2526 70.3505 -67.1488 69.286 -62.0089 68.542C-60.6144 68.3402 -58.8473 66.9795 -57.5495 67.3347ZM-71.1753 398.875C-73.5809 397.752 -75.2765 395.025 -77.1212 393.172C-77.6816 392.609 -78.7857 391.819 -78.8078 390.941C-78.8307 390.031 -77.6419 389.18 -77.069 388.597C-75.3995 386.898 -73.4697 383.743 -71.1753 383.005V398.875ZM-71.4231 32.3705L-83.5625 32.6184C-84.5579 29.2475 -83.8102 24.7277 -83.8102 21.2116H-83.5625V32.1224C-80.1466 32.1224 -74.5575 31.0539 -71.4231 32.3705ZM-72.1663 383.005C-74.4521 385.293 -76.9003 389.069 -79.8463 390.444L-86.7831 382.757L-76.1302 382.509L-72.1663 383.005ZM-72.1663 399.371H-87.0309C-85.9668 397.087 -81.561 392.127 -79.1031 391.436L-72.1663 399.371ZM-75.7974 4.84628C-76.7372 1.76645 -85.6253 2.04059 -84.2465 6.58007C-83.3011 9.69241 -74.4487 9.26592 -75.7974 4.84628ZM-76.0664 413.011C-77.205 410.071 -85.9457 410.667 -84.3418 415.237C-83.3231 418.14 -74.2679 417.654 -76.0664 413.011ZM-76.3628 6.3284C-76.7886 8.47096 -84.4319 8.70039 -83.7535 5.10428C-83.321 2.81196 -75.6582 2.78228 -76.3628 6.3284ZM-76.5054 413.272C-75.2452 417.176 -83.1299 417.288 -83.8551 414.979C-85.0307 411.237 -77.1384 411.312 -76.5054 413.272ZM-115.274 68.0787H-115.521L-116.512 79.9814C-118.638 78.7702 -123.884 78.0287 -125.176 75.9457C-125.84 74.8765 -125.244 73.2049 -125.193 72.0462C-125.065 69.1178 -124.301 64.0104 -125.779 61.4066C-127.32 58.6904 -131.751 59.4478 -134.35 59.0771C-135.649 58.8919 -136.826 58.4823 -137.991 59.3695C-139.56 60.5649 -139.902 63.2676 -140.048 65.103L-146.737 68.4888L-148.817 70.1432L-148.967 75.5179V88.4125C-133.786 90.3429 -122.063 101.955 -124.549 117.921C-125.775 125.797 -130.189 132.305 -137.323 135.996C-140.117 137.442 -142.942 138.282 -145.994 138.969C-146.851 139.163 -148.575 139.026 -148.888 140.048C-149.969 143.576 -148.967 148.936 -148.967 152.638V180.907V274.145C-141.852 275.614 -135.121 278.569 -130.18 284.064C-122.824 292.246 -122.03 305.995 -129.523 314.387C-133.047 318.334 -137.389 321.022 -142.278 322.945C-143.618 323.472 -148.203 324.035 -148.817 325.305C-149.83 327.398 -148.827 331.407 -148.729 333.658C-148.441 340.228 -149.555 346.98 -148.925 353.496C-148.692 355.898 -147.83 357.724 -145.498 358.699C-144.197 359.243 -142.433 359.356 -141.365 360.352C-139.752 361.857 -140.488 364.18 -138.066 365.509C-135.365 366.99 -129.572 366.759 -127.571 364.146C-125.701 361.703 -125.245 357.471 -125.183 354.488L-114.035 355.976L-115.026 363.663C-107.809 367.709 -105.482 354.546 -104.459 350.025C-103.319 344.979 -103.014 339.541 -101.291 334.65C-95.6728 318.702 -86.0194 303.959 -82.5708 287.287C-78.3465 266.866 -78.328 246.501 -78.3599 225.79C-78.3777 214.212 -77.4793 201.278 -80.9453 190.082C-81.9296 186.902 -83.8553 183.903 -85.2906 180.907C-88.31 174.604 -91.2781 168.243 -94.537 162.061C-97.8318 155.81 -101.237 149.926 -102.781 142.967C-108.22 118.455 -102.793 90.8872 -115.274 68.0787ZM-125.679 222.318L-125.431 213.639V197.521V145.694C-119.722 145.694 -114.086 146.21 -108.585 147.821C-106.504 148.43 -103.933 149.003 -102.211 150.397C-101.064 151.327 -100.515 153.331 -99.8495 154.621C-98.268 157.688 -96.5986 160.709 -95.0573 163.796C-92.4203 169.079 -89.8493 174.388 -87.2121 179.667C-85.4567 183.181 -83.2283 186.824 -82.0483 190.578C-80.9096 194.2 -80.6555 197.994 -80.2998 201.736C-79.7488 207.532 -79.7371 213.276 -79.595 219.095C-79.5591 220.564 -78.6042 224.156 -79.6063 225.392C-80.1452 226.057 -81.5958 225.571 -82.3238 225.545C-84.966 225.448 -87.6111 225.172 -90.2516 225.056C-98.3135 224.702 -106.256 223.621 -114.283 222.856C-117.891 222.512 -122.215 223.343 -125.679 222.318ZM-125.679 224.054C-122.719 223.349 -119.268 224.074 -116.265 224.28C-108.285 224.827 -100.236 226.234 -92.2335 226.286C-89.1525 226.306 -85.881 226.491 -82.8193 226.853C-82.0252 226.946 -80.4162 226.771 -79.7825 227.285C-79.0687 227.863 -79.3509 229.449 -79.3509 230.253V238.188C-79.3509 243.923 -79.5867 249.587 -79.8366 255.299C-79.9648 258.229 -79.5585 262.199 -80.5445 264.97C-81.3929 267.354 -83.5443 269.525 -85.1549 271.417C-91.289 278.624 -98.4485 285.404 -106.107 290.969C-108.754 292.893 -113.271 295.976 -116.509 293.608C-119.4 291.494 -120.723 286.629 -122.401 283.568C-123.249 282.021 -125.02 280.528 -125.51 278.853C-125.874 277.605 -125.431 275.941 -125.431 274.641V264.474V237.445C-125.431 233.207 -124.697 228.18 -125.679 224.054ZM-89.0129 399.371L-91.5895 393.668L-90.5783 390.196L-87.7741 382.757C-85.6799 384.234 -84.1262 386.407 -82.3238 388.212C-81.6909 388.846 -80.4354 389.733 -80.3223 390.692C-80.2109 391.637 -81.4347 392.538 -82.0017 393.149C-83.8055 395.093 -86.2996 398.952 -89.0129 399.371ZM-104.373 153.63V221.574L-80.8373 223.558C-80.8373 213.889 -80.4236 203.493 -82.7933 194.049C-84.939 185.498 -89.9747 176.959 -94.139 169.252C-96.1769 165.48 -98.1831 161.686 -100.532 158.093C-101.573 156.501 -102.665 154.562 -104.373 153.63ZM-113.787 362.919C-113.567 361.18 -112.109 356.554 -113.054 355.063C-113.612 354.183 -115.593 354.312 -116.512 354.202C-119.571 353.834 -122.623 353.387 -125.679 353L-125.679 331.179C-125.679 327.821 -126.307 323.756 -125.584 320.474C-125.025 317.934 -122.351 315.348 -121.332 312.829C-118.671 306.254 -118.21 298.351 -119.981 291.503C-117.965 292.647 -117.434 295.171 -114.778 295.637C-110.6 296.37 -106.39 292.653 -103.382 290.264C-98.3765 286.287 -93.3877 282.072 -89.0513 277.359C-86.6085 274.704 -83.8974 269.993 -80.8373 268.193C-81.1853 285.063 -87.9164 300.363 -94.4313 315.556C-97.8822 323.604 -102.106 331.438 -103.726 340.106C-104.843 346.082 -105.736 352.232 -107.855 357.96C-108.912 360.818 -110.473 363.311 -113.787 362.919ZM-104.373 228.022V284.808C-101.122 284.16 -97.7355 280.637 -95.2064 278.608C-90.412 274.763 -84.5954 270.117 -82.2645 264.226C-79.9097 258.274 -81.0851 250.176 -81.0851 243.892C-81.0851 240.5 -81.3264 237.108 -81.2055 233.729C-81.166 232.624 -80.6101 230.333 -81.3397 229.411C-82.0371 228.53 -86.1439 228.797 -87.2787 228.769C-92.9823 228.627 -98.6586 228.022 -104.373 228.022ZM-81.8354 13.8512C-82.6737 12.595 -84.2435 14.0385 -83.5545 15.2223C-82.7201 16.6558 -81.0152 15.0802 -81.8354 13.8512ZM-81.8398 404.12C-82.6642 402.625 -84.5112 404.183 -83.6933 405.492C-82.8792 406.795 -81.1707 405.333 -81.8398 404.12ZM-82.8194 272.905C-84.7486 274.034 -86.2594 276.478 -87.7803 278.112C-91.5755 282.189 -95.3214 286.321 -98.9932 290.511C-100.647 292.398 -103.496 294.76 -104.247 297.206C-105.26 300.505 -104.621 304.702 -104.621 308.117V329.939C-103.277 328.783 -102.617 326.794 -101.829 325.227C-100.49 322.566 -99.0806 319.913 -97.664 317.292C-92.5888 307.9 -88.664 298.295 -85.7575 288.031C-84.3709 283.135 -82.8194 278.017 -82.8194 272.905ZM-88.5174 20.2197C-87.5684 20.2197 -85.2136 19.7919 -84.5604 20.6173C-84.0799 21.2246 -84.3058 22.4737 -84.3058 23.1954V29.6427C-84.3058 30.3506 -84.0745 31.6285 -84.5604 32.2171C-85.2228 33.0195 -86.6963 32.0928 -87.2258 31.5708C-88.7979 30.0209 -88.5174 27.4398 -88.5174 25.4271V20.2197ZM-102.639 148.67C-108.059 146.444 -113.428 145.216 -119.238 144.525C-121.347 144.274 -123.636 144.605 -125.679 144.207C-124.949 141.137 -126.369 137.451 -125.466 134.536C-124.794 132.363 -122.693 130.45 -121.722 128.336C-119.224 122.896 -118.357 116.936 -118.764 110.978C-119.052 106.773 -120.008 102.308 -122.04 98.5794C-123.08 96.6718 -125.027 94.8915 -125.746 92.876C-126.262 91.4309 -125.927 89.4347 -125.927 87.9165V77.7496L-115.026 81.4692L-114.778 72.5422L-112.584 77.2536L-109.266 91.3881L-106.065 126.848L-104.469 140.487L-102.639 148.67ZM-114.042 207.118C-114.785 206.134 -116.874 206.341 -117.354 207.473C-118.164 209.384 -117.503 212.811 -117.503 214.879C-117.503 215.612 -117.72 216.808 -117.249 217.432C-116.506 218.416 -114.416 218.209 -113.937 217.078C-113.127 215.167 -113.787 211.74 -113.787 209.672C-113.787 208.939 -113.571 207.742 -114.042 207.118ZM-114.042 275.987C-114.706 275.007 -116.855 275.072 -117.354 276.185C-118.209 278.094 -117.503 281.729 -117.503 283.816C-117.503 284.527 -117.676 285.567 -117.249 286.188C-116.618 287.106 -114.408 287.037 -113.937 285.991C-113.079 284.087 -113.787 280.443 -113.787 278.36C-113.787 277.645 -113.617 276.613 -114.042 275.987ZM-114.035 126.848C-114.85 126.697 -115.927 126.39 -116.682 126.893C-117.577 127.489 -117.599 130.855 -116.964 131.659C-115.204 133.883 -114.035 130.61 -114.035 129.328V126.848ZM-139.057 142.719C-139.057 141.575 -139.48 139.384 -138.803 138.413C-137.956 137.201 -135.359 136.427 -134.102 135.603C-131.546 133.927 -129.146 131.652 -127.473 129.08C-121.548 119.973 -121.394 106.262 -128.284 97.5878C-131.256 93.8464 -135.138 91.5475 -139.305 89.4046L-139.057 85.4371C-131.404 87.611 -125.091 92.75 -121.792 100.068C-114.916 115.325 -121.151 138.571 -139.057 142.719ZM-139.057 328.699C-139.057 327.21 -139.545 324.698 -138.908 323.341C-138.455 322.376 -136.711 321.809 -135.836 321.294C-133.959 320.189 -132.192 318.81 -130.634 317.289C-126.346 313.102 -123.231 307.566 -123.202 301.422C-123.168 294.353 -124.834 288.257 -129.578 282.846C-131.23 280.962 -133.225 279.344 -135.341 278.011C-136.343 277.379 -138.154 276.805 -138.803 275.784C-139.436 274.786 -139.057 272.81 -139.057 271.665C-136.502 272.273 -134.041 273.862 -131.873 275.302C-113.064 287.799 -115.836 322.471 -139.057 328.699ZM-126.074 113.706C-126.272 108.217 -128.207 102.567 -132.162 98.622C-139.655 91.1488 -151.92 92.448 -157.942 101.059C-161.176 105.682 -162.082 110.903 -161.84 116.434C-161.724 119.073 -160.89 121.737 -159.791 124.121C-158.784 126.304 -157.326 128.39 -155.547 130.009C-153.905 131.504 -152.025 132.754 -149.958 133.588C-137.132 138.764 -125.627 126.09 -126.074 113.706ZM-139.057 145.943V143.215C-133.742 141.984 -130.424 138.276 -126.175 135.28L-126.171 141.727L-126.191 144.057L-129.395 144.598L-139.057 145.943ZM-125.927 222.318L-139.057 224.054V147.182L-126.174 145.695V196.777V213.143L-125.927 222.318ZM-126.422 278.36C-128.719 275.725 -131.802 273.83 -134.845 272.181C-135.869 271.626 -138.397 270.907 -138.908 269.832C-140.015 267.501 -139.057 262.597 -139.057 260.01V235.957V228.518C-139.057 227.743 -139.316 226.342 -138.802 225.692C-138.301 225.057 -136.59 225.083 -135.836 224.951C-132.912 224.437 -128.847 223.56 -125.927 224.054L-126.174 237.445V263.978L-126.174 273.897L-126.422 278.36ZM-126.281 296.711C-126.736 293.529 -127.679 290.54 -129.352 287.783C-135.015 278.452 -147.58 276.136 -155.652 283.838C-160.621 288.579 -162.732 296.19 -161.775 302.91C-161.36 305.824 -160.406 308.829 -158.861 311.341C-157.554 313.464 -155.912 315.314 -153.922 316.821C-152.372 317.996 -150.582 318.948 -148.719 319.514C-135.064 323.67 -124.477 309.322 -126.281 296.711ZM-139.057 329.195C-133.707 327.923 -130.437 324.017 -126.175 321.012C-126.175 331.344 -126.125 341.677 -126.175 352.009C-126.19 355.161 -126.304 361.562 -128.994 363.731C-131.027 365.37 -138.143 365.952 -138.979 362.67C-139.783 359.512 -139.057 355.271 -139.057 352.009L-139.057 329.195ZM-126.422 92.1324C-130.23 89.7488 -134.132 85.1565 -139.057 85.1891V70.5587C-139.057 67.7997 -139.333 64.4875 -138.262 61.8805C-137.978 61.1883 -137.559 60.4767 -136.802 60.2515C-135.749 59.9386 -134.642 60.4176 -133.607 60.5653C-131.477 60.8691 -128.286 59.9964 -126.854 62.1411C-125.599 64.0206 -126.422 68.3546 -126.422 70.5587V92.1324ZM-139.553 89.1567L-147.728 87.1729V75.2701C-147.728 74.0247 -148.164 71.7395 -147.474 70.6554C-146.266 68.7591 -141.774 67.1909 -139.801 66.0951L-139.553 73.7823V89.1567ZM-147.728 149.414V140.487L-139.553 138.751C-139.553 140.457 -138.816 144.403 -139.807 145.816C-140.29 146.504 -141.531 146.685 -142.278 146.935C-144.222 147.584 -145.865 148.64 -147.728 149.414ZM-147.728 225.542V166.276V155.862C-147.728 154.546 -148.082 152.602 -147.474 151.399C-146.272 149.022 -142.014 147.786 -139.553 147.678V206.448V219.095L-139.807 223.908L-142.03 224.583L-147.728 225.542ZM-139.553 269.681C-141.242 269.428 -146.465 268.189 -147.474 266.792C-148.004 266.058 -147.728 264.587 -147.728 263.73V256.291V227.03L-139.801 225.542C-138.581 229.671 -139.553 235.365 -139.553 239.677V269.681ZM-139.801 275.633L-147.474 272.765L-147.728 268.442C-143.574 269.064 -138.311 270.588 -139.801 275.633ZM-139.553 359.944C-141.589 358.799 -145.725 357.92 -147.052 355.966C-148.496 353.839 -147.728 349.739 -147.728 347.297L-147.728 325.971L-139.801 323.492C-138.785 326.931 -139.553 331.56 -139.553 335.146L-139.553 359.944Z" fill="#304A6E"/>
</svg>
