<svg width="81" height="72" viewBox="0 0 81 72" fill="none" xmlns="http://www.w3.org/2000/svg">
<rect width="81" height="72" fill="#1A1E26"/>
<rect x="-530" y="-521" width="980" height="753" rx="4" fill="white"/>
<path d="M80.8114 -248.027C79.8295 -252.937 78.4369 -257.408 74.8876 -261.127C68.1717 -268.166 56.7525 -268.021 50.2903 -260.673C45.6191 -255.361 43.9999 -247.925 45.3751 -241.084C46 -237.975 47.2332 -234.92 49.1818 -232.404C50.6142 -230.556 52.1432 -228.963 54.1825 -227.776C65.8526 -220.982 78.4265 -229.628 80.4792 -242.075C80.8047 -244.049 81.2142 -246.013 80.8114 -248.027ZM80.7629 -62.7906C79.3205 -68.5445 77.7675 -73.7854 72.7633 -77.5415C64.6093 -83.6619 53.6019 -80.8002 48.2591 -72.4616C44.9188 -67.2485 44.1236 -60.5349 45.6044 -54.6075C47.6007 -46.6172 54.4146 -39.5458 63.1013 -39.761C72.3856 -39.9911 78.8131 -47.7473 80.4234 -56.3433C80.8162 -58.44 81.297 -60.6601 80.7629 -62.7906ZM44.2728 -283.487L35.1063 -280.015L34.633 -287.951L34.1154 -291.918C22.2961 -267.691 27.3105 -240.551 21.2614 -215.046C20.0505 -209.941 17.4075 -205.508 14.9849 -200.912C11.3749 -194.064 8.03899 -187.049 4.66839 -180.082C3.11241 -176.866 1.0168 -173.576 -0.0507716 -170.163C-3.6417 -158.683 -2.79831 -145.352 -2.79831 -133.463C-2.79831 -118.534 -2.58888 -103.92 -1.10598 -89.0758C-0.265261 -80.66 0.923718 -71.7241 3.93835 -63.7825C8.88998 -50.7382 15.8998 -38.3413 20.2691 -25.0986C22.0331 -19.7521 22.3855 -13.9503 23.6815 -8.48438C24.9689 -3.0551 26.5772 5.84489 33.8676 3.91427L32.8767 -4.02085C35.4651 -4.65929 38.171 -4.77481 40.8044 -5.15644C41.6347 -5.27681 43.1597 -5.7939 43.8412 -5.11031C44.8482 -4.09999 44.596 -0.728856 45.017 0.69047C46.4502 5.52149 51.3374 7.68959 56.1645 5.86579C57.3233 5.42792 58.651 4.55538 59.186 3.39502C59.7261 2.22349 59.4209 0.819324 60.6508 0.0491429C62.5844 -1.16174 65.074 -0.969587 66.6219 -2.85312C68.2672 -4.85531 67.8084 -7.81224 67.8084 -10.2204V-27.3306C67.8084 -29.304 68.5095 -32.9075 67.6589 -34.6946C67.0526 -35.9684 62.4644 -36.5371 61.1193 -37.0491C56.5549 -38.7868 52.0607 -41.531 48.7745 -45.1847C40.9235 -53.9131 41.6345 -67.9689 49.4976 -76.4293C54.3031 -81.5998 61.0059 -84.4477 67.8084 -85.8523V-179.09L67.8084 -207.359C67.8084 -211.061 68.8104 -216.42 67.7296 -219.949C67.4152 -220.976 65.6987 -220.867 64.8355 -221.019C61.9812 -221.521 59.2412 -222.494 56.66 -223.787C49.8929 -227.176 44.9864 -233.303 43.6445 -240.836C40.7245 -257.227 51.9322 -269.532 67.8084 -271.584V-284.727C67.8084 -286.17 68.321 -288.854 67.5538 -290.117C66.1762 -292.386 61.7281 -293.211 59.666 -294.854C58.0345 -296.154 58.6466 -298.896 57.1132 -300.456C55.9522 -301.638 54.6035 -301.042 53.1916 -300.888C50.5071 -300.597 46.4068 -301.236 44.7035 -298.61C43.8385 -297.276 44.0251 -295.415 44.0251 -293.902C44.0251 -290.422 44.2728 -286.973 44.2728 -283.487ZM66.5697 -272.824L58.3942 -270.841L58.6419 -293.654C60.5682 -293.044 65.4983 -290.947 66.4873 -289.138C67.1452 -287.934 66.8174 -285.584 66.8174 -284.231C66.8174 -280.418 66.5697 -276.625 66.5697 -272.824ZM66.8174 -210.583L61.1193 -213.098L58.6674 -214.181L58.3942 -221.246L66.5697 -219.51L66.8174 -210.583ZM66.8174 -134.455L58.3942 -135.943C59.6849 -155.216 58.6419 -174.892 58.6419 -194.217C58.6419 -198.798 59.0012 -203.554 58.4649 -208.103C58.3594 -208.999 57.9134 -211.991 59.194 -212.194C60.0616 -212.332 61.2975 -211.721 62.1103 -211.447C63.5296 -210.968 65.5587 -210.227 66.3151 -208.825C66.894 -207.751 66.802 -205.6 66.8165 -204.384C66.8547 -201.161 66.8172 -197.936 66.8172 -194.713V-154.293C66.8172 -147.76 66.2426 -140.954 66.8174 -134.455ZM58.394 -90.3158L58.6417 -110.65L58.394 -134.207L58.6417 -134.455L66.5695 -132.967C66.5702 -123.484 66.8172 -113.954 66.8172 -104.45C66.8172 -101.572 67.8991 -95.9103 66.4594 -93.3604C65.614 -91.8631 60.0479 -90.4852 58.394 -90.3158ZM66.5695 -86.8442L58.394 -84.6124V-88.58L66.5695 -91.5557V-86.8442ZM58.6417 -0.0534504V-7.98862V-25.0988V-36.5056L66.5695 -34.0258V-12.7001C66.5695 -10.242 67.3276 -6.21742 66.005 -4.04435C64.6144 -1.75977 60.6575 -1.79579 58.6417 -0.0534504ZM57.8985 -274.808C52.5746 -274.343 49.6465 -269.991 45.2636 -267.865C45.2636 -275.15 45.2753 -282.434 45.2636 -289.687C45.2599 -291.89 44.4525 -296.182 45.7812 -298.049C47.1067 -299.911 50.5326 -299.195 52.4481 -299.401C53.4291 -299.506 54.4188 -299.955 55.4172 -299.793C56.2426 -299.659 56.7303 -299.094 57.0652 -298.362C58.5517 -295.112 57.936 -291.129 57.8994 -287.703C57.8551 -283.548 58.57 -278.883 57.8985 -274.808ZM57.8987 -217.278C39.9267 -221.541 33.4423 -245.436 41.005 -260.674C44.5201 -267.756 50.5224 -272.158 57.8987 -274.56C59.16 -269.415 53.741 -268.582 50.4664 -265.775C46.5205 -262.392 43.7723 -257.845 42.7034 -252.739C41.0454 -244.817 42.371 -235.861 47.4944 -229.429C49.3083 -227.152 51.4729 -225.326 53.9348 -223.782C55.0204 -223.102 57.1558 -222.501 57.8417 -221.391C58.4246 -220.448 58.1834 -218.286 57.8987 -217.278ZM58.1464 -214.055L44.7683 -215.79C45.3805 -218.365 45.3805 -222.143 44.7683 -224.717L49.9709 -220.608L58.1464 -216.534V-214.055ZM45.016 -137.431L45.016 -214.303L54.4303 -213.311L57.8597 -212.244L57.9208 -207.359L57.8987 -196.201L57.8987 -153.549V-140.902L57.8786 -136.349L54.678 -136.368L45.016 -137.431ZM45.016 -81.8844L45.016 -135.943L54.678 -135.012L57.8409 -134.305L57.9021 -131.479L57.8984 -124.288V-99.4906L57.9196 -93.2912L57.8702 -90.1712L53.6867 -87.7743L45.016 -81.8844ZM57.8983 -31.2978C34.5145 -37.6863 31.8403 -73.1268 51.457 -85.1549C53.4358 -86.3682 55.6262 -87.7868 57.8983 -88.3318C57.9904 -87.1637 58.5304 -85.5011 57.8917 -84.417C57.2599 -83.3452 55.4431 -82.7791 54.4301 -82.1129C52.2906 -80.7057 50.2441 -79.0764 48.5264 -77.1729C43.9222 -72.0711 41.8797 -65.6453 42.0466 -58.8229C42.2013 -52.5011 45.2704 -46.7814 49.7266 -42.4654C51.2705 -40.9702 53.0817 -39.6994 54.9256 -38.6014C55.8023 -38.0793 57.1036 -37.7045 57.7393 -36.8699C58.4153 -35.9826 58.2097 -32.3919 57.8983 -31.2978ZM45.0159 -38.985L50.9617 -34.1342L58.1463 -30.5539C56.7138 -22.8311 57.8859 -13.8627 57.8985 -6.0045C57.9022 -3.62715 59.1107 1.12544 57.749 3.15977C56.0199 5.74318 49.9328 5.50871 47.7739 3.59126C46.6277 2.5732 46.1666 0.651732 45.8706 -0.797053C44.7876 -6.09801 45.0159 -11.5376 45.0159 -16.9154V-38.985ZM44.5204 -215.79L31.1423 -214.426L21.4803 -211.575C26.1684 -229.128 25.1567 -247.493 27.6416 -265.385C28.3745 -270.662 29.4288 -275.907 30.964 -281.007C31.5875 -283.079 32.0946 -285.689 33.372 -287.454C34.0875 -285.032 34.351 -281.008 33.8675 -278.527C37.1644 -278.328 41.6929 -281.301 44.7682 -282.495L44.7682 -272.08C44.7682 -270.574 45.1158 -268.556 44.6223 -267.121C43.9652 -265.209 42.065 -263.506 41.1161 -261.665C38.8393 -257.248 37.6436 -252.254 37.5846 -247.283C37.5233 -242.13 38.2534 -236.888 40.386 -232.156C41.4266 -229.848 43.5735 -227.802 44.3746 -225.461C45.2934 -222.777 44.5204 -218.627 44.5204 -215.79ZM44.5204 -137.431L-1.55975 -134.207C-1.55975 -145.374 -2.26232 -157.551 0.673563 -168.427C1.54138 -171.642 3.34243 -174.634 4.81485 -177.602C7.22829 -182.468 9.57621 -187.371 12.0049 -192.233C14.1609 -196.549 16.2206 -200.934 18.6118 -205.127C19.4098 -206.527 19.9643 -208.786 21.2978 -209.751C27.3089 -214.101 37.4442 -214.302 44.5204 -214.302L44.5204 -137.431ZM44.3709 -135.587C44.9739 -134.398 44.5204 -132.051 44.5204 -130.735V-118.833L44.5204 -93.0432C44.5204 -89.474 45.4027 -84.561 44.3933 -81.1405C43.836 -79.252 41.9444 -77.67 41.0006 -75.933C39.3247 -72.8487 37.9949 -67.5626 34.6107 -65.9456C31.005 -64.2228 26.3866 -67.9854 23.71 -70.0138C18.2983 -74.1151 13.3883 -78.8249 8.59771 -83.6202C5.50141 -86.7196 1.88367 -90.3497 -0.142864 -94.2831C-1.36289 -96.6511 -0.861412 -99.8906 -1.10631 -102.466C-1.77374 -109.486 -1.80749 -116.486 -1.80749 -123.544V-130.239C-1.80722 -130.952 -2.00883 -132.2 -1.37584 -132.712C-0.451119 -133.461 2.46526 -133.171 3.64285 -133.225C7.91566 -133.419 12.2666 -133.595 16.5255 -134.001C23.6059 -134.675 30.7049 -135.931 37.8314 -135.943C39.1488 -135.943 43.6507 -137.007 44.3709 -135.587ZM31.6378 -5.26058L32.6288 2.92255C28.7659 2.92218 27.3937 0.152701 26.3329 -3.27677C24.5455 -9.05525 23.6735 -14.9752 22.4704 -20.8829C20.7209 -29.4733 16.3898 -37.4353 12.9145 -45.4323C6.38169 -60.4646 0.392362 -75.4181 -0.321033 -92.0514C2.81198 -89.631 5.40171 -85.409 8.12994 -82.4609C12.4581 -77.784 17.4365 -73.5372 22.4103 -69.5684C25.4012 -67.1819 30.718 -62.7553 34.8584 -64.7169C36.5438 -65.5153 37.433 -67.1356 38.5746 -68.4938C38.7693 -67.1822 38.1927 -65.8546 38.1013 -64.5263C37.854 -60.9329 37.739 -57.1798 38.4037 -53.6154C39.0424 -50.1906 40.2476 -47.0186 41.8585 -43.9445C42.5891 -42.5502 43.9498 -41.2321 44.3933 -39.7289C44.8929 -38.0357 44.5204 -35.7827 44.5204 -34.0255V-22.3708V-11.2119C44.5204 -10.1889 44.9322 -7.9884 44.2658 -7.14606C43.7163 -6.45153 41.6324 -6.57302 40.8043 -6.50048C37.806 -6.23766 34.5615 -5.96544 31.6378 -5.26058ZM38.6912 -36.7532C38.0579 -39.4946 34.6804 -41.0078 32.3917 -39.1352C30.7212 -37.7684 30.3544 -35.5308 30.9091 -33.5296C31.6728 -30.7741 35.0794 -29.5643 37.29 -31.4362C38.775 -32.6936 39.1122 -34.9307 38.6912 -36.7532ZM36.4087 -152.282C36.0805 -153.813 33.3635 -153.904 32.7783 -152.524C32.0469 -150.799 32.0469 -144.644 32.7783 -142.919C33.329 -141.62 35.8048 -141.607 36.3271 -142.941C36.6396 -143.74 36.3554 -144.778 36.3458 -145.613C36.3222 -147.667 36.8343 -150.297 36.4087 -152.282ZM36.4447 -83.5868C36.0153 -84.9937 33.4389 -85.1081 32.8127 -83.799C31.9424 -81.9796 32.6288 -78.4324 32.6288 -76.4287C32.6288 -75.6993 32.4625 -74.6978 32.7783 -74.0181C33.3678 -72.7488 35.8572 -72.9943 36.3332 -74.224C36.6602 -75.0685 36.3696 -76.0505 36.3485 -76.9246C36.3007 -78.9122 37.0167 -81.7127 36.4447 -83.5868ZM36.0972 -233.148C35.2822 -233.299 34.2057 -233.606 33.4508 -233.103C32.534 -232.493 32.5257 -229.087 33.2738 -228.338C35.2432 -226.367 36.0971 -229.274 36.0972 -230.668V-233.148ZM1.66092 -87.0913C1.70507 -81.7526 3.37521 -76.2965 4.91025 -71.221C7.81356 -61.6214 11.391 -52.8775 15.9662 -43.9439C18.262 -39.4608 20.234 -33.6726 23.4623 -29.8094C24.0755 -33.3785 23.71 -37.3416 23.71 -40.9682C23.71 -45.7235 24.0426 -50.6244 23.534 -55.3506C23.2603 -57.894 24.0137 -60.866 22.9456 -63.2858C22.0389 -65.34 20.0104 -67.078 18.5459 -68.7412C15.606 -72.0798 12.6628 -75.436 9.59825 -78.6602C7.14805 -81.238 4.74915 -85.321 1.66092 -87.0913ZM23.2146 -206.367C21.7613 -205.63 20.8267 -203.973 19.9308 -202.647C17.8842 -199.618 16.0619 -196.434 14.3159 -193.224C9.55519 -184.473 3.95088 -174.937 1.53094 -165.203C0.544024 -161.233 0.449383 -157.106 0.152478 -153.052C-0.14737 -148.958 -0.321016 -144.759 -0.321016 -140.654C-0.321016 -139.719 -0.74664 -137.339 0.076211 -136.693C1.13348 -135.863 5.06432 -136.756 6.36804 -136.934C11.9479 -137.699 17.6248 -137.715 23.2146 -138.422L23.2146 -206.367ZM22.9668 -132.222C17.7478 -130.979 11.4861 -131.456 6.12029 -131.221C4.97102 -131.17 0.887799 -131.478 0.181346 -130.585C-0.569167 -129.637 0.117279 -127.604 0.164697 -126.519C0.317334 -123.03 -0.0732887 -119.581 -0.0732887 -116.104C-0.0732887 -109.95 -1.06012 -102.152 1.01363 -96.2663C3.25042 -89.9183 9.78967 -84.5005 15.039 -80.6405C17.4771 -78.8477 20.2354 -75.9619 23.2145 -75.1885L23.2145 -114.12V-126.023L22.9668 -132.222ZM-38.9689 59.4611C-35.4333 58.6185 -31.2011 59.2131 -27.5727 59.2131H-5.27589C-2.31279 59.2131 1.24748 59.7507 4.13834 59.0818C8.76355 58.0117 7.39246 53.2062 8.7472 50.0746C9.26497 48.8777 10.8438 48.7887 11.3246 47.3104C11.8204 45.7863 11.7514 43.5547 11.0627 42.1029C10.6481 41.2291 9.53857 40.3979 9.5774 39.3752C9.65589 37.3076 11.8567 35.5193 12.0743 33.4238C12.3412 30.8551 9.03846 26.5303 7.91489 24.2489C7.50171 23.4099 7.09343 22.0529 6.27129 21.528C5.01027 20.7228 2.13057 21.2732 0.66994 21.2732H-13.4514H-66.9639H-82.5717C-84.0265 21.2732 -87.1488 20.6824 -88.3766 21.528C-89.2111 22.1027 -89.3921 23.6091 -89.7342 24.4968C-90.6316 26.8249 -93.3549 31.4509 -92.8434 33.9198C-92.4725 35.7101 -90.3887 37.4855 -90.3926 39.3044C-90.3941 40.1203 -91.3902 40.9139 -91.7582 41.607C-92.5021 43.0078 -92.7169 45.0233 -92.3495 46.5665C-91.9646 48.1828 -90.5176 48.6779 -89.8835 50.0488C-88.5075 53.0237 -88.9455 56.8393 -85.5446 58.6481C-82.8289 60.0924 -78.1435 59.2131 -75.1394 59.2131H-51.1083C-48.2958 59.2131 -43.3133 58.2381 -40.7398 59.3627C-39.6565 59.8361 -39.9599 61.4855 -39.9599 62.4367C-39.9599 64.129 -39.6217 66.2429 -40.0664 67.8824C-40.3938 69.0898 -41.6772 69.9388 -40.8719 71.3072C-40.1205 72.5839 -38.3738 71.9443 -38.1664 70.6187C-38.0106 69.6231 -38.7723 68.6475 -38.8416 67.6442C-39.0228 65.0209 -38.4206 61.985 -38.9689 59.4611ZM-19.3972 -326.634C-13.483 -326.634 -7.487 -326.527 -1.55975 -326.382C0.890931 -326.322 3.88653 -325.455 6.11646 -326.88C10.0107 -329.369 8.65259 -335.453 8.86877 -339.277C8.97712 -341.193 11.428 -342.541 11.744 -344.736C11.9453 -346.134 11.8104 -348.012 10.876 -349.144C10.3481 -349.783 9.34254 -349.967 8.99476 -350.743C7.6419 -353.761 8.81887 -357.652 5.12931 -359.501C3.44377 -360.346 0.777689 -359.862 -1.06426 -359.862H-14.6901H-63.7432H-78.6078C-80.6415 -359.862 -83.4503 -360.364 -85.2967 -359.386C-88.9346 -357.459 -88.1634 -353.731 -89.7629 -350.697C-90.8486 -348.637 -92.6742 -347.954 -92.4068 -345.232C-92.1659 -342.779 -89.9626 -341.241 -89.7707 -339.032C-89.4725 -335.602 -90.6444 -331.215 -88.6465 -328.144C-86.3031 -324.542 -78.1568 -326.138 -74.3961 -326.138C-70.6628 -326.138 -65.3679 -325.158 -61.798 -326.217C-60.4472 -326.617 -61.0214 -328.73 -59.28 -329.057C-56.8763 -329.509 -54.0491 -329.113 -51.6038 -329.113H-36.2437H-23.6089C-21.7074 -329.113 -19.7407 -328.855 -19.3972 -326.634ZM-2.05524 31.1922L5.37705 22.7611H5.87254C7.76287 26.7542 11.8893 31.6086 9.77602 35.9037C8.99345 37.4942 8.42697 39.9079 6.14245 39.2965C5.06359 39.0077 4.16455 37.6935 3.44081 36.9053C1.66601 34.9723 -0.0705846 32.9105 -2.05524 31.1922ZM10.4944 -346.967C10.8754 -345.119 10.324 -342.4 8.34901 -341.662C7.01525 -341.163 5.05244 -341.512 3.64285 -341.512C-0.0855966 -341.512 -4.05524 -341.878 -7.75332 -341.441C-14.6201 -340.63 -21.8944 -341.264 -28.8115 -341.264H-68.9458C-72.555 -341.264 -76.246 -341.489 -79.8465 -341.242C-82.5104 -341.059 -86.1129 -340.37 -88.7232 -341.095C-90.1675 -341.496 -90.9701 -343.391 -91.1681 -344.736C-91.3564 -346.015 -91.2535 -347.739 -89.9779 -348.449C-88.736 -349.139 -86.435 -348.703 -85.0491 -348.703H-73.1574H-11.9649H5.12931C6.96666 -348.703 9.99951 -349.367 10.4944 -346.967ZM10.4858 44.8307C10.5487 45.8564 10.3533 47.4002 9.29409 47.8702C7.91504 48.4822 5.62611 48.0543 4.13833 48.0543H-8.00108H-69.1936H-86.0401C-88.0304 48.0543 -91.0033 48.5578 -91.2283 45.8225C-91.3669 44.138 -91.1594 41.8204 -89.4853 40.9075C-88.1962 40.2044 -85.9816 40.6151 -84.5536 40.6151H-72.9097H-11.4695H1.41317C3.35234 40.6151 5.72015 40.248 7.60674 40.719C9.46627 41.1832 10.3764 43.0478 10.4858 44.8307ZM7.85449 -350.191H-57.3019H-77.8645L-88.2697 -349.943C-88.9468 -352.627 -87.0182 -357.396 -84.3049 -358.347C-82.6516 -358.927 -80.5838 -358.622 -78.8555 -358.622H-68.2024H-12.9558H0.174598C1.9633 -358.622 4.16408 -358.917 5.57829 -357.574C7.63345 -355.622 7.26016 -352.69 7.85449 -350.191ZM3.643 -327.378L3.39526 -340.024H7.60688C7.93634 -335.846 8.98364 -328.621 3.643 -327.378ZM-88.7651 49.5421L-88.5173 49.2942L-74.6437 49.5421H-48.383H-12.4603L7.35915 49.2942C8.00908 51.6602 7.11202 56.3854 4.6118 57.475C3.15708 58.1089 0.989749 57.7228 -0.568631 57.7253H-11.7171H-68.9456C-72.652 57.7253 -76.3914 57.5809 -80.0941 57.7438C-81.999 57.8276 -84.1955 58.1834 -85.7815 56.8835C-87.8148 55.217 -88.2926 51.9794 -88.7651 49.5421ZM4.88172 22.761L-2.30283 30.4482H-2.79832L-9.73511 22.761L0.174598 22.5129L4.88172 22.761ZM4.88172 39.3752H-10.2306C-8.69504 36.4918 -4.95974 33.0654 -2.30283 31.1921L4.88172 39.3752ZM-84.8012 -315.723V-307.044H-61.7611H-14.69H-1.5596L3.24577 -307.13L3.643 -309.028L3.49351 -315.358L-1.5596 -315.723H-17.6629H-84.8012ZM3.39526 -289.19C-4.16267 -290.615 -11.8369 -291.403 -19.3971 -292.814C-21.1588 -293.143 -22.4335 -294.724 -24.1042 -294.964C-28.3202 -295.568 -33.2017 -294.893 -37.4823 -294.893C-43.8254 -294.893 -50.4927 -295.496 -56.8063 -294.867C-58.6041 -294.688 -59.9802 -293.216 -61.7611 -292.827C-68.9723 -291.25 -77.1912 -289.263 -84.5534 -288.942L-84.5534 -237.611C-84.5534 -229.214 -85.3045 -220.427 -84.5277 -212.07C-84.261 -209.202 -83.1259 -206.272 -82.5761 -203.433C-80.6266 -193.364 -77.9442 -183.364 -76.3082 -173.243C-75.3503 -167.317 -75.6393 -161.025 -75.3772 -155.036C-74.9289 -144.789 -74.5944 -134.563 -74.6439 -124.287C-74.7131 -109.945 -74.5617 -95.1684 -75.9245 -80.8918C-77.6804 -62.4984 -82.9228 -44.4701 -84.759 -26.0897C-85.7534 -16.135 -84.8012 -5.59813 -84.8012 4.4111C-77.0131 5.41769 -69.3476 7.32971 -61.5133 8.08859C-54.7076 8.74785 -47.5428 8.13099 -40.703 8.13099C-33.2685 8.13099 -25.547 8.71593 -18.1584 7.92417C-12.9134 7.36214 -7.72559 6.58638 -2.55055 5.55211C-1.10618 5.26347 1.90764 5.26504 2.99193 4.19885C3.86029 3.34498 3.39527 0.357171 3.39527 -0.796054V-15.1785C3.39527 -36.073 -2.11881 -57.0275 -5.17137 -77.6678C-5.928 -82.7841 -5.80346 -87.8935 -6.02871 -93.0422C-6.54202 -104.776 -6.74329 -116.487 -6.76219 -128.254C-6.77995 -139.307 -6.79719 -150.433 -6.04112 -161.483C-5.76039 -165.586 -6.0788 -169.805 -5.45006 -173.882C-3.92622 -183.761 -0.818697 -193.656 1.47144 -203.39C2.06308 -205.905 3.04247 -208.517 3.34958 -211.078C4.18687 -218.059 3.39529 -225.616 3.39529 -232.651C3.39529 -251.425 2.50618 -270.443 3.39526 -289.19ZM2.8998 -327.377L0.174626 -327.625V-327.873H2.65206V-339.776H-8.24863L0.174626 -340.272L2.82219 -339.697L2.8998 -336.056V-327.377ZM-84.3057 -307.539V-315.227H3.14751C3.14751 -313.581 3.92511 -309.241 2.89289 -307.937C2.1361 -306.98 -1.18156 -307.539 -2.30283 -307.539H-18.1584H-84.3057ZM2.73805 -355.394C1.81304 -358.255 -6.89469 -357.845 -5.62919 -353.415C-4.7301 -350.268 4.28678 -350.604 2.73805 -355.394ZM2.42129 -345.714C2.00083 -347.266 -0.224733 -346.532 0.328861 -344.998C0.847998 -343.559 2.79994 -344.316 2.42129 -345.714ZM2.46812 52.7771C1.91045 51.4073 0.412911 51.5268 -0.816381 51.5264C-3.30099 51.5256 -7.08686 51.7999 -5.58733 55.483C-4.99792 56.9308 -3.33687 56.7337 -2.05509 56.7338C0.453273 56.7339 3.93724 56.3855 2.46812 52.7771ZM2.29665 -354.899C3.25876 -351.443 -4.56207 -351.432 -5.16736 -353.668C-6.12282 -357.199 1.6642 -357.171 2.29665 -354.899ZM2.21924 44.1428C1.56647 42.6835 -0.192991 43.9951 0.327908 45.2893C0.931372 46.7886 2.83112 45.5107 2.21924 44.1428ZM2.27735 53.7581C2.85791 57.1794 -4.76428 57.2588 -5.21897 54.745C-5.86087 51.1963 1.85487 51.2685 2.27735 53.7581ZM2.15653 -212.319H1.90879L-13.7472 -263.153L-19.6104 -282.247L-22.6177 -292.414C-17.2022 -290.294 -10.5419 -289.971 -4.78026 -289.158C-3.35609 -288.957 0.993789 -288.958 1.90191 -287.801C2.70981 -286.772 2.15653 -283.762 2.15653 -282.495V-268.113V-212.319ZM2.0491 -25.6204C1.9967 -24.3 -0.307027 -23.3291 -1.31186 -22.775C-5.08307 -20.6955 -9.00349 -19.2202 -13.2035 -18.2981C-22.4886 -16.2597 -32.4828 -17.1635 -41.9417 -17.1635C-49.7878 -17.1635 -58.2625 -16.3205 -65.9727 -18.0127C-70.6554 -19.0403 -75.3181 -20.4464 -79.5986 -22.6456C-80.9421 -23.3359 -83.492 -24.0438 -83.5258 -25.8435C-83.597 -29.6447 -82.2898 -33.7544 -81.6891 -37.4973C-80.1908 -46.8347 -78.5655 -56.1615 -77.1885 -65.5183C-76.7009 -68.8308 -76.0942 -72.1199 -75.6347 -75.4372C-75.4945 -76.4495 -75.4859 -78.6995 -74.7076 -79.4203C-73.8973 -80.1707 -71.9774 -80.306 -70.9276 -80.5395C-67.7412 -81.2478 -64.5062 -82.0307 -61.2656 -82.419C-55.0379 -83.1653 -48.7062 -82.8764 -42.4372 -82.8764C-35.6774 -82.8764 -28.8581 -83.1233 -22.1223 -82.6506C-18.2181 -82.3767 -14.5228 -81.457 -10.7261 -80.559C-9.60229 -80.2932 -7.54889 -80.2915 -6.80293 -79.2784C-6.07795 -78.2937 -6.14269 -76.3673 -5.92262 -75.1893C-5.26345 -71.6606 -4.76406 -68.0734 -4.21673 -64.5264C-2.85135 -55.6779 -1.44466 -46.8228 0.0346641 -37.9932C0.682915 -34.124 2.20442 -29.5354 2.0491 -25.6204ZM-83.5625 3.41835C-84.7969 -3.23713 -83.8102 -10.8898 -83.8102 -17.6594C-83.8102 -19.6434 -83.4341 -21.9296 -83.8102 -23.8588C-81.4524 -24.0164 -78.1277 -21.3782 -75.8825 -20.4864C-70.7455 -18.4461 -65.5145 -17.2324 -60.0269 -16.7096C-52.0841 -15.953 -43.7299 -16.6672 -35.7481 -16.6672C-28.9454 -16.6672 -21.6345 -15.946 -14.9377 -17.3283C-11.1993 -18.0999 -7.48593 -19.1753 -4.03703 -20.8292C-2.01548 -21.7986 0.0146598 -23.5504 2.15653 -24.1064V-4.26856C2.15653 -2.6207 2.92683 1.67185 1.90191 2.99023C1.03496 4.10536 -2.22691 4.09787 -3.54155 4.36099C-8.98876 5.45128 -14.5821 6.50929 -20.1403 6.64594C-32.7933 6.9569 -45.8904 7.73533 -58.5405 6.86807C-66.9162 6.29391 -75.2219 3.77692 -83.5625 3.41835ZM1.16557 -212.566C-5.99558 -215.191 -12.059 -220.4 -19.6448 -222.227C-25.1748 -223.559 -31.5734 -222.733 -37.2346 -222.733C-45.7366 -222.733 -55.5343 -224.091 -63.7431 -221.633C-70.6718 -219.557 -76.2882 -215.067 -82.8193 -212.318C-81.9472 -218.769 -78.7171 -225.724 -76.6444 -231.908C-72.3998 -244.573 -68.6687 -257.412 -64.4861 -270.096C-62.6654 -275.618 -60.8726 -281.15 -59.1759 -286.71C-58.479 -288.994 -57.4033 -291.287 -57.054 -293.654H-42.4372C-42.4994 -292.225 -43.8768 -289.723 -43.2268 -288.456C-41.5014 -285.092 -36.4082 -284.619 -35.1775 -288.704C-34.7947 -289.974 -35.8519 -292.18 -36.2436 -293.406L-26.8294 -293.654L-23.5726 -293.079L-21.254 -285.966L-16.0713 -269.104L-3.85848 -229.429L1.16557 -212.566ZM-1.06411 -213.062C-5.46242 -213.501 -9.73887 -215.315 -14.1945 -215.748C-20.7685 -216.387 -27.418 -215.88 -34.0139 -216.042C-44.3697 -216.295 -55.1566 -217.26 -65.4773 -216.244C-70.6488 -215.735 -75.5581 -213.969 -80.5896 -212.814V-213.062C-74.1359 -217.016 -66.8334 -220.934 -59.2837 -222.157C-51.9935 -223.338 -43.6358 -222.237 -36.2436 -222.237C-31.5827 -222.237 -26.4875 -222.821 -21.8745 -222.163C-17.3264 -221.514 -13.1049 -219.259 -8.99188 -217.354C-6.39718 -216.153 -3.27032 -214.892 -1.06411 -213.062ZM-10.4783 38.3829L-10.4783 23.2565L-4.78025 28.712L-3.27431 30.9437L-5.028 33.1754L-10.4783 38.3829ZM-3.64667 -46.672C-4.6663 -54.4447 -6.1318 -62.1131 -8.03226 -69.7336C-8.5047 -71.628 -8.69122 -76.1116 -10.1314 -77.4562C-10.949 -78.2195 -12.8841 -78.296 -13.9467 -78.5118C-17.1343 -79.1588 -20.3368 -79.8992 -23.6087 -79.9004H-57.3017C-60.715 -79.9004 -64.1037 -79.3716 -67.4592 -78.7658C-68.487 -78.5803 -70.4555 -78.6032 -71.1916 -77.7707C-71.8909 -76.9797 -71.9615 -75.4381 -72.1671 -74.4451C-72.6818 -71.9582 -73.3023 -69.4817 -73.8711 -67.0059C-75.8853 -58.2382 -77.6167 -49.4855 -77.6167 -40.4726C-77.6167 -38.174 -77.9651 -35.5616 -77.5799 -33.296C-77.2931 -31.609 -73.4287 -32.5375 -72.1663 -32.5375H-54.8243H-16.4242C-13.2887 -32.5375 -10.1445 -32.6067 -7.00994 -32.5375C-6.16575 -32.5182 -4.43312 -31.97 -3.79617 -32.7313C-3.15527 -33.4974 -3.54154 -35.5654 -3.54154 -36.5087C-3.54154 -39.8407 -3.21316 -43.3708 -3.64667 -46.6757M-6.7622 -81.144L-22.1222 -84.1099L-43.6759 -84.1196L-59.0359 -84.0772L-74.8915 -81.1436L-74.3862 -90.5667L-73.8996 -108.669L-73.6625 -145.369L-75.1392 -173.142L-61.2656 -175.103L-43.1804 -175.126L-20.6358 -175.116L-6.7622 -173.142L-7.99728 -141.153L-7.50906 -104.701L-6.7622 -81.144ZM-8.99188 -339.78H-10.2306V-340.028L-8.99188 -339.78ZM-10.7261 -338.292H-70.9276V-339.78L-10.7261 -340.028V-338.292ZM-10.8767 -337.222C-10.0953 -335.562 -12.2208 -335.565 -13.2035 -335.565H-22.8655H-59.2837H-67.9547C-68.7397 -335.565 -70.3156 -335.266 -70.7425 -336.139C-71.4938 -337.676 -69.6881 -337.794 -68.6979 -337.796H-60.0269H-23.8565H-14.1945C-13.3487 -337.796 -11.3238 -338.171 -10.8767 -337.222ZM-70.9276 -335.069H-10.7261L-11.1233 -333.092L-14.1945 -332.837H-21.8745H-58.2927H-67.2115L-70.5304 -333.092L-70.9276 -335.069ZM-10.7261 -327.878H-18.4061C-19.7501 -331.276 -24.1271 -330.605 -27.0771 -330.605H-52.8424C-55.9486 -330.605 -61.2633 -331.749 -62.0089 -327.63L-70.6799 -327.382C-70.9554 -328.315 -71.4363 -331.391 -70.5277 -332.09C-69.7866 -332.66 -68.0941 -332.341 -67.2115 -332.341H-58.7882H-22.37H-13.9467C-13.1661 -332.341 -11.534 -332.643 -10.9807 -331.943C-10.3118 -331.098 -10.7261 -328.911 -10.7261 -327.878ZM-11.4693 27.7165C-14.837 28.7129 -19.3527 27.9645 -22.8655 27.9645C-22.9018 24.8959 -27.0142 25.9807 -29.3068 25.9807H-50.6127C-52.9975 25.9807 -58.0073 24.7811 -58.045 27.9645H-70.1844L-69.9297 22.9067L-66.2205 22.509H-55.8153H-11.7171L-11.4693 27.7165ZM-11.4693 35.8997H-25.5907H-54.0811L-69.9366 36.1476L-70.1844 28.4604H-58.045C-57.8402 31.1468 -53.5876 30.1963 -51.6037 30.1963H-30.2978C-28.2192 30.1963 -23.0784 31.2541 -22.8655 28.4604H-14.69L-11.7239 28.8581L-11.4693 35.8997ZM-11.4693 39.1233L-17.9106 39.3713H-30.05H-70.1844V36.6436H-25.3429H-15.4332L-11.8667 36.8984L-11.4693 39.1233ZM-19.5022 -152.808C-19.9198 -155.953 -20.8907 -158.851 -23.8565 -160.487C-26.3052 -161.837 -29.0903 -161.487 -31.7842 -161.487L-46.6488 -161.487C-50.4303 -161.487 -55.5291 -162.417 -58.7882 -160.089C-63.1574 -156.968 -62.5043 -151.314 -62.5043 -146.609C-62.5043 -144.662 -62.7055 -142.587 -62.43 -140.658C-60.892 -129.883 -48.6844 -132.474 -40.703 -132.474C-35.9773 -132.474 -28.6836 -131.107 -24.3519 -133.159C-17.9458 -136.194 -18.7173 -146.897 -19.5022 -152.808ZM-19.9633 -152.808C-19.2896 -147.17 -18.404 -136.85 -24.3519 -133.843C-28.773 -131.607 -36.0952 -132.97 -40.9507 -132.97C-47.4356 -132.97 -60.489 -130.445 -61.7164 -139.666C-62.4655 -145.294 -63.7777 -156.161 -58.2506 -159.694C-55.045 -161.742 -50.5173 -160.991 -46.8965 -160.991H-33.5184C-26.9493 -160.991 -20.9137 -160.762 -19.9633 -152.808ZM-23.6087 29.7003H-57.3017L-57.5495 26.7247L-46.6488 26.4767H-23.6087V29.7003ZM-25.8455 -346.291C-26.7711 -347.426 -28.4209 -345.698 -27.4229 -344.604C-26.4016 -343.485 -25.0583 -345.325 -25.8455 -346.291ZM-25.7784 44.1396C-26.3997 42.702 -28.3978 43.9752 -27.7527 45.2861C-27.0273 46.7601 -25.1876 45.5067 -25.7784 44.1396ZM-34.2617 -101.23C-36.862 -99.9615 -39.122 -96.199 -41.0214 -94.0384C-41.9292 -93.0059 -42.9003 -92.2045 -43.1804 -90.8148L-37.4814 -97.1569L-34.2617 -101.23ZM-41.1985 -293.161H-37.2346C-36.944 -291.893 -35.9151 -289.926 -36.6506 -288.701C-37.9677 -286.507 -41.2468 -286.397 -41.9969 -289.197C-42.3098 -290.365 -41.46 -292.019 -41.1985 -293.161ZM-53.5774 -345.483C-53.6652 -346.907 -55.7419 -346.964 -55.7419 -345.483C-55.7419 -343.9 -53.4765 -343.847 -53.5774 -345.483ZM-53.7733 44.1394C-54.4052 42.6714 -56.4114 43.9247 -55.7256 45.2859C-54.9863 46.7535 -53.1894 45.4959 -53.7733 44.1394ZM-57.5495 -292.665L-60.7772 -282.994L-66.6527 -264.644L-83.067 -213.314H-83.3147L-83.3147 -266.628V-281.259C-83.3147 -282.876 -83.9014 -285.898 -83.1652 -287.35C-82.5792 -288.507 -78.5699 -288.551 -77.3689 -288.76C-72.2526 -289.649 -67.1488 -290.714 -62.0089 -291.458C-60.6144 -291.66 -58.8473 -293.02 -57.5495 -292.665ZM-71.1753 38.8753C-73.5809 37.7525 -75.2765 35.0252 -77.1212 33.1719C-77.6816 32.6089 -78.7857 31.8186 -78.8078 30.9412C-78.8307 30.0305 -77.6419 29.1801 -77.069 28.5971C-75.3995 26.8983 -73.4697 23.7428 -71.1753 23.005V38.8753ZM-71.4231 -327.63L-83.5625 -327.382C-84.5579 -330.752 -83.8102 -335.272 -83.8102 -338.788H-83.5625V-327.878C-80.1466 -327.878 -74.5575 -328.946 -71.4231 -327.63ZM-72.1663 23.005C-74.4521 25.293 -76.9003 29.0691 -79.8463 30.4443L-86.7831 22.7571L-76.1302 22.509L-72.1663 23.005ZM-72.1663 39.3713H-87.0309C-85.9668 37.0875 -81.561 32.1266 -79.1031 31.4361L-72.1663 39.3713ZM-75.7974 -355.154C-76.7372 -358.234 -85.6253 -357.959 -84.2465 -353.42C-83.3011 -350.308 -74.4487 -350.734 -75.7974 -355.154ZM-76.0664 53.011C-77.205 50.0712 -85.9457 50.6669 -84.3418 55.237C-83.3231 58.1397 -74.2679 57.6542 -76.0664 53.011ZM-76.3628 -353.672C-76.7886 -351.529 -84.4319 -351.3 -83.7535 -354.896C-83.321 -357.188 -75.6582 -357.218 -76.3628 -353.672ZM-76.5054 53.2723C-75.2452 57.1758 -83.1299 57.2879 -83.8551 54.9792C-85.0307 51.2371 -77.1384 51.3118 -76.5054 53.2723ZM-115.274 -291.921H-115.521L-116.512 -280.019C-118.638 -281.23 -123.884 -281.971 -125.176 -284.054C-125.84 -285.124 -125.244 -286.795 -125.193 -287.954C-125.065 -290.882 -124.301 -295.99 -125.779 -298.593C-127.32 -301.31 -131.751 -300.552 -134.35 -300.923C-135.649 -301.108 -136.826 -301.518 -137.991 -300.631C-139.56 -299.435 -139.902 -296.732 -140.048 -294.897L-146.737 -291.511L-148.817 -289.857L-148.967 -284.482V-271.588C-133.786 -269.657 -122.063 -258.045 -124.549 -242.079C-125.775 -234.203 -130.189 -227.695 -137.323 -224.004C-140.117 -222.558 -142.942 -221.718 -145.994 -221.031C-146.851 -220.837 -148.575 -220.974 -148.888 -219.952C-149.969 -216.424 -148.967 -211.064 -148.967 -207.362V-179.093V-85.8553C-141.852 -84.3855 -135.121 -81.4313 -130.18 -75.9364C-122.824 -67.754 -122.03 -54.0053 -129.523 -45.6128C-133.047 -41.6657 -137.389 -38.9776 -142.278 -37.0549C-143.618 -36.5276 -148.203 -35.965 -148.817 -34.6949C-149.83 -32.6017 -148.827 -28.5928 -148.729 -26.3417C-148.441 -19.772 -149.555 -13.0203 -148.925 -6.50382C-148.692 -4.1023 -147.83 -2.27642 -145.498 -1.30114C-144.197 -0.756742 -142.433 -0.644122 -141.365 0.35236C-139.752 1.85739 -140.488 4.18022 -138.066 5.50856C-135.365 6.98956 -129.572 6.75878 -127.571 4.14561C-125.701 1.7031 -125.245 -2.52905 -125.183 -5.51187L-114.035 -4.02403L-115.026 3.66311C-107.809 7.70922 -105.482 -5.45429 -104.459 -9.9754C-103.319 -15.021 -103.014 -20.459 -101.291 -25.3498C-95.6728 -41.2985 -86.0194 -56.0409 -82.5708 -72.7128C-78.3465 -93.1341 -78.328 -113.499 -78.3599 -134.21C-78.3777 -145.788 -77.4793 -158.722 -80.9453 -169.918C-81.9296 -173.098 -83.8553 -176.097 -85.2906 -179.093C-88.31 -185.396 -91.2781 -191.757 -94.537 -197.939C-97.8318 -204.19 -101.237 -210.074 -102.781 -217.033C-108.22 -241.545 -102.793 -269.113 -115.274 -291.921ZM-125.679 -137.682L-125.431 -146.361V-162.479V-214.306C-119.722 -214.306 -114.086 -213.79 -108.585 -212.179C-106.504 -211.57 -103.933 -210.997 -102.211 -209.603C-101.064 -208.673 -100.515 -206.669 -99.8495 -205.379C-98.268 -202.312 -96.5986 -199.291 -95.0573 -196.204C-92.4203 -190.921 -89.8493 -185.612 -87.2121 -180.333C-85.4567 -176.819 -83.2283 -173.176 -82.0483 -169.422C-80.9096 -165.8 -80.6555 -162.006 -80.2998 -158.264C-79.7488 -152.468 -79.7371 -146.724 -79.595 -140.905C-79.5591 -139.436 -78.6042 -135.844 -79.6063 -134.608C-80.1452 -133.943 -81.5958 -134.429 -82.3238 -134.455C-84.966 -134.552 -87.6111 -134.828 -90.2516 -134.944C-98.3135 -135.298 -106.256 -136.379 -114.283 -137.144C-117.891 -137.488 -122.215 -136.657 -125.679 -137.682ZM-125.679 -135.946C-122.719 -136.651 -119.268 -135.926 -116.265 -135.72C-108.285 -135.173 -100.236 -133.766 -92.2335 -133.714C-89.1525 -133.694 -85.881 -133.509 -82.8193 -133.147C-82.0252 -133.054 -80.4162 -133.229 -79.7825 -132.715C-79.0687 -132.137 -79.3509 -130.551 -79.3509 -129.747V-121.812C-79.3509 -116.077 -79.5867 -110.413 -79.8366 -104.701C-79.9648 -101.771 -79.5585 -97.8013 -80.5445 -95.0304C-81.3929 -92.646 -83.5443 -90.4752 -85.1549 -88.5831C-91.289 -81.3765 -98.4485 -74.5959 -106.107 -69.0309C-108.754 -67.1075 -113.271 -64.0235 -116.509 -66.3919C-119.4 -68.5065 -120.723 -73.3709 -122.401 -76.4324C-123.249 -77.9792 -125.02 -79.4719 -125.51 -81.1475C-125.874 -82.3945 -125.431 -84.0589 -125.431 -85.3594V-95.5263V-122.555C-125.431 -126.793 -124.697 -131.82 -125.679 -135.946ZM-89.0129 39.3713L-91.5895 33.6679L-90.5783 30.1963L-87.7741 22.7571C-85.6799 24.2336 -84.1262 26.4069 -82.3238 28.2125C-81.6909 28.8465 -80.4354 29.7327 -80.3223 30.6922C-80.2109 31.6374 -81.4347 32.5375 -82.0017 33.1488C-83.8055 35.0934 -86.2996 38.9523 -89.0129 39.3713ZM-104.373 -206.37V-138.426L-80.8373 -136.442C-80.8373 -146.111 -80.4236 -156.507 -82.7933 -165.951C-84.939 -174.502 -89.9747 -183.041 -94.139 -190.748C-96.1769 -194.52 -98.1831 -198.314 -100.532 -201.907C-101.573 -203.499 -102.665 -205.438 -104.373 -206.37ZM-113.787 2.91919C-113.567 1.17953 -112.109 -3.44565 -113.054 -4.93713C-113.612 -5.81719 -115.593 -5.68789 -116.512 -5.79836C-119.571 -6.16593 -122.623 -6.61317 -125.679 -6.99971L-125.679 -28.8214C-125.679 -32.1788 -126.307 -36.2444 -125.584 -39.5264C-125.025 -42.0658 -122.351 -44.6517 -121.332 -47.1714C-118.671 -53.7456 -118.21 -61.6492 -119.981 -68.4972C-117.965 -67.3532 -117.434 -64.8292 -114.778 -64.3632C-110.6 -63.6299 -106.39 -67.3467 -103.382 -69.7364C-98.3765 -73.7132 -93.3877 -77.9284 -89.0513 -82.6414C-86.6085 -85.2964 -83.8974 -90.0069 -80.8373 -91.8067C-81.1853 -74.9372 -87.9164 -59.6368 -94.4313 -44.4438C-97.8822 -36.396 -102.106 -28.5622 -103.726 -19.8944C-104.843 -13.9183 -105.736 -7.76782 -107.855 -2.0403C-108.912 0.817624 -110.473 3.31064 -113.787 2.91919ZM-104.373 -131.978V-75.1925C-101.122 -75.84 -97.7355 -79.3635 -95.2064 -81.3918C-90.412 -85.237 -84.5954 -89.883 -82.2645 -95.7743C-79.9097 -101.726 -81.0851 -109.824 -81.0851 -116.108C-81.0851 -119.5 -81.3264 -122.892 -81.2055 -126.271C-81.166 -127.376 -80.6101 -129.667 -81.3397 -130.589C-82.0371 -131.47 -86.1439 -131.203 -87.2787 -131.231C-92.9823 -131.373 -98.6586 -131.978 -104.373 -131.978ZM-81.8354 -346.149C-82.6737 -347.405 -84.2435 -345.961 -83.5545 -344.778C-82.7201 -343.344 -81.0152 -344.92 -81.8354 -346.149ZM-81.8398 44.1197C-82.6642 42.6247 -84.5112 44.1828 -83.6933 45.4918C-82.8792 46.7949 -81.1707 45.3332 -81.8398 44.1197ZM-82.8194 -87.0952C-84.7486 -85.9665 -86.2594 -83.5217 -87.7803 -81.8878C-91.5755 -77.8107 -95.3214 -73.6791 -98.9932 -69.4891C-100.647 -67.602 -103.496 -65.2401 -104.247 -62.7938C-105.26 -59.4947 -104.621 -55.2979 -104.621 -51.883V-30.0613C-103.277 -31.2172 -102.617 -33.206 -101.829 -34.7728C-100.49 -37.4336 -99.0806 -40.0866 -97.664 -42.7079C-92.5888 -52.0998 -88.664 -61.7046 -85.7575 -71.9688C-84.3709 -76.8654 -82.8194 -81.9827 -82.8194 -87.0952ZM-88.5174 -339.78C-87.5684 -339.78 -85.2136 -340.208 -84.5604 -339.383C-84.0799 -338.775 -84.3058 -337.526 -84.3058 -336.805V-330.357C-84.3058 -329.649 -84.0745 -328.372 -84.5604 -327.783C-85.2228 -326.98 -86.6963 -327.907 -87.2258 -328.429C-88.7979 -329.979 -88.5174 -332.56 -88.5174 -334.573V-339.78ZM-102.639 -211.33C-108.059 -213.556 -113.428 -214.784 -119.238 -215.475C-121.347 -215.726 -123.636 -215.395 -125.679 -215.793C-124.949 -218.863 -126.369 -222.549 -125.466 -225.464C-124.794 -227.637 -122.693 -229.55 -121.722 -231.664C-119.224 -237.104 -118.357 -243.064 -118.764 -249.022C-119.052 -253.227 -120.008 -257.692 -122.04 -261.421C-123.08 -263.328 -125.027 -265.109 -125.746 -267.124C-126.262 -268.569 -125.927 -270.565 -125.927 -272.084V-282.25L-115.026 -278.531L-114.778 -287.458L-112.584 -282.746L-109.266 -268.612L-106.065 -233.152L-104.469 -219.513L-102.639 -211.33ZM-114.042 -152.882C-114.785 -153.866 -116.874 -153.659 -117.354 -152.527C-118.164 -150.616 -117.503 -147.189 -117.503 -145.121C-117.503 -144.388 -117.72 -143.192 -117.249 -142.568C-116.506 -141.584 -114.416 -141.791 -113.937 -142.922C-113.127 -144.833 -113.787 -148.26 -113.787 -150.328C-113.787 -151.061 -113.571 -152.258 -114.042 -152.882ZM-114.042 -84.0129C-114.706 -84.993 -116.855 -84.9285 -117.354 -83.8151C-118.209 -81.9059 -117.503 -78.271 -117.503 -76.1843C-117.503 -75.4732 -117.676 -74.4331 -117.249 -73.8122C-116.618 -72.8944 -114.408 -72.9632 -113.937 -74.0093C-113.079 -75.9129 -113.787 -79.5574 -113.787 -81.6398C-113.787 -82.3549 -113.617 -83.3868 -114.042 -84.0129ZM-114.035 -233.152C-114.85 -233.303 -115.927 -233.61 -116.682 -233.107C-117.577 -232.511 -117.599 -229.145 -116.964 -228.341C-115.204 -226.117 -114.035 -229.39 -114.035 -230.672V-233.152ZM-139.057 -217.281C-139.057 -218.425 -139.48 -220.616 -138.803 -221.587C-137.956 -222.799 -135.359 -223.573 -134.102 -224.397C-131.546 -226.073 -129.146 -228.348 -127.473 -230.92C-121.548 -240.027 -121.394 -253.738 -128.284 -262.412C-131.256 -266.154 -135.138 -268.453 -139.305 -270.595L-139.057 -274.563C-131.404 -272.389 -125.091 -267.25 -121.792 -259.932C-114.916 -244.675 -121.151 -221.429 -139.057 -217.281ZM-139.057 -31.3009C-139.057 -32.79 -139.545 -35.3019 -138.908 -36.6595C-138.455 -37.624 -136.711 -38.1905 -135.836 -38.7056C-133.959 -39.8111 -132.192 -41.1899 -130.634 -42.7113C-126.346 -46.8982 -123.231 -52.4345 -123.202 -58.578C-123.168 -65.6466 -124.834 -71.7431 -129.578 -77.1536C-131.23 -79.0377 -133.225 -80.6555 -135.341 -81.9891C-136.343 -82.6207 -138.154 -83.1946 -138.803 -84.2159C-139.436 -85.214 -139.057 -87.1895 -139.057 -88.3348C-136.502 -87.7275 -134.041 -86.1382 -131.873 -84.6976C-113.064 -72.2014 -115.836 -37.5292 -139.057 -31.3009ZM-126.074 -246.294C-126.272 -251.783 -128.207 -257.433 -132.162 -261.378C-139.655 -268.851 -151.92 -267.552 -157.942 -258.941C-161.176 -254.318 -162.082 -249.097 -161.84 -243.566C-161.724 -240.927 -160.89 -238.263 -159.791 -235.879C-158.784 -233.696 -157.326 -231.61 -155.547 -229.991C-153.905 -228.496 -152.025 -227.246 -149.958 -226.412C-137.132 -221.236 -125.627 -233.91 -126.074 -246.294ZM-139.057 -214.057V-216.785C-133.742 -218.016 -130.424 -221.724 -126.175 -224.72L-126.171 -218.273L-126.191 -215.943L-129.395 -215.402L-139.057 -214.057ZM-125.927 -137.682L-139.057 -135.946V-212.818L-126.174 -214.305V-163.223V-146.857L-125.927 -137.682ZM-126.422 -81.6395C-128.719 -84.2752 -131.802 -86.1702 -134.845 -87.8189C-135.869 -88.3736 -138.397 -89.0933 -138.908 -90.1682C-140.015 -92.4991 -139.057 -97.4029 -139.057 -99.9895V-124.043V-131.482C-139.057 -132.257 -139.316 -133.658 -138.802 -134.308C-138.301 -134.943 -136.59 -134.917 -135.836 -135.049C-132.912 -135.563 -128.847 -136.44 -125.927 -135.946L-126.174 -122.555V-96.022L-126.174 -86.103L-126.422 -81.6395ZM-126.281 -63.2895C-126.736 -66.4712 -127.679 -69.4601 -129.352 -72.2165C-135.015 -81.5482 -147.58 -83.8642 -155.652 -76.1619C-160.621 -71.421 -162.732 -63.8097 -161.775 -57.0901C-161.36 -54.1759 -160.406 -51.1708 -158.861 -48.659C-157.554 -46.5364 -155.912 -44.6862 -153.922 -43.1787C-152.372 -42.0044 -150.582 -41.0525 -148.719 -40.4856C-135.064 -36.3302 -124.477 -50.678 -126.281 -63.2895ZM-139.057 -30.8049C-133.707 -32.0769 -130.437 -35.9829 -126.175 -38.988C-126.175 -28.6562 -126.125 -18.3231 -126.175 -7.99137C-126.19 -4.83908 -126.304 1.56244 -128.994 3.73097C-131.027 5.3702 -138.143 5.952 -138.979 2.67035C-139.783 -0.487969 -139.057 -4.72853 -139.057 -7.99137L-139.057 -30.8049ZM-126.422 -267.868C-130.23 -270.251 -134.132 -274.844 -139.057 -274.811V-289.441C-139.057 -292.2 -139.333 -295.512 -138.262 -298.119C-137.978 -298.812 -137.559 -299.523 -136.802 -299.749C-135.749 -300.061 -134.642 -299.582 -133.607 -299.435C-131.477 -299.131 -128.286 -300.004 -126.854 -297.859C-125.599 -295.979 -126.422 -291.645 -126.422 -289.441V-267.868ZM-139.553 -270.843L-147.728 -272.827V-284.73C-147.728 -285.975 -148.164 -288.261 -147.474 -289.345C-146.266 -291.241 -141.774 -292.809 -139.801 -293.905L-139.553 -286.218V-270.843ZM-147.728 -210.586V-219.513L-139.553 -221.249C-139.553 -219.543 -138.816 -215.597 -139.807 -214.184C-140.29 -213.496 -141.531 -213.315 -142.278 -213.065C-144.222 -212.416 -145.865 -211.36 -147.728 -210.586ZM-147.728 -134.458V-193.724V-204.138C-147.728 -205.454 -148.082 -207.398 -147.474 -208.601C-146.272 -210.978 -142.014 -212.214 -139.553 -212.322V-153.552V-140.905L-139.807 -136.092L-142.03 -135.417L-147.728 -134.458ZM-139.553 -90.3185C-141.242 -90.5718 -146.465 -91.8114 -147.474 -93.2079C-148.004 -93.9422 -147.728 -95.4134 -147.728 -96.2699V-103.709V-132.97L-139.801 -134.458C-138.581 -130.329 -139.553 -124.635 -139.553 -120.323V-90.3185ZM-139.801 -84.3672L-147.474 -87.2345L-147.728 -91.5584C-143.574 -90.9356 -138.311 -89.4124 -139.801 -84.3672ZM-139.553 -0.0561974C-141.589 -1.20087 -145.725 -2.08002 -147.052 -4.03445C-148.496 -6.16065 -147.728 -10.2606 -147.728 -12.7028L-147.728 -34.0286L-139.801 -36.5083C-138.785 -33.0694 -139.553 -28.4405 -139.553 -24.8535L-139.553 -0.0561974Z" fill="#304A6E"/>
</svg>
