<svg width="81" height="72" viewBox="0 0 81 72" fill="none" xmlns="http://www.w3.org/2000/svg">
<rect width="81" height="72" fill="#1A1E26"/>
<rect x="-449" y="-377" width="980" height="753" rx="4" fill="white"/>
<path d="M161.811 -104.027C160.83 -108.937 159.437 -113.408 155.888 -117.127C149.172 -124.166 137.752 -124.021 131.29 -116.673C126.619 -111.361 125 -103.925 126.375 -97.0836C127 -93.9747 128.233 -90.9197 130.182 -88.4045C131.614 -86.5556 133.143 -84.963 135.183 -83.7759C146.853 -76.9823 159.426 -85.6278 161.479 -98.0755C161.805 -100.049 162.214 -102.013 161.811 -104.027ZM161.763 81.2094C160.321 75.4555 158.767 70.2146 153.763 66.4585C145.609 60.3381 134.602 63.1998 129.259 71.5384C125.919 76.7515 125.124 83.4651 126.604 89.3925C128.601 97.3828 135.415 104.454 144.101 104.239C153.386 104.009 159.813 96.2527 161.423 87.6567C161.816 85.56 162.297 83.3399 161.763 81.2094ZM125.273 -139.487L116.106 -136.015L115.633 -143.951L115.115 -147.918C103.296 -123.691 108.31 -96.5509 102.261 -71.0464C101.05 -65.9406 98.4075 -61.5075 95.9849 -56.9119C92.3749 -50.0639 89.039 -43.0491 85.6684 -36.0821C84.1124 -32.8659 82.0168 -29.5761 80.9492 -26.1632C77.3583 -14.6831 78.2017 -1.35165 78.2017 10.5369C78.2017 25.4657 78.4111 40.0799 79.894 54.9242C80.7347 63.34 81.9237 72.2759 84.9383 80.2175C89.89 93.2618 96.8998 105.659 101.269 118.901C103.033 124.248 103.385 130.05 104.682 135.516C105.969 140.945 107.577 149.845 114.868 147.914L113.877 139.979C116.465 139.341 119.171 139.225 121.804 138.844C122.635 138.723 124.16 138.206 124.841 138.89C125.848 139.9 125.596 143.271 126.017 144.69C127.45 149.521 132.337 151.69 137.164 149.866C138.323 149.428 139.651 148.555 140.186 147.395C140.726 146.223 140.421 144.819 141.651 144.049C143.584 142.838 146.074 143.03 147.622 141.147C149.267 139.145 148.808 136.188 148.808 133.78L148.808 116.669C148.808 114.696 149.51 111.092 148.659 109.305C148.053 108.032 143.464 107.463 142.119 106.951C137.555 105.213 133.061 102.469 129.774 98.8153C121.924 90.0869 122.634 76.0311 130.498 67.5707C135.303 62.4002 142.006 59.5523 148.808 58.1477V-35.0904V-63.3594C148.808 -67.0614 149.81 -72.4204 148.73 -75.9493C148.415 -76.976 146.699 -76.867 145.835 -77.0187C142.981 -77.5206 140.241 -78.4942 137.66 -79.7868C130.893 -83.1756 125.986 -89.3028 124.644 -96.8358C121.725 -113.227 132.932 -125.532 148.808 -127.584V-140.727C148.808 -142.17 149.321 -144.854 148.554 -146.117C147.176 -148.386 142.728 -149.211 140.666 -150.854C139.034 -152.154 139.647 -154.896 138.113 -156.456C136.952 -157.638 135.604 -157.042 134.192 -156.888C131.507 -156.597 127.407 -157.236 125.704 -154.61C124.839 -153.276 125.025 -151.415 125.025 -149.902C125.025 -146.422 125.273 -142.973 125.273 -139.487ZM147.57 -128.824L139.394 -126.841L139.642 -149.654C141.568 -149.044 146.498 -146.947 147.487 -145.138C148.145 -143.934 147.817 -141.584 147.817 -140.231C147.817 -136.418 147.57 -132.625 147.57 -128.824ZM147.817 -66.583L142.119 -69.0976L139.667 -70.1811L139.394 -77.2458L147.57 -75.51L147.817 -66.583ZM147.817 9.54486L139.394 8.05702C140.685 -11.2161 139.642 -30.8924 139.642 -50.2167C139.642 -54.7979 140.001 -59.5542 139.465 -64.1033C139.359 -64.9986 138.913 -67.9914 140.194 -68.1943C141.062 -68.3317 142.297 -67.721 143.11 -67.4469C144.53 -66.9683 146.559 -66.2274 147.315 -64.8248C147.894 -63.7512 147.802 -61.5997 147.816 -60.3837C147.855 -57.161 147.817 -53.9356 147.817 -50.7127V-10.293C147.817 -3.76023 147.243 3.04575 147.817 9.54486ZM139.394 53.6842L139.642 33.3503L139.394 9.79289L139.642 9.54486L147.569 11.0327C147.57 20.5157 147.817 30.0456 147.817 39.5497C147.817 42.4277 148.899 48.0897 147.459 50.6396C146.614 52.1369 141.048 53.5148 139.394 53.6842ZM147.569 57.1558L139.394 59.3876V55.42L147.569 52.4443V57.1558ZM139.642 143.947V136.011V118.901L139.642 107.494L147.569 109.974L147.569 131.3C147.569 133.758 148.328 137.783 147.005 139.956C145.614 142.24 141.658 142.204 139.642 143.947ZM138.898 -130.808C133.575 -130.343 130.647 -125.991 126.264 -123.865C126.264 -131.15 126.275 -138.434 126.264 -145.687C126.26 -147.89 125.452 -152.182 126.781 -154.049C128.107 -155.911 131.533 -155.195 133.448 -155.401C134.429 -155.506 135.419 -155.955 136.417 -155.793C137.243 -155.659 137.73 -155.094 138.065 -154.362C139.552 -151.112 138.936 -147.129 138.899 -143.703C138.855 -139.548 139.57 -134.883 138.898 -130.808ZM138.899 -73.2783C120.927 -77.5412 114.442 -101.436 122.005 -116.674C125.52 -123.756 131.522 -128.158 138.899 -130.56C140.16 -125.415 134.741 -124.582 131.466 -121.775C127.52 -118.392 124.772 -113.845 123.703 -108.739C122.045 -100.817 123.371 -91.8608 128.494 -85.429C130.308 -83.1519 132.473 -81.326 134.935 -79.7824C136.02 -79.1018 138.156 -78.5005 138.842 -77.3909C139.425 -76.448 139.183 -74.2855 138.899 -73.2783ZM139.146 -70.0546L125.768 -71.7904C126.381 -74.3646 126.381 -78.1434 125.768 -80.7175L130.971 -76.6079L139.146 -72.5344V-70.0546ZM126.016 6.56918V-70.3026L135.43 -69.3107L138.86 -68.2436L138.921 -63.3594L138.899 -52.2006V-9.54905V3.0976L138.879 7.65062L135.678 7.63203L126.016 6.56918ZM126.016 62.1156V8.05732L135.678 8.9882L138.841 9.69484L138.902 12.5208L138.898 19.7121V44.5094L138.92 50.7088L138.87 53.8288L134.687 56.2257L126.016 62.1156ZM138.898 112.702C115.514 106.314 112.84 70.8732 132.457 58.8451C134.436 57.6318 136.626 56.2132 138.898 55.6682C138.99 56.8363 139.53 58.4989 138.892 59.583C138.26 60.6548 136.443 61.2209 135.43 61.8871C133.291 63.2943 131.244 64.9236 129.526 66.8271C124.922 71.9289 122.88 78.3547 123.047 85.1771C123.201 91.4989 126.27 97.2186 130.727 101.535C132.27 103.03 134.082 104.301 135.926 105.399C136.802 105.921 138.104 106.295 138.739 107.13C139.415 108.017 139.21 111.608 138.898 112.702ZM126.016 105.015L131.962 109.866L139.146 113.446C137.714 121.169 138.886 130.137 138.899 137.996C138.902 140.373 140.111 145.125 138.749 147.16C137.02 149.743 130.933 149.509 128.774 147.591C127.628 146.573 127.167 144.652 126.871 143.203C125.788 137.902 126.016 132.462 126.016 127.085V105.015ZM125.52 -71.7901L112.142 -70.4265L102.48 -67.5746C107.168 -85.1278 106.157 -103.493 108.642 -121.385C109.374 -126.662 110.429 -131.907 111.964 -137.007C112.588 -139.079 113.095 -141.689 114.372 -143.454C115.087 -141.032 115.351 -137.008 114.867 -134.527C118.164 -134.328 122.693 -137.301 125.768 -138.495L125.768 -128.08C125.768 -126.574 126.116 -124.556 125.622 -123.121C124.965 -121.209 123.065 -119.506 122.116 -117.665C119.839 -113.248 118.644 -108.254 118.585 -103.283C118.523 -98.1298 119.253 -92.888 121.386 -88.1564C122.427 -85.8477 124.573 -83.8016 125.375 -81.4611C126.293 -78.7767 125.52 -74.6272 125.52 -71.7901ZM125.52 6.56948L79.4403 9.79319C79.4403 -1.3744 78.7377 -13.551 81.6736 -24.4272C82.5414 -27.6421 84.3424 -30.6336 85.8149 -33.6022C88.2283 -38.468 90.5762 -43.3707 93.0049 -48.2326C95.1609 -52.5486 97.2206 -56.9341 99.6118 -61.1273C100.41 -62.5267 100.964 -64.7863 102.298 -65.7514C108.309 -70.1014 118.444 -70.3023 125.52 -70.3023V6.56948ZM125.371 8.41284C125.974 9.60192 125.52 11.9485 125.52 13.2648V25.1675V50.9568C125.52 54.526 126.403 59.439 125.393 62.8595C124.836 64.748 122.944 66.33 122.001 68.067C120.325 71.1513 118.995 76.4374 115.611 78.0544C112.005 79.7772 107.387 76.0146 104.71 73.9862C99.2983 69.8849 94.3883 65.1751 89.5977 60.3798C86.5014 57.2804 82.8837 53.6503 80.8571 49.7169C79.6371 47.3489 80.1386 44.1094 79.8937 41.5337C79.2263 34.5141 79.1925 27.5139 79.1925 20.456V13.7607C79.1928 13.0484 78.9912 11.8005 79.6242 11.2879C80.5489 10.539 83.4653 10.8288 84.6429 10.7753C88.9157 10.5811 93.2666 10.4047 97.5255 9.99903C104.606 9.32459 111.705 8.0693 118.831 8.05732C120.149 8.05732 124.651 6.99255 125.371 8.41284ZM112.638 138.739L113.629 146.923C109.766 146.922 108.394 144.153 107.333 140.723C105.546 134.945 104.673 129.025 103.47 123.117C101.721 114.527 97.3898 106.565 93.9145 98.5677C87.3817 83.5354 81.3924 68.5819 80.679 51.9486C83.812 54.369 86.4017 58.591 89.1299 61.5391C93.4581 66.216 98.4365 70.4628 103.41 74.4316C106.401 76.8181 111.718 81.2447 115.858 79.2831C117.544 78.4847 118.433 76.8644 119.575 75.5062C119.769 76.8178 119.193 78.1454 119.101 79.4737C118.854 83.0671 118.739 86.8202 119.404 90.3846C120.042 93.8094 121.248 96.9814 122.859 100.056C123.589 101.45 124.95 102.768 125.393 104.271C125.893 105.964 125.52 108.217 125.52 109.974V121.629V132.788C125.52 133.811 125.932 136.012 125.266 136.854C124.716 137.548 122.632 137.427 121.804 137.5C118.806 137.762 115.561 138.035 112.638 138.739ZM119.691 107.247C119.058 104.505 115.68 102.992 113.392 104.865C111.721 106.232 111.354 108.469 111.909 110.47C112.673 113.226 116.079 114.436 118.29 112.564C119.775 111.306 120.112 109.069 119.691 107.247ZM117.409 -8.28215C117.08 -9.81314 114.364 -9.90449 113.778 -8.52377C113.047 -6.79862 113.047 -0.644179 113.778 1.08097C114.329 2.38023 116.805 2.39347 117.327 1.05866C117.64 0.259983 117.355 -0.777933 117.346 -1.61336C117.322 -3.6674 117.834 -6.29737 117.409 -8.28215ZM117.445 60.4132C117.015 59.0063 114.439 58.8919 113.813 60.201C112.942 62.0204 113.629 65.5676 113.629 67.5713C113.629 68.3007 113.463 69.3022 113.778 69.9819C114.368 71.2512 116.857 71.0057 117.333 69.776C117.66 68.9315 117.37 67.9495 117.349 67.0754C117.301 65.0878 118.017 62.2873 117.445 60.4132ZM117.097 -89.148C116.282 -89.2994 115.206 -89.6062 114.451 -89.1033C113.534 -88.4929 113.526 -85.0866 114.274 -84.3379C116.243 -82.3666 117.097 -85.2735 117.097 -86.668V-89.148ZM82.6609 56.9087C82.7051 62.2474 84.3752 67.7035 85.9102 72.779C88.8136 82.3786 92.391 91.1225 96.9662 100.056C99.262 104.539 101.234 110.327 104.462 114.191C105.075 110.622 104.71 106.658 104.71 103.032C104.71 98.2765 105.043 93.3756 104.534 88.6494C104.26 86.106 105.014 83.134 103.946 80.7142C103.039 78.66 101.01 76.922 99.5459 75.2588C96.606 71.9202 93.6628 68.564 90.5983 65.3398C88.148 62.762 85.7492 58.679 82.6609 56.9087ZM104.215 -62.3665C102.761 -61.6296 101.827 -59.973 100.931 -58.6469C98.8842 -55.6177 97.0619 -52.4336 95.3159 -49.224C90.5552 -40.4726 84.9509 -30.9371 82.5309 -21.2029C81.544 -17.2331 81.4494 -13.1063 81.1525 -9.05227C80.8526 -4.9578 80.679 -0.759473 80.679 3.34645C80.679 4.28089 80.2534 6.66091 81.0762 7.30693C82.1335 8.13699 86.0643 7.24444 87.368 7.06605C92.9479 6.30115 98.6248 6.28531 104.215 5.57821V-62.3665ZM103.967 11.7775C98.7478 13.0212 92.4861 12.5437 87.1203 12.7792C85.971 12.8298 81.8878 12.5222 81.1813 13.415C80.4308 14.3635 81.1173 16.3958 81.1647 17.4809C81.3173 20.9699 80.9267 24.4193 80.9267 27.8958C80.9267 34.0504 79.9399 41.8484 82.0136 47.7337C84.2504 54.0817 90.7897 59.4995 96.039 63.3595C98.4771 65.1523 101.235 68.0381 104.215 68.8115V29.8796V17.9769L103.967 11.7775ZM42.0311 203.461C45.5667 202.618 49.7989 203.213 53.4273 203.213H75.7241C78.6872 203.213 82.2475 203.751 85.1383 203.082C89.7636 202.012 88.3925 197.206 89.7472 194.075C90.265 192.878 91.8438 192.789 92.3246 191.31C92.8204 189.786 92.7514 187.555 92.0627 186.103C91.6481 185.229 90.5386 184.398 90.5774 183.375C90.6559 181.308 92.8567 179.519 93.0743 177.424C93.3412 174.855 90.0385 170.53 88.9149 168.249C88.5017 167.41 88.0934 166.053 87.2713 165.528C86.0103 164.723 83.1306 165.273 81.6699 165.273H67.5486H14.0361H-1.57166C-3.02651 165.273 -6.14876 164.682 -7.3766 165.528C-8.21111 166.103 -8.39208 167.609 -8.73422 168.497C-9.63157 170.825 -12.3549 175.451 -11.8434 177.92C-11.4725 179.71 -9.38872 181.486 -9.39257 183.304C-9.39406 184.12 -10.3902 184.914 -10.7582 185.607C-11.5021 187.008 -11.7169 189.023 -11.3495 190.566C-10.9646 192.183 -9.51762 192.678 -8.88352 194.049C-7.50753 197.024 -7.94551 200.839 -4.54457 202.648C-1.82891 204.092 2.85651 203.213 5.86063 203.213H29.8917C32.7042 203.213 37.6867 202.238 40.2602 203.363C41.3435 203.836 41.0401 205.485 41.0401 206.437C41.0401 208.129 41.3783 210.243 40.9336 211.882C40.6062 213.09 39.3228 213.939 40.1281 215.307C40.8795 216.584 42.6262 215.944 42.8336 214.619C42.9894 213.623 42.2277 212.647 42.1584 211.644C41.9772 209.021 42.5794 205.985 42.0311 203.461ZM61.6028 -182.634C67.517 -182.634 73.513 -182.527 79.4403 -182.382C81.8909 -182.322 84.8865 -181.455 87.1165 -182.88C91.0107 -185.369 89.6526 -191.453 89.8688 -195.277C89.9771 -197.193 92.428 -198.541 92.744 -200.736C92.9453 -202.134 92.8104 -204.012 91.876 -205.144C91.3481 -205.783 90.3425 -205.967 89.9948 -206.743C88.6419 -209.761 89.8189 -213.652 86.1293 -215.501C84.4438 -216.346 81.7777 -215.862 79.9357 -215.862H66.3099L17.2568 -215.862H2.39223C0.358531 -215.862 -2.45032 -216.364 -4.29665 -215.386C-7.93456 -213.459 -7.16345 -209.731 -8.76288 -206.697C-9.84861 -204.637 -11.6742 -203.954 -11.4068 -201.232C-11.1659 -198.779 -8.96264 -197.241 -8.77071 -195.032C-8.47253 -191.602 -9.64444 -187.215 -7.64651 -184.144C-5.3031 -180.542 2.84323 -182.138 6.60386 -182.138C10.3372 -182.138 15.6321 -181.158 19.202 -182.217C20.5528 -182.617 19.9786 -184.73 21.72 -185.057C24.1237 -185.509 26.9509 -185.113 29.3962 -185.113L44.7563 -185.113H57.3911C59.2926 -185.113 61.2593 -184.855 61.6028 -182.634ZM78.9448 175.192L86.3771 166.761H86.8725C88.7629 170.754 92.8893 175.609 90.776 179.904C89.9934 181.494 89.427 183.908 87.1425 183.296C86.0636 183.008 85.1645 181.694 84.4408 180.905C82.666 178.972 80.9294 176.911 78.9448 175.192ZM91.4944 -202.967C91.8754 -201.119 91.324 -198.4 89.349 -197.662C88.0153 -197.163 86.0524 -197.512 84.6429 -197.512C80.9144 -197.512 76.9448 -197.878 73.2467 -197.441C66.3799 -196.63 59.1056 -197.264 52.1885 -197.264L12.0542 -197.264C8.445 -197.264 4.75398 -197.489 1.15352 -197.242C-1.51044 -197.059 -5.11291 -196.37 -7.72316 -197.095C-9.16752 -197.496 -9.97011 -199.391 -10.1681 -200.736C-10.3564 -202.015 -10.2535 -203.739 -8.97793 -204.449C-7.73599 -205.139 -5.43498 -204.703 -4.04908 -204.703H7.84257L69.0351 -204.703H86.1293C87.9667 -204.703 90.9995 -205.367 91.4944 -202.967ZM91.4858 188.831C91.5487 189.856 91.3533 191.4 90.2941 191.87C88.915 192.482 86.6261 192.054 85.1383 192.054H72.9989H11.8064H-5.04007C-7.03037 192.054 -10.0033 192.558 -10.2283 189.823C-10.3669 188.138 -10.1594 185.82 -8.48534 184.907C-7.19621 184.204 -4.98156 184.615 -3.55362 184.615H8.09031H69.5305H82.4132C84.3523 184.615 86.7202 184.248 88.6067 184.719C90.4663 185.183 91.3764 187.048 91.4858 188.831ZM88.8545 -206.191L23.6981 -206.191H3.13546L-7.26974 -205.943C-7.94677 -208.627 -6.01817 -213.396 -3.3049 -214.347C-1.65155 -214.927 0.416218 -214.622 2.14448 -214.622H12.7976H68.0442H81.1746C82.9633 -214.622 85.1641 -214.917 86.5783 -213.574C88.6335 -211.622 88.2602 -208.69 88.8545 -206.191ZM84.643 -183.378L84.3953 -196.024H88.6069C88.9363 -191.846 89.9836 -184.621 84.643 -183.378ZM-7.76508 193.542L-7.51733 193.294L6.35626 193.542H32.617H68.5397L88.3591 193.294C89.0091 195.66 88.112 200.385 85.6118 201.475C84.1571 202.109 81.9897 201.723 80.4314 201.725H69.2829H12.0544C8.34804 201.725 4.60856 201.581 0.905925 201.744C-0.999022 201.828 -3.19552 202.183 -4.78146 200.884C-6.81484 199.217 -7.29259 195.979 -7.76508 193.542ZM85.8817 166.761L78.6972 174.448H78.2017L71.2649 166.761L81.1746 166.513L85.8817 166.761ZM85.8817 183.375H70.7694C72.305 180.492 76.0403 177.065 78.6972 175.192L85.8817 183.375ZM-3.8012 -171.723V-163.044H19.2389L66.31 -163.044H79.4404L84.2458 -163.13L84.643 -165.028L84.4935 -171.358L79.4404 -171.723H63.3371L-3.8012 -171.723ZM84.3953 -145.19C76.8373 -146.615 69.1631 -147.403 61.6029 -148.814C59.8412 -149.143 58.5665 -150.724 56.8958 -150.964C52.6798 -151.568 47.7983 -150.893 43.5177 -150.893C37.1746 -150.893 30.5073 -151.496 24.1937 -150.867C22.3959 -150.688 21.0198 -149.216 19.2389 -148.827C12.0277 -147.25 3.80878 -145.263 -3.55345 -144.942L-3.55345 -93.6111C-3.55345 -85.214 -4.30451 -76.4271 -3.52766 -68.0698C-3.26103 -65.2015 -2.1259 -62.2725 -1.57613 -59.4328C0.373399 -49.3636 3.0558 -39.3636 4.69181 -29.2432C5.64973 -23.3175 5.3607 -17.0254 5.62277 -11.0359C6.07107 -0.789424 6.40555 9.43734 6.35606 19.7128C6.28694 34.0554 6.43833 48.8316 5.07546 63.1082C3.31961 81.5016 -1.92285 99.5299 -3.75896 117.91C-4.7534 127.865 -3.80119 138.402 -3.80119 148.411C3.98688 149.418 11.6524 151.33 19.4867 152.089C26.2924 152.748 33.4572 152.131 40.297 152.131C47.7315 152.131 55.453 152.716 62.8416 151.924C68.0866 151.362 73.2744 150.586 78.4494 149.552C79.8938 149.263 82.9076 149.265 83.9919 148.199C84.8603 147.345 84.3953 144.357 84.3953 143.204V128.821C84.3953 107.927 78.8812 86.9725 75.8286 66.3322C75.072 61.2159 75.1965 56.1065 74.9713 50.9578C74.458 39.224 74.2567 27.5131 74.2378 15.7456C74.22 4.69253 74.2028 -6.43265 74.9589 -17.4829C75.2396 -21.5861 74.9212 -25.8054 75.5499 -29.8816C77.0738 -39.7609 80.1813 -49.6557 82.4714 -59.3904C83.0631 -61.9053 84.0425 -64.517 84.3496 -67.0777C85.1869 -74.0589 84.3953 -81.6159 84.3953 -88.6514C84.3953 -107.425 83.5062 -126.443 84.3953 -145.19ZM83.8998 -183.377L81.1746 -183.625V-183.873H83.6521V-195.776H72.7514L81.1746 -196.272L83.8222 -195.697L83.8998 -192.056V-183.377ZM-3.30568 -163.539V-171.227L84.1475 -171.227C84.1475 -169.581 84.9251 -165.241 83.8929 -163.937C83.1361 -162.98 79.8184 -163.539 78.6972 -163.539H62.8416L-3.30568 -163.539ZM83.7381 -211.394C82.813 -214.255 74.1053 -213.845 75.3708 -209.415C76.2699 -206.268 85.2868 -206.604 83.7381 -211.394ZM83.4213 -201.714C83.0008 -203.266 80.7753 -202.532 81.3289 -200.998C81.848 -199.559 83.7999 -200.316 83.4213 -201.714ZM83.4681 196.777C82.9104 195.407 81.4129 195.527 80.1836 195.526C77.699 195.526 73.9131 195.8 75.4127 199.483C76.0021 200.931 77.6631 200.734 78.9449 200.734C81.4533 200.734 84.9372 200.385 83.4681 196.777ZM83.2967 -210.899C84.2588 -207.443 76.4379 -207.432 75.8326 -209.668C74.8772 -213.199 82.6642 -213.171 83.2967 -210.899ZM83.2192 188.143C82.5665 186.683 80.807 187.995 81.3279 189.289C81.9314 190.789 83.8311 189.511 83.2192 188.143ZM83.2774 197.758C83.8579 201.179 76.2357 201.259 75.781 198.745C75.1391 195.196 82.8549 195.268 83.2774 197.758ZM83.1565 -68.3186H82.9088L67.2528 -119.153L61.3896 -138.247L58.3823 -148.414C63.7978 -146.294 70.4581 -145.971 76.2197 -145.158C77.6439 -144.957 81.9938 -144.958 82.9019 -143.801C83.7098 -142.772 83.1565 -139.762 83.1565 -138.495V-124.113V-68.3186ZM83.0491 118.38C82.9967 119.7 80.693 120.671 79.6881 121.225C75.9169 123.305 71.9965 124.78 67.7965 125.702C58.5114 127.74 48.5172 126.837 39.0583 126.837C31.2122 126.837 22.7375 127.679 15.0273 125.987C10.3446 124.96 5.68188 123.554 1.40139 121.354C0.057895 120.664 -2.49202 119.956 -2.52577 118.156C-2.59704 114.355 -1.28976 110.246 -0.68912 106.503C0.809222 97.1653 2.43446 87.8385 3.81153 78.4817C4.29907 75.1692 4.90583 71.8801 5.36529 68.5628C5.50549 67.5505 5.51411 65.3005 6.29242 64.5797C7.10269 63.8293 9.02262 63.694 10.0724 63.4605C13.2588 62.7522 16.4938 61.9693 19.7344 61.581C25.9621 60.8347 32.2938 61.1236 38.5628 61.1236C45.3226 61.1236 52.1419 60.8767 58.8777 61.3494C62.7819 61.6233 66.4772 62.543 70.2739 63.441C71.3977 63.7068 73.4511 63.7085 74.1971 64.7216C74.9221 65.7063 74.8573 67.6327 75.0774 68.8107C75.7365 72.3394 76.2359 75.9266 76.7833 79.4736C78.1486 88.3221 79.5553 97.1772 81.0347 106.007C81.6829 109.876 83.2044 114.465 83.0491 118.38ZM-2.56249 147.418C-3.79688 140.763 -2.81023 133.11 -2.81023 126.341C-2.81023 124.357 -2.43411 122.07 -2.81023 120.141C-0.452411 119.984 2.87228 122.622 5.11753 123.514C10.2545 125.554 15.4855 126.768 20.9731 127.29C28.9159 128.047 37.2701 127.333 45.2519 127.333C52.0546 127.333 59.3655 128.054 66.0623 126.672C69.8007 125.9 73.5141 124.825 76.963 123.171C78.9845 122.201 81.0147 120.45 83.1565 119.894V139.731C83.1565 141.379 83.9268 145.672 82.9019 146.99C82.035 148.105 78.7731 148.098 77.4584 148.361C72.0112 149.451 66.4179 150.509 60.8597 150.646C48.2067 150.957 35.1096 151.735 22.4595 150.868C14.0838 150.294 5.7781 147.777 -2.56249 147.418ZM82.1656 -68.5664C75.0044 -71.1906 68.941 -76.4004 61.3552 -78.2274C55.8252 -79.5592 49.4266 -78.7332 43.7654 -78.7332C35.2634 -78.7332 25.4657 -80.0915 17.2569 -77.6327C10.3282 -75.5573 4.7118 -71.0674 -1.81926 -68.3183C-0.947172 -74.7689 2.28287 -81.7237 4.35558 -87.9083C8.60019 -100.573 12.3313 -113.412 16.5139 -126.096C18.3346 -131.618 20.1274 -137.15 21.8241 -142.71C22.521 -144.994 23.5967 -147.287 23.946 -149.654H38.5628C38.5006 -148.225 37.1232 -145.723 37.7732 -144.456C39.4986 -141.092 44.5918 -140.619 45.8225 -144.704C46.2053 -145.974 45.1481 -148.18 44.7564 -149.406L54.1706 -149.654L57.4274 -149.079L59.746 -141.966L64.9287 -125.104L77.1415 -85.4285L82.1656 -68.5664ZM79.9359 -69.0623C75.5376 -69.5006 71.2611 -71.3148 66.8055 -71.7479C60.2315 -72.3868 53.582 -71.8799 46.9861 -72.0416C36.6303 -72.2955 25.8434 -73.2601 15.5227 -72.2439C10.3512 -71.7346 5.44193 -69.9689 0.410436 -68.8143V-69.0623C6.86406 -73.0158 14.1666 -76.9338 21.7163 -78.1568C29.0065 -79.3377 37.3642 -78.2373 44.7564 -78.2373C49.4173 -78.2373 54.5125 -78.8211 59.1255 -78.1629C63.6736 -77.5139 67.8951 -75.259 72.0081 -73.3542C74.6028 -72.1525 77.7297 -70.892 79.9359 -69.0623ZM70.5217 182.383L70.5217 167.256L76.2197 172.712L77.7257 174.944L75.972 177.175L70.5217 182.383ZM77.3533 97.328C76.3337 89.5553 74.8682 81.8869 72.9677 74.2664C72.4953 72.372 72.3088 67.8884 70.8686 66.5438C70.051 65.7805 68.1159 65.704 67.0533 65.4882C63.8657 64.8412 60.6632 64.1008 57.3913 64.0996H23.6983C20.285 64.0996 16.8963 64.6284 13.5408 65.2342C12.513 65.4197 10.5445 65.3968 9.80843 66.2293C9.10909 67.0203 9.03847 68.5619 8.83294 69.5549C8.31819 72.0418 7.69771 74.5183 7.12893 76.9941C5.11474 85.7618 3.38335 94.5145 3.38335 103.527C3.38335 105.826 3.03485 108.438 3.42006 110.704C3.70687 112.391 7.57133 111.462 8.8337 111.462H26.1757H64.5758C67.7113 111.462 70.8555 111.393 73.9901 111.462C74.8343 111.482 76.5669 112.03 77.2038 111.269C77.8447 110.503 77.4585 108.435 77.4585 107.491C77.4585 104.159 77.7868 100.629 77.3533 97.3243M74.2378 62.856L58.8778 59.8901L37.3241 59.8804L21.9641 59.9228L6.10853 62.8564L6.61376 53.4333L7.10045 35.3313L7.33748 -1.36876L5.86077 -29.1418L19.7344 -31.1034L37.8196 -31.1257L60.3642 -31.116L74.2378 -29.1421L73.0027 2.84654L73.4909 39.2986L74.2378 62.856ZM72.0081 -195.78H70.7694V-196.028L72.0081 -195.78ZM70.2739 -194.292L10.0724 -194.292V-195.78L70.2739 -196.028V-194.292ZM70.1233 -193.222C70.9047 -191.562 68.7792 -191.565 67.7965 -191.565H58.1345L21.7163 -191.565H13.0453C12.2603 -191.565 10.6844 -191.266 10.2575 -192.139C9.50621 -193.676 11.3119 -193.794 12.3021 -193.796H20.9731L57.1435 -193.796H66.8055C67.6513 -193.796 69.6762 -194.171 70.1233 -193.222ZM10.0724 -191.069L70.2739 -191.069L69.8767 -189.092L66.8055 -188.837H59.1255L22.7073 -188.837H13.7885L10.4696 -189.092L10.0724 -191.069ZM70.2739 -183.878H62.5939C61.2499 -187.276 56.8729 -186.605 53.9229 -186.605L28.1576 -186.605C25.0514 -186.605 19.7367 -187.749 18.9911 -183.63L10.3201 -183.382C10.0446 -184.315 9.5637 -187.391 10.4723 -188.09C11.2134 -188.66 12.9059 -188.341 13.7885 -188.341H22.2118L58.63 -188.341H67.0533C67.8339 -188.341 69.466 -188.643 70.0193 -187.943C70.6882 -187.098 70.2739 -184.911 70.2739 -183.878ZM69.5307 171.716C66.163 172.713 61.6473 171.965 58.1345 171.965C58.0982 168.896 53.9858 169.981 51.6932 169.981H30.3873C28.0025 169.981 22.9927 168.781 22.955 171.965H10.8156L11.0703 166.907L14.7795 166.509H25.1847H69.2829L69.5307 171.716ZM69.5307 179.9H55.4093H26.9189L11.0634 180.148L10.8156 172.46H22.955C23.1598 175.147 27.4124 174.196 29.3963 174.196H50.7022C52.7808 174.196 57.9216 175.254 58.1345 172.46H66.31L69.2761 172.858L69.5307 179.9ZM69.5307 183.123L63.0894 183.371H50.95H10.8156V180.644H55.6571H65.5668L69.1333 180.898L69.5307 183.123ZM61.4978 -8.80817C61.0802 -11.953 60.1093 -14.8514 57.1435 -16.4866C54.6948 -17.8367 51.9097 -17.4873 49.2158 -17.4873L34.3512 -17.4873C30.5697 -17.4873 25.4709 -18.4175 22.2118 -16.0892C17.8426 -12.9679 18.4957 -7.31424 18.4957 -2.60887C18.4957 -0.661878 18.2945 1.41277 18.57 3.3425C20.108 14.1171 32.3156 11.5256 40.297 11.5256C45.0227 11.5256 52.3164 12.8933 56.6481 10.841C63.0542 7.80596 62.2827 -2.89742 61.4978 -8.80817ZM61.0367 -8.80817C61.7104 -3.17044 62.596 7.1498 56.6481 10.1572C52.227 12.3926 44.9048 11.0297 40.0493 11.0297C33.5644 11.0297 20.511 13.5551 19.2836 4.33438C18.5345 -1.29368 17.2223 -12.1614 22.7494 -15.6937C25.955 -17.7424 30.4827 -16.9913 34.1035 -16.9913H47.4816C54.0507 -16.9913 60.0863 -16.7617 61.0367 -8.80817ZM57.3913 173.7H23.6983L23.4505 170.725L34.3512 170.477H57.3913V173.7ZM55.1545 -202.291C54.2289 -203.426 52.5791 -201.698 53.5771 -200.604C54.5984 -199.485 55.9417 -201.325 55.1545 -202.291ZM55.2216 188.14C54.6003 186.702 52.6022 187.975 53.2473 189.286C53.9727 190.76 55.8124 189.507 55.2216 188.14ZM46.7383 42.7703C44.138 44.0385 41.878 47.801 39.9786 49.9616C39.0708 50.9941 38.0997 51.7955 37.8196 53.1852L43.5186 46.8431L46.7383 42.7703ZM39.8015 -149.161H43.7654C44.056 -147.893 45.0849 -145.926 44.3494 -144.701C43.0323 -142.507 39.7532 -142.397 39.0031 -145.197C38.6902 -146.365 39.54 -148.019 39.8015 -149.161ZM27.4226 -201.483C27.3348 -202.907 25.2581 -202.964 25.2581 -201.483C25.2581 -199.9 27.5235 -199.847 27.4226 -201.483ZM27.2267 188.139C26.5948 186.671 24.5886 187.925 25.2744 189.286C26.0137 190.754 27.8106 189.496 27.2267 188.139ZM23.4505 -148.665L20.2228 -138.994L14.3473 -120.644L-2.06699 -69.3138H-2.31474L-2.31474 -122.628V-137.259C-2.31474 -138.876 -2.90137 -141.898 -2.16525 -143.35C-1.5792 -144.507 2.43006 -144.551 3.63109 -144.76C8.74738 -145.649 13.8512 -146.714 18.9911 -147.458C20.3856 -147.66 22.1527 -149.02 23.4505 -148.665ZM9.82467 182.875C7.41912 181.752 5.72345 179.025 3.87884 177.172C3.31839 176.609 2.2143 175.819 2.19223 174.941C2.16934 174.031 3.35806 173.18 3.93103 172.597C5.60051 170.898 7.53032 167.743 9.82467 167.005V182.875ZM9.57692 -183.63L-2.56248 -183.382C-3.55792 -186.752 -2.81022 -191.272 -2.81022 -194.788H-2.56248V-183.878C0.853378 -183.878 6.44248 -184.946 9.57692 -183.63ZM8.83369 167.005C6.54789 169.293 4.0997 173.069 1.15366 174.444L-5.78313 166.757L4.86981 166.509L8.83369 167.005ZM8.83369 183.371H-6.03088C-4.96684 181.087 -0.560971 176.127 1.89689 175.436L8.83369 183.371ZM5.20262 -211.154C4.26276 -214.234 -4.62526 -213.959 -3.24645 -209.42C-2.30109 -206.308 6.55129 -206.734 5.20262 -211.154ZM4.93364 197.011C3.79505 194.071 -4.94571 194.667 -3.34183 199.237C-2.32311 202.14 6.73208 201.654 4.93364 197.011ZM4.63716 -209.672C4.21143 -207.529 -3.43192 -207.3 -2.75346 -210.896C-2.32096 -213.188 5.34179 -213.218 4.63716 -209.672ZM4.49456 197.272C5.75478 201.176 -2.12987 201.288 -2.85515 198.979C-4.03073 195.237 3.86159 195.312 4.49456 197.272ZM-34.2736 -147.921H-34.5213L-35.5123 -136.019C-37.6385 -137.23 -42.8843 -137.971 -44.1764 -140.054C-44.8396 -141.124 -44.2437 -142.795 -44.1931 -143.954C-44.0649 -146.882 -43.3013 -151.99 -44.7786 -154.593C-46.3197 -157.31 -50.7509 -156.552 -53.3498 -156.923C-54.6488 -157.108 -55.826 -157.518 -56.9906 -156.631C-58.5597 -155.435 -58.902 -152.732 -59.0479 -150.897L-65.7369 -147.511L-67.8171 -145.857L-67.9666 -140.482V-127.588C-52.7856 -125.657 -41.0625 -114.045 -43.5488 -98.0787C-44.7752 -90.2029 -49.1886 -83.6947 -56.3227 -80.0036C-59.1171 -78.5577 -61.9422 -77.7182 -64.9937 -77.0306C-65.8515 -76.8373 -67.5749 -76.9741 -67.8879 -75.9524C-68.9687 -72.4235 -67.9666 -67.0644 -67.9666 -63.3624V-35.0934V58.1447C-60.8522 59.6145 -54.1209 62.5687 -49.1804 68.0636C-41.8235 76.246 -41.0297 89.9947 -48.5232 98.3872C-52.0475 102.334 -56.3888 105.022 -61.2776 106.945C-62.6182 107.472 -67.2025 108.035 -67.8171 109.305C-68.83 111.398 -67.8271 115.407 -67.7286 117.658C-67.4412 124.228 -68.5546 130.98 -67.9246 137.496C-67.6924 139.898 -66.8298 141.724 -64.4982 142.699C-63.1967 143.243 -61.4333 143.356 -60.3653 144.352C-58.7524 145.857 -59.4879 148.18 -57.0659 149.509C-54.3655 150.99 -48.5722 150.759 -46.5711 148.146C-44.7006 145.703 -44.2448 141.471 -44.1833 138.488L-33.0349 139.976L-34.0258 147.663C-26.8093 151.709 -24.4815 138.546 -23.4595 134.025C-22.3189 128.979 -22.0144 123.541 -20.2914 118.65C-14.6728 102.702 -5.01939 87.9591 -1.57077 71.2872C2.65345 50.8659 2.67199 30.5007 2.6401 9.78985C2.62226 -1.78824 3.52066 -14.7224 0.0546759 -25.9184C-0.929597 -29.0978 -2.85534 -32.0974 -4.29058 -35.0934C-7.31001 -41.3964 -10.2781 -47.7567 -13.537 -53.9394C-16.8318 -60.1903 -20.2371 -66.0741 -21.7813 -73.0334C-27.22 -97.5448 -21.7932 -125.113 -34.2736 -147.921ZM-44.6788 6.31818L-44.431 -2.36091V-18.4791V-70.3056C-38.7219 -70.3056 -33.0864 -69.7896 -27.5845 -68.1791C-25.5037 -67.57 -22.9333 -66.9969 -21.2112 -65.6026C-20.0636 -64.6733 -19.5147 -62.6686 -18.8495 -61.3786C-17.268 -58.3118 -15.5986 -55.291 -14.0573 -52.2036C-11.4203 -46.9214 -8.84926 -41.6125 -6.21211 -36.3332C-4.45666 -32.8191 -2.22831 -29.1756 -1.04833 -25.4225C0.0904104 -21.8004 0.34445 -18.0056 0.700226 -14.2636C1.25121 -8.46842 1.26295 -2.72431 1.40502 3.09456C1.44092 4.56395 2.39575 8.15619 1.39373 9.39221C0.854811 10.0571 -0.59581 9.57106 -1.32379 9.5445C-3.96598 9.44831 -6.61107 9.17157 -9.25157 9.05567C-17.3135 8.70178 -25.2562 7.62131 -33.2826 6.85619C-36.8912 6.51227 -41.2147 7.34308 -44.6788 6.31818ZM-44.6788 8.05398C-41.7193 7.34882 -38.2681 8.07406 -35.2646 8.27976C-27.285 8.82676 -19.236 10.2345 -11.2335 10.2859C-8.15245 10.306 -4.88095 10.4909 -1.81928 10.8525C-1.02516 10.9463 0.583817 10.7714 1.21748 11.2845C1.93131 11.8626 1.64912 13.4491 1.64912 14.2534V22.1885C1.64912 27.9228 1.41329 33.5868 1.16338 39.2986C1.03519 42.2287 1.44151 46.1987 0.455527 48.9696C-0.392884 51.354 -2.5443 53.5248 -4.15488 55.4169C-10.289 62.6235 -17.4485 69.4041 -25.1071 74.9691C-27.7541 76.8925 -32.2708 79.9765 -35.5087 77.6081C-38.3996 75.4935 -39.7232 70.6291 -41.4012 67.5676C-42.249 66.0208 -44.02 64.5281 -44.5096 62.8525C-44.874 61.6055 -44.4311 59.9411 -44.4311 58.6406V48.4737V21.4446C-44.4311 17.2073 -43.6974 12.1798 -44.6788 8.05398ZM-8.01285 183.371L-10.5895 177.668L-9.57825 174.196L-6.77413 166.757C-4.67994 168.234 -3.12622 170.407 -1.32379 172.212C-0.690935 172.846 0.564554 173.733 0.677658 174.692C0.789068 175.637 -0.434674 176.538 -1.00168 177.149C-2.8055 179.093 -5.29963 182.952 -8.01285 183.371ZM-23.3729 -62.3705V5.57426L0.162663 7.55809C0.162663 -2.11058 0.576419 -12.5068 -1.79329 -21.9508C-3.93902 -30.5022 -8.97466 -39.0412 -13.139 -46.7481C-15.1769 -50.5198 -17.1831 -54.3143 -19.5317 -57.9069C-20.5725 -59.4991 -21.6654 -61.4377 -23.3729 -62.3705ZM-32.7871 146.919C-32.5675 145.18 -31.1093 140.554 -32.0544 139.063C-32.6121 138.183 -34.5931 138.312 -35.5123 138.202C-38.5711 137.834 -41.6229 137.387 -44.6788 137L-44.6788 115.179C-44.6788 111.821 -45.3066 107.756 -44.5838 104.474C-44.0245 101.934 -41.3514 99.3483 -40.3316 96.8286C-37.671 90.2544 -37.2099 82.3508 -38.9807 75.5028C-36.9651 76.6468 -36.4335 79.1708 -33.7781 79.6368C-29.6003 80.3701 -25.3895 76.6533 -22.3819 74.2636C-17.3765 70.2868 -12.3877 66.0716 -8.05127 61.3586C-5.60845 58.7036 -2.89735 53.9931 0.162663 52.1933C-0.185272 69.0628 -6.91637 84.3632 -13.4313 99.5562C-16.8822 107.604 -21.1062 115.438 -22.726 124.106C-23.8428 130.082 -24.7361 136.232 -26.8547 141.96C-27.9118 144.818 -29.4733 147.311 -32.7871 146.919ZM-23.3729 12.0216V68.8075C-20.1224 68.16 -16.7355 64.6365 -14.2064 62.6082C-9.412 58.763 -3.59544 54.117 -1.26454 48.2257C1.09028 42.274 -0.0850878 34.1762 -0.0850878 27.8919C-0.0850878 24.4999 -0.326368 21.1084 -0.205504 17.7286C-0.166039 16.6236 0.389895 14.3331 -0.339711 13.4111C-1.03713 12.5296 -5.14388 12.7974 -6.27866 12.7691C-11.9823 12.6271 -17.6586 12.0216 -23.3729 12.0216ZM-0.835393 -202.149C-1.67375 -203.405 -3.24353 -201.961 -2.55448 -200.778C-1.72015 -199.344 -0.0152254 -200.92 -0.835393 -202.149ZM-0.83985 188.12C-1.66425 186.625 -3.51116 188.183 -2.69334 189.492C-1.87918 190.795 -0.170714 189.333 -0.83985 188.12ZM-1.81935 56.9048C-3.74855 58.0335 -5.25939 60.4783 -6.78031 62.1122C-10.5755 66.1893 -14.3214 70.3209 -17.9932 74.5109C-19.6468 76.398 -22.4958 78.7599 -23.2468 81.2062C-24.2597 84.5053 -23.6207 88.7021 -23.6207 92.117V113.939C-22.277 112.783 -21.6172 110.794 -20.8288 109.227C-19.4901 106.566 -18.0806 103.913 -16.664 101.292C-11.5888 91.9002 -7.66402 82.2954 -4.75747 72.0312C-3.37089 67.1346 -1.81935 62.0173 -1.81935 56.9048ZM-7.51744 -195.78C-6.56845 -195.78 -4.21355 -196.208 -3.56043 -195.383C-3.07993 -194.775 -3.30581 -193.526 -3.30581 -192.805V-186.357C-3.30581 -185.649 -3.07447 -184.372 -3.56043 -183.783C-4.22279 -182.98 -5.6963 -183.907 -6.22577 -184.429C-7.79786 -185.979 -7.51744 -188.56 -7.51744 -190.573V-195.78ZM-21.6388 -67.33C-27.0594 -69.5559 -32.4278 -70.7841 -38.2376 -71.4747C-40.3475 -71.7256 -42.6363 -71.3945 -44.6789 -71.7935C-43.9488 -74.8626 -45.3686 -78.5494 -44.4663 -81.4645C-43.7939 -83.6369 -41.6927 -85.5504 -40.7222 -87.6638C-38.2243 -93.1037 -37.3566 -99.0636 -37.7642 -105.022C-38.052 -109.227 -39.0079 -113.692 -41.0401 -117.421C-42.0799 -119.328 -44.0266 -121.109 -44.7463 -123.124C-45.2624 -124.569 -44.9266 -126.565 -44.9266 -128.084V-138.25L-34.0259 -134.531L-33.7782 -143.458L-31.5839 -138.746L-28.2659 -124.612L-25.0653 -89.1516L-23.4686 -75.5131L-21.6388 -67.33ZM-33.0418 -8.88191C-33.7845 -9.86567 -35.8741 -9.65893 -36.3539 -8.52713C-37.1639 -6.6163 -36.5034 -3.1895 -36.5034 -1.12103C-36.5034 -0.388487 -36.72 0.808044 -36.2487 1.43234C-35.5061 2.41618 -33.4165 2.20944 -32.9367 1.07764C-32.1267 -0.833199 -32.7872 -4.26 -32.7872 -6.32847C-32.7872 -7.06101 -32.5705 -8.25753 -33.0418 -8.88191ZM-33.0418 59.9871C-33.7063 59.007 -35.8551 59.0715 -36.3539 60.1849C-37.2092 62.0941 -36.5035 65.729 -36.5034 67.8157C-36.5033 68.5268 -36.6757 69.5669 -36.2487 70.1878C-35.6176 71.1056 -33.4079 71.0368 -32.9367 69.9907C-32.0792 68.0871 -32.7871 64.4426 -32.7872 62.3602C-32.7873 61.6451 -32.6173 60.6132 -33.0418 59.9871ZM-33.0351 -89.1516C-33.8502 -89.303 -34.9266 -89.6099 -35.6816 -89.107C-36.577 -88.5108 -36.5992 -85.1446 -35.9637 -84.3415C-34.2036 -82.117 -33.0352 -85.3901 -33.0351 -86.6716V-89.1516ZM-58.0572 -73.281C-58.0572 -74.4255 -58.4799 -76.6159 -57.8025 -77.5866C-56.9564 -78.7991 -54.3586 -79.5735 -53.1023 -80.3969C-50.5455 -82.0725 -48.1461 -84.3485 -46.4733 -86.9196C-40.5478 -96.027 -40.3941 -109.738 -47.284 -118.412C-50.2556 -122.154 -54.1383 -124.453 -58.3049 -126.595L-58.0572 -130.563C-50.4038 -128.389 -44.0905 -123.25 -40.7924 -115.932C-33.9157 -100.675 -40.1512 -77.4294 -58.0572 -73.281ZM-58.0572 112.699C-58.0572 111.21 -58.5454 108.698 -57.9077 107.341C-57.4546 106.376 -55.7114 105.809 -54.8365 105.294C-52.959 104.189 -51.1921 102.81 -49.6339 101.289C-45.3456 97.1018 -42.2314 91.5655 -42.2018 85.422C-42.1678 78.3534 -43.8342 72.2569 -48.5783 66.8464C-50.2304 64.9623 -52.2249 63.3445 -54.341 62.0109C-55.3432 61.3793 -57.1544 60.8054 -57.8025 59.7841C-58.436 58.786 -58.0572 56.8105 -58.0572 55.6652C-55.5025 56.2725 -53.0408 57.8618 -50.8726 59.3024C-32.0642 71.7986 -34.8359 106.471 -58.0572 112.699ZM-45.074 -102.294C-45.2722 -107.783 -47.2073 -113.433 -51.1624 -117.378C-58.6553 -124.851 -70.9197 -123.552 -76.9424 -114.941C-80.1757 -110.318 -81.0821 -105.097 -80.8398 -99.5662C-80.7242 -96.9272 -79.8898 -94.2627 -78.7909 -91.8791C-77.7844 -89.6958 -76.3264 -87.61 -74.5472 -85.991C-72.9045 -84.4963 -71.025 -83.2464 -68.9578 -82.4121C-56.1321 -77.2356 -44.6269 -89.9101 -45.074 -102.294ZM-58.0572 -70.0574V-72.7851C-52.7424 -74.0164 -49.4241 -77.724 -45.1745 -80.7202L-45.1708 -74.2729L-45.1911 -71.9428L-48.3951 -71.4023L-58.0572 -70.0574ZM-44.9267 6.31848L-58.0571 8.05428V-68.8175L-45.1745 -70.3054V-19.2228V-2.85651L-44.9267 6.31848ZM-45.4222 62.3605C-47.719 59.7248 -50.8022 57.8298 -53.8455 56.1811C-54.8693 55.6264 -57.397 54.9067 -57.9076 53.8318C-59.0148 51.5009 -58.0571 46.5971 -58.0571 44.0105V19.957V12.5178C-58.0571 11.7429 -58.3158 10.3421 -57.8025 9.6918C-57.3014 9.05693 -55.5902 9.08311 -54.8365 8.95069C-51.9122 8.43709 -47.8469 7.55972 -44.9267 8.05428L-45.1745 21.4448V47.978L-45.1737 57.897L-45.4222 62.3605ZM-45.2808 80.7105C-45.736 77.5288 -46.6791 74.5399 -48.3519 71.7835C-54.0152 62.4518 -66.58 60.1358 -74.6525 67.8381C-79.6212 72.579 -81.7323 80.1903 -80.7753 86.9099C-80.3602 89.8241 -79.4065 92.8292 -77.8607 95.341C-76.5544 97.4636 -74.912 99.3138 -72.9219 100.821C-71.3716 101.996 -69.5821 102.948 -67.7193 103.514C-54.0641 107.67 -43.4765 93.322 -45.2808 80.7105ZM-58.0573 113.195C-52.7069 111.923 -49.4369 108.017 -45.1747 105.012C-45.1747 115.344 -45.1251 125.677 -45.1749 136.009C-45.19 139.161 -45.304 145.562 -47.9937 147.731C-50.0269 149.37 -57.1426 149.952 -57.9786 146.67C-58.7832 143.512 -58.0573 139.271 -58.0573 136.009L-58.0573 113.195ZM-45.4224 -123.868C-49.2295 -126.251 -53.1317 -130.844 -58.0573 -130.811V-145.441C-58.0573 -148.2 -58.3334 -151.512 -57.2621 -154.119C-56.9776 -154.812 -56.5595 -155.523 -55.8018 -155.749C-54.7489 -156.061 -53.6424 -155.582 -52.607 -155.435C-50.4767 -155.131 -47.2858 -156.004 -45.8541 -153.859C-44.5995 -151.979 -45.4224 -147.645 -45.4224 -145.441V-123.868ZM-58.5528 -126.843L-66.7283 -128.827V-140.73C-66.7283 -141.975 -67.1643 -144.261 -66.4737 -145.345C-65.2656 -147.241 -60.7745 -148.809 -58.8006 -149.905L-58.5528 -142.218V-126.843ZM-66.7283 -66.5858V-75.5128L-58.5528 -77.2486C-58.5528 -75.5432 -57.8158 -71.5973 -58.8074 -70.1839C-59.2898 -69.4963 -60.531 -69.315 -61.278 -69.0655C-63.2224 -68.4162 -64.8654 -67.3597 -66.7283 -66.5858ZM-66.7283 9.54212V-49.7235V-60.1384C-66.7283 -61.4543 -67.082 -63.3983 -66.4737 -64.601C-65.2717 -66.9778 -61.0135 -68.2142 -58.5528 -68.3215V-9.55179V3.09486L-58.8074 7.90832L-61.0302 8.58275L-66.7283 9.54212ZM-58.5528 53.6815C-60.242 53.4282 -65.4646 52.1886 -66.4737 50.7921C-67.0042 50.0578 -66.7283 48.5866 -66.7283 47.7301V40.2909V11.03L-58.8006 9.54212C-57.5812 13.6711 -58.5528 19.3654 -58.5528 23.6766V53.6815ZM-58.8006 59.6328L-66.4737 56.7655L-66.7283 52.4416C-62.5736 53.0644 -57.3107 54.5876 -58.8006 59.6328ZM-58.5528 143.944C-60.5895 142.799 -64.7254 141.92 -66.0524 139.966C-67.4959 137.839 -66.7283 133.739 -66.7283 131.297L-66.7283 109.971L-58.8006 107.492C-57.785 110.931 -58.5528 115.56 -58.5528 119.146L-58.5528 143.944Z" fill="#304A6E"/>
</svg>
