<svg width="72" height="81" viewBox="0 0 72 81" fill="none" xmlns="http://www.w3.org/2000/svg">
<rect width="72" height="81" fill="#1A1E26"/>
<rect x="-714" y="-515" width="980" height="753" rx="4" fill="white"/>
<path d="M-104.027 -80.8114C-108.937 -79.8295 -113.408 -78.4369 -117.127 -74.8876C-124.166 -68.1717 -124.021 -56.7525 -116.673 -50.2903C-111.361 -45.6191 -103.925 -43.9999 -97.0836 -45.3751C-93.9747 -46 -90.9197 -47.2332 -88.4045 -49.1818C-86.5556 -50.6142 -84.963 -52.1432 -83.7759 -54.1825C-76.9823 -65.8526 -85.6278 -78.4265 -98.0755 -80.4792C-100.049 -80.8047 -102.013 -81.2142 -104.027 -80.8114ZM81.2094 -80.7629C75.4555 -79.3205 70.2146 -77.7675 66.4585 -72.7633C60.3381 -64.6093 63.1998 -53.6019 71.5384 -48.2591C76.7515 -44.9188 83.4651 -44.1236 89.3925 -45.6044C97.3828 -47.6007 104.454 -54.4146 104.239 -63.1013C104.009 -72.3856 96.2527 -78.8131 87.6567 -80.4234C85.56 -80.8162 83.3399 -81.297 81.2094 -80.7629ZM-139.487 -44.2728L-136.015 -35.1063L-143.951 -34.633L-147.918 -34.1154C-123.691 -22.2961 -96.5509 -27.3105 -71.0464 -21.2614C-65.9406 -20.0505 -61.5075 -17.4075 -56.9119 -14.9849C-50.0639 -11.3749 -43.0491 -8.03899 -36.0821 -4.66839C-32.8659 -3.11241 -29.5761 -1.0168 -26.1632 0.0507716C-14.6831 3.6417 -1.35165 2.79831 10.5369 2.79831C25.4657 2.79831 40.0799 2.58888 54.9242 1.10598C63.34 0.265261 72.2759 -0.923718 80.2175 -3.93835C93.2618 -8.88998 105.659 -15.8998 118.901 -20.2691C124.248 -22.0331 130.05 -22.3855 135.516 -23.6815C140.945 -24.9689 149.845 -26.5772 147.914 -33.8676L139.979 -32.8767C139.341 -35.4651 139.225 -38.171 138.844 -40.8044C138.723 -41.6347 138.206 -43.1597 138.89 -43.8412C139.9 -44.8482 143.271 -44.596 144.69 -45.017C149.521 -46.4502 151.69 -51.3374 149.866 -56.1645C149.428 -57.3233 148.555 -58.651 147.395 -59.186C146.223 -59.7261 144.819 -59.4209 144.049 -60.6508C142.838 -62.5844 143.03 -65.074 141.147 -66.6219C139.145 -68.2672 136.188 -67.8084 133.78 -67.8084H116.669C114.696 -67.8084 111.092 -68.5095 109.305 -67.6589C108.032 -67.0526 107.463 -62.4644 106.951 -61.1193C105.213 -56.5549 102.469 -52.0607 98.8153 -48.7745C90.0869 -40.9235 76.0311 -41.6345 67.5707 -49.4976C62.4002 -54.3031 59.5523 -61.0059 58.1477 -67.8084H-35.0904H-63.3594C-67.0614 -67.8084 -72.4204 -68.8104 -75.9493 -67.7296C-76.976 -67.4152 -76.867 -65.6987 -77.0187 -64.8355C-77.5206 -61.9812 -78.4942 -59.2412 -79.7868 -56.66C-83.1756 -49.8929 -89.3028 -44.9864 -96.8358 -43.6445C-113.227 -40.7245 -125.532 -51.9322 -127.584 -67.8084H-140.727C-142.17 -67.8084 -144.854 -68.321 -146.117 -67.5538C-148.386 -66.1762 -149.211 -61.7281 -150.854 -59.666C-152.154 -58.0345 -154.896 -58.6466 -156.456 -57.1132C-157.638 -55.9522 -157.042 -54.6035 -156.888 -53.1916C-156.597 -50.5071 -157.236 -46.4068 -154.61 -44.7035C-153.276 -43.8385 -151.415 -44.0251 -149.902 -44.0251C-146.422 -44.0251 -142.973 -44.2728 -139.487 -44.2728ZM-128.824 -66.5697L-126.841 -58.3942L-149.654 -58.6419C-149.044 -60.5682 -146.947 -65.4983 -145.138 -66.4873C-143.934 -67.1452 -141.584 -66.8174 -140.231 -66.8174C-136.418 -66.8174 -132.625 -66.5697 -128.824 -66.5697ZM-66.583 -66.8174L-69.0976 -61.1193L-70.1811 -58.6674L-77.2458 -58.3942L-75.51 -66.5697L-66.583 -66.8174ZM9.54486 -66.8174L8.05702 -58.3942C-11.2161 -59.6849 -30.8924 -58.6419 -50.2167 -58.6419C-54.7979 -58.6419 -59.5542 -59.0012 -64.1033 -58.4649C-64.9986 -58.3594 -67.9914 -57.9134 -68.1943 -59.194C-68.3317 -60.0616 -67.721 -61.2975 -67.4469 -62.1103C-66.9683 -63.5296 -66.2274 -65.5587 -64.8248 -66.3151C-63.7512 -66.894 -61.5997 -66.802 -60.3837 -66.8165C-57.161 -66.8547 -53.9356 -66.8172 -50.7127 -66.8172H-10.293C-3.76023 -66.8172 3.04575 -66.2426 9.54486 -66.8174ZM53.6842 -58.394L33.3503 -58.6417L9.79289 -58.394L9.54486 -58.6417L11.0327 -66.5695C20.5157 -66.5702 30.0456 -66.8172 39.5497 -66.8172C42.4277 -66.8172 48.0897 -67.8991 50.6396 -66.4594C52.1369 -65.614 53.5148 -60.0479 53.6842 -58.394ZM57.1558 -66.5695L59.3876 -58.394H55.42L52.4443 -66.5695H57.1558ZM143.947 -58.6417H136.011H118.901H107.494L109.974 -66.5695H131.3C133.758 -66.5695 137.783 -67.3276 139.956 -66.005C142.24 -64.6144 142.204 -60.6575 143.947 -58.6417ZM-130.808 -57.8985C-130.343 -52.5746 -125.991 -49.6465 -123.865 -45.2636C-131.15 -45.2636 -138.434 -45.2753 -145.687 -45.2636C-147.89 -45.2599 -152.182 -44.4525 -154.049 -45.7812C-155.911 -47.1067 -155.195 -50.5326 -155.401 -52.4481C-155.506 -53.4291 -155.955 -54.4188 -155.793 -55.4172C-155.659 -56.2426 -155.094 -56.7303 -154.362 -57.0652C-151.112 -58.5517 -147.129 -57.936 -143.703 -57.8994C-139.548 -57.8551 -134.883 -58.57 -130.808 -57.8985ZM-73.2783 -57.8987C-77.5412 -39.9267 -101.436 -33.4423 -116.674 -41.005C-123.756 -44.5201 -128.158 -50.5224 -130.56 -57.8987C-125.415 -59.16 -124.582 -53.741 -121.775 -50.4664C-118.392 -46.5205 -113.845 -43.7723 -108.739 -42.7034C-100.817 -41.0454 -91.8608 -42.371 -85.429 -47.4944C-83.1519 -49.3083 -81.326 -51.4729 -79.7824 -53.9348C-79.1018 -55.0204 -78.5005 -57.1558 -77.3909 -57.8417C-76.448 -58.4246 -74.2855 -58.1834 -73.2783 -57.8987ZM-70.0546 -58.1464L-71.7904 -44.7683C-74.3646 -45.3805 -78.1434 -45.3805 -80.7175 -44.7683L-76.6079 -49.9709L-72.5344 -58.1464H-70.0546ZM6.56918 -45.016L-70.3026 -45.016L-69.3107 -54.4303L-68.2436 -57.8597L-63.3594 -57.9208L-52.2006 -57.8987H-9.54905H3.0976L7.65062 -57.8786L7.63203 -54.678L6.56918 -45.016ZM62.1156 -45.016H8.05732L8.9882 -54.678L9.69484 -57.8409L12.5208 -57.9021L19.7121 -57.8984H44.5094L50.7088 -57.9196L53.8288 -57.8702L56.2257 -53.6867L62.1156 -45.016ZM112.702 -57.8983C106.314 -34.5145 70.8732 -31.8403 58.8451 -51.457C57.6318 -53.4358 56.2132 -55.6262 55.6682 -57.8983C56.8363 -57.9904 58.4989 -58.5304 59.583 -57.8917C60.6548 -57.2599 61.2209 -55.4431 61.8871 -54.4301C63.2943 -52.2906 64.9236 -50.2441 66.8271 -48.5264C71.9289 -43.9222 78.3547 -41.8797 85.1771 -42.0466C91.4989 -42.2013 97.2186 -45.2704 101.535 -49.7266C103.03 -51.2705 104.301 -53.0817 105.399 -54.9256C105.921 -55.8023 106.295 -57.1036 107.13 -57.7393C108.017 -58.4153 111.608 -58.2097 112.702 -57.8983ZM105.015 -45.0159L109.866 -50.9617L113.446 -58.1463C121.169 -56.7138 130.137 -57.8859 137.996 -57.8985C140.373 -57.9022 145.125 -59.1107 147.16 -57.749C149.743 -56.0199 149.509 -49.9328 147.591 -47.7739C146.573 -46.6277 144.652 -46.1666 143.203 -45.8706C137.902 -44.7876 132.462 -45.0159 127.085 -45.0159H105.015ZM-71.7901 -44.5204L-70.4265 -31.1423L-67.5746 -21.4803C-85.1278 -26.1684 -103.493 -25.1567 -121.385 -27.6416C-126.662 -28.3745 -131.907 -29.4288 -137.007 -30.964C-139.079 -31.5875 -141.689 -32.0946 -143.454 -33.372C-141.032 -34.0875 -137.008 -34.351 -134.527 -33.8675C-134.328 -37.1644 -137.301 -41.6929 -138.495 -44.7682H-128.08C-126.574 -44.7682 -124.556 -45.1158 -123.121 -44.6223C-121.209 -43.9652 -119.506 -42.065 -117.665 -41.1161C-113.248 -38.8393 -108.254 -37.6436 -103.283 -37.5846C-98.1298 -37.5233 -92.888 -38.2534 -88.1564 -40.386C-85.8477 -41.4266 -83.8016 -43.5735 -81.4611 -44.3746C-78.7767 -45.2934 -74.6272 -44.5204 -71.7901 -44.5204ZM6.56948 -44.5204L9.79319 1.55975C-1.3744 1.55975 -13.551 2.26232 -24.4272 -0.673563C-27.6421 -1.54138 -30.6336 -3.34243 -33.6022 -4.81485C-38.468 -7.22829 -43.3707 -9.57621 -48.2326 -12.0049C-52.5486 -14.1609 -56.9341 -16.2206 -61.1273 -18.6118C-62.5267 -19.4098 -64.7863 -19.9643 -65.7514 -21.2978C-70.1014 -27.3089 -70.3023 -37.4442 -70.3023 -44.5204L6.56948 -44.5204ZM8.41284 -44.3709C9.60192 -44.9739 11.9485 -44.5204 13.2648 -44.5204H25.1675H50.9568C54.526 -44.5204 59.439 -45.4027 62.8595 -44.3933C64.748 -43.836 66.33 -41.9444 68.067 -41.0006C71.1513 -39.3247 76.4374 -37.9949 78.0544 -34.6107C79.7772 -31.005 76.0146 -26.3866 73.9862 -23.71C69.8849 -18.2983 65.1751 -13.3883 60.3798 -8.59771C57.2804 -5.50141 53.6503 -1.88367 49.7169 0.142864C47.3489 1.36289 44.1094 0.861412 41.5337 1.10631C34.5141 1.77374 27.5139 1.80749 20.456 1.80749H13.7607C13.0484 1.80722 11.8005 2.00883 11.2879 1.37584C10.539 0.451119 10.8288 -2.46526 10.7753 -3.64285C10.5811 -7.91566 10.4047 -12.2666 9.99903 -16.5255C9.32459 -23.6059 8.0693 -30.7049 8.05732 -37.8314C8.05732 -39.1488 6.99255 -43.6507 8.41284 -44.3709ZM138.739 -31.6378L146.923 -32.6288C146.922 -28.7659 144.153 -27.3937 140.723 -26.3329C134.945 -24.5455 129.025 -23.6735 123.117 -22.4704C114.527 -20.7209 106.565 -16.3898 98.5677 -12.9145C83.5354 -6.38169 68.5819 -0.392362 51.9486 0.321033C54.369 -2.81198 58.591 -5.40171 61.5391 -8.12994C66.216 -12.4581 70.4628 -17.4365 74.4316 -22.4103C76.8181 -25.4012 81.2447 -30.718 79.2831 -34.8584C78.4847 -36.5438 76.8644 -37.433 75.5062 -38.5746C76.8178 -38.7693 78.1454 -38.1927 79.4737 -38.1013C83.0671 -37.854 86.8202 -37.739 90.3846 -38.4037C93.8094 -39.0424 96.9814 -40.2476 100.056 -41.8585C101.45 -42.5891 102.768 -43.9498 104.271 -44.3933C105.964 -44.8929 108.217 -44.5204 109.974 -44.5204H121.629H132.788C133.811 -44.5204 136.012 -44.9322 136.854 -44.2658C137.548 -43.7163 137.427 -41.6324 137.5 -40.8043C137.762 -37.806 138.035 -34.5615 138.739 -31.6378ZM107.247 -38.6912C104.505 -38.0579 102.992 -34.6804 104.865 -32.3917C106.232 -30.7212 108.469 -30.3544 110.47 -30.9091C113.226 -31.6728 114.436 -35.0794 112.564 -37.29C111.306 -38.775 109.069 -39.1122 107.247 -38.6912ZM-8.28215 -36.4087C-9.81314 -36.0805 -9.90449 -33.3635 -8.52377 -32.7783C-6.79862 -32.0469 -0.644179 -32.0469 1.08097 -32.7783C2.38023 -33.329 2.39347 -35.8048 1.05866 -36.3271C0.259983 -36.6396 -0.777933 -36.3554 -1.61336 -36.3458C-3.6674 -36.3222 -6.29737 -36.8343 -8.28215 -36.4087ZM60.4132 -36.4447C59.0063 -36.0153 58.8919 -33.4389 60.201 -32.8127C62.0204 -31.9424 65.5676 -32.6288 67.5713 -32.6288C68.3007 -32.6288 69.3022 -32.4625 69.9819 -32.7783C71.2512 -33.3678 71.0057 -35.8572 69.776 -36.3332C68.9315 -36.6602 67.9495 -36.3696 67.0754 -36.3485C65.0878 -36.3007 62.2873 -37.0167 60.4132 -36.4447ZM-89.148 -36.0972C-89.2994 -35.2822 -89.6062 -34.2057 -89.1033 -33.4508C-88.4929 -32.534 -85.0866 -32.5257 -84.3379 -33.2738C-82.3666 -35.2432 -85.2735 -36.0971 -86.668 -36.0972H-89.148ZM56.9087 -1.66092C62.2474 -1.70507 67.7035 -3.37521 72.779 -4.91025C82.3786 -7.81356 91.1225 -11.391 100.056 -15.9662C104.539 -18.262 110.327 -20.234 114.191 -23.4623C110.622 -24.0755 106.658 -23.71 103.032 -23.71C98.2765 -23.71 93.3756 -24.0426 88.6494 -23.534C86.106 -23.2603 83.134 -24.0137 80.7142 -22.9456C78.66 -22.0389 76.922 -20.0104 75.2588 -18.5459C71.9202 -15.606 68.564 -12.6628 65.3398 -9.59825C62.762 -7.14805 58.679 -4.74915 56.9087 -1.66092ZM-62.3665 -23.2146C-61.6296 -21.7613 -59.973 -20.8267 -58.6469 -19.9308C-55.6177 -17.8842 -52.4336 -16.0619 -49.224 -14.3159C-40.4726 -9.55519 -30.9371 -3.95088 -21.2029 -1.53094C-17.2331 -0.544024 -13.1063 -0.449383 -9.05227 -0.152478C-4.9578 0.14737 -0.759473 0.321016 3.34645 0.321016C4.28089 0.321016 6.66091 0.74664 7.30693 -0.076211C8.13699 -1.13348 7.24444 -5.06432 7.06605 -6.36804C6.30115 -11.9479 6.28531 -17.6248 5.57821 -23.2146L-62.3665 -23.2146ZM11.7775 -22.9668C13.0212 -17.7478 12.5437 -11.4861 12.7792 -6.12029C12.8298 -4.97102 12.5222 -0.887799 13.415 -0.181346C14.3635 0.569167 16.3958 -0.117279 17.4809 -0.164697C20.9699 -0.317334 24.4193 0.0732887 27.8958 0.0732887C34.0504 0.0732887 41.8484 1.06012 47.7337 -1.01363C54.0817 -3.25042 59.4995 -9.78967 63.3595 -15.039C65.1523 -17.4771 68.0381 -20.2354 68.8115 -23.2145L29.8796 -23.2145H17.9769L11.7775 -22.9668ZM203.461 38.9689C202.618 35.4333 203.213 31.2011 203.213 27.5727V5.27589C203.213 2.31279 203.751 -1.24748 203.082 -4.13834C202.012 -8.76355 197.206 -7.39246 194.075 -8.7472C192.878 -9.26497 192.789 -10.8438 191.31 -11.3246C189.786 -11.8204 187.555 -11.7514 186.103 -11.0627C185.229 -10.6481 184.398 -9.53857 183.375 -9.5774C181.308 -9.65589 179.519 -11.8567 177.424 -12.0743C174.855 -12.3412 170.53 -9.03846 168.249 -7.91489C167.41 -7.50171 166.053 -7.09343 165.528 -6.27129C164.723 -5.01027 165.273 -2.13057 165.273 -0.66994V13.4514V66.9639V82.5717C165.273 84.0265 164.682 87.1488 165.528 88.3766C166.103 89.2111 167.609 89.3921 168.497 89.7342C170.825 90.6316 175.451 93.3549 177.92 92.8434C179.71 92.4725 181.486 90.3887 183.304 90.3926C184.12 90.3941 184.914 91.3902 185.607 91.7582C187.008 92.5021 189.023 92.7169 190.566 92.3495C192.183 91.9646 192.678 90.5176 194.049 89.8835C197.024 88.5075 200.839 88.9455 202.648 85.5446C204.092 82.8289 203.213 78.1435 203.213 75.1394V51.1083C203.213 48.2958 202.238 43.3133 203.363 40.7398C203.836 39.6565 205.485 39.9599 206.437 39.9599C208.129 39.9599 210.243 39.6217 211.882 40.0664C213.09 40.3938 213.939 41.6772 215.307 40.8719C216.584 40.1205 215.944 38.3738 214.619 38.1664C213.623 38.0106 212.647 38.7723 211.644 38.8416C209.021 39.0228 205.985 38.4206 203.461 38.9689ZM-182.634 19.3972C-182.634 13.483 -182.527 7.487 -182.382 1.55975C-182.322 -0.890931 -181.455 -3.88653 -182.88 -6.11646C-185.369 -10.0107 -191.453 -8.65259 -195.277 -8.86877C-197.193 -8.97712 -198.541 -11.428 -200.736 -11.744C-202.134 -11.9453 -204.012 -11.8104 -205.144 -10.876C-205.783 -10.3481 -205.967 -9.34254 -206.743 -8.99476C-209.761 -7.6419 -213.652 -8.81887 -215.501 -5.12931C-216.346 -3.44377 -215.862 -0.777689 -215.862 1.06426V14.6901V63.7432V78.6078C-215.862 80.6415 -216.364 83.4503 -215.386 85.2967C-213.459 88.9346 -209.731 88.1634 -206.697 89.7629C-204.637 90.8486 -203.954 92.6742 -201.232 92.4068C-198.779 92.1659 -197.241 89.9626 -195.032 89.7707C-191.602 89.4725 -187.215 90.6444 -184.144 88.6465C-180.542 86.3031 -182.138 78.1568 -182.138 74.3961C-182.138 70.6628 -181.158 65.3679 -182.217 61.798C-182.617 60.4472 -184.73 61.0214 -185.057 59.28C-185.509 56.8763 -185.113 54.0491 -185.113 51.6038V36.2437V23.6089C-185.113 21.7074 -184.855 19.7407 -182.634 19.3972ZM175.192 2.05524L166.761 -5.37705V-5.87254C170.754 -7.76287 175.609 -11.8893 179.904 -9.77602C181.494 -8.99345 183.908 -8.42697 183.296 -6.14245C183.008 -5.06359 181.694 -4.16455 180.905 -3.44081C178.972 -1.66601 176.911 0.0705846 175.192 2.05524ZM-202.967 -10.4944C-201.119 -10.8754 -198.4 -10.324 -197.662 -8.34901C-197.163 -7.01525 -197.512 -5.05244 -197.512 -3.64285C-197.512 0.0855966 -197.878 4.05524 -197.441 7.75332C-196.63 14.6201 -197.264 21.8944 -197.264 28.8115V68.9458C-197.264 72.555 -197.489 76.246 -197.242 79.8465C-197.059 82.5104 -196.37 86.1129 -197.095 88.7232C-197.496 90.1675 -199.391 90.9701 -200.736 91.1681C-202.015 91.3564 -203.739 91.2535 -204.449 89.9779C-205.139 88.736 -204.703 86.435 -204.703 85.0491V73.1574V11.9649V-5.12931C-204.703 -6.96666 -205.367 -9.99951 -202.967 -10.4944ZM188.831 -10.4858C189.856 -10.5487 191.4 -10.3533 191.87 -9.29409C192.482 -7.91504 192.054 -5.62611 192.054 -4.13833V8.00108V69.1936V86.0401C192.054 88.0304 192.558 91.0033 189.823 91.2283C188.138 91.3669 185.82 91.1594 184.907 89.4853C184.204 88.1962 184.615 85.9816 184.615 84.5536V72.9097V11.4695V-1.41317C184.615 -3.35234 184.248 -5.72015 184.719 -7.60674C185.183 -9.46627 187.048 -10.3764 188.831 -10.4858ZM-206.191 -7.85449V57.3019V77.8645L-205.943 88.2697C-208.627 88.9468 -213.396 87.0182 -214.347 84.3049C-214.927 82.6516 -214.622 80.5838 -214.622 78.8555V68.2024V12.9558V-0.174598C-214.622 -1.9633 -214.917 -4.16408 -213.574 -5.57829C-211.622 -7.63345 -208.69 -7.26016 -206.191 -7.85449ZM-183.378 -3.643L-196.024 -3.39526V-7.60688C-191.846 -7.93634 -184.621 -8.98364 -183.378 -3.643ZM193.542 88.7651L193.294 88.5173L193.542 74.6437V48.383V12.4603L193.294 -7.35915C195.66 -8.00908 200.385 -7.11202 201.475 -4.6118C202.109 -3.15708 201.723 -0.989749 201.725 0.568631V11.7171V68.9456C201.725 72.652 201.581 76.3914 201.744 80.0941C201.828 81.999 202.183 84.1955 200.884 85.7815C199.217 87.8148 195.979 88.2926 193.542 88.7651ZM166.761 -4.88172L174.448 2.30283V2.79832L166.761 9.73511L166.513 -0.174598L166.761 -4.88172ZM183.375 -4.88172V10.2306C180.492 8.69504 177.065 4.95974 175.192 2.30283L183.375 -4.88172ZM-171.723 84.8012H-163.044V61.7611V14.69V1.5596L-163.13 -3.24577L-165.028 -3.643L-171.358 -3.49351L-171.723 1.5596V17.6629V84.8012ZM-145.19 -3.39526C-146.615 4.16267 -147.403 11.8369 -148.814 19.3971C-149.143 21.1588 -150.724 22.4335 -150.964 24.1042C-151.568 28.3202 -150.893 33.2017 -150.893 37.4823C-150.893 43.8254 -151.496 50.4927 -150.867 56.8063C-150.688 58.6041 -149.216 59.9802 -148.827 61.7611C-147.25 68.9723 -145.263 77.1912 -144.942 84.5534H-93.6111C-85.214 84.5534 -76.4271 85.3045 -68.0698 84.5277C-65.2015 84.261 -62.2725 83.1259 -59.4328 82.5761C-49.3636 80.6266 -39.3636 77.9442 -29.2432 76.3082C-23.3175 75.3503 -17.0254 75.6393 -11.0359 75.3772C-0.789424 74.9289 9.43734 74.5944 19.7128 74.6439C34.0554 74.7131 48.8316 74.5617 63.1082 75.9245C81.5016 77.6804 99.5299 82.9228 117.91 84.759C127.865 85.7534 138.402 84.8012 148.411 84.8012C149.418 77.0131 151.33 69.3476 152.089 61.5133C152.748 54.7076 152.131 47.5428 152.131 40.703C152.131 33.2685 152.716 25.547 151.924 18.1584C151.362 12.9134 150.586 7.72559 149.552 2.55055C149.263 1.10618 149.265 -1.90764 148.199 -2.99193C147.345 -3.86029 144.357 -3.39527 143.204 -3.39527H128.821C107.927 -3.39527 86.9725 2.11881 66.3322 5.17137C61.2159 5.928 56.1065 5.80346 50.9578 6.02871C39.224 6.54202 27.5131 6.74329 15.7456 6.76219C4.69253 6.77995 -6.43265 6.79719 -17.4829 6.04112C-21.5861 5.76039 -25.8054 6.0788 -29.8816 5.45006C-39.7609 3.92622 -49.6557 0.818697 -59.3904 -1.47144C-61.9053 -2.06308 -64.517 -3.04247 -67.0777 -3.34958C-74.0589 -4.18687 -81.6159 -3.39529 -88.6514 -3.39529C-107.425 -3.39529 -126.443 -2.50618 -145.19 -3.39526ZM-183.377 -2.8998L-183.625 -0.174626H-183.873V-2.65206H-195.776V8.24863L-196.272 -0.174626L-195.697 -2.82219L-192.056 -2.8998H-183.377ZM-163.539 84.3057H-171.227V-3.14751C-169.581 -3.14751 -165.241 -3.92511 -163.937 -2.89289C-162.98 -2.1361 -163.539 1.18156 -163.539 2.30283V18.1584V84.3057ZM-211.394 -2.73805C-214.255 -1.81304 -213.845 6.89469 -209.415 5.62919C-206.268 4.7301 -206.604 -4.28678 -211.394 -2.73805ZM-201.714 -2.42129C-203.266 -2.00083 -202.532 0.224733 -200.998 -0.328861C-199.559 -0.847998 -200.316 -2.79994 -201.714 -2.42129ZM196.777 -2.46812C195.407 -1.91045 195.527 -0.412911 195.526 0.816381C195.526 3.30099 195.8 7.08686 199.483 5.58733C200.931 4.99792 200.734 3.33687 200.734 2.05509C200.734 -0.453273 200.385 -3.93724 196.777 -2.46812ZM-210.899 -2.29665C-207.443 -3.25876 -207.432 4.56207 -209.668 5.16736C-213.199 6.12282 -213.171 -1.6642 -210.899 -2.29665ZM188.143 -2.21924C186.683 -1.56647 187.995 0.192991 189.289 -0.327908C190.789 -0.931372 189.511 -2.83112 188.143 -2.21924ZM197.758 -2.27735C201.179 -2.85791 201.259 4.76428 198.745 5.21897C195.196 5.86087 195.268 -1.85487 197.758 -2.27735ZM-68.3186 -2.15653V-1.90879L-119.153 13.7472L-138.247 19.6104L-148.414 22.6177C-146.294 17.2022 -145.971 10.5419 -145.158 4.78026C-144.957 3.35609 -144.958 -0.993789 -143.801 -1.90191C-142.772 -2.70981 -139.762 -2.15653 -138.495 -2.15653H-124.113L-68.3186 -2.15653ZM118.38 -2.0491C119.7 -1.9967 120.671 0.307027 121.225 1.31186C123.305 5.08307 124.78 9.00349 125.702 13.2035C127.74 22.4886 126.837 32.4828 126.837 41.9417C126.837 49.7878 127.679 58.2625 125.987 65.9727C124.96 70.6554 123.554 75.3181 121.354 79.5986C120.664 80.9421 119.956 83.492 118.156 83.5258C114.355 83.597 110.246 82.2898 106.503 81.6891C97.1653 80.1908 87.8385 78.5655 78.4817 77.1885C75.1692 76.7009 71.8801 76.0942 68.5628 75.6347C67.5505 75.4945 65.3005 75.4859 64.5797 74.7076C63.8293 73.8973 63.694 71.9774 63.4605 70.9276C62.7522 67.7412 61.9693 64.5062 61.581 61.2656C60.8347 55.0379 61.1236 48.7062 61.1236 42.4372C61.1236 35.6774 60.8767 28.8581 61.3494 22.1223C61.6233 18.2181 62.543 14.5228 63.441 10.7261C63.7068 9.60229 63.7085 7.54889 64.7216 6.80293C65.7063 6.07795 67.6327 6.14269 68.8107 5.92262C72.3394 5.26345 75.9266 4.76406 79.4736 4.21673C88.3221 2.85135 97.1772 1.44466 106.007 -0.0346641C109.876 -0.682915 114.465 -2.20442 118.38 -2.0491ZM147.418 83.5625C140.763 84.7969 133.11 83.8102 126.341 83.8102C124.357 83.8102 122.07 83.4341 120.141 83.8102C119.984 81.4524 122.622 78.1277 123.514 75.8825C125.554 70.7455 126.768 65.5145 127.29 60.0269C128.047 52.0841 127.333 43.7299 127.333 35.7481C127.333 28.9454 128.054 21.6345 126.672 14.9377C125.9 11.1993 124.825 7.48593 123.171 4.03703C122.201 2.01548 120.45 -0.0146598 119.894 -2.15653H139.731C141.379 -2.15653 145.672 -2.92683 146.99 -1.90191C148.105 -1.03496 148.098 2.22691 148.361 3.54155C149.451 8.98876 150.509 14.5821 150.646 20.1403C150.957 32.7933 151.735 45.8904 150.868 58.5405C150.294 66.9162 147.777 75.2219 147.418 83.5625ZM-68.5664 -1.16557C-71.1906 5.99558 -76.4004 12.059 -78.2274 19.6448C-79.5592 25.1748 -78.7332 31.5734 -78.7332 37.2346C-78.7332 45.7366 -80.0915 55.5343 -77.6327 63.7431C-75.5573 70.6718 -71.0674 76.2882 -68.3183 82.8193C-74.7689 81.9472 -81.7237 78.7171 -87.9083 76.6444C-100.573 72.3998 -113.412 68.6687 -126.096 64.4861C-131.618 62.6654 -137.15 60.8726 -142.71 59.1759C-144.994 58.479 -147.287 57.4033 -149.654 57.054V42.4372C-148.225 42.4994 -145.723 43.8768 -144.456 43.2268C-141.092 41.5014 -140.619 36.4082 -144.704 35.1775C-145.974 34.7947 -148.18 35.8519 -149.406 36.2436L-149.654 26.8294L-149.079 23.5726L-141.966 21.254L-125.104 16.0713L-85.4285 3.85848L-68.5664 -1.16557ZM-69.0623 1.06411C-69.5006 5.46242 -71.3148 9.73887 -71.7479 14.1945C-72.3868 20.7685 -71.8799 27.418 -72.0416 34.0139C-72.2955 44.3697 -73.2601 55.1566 -72.2439 65.4773C-71.7346 70.6488 -69.9689 75.5581 -68.8143 80.5896H-69.0623C-73.0158 74.1359 -76.9338 66.8334 -78.1568 59.2837C-79.3377 51.9935 -78.2373 43.6358 -78.2373 36.2436C-78.2373 31.5827 -78.8211 26.4875 -78.1629 21.8745C-77.5139 17.3264 -75.259 13.1049 -73.3542 8.99188C-72.1525 6.39718 -70.892 3.27032 -69.0623 1.06411ZM182.383 10.4783H167.256L172.712 4.78025L174.944 3.27431L177.175 5.028L182.383 10.4783ZM97.328 3.64667C89.5553 4.6663 81.8869 6.1318 74.2664 8.03226C72.372 8.5047 67.8884 8.69122 66.5438 10.1314C65.7805 10.949 65.704 12.8841 65.4882 13.9467C64.8412 17.1343 64.1008 20.3368 64.0996 23.6087V57.3017C64.0996 60.715 64.6284 64.1037 65.2342 67.4592C65.4197 68.487 65.3968 70.4555 66.2293 71.1916C67.0203 71.8909 68.5619 71.9615 69.5549 72.1671C72.0418 72.6818 74.5183 73.3023 76.9941 73.8711C85.7618 75.8853 94.5145 77.6167 103.527 77.6167C105.826 77.6167 108.438 77.9651 110.704 77.5799C112.391 77.2931 111.462 73.4287 111.462 72.1663V54.8243V16.4242C111.462 13.2887 111.393 10.1445 111.462 7.00994C111.482 6.16575 112.03 4.43312 111.269 3.79617C110.503 3.15527 108.435 3.54154 107.491 3.54154C104.159 3.54154 100.629 3.21316 97.3243 3.64667M62.856 6.7622L59.8901 22.1222L59.8804 43.6759L59.9228 59.0359L62.8564 74.8915L53.4333 74.3862L35.3313 73.8996L-1.36876 73.6625L-29.1418 75.1392L-31.1034 61.2656L-31.1257 43.1804L-31.116 20.6358L-29.1421 6.7622L2.84654 7.99728L39.2986 7.50906L62.856 6.7622ZM-195.78 8.99188V10.2306H-196.028L-195.78 8.99188ZM-194.292 10.7261V70.9276H-195.78L-196.028 10.7261H-194.292ZM-193.222 10.8767C-191.562 10.0953 -191.565 12.2208 -191.565 13.2035V22.8655V59.2837V67.9547C-191.565 68.7397 -191.266 70.3156 -192.139 70.7425C-193.676 71.4938 -193.794 69.6881 -193.796 68.6979V60.0269V23.8565V14.1945C-193.796 13.3487 -194.171 11.3238 -193.222 10.8767ZM-191.069 70.9276V10.7261L-189.092 11.1233L-188.837 14.1945V21.8745V58.2927V67.2115L-189.092 70.5304L-191.069 70.9276ZM-183.878 10.7261V18.4061C-187.276 19.7501 -186.605 24.1271 -186.605 27.0771V52.8424C-186.605 55.9486 -187.749 61.2633 -183.63 62.0089L-183.382 70.6799C-184.315 70.9554 -187.391 71.4363 -188.09 70.5277C-188.66 69.7866 -188.341 68.0941 -188.341 67.2115V58.7882V22.37V13.9467C-188.341 13.1661 -188.643 11.534 -187.943 10.9807C-187.098 10.3118 -184.911 10.7261 -183.878 10.7261ZM171.716 11.4693C172.713 14.837 171.965 19.3527 171.965 22.8655C168.896 22.9018 169.981 27.0142 169.981 29.3068V50.6127C169.981 52.9975 168.781 58.0073 171.965 58.045V70.1844L166.907 69.9297L166.509 66.2205V55.8153V11.7171L171.716 11.4693ZM179.9 11.4693V25.5907V54.0811L180.148 69.9366L172.46 70.1844V58.045C175.147 57.8402 174.196 53.5876 174.196 51.6037V30.2978C174.196 28.2192 175.254 23.0784 172.46 22.8655V14.69L172.858 11.7239L179.9 11.4693ZM183.123 11.4693L183.371 17.9106V30.05V70.1844H180.644V25.3429V15.4332L180.898 11.8667L183.123 11.4693ZM-8.80817 19.5022C-11.953 19.9198 -14.8514 20.8907 -16.4866 23.8565C-17.8367 26.3052 -17.4873 29.0903 -17.4873 31.7842V46.6488C-17.4873 50.4303 -18.4175 55.5291 -16.0892 58.7882C-12.9679 63.1574 -7.31424 62.5043 -2.60887 62.5043C-0.661878 62.5043 1.41277 62.7055 3.3425 62.43C14.1171 60.892 11.5256 48.6844 11.5256 40.703C11.5256 35.9773 12.8933 28.6836 10.841 24.3519C7.80596 17.9458 -2.89742 18.7173 -8.80817 19.5022ZM-8.80817 19.9633C-3.17044 19.2896 7.1498 18.404 10.1572 24.3519C12.3926 28.773 11.0297 36.0952 11.0297 40.9507C11.0297 47.4356 13.5551 60.489 4.33438 61.7164C-1.29368 62.4655 -12.1614 63.7777 -15.6937 58.2506C-17.7424 55.045 -16.9913 50.5173 -16.9913 46.8965V33.5184C-16.9913 26.9493 -16.7617 20.9137 -8.80817 19.9633ZM173.7 23.6087V57.3017L170.725 57.5495L170.477 46.6488V23.6087H173.7ZM-202.291 25.8455C-203.426 26.7711 -201.698 28.4209 -200.604 27.4229C-199.485 26.4016 -201.325 25.0583 -202.291 25.8455ZM188.14 25.7784C186.702 26.3997 187.975 28.3978 189.286 27.7527C190.76 27.0273 189.507 25.1876 188.14 25.7784ZM42.7703 34.2617C44.0385 36.862 47.801 39.122 49.9616 41.0214C50.9941 41.9292 51.7955 42.9003 53.1852 43.1804L46.8431 37.4814L42.7703 34.2617ZM-149.161 41.1985V37.2346C-147.893 36.944 -145.926 35.9151 -144.701 36.6506C-142.507 37.9677 -142.397 41.2468 -145.197 41.9969C-146.365 42.3098 -148.019 41.46 -149.161 41.1985ZM-201.483 53.5774C-202.907 53.6652 -202.964 55.7419 -201.483 55.7419C-199.9 55.7419 -199.847 53.4765 -201.483 53.5774ZM188.139 53.7733C186.671 54.4052 187.925 56.4114 189.286 55.7256C190.754 54.9863 189.496 53.1894 188.139 53.7733ZM-148.665 57.5495L-138.994 60.7772L-120.644 66.6527L-69.3138 83.067V83.3147H-122.628H-137.259C-138.876 83.3147 -141.898 83.9014 -143.35 83.1652C-144.507 82.5792 -144.551 78.5699 -144.76 77.3689C-145.649 72.2526 -146.714 67.1488 -147.458 62.0089C-147.66 60.6144 -149.02 58.8473 -148.665 57.5495ZM182.875 71.1753C181.752 73.5809 179.025 75.2765 177.172 77.1212C176.609 77.6816 175.819 78.7857 174.941 78.8078C174.031 78.8307 173.18 77.6419 172.597 77.069C170.898 75.3995 167.743 73.4697 167.005 71.1753H182.875ZM-183.63 71.4231L-183.382 83.5625C-186.752 84.5579 -191.272 83.8102 -194.788 83.8102V83.5625H-183.878C-183.878 80.1466 -184.946 74.5575 -183.63 71.4231ZM167.005 72.1663C169.293 74.4521 173.069 76.9003 174.444 79.8463L166.757 86.7831L166.509 76.1302L167.005 72.1663ZM183.371 72.1663V87.0309C181.087 85.9668 176.127 81.561 175.436 79.1031L183.371 72.1663ZM-211.154 75.7974C-214.234 76.7372 -213.959 85.6253 -209.42 84.2465C-206.308 83.3011 -206.734 74.4487 -211.154 75.7974ZM197.011 76.0664C194.071 77.205 194.667 85.9457 199.237 84.3418C202.14 83.3231 201.654 74.2679 197.011 76.0664ZM-209.672 76.3628C-207.529 76.7886 -207.3 84.4319 -210.896 83.7535C-213.188 83.321 -213.218 75.6582 -209.672 76.3628ZM197.272 76.5054C201.176 75.2452 201.288 83.1299 198.979 83.8551C195.237 85.0307 195.312 77.1384 197.272 76.5054ZM-147.921 115.274V115.521L-136.019 116.512C-137.23 118.638 -137.971 123.884 -140.054 125.176C-141.124 125.84 -142.795 125.244 -143.954 125.193C-146.882 125.065 -151.99 124.301 -154.593 125.779C-157.31 127.32 -156.552 131.751 -156.923 134.35C-157.108 135.649 -157.518 136.826 -156.631 137.991C-155.435 139.56 -152.732 139.902 -150.897 140.048L-147.511 146.737L-145.857 148.817L-140.482 148.967H-127.588C-125.657 133.786 -114.045 122.063 -98.0787 124.549C-90.2029 125.775 -83.6947 130.189 -80.0036 137.323C-78.5577 140.117 -77.7182 142.942 -77.0306 145.994C-76.8373 146.851 -76.9741 148.575 -75.9524 148.888C-72.4235 149.969 -67.0644 148.967 -63.3624 148.967H-35.0934L58.1447 148.967C59.6145 141.852 62.5687 135.121 68.0636 130.18C76.246 122.824 89.9947 122.03 98.3872 129.523C102.334 133.047 105.022 137.389 106.945 142.278C107.472 143.618 108.035 148.203 109.305 148.817C111.398 149.83 115.407 148.827 117.658 148.729C124.228 148.441 130.98 149.555 137.496 148.925C139.898 148.692 141.724 147.83 142.699 145.498C143.243 144.197 143.356 142.433 144.352 141.365C145.857 139.752 148.18 140.488 149.509 138.066C150.99 135.365 150.759 129.572 148.146 127.571C145.703 125.701 141.471 125.245 138.488 125.183L139.976 114.035L147.663 115.026C151.709 107.809 138.546 105.482 134.025 104.459C128.979 103.319 123.541 103.014 118.65 101.291C102.702 95.6728 87.9591 86.0194 71.2872 82.5708C50.8659 78.3465 30.5007 78.328 9.78985 78.3599C-1.78824 78.3777 -14.7224 77.4793 -25.9184 80.9453C-29.0978 81.9296 -32.0974 83.8553 -35.0934 85.2906C-41.3964 88.31 -47.7567 91.2781 -53.9394 94.537C-60.1903 97.8318 -66.0741 101.237 -73.0334 102.781C-97.5448 108.22 -125.113 102.793 -147.921 115.274ZM6.31818 125.679L-2.36091 125.431H-18.4791H-70.3056C-70.3056 119.722 -69.7896 114.086 -68.1791 108.585C-67.57 106.504 -66.9969 103.933 -65.6026 102.211C-64.6733 101.064 -62.6686 100.515 -61.3786 99.8495C-58.3118 98.268 -55.291 96.5986 -52.2036 95.0573C-46.9214 92.4203 -41.6125 89.8493 -36.3332 87.2121C-32.8191 85.4567 -29.1756 83.2283 -25.4225 82.0483C-21.8004 80.9096 -18.0056 80.6555 -14.2636 80.2998C-8.46842 79.7488 -2.72431 79.7371 3.09456 79.595C4.56395 79.5591 8.15619 78.6042 9.39221 79.6063C10.0571 80.1452 9.57106 81.5958 9.5445 82.3238C9.44831 84.966 9.17157 87.6111 9.05567 90.2516C8.70178 98.3135 7.62131 106.256 6.85619 114.283C6.51227 117.891 7.34308 122.215 6.31818 125.679ZM8.05398 125.679C7.34882 122.719 8.07406 119.268 8.27976 116.265C8.82676 108.285 10.2345 100.236 10.2859 92.2335C10.306 89.1525 10.4909 85.881 10.8525 82.8193C10.9463 82.0252 10.7714 80.4162 11.2845 79.7825C11.8626 79.0687 13.4491 79.3509 14.2534 79.3509H22.1885C27.9228 79.3509 33.5868 79.5867 39.2986 79.8366C42.2287 79.9648 46.1987 79.5585 48.9696 80.5445C51.354 81.3929 53.5248 83.5443 55.4169 85.1549C62.6235 91.289 69.4041 98.4485 74.9691 106.107C76.8925 108.754 79.9765 113.271 77.6081 116.509C75.4935 119.4 70.6291 120.723 67.5676 122.401C66.0208 123.249 64.5281 125.02 62.8525 125.51C61.6055 125.874 59.9411 125.431 58.6406 125.431H48.4737H21.4446C17.2073 125.431 12.1798 124.697 8.05398 125.679ZM183.371 89.0129L177.668 91.5895L174.196 90.5783L166.757 87.7741C168.234 85.6799 170.407 84.1262 172.212 82.3238C172.846 81.6909 173.733 80.4354 174.692 80.3223C175.637 80.2109 176.538 81.4347 177.149 82.0017C179.093 83.8055 182.952 86.2996 183.371 89.0129ZM-62.3705 104.373H5.57426L7.55809 80.8373C-2.11058 80.8373 -12.5068 80.4236 -21.9508 82.7933C-30.5022 84.939 -39.0412 89.9747 -46.7481 94.139C-50.5198 96.1769 -54.3143 98.1831 -57.9069 100.532C-59.4991 101.573 -61.4377 102.665 -62.3705 104.373ZM146.919 113.787C145.18 113.567 140.554 112.109 139.063 113.054C138.183 113.612 138.312 115.593 138.202 116.512C137.834 119.571 137.387 122.623 137 125.679H115.179C111.821 125.679 107.756 126.307 104.474 125.584C101.934 125.025 99.3483 122.351 96.8286 121.332C90.2544 118.671 82.3508 118.21 75.5028 119.981C76.6468 117.965 79.1708 117.434 79.6368 114.778C80.3701 110.6 76.6533 106.39 74.2636 103.382C70.2868 98.3765 66.0716 93.3877 61.3586 89.0513C58.7036 86.6085 53.9931 83.8974 52.1933 80.8373C69.0628 81.1853 84.3632 87.9164 99.5562 94.4313C107.604 97.8822 115.438 102.106 124.106 103.726C130.082 104.843 136.232 105.736 141.96 107.855C144.818 108.912 147.311 110.473 146.919 113.787ZM12.0216 104.373H68.8075C68.16 101.122 64.6365 97.7355 62.6082 95.2064C58.763 90.412 54.117 84.5954 48.2257 82.2645C42.274 79.9097 34.1762 81.0851 27.8919 81.0851C24.4999 81.0851 21.1084 81.3264 17.7286 81.2055C16.6236 81.166 14.3331 80.6101 13.4111 81.3397C12.5296 82.0371 12.7974 86.1439 12.7691 87.2787C12.6271 92.9823 12.0216 98.6586 12.0216 104.373ZM-202.149 81.8354C-203.405 82.6737 -201.961 84.2435 -200.778 83.5545C-199.344 82.7201 -200.92 81.0152 -202.149 81.8354ZM188.12 81.8398C186.625 82.6642 188.183 84.5112 189.492 83.6933C190.795 82.8792 189.333 81.1707 188.12 81.8398ZM56.9048 82.8194C58.0335 84.7486 60.4783 86.2594 62.1122 87.7803C66.1893 91.5755 70.3209 95.3214 74.5109 98.9932C76.398 100.647 78.7599 103.496 81.2062 104.247C84.5053 105.26 88.7021 104.621 92.117 104.621H113.939C112.783 103.277 110.794 102.617 109.227 101.829C106.566 100.49 103.913 99.0806 101.292 97.664C91.9002 92.5888 82.2954 88.664 72.0312 85.7575C67.1346 84.3709 62.0173 82.8194 56.9048 82.8194ZM-195.78 88.5174C-195.78 87.5684 -196.208 85.2136 -195.383 84.5604C-194.775 84.0799 -193.526 84.3058 -192.805 84.3058H-186.357C-185.649 84.3058 -184.372 84.0745 -183.783 84.5604C-182.98 85.2228 -183.907 86.6963 -184.429 87.2258C-185.979 88.7979 -188.56 88.5174 -190.573 88.5174H-195.78ZM-67.33 102.639C-69.5559 108.059 -70.7841 113.428 -71.4747 119.238C-71.7256 121.347 -71.3945 123.636 -71.7935 125.679C-74.8626 124.949 -78.5494 126.369 -81.4645 125.466C-83.6369 124.794 -85.5504 122.693 -87.6638 121.722C-93.1037 119.224 -99.0636 118.357 -105.022 118.764C-109.227 119.052 -113.692 120.008 -117.421 122.04C-119.328 123.08 -121.109 125.027 -123.124 125.746C-124.569 126.262 -126.565 125.927 -128.084 125.927H-138.25L-134.531 115.026L-143.458 114.778L-138.746 112.584L-124.612 109.266L-89.1516 106.065L-75.5131 104.469L-67.33 102.639ZM-8.88191 114.042C-9.86567 114.785 -9.65893 116.874 -8.52713 117.354C-6.6163 118.164 -3.1895 117.503 -1.12103 117.503C-0.388487 117.503 0.808044 117.72 1.43234 117.249C2.41618 116.506 2.20944 114.416 1.07764 113.937C-0.833199 113.127 -4.26 113.787 -6.32847 113.787C-7.06101 113.787 -8.25753 113.571 -8.88191 114.042ZM59.9871 114.042C59.007 114.706 59.0715 116.855 60.1849 117.354C62.0941 118.209 65.729 117.503 67.8157 117.503C68.5268 117.503 69.5669 117.676 70.1878 117.249C71.1056 116.618 71.0368 114.408 69.9907 113.937C68.0871 113.079 64.4426 113.787 62.3602 113.787C61.6451 113.787 60.6132 113.617 59.9871 114.042ZM-89.1516 114.035C-89.303 114.85 -89.6099 115.927 -89.107 116.682C-88.5108 117.577 -85.1446 117.599 -84.3415 116.964C-82.117 115.204 -85.3901 114.035 -86.6716 114.035H-89.1516ZM-73.281 139.057C-74.4255 139.057 -76.6159 139.48 -77.5866 138.803C-78.7991 137.956 -79.5735 135.359 -80.3969 134.102C-82.0725 131.546 -84.3485 129.146 -86.9196 127.473C-96.027 121.548 -109.738 121.394 -118.412 128.284C-122.154 131.256 -124.453 135.138 -126.595 139.305L-130.563 139.057C-128.389 131.404 -123.25 125.091 -115.932 121.792C-100.675 114.916 -77.4294 121.151 -73.281 139.057ZM112.699 139.057C111.21 139.057 108.698 139.545 107.341 138.908C106.376 138.455 105.809 136.711 105.294 135.836C104.189 133.959 102.81 132.192 101.289 130.634C97.1018 126.346 91.5655 123.231 85.422 123.202C78.3534 123.168 72.2569 124.834 66.8464 129.578C64.9623 131.23 63.3445 133.225 62.0109 135.341C61.3793 136.343 60.8054 138.154 59.7841 138.803C58.786 139.436 56.8105 139.057 55.6652 139.057C56.2725 136.502 57.8618 134.041 59.3024 131.873C71.7986 113.064 106.471 115.836 112.699 139.057ZM-102.294 126.074C-107.783 126.272 -113.433 128.207 -117.378 132.162C-124.851 139.655 -123.552 151.92 -114.941 157.942C-110.318 161.176 -105.097 162.082 -99.5662 161.84C-96.9272 161.724 -94.2627 160.89 -91.8791 159.791C-89.6958 158.784 -87.61 157.326 -85.991 155.547C-84.4963 153.905 -83.2464 152.025 -82.4121 149.958C-77.2356 137.132 -89.9101 125.627 -102.294 126.074ZM-70.0574 139.057H-72.7851C-74.0164 133.742 -77.724 130.424 -80.7202 126.175L-74.2729 126.171L-71.9428 126.191L-71.4023 129.395L-70.0574 139.057ZM6.31848 125.927L8.05428 139.057L-68.8175 139.057L-70.3054 126.174H-19.2228H-2.85651L6.31848 125.927ZM62.3605 126.422C59.7248 128.719 57.8298 131.802 56.1811 134.845C55.6264 135.869 54.9067 138.397 53.8318 138.908C51.5009 140.015 46.5971 139.057 44.0105 139.057H19.957H12.5178C11.7429 139.057 10.3421 139.316 9.6918 138.802C9.05693 138.301 9.08311 136.59 8.95069 135.836C8.43709 132.912 7.55972 128.847 8.05428 125.927L21.4448 126.174H47.978L57.897 126.174L62.3605 126.422ZM80.7105 126.281C77.5288 126.736 74.5399 127.679 71.7835 129.352C62.4518 135.015 60.1358 147.58 67.8381 155.652C72.579 160.621 80.1903 162.732 86.9099 161.775C89.8241 161.36 92.8292 160.406 95.341 158.861C97.4636 157.554 99.3138 155.912 100.821 153.922C101.996 152.372 102.948 150.582 103.514 148.719C107.67 135.064 93.322 124.477 80.7105 126.281ZM113.195 139.057C111.923 133.707 108.017 130.437 105.012 126.175C115.344 126.175 125.677 126.125 136.009 126.175C139.161 126.19 145.562 126.304 147.731 128.994C149.37 131.027 149.952 138.143 146.67 138.979C143.512 139.783 139.271 139.057 136.009 139.057H113.195ZM-123.868 126.422C-126.251 130.23 -130.844 134.132 -130.811 139.057H-145.441C-148.2 139.057 -151.512 139.333 -154.119 138.262C-154.812 137.978 -155.523 137.559 -155.749 136.802C-156.061 135.749 -155.582 134.642 -155.435 133.607C-155.131 131.477 -156.004 128.286 -153.859 126.854C-151.979 125.599 -147.645 126.422 -145.441 126.422H-123.868ZM-126.843 139.553L-128.827 147.728H-140.73C-141.975 147.728 -144.261 148.164 -145.345 147.474C-147.241 146.266 -148.809 141.774 -149.905 139.801L-142.218 139.553H-126.843ZM-66.5858 147.728H-75.5128L-77.2486 139.553C-75.5432 139.553 -71.5973 138.816 -70.1839 139.807C-69.4963 140.29 -69.315 141.531 -69.0655 142.278C-68.4162 144.222 -67.3597 145.865 -66.5858 147.728ZM9.54212 147.728L-49.7235 147.728H-60.1384C-61.4543 147.728 -63.3983 148.082 -64.601 147.474C-66.9778 146.272 -68.2142 142.014 -68.3215 139.553H-9.55179H3.09486L7.90832 139.807L8.58275 142.03L9.54212 147.728ZM53.6815 139.553C53.4282 141.242 52.1886 146.465 50.7921 147.474C50.0578 148.004 48.5866 147.728 47.7301 147.728H40.2909H11.03L9.54212 139.801C13.6711 138.581 19.3654 139.553 23.6766 139.553H53.6815ZM59.6328 139.801L56.7655 147.474L52.4416 147.728C53.0644 143.574 54.5876 138.311 59.6328 139.801ZM143.944 139.553C142.799 141.589 141.92 145.725 139.966 147.052C137.839 148.496 133.739 147.728 131.297 147.728H109.971L107.492 139.801C110.931 138.785 115.56 139.553 119.146 139.553H143.944Z" fill="#304A6E"/>
</svg>
