<svg width="72" height="81" viewBox="0 0 72 81" fill="none" xmlns="http://www.w3.org/2000/svg">
<rect width="72" height="81" fill="#1A1E26"/>
<rect x="-570" y="-434" width="980" height="753" rx="4" fill="white"/>
<path d="M39.9732 0.188557C35.063 1.17049 30.5923 2.56311 26.8727 6.1124C19.8342 12.8283 19.979 24.2475 27.3274 30.7097C32.6394 35.3809 40.075 37.0001 46.9164 35.6249C50.0253 35 53.0803 33.7668 55.5955 31.8182C57.4444 30.3858 59.037 28.8568 60.2241 26.8175C67.0177 15.1474 58.3722 2.57353 45.9245 0.52078C43.9509 0.195298 41.9871 -0.214191 39.9732 0.188557ZM225.209 0.23709C219.455 1.67945 214.215 3.23252 210.458 8.23675C204.338 16.3907 207.2 27.3981 215.538 32.7409C220.751 36.0812 227.465 36.8764 233.393 35.3956C241.383 33.3993 248.454 26.5854 248.239 17.8987C248.009 8.61445 240.253 2.18688 231.657 0.576603C229.56 0.183815 227.34 -0.296987 225.209 0.23709ZM4.51293 36.7272L7.98458 45.8937L0.0494039 46.367L-3.91815 46.8846C20.3092 58.7039 47.4491 53.6895 72.9536 59.7386C78.0594 60.9495 82.4925 63.5925 87.0881 66.0151C93.9361 69.6251 100.951 72.961 107.918 76.3316C111.134 77.8876 114.424 79.9832 117.837 81.0508C129.317 84.6417 142.648 83.7983 154.537 83.7983C169.466 83.7983 184.08 83.5889 198.924 82.106C207.34 81.2653 216.276 80.0763 224.217 77.0617C237.262 72.11 249.659 65.1002 262.901 60.7309C268.248 58.9669 274.05 58.6145 279.516 57.3185C284.945 56.0311 293.845 54.4228 291.914 47.1324L283.979 48.1233C283.341 45.5349 283.225 42.829 282.844 40.1956C282.723 39.3653 282.206 37.8403 282.89 37.1588C283.9 36.1518 287.271 36.404 288.69 35.983C293.521 34.5498 295.69 29.6626 293.866 24.8355C293.428 23.6767 292.555 22.349 291.395 21.814C290.223 21.2739 288.819 21.5791 288.049 20.3492C286.838 18.4156 287.03 15.926 285.147 14.3781C283.145 12.7328 280.188 13.1916 277.78 13.1916L260.669 13.1916C258.696 13.1916 255.092 12.4905 253.305 13.3411C252.032 13.9474 251.463 18.5356 250.951 19.8807C249.213 24.4451 246.469 28.9393 242.815 32.2255C234.087 40.0765 220.031 39.3655 211.571 31.5024C206.4 26.6969 203.552 19.9941 202.148 13.1916L108.91 13.1916L80.6406 13.1916C76.9386 13.1916 71.5796 12.1896 68.0507 13.2704C67.024 13.5848 67.133 15.3013 66.9813 16.1645C66.4794 19.0188 65.5058 21.7588 64.2132 24.34C60.8244 31.1071 54.6972 36.0136 47.1642 37.3555C30.773 40.2755 18.4678 29.0678 16.4155 13.1916H3.27289C1.8296 13.1916 -0.853566 12.679 -2.11726 13.4462C-4.38622 14.8238 -5.21131 19.2719 -6.85403 21.334C-8.15359 22.9655 -10.8963 22.3534 -12.4563 23.8868C-13.6375 25.0478 -13.0419 26.3965 -12.8884 27.8084C-12.5966 30.4929 -13.2358 34.5932 -10.6098 36.2965C-9.27616 37.1615 -7.41465 36.9749 -5.90211 36.9749C-2.42168 36.9749 1.02706 36.7272 4.51293 36.7272ZM15.1756 14.4303L17.1594 22.6058L-5.65416 22.3581C-5.044 20.4318 -2.94674 15.5017 -1.13782 14.5127C0.0656202 13.8548 2.41626 14.1826 3.76886 14.1826C7.5819 14.1826 11.3754 14.4303 15.1756 14.4303ZM77.417 14.1826L74.9024 19.8807L73.8189 22.3326L66.7542 22.6058L68.49 14.4303L77.417 14.1826ZM153.545 14.1826L152.057 22.6058C132.784 21.3151 113.108 22.3581 93.7833 22.3581C89.2021 22.3581 84.4458 21.9988 79.8967 22.5351C79.0014 22.6406 76.0086 23.0866 75.8057 21.806C75.6683 20.9384 76.279 19.7025 76.5531 18.8897C77.0317 17.4704 77.7726 15.4413 79.1752 14.6849C80.2488 14.106 82.4003 14.198 83.6163 14.1835C86.839 14.1453 90.0644 14.1828 93.2873 14.1828L133.707 14.1828C140.24 14.1828 147.046 14.7574 153.545 14.1826ZM197.684 22.606L177.35 22.3583L153.793 22.606L153.545 22.3583L155.033 14.4305C164.516 14.4298 174.046 14.1828 183.55 14.1828C186.428 14.1828 192.09 13.1009 194.64 14.5406C196.137 15.386 197.515 20.9521 197.684 22.606ZM201.156 14.4305L203.388 22.606H199.42L196.444 14.4305H201.156ZM287.947 22.3583H280.011H262.901H251.494L253.974 14.4305H275.3C277.758 14.4305 281.783 13.6724 283.956 14.995C286.24 16.3856 286.204 20.3425 287.947 22.3583ZM13.1919 23.1015C13.6571 28.4254 18.0089 31.3535 20.1351 35.7364C12.8501 35.7364 5.5658 35.7247 -1.68654 35.7364C-3.88951 35.7401 -8.18201 36.5475 -10.0488 35.2188C-11.9109 33.8933 -11.1953 30.4674 -11.4006 28.5519C-11.5057 27.5709 -11.9552 26.5812 -11.7932 25.5828C-11.6592 24.7574 -11.094 24.2697 -10.3618 23.9348C-7.11173 22.4483 -3.12892 23.064 0.297203 23.1006C4.45245 23.1449 9.11735 22.43 13.1919 23.1015ZM70.7217 23.1013C66.4588 41.0733 42.5638 47.5577 27.3264 39.995C20.2441 36.4799 15.8422 30.4776 13.4398 23.1013C18.5853 21.84 19.418 27.259 22.2251 30.5336C25.6076 34.4795 30.1545 37.2277 35.2615 38.2966C43.1833 39.9546 52.1392 38.629 58.571 33.5056C60.8481 31.6917 62.674 29.5271 64.2176 27.0652C64.8982 25.9796 65.4995 23.8442 66.6091 23.1583C67.552 22.5754 69.7145 22.8166 70.7217 23.1013ZM73.9454 22.8536L72.2096 36.2317C69.6354 35.6195 65.8566 35.6195 63.2825 36.2317L67.3921 31.0291L71.4656 22.8536H73.9454ZM150.569 35.984L73.6974 35.984L74.6893 26.5697L75.7564 23.1403L80.6406 23.0792L91.7994 23.1013L134.451 23.1013H147.098L151.651 23.1214L151.632 26.322L150.569 35.984ZM206.116 35.984H152.057L152.988 26.322L153.695 23.1591L156.521 23.0979L163.712 23.1016L188.509 23.1016L194.709 23.0804L197.829 23.1298L200.226 27.3133L206.116 35.984ZM256.702 23.1017C250.314 46.4855 214.873 49.1597 202.845 29.543C201.632 27.5642 200.213 25.3738 199.668 23.1017C200.836 23.0096 202.499 22.4696 203.583 23.1083C204.655 23.7401 205.221 25.5569 205.887 26.5699C207.294 28.7094 208.924 30.7559 210.827 32.4736C215.929 37.0778 222.355 39.1203 229.177 38.9534C235.499 38.7987 241.219 35.7296 245.535 31.2734C247.03 29.7295 248.301 27.9183 249.399 26.0744C249.921 25.1977 250.295 23.8964 251.13 23.2607C252.017 22.5847 255.608 22.7903 256.702 23.1017ZM249.015 35.9841L253.866 30.0383L257.446 22.8537C265.169 24.2862 274.137 23.1141 281.996 23.1015C284.373 23.0978 289.125 21.8893 291.16 23.251C293.743 24.9801 293.509 31.0672 291.591 33.2261C290.573 34.3723 288.652 34.8334 287.203 35.1294C281.902 36.2124 276.462 35.9841 271.085 35.9841H249.015ZM72.2099 36.4796L73.5735 49.8577L76.4254 59.5197C58.8722 54.8316 40.5071 55.8433 22.6151 53.3584C17.3383 52.6255 12.0934 51.5712 6.99278 50.036C4.92097 49.4125 2.311 48.9054 0.545525 47.628C2.96818 46.9125 6.99212 46.649 9.47257 47.1325C9.6718 43.8356 6.69886 39.3071 5.50494 36.2318H15.9198C17.4258 36.2318 19.4439 35.8842 20.8793 36.3777C22.7905 37.0348 24.4935 38.935 26.3347 39.8839C30.7522 42.1607 35.7457 43.3564 40.7172 43.4154C45.8702 43.4767 51.112 42.7466 55.8436 40.614C58.1523 39.5734 60.1984 37.4265 62.5389 36.6254C65.2233 35.7066 69.3728 36.4796 72.2099 36.4796ZM150.569 36.4796L153.793 82.5597C142.626 82.5597 130.449 83.2623 119.573 80.3264C116.358 79.4586 113.366 77.6576 110.398 76.1851C105.532 73.7717 100.629 71.4238 95.7674 68.9951C91.4514 66.8391 87.0659 64.7794 82.8727 62.3882C81.4733 61.5902 79.2137 61.0357 78.2486 59.7022C73.8986 53.6911 73.6977 43.5558 73.6977 36.4796L150.569 36.4796ZM152.413 36.6291C153.602 36.0261 155.949 36.4796 157.265 36.4796H169.167H194.957C198.526 36.4796 203.439 35.5973 206.86 36.6067C208.748 37.164 210.33 39.0556 212.067 39.9994C215.151 41.6753 220.437 43.0051 222.054 46.3893C223.777 49.995 220.015 54.6134 217.986 57.29C213.885 62.7017 209.175 67.6117 204.38 72.4023C201.28 75.4986 197.65 79.1163 193.717 81.1429C191.349 82.3629 188.109 81.8614 185.534 82.1063C178.514 82.7737 171.514 82.8075 164.456 82.8075H157.761C157.048 82.8072 155.8 83.0088 155.288 82.3758C154.539 81.4511 154.829 78.5347 154.775 77.3571C154.581 73.0843 154.405 68.7334 153.999 64.4745C153.325 57.3941 152.069 50.2951 152.057 43.1686C152.057 41.8512 150.993 37.3493 152.413 36.6291ZM282.739 49.3622L290.923 48.3712C290.922 52.2341 288.153 53.6063 284.723 54.6671C278.945 56.4545 273.025 57.3265 267.117 58.5296C258.527 60.2791 250.565 64.6102 242.568 68.0855C227.535 74.6183 212.582 80.6076 195.949 81.321C198.369 78.188 202.591 75.5983 205.539 72.8701C210.216 68.5419 214.463 63.5635 218.432 58.5897C220.818 55.5988 225.245 50.282 223.283 46.1416C222.485 44.4562 220.864 43.567 219.506 42.4254C220.818 42.2307 222.145 42.8073 223.474 42.8987C227.067 43.146 230.82 43.261 234.385 42.5963C237.809 41.9576 240.981 40.7524 244.056 39.1415C245.45 38.4109 246.768 37.0502 248.271 36.6067C249.964 36.1071 252.217 36.4796 253.974 36.4796H265.629H276.788C277.811 36.4796 280.012 36.0678 280.854 36.7342C281.548 37.2837 281.427 39.3676 281.5 40.1957C281.762 43.194 282.035 46.4385 282.739 49.3622ZM251.247 42.3088C248.505 42.9421 246.992 46.3196 248.865 48.6083C250.232 50.2788 252.469 50.6456 254.47 50.0909C257.226 49.3272 258.436 45.9206 256.564 43.71C255.306 42.225 253.069 41.8878 251.247 42.3088ZM135.718 44.5913C134.187 44.9195 134.096 47.6365 135.476 48.2217C137.201 48.9531 143.356 48.9531 145.081 48.2217C146.38 47.671 146.393 45.1952 145.059 44.6729C144.26 44.3604 143.222 44.6446 142.387 44.6542C140.333 44.6778 137.703 44.1657 135.718 44.5913ZM204.413 44.5553C203.006 44.9847 202.892 47.5611 204.201 48.1873C206.02 49.0576 209.568 48.3712 211.571 48.3712C212.301 48.3712 213.302 48.5375 213.982 48.2217C215.251 47.6322 215.006 45.1428 213.776 44.6668C212.931 44.3398 211.949 44.6304 211.075 44.6515C209.088 44.6993 206.287 43.9833 204.413 44.5553ZM54.852 44.9028C54.7006 45.7178 54.3938 46.7943 54.8967 47.5492C55.5071 48.466 58.9134 48.4743 59.6621 47.7262C61.6334 45.7568 58.7265 44.9029 57.332 44.9028H54.852ZM200.909 79.3391C206.247 79.2949 211.704 77.6248 216.779 76.0898C226.379 73.1864 235.122 69.609 244.056 65.0338C248.539 62.738 254.327 60.766 258.191 57.5377C254.622 56.9245 250.658 57.29 247.032 57.29C242.277 57.29 237.376 56.9574 232.649 57.466C230.106 57.7397 227.134 56.9863 224.714 58.0544C222.66 58.9611 220.922 60.9896 219.259 62.4541C215.92 65.394 212.564 68.3372 209.34 71.4017C206.762 73.852 202.679 76.2508 200.909 79.3391ZM81.6335 57.7854C82.3704 59.2387 84.027 60.1733 85.3531 61.0692C88.3823 63.1158 91.5664 64.9381 94.776 66.6841C103.527 71.4448 113.063 77.0491 122.797 79.4691C126.767 80.456 130.894 80.5506 134.948 80.8475C139.042 81.1474 143.241 81.321 147.346 81.321C148.281 81.321 150.661 81.7466 151.307 80.9238C152.137 79.8665 151.244 75.9357 151.066 74.632C150.301 69.0521 150.285 63.3752 149.578 57.7854L81.6335 57.7854ZM155.778 58.0332C157.021 63.2522 156.544 69.5139 156.779 74.8797C156.83 76.029 156.522 80.1122 157.415 80.8187C158.363 81.5692 160.396 80.8827 161.481 80.8353C164.97 80.6827 168.419 81.0733 171.896 81.0733C178.05 81.0733 185.848 82.0601 191.734 79.9864C198.082 77.7496 203.5 71.2103 207.359 65.961C209.152 63.5229 212.038 60.7646 212.811 57.7855L173.88 57.7855H161.977L155.778 58.0332ZM347.461 119.969C346.618 116.433 347.213 112.201 347.213 108.573V86.2759C347.213 83.3128 347.751 79.7525 347.082 76.8617C346.012 72.2364 341.206 73.6075 338.075 72.2528C336.878 71.735 336.789 70.1562 335.31 69.6754C333.786 69.1796 331.555 69.2486 330.103 69.9373C329.229 70.3519 328.398 71.4614 327.375 71.4226C325.308 71.3441 323.519 69.1433 321.424 68.9257C318.855 68.6588 314.53 71.9615 312.249 73.0851C311.41 73.4983 310.053 73.9066 309.528 74.7287C308.723 75.9897 309.273 78.8694 309.273 80.3301V94.4514V147.964V163.572C309.273 165.027 308.682 168.149 309.528 169.377C310.103 170.211 311.609 170.392 312.497 170.734C314.825 171.632 319.451 174.355 321.92 173.843C323.71 173.473 325.486 171.389 327.304 171.393C328.12 171.394 328.914 172.39 329.607 172.758C331.008 173.502 333.023 173.717 334.566 173.349C336.183 172.965 336.678 171.518 338.049 170.884C341.024 169.508 344.839 169.946 346.648 166.545C348.092 163.829 347.213 159.143 347.213 156.139V132.108C347.213 129.296 346.238 124.313 347.363 121.74C347.836 120.657 349.485 120.96 350.437 120.96C352.129 120.96 354.243 120.622 355.882 121.066C357.09 121.394 357.939 122.677 359.307 121.872C360.584 121.121 359.944 119.374 358.619 119.166C357.623 119.011 356.647 119.772 355.644 119.842C353.021 120.023 349.985 119.421 347.461 119.969ZM-38.6337 100.397C-38.6337 94.483 -38.5275 88.487 -38.3821 82.5597C-38.3219 80.1091 -37.4554 77.1135 -38.8803 74.8835C-41.3688 70.9893 -47.4528 72.3474 -51.2767 72.1312C-53.1932 72.0229 -54.5408 69.572 -56.7358 69.256C-58.1338 69.0547 -60.0123 69.1896 -61.1437 70.124C-61.7828 70.6519 -61.9669 71.6575 -62.7429 72.0052C-65.7612 73.3581 -69.6515 72.1811 -71.501 75.8707C-72.3458 77.5562 -71.8622 80.2223 -71.8622 82.0643V95.6901V144.743V159.608C-71.8622 161.641 -72.3642 164.45 -71.3862 166.297C-69.4591 169.935 -65.7313 169.163 -62.697 170.763C-60.6372 171.849 -59.9541 173.674 -57.2317 173.407C-54.7788 173.166 -53.2406 170.963 -51.0324 170.771C-47.6015 170.473 -43.2149 171.644 -40.144 169.647C-36.542 167.303 -38.1378 159.157 -38.1378 155.396C-38.1378 151.663 -37.1579 146.368 -38.2166 142.798C-38.6172 141.447 -40.7295 142.021 -41.0568 140.28C-41.5087 137.876 -41.1134 135.049 -41.1134 132.604V117.244V104.609C-41.1127 102.707 -40.855 100.741 -38.6337 100.397ZM319.192 83.0552L310.761 75.6229V75.1275C314.754 73.2371 319.609 69.1107 323.904 71.224C325.494 72.0066 327.908 72.573 327.296 74.8575C327.008 75.9364 325.694 76.8355 324.905 77.5592C322.972 79.334 320.911 81.0706 319.192 83.0552ZM-58.9673 70.5056C-57.1195 70.1246 -54.3996 70.676 -53.6617 72.651C-53.1633 73.9847 -53.5121 75.9476 -53.5121 77.3571C-53.5121 81.0856 -53.878 85.0552 -53.4414 88.7533C-52.6304 95.6201 -53.2643 102.894 -53.2643 109.811L-53.2643 149.946C-53.2643 153.555 -53.4889 157.246 -53.242 160.846C-53.0594 163.51 -52.3698 167.113 -53.095 169.723C-53.4964 171.168 -55.3911 171.97 -56.7358 172.168C-58.0149 172.356 -59.7393 172.254 -60.4485 170.978C-61.139 169.736 -60.7034 167.435 -60.7034 166.049V154.157L-60.7034 92.9649V75.8707C-60.7034 74.0333 -61.3672 71.0005 -58.9673 70.5056ZM332.831 70.5142C333.856 70.4513 335.4 70.6467 335.87 71.7059C336.482 73.085 336.054 75.3739 336.054 76.8617V89.0011V150.194V167.04C336.054 169.03 336.558 172.003 333.823 172.228C332.138 172.367 329.82 172.159 328.907 170.485C328.204 169.196 328.615 166.982 328.615 165.554V153.91V92.4695V79.5868C328.615 77.6477 328.248 75.2798 328.719 73.3933C329.183 71.5337 331.048 70.6236 332.831 70.5142ZM-62.1912 73.1455V138.302L-62.1912 158.865L-61.9432 169.27C-64.6266 169.947 -69.3957 168.018 -70.3474 165.305C-70.9273 163.652 -70.6223 161.584 -70.6223 159.856V149.202L-70.6223 93.9558V80.8254C-70.6223 79.0367 -70.9174 76.8359 -69.574 75.4217C-67.6217 73.3665 -64.69 73.7398 -62.1912 73.1455ZM-39.3777 77.357L-52.0243 77.6047V73.3931C-47.8462 73.0637 -40.6213 72.0164 -39.3777 77.357ZM337.542 169.765L337.294 169.517L337.542 155.644V129.383V93.4603L337.294 73.6409C339.66 72.9909 344.385 73.888 345.475 76.3882C346.109 77.8429 345.723 80.0103 345.725 81.5686V92.7171V149.946C345.725 153.652 345.581 157.391 345.744 161.094C345.828 162.999 346.183 165.196 344.884 166.781C343.217 168.815 339.979 169.293 337.542 169.765ZM310.761 76.1183L318.448 83.3028V83.7983L310.761 90.7351L310.513 80.8254L310.761 76.1183ZM327.375 76.1183V91.2306C324.492 89.695 321.065 85.9597 319.192 83.3028L327.375 76.1183ZM-27.7229 165.801H-19.0439V142.761V95.69V82.5596L-19.1303 77.7542L-21.0276 77.357L-27.3576 77.5065L-27.7229 82.5596V98.6629V165.801ZM-1.18978 77.6047C-2.61506 85.1627 -3.40325 92.8369 -4.81387 100.397C-5.14261 102.159 -6.72418 103.434 -6.96373 105.104C-7.56831 109.32 -6.89305 114.202 -6.89305 118.482C-6.89305 124.825 -7.4957 131.493 -6.86701 137.806C-6.68795 139.604 -5.2164 140.98 -4.82696 142.761C-3.24985 149.972 -1.26299 158.191 -0.941613 165.553H50.3889C58.786 165.553 67.5729 166.305 75.9302 165.528C78.7985 165.261 81.7275 164.126 84.5672 163.576C94.6364 161.627 104.636 158.944 114.757 157.308C120.683 156.35 126.975 156.639 132.964 156.377C143.211 155.929 153.437 155.594 163.713 155.644C178.055 155.713 192.832 155.562 207.108 156.925C225.502 158.68 243.53 163.923 261.91 165.759C271.865 166.753 282.402 165.801 292.411 165.801C293.418 158.013 295.33 150.348 296.089 142.513C296.748 135.708 296.131 128.543 296.131 121.703C296.131 114.268 296.716 106.547 295.924 99.1584C295.362 93.9134 294.586 88.7256 293.552 83.5506C293.263 82.1062 293.265 79.0924 292.199 78.0081C291.345 77.1397 288.357 77.6047 287.204 77.6047H272.821C251.927 77.6047 230.972 83.1188 210.332 86.1714C205.216 86.928 200.107 86.8035 194.958 87.0287C183.224 87.542 171.513 87.7433 159.746 87.7622C148.693 87.78 137.567 87.7972 126.517 87.0411C122.414 86.7604 118.195 87.0788 114.118 86.4501C104.239 84.9262 94.3443 81.8187 84.6096 79.5286C82.0947 78.9369 79.483 77.9575 76.9223 77.6504C69.9411 76.8131 62.3841 77.6047 55.3486 77.6047C36.5754 77.6047 17.5572 78.4938 -1.18978 77.6047ZM-39.3772 78.1002L-39.6252 80.8254H-39.8732V78.3479H-51.7759L-51.7759 89.2486L-52.2718 80.8254L-51.6971 78.1778L-48.0563 78.1002H-39.3772ZM-19.5393 165.306H-27.2266V77.8525C-25.581 77.8525 -21.2414 77.0749 -19.937 78.1071C-18.9805 78.8639 -19.5393 82.1816 -19.5393 83.3028V99.1584V165.306ZM-67.3944 78.2619C-70.2554 79.187 -69.8451 87.8947 -65.4154 86.6292C-62.2683 85.7301 -62.6044 76.7132 -67.3944 78.2619ZM-57.7137 78.5787C-59.2663 78.9992 -58.532 81.2247 -56.9979 80.6711C-55.5594 80.152 -56.3156 78.2001 -57.7137 78.5787ZM340.777 78.5319C339.407 79.0896 339.527 80.5871 339.526 81.8164C339.526 84.301 339.8 88.0869 343.483 86.5873C344.931 85.9979 344.734 84.3369 344.734 83.0551C344.734 80.5467 344.385 77.0628 340.777 78.5319ZM-66.8987 78.7033C-63.4425 77.7412 -63.432 85.5621 -65.6684 86.1674C-69.1986 87.1228 -69.1706 79.3358 -66.8987 78.7033ZM332.143 78.7808C330.683 79.4335 331.995 81.193 333.289 80.6721C334.789 80.0686 333.511 78.1689 332.143 78.7808ZM341.758 78.7226C345.179 78.1421 345.259 85.7643 342.745 86.219C339.196 86.8609 339.268 79.1451 341.758 78.7226ZM75.6814 78.8435V79.0912L24.8467 94.7472L5.75282 100.61L-4.41412 103.618C-2.29432 98.2022 -1.97094 91.5419 -1.15813 85.7803C-0.957195 84.3561 -0.957644 80.0062 0.198855 79.0981C1.22762 78.2902 4.2382 78.8435 5.5048 78.8435H19.8873L75.6814 78.8435ZM262.38 78.9509C263.7 79.0033 264.671 81.307 265.225 82.3119C267.305 86.0831 268.78 90.0035 269.702 94.2035C271.74 103.489 270.837 113.483 270.837 122.942C270.837 130.788 271.679 139.263 269.987 146.973C268.96 151.655 267.554 156.318 265.354 160.599C264.664 161.942 263.956 164.492 262.156 164.526C258.355 164.597 254.246 163.29 250.503 162.689C241.165 161.191 231.838 159.566 222.482 158.188C219.169 157.701 215.88 157.094 212.563 156.635C211.551 156.495 209.3 156.486 208.58 155.708C207.829 154.897 207.694 152.977 207.461 151.928C206.752 148.741 205.969 145.506 205.581 142.266C204.835 136.038 205.124 129.706 205.124 123.437C205.124 116.677 204.877 109.858 205.349 103.122C205.623 99.2181 206.543 95.5228 207.441 91.7261C207.707 90.6023 207.709 88.5489 208.722 87.8029C209.706 87.0779 211.633 87.1427 212.811 86.9226C216.339 86.2635 219.927 85.7641 223.474 85.2167C232.322 83.8514 241.177 82.4447 250.007 80.9653C253.876 80.3171 258.465 78.7956 262.38 78.9509ZM291.418 164.562C284.763 165.797 277.11 164.81 270.341 164.81C268.357 164.81 266.07 164.434 264.141 164.81C263.984 162.452 266.622 159.128 267.514 156.882C269.554 151.746 270.768 146.514 271.29 141.027C272.047 133.084 271.333 124.73 271.333 116.748C271.333 109.945 272.054 102.634 270.672 95.9377C269.9 92.1993 268.825 88.4859 267.171 85.037C266.201 83.0155 264.45 80.9853 263.894 78.8435H283.731C285.379 78.8435 289.672 78.0732 290.99 79.0981C292.105 79.965 292.098 83.2269 292.361 84.5416C293.451 89.9888 294.509 95.5821 294.646 101.14C294.957 113.793 295.735 126.89 294.868 139.54C294.294 147.916 291.777 156.222 291.418 164.562ZM75.4336 79.8344C72.8094 86.9956 67.5996 93.059 65.7726 100.645C64.4408 106.175 65.2668 112.573 65.2668 118.235C65.2668 126.737 63.9085 136.534 66.3673 144.743C68.4427 151.672 72.9326 157.288 75.6817 163.819C69.2311 162.947 62.2763 159.717 56.0917 157.644C43.4267 153.4 30.5879 149.669 17.9038 145.486C12.3824 143.665 6.84988 141.873 1.28959 140.176C-0.99417 139.479 -3.28671 138.403 -5.65372 138.054V123.437C-4.22487 123.499 -1.72321 124.877 -0.45602 124.227C2.90777 122.501 3.38068 117.408 -0.703967 116.178C-1.97443 115.795 -4.17956 116.852 -5.40569 117.244L-5.65372 107.829L-5.07889 104.573L2.03351 102.254L18.8957 97.0713L58.5715 84.8585L75.4336 79.8344ZM74.9377 82.0641C74.4994 86.4624 72.6852 90.7389 72.2521 95.1945C71.6132 101.768 72.1201 108.418 71.9584 115.014C71.7045 125.37 70.7399 136.157 71.7561 146.477C72.2654 151.649 74.0311 156.558 75.1857 161.59H74.9377C70.9842 155.136 67.0662 147.833 65.8432 140.284C64.6623 132.994 65.7627 124.636 65.7627 117.244C65.7627 112.583 65.1789 107.487 65.8371 102.875C66.4861 98.3264 68.741 94.1049 70.6458 89.9919C71.8475 87.3972 73.108 84.2703 74.9377 82.0641ZM326.383 91.4783H311.256L316.712 85.7803L318.944 84.2743L321.175 86.028L326.383 91.4783ZM241.328 84.6467C233.555 85.6663 225.887 87.1318 218.266 89.0323C216.372 89.5047 211.888 89.6912 210.544 91.1314C209.78 91.949 209.704 93.8841 209.488 94.9467C208.841 98.1343 208.101 101.337 208.1 104.609V138.302C208.1 141.715 208.628 145.104 209.234 148.459C209.42 149.487 209.397 151.456 210.229 152.192C211.02 152.891 212.562 152.962 213.555 153.167C216.042 153.682 218.518 154.302 220.994 154.871C229.762 156.885 238.515 158.617 247.527 158.617C249.826 158.617 252.438 158.965 254.704 158.58C256.391 158.293 255.462 154.429 255.462 153.166V135.824V97.4242C255.462 94.2887 255.393 91.1445 255.462 88.0099C255.482 87.1657 256.03 85.4331 255.269 84.7962C254.503 84.1553 252.435 84.5415 251.491 84.5415C248.159 84.5415 244.629 84.2132 241.324 84.6467M206.856 87.7622L203.89 103.122L203.88 124.676L203.923 140.036L206.856 155.891L197.433 155.386L179.331 154.9L142.631 154.663L114.858 156.139L112.897 142.266L112.874 124.18L112.884 101.636L114.858 87.7622L146.847 88.9973L183.299 88.5091L206.856 87.7622ZM-51.7803 89.9919V91.2306H-52.0282L-51.7803 89.9919ZM-50.2925 91.7261L-50.2925 151.928H-51.7803L-52.0282 91.7261H-50.2925ZM-49.2219 91.8767C-47.5623 91.0953 -47.5652 93.2208 -47.5647 94.2035V103.865L-47.5647 140.284V148.955C-47.5647 149.74 -47.266 151.316 -48.1393 151.743C-49.6762 152.494 -49.7945 150.688 -49.7965 149.698V141.027L-49.7965 104.856V95.1945C-49.7965 94.3487 -50.1714 92.3238 -49.2219 91.8767ZM-47.0688 151.928L-47.0688 91.7261L-45.0919 92.1233L-44.837 95.1945V102.875V139.293L-44.837 148.211L-45.0919 151.53L-47.0688 151.928ZM-39.8776 91.7261V99.4061C-43.2758 100.75 -42.6052 105.127 -42.6052 108.077V133.842C-42.6052 136.949 -43.749 142.263 -39.6295 143.009L-39.3816 151.68C-40.3146 151.955 -43.3909 152.436 -44.0899 151.528C-44.6599 150.787 -44.3411 149.094 -44.3411 148.211V139.788L-44.3411 103.37V94.9467C-44.3411 94.1661 -44.6427 92.534 -43.9435 91.9807C-43.0981 91.3118 -40.9109 91.7261 -39.8776 91.7261ZM315.716 92.4693C316.713 95.837 315.965 100.353 315.965 103.865C312.896 103.902 313.981 108.014 313.981 110.307V131.613C313.981 133.997 312.781 139.007 315.965 139.045V151.184L310.907 150.93L310.509 147.22V136.815V92.7171L315.716 92.4693ZM323.9 92.4693V106.591V135.081L324.148 150.937L316.46 151.184V139.045C319.147 138.84 318.196 134.588 318.196 132.604V111.298C318.196 109.219 319.254 104.078 316.46 103.865V95.69L316.858 92.7239L323.9 92.4693ZM327.123 92.4693L327.371 98.9106V111.05V151.184H324.644V106.343V96.4332L324.898 92.8667L327.123 92.4693ZM135.192 100.502C132.047 100.92 129.149 101.891 127.513 104.856C126.163 107.305 126.513 110.09 126.513 112.784V127.649C126.513 131.43 125.583 136.529 127.911 139.788C131.032 144.157 136.686 143.504 141.391 143.504C143.338 143.504 145.413 143.705 147.342 143.43C158.117 141.892 155.526 129.684 155.526 121.703C155.526 116.977 156.893 109.684 154.841 105.352C151.806 98.9458 141.103 99.7173 135.192 100.502ZM135.192 100.963C140.83 100.29 151.15 99.404 154.157 105.352C156.393 109.773 155.03 117.095 155.03 121.951C155.03 128.436 157.555 141.489 148.334 142.716C142.706 143.466 131.839 144.778 128.306 139.251C126.258 136.045 127.009 131.517 127.009 127.897V114.518C127.009 107.949 127.238 101.914 135.192 100.963ZM317.7 104.609V138.302L314.725 138.549L314.477 127.649V104.609H317.7ZM-58.2906 106.845C-59.4263 107.771 -57.698 109.421 -56.6041 108.423C-55.4847 107.402 -57.3246 106.058 -58.2906 106.845ZM332.14 106.778C330.702 107.4 331.975 109.398 333.286 108.753C334.76 108.027 333.507 106.188 332.14 106.778ZM186.77 115.262C188.038 117.862 191.801 120.122 193.962 122.021C194.994 122.929 195.796 123.9 197.185 124.18L190.843 118.481L186.77 115.262ZM-5.16124 122.198V118.235C-3.89256 117.944 -1.92645 116.915 -0.701362 117.651C1.49254 118.968 1.60263 122.247 -1.19734 122.997C-2.36522 123.31 -4.0191 122.46 -5.16124 122.198ZM-57.4827 134.577C-58.9072 134.665 -58.9645 136.742 -57.4827 136.742C-55.8996 136.742 -55.8466 134.476 -57.4827 134.577ZM332.139 134.773C330.671 135.405 331.925 137.411 333.286 136.726C334.754 135.986 333.496 134.189 332.139 134.773ZM-4.66527 138.549L5.0057 141.777L23.3557 147.653L74.6862 164.067V164.315H21.372H6.74149C5.12413 164.315 2.10218 164.901 0.649673 164.165C-0.506751 163.579 -0.550866 159.57 -0.759685 158.369C-1.64949 153.253 -2.71396 148.149 -3.45796 143.009C-3.65978 141.614 -5.02049 139.847 -4.66527 138.549ZM326.875 152.175C325.752 154.581 323.025 156.277 321.172 158.121C320.609 158.682 319.819 159.786 318.941 159.808C318.031 159.831 317.18 158.642 316.597 158.069C314.898 156.399 311.743 154.47 311.005 152.175H326.875ZM-39.6295 152.423L-39.3816 164.562C-42.7525 165.558 -47.2723 164.81 -50.7884 164.81V164.562H-39.8776C-39.8776 161.147 -40.9461 155.558 -39.6295 152.423ZM311.005 153.166C313.293 155.452 317.069 157.9 318.444 160.846L310.757 167.783L310.509 157.13L311.005 153.166ZM327.371 153.166V168.031C325.087 166.967 320.127 162.561 319.436 160.103L327.371 153.166ZM-67.1537 156.797C-70.2335 157.737 -69.9594 166.625 -65.4199 165.246C-62.3076 164.301 -62.7341 155.449 -67.1537 156.797ZM341.011 157.066C338.071 158.205 338.667 166.946 343.237 165.342C346.14 164.323 345.654 155.268 341.011 157.066ZM-65.6716 157.363C-63.529 157.789 -63.2996 165.432 -66.8957 164.753C-69.188 164.321 -69.2177 156.658 -65.6716 157.363ZM341.272 157.505C345.176 156.245 345.288 164.13 342.979 164.855C339.237 166.031 339.312 158.138 341.272 157.505ZM-3.92135 196.274V196.521L7.98138 197.512C6.77021 199.638 6.02874 204.884 3.94569 206.176C2.87645 206.84 1.20486 206.244 0.0462028 206.193C-2.88224 206.065 -7.98956 205.301 -10.5934 206.779C-13.3096 208.32 -12.5522 212.751 -12.9229 215.35C-13.1081 216.649 -13.5177 217.826 -12.6305 218.991C-11.4351 220.56 -8.73236 220.902 -6.89703 221.048L-3.51115 227.737L-1.85682 229.817L3.51786 229.967H16.4125C18.3429 214.786 29.9546 203.063 45.9213 205.549C53.7971 206.775 60.3053 211.189 63.9964 218.323C65.4423 221.117 66.2818 223.942 66.9694 226.994C67.1627 227.851 67.0259 229.575 68.0476 229.888C71.5765 230.969 76.9356 229.967 80.6376 229.967H108.907L202.145 229.967C203.614 222.852 206.569 216.121 212.064 211.18C220.246 203.824 233.995 203.03 242.387 210.523C246.334 214.047 249.022 218.389 250.945 223.278C251.472 224.618 252.035 229.203 253.305 229.817C255.398 230.83 259.407 229.827 261.658 229.729C268.228 229.441 274.98 230.555 281.496 229.925C283.898 229.692 285.724 228.83 286.699 226.498C287.243 225.197 287.356 223.433 288.352 222.365C289.857 220.752 292.18 221.488 293.509 219.066C294.99 216.365 294.759 210.572 292.146 208.571C289.703 206.701 285.471 206.245 282.488 206.183L283.976 195.035L291.663 196.026C295.709 188.809 282.546 186.482 278.025 185.459C272.979 184.319 267.541 184.014 262.65 182.291C246.702 176.673 231.959 167.019 215.287 163.571C194.866 159.347 174.501 159.328 153.79 159.36C142.212 159.378 129.278 158.479 118.082 161.945C114.902 162.93 111.903 164.855 108.907 166.291C102.604 169.31 96.2433 172.278 90.0606 175.537C83.8097 178.832 77.9259 182.237 70.9666 183.781C46.4552 189.22 18.8872 183.793 -3.92135 196.274ZM150.318 206.679L141.639 206.431H125.521H73.6944C73.6944 200.722 74.2104 195.086 75.8209 189.585C76.43 187.504 77.0031 184.933 78.3974 183.211C79.3267 182.064 81.3314 181.515 82.6214 180.849C85.6882 179.268 88.709 177.599 91.7964 176.057C97.0786 173.42 102.388 170.849 107.667 168.212C111.181 166.457 114.824 164.228 118.578 163.048C122.2 161.91 125.994 161.656 129.736 161.3C135.532 160.749 141.276 160.737 147.095 160.595C148.564 160.559 152.156 159.604 153.392 160.606C154.057 161.145 153.571 162.596 153.545 163.324C153.448 165.966 153.172 168.611 153.056 171.252C152.702 179.314 151.621 187.256 150.856 195.283C150.512 198.891 151.343 203.215 150.318 206.679ZM152.054 206.679C151.349 203.719 152.074 200.268 152.28 197.265C152.827 189.285 154.234 181.236 154.286 173.234C154.306 170.152 154.491 166.881 154.853 163.819C154.946 163.025 154.771 161.416 155.285 160.783C155.863 160.069 157.449 160.351 158.253 160.351H166.188C171.923 160.351 177.587 160.587 183.299 160.837C186.229 160.965 190.199 160.558 192.97 161.544C195.354 162.393 197.525 164.544 199.417 166.155C206.624 172.289 213.404 179.449 218.969 187.107C220.893 189.754 223.976 194.271 221.608 197.509C219.494 200.4 214.629 201.723 211.568 203.401C210.021 204.249 208.528 206.02 206.853 206.51C205.605 206.874 203.941 206.431 202.641 206.431H192.474H165.445C161.207 206.431 156.18 205.697 152.054 206.679ZM327.371 170.013L321.668 172.589L318.196 171.578L310.757 168.774C312.234 166.68 314.407 165.126 316.212 163.324C316.846 162.691 317.733 161.435 318.692 161.322C319.637 161.211 320.538 162.435 321.149 163.002C323.093 164.805 326.952 167.3 327.371 170.013ZM81.6295 185.373H149.574L151.558 161.837C141.889 161.837 131.493 161.424 122.049 163.793C113.498 165.939 104.959 170.975 97.2519 175.139C93.4802 177.177 89.6857 179.183 86.0931 181.532C84.5009 182.573 82.5623 183.665 81.6295 185.373ZM290.919 194.787C289.18 194.567 284.554 193.109 283.063 194.054C282.183 194.612 282.312 196.593 282.202 197.512C281.834 200.571 281.387 203.623 281 206.679H259.179C255.821 206.679 251.756 207.307 248.474 206.584C245.934 206.025 243.348 203.351 240.829 202.332C234.254 199.671 226.351 199.21 219.503 200.981C220.647 198.965 223.171 198.434 223.637 195.778C224.37 191.6 220.653 187.39 218.264 184.382C214.287 179.377 210.072 174.388 205.359 170.051C202.704 167.608 197.993 164.897 196.193 161.837C213.063 162.185 228.363 168.916 243.556 175.431C251.604 178.882 259.438 183.106 268.106 184.726C274.082 185.843 280.232 186.736 285.96 188.855C288.818 189.912 291.311 191.473 290.919 194.787ZM156.022 185.373H212.808C212.16 182.122 208.637 178.736 206.608 176.206C202.763 171.412 198.117 165.595 192.226 163.265C186.274 160.91 178.176 162.085 171.892 162.085C168.5 162.085 165.108 162.326 161.729 162.206C160.624 162.166 158.333 161.61 157.411 162.34C156.53 163.037 156.797 167.144 156.769 168.279C156.627 173.982 156.022 179.659 156.022 185.373ZM-58.1488 162.835C-59.405 163.674 -57.9615 165.244 -56.7777 164.554C-55.3442 163.72 -56.9198 162.015 -58.1488 162.835ZM332.12 162.84C330.625 163.664 332.183 165.511 333.492 164.693C334.795 163.879 333.333 162.171 332.12 162.84ZM200.905 163.819C202.034 165.749 204.478 167.259 206.112 168.78C210.189 172.575 214.321 176.321 218.511 179.993C220.398 181.647 222.76 184.496 225.206 185.247C228.505 186.26 232.702 185.621 236.117 185.621H257.939C256.783 184.277 254.794 183.617 253.227 182.829C250.566 181.49 247.913 180.081 245.292 178.664C235.9 173.589 226.295 169.664 216.031 166.757C211.135 165.371 206.017 163.819 200.905 163.819ZM-51.7803 169.517C-51.7803 168.568 -52.2081 166.214 -51.3827 165.56C-50.7754 165.08 -49.5263 165.306 -48.8046 165.306H-42.3573C-41.6494 165.306 -40.3715 165.074 -39.7829 165.56C-38.9805 166.223 -39.9072 167.696 -40.4292 168.226C-41.9791 169.798 -44.5602 169.517 -46.5729 169.517H-51.7803ZM76.67 183.639C74.4441 189.059 73.2159 194.428 72.5253 200.238C72.2744 202.347 72.6055 204.636 72.2065 206.679C69.1374 205.949 65.4506 207.369 62.5355 206.466C60.3631 205.794 58.4496 203.693 56.3362 202.722C50.8963 200.224 44.9364 199.357 38.978 199.764C34.7726 200.052 30.3078 201.008 26.5794 203.04C24.6718 204.08 22.8915 206.027 20.876 206.746C19.4309 207.262 17.4347 206.927 15.9165 206.927H5.74962L9.46922 196.026L0.542176 195.778L5.25365 193.584L19.3881 190.266L54.8484 187.065L68.4869 185.469L76.67 183.639ZM135.118 195.042C134.134 195.785 134.341 197.874 135.473 198.354C137.384 199.164 140.811 198.503 142.879 198.503C143.612 198.503 144.808 198.72 145.432 198.249C146.416 197.506 146.209 195.416 145.078 194.937C143.167 194.127 139.74 194.787 137.672 194.787C136.939 194.787 135.742 194.571 135.118 195.042ZM203.987 195.042C203.007 195.706 203.072 197.855 204.185 198.354C206.094 199.209 209.729 198.503 211.816 198.503C212.527 198.503 213.567 198.676 214.188 198.249C215.106 197.618 215.037 195.408 213.991 194.937C212.087 194.079 208.443 194.787 206.36 194.787C205.645 194.787 204.613 194.617 203.987 195.042ZM54.8484 195.035C54.697 195.85 54.3901 196.927 54.893 197.682C55.4892 198.577 58.8554 198.599 59.6585 197.964C61.883 196.204 58.6099 195.035 57.3284 195.035H54.8484ZM70.719 220.057C69.5745 220.057 67.3841 220.48 66.4134 219.803C65.2009 218.956 64.4265 216.359 63.6031 215.102C61.9275 212.546 59.6515 210.146 57.0804 208.473C47.973 202.548 34.2622 202.394 25.5878 209.284C21.8464 212.256 19.5475 216.138 17.4046 220.305L13.4371 220.057C15.611 212.404 20.75 206.091 28.0675 202.792C43.3248 195.916 66.5706 202.151 70.719 220.057ZM256.699 220.057C255.21 220.057 252.698 220.545 251.341 219.908C250.376 219.455 249.809 217.711 249.294 216.836C248.189 214.959 246.81 213.192 245.289 211.634C241.102 207.346 235.566 204.231 229.422 204.202C222.353 204.168 216.257 205.834 210.846 210.578C208.962 212.23 207.344 214.225 206.011 216.341C205.379 217.343 204.805 219.154 203.784 219.803C202.786 220.436 200.81 220.057 199.665 220.057C200.273 217.502 201.862 215.041 203.302 212.873C215.799 194.064 250.471 196.836 256.699 220.057ZM41.7061 207.074C36.2167 207.272 30.5667 209.207 26.622 213.162C19.1488 220.655 20.448 232.92 29.0594 238.942C33.6825 242.176 38.9033 243.082 44.4338 242.84C47.0728 242.724 49.7373 241.89 52.1209 240.791C54.3042 239.784 56.39 238.326 58.009 236.547C59.5037 234.905 60.7536 233.025 61.5879 230.958C66.7644 218.132 54.0899 206.627 41.7061 207.074ZM73.9426 220.057H71.2149C69.9836 214.742 66.276 211.424 63.2798 207.175L69.7271 207.171L72.0572 207.191L72.5977 210.395L73.9426 220.057ZM150.318 206.927L152.054 220.057L75.1825 220.057L73.6946 207.174H124.777H141.143L150.318 206.927ZM206.36 207.422C203.725 209.719 201.83 212.802 200.181 215.845C199.626 216.869 198.907 219.397 197.832 219.908C195.501 221.015 190.597 220.057 188.01 220.057H163.957H156.518C155.743 220.057 154.342 220.316 153.692 219.802C153.057 219.301 153.083 217.59 152.951 216.836C152.437 213.912 151.56 209.847 152.054 206.927L165.445 207.174H191.978L201.897 207.174L206.36 207.422ZM224.711 207.281C221.529 207.736 218.54 208.679 215.783 210.352C206.452 216.015 204.136 228.58 211.838 236.652C216.579 241.621 224.19 243.732 230.91 242.775C233.824 242.36 236.829 241.406 239.341 239.861C241.464 238.554 243.314 236.912 244.821 234.922C245.996 233.372 246.948 231.582 247.514 229.719C251.67 216.064 237.322 205.477 224.711 207.281ZM257.195 220.057C255.923 214.707 252.017 211.437 249.012 207.175C259.344 207.175 269.677 207.125 280.009 207.175C283.161 207.19 289.562 207.304 291.731 209.994C293.37 212.027 293.952 219.143 290.67 219.979C287.512 220.783 283.271 220.057 280.009 220.057H257.195ZM20.1324 207.422C17.7488 211.23 13.1565 215.132 13.1891 220.057H-1.44134C-4.20032 220.057 -7.51248 220.333 -10.1195 219.262C-10.8117 218.978 -11.5233 218.559 -11.7485 217.802C-12.0614 216.749 -11.5824 215.642 -11.4347 214.607C-11.1309 212.477 -12.0036 209.286 -9.85888 207.854C-7.97943 206.599 -3.64543 207.422 -1.44134 207.422H20.1324ZM17.1567 220.553L15.1729 228.728H3.27013C2.02466 228.728 -0.260515 229.164 -1.34456 228.474C-3.24088 227.266 -4.80907 222.774 -5.90486 220.801L1.78229 220.553H17.1567ZM77.4142 228.728H68.4872L66.7514 220.553C68.4568 220.553 72.4027 219.816 73.8161 220.807C74.5037 221.29 74.685 222.531 74.9345 223.278C75.5838 225.222 76.6403 226.865 77.4142 228.728ZM153.542 228.728L94.2765 228.728H83.8616C82.5457 228.728 80.6017 229.082 79.399 228.474C77.0222 227.272 75.7858 223.014 75.6785 220.553H134.448H147.095L151.908 220.807L152.583 223.03L153.542 228.728ZM197.681 220.553C197.428 222.242 196.189 227.465 194.792 228.474C194.058 229.004 192.587 228.728 191.73 228.728H184.291H155.03L153.542 220.801C157.671 219.581 163.365 220.553 167.677 220.553H197.681ZM203.633 220.801L200.765 228.474L196.442 228.728C197.064 224.574 198.588 219.311 203.633 220.801ZM287.944 220.553C286.799 222.589 285.92 226.725 283.966 228.052C281.839 229.496 277.739 228.728 275.297 228.728H253.971L251.492 220.801C254.931 219.785 259.56 220.553 263.146 220.553H287.944Z" fill="#304A6E"/>
</svg>
