<svg width="81" height="72" viewBox="0 0 81 72" fill="none" xmlns="http://www.w3.org/2000/svg">
<rect width="81" height="72" fill="#1A1E26"/>
<rect x="-449" y="-305" width="980" height="753" rx="4" fill="white"/>
<path d="M161.811 -32.0268C160.83 -36.937 159.437 -41.4077 155.888 -45.1273C149.172 -52.1658 137.752 -52.021 131.29 -44.6726C126.619 -39.3606 125 -31.925 126.375 -25.0836C127 -21.9747 128.233 -18.9197 130.182 -16.4045C131.614 -14.5556 133.143 -12.963 135.183 -11.7759C146.853 -4.98234 159.426 -13.6278 161.479 -26.0755C161.805 -28.0491 162.214 -30.0129 161.811 -32.0268ZM161.763 153.209C160.321 147.455 158.767 142.215 153.763 138.458C145.609 132.338 134.602 135.2 129.259 143.538C125.919 148.751 125.124 155.465 126.604 161.393C128.601 169.383 135.415 176.454 144.101 176.239C153.386 176.009 159.813 168.253 161.423 159.657C161.816 157.56 162.297 155.34 161.763 153.209ZM125.273 -67.4871L116.106 -64.0154L115.633 -71.9506L115.115 -75.9182C103.296 -51.6908 108.31 -24.5509 102.261 0.953631C101.05 6.05938 98.4075 10.4925 95.9849 15.0881C92.3749 21.9361 89.039 28.9509 85.6684 35.9179C84.1124 39.1341 82.0168 42.4239 80.9492 45.8368C77.3583 57.3169 78.2017 70.6484 78.2017 82.5369C78.2017 97.4657 78.4111 112.08 79.894 126.924C80.7347 135.34 81.9237 144.276 84.9383 152.217C89.89 165.262 96.8998 177.659 101.269 190.901C103.033 196.248 103.385 202.05 104.682 207.516C105.969 212.945 107.577 221.845 114.868 219.914L113.877 211.979C116.465 211.341 119.171 211.225 121.804 210.844C122.635 210.723 124.16 210.206 124.841 210.89C125.848 211.9 125.596 215.271 126.017 216.69C127.45 221.521 132.337 223.69 137.164 221.866C138.323 221.428 139.651 220.555 140.186 219.395C140.726 218.223 140.421 216.819 141.651 216.049C143.584 214.838 146.074 215.03 147.622 213.147C149.267 211.145 148.808 208.188 148.808 205.78L148.808 188.669C148.808 186.696 149.51 183.092 148.659 181.305C148.053 180.032 143.464 179.463 142.119 178.951C137.555 177.213 133.061 174.469 129.774 170.815C121.924 162.087 122.634 148.031 130.498 139.571C135.303 134.4 142.006 131.552 148.808 130.148V36.9096V8.64064C148.808 4.93859 149.81 -0.420389 148.73 -3.94933C148.415 -4.97601 146.699 -4.86695 145.835 -5.01871C142.981 -5.52064 140.241 -6.49421 137.66 -7.78685C130.893 -11.1756 125.986 -17.3028 124.644 -24.8358C121.725 -41.227 132.932 -53.5322 148.808 -55.5845V-68.7271C148.808 -70.1704 149.321 -72.8536 148.554 -74.1173C147.176 -76.3862 142.728 -77.2113 140.666 -78.854C139.034 -80.1536 139.647 -82.8963 138.113 -84.4563C136.952 -85.6375 135.604 -85.0419 134.192 -84.8884C131.507 -84.5966 127.407 -85.2358 125.704 -82.6098C124.839 -81.2762 125.025 -79.4146 125.025 -77.9021C125.025 -74.4217 125.273 -70.9729 125.273 -67.4871ZM147.57 -56.8244L139.394 -54.8406L139.642 -77.6542C141.568 -77.044 146.498 -74.9467 147.487 -73.1378C148.145 -71.9344 147.817 -69.5837 147.817 -68.2311C147.817 -64.4181 147.57 -60.6246 147.57 -56.8244ZM147.817 5.41701L142.119 2.9024L139.667 1.81889L139.394 -5.24583L147.57 -3.51004L147.817 5.41701ZM147.817 81.5449L139.394 80.057C140.685 60.7839 139.642 41.1076 139.642 21.7833C139.642 17.2021 140.001 12.4458 139.465 7.89672C139.359 7.00141 138.913 4.00861 140.194 3.80574C141.062 3.66827 142.297 4.27903 143.11 4.55309C144.53 5.03173 146.559 5.7726 147.315 7.17519C147.894 8.24882 147.802 10.4003 147.816 11.6163C147.855 14.839 147.817 18.0644 147.817 21.2873V61.707C147.817 68.2398 147.243 75.0457 147.817 81.5449ZM139.394 125.684L139.642 105.35L139.394 81.7929L139.642 81.5449L147.569 83.0327C147.57 92.5157 147.817 102.046 147.817 111.55C147.817 114.428 148.899 120.09 147.459 122.64C146.614 124.137 141.048 125.515 139.394 125.684ZM147.569 129.156L139.394 131.388V127.42L147.569 124.444V129.156ZM139.642 215.947V208.011V190.901L139.642 179.494L147.569 181.974L147.569 203.3C147.569 205.758 148.328 209.783 147.005 211.956C145.614 214.24 141.658 214.204 139.642 215.947ZM138.898 -58.8081C133.575 -58.3429 130.647 -53.9911 126.264 -51.8649C126.264 -59.1499 126.275 -66.4342 126.264 -73.6865C126.26 -75.8895 125.452 -80.182 126.781 -82.0488C128.107 -83.9109 131.533 -83.1953 133.448 -83.4006C134.429 -83.5057 135.419 -83.9552 136.417 -83.7932C137.243 -83.6592 137.73 -83.094 138.065 -82.3618C139.552 -79.1117 138.936 -75.1289 138.899 -71.7028C138.855 -67.5476 139.57 -62.8827 138.898 -58.8081ZM138.899 -1.27828C120.927 -5.54117 114.442 -29.4362 122.005 -44.6736C125.52 -51.7559 131.522 -56.1578 138.899 -58.5602C140.16 -53.4147 134.741 -52.582 131.466 -49.7749C127.52 -46.3924 124.772 -41.8455 123.703 -36.7385C122.045 -28.8167 123.371 -19.8608 128.494 -13.429C130.308 -11.1519 132.473 -9.32601 134.935 -7.78237C136.02 -7.10176 138.156 -6.50053 138.842 -5.3909C139.425 -4.44798 139.183 -2.28555 138.899 -1.27828ZM139.146 1.94535L125.768 0.209563C126.381 -2.36455 126.381 -6.14337 125.768 -8.71749L130.971 -4.60792L139.146 -0.534358V1.94535ZM126.016 78.5692V1.6974L135.43 2.68927L138.86 3.75635L138.921 8.64064L138.899 19.7994V62.451V75.0976L138.879 79.6506L135.678 79.632L126.016 78.5692ZM126.016 134.116V80.0573L135.678 80.9882L138.841 81.6948L138.902 84.5208L138.898 91.7121V116.509L138.92 122.709L138.87 125.829L134.687 128.226L126.016 134.116ZM138.898 184.702C115.514 178.314 112.84 142.873 132.457 130.845C134.436 129.632 136.626 128.213 138.898 127.668C138.99 128.836 139.53 130.499 138.892 131.583C138.26 132.655 136.443 133.221 135.43 133.887C133.291 135.294 131.244 136.924 129.526 138.827C124.922 143.929 122.88 150.355 123.047 157.177C123.201 163.499 126.27 169.219 130.727 173.535C132.27 175.03 134.082 176.301 135.926 177.399C136.802 177.921 138.104 178.295 138.739 179.13C139.415 180.017 139.21 183.608 138.898 184.702ZM126.016 177.015L131.962 181.866L139.146 185.446C137.714 193.169 138.886 202.137 138.899 209.996C138.902 212.373 140.111 217.125 138.749 219.16C137.02 221.743 130.933 221.509 128.774 219.591C127.628 218.573 127.167 216.652 126.871 215.203C125.788 209.902 126.016 204.462 126.016 199.085V177.015ZM125.52 0.209858L112.142 1.57354L102.48 4.42543C107.168 -13.1278 106.157 -31.4929 108.642 -49.3849C109.374 -54.6617 110.429 -59.9066 111.964 -65.0072C112.588 -67.079 113.095 -69.689 114.372 -71.4545C115.087 -69.0318 115.351 -65.0079 114.867 -62.5274C118.164 -62.3282 122.693 -65.3011 125.768 -66.4951L125.768 -56.0802C125.768 -54.5742 126.116 -52.5561 125.622 -51.1207C124.965 -49.2095 123.065 -47.5065 122.116 -45.6653C119.839 -41.2478 118.644 -36.2543 118.585 -31.2828C118.523 -26.1298 119.253 -20.888 121.386 -16.1564C122.427 -13.8477 124.573 -11.8016 125.375 -9.46111C126.293 -6.77667 125.52 -2.62716 125.52 0.209858ZM125.52 78.5695L79.4403 81.7932C79.4403 70.6256 78.7377 58.449 81.6736 47.5728C82.5414 44.3579 84.3424 41.3664 85.8149 38.3978C88.2283 33.532 90.5762 28.6293 93.0049 23.7674C95.1609 19.4514 97.2206 15.0659 99.6118 10.8727C100.41 9.47331 100.964 7.21365 102.298 6.24864C108.309 1.89856 118.444 1.6977 125.52 1.6977V78.5695ZM125.371 80.4128C125.974 81.6019 125.52 83.9485 125.52 85.2648V97.1675V122.957C125.52 126.526 126.403 131.439 125.393 134.86C124.836 136.748 122.944 138.33 122.001 140.067C120.325 143.151 118.995 148.437 115.611 150.054C112.005 151.777 107.387 148.015 104.71 145.986C99.2983 141.885 94.3883 137.175 89.5977 132.38C86.5014 129.28 82.8837 125.65 80.8571 121.717C79.6371 119.349 80.1386 116.109 79.8937 113.534C79.2263 106.514 79.1925 99.5139 79.1925 92.456V85.7607C79.1928 85.0484 78.9912 83.8005 79.6242 83.2879C80.5489 82.539 83.4653 82.8288 84.6429 82.7753C88.9157 82.5811 93.2666 82.4047 97.5255 81.999C104.606 81.3246 111.705 80.0693 118.831 80.0573C120.149 80.0573 124.651 78.9925 125.371 80.4128ZM112.638 210.739L113.629 218.923C109.766 218.922 108.394 216.153 107.333 212.723C105.546 206.945 104.673 201.025 103.47 195.117C101.721 186.527 97.3898 178.565 93.9145 170.568C87.3817 155.535 81.3924 140.582 80.679 123.949C83.812 126.369 86.4017 130.591 89.1299 133.539C93.4581 138.216 98.4365 142.463 103.41 146.432C106.401 148.818 111.718 153.245 115.858 151.283C117.544 150.485 118.433 148.864 119.575 147.506C119.769 148.818 119.193 150.145 119.101 151.474C118.854 155.067 118.739 158.82 119.404 162.385C120.042 165.809 121.248 168.981 122.859 172.056C123.589 173.45 124.95 174.768 125.393 176.271C125.893 177.964 125.52 180.217 125.52 181.974V193.629V204.788C125.52 205.811 125.932 208.012 125.266 208.854C124.716 209.548 122.632 209.427 121.804 209.5C118.806 209.762 115.561 210.035 112.638 210.739ZM119.691 179.247C119.058 176.505 115.68 174.992 113.392 176.865C111.721 178.232 111.354 180.469 111.909 182.47C112.673 185.226 116.079 186.436 118.29 184.564C119.775 183.306 120.112 181.069 119.691 179.247ZM117.409 63.7179C117.08 62.1869 114.364 62.0955 113.778 63.4762C113.047 65.2014 113.047 71.3558 113.778 73.081C114.329 74.3802 116.805 74.3935 117.327 73.0587C117.64 72.26 117.355 71.2221 117.346 70.3866C117.322 68.3326 117.834 65.7026 117.409 63.7179ZM117.445 132.413C117.015 131.006 114.439 130.892 113.813 132.201C112.942 134.02 113.629 137.568 113.629 139.571C113.629 140.301 113.463 141.302 113.778 141.982C114.368 143.251 116.857 143.006 117.333 141.776C117.66 140.931 117.37 139.949 117.349 139.075C117.301 137.088 118.017 134.287 117.445 132.413ZM117.097 -17.148C116.282 -17.2994 115.206 -17.6062 114.451 -17.1033C113.534 -16.4929 113.526 -13.0866 114.274 -12.3379C116.243 -10.3666 117.097 -13.2735 117.097 -14.668V-17.148ZM82.6609 128.909C82.7051 134.247 84.3752 139.704 85.9102 144.779C88.8136 154.379 92.391 163.122 96.9662 172.056C99.262 176.539 101.234 182.327 104.462 186.191C105.075 182.622 104.71 178.658 104.71 175.032C104.71 170.277 105.043 165.376 104.534 160.649C104.26 158.106 105.014 155.134 103.946 152.714C103.039 150.66 101.01 148.922 99.5459 147.259C96.606 143.92 93.6628 140.564 90.5983 137.34C88.148 134.762 85.7492 130.679 82.6609 128.909ZM104.215 9.63347C102.761 10.3704 101.827 12.027 100.931 13.3531C98.8842 16.3823 97.0619 19.5664 95.3159 22.776C90.5552 31.5274 84.9509 41.0629 82.5309 50.7971C81.544 54.7669 81.4494 58.8937 81.1525 62.9477C80.8526 67.0422 80.679 71.2405 80.679 75.3464C80.679 76.2809 80.2534 78.6609 81.0762 79.3069C82.1335 80.137 86.0643 79.2444 87.368 79.0661C92.9479 78.3012 98.6248 78.2853 104.215 77.5782V9.63347ZM103.967 83.7775C98.7478 85.0212 92.4861 84.5437 87.1203 84.7792C85.971 84.8298 81.8878 84.5222 81.1813 85.415C80.4308 86.3635 81.1173 88.3958 81.1647 89.4809C81.3173 92.9699 80.9267 96.4193 80.9267 99.8958C80.9267 106.05 79.9399 113.848 82.0136 119.734C84.2504 126.082 90.7897 131.5 96.039 135.359C98.4771 137.152 101.235 140.038 104.215 140.811V101.88V89.9769L103.967 83.7775ZM42.0311 275.461C45.5667 274.618 49.7989 275.213 53.4273 275.213H75.7241C78.6872 275.213 82.2475 275.751 85.1383 275.082C89.7636 274.012 88.3925 269.206 89.7472 266.075C90.265 264.878 91.8438 264.789 92.3246 263.31C92.8204 261.786 92.7514 259.555 92.0627 258.103C91.6481 257.229 90.5386 256.398 90.5774 255.375C90.6559 253.308 92.8567 251.519 93.0743 249.424C93.3412 246.855 90.0385 242.53 88.9149 240.249C88.5017 239.41 88.0934 238.053 87.2713 237.528C86.0103 236.723 83.1306 237.273 81.6699 237.273H67.5486H14.0361H-1.57166C-3.02651 237.273 -6.14876 236.682 -7.3766 237.528C-8.21111 238.103 -8.39208 239.609 -8.73422 240.497C-9.63157 242.825 -12.3549 247.451 -11.8434 249.92C-11.4725 251.71 -9.38872 253.486 -9.39257 255.304C-9.39406 256.12 -10.3902 256.914 -10.7582 257.607C-11.5021 259.008 -11.7169 261.023 -11.3495 262.566C-10.9646 264.183 -9.51762 264.678 -8.88352 266.049C-7.50753 269.024 -7.94551 272.839 -4.54457 274.648C-1.82891 276.092 2.85651 275.213 5.86063 275.213H29.8917C32.7042 275.213 37.6867 274.238 40.2602 275.363C41.3435 275.836 41.0401 277.485 41.0401 278.437C41.0401 280.129 41.3783 282.243 40.9336 283.882C40.6062 285.09 39.3228 285.939 40.1281 287.307C40.8795 288.584 42.6262 287.944 42.8336 286.619C42.9894 285.623 42.2277 284.647 42.1584 283.644C41.9772 281.021 42.5794 277.985 42.0311 275.461ZM61.6028 -110.634C67.517 -110.634 73.513 -110.527 79.4403 -110.382C81.8909 -110.322 84.8865 -109.455 87.1165 -110.88C91.0107 -113.369 89.6526 -119.453 89.8688 -123.277C89.9771 -125.193 92.428 -126.541 92.744 -128.736C92.9453 -130.134 92.8104 -132.012 91.876 -133.144C91.3481 -133.783 90.3425 -133.967 89.9948 -134.743C88.6419 -137.761 89.8189 -141.652 86.1293 -143.501C84.4438 -144.346 81.7777 -143.862 79.9357 -143.862H66.3099L17.2568 -143.862H2.39223C0.358531 -143.862 -2.45032 -144.364 -4.29665 -143.386C-7.93456 -141.459 -7.16345 -137.731 -8.76288 -134.697C-9.84861 -132.637 -11.6742 -131.954 -11.4068 -129.232C-11.1659 -126.779 -8.96264 -125.241 -8.77071 -123.032C-8.47253 -119.602 -9.64444 -115.215 -7.64651 -112.144C-5.3031 -108.542 2.84323 -110.138 6.60386 -110.138C10.3372 -110.138 15.6321 -109.158 19.202 -110.217C20.5528 -110.617 19.9786 -112.73 21.72 -113.057C24.1237 -113.509 26.9509 -113.113 29.3962 -113.113H44.7563H57.3911C59.2926 -113.113 61.2593 -112.855 61.6028 -110.634ZM78.9448 247.192L86.3771 238.761H86.8725C88.7629 242.754 92.8893 247.609 90.776 251.904C89.9934 253.494 89.427 255.908 87.1425 255.296C86.0636 255.008 85.1645 253.694 84.4408 252.905C82.666 250.972 80.9294 248.911 78.9448 247.192ZM91.4944 -130.967C91.8754 -129.119 91.324 -126.4 89.349 -125.662C88.0153 -125.163 86.0524 -125.512 84.6429 -125.512C80.9144 -125.512 76.9448 -125.878 73.2467 -125.441C66.3799 -124.63 59.1056 -125.264 52.1885 -125.264H12.0542C8.445 -125.264 4.75398 -125.489 1.15352 -125.242C-1.51044 -125.059 -5.11291 -124.37 -7.72316 -125.095C-9.16752 -125.496 -9.97011 -127.391 -10.1681 -128.736C-10.3564 -130.015 -10.2535 -131.739 -8.97793 -132.449C-7.73599 -133.139 -5.43498 -132.703 -4.04908 -132.703H7.84257L69.0351 -132.703H86.1293C87.9667 -132.703 90.9995 -133.367 91.4944 -130.967ZM91.4858 260.831C91.5487 261.856 91.3533 263.4 90.2941 263.87C88.915 264.482 86.6261 264.054 85.1383 264.054H72.9989H11.8064H-5.04007C-7.03037 264.054 -10.0033 264.558 -10.2283 261.823C-10.3669 260.138 -10.1594 257.82 -8.48534 256.907C-7.19621 256.204 -4.98156 256.615 -3.55362 256.615H8.09031H69.5305H82.4132C84.3523 256.615 86.7202 256.248 88.6067 256.719C90.4663 257.183 91.3764 259.048 91.4858 260.831ZM88.8545 -134.191L23.6981 -134.191H3.13546L-7.26974 -133.943C-7.94677 -136.627 -6.01817 -141.396 -3.3049 -142.347C-1.65155 -142.927 0.416218 -142.622 2.14448 -142.622H12.7976H68.0442H81.1746C82.9633 -142.622 85.1641 -142.917 86.5783 -141.574C88.6335 -139.622 88.2602 -136.69 88.8545 -134.191ZM84.643 -111.378L84.3953 -124.024H88.6069C88.9363 -119.846 89.9836 -112.621 84.643 -111.378ZM-7.76508 265.542L-7.51733 265.294L6.35626 265.542H32.617H68.5397L88.3591 265.294C89.0091 267.66 88.112 272.385 85.6118 273.475C84.1571 274.109 81.9897 273.723 80.4314 273.725H69.2829H12.0544C8.34804 273.725 4.60856 273.581 0.905925 273.744C-0.999022 273.828 -3.19552 274.183 -4.78146 272.884C-6.81484 271.217 -7.29259 267.979 -7.76508 265.542ZM85.8817 238.761L78.6972 246.448H78.2017L71.2649 238.761L81.1746 238.513L85.8817 238.761ZM85.8817 255.375H70.7694C72.305 252.492 76.0403 249.065 78.6972 247.192L85.8817 255.375ZM-3.8012 -99.7229V-91.0439H19.2389L66.31 -91.0439L79.4404 -91.0439L84.2458 -91.1303L84.643 -93.0276L84.4935 -99.3576L79.4404 -99.7229L63.3371 -99.7229L-3.8012 -99.7229ZM84.3953 -73.1898C76.8373 -74.6151 69.1631 -75.4032 61.6029 -76.8139C59.8412 -77.1426 58.5665 -78.7242 56.8958 -78.9637C52.6798 -79.5683 47.7983 -78.8931 43.5177 -78.8931C37.1746 -78.8931 30.5073 -79.4957 24.1937 -78.867C22.3959 -78.688 21.0198 -77.2164 19.2389 -76.827C12.0277 -75.2499 3.80878 -73.263 -3.55345 -72.9416L-3.55345 -21.6111C-3.55345 -13.214 -4.30451 -4.42711 -3.52766 3.93016C-3.26103 6.7985 -2.1259 9.72754 -1.57613 12.5672C0.373399 22.6364 3.0558 32.6364 4.69181 42.7568C5.64973 48.6825 5.3607 54.9746 5.62277 60.9641C6.07107 71.2106 6.40555 81.4373 6.35606 91.7128C6.28694 106.055 6.43833 120.832 5.07546 135.108C3.31961 153.502 -1.92285 171.53 -3.75896 189.91C-4.7534 199.865 -3.80119 210.402 -3.80119 220.411C3.98688 221.418 11.6524 223.33 19.4867 224.089C26.2924 224.748 33.4572 224.131 40.297 224.131C47.7315 224.131 55.453 224.716 62.8416 223.924C68.0866 223.362 73.2744 222.586 78.4494 221.552C79.8938 221.263 82.9076 221.265 83.9919 220.199C84.8603 219.345 84.3953 216.357 84.3953 215.204V200.821C84.3953 179.927 78.8812 158.972 75.8286 138.332C75.072 133.216 75.1965 128.107 74.9713 122.958C74.458 111.224 74.2567 99.5131 74.2378 87.7456C74.22 76.6925 74.2028 65.5674 74.9589 54.5171C75.2396 50.4139 74.9212 46.1946 75.5499 42.1184C77.0738 32.2391 80.1813 22.3443 82.4714 12.6096C83.0631 10.0947 84.0425 7.48299 84.3496 4.92234C85.1869 -2.05891 84.3953 -9.61588 84.3953 -16.6514C84.3953 -35.4246 83.5062 -54.4428 84.3953 -73.1898ZM83.8998 -111.377L81.1746 -111.625V-111.873H83.6521V-123.776H72.7514L81.1746 -124.272L83.8222 -123.697L83.8998 -120.056V-111.377ZM-3.30568 -91.5393V-99.2266L84.1475 -99.2266C84.1475 -97.581 84.9251 -93.2414 83.8929 -91.937C83.1361 -90.9805 79.8184 -91.5393 78.6972 -91.5393L62.8416 -91.5393L-3.30568 -91.5393ZM83.7381 -139.394C82.813 -142.255 74.1053 -141.845 75.3708 -137.415C76.2699 -134.268 85.2868 -134.604 83.7381 -139.394ZM83.4213 -129.714C83.0008 -131.266 80.7753 -130.532 81.3289 -128.998C81.848 -127.559 83.7999 -128.316 83.4213 -129.714ZM83.4681 268.777C82.9104 267.407 81.4129 267.527 80.1836 267.526C77.699 267.526 73.9131 267.8 75.4127 271.483C76.0021 272.931 77.6631 272.734 78.9449 272.734C81.4533 272.734 84.9372 272.385 83.4681 268.777ZM83.2967 -138.899C84.2588 -135.443 76.4379 -135.432 75.8326 -137.668C74.8772 -141.199 82.6642 -141.171 83.2967 -138.899ZM83.2192 260.143C82.5665 258.683 80.807 259.995 81.3279 261.289C81.9314 262.789 83.8311 261.511 83.2192 260.143ZM83.2774 269.758C83.8579 273.179 76.2357 273.259 75.781 270.745C75.1391 267.196 82.8549 267.268 83.2774 269.758ZM83.1565 3.68137H82.9088L67.2528 -47.1533L61.3896 -66.2472L58.3823 -76.4141C63.7978 -74.2943 70.4581 -73.9709 76.2197 -73.1581C77.6439 -72.9572 81.9938 -72.9576 82.9019 -71.8011C83.7098 -70.7724 83.1565 -67.7618 83.1565 -66.4952V-52.1127V3.68137ZM83.0491 190.38C82.9967 191.7 80.693 192.671 79.6881 193.225C75.9169 195.305 71.9965 196.78 67.7965 197.702C58.5114 199.74 48.5172 198.837 39.0583 198.837C31.2122 198.837 22.7375 199.679 15.0273 197.987C10.3446 196.96 5.68188 195.554 1.40139 193.354C0.057895 192.664 -2.49202 191.956 -2.52577 190.156C-2.59704 186.355 -1.28976 182.246 -0.68912 178.503C0.809222 169.165 2.43446 159.838 3.81153 150.482C4.29907 147.169 4.90583 143.88 5.36529 140.563C5.50549 139.551 5.51411 137.3 6.29242 136.58C7.10269 135.829 9.02262 135.694 10.0724 135.461C13.2588 134.752 16.4938 133.969 19.7344 133.581C25.9621 132.835 32.2938 133.124 38.5628 133.124C45.3226 133.124 52.1419 132.877 58.8777 133.349C62.7819 133.623 66.4772 134.543 70.2739 135.441C71.3977 135.707 73.4511 135.709 74.1971 136.722C74.9221 137.706 74.8573 139.633 75.0774 140.811C75.7365 144.339 76.2359 147.927 76.7833 151.474C78.1486 160.322 79.5553 169.177 81.0347 178.007C81.6829 181.876 83.2044 186.465 83.0491 190.38ZM-2.56249 219.418C-3.79688 212.763 -2.81023 205.11 -2.81023 198.341C-2.81023 196.357 -2.43411 194.07 -2.81023 192.141C-0.452411 191.984 2.87228 194.622 5.11753 195.514C10.2545 197.554 15.4855 198.768 20.9731 199.29C28.9159 200.047 37.2701 199.333 45.2519 199.333C52.0546 199.333 59.3655 200.054 66.0623 198.672C69.8007 197.9 73.5141 196.825 76.963 195.171C78.9845 194.201 81.0147 192.45 83.1565 191.894V211.731C83.1565 213.379 83.9268 217.672 82.9019 218.99C82.035 220.105 78.7731 220.098 77.4584 220.361C72.0112 221.451 66.4179 222.509 60.8597 222.646C48.2067 222.957 35.1096 223.735 22.4595 222.868C14.0838 222.294 5.7781 219.777 -2.56249 219.418ZM82.1656 3.43364C75.0044 0.80938 68.941 -4.40036 61.3552 -6.22736C55.8252 -7.5592 49.4266 -6.73323 43.7654 -6.73323C35.2634 -6.73323 25.4657 -8.09148 17.2569 -5.63267C10.3282 -3.55728 4.7118 0.932577 -1.81926 3.68166C-0.947172 -2.76895 2.28287 -9.72372 4.35558 -15.9083C8.60019 -28.5733 12.3313 -41.4121 16.5139 -54.0962C18.3346 -59.6176 20.1274 -65.1501 21.8241 -70.7104C22.521 -72.9942 23.5967 -75.2867 23.946 -77.6537H38.5628C38.5006 -76.2249 37.1232 -73.7232 37.7732 -72.456C39.4986 -69.0922 44.5918 -68.6193 45.8225 -72.704C46.2053 -73.9744 45.1481 -76.1796 44.7564 -77.4057L54.1706 -77.6537L57.4274 -77.0789L59.746 -69.9665L64.9287 -53.1043L77.1415 -13.4285L82.1656 3.43364ZM79.9359 2.93774C75.5376 2.49942 71.2611 0.685155 66.8055 0.252119C60.2315 -0.386835 53.582 0.120143 46.9861 -0.0415855C36.6303 -0.295486 25.8434 -1.26005 15.5227 -0.243855C10.3512 0.265359 5.44193 2.03112 0.410436 3.18569V2.93774C6.86406 -1.01575 14.1666 -4.93376 21.7163 -6.15676C29.0065 -7.33774 37.3642 -6.23733 44.7564 -6.23733C49.4173 -6.23733 54.5125 -6.82108 59.1255 -6.16286C63.6736 -5.51386 67.8951 -3.25905 72.0081 -1.35416C74.6028 -0.152507 77.7297 1.10799 79.9359 2.93774ZM70.5217 254.383L70.5217 239.256L76.2197 244.712L77.7257 246.944L75.972 249.175L70.5217 254.383ZM77.3533 169.328C76.3337 161.555 74.8682 153.887 72.9677 146.266C72.4953 144.372 72.3088 139.888 70.8686 138.544C70.051 137.78 68.1159 137.704 67.0533 137.488C63.8657 136.841 60.6632 136.101 57.3913 136.1H23.6983C20.285 136.1 16.8963 136.628 13.5408 137.234C12.513 137.42 10.5445 137.397 9.80843 138.229C9.10909 139.02 9.03847 140.562 8.83294 141.555C8.31819 144.042 7.69771 146.518 7.12893 148.994C5.11474 157.762 3.38335 166.515 3.38335 175.527C3.38335 177.826 3.03485 180.438 3.42006 182.704C3.70687 184.391 7.57133 183.462 8.8337 183.462H26.1757H64.5758C67.7113 183.462 70.8555 183.393 73.9901 183.462C74.8343 183.482 76.5669 184.03 77.2038 183.269C77.8447 182.503 77.4585 180.435 77.4585 179.491C77.4585 176.159 77.7868 172.629 77.3533 169.324M74.2378 134.856L58.8778 131.89L37.3241 131.88L21.9641 131.923L6.10853 134.856L6.61376 125.433L7.10045 107.331L7.33748 70.6312L5.86077 42.8582L19.7344 40.8966L37.8196 40.8743L60.3642 40.884L74.2378 42.8579L73.0027 74.8465L73.4909 111.299L74.2378 134.856ZM72.0081 -123.78H70.7694V-124.028L72.0081 -123.78ZM70.2739 -122.292H10.0724V-123.78L70.2739 -124.028V-122.292ZM70.1233 -121.222C70.9047 -119.562 68.7792 -119.565 67.7965 -119.565H58.1345H21.7163H13.0453C12.2603 -119.565 10.6844 -119.266 10.2575 -120.139C9.50621 -121.676 11.3119 -121.794 12.3021 -121.796H20.9731H57.1435H66.8055C67.6513 -121.796 69.6762 -122.171 70.1233 -121.222ZM10.0724 -119.069H70.2739L69.8767 -117.092L66.8055 -116.837H59.1255H22.7073H13.7885L10.4696 -117.092L10.0724 -119.069ZM70.2739 -111.878H62.5939C61.2499 -115.276 56.8729 -114.605 53.9229 -114.605H28.1576C25.0514 -114.605 19.7367 -115.749 18.9911 -111.63L10.3201 -111.382C10.0446 -112.315 9.5637 -115.391 10.4723 -116.09C11.2134 -116.66 12.9059 -116.341 13.7885 -116.341H22.2118H58.63H67.0533C67.8339 -116.341 69.466 -116.643 70.0193 -115.943C70.6882 -115.098 70.2739 -112.911 70.2739 -111.878ZM69.5307 243.716C66.163 244.713 61.6473 243.965 58.1345 243.965C58.0982 240.896 53.9858 241.981 51.6932 241.981H30.3873C28.0025 241.981 22.9927 240.781 22.955 243.965H10.8156L11.0703 238.907L14.7795 238.509H25.1847H69.2829L69.5307 243.716ZM69.5307 251.9H55.4093H26.9189L11.0634 252.148L10.8156 244.46H22.955C23.1598 247.147 27.4124 246.196 29.3963 246.196H50.7022C52.7808 246.196 57.9216 247.254 58.1345 244.46H66.31L69.2761 244.858L69.5307 251.9ZM69.5307 255.123L63.0894 255.371H50.95H10.8156V252.644H55.6571H65.5668L69.1333 252.898L69.5307 255.123ZM61.4978 63.1918C61.0802 60.047 60.1093 57.1486 57.1435 55.5134C54.6948 54.1633 51.9097 54.5127 49.2158 54.5127L34.3512 54.5127C30.5697 54.5127 25.4709 53.5825 22.2118 55.9108C17.8426 59.0321 18.4957 64.6858 18.4957 69.3911C18.4957 71.3381 18.2945 73.4128 18.57 75.3425C20.108 86.1171 32.3156 83.5256 40.297 83.5256C45.0227 83.5256 52.3164 84.8933 56.6481 82.841C63.0542 79.806 62.2827 69.1026 61.4978 63.1918ZM61.0367 63.1918C61.7104 68.8296 62.596 79.1498 56.6481 82.1572C52.227 84.3926 44.9048 83.0297 40.0493 83.0297C33.5644 83.0297 20.511 85.5551 19.2836 76.3344C18.5345 70.7063 17.2223 59.8386 22.7494 56.3063C25.955 54.2576 30.4827 55.0087 34.1035 55.0087H47.4816C54.0507 55.0087 60.0863 55.2383 61.0367 63.1918ZM57.3913 245.7H23.6983L23.4505 242.725L34.3512 242.477H57.3913V245.7ZM55.1545 -130.291C54.2289 -131.426 52.5791 -129.698 53.5771 -128.604C54.5984 -127.485 55.9417 -129.325 55.1545 -130.291ZM55.2216 260.14C54.6003 258.702 52.6022 259.975 53.2473 261.286C53.9727 262.76 55.8124 261.507 55.2216 260.14ZM46.7383 114.77C44.138 116.038 41.878 119.801 39.9786 121.962C39.0708 122.994 38.0997 123.796 37.8196 125.185L43.5186 118.843L46.7383 114.77ZM39.8015 -77.1612H43.7654C44.056 -75.8926 45.0849 -73.9265 44.3494 -72.7014C43.0323 -70.5075 39.7532 -70.3974 39.0031 -73.1973C38.6902 -74.3652 39.54 -76.0191 39.8015 -77.1612ZM27.4226 -129.483C27.3348 -130.907 25.2581 -130.964 25.2581 -129.483C25.2581 -127.9 27.5235 -127.847 27.4226 -129.483ZM27.2267 260.139C26.5948 258.671 24.5886 259.925 25.2744 261.286C26.0137 262.754 27.8106 261.496 27.2267 260.139ZM23.4505 -76.6653L20.2228 -66.9943L14.3473 -48.6443L-2.06699 2.68622H-2.31474L-2.31474 -50.628V-65.2585C-2.31474 -66.8759 -2.90137 -69.8978 -2.16525 -71.3503C-1.5792 -72.5068 2.43006 -72.5509 3.63109 -72.7597C8.74738 -73.6495 13.8512 -74.714 18.9911 -75.458C20.3856 -75.6598 22.1527 -77.0205 23.4505 -76.6653ZM9.82467 254.875C7.41912 253.752 5.72345 251.025 3.87884 249.172C3.31839 248.609 2.2143 247.819 2.19223 246.941C2.16934 246.031 3.35806 245.18 3.93103 244.597C5.60051 242.898 7.53032 239.743 9.82467 239.005V254.875ZM9.57692 -111.63L-2.56248 -111.382C-3.55792 -114.752 -2.81022 -119.272 -2.81022 -122.788H-2.56248V-111.878C0.853378 -111.878 6.44248 -112.946 9.57692 -111.63ZM8.83369 239.005C6.54789 241.293 4.0997 245.069 1.15366 246.444L-5.78313 238.757L4.86981 238.509L8.83369 239.005ZM8.83369 255.371H-6.03088C-4.96684 253.087 -0.560971 248.127 1.89689 247.436L8.83369 255.371ZM5.20262 -139.154C4.26276 -142.234 -4.62526 -141.959 -3.24645 -137.42C-2.30109 -134.308 6.55129 -134.734 5.20262 -139.154ZM4.93364 269.011C3.79505 266.071 -4.94571 266.667 -3.34183 271.237C-2.32311 274.14 6.73208 273.654 4.93364 269.011ZM4.63716 -137.672C4.21143 -135.529 -3.43192 -135.3 -2.75346 -138.896C-2.32096 -141.188 5.34179 -141.218 4.63716 -137.672ZM4.49456 269.272C5.75478 273.176 -2.12987 273.288 -2.85515 270.979C-4.03073 267.237 3.86159 267.312 4.49456 269.272ZM-34.2736 -75.9213H-34.5213L-35.5123 -64.0186C-37.6385 -65.2298 -42.8843 -65.9713 -44.1764 -68.0543C-44.8396 -69.1235 -44.2437 -70.7951 -44.1931 -71.9538C-44.0649 -74.8822 -43.3013 -79.9896 -44.7786 -82.5934C-46.3197 -85.3096 -50.7509 -84.5522 -53.3498 -84.9229C-54.6488 -85.1081 -55.826 -85.5177 -56.9906 -84.6305C-58.5597 -83.4351 -58.902 -80.7324 -59.0479 -78.897L-65.7369 -75.5112L-67.8171 -73.8568L-67.9666 -68.4821V-55.5875C-52.7856 -53.6571 -41.0625 -42.0454 -43.5488 -26.0787C-44.7752 -18.2029 -49.1886 -11.6947 -56.3227 -8.00362C-59.1171 -6.55774 -61.9422 -5.71815 -64.9937 -5.03062C-65.8515 -4.83735 -67.5749 -4.97408 -67.8879 -3.95238C-68.9687 -0.423517 -67.9666 4.93561 -67.9666 8.63758V36.9066V130.145C-60.8522 131.614 -54.1209 134.569 -49.1804 140.064C-41.8235 148.246 -41.0297 161.995 -48.5232 170.387C-52.0475 174.334 -56.3888 177.022 -61.2776 178.945C-62.6182 179.472 -67.2025 180.035 -67.8171 181.305C-68.83 183.398 -67.8271 187.407 -67.7286 189.658C-67.4412 196.228 -68.5546 202.98 -67.9246 209.496C-67.6924 211.898 -66.8298 213.724 -64.4982 214.699C-63.1967 215.243 -61.4333 215.356 -60.3653 216.352C-58.7524 217.857 -59.4879 220.18 -57.0659 221.509C-54.3655 222.99 -48.5722 222.759 -46.5711 220.146C-44.7006 217.703 -44.2448 213.471 -44.1833 210.488L-33.0349 211.976L-34.0258 219.663C-26.8093 223.709 -24.4815 210.546 -23.4595 206.025C-22.3189 200.979 -22.0144 195.541 -20.2914 190.65C-14.6728 174.702 -5.01939 159.959 -1.57077 143.287C2.65345 122.866 2.67199 102.501 2.6401 81.7898C2.62226 70.2118 3.52066 57.2776 0.0546759 46.0816C-0.929597 42.9022 -2.85534 39.9026 -4.29058 36.9066C-7.31001 30.6036 -10.2781 24.2433 -13.537 18.0606C-16.8318 11.8097 -20.2371 5.92592 -21.7813 -1.03339C-27.22 -25.5448 -21.7932 -53.1128 -34.2736 -75.9213ZM-44.6788 78.3182L-44.431 69.6391V53.5209V1.69435C-38.7219 1.69435 -33.0864 2.21041 -27.5845 3.82085C-25.5037 4.42997 -22.9333 5.00309 -21.2112 6.39742C-20.0636 7.32665 -19.5147 9.33137 -18.8495 10.6214C-17.268 13.6882 -15.5986 16.709 -14.0573 19.7964C-11.4203 25.0786 -8.84926 30.3875 -6.21211 35.6668C-4.45666 39.1809 -2.22831 42.8244 -1.04833 46.5775C0.0904104 50.1996 0.34445 53.9944 0.700226 57.7364C1.25121 63.5316 1.26295 69.2757 1.40502 75.0946C1.44092 76.564 2.39575 80.1562 1.39373 81.3922C0.854811 82.0571 -0.59581 81.5711 -1.32379 81.5445C-3.96598 81.4483 -6.61107 81.1716 -9.25157 81.0557C-17.3135 80.7018 -25.2562 79.6213 -33.2826 78.8562C-36.8912 78.5123 -41.2147 79.3431 -44.6788 78.3182ZM-44.6788 80.054C-41.7193 79.3488 -38.2681 80.0741 -35.2646 80.2798C-27.285 80.8268 -19.236 82.2345 -11.2335 82.2859C-8.15245 82.306 -4.88095 82.4909 -1.81928 82.8525C-1.02516 82.9463 0.583817 82.7714 1.21748 83.2845C1.93131 83.8626 1.64912 85.4491 1.64912 86.2534V94.1885C1.64912 99.9228 1.41329 105.587 1.16338 111.299C1.03519 114.229 1.44151 118.199 0.455527 120.97C-0.392884 123.354 -2.5443 125.525 -4.15488 127.417C-10.289 134.624 -17.4485 141.404 -25.1071 146.969C-27.7541 148.893 -32.2708 151.976 -35.5087 149.608C-38.3996 147.494 -39.7232 142.629 -41.4012 139.568C-42.249 138.021 -44.02 136.528 -44.5096 134.853C-44.874 133.605 -44.4311 131.941 -44.4311 130.641V120.474V93.4446C-44.4311 89.2073 -43.6974 84.1798 -44.6788 80.054ZM-8.01285 255.371L-10.5895 249.668L-9.57825 246.196L-6.77413 238.757C-4.67994 240.234 -3.12622 242.407 -1.32379 244.212C-0.690935 244.846 0.564554 245.733 0.677658 246.692C0.789068 247.637 -0.434674 248.538 -1.00168 249.149C-2.8055 251.093 -5.29963 254.952 -8.01285 255.371ZM-23.3729 9.62953V77.5743L0.162663 79.5581C0.162663 69.8894 0.576419 59.4932 -1.79329 50.0492C-3.93902 41.4978 -8.97466 32.9588 -13.139 25.2519C-15.1769 21.4802 -17.1831 17.6857 -19.5317 14.0931C-20.5725 12.5009 -21.6654 10.5623 -23.3729 9.62953ZM-32.7871 218.919C-32.5675 217.18 -31.1093 212.554 -32.0544 211.063C-32.6121 210.183 -34.5931 210.312 -35.5123 210.202C-38.5711 209.834 -41.6229 209.387 -44.6788 209L-44.6788 187.179C-44.6788 183.821 -45.3066 179.756 -44.5838 176.474C-44.0245 173.934 -41.3514 171.348 -40.3316 168.829C-37.671 162.254 -37.2099 154.351 -38.9807 147.503C-36.9651 148.647 -36.4335 151.171 -33.7781 151.637C-29.6003 152.37 -25.3895 148.653 -22.3819 146.264C-17.3765 142.287 -12.3877 138.072 -8.05127 133.359C-5.60845 130.704 -2.89735 125.993 0.162663 124.193C-0.185272 141.063 -6.91637 156.363 -13.4313 171.556C-16.8822 179.604 -21.1062 187.438 -22.726 196.106C-23.8428 202.082 -24.7361 208.232 -26.8547 213.96C-27.9118 216.818 -29.4733 219.311 -32.7871 218.919ZM-23.3729 84.0216V140.808C-20.1224 140.16 -16.7355 136.637 -14.2064 134.608C-9.412 130.763 -3.59544 126.117 -1.26454 120.226C1.09028 114.274 -0.0850878 106.176 -0.0850878 99.8919C-0.0850878 96.4999 -0.326368 93.1084 -0.205504 89.7286C-0.166039 88.6236 0.389895 86.3331 -0.339711 85.4111C-1.03713 84.5296 -5.14388 84.7974 -6.27866 84.7691C-11.9823 84.6271 -17.6586 84.0216 -23.3729 84.0216ZM-0.835393 -130.149C-1.67375 -131.405 -3.24353 -129.961 -2.55448 -128.778C-1.72015 -127.344 -0.0152254 -128.92 -0.835393 -130.149ZM-0.83985 260.12C-1.66425 258.625 -3.51116 260.183 -2.69334 261.492C-1.87918 262.795 -0.170714 261.333 -0.83985 260.12ZM-1.81935 128.905C-3.74855 130.034 -5.25939 132.478 -6.78031 134.112C-10.5755 138.189 -14.3214 142.321 -17.9932 146.511C-19.6468 148.398 -22.4958 150.76 -23.2468 153.206C-24.2597 156.505 -23.6207 160.702 -23.6207 164.117V185.939C-22.277 184.783 -21.6172 182.794 -20.8288 181.227C-19.4901 178.566 -18.0806 175.913 -16.664 173.292C-11.5888 163.9 -7.66402 154.295 -4.75747 144.031C-3.37089 139.135 -1.81935 134.017 -1.81935 128.905ZM-7.51744 -123.78C-6.56845 -123.78 -4.21355 -124.208 -3.56043 -123.383C-3.07993 -122.775 -3.30581 -121.526 -3.30581 -120.805V-114.357C-3.30581 -113.649 -3.07447 -112.372 -3.56043 -111.783C-4.22279 -110.98 -5.6963 -111.907 -6.22577 -112.429C-7.79786 -113.979 -7.51744 -116.56 -7.51744 -118.573V-123.78ZM-21.6388 4.67003C-27.0594 2.44407 -32.4278 1.21593 -38.2376 0.525277C-40.3475 0.274427 -42.6363 0.605474 -44.6789 0.206509C-43.9488 -2.86261 -45.3686 -6.54941 -44.4663 -9.46446C-43.7939 -11.6369 -41.6927 -13.5504 -40.7222 -15.6638C-38.2243 -21.1037 -37.3566 -27.0636 -37.7642 -33.022C-38.052 -37.2274 -39.0079 -41.6922 -41.0401 -45.4206C-42.0799 -47.3282 -44.0266 -49.1085 -44.7463 -51.124C-45.2624 -52.5691 -44.9266 -54.5653 -44.9266 -56.0835V-66.2504L-34.0259 -62.5308L-33.7782 -71.4578L-31.5839 -66.7464L-28.2659 -52.6119L-25.0653 -17.1516L-23.4686 -3.51309L-21.6388 4.67003ZM-33.0418 63.1181C-33.7845 62.1343 -35.8741 62.3411 -36.3539 63.4729C-37.1639 65.3837 -36.5034 68.8105 -36.5034 70.879C-36.5034 71.6115 -36.72 72.808 -36.2487 73.4323C-35.5061 74.4162 -33.4165 74.2094 -32.9367 73.0776C-32.1267 71.1668 -32.7872 67.74 -32.7872 65.6715C-32.7872 64.939 -32.5705 63.7425 -33.0418 63.1181ZM-33.0418 131.987C-33.7063 131.007 -35.8551 131.072 -36.3539 132.185C-37.2092 134.094 -36.5035 137.729 -36.5034 139.816C-36.5033 140.527 -36.6757 141.567 -36.2487 142.188C-35.6176 143.106 -33.4079 143.037 -32.9367 141.991C-32.0792 140.087 -32.7871 136.443 -32.7872 134.36C-32.7873 133.645 -32.6173 132.613 -33.0418 131.987ZM-33.0351 -17.1516C-33.8502 -17.303 -34.9266 -17.6099 -35.6816 -17.107C-36.577 -16.5108 -36.5992 -13.1446 -35.9637 -12.3415C-34.2036 -10.117 -33.0352 -13.3901 -33.0351 -14.6716V-17.1516ZM-58.0572 -1.28104C-58.0572 -2.42548 -58.4799 -4.61588 -57.8025 -5.58655C-56.9564 -6.79914 -54.3586 -7.57348 -53.1023 -8.39686C-50.5455 -10.0725 -48.1461 -12.3485 -46.4733 -14.9196C-40.5478 -24.027 -40.3941 -37.7378 -47.284 -46.4122C-50.2556 -50.1536 -54.1383 -52.4525 -58.3049 -54.5954L-58.0572 -58.5629C-50.4038 -56.389 -44.0905 -51.25 -40.7924 -43.9325C-33.9157 -28.6752 -40.1512 -5.42944 -58.0572 -1.28104ZM-58.0572 184.699C-58.0572 183.21 -58.5454 180.698 -57.9077 179.341C-57.4546 178.376 -55.7114 177.809 -54.8365 177.294C-52.959 176.189 -51.1921 174.81 -49.6339 173.289C-45.3456 169.102 -42.2314 163.566 -42.2018 157.422C-42.1678 150.353 -43.8342 144.257 -48.5783 138.846C-50.2304 136.962 -52.2249 135.344 -54.341 134.011C-55.3432 133.379 -57.1544 132.805 -57.8025 131.784C-58.436 130.786 -58.0572 128.81 -58.0572 127.665C-55.5025 128.273 -53.0408 129.862 -50.8726 131.302C-32.0642 143.799 -34.8359 178.471 -58.0572 184.699ZM-45.074 -30.2939C-45.2722 -35.7833 -47.2073 -41.4333 -51.1624 -45.378C-58.6553 -52.8512 -70.9197 -51.552 -76.9424 -42.9406C-80.1757 -38.3175 -81.0821 -33.0967 -80.8398 -27.5662C-80.7242 -24.9272 -79.8898 -22.2627 -78.7909 -19.8791C-77.7844 -17.6958 -76.3264 -15.61 -74.5472 -13.991C-72.9045 -12.4963 -71.025 -11.2464 -68.9578 -10.4121C-56.1321 -5.23557 -44.6269 -17.9101 -45.074 -30.2939ZM-58.0572 1.9426V-0.785064C-52.7424 -2.0164 -49.4241 -5.72395 -45.1745 -8.72024L-45.1708 -2.2729L-45.1911 0.0572051L-48.3951 0.597744L-58.0572 1.9426ZM-44.9267 78.3185L-58.0571 80.0543V3.18249L-45.1745 1.69465V52.7772V69.1435L-44.9267 78.3185ZM-45.4222 134.36C-47.719 131.725 -50.8022 129.83 -53.8455 128.181C-54.8693 127.626 -57.397 126.907 -57.9076 125.832C-59.0148 123.501 -58.0571 118.597 -58.0571 116.01V91.957V84.5178C-58.0571 83.7429 -58.3158 82.3421 -57.8025 81.6918C-57.3014 81.0569 -55.5902 81.0831 -54.8365 80.9507C-51.9122 80.4371 -47.8469 79.5597 -44.9267 80.0543L-45.1745 93.4448V119.978L-45.1737 129.897L-45.4222 134.36ZM-45.2808 152.711C-45.736 149.529 -46.6791 146.54 -48.3519 143.783C-54.0152 134.452 -66.58 132.136 -74.6525 139.838C-79.6212 144.579 -81.7323 152.19 -80.7753 158.91C-80.3602 161.824 -79.4065 164.829 -77.8607 167.341C-76.5544 169.464 -74.912 171.314 -72.9219 172.821C-71.3716 173.996 -69.5821 174.948 -67.7193 175.514C-54.0641 179.67 -43.4765 165.322 -45.2808 152.711ZM-58.0573 185.195C-52.7069 183.923 -49.4369 180.017 -45.1747 177.012C-45.1747 187.344 -45.1251 197.677 -45.1749 208.009C-45.19 211.161 -45.304 217.562 -47.9937 219.731C-50.0269 221.37 -57.1426 221.952 -57.9786 218.67C-58.7832 215.512 -58.0573 211.271 -58.0573 208.009L-58.0573 185.195ZM-45.4224 -51.8676C-49.2295 -54.2512 -53.1317 -58.8435 -58.0573 -58.8109V-73.4413C-58.0573 -76.2003 -58.3334 -79.5125 -57.2621 -82.1195C-56.9776 -82.8117 -56.5595 -83.5233 -55.8018 -83.7485C-54.7489 -84.0614 -53.6424 -83.5824 -52.607 -83.4347C-50.4767 -83.1309 -47.2858 -84.0036 -45.8541 -81.8589C-44.5995 -79.9794 -45.4224 -75.6454 -45.4224 -73.4413V-51.8676ZM-58.5528 -54.8433L-66.7283 -56.8271V-68.7299C-66.7283 -69.9753 -67.1643 -72.2605 -66.4737 -73.3446C-65.2656 -75.2409 -60.7745 -76.8091 -58.8006 -77.9049L-58.5528 -70.2177V-54.8433ZM-66.7283 5.41425V-3.5128L-58.5528 -5.24859C-58.5528 -3.54322 -57.8158 0.402678 -58.8074 1.81613C-59.2898 2.50373 -60.531 2.68503 -61.278 2.93454C-63.2224 3.58383 -64.8654 4.64035 -66.7283 5.41425ZM-66.7283 81.5421V22.2765V11.8616C-66.7283 10.5457 -67.082 8.60173 -66.4737 7.39896C-65.2717 5.02221 -61.0135 3.78581 -58.5528 3.67846V62.4482V75.0949L-58.8074 79.9083L-61.0302 80.5827L-66.7283 81.5421ZM-58.5528 125.681C-60.242 125.428 -65.4646 124.189 -66.4737 122.792C-67.0042 122.058 -66.7283 120.587 -66.7283 119.73V112.291V83.03L-58.8006 81.5421C-57.5812 85.6711 -58.5528 91.3654 -58.5528 95.6766V125.681ZM-58.8006 131.633L-66.4737 128.765L-66.7283 124.442C-62.5736 125.064 -57.3107 126.588 -58.8006 131.633ZM-58.5528 215.944C-60.5895 214.799 -64.7254 213.92 -66.0524 211.966C-67.4959 209.839 -66.7283 205.739 -66.7283 203.297L-66.7283 181.971L-58.8006 179.492C-57.785 182.931 -58.5528 187.56 -58.5528 191.146L-58.5528 215.944Z" fill="#304A6E"/>
</svg>
