<svg width="72" height="81" viewBox="0 0 72 81" fill="none" xmlns="http://www.w3.org/2000/svg">
<rect width="72" height="81" fill="#1A1E26"/>
<rect x="-642" y="-515" width="980" height="753" rx="4" fill="white"/>
<path d="M-32.0268 -80.8114C-36.937 -79.8295 -41.4077 -78.4369 -45.1273 -74.8876C-52.1658 -68.1717 -52.021 -56.7525 -44.6726 -50.2903C-39.3606 -45.6191 -31.925 -43.9999 -25.0836 -45.3751C-21.9747 -46 -18.9197 -47.2332 -16.4045 -49.1818C-14.5556 -50.6142 -12.963 -52.1432 -11.7759 -54.1825C-4.98234 -65.8526 -13.6278 -78.4265 -26.0755 -80.4792C-28.0491 -80.8047 -30.0129 -81.2142 -32.0268 -80.8114ZM153.209 -80.7629C147.455 -79.3205 142.215 -77.7675 138.458 -72.7633C132.338 -64.6093 135.2 -53.6019 143.538 -48.2591C148.751 -44.9188 155.465 -44.1236 161.393 -45.6044C169.383 -47.6007 176.454 -54.4146 176.239 -63.1013C176.009 -72.3856 168.253 -78.8131 159.657 -80.4234C157.56 -80.8162 155.34 -81.297 153.209 -80.7629ZM-67.4871 -44.2728L-64.0154 -35.1063L-71.9506 -34.633L-75.9182 -34.1154C-51.6908 -22.2961 -24.5509 -27.3105 0.953631 -21.2614C6.05938 -20.0505 10.4925 -17.4075 15.0881 -14.9849C21.9361 -11.3749 28.9509 -8.03899 35.9179 -4.66839C39.1341 -3.11241 42.4239 -1.0168 45.8368 0.0507716C57.3169 3.6417 70.6484 2.79831 82.5369 2.79831C97.4657 2.79831 112.08 2.58888 126.924 1.10598C135.34 0.265261 144.276 -0.923718 152.217 -3.93835C165.262 -8.88998 177.659 -15.8998 190.901 -20.2691C196.248 -22.0331 202.05 -22.3855 207.516 -23.6815C212.945 -24.9689 221.845 -26.5772 219.914 -33.8676L211.979 -32.8767C211.341 -35.4651 211.225 -38.171 210.844 -40.8044C210.723 -41.6347 210.206 -43.1597 210.89 -43.8412C211.9 -44.8482 215.271 -44.596 216.69 -45.017C221.521 -46.4502 223.69 -51.3374 221.866 -56.1645C221.428 -57.3233 220.555 -58.651 219.395 -59.186C218.223 -59.7261 216.819 -59.4209 216.049 -60.6508C214.838 -62.5844 215.03 -65.074 213.147 -66.6219C211.145 -68.2672 208.188 -67.8084 205.78 -67.8084H188.669C186.696 -67.8084 183.092 -68.5095 181.305 -67.6589C180.032 -67.0526 179.463 -62.4644 178.951 -61.1193C177.213 -56.5549 174.469 -52.0607 170.815 -48.7745C162.087 -40.9235 148.031 -41.6345 139.571 -49.4976C134.4 -54.3031 131.552 -61.0059 130.148 -67.8084H36.9096H8.64064C4.93859 -67.8084 -0.420389 -68.8104 -3.94933 -67.7296C-4.97601 -67.4152 -4.86695 -65.6987 -5.01871 -64.8355C-5.52064 -61.9812 -6.49421 -59.2412 -7.78685 -56.66C-11.1756 -49.8929 -17.3028 -44.9864 -24.8358 -43.6445C-41.227 -40.7245 -53.5322 -51.9322 -55.5845 -67.8084H-68.7271C-70.1704 -67.8084 -72.8536 -68.321 -74.1173 -67.5538C-76.3862 -66.1762 -77.2113 -61.7281 -78.854 -59.666C-80.1536 -58.0345 -82.8963 -58.6466 -84.4563 -57.1132C-85.6375 -55.9522 -85.0419 -54.6035 -84.8884 -53.1916C-84.5966 -50.5071 -85.2358 -46.4068 -82.6098 -44.7035C-81.2762 -43.8385 -79.4146 -44.0251 -77.9021 -44.0251C-74.4217 -44.0251 -70.9729 -44.2728 -67.4871 -44.2728ZM-56.8244 -66.5697L-54.8406 -58.3942L-77.6542 -58.6419C-77.044 -60.5682 -74.9467 -65.4983 -73.1378 -66.4873C-71.9344 -67.1452 -69.5837 -66.8174 -68.2311 -66.8174C-64.4181 -66.8174 -60.6246 -66.5697 -56.8244 -66.5697ZM5.41701 -66.8174L2.9024 -61.1193L1.81889 -58.6674L-5.24583 -58.3942L-3.51004 -66.5697L5.41701 -66.8174ZM81.5449 -66.8174L80.057 -58.3942C60.7839 -59.6849 41.1076 -58.6419 21.7833 -58.6419C17.2021 -58.6419 12.4458 -59.0012 7.89672 -58.4649C7.00141 -58.3594 4.00861 -57.9134 3.80574 -59.194C3.66827 -60.0616 4.27903 -61.2975 4.55309 -62.1103C5.03173 -63.5296 5.7726 -65.5587 7.17519 -66.3151C8.24882 -66.894 10.4003 -66.802 11.6163 -66.8165C14.839 -66.8547 18.0644 -66.8172 21.2873 -66.8172H61.707C68.2398 -66.8172 75.0457 -66.2426 81.5449 -66.8174ZM125.684 -58.394L105.35 -58.6417L81.7929 -58.394L81.5449 -58.6417L83.0327 -66.5695C92.5157 -66.5702 102.046 -66.8172 111.55 -66.8172C114.428 -66.8172 120.09 -67.8991 122.64 -66.4594C124.137 -65.614 125.515 -60.0479 125.684 -58.394ZM129.156 -66.5695L131.388 -58.394H127.42L124.444 -66.5695H129.156ZM215.947 -58.6417H208.011H190.901H179.494L181.974 -66.5695H203.3C205.758 -66.5695 209.783 -67.3276 211.956 -66.005C214.24 -64.6144 214.204 -60.6575 215.947 -58.6417ZM-58.8081 -57.8985C-58.3429 -52.5746 -53.9911 -49.6465 -51.8649 -45.2636C-59.1499 -45.2636 -66.4342 -45.2753 -73.6865 -45.2636C-75.8895 -45.2599 -80.182 -44.4525 -82.0488 -45.7812C-83.9109 -47.1067 -83.1953 -50.5326 -83.4006 -52.4481C-83.5057 -53.4291 -83.9552 -54.4188 -83.7932 -55.4172C-83.6592 -56.2426 -83.094 -56.7303 -82.3618 -57.0652C-79.1117 -58.5517 -75.1289 -57.936 -71.7028 -57.8994C-67.5476 -57.8551 -62.8827 -58.57 -58.8081 -57.8985ZM-1.27828 -57.8987C-5.54117 -39.9267 -29.4362 -33.4423 -44.6736 -41.005C-51.7559 -44.5201 -56.1578 -50.5224 -58.5602 -57.8987C-53.4147 -59.16 -52.582 -53.741 -49.7749 -50.4664C-46.3924 -46.5205 -41.8455 -43.7723 -36.7385 -42.7034C-28.8167 -41.0454 -19.8608 -42.371 -13.429 -47.4944C-11.1519 -49.3083 -9.32601 -51.4729 -7.78237 -53.9348C-7.10176 -55.0204 -6.50053 -57.1558 -5.3909 -57.8417C-4.44798 -58.4246 -2.28555 -58.1834 -1.27828 -57.8987ZM1.94535 -58.1464L0.209563 -44.7683C-2.36455 -45.3805 -6.14337 -45.3805 -8.71749 -44.7683L-4.60792 -49.9709L-0.534358 -58.1464H1.94535ZM78.5692 -45.016L1.6974 -45.016L2.68927 -54.4303L3.75635 -57.8597L8.64064 -57.9208L19.7994 -57.8987H62.451H75.0976L79.6506 -57.8786L79.632 -54.678L78.5692 -45.016ZM134.116 -45.016H80.0573L80.9882 -54.678L81.6948 -57.8409L84.5208 -57.9021L91.7121 -57.8984H116.509L122.709 -57.9196L125.829 -57.8702L128.226 -53.6867L134.116 -45.016ZM184.702 -57.8983C178.314 -34.5145 142.873 -31.8403 130.845 -51.457C129.632 -53.4358 128.213 -55.6262 127.668 -57.8983C128.836 -57.9904 130.499 -58.5304 131.583 -57.8917C132.655 -57.2599 133.221 -55.4431 133.887 -54.4301C135.294 -52.2906 136.924 -50.2441 138.827 -48.5264C143.929 -43.9222 150.355 -41.8797 157.177 -42.0466C163.499 -42.2013 169.219 -45.2704 173.535 -49.7266C175.03 -51.2705 176.301 -53.0817 177.399 -54.9256C177.921 -55.8023 178.295 -57.1036 179.13 -57.7393C180.017 -58.4153 183.608 -58.2097 184.702 -57.8983ZM177.015 -45.0159L181.866 -50.9617L185.446 -58.1463C193.169 -56.7138 202.137 -57.8859 209.996 -57.8985C212.373 -57.9022 217.125 -59.1107 219.16 -57.749C221.743 -56.0199 221.509 -49.9328 219.591 -47.7739C218.573 -46.6277 216.652 -46.1666 215.203 -45.8706C209.902 -44.7876 204.462 -45.0159 199.085 -45.0159H177.015ZM0.209858 -44.5204L1.57354 -31.1423L4.42543 -21.4803C-13.1278 -26.1684 -31.4929 -25.1567 -49.3849 -27.6416C-54.6617 -28.3745 -59.9066 -29.4288 -65.0072 -30.964C-67.079 -31.5875 -69.689 -32.0946 -71.4545 -33.372C-69.0318 -34.0875 -65.0079 -34.351 -62.5274 -33.8675C-62.3282 -37.1644 -65.3011 -41.6929 -66.4951 -44.7682H-56.0802C-54.5742 -44.7682 -52.5561 -45.1158 -51.1207 -44.6223C-49.2095 -43.9652 -47.5065 -42.065 -45.6653 -41.1161C-41.2478 -38.8393 -36.2543 -37.6436 -31.2828 -37.5846C-26.1298 -37.5233 -20.888 -38.2534 -16.1564 -40.386C-13.8477 -41.4266 -11.8016 -43.5735 -9.46111 -44.3746C-6.77667 -45.2934 -2.62716 -44.5204 0.209858 -44.5204ZM78.5695 -44.5204L81.7932 1.55975C70.6256 1.55975 58.449 2.26232 47.5728 -0.673563C44.3579 -1.54138 41.3664 -3.34243 38.3978 -4.81485C33.532 -7.22829 28.6293 -9.57621 23.7674 -12.0049C19.4514 -14.1609 15.0659 -16.2206 10.8727 -18.6118C9.47331 -19.4098 7.21365 -19.9643 6.24864 -21.2978C1.89856 -27.3089 1.6977 -37.4442 1.6977 -44.5204L78.5695 -44.5204ZM80.4128 -44.3709C81.6019 -44.9739 83.9485 -44.5204 85.2648 -44.5204H97.1675H122.957C126.526 -44.5204 131.439 -45.4027 134.86 -44.3933C136.748 -43.836 138.33 -41.9444 140.067 -41.0006C143.151 -39.3247 148.437 -37.9949 150.054 -34.6107C151.777 -31.005 148.015 -26.3866 145.986 -23.71C141.885 -18.2983 137.175 -13.3883 132.38 -8.59771C129.28 -5.50141 125.65 -1.88367 121.717 0.142864C119.349 1.36289 116.109 0.861412 113.534 1.10631C106.514 1.77374 99.5139 1.80749 92.456 1.80749H85.7607C85.0484 1.80722 83.8005 2.00883 83.2879 1.37584C82.539 0.451119 82.8288 -2.46526 82.7753 -3.64285C82.5811 -7.91566 82.4047 -12.2666 81.999 -16.5255C81.3246 -23.6059 80.0693 -30.7049 80.0573 -37.8314C80.0573 -39.1488 78.9925 -43.6507 80.4128 -44.3709ZM210.739 -31.6378L218.923 -32.6288C218.922 -28.7659 216.153 -27.3937 212.723 -26.3329C206.945 -24.5455 201.025 -23.6735 195.117 -22.4704C186.527 -20.7209 178.565 -16.3898 170.568 -12.9145C155.535 -6.38169 140.582 -0.392362 123.949 0.321033C126.369 -2.81198 130.591 -5.40171 133.539 -8.12994C138.216 -12.4581 142.463 -17.4365 146.432 -22.4103C148.818 -25.4012 153.245 -30.718 151.283 -34.8584C150.485 -36.5438 148.864 -37.433 147.506 -38.5746C148.818 -38.7693 150.145 -38.1927 151.474 -38.1013C155.067 -37.854 158.82 -37.739 162.385 -38.4037C165.809 -39.0424 168.981 -40.2476 172.056 -41.8585C173.45 -42.5891 174.768 -43.9498 176.271 -44.3933C177.964 -44.8929 180.217 -44.5204 181.974 -44.5204H193.629H204.788C205.811 -44.5204 208.012 -44.9322 208.854 -44.2658C209.548 -43.7163 209.427 -41.6324 209.5 -40.8043C209.762 -37.806 210.035 -34.5615 210.739 -31.6378ZM179.247 -38.6912C176.505 -38.0579 174.992 -34.6804 176.865 -32.3917C178.232 -30.7212 180.469 -30.3544 182.47 -30.9091C185.226 -31.6728 186.436 -35.0794 184.564 -37.29C183.306 -38.775 181.069 -39.1122 179.247 -38.6912ZM63.7179 -36.4087C62.1869 -36.0805 62.0955 -33.3635 63.4762 -32.7783C65.2014 -32.0469 71.3558 -32.0469 73.081 -32.7783C74.3802 -33.329 74.3935 -35.8048 73.0587 -36.3271C72.26 -36.6396 71.2221 -36.3554 70.3866 -36.3458C68.3326 -36.3222 65.7026 -36.8343 63.7179 -36.4087ZM132.413 -36.4447C131.006 -36.0153 130.892 -33.4389 132.201 -32.8127C134.02 -31.9424 137.568 -32.6288 139.571 -32.6288C140.301 -32.6288 141.302 -32.4625 141.982 -32.7783C143.251 -33.3678 143.006 -35.8572 141.776 -36.3332C140.931 -36.6602 139.949 -36.3696 139.075 -36.3485C137.088 -36.3007 134.287 -37.0167 132.413 -36.4447ZM-17.148 -36.0972C-17.2994 -35.2822 -17.6062 -34.2057 -17.1033 -33.4508C-16.4929 -32.534 -13.0866 -32.5257 -12.3379 -33.2738C-10.3666 -35.2432 -13.2735 -36.0971 -14.668 -36.0972H-17.148ZM128.909 -1.66092C134.247 -1.70507 139.704 -3.37521 144.779 -4.91025C154.379 -7.81356 163.122 -11.391 172.056 -15.9662C176.539 -18.262 182.327 -20.234 186.191 -23.4623C182.622 -24.0755 178.658 -23.71 175.032 -23.71C170.277 -23.71 165.376 -24.0426 160.649 -23.534C158.106 -23.2603 155.134 -24.0137 152.714 -22.9456C150.66 -22.0389 148.922 -20.0104 147.259 -18.5459C143.92 -15.606 140.564 -12.6628 137.34 -9.59825C134.762 -7.14805 130.679 -4.74915 128.909 -1.66092ZM9.63347 -23.2146C10.3704 -21.7613 12.027 -20.8267 13.3531 -19.9308C16.3823 -17.8842 19.5664 -16.0619 22.776 -14.3159C31.5274 -9.55519 41.0629 -3.95088 50.7971 -1.53094C54.7669 -0.544024 58.8937 -0.449383 62.9477 -0.152478C67.0422 0.14737 71.2405 0.321016 75.3464 0.321016C76.2809 0.321016 78.6609 0.74664 79.3069 -0.076211C80.137 -1.13348 79.2444 -5.06432 79.0661 -6.36804C78.3012 -11.9479 78.2853 -17.6248 77.5782 -23.2146L9.63347 -23.2146ZM83.7775 -22.9668C85.0212 -17.7478 84.5437 -11.4861 84.7792 -6.12029C84.8298 -4.97102 84.5222 -0.887799 85.415 -0.181346C86.3635 0.569167 88.3958 -0.117279 89.4809 -0.164697C92.9699 -0.317334 96.4193 0.0732887 99.8958 0.0732887C106.05 0.0732887 113.848 1.06012 119.734 -1.01363C126.082 -3.25042 131.5 -9.78967 135.359 -15.039C137.152 -17.4771 140.038 -20.2354 140.811 -23.2145L101.88 -23.2145H89.9769L83.7775 -22.9668ZM275.461 38.9689C274.618 35.4333 275.213 31.2011 275.213 27.5727V5.27589C275.213 2.31279 275.751 -1.24748 275.082 -4.13834C274.012 -8.76355 269.206 -7.39246 266.075 -8.7472C264.878 -9.26497 264.789 -10.8438 263.31 -11.3246C261.786 -11.8204 259.555 -11.7514 258.103 -11.0627C257.229 -10.6481 256.398 -9.53857 255.375 -9.5774C253.308 -9.65589 251.519 -11.8567 249.424 -12.0743C246.855 -12.3412 242.53 -9.03846 240.249 -7.91489C239.41 -7.50171 238.053 -7.09343 237.528 -6.27129C236.723 -5.01027 237.273 -2.13057 237.273 -0.66994V13.4514V66.9639V82.5717C237.273 84.0265 236.682 87.1488 237.528 88.3766C238.103 89.2111 239.609 89.3921 240.497 89.7342C242.825 90.6316 247.451 93.3549 249.92 92.8434C251.71 92.4725 253.486 90.3887 255.304 90.3926C256.12 90.3941 256.914 91.3902 257.607 91.7582C259.008 92.5021 261.023 92.7169 262.566 92.3495C264.183 91.9646 264.678 90.5176 266.049 89.8835C269.024 88.5075 272.839 88.9455 274.648 85.5446C276.092 82.8289 275.213 78.1435 275.213 75.1394V51.1083C275.213 48.2958 274.238 43.3133 275.363 40.7398C275.836 39.6565 277.485 39.9599 278.437 39.9599C280.129 39.9599 282.243 39.6217 283.882 40.0664C285.09 40.3938 285.939 41.6772 287.307 40.8719C288.584 40.1205 287.944 38.3738 286.619 38.1664C285.623 38.0106 284.647 38.7723 283.644 38.8416C281.021 39.0228 277.985 38.4206 275.461 38.9689ZM-110.634 19.3972C-110.634 13.483 -110.527 7.487 -110.382 1.55975C-110.322 -0.890931 -109.455 -3.88653 -110.88 -6.11646C-113.369 -10.0107 -119.453 -8.65259 -123.277 -8.86877C-125.193 -8.97712 -126.541 -11.428 -128.736 -11.744C-130.134 -11.9453 -132.012 -11.8104 -133.144 -10.876C-133.783 -10.3481 -133.967 -9.34254 -134.743 -8.99476C-137.761 -7.6419 -141.652 -8.81887 -143.501 -5.12931C-144.346 -3.44377 -143.862 -0.777689 -143.862 1.06426V14.6901V63.7432V78.6078C-143.862 80.6415 -144.364 83.4503 -143.386 85.2967C-141.459 88.9346 -137.731 88.1634 -134.697 89.7629C-132.637 90.8486 -131.954 92.6742 -129.232 92.4068C-126.779 92.1659 -125.241 89.9626 -123.032 89.7707C-119.602 89.4725 -115.215 90.6444 -112.144 88.6465C-108.542 86.3031 -110.138 78.1568 -110.138 74.3961C-110.138 70.6628 -109.158 65.3679 -110.217 61.798C-110.617 60.4472 -112.73 61.0214 -113.057 59.28C-113.509 56.8763 -113.113 54.0491 -113.113 51.6038V36.2437V23.6089C-113.113 21.7074 -112.855 19.7407 -110.634 19.3972ZM247.192 2.05524L238.761 -5.37705V-5.87254C242.754 -7.76287 247.609 -11.8893 251.904 -9.77602C253.494 -8.99345 255.908 -8.42697 255.296 -6.14245C255.008 -5.06359 253.694 -4.16455 252.905 -3.44081C250.972 -1.66601 248.911 0.0705846 247.192 2.05524ZM-130.967 -10.4944C-129.119 -10.8754 -126.4 -10.324 -125.662 -8.34901C-125.163 -7.01525 -125.512 -5.05244 -125.512 -3.64285C-125.512 0.0855966 -125.878 4.05524 -125.441 7.75332C-124.63 14.6201 -125.264 21.8944 -125.264 28.8115L-125.264 68.9458C-125.264 72.555 -125.489 76.246 -125.242 79.8465C-125.059 82.5104 -124.37 86.1129 -125.095 88.7232C-125.496 90.1675 -127.391 90.9701 -128.736 91.1681C-130.015 91.3564 -131.739 91.2535 -132.449 89.9779C-133.139 88.736 -132.703 86.435 -132.703 85.0491V73.1574V11.9649V-5.12931C-132.703 -6.96666 -133.367 -9.99951 -130.967 -10.4944ZM260.831 -10.4858C261.856 -10.5487 263.4 -10.3533 263.87 -9.29409C264.482 -7.91504 264.054 -5.62611 264.054 -4.13833V8.00108V69.1936V86.0401C264.054 88.0304 264.558 91.0033 261.823 91.2283C260.138 91.3669 257.82 91.1594 256.907 89.4853C256.204 88.1962 256.615 85.9816 256.615 84.5536V72.9097V11.4695V-1.41317C256.615 -3.35234 256.248 -5.72015 256.719 -7.60674C257.183 -9.46627 259.048 -10.3764 260.831 -10.4858ZM-134.191 -7.85449V57.3019V77.8645L-133.943 88.2697C-136.627 88.9468 -141.396 87.0182 -142.347 84.3049C-142.927 82.6516 -142.622 80.5838 -142.622 78.8555V68.2024V12.9558V-0.174598C-142.622 -1.9633 -142.917 -4.16408 -141.574 -5.57829C-139.622 -7.63345 -136.69 -7.26016 -134.191 -7.85449ZM-111.378 -3.643L-124.024 -3.39526V-7.60688C-119.846 -7.93634 -112.621 -8.98364 -111.378 -3.643ZM265.542 88.7651L265.294 88.5173L265.542 74.6437V48.383V12.4603L265.294 -7.35915C267.66 -8.00908 272.385 -7.11202 273.475 -4.6118C274.109 -3.15708 273.723 -0.989749 273.725 0.568631V11.7171V68.9456C273.725 72.652 273.581 76.3914 273.744 80.0941C273.828 81.999 274.183 84.1955 272.884 85.7815C271.217 87.8148 267.979 88.2926 265.542 88.7651ZM238.761 -4.88172L246.448 2.30283V2.79832L238.761 9.73511L238.513 -0.174598L238.761 -4.88172ZM255.375 -4.88172V10.2306C252.492 8.69504 249.065 4.95974 247.192 2.30283L255.375 -4.88172ZM-99.7229 84.8012H-91.0439V61.7611V14.69V1.5596L-91.1303 -3.24577L-93.0276 -3.643L-99.3576 -3.49351L-99.7229 1.5596V17.6629V84.8012ZM-73.1898 -3.39526C-74.6151 4.16267 -75.4032 11.8369 -76.8139 19.3971C-77.1426 21.1588 -78.7242 22.4335 -78.9637 24.1042C-79.5683 28.3202 -78.8931 33.2017 -78.8931 37.4823C-78.8931 43.8254 -79.4957 50.4927 -78.867 56.8063C-78.688 58.6041 -77.2164 59.9802 -76.827 61.7611C-75.2499 68.9723 -73.263 77.1912 -72.9416 84.5534H-21.6111C-13.214 84.5534 -4.42711 85.3045 3.93016 84.5277C6.7985 84.261 9.72754 83.1259 12.5672 82.5761C22.6364 80.6266 32.6364 77.9442 42.7568 76.3082C48.6825 75.3503 54.9746 75.6393 60.9641 75.3772C71.2106 74.9289 81.4373 74.5944 91.7128 74.6439C106.055 74.7131 120.832 74.5617 135.108 75.9245C153.502 77.6804 171.53 82.9228 189.91 84.759C199.865 85.7534 210.402 84.8012 220.411 84.8012C221.418 77.0131 223.33 69.3476 224.089 61.5133C224.748 54.7076 224.131 47.5428 224.131 40.703C224.131 33.2685 224.716 25.547 223.924 18.1584C223.362 12.9134 222.586 7.72559 221.552 2.55055C221.263 1.10618 221.265 -1.90764 220.199 -2.99193C219.345 -3.86029 216.357 -3.39527 215.204 -3.39527H200.821C179.927 -3.39527 158.972 2.11881 138.332 5.17137C133.216 5.928 128.107 5.80346 122.958 6.02871C111.224 6.54202 99.5131 6.74329 87.7456 6.76219C76.6925 6.77995 65.5674 6.79719 54.5171 6.04112C50.4139 5.76039 46.1946 6.0788 42.1184 5.45006C32.2391 3.92622 22.3443 0.818697 12.6096 -1.47144C10.0947 -2.06308 7.48299 -3.04247 4.92234 -3.34958C-2.05891 -4.18687 -9.61588 -3.39529 -16.6514 -3.39529C-35.4246 -3.39529 -54.4428 -2.50618 -73.1898 -3.39526ZM-111.377 -2.8998L-111.625 -0.174626H-111.873V-2.65206H-123.776V8.24863L-124.272 -0.174626L-123.697 -2.82219L-120.056 -2.8998H-111.377ZM-91.5393 84.3057H-99.2266V-3.14751C-97.581 -3.14751 -93.2414 -3.92511 -91.937 -2.89289C-90.9805 -2.1361 -91.5393 1.18156 -91.5393 2.30283V18.1584V84.3057ZM-139.394 -2.73805C-142.255 -1.81304 -141.845 6.89469 -137.415 5.62919C-134.268 4.7301 -134.604 -4.28678 -139.394 -2.73805ZM-129.714 -2.42129C-131.266 -2.00083 -130.532 0.224733 -128.998 -0.328861C-127.559 -0.847998 -128.316 -2.79994 -129.714 -2.42129ZM268.777 -2.46812C267.407 -1.91045 267.527 -0.412911 267.526 0.816381C267.526 3.30099 267.8 7.08686 271.483 5.58733C272.931 4.99792 272.734 3.33687 272.734 2.05509C272.734 -0.453273 272.385 -3.93724 268.777 -2.46812ZM-138.899 -2.29665C-135.443 -3.25876 -135.432 4.56207 -137.668 5.16736C-141.199 6.12282 -141.171 -1.6642 -138.899 -2.29665ZM260.143 -2.21924C258.683 -1.56647 259.995 0.192991 261.289 -0.327908C262.789 -0.931372 261.511 -2.83112 260.143 -2.21924ZM269.758 -2.27735C273.179 -2.85791 273.259 4.76428 270.745 5.21897C267.196 5.86087 267.268 -1.85487 269.758 -2.27735ZM3.68137 -2.15653V-1.90879L-47.1533 13.7472L-66.2472 19.6104L-76.4141 22.6177C-74.2943 17.2022 -73.9709 10.5419 -73.1581 4.78026C-72.9572 3.35609 -72.9576 -0.993789 -71.8011 -1.90191C-70.7724 -2.70981 -67.7618 -2.15653 -66.4952 -2.15653H-52.1127L3.68137 -2.15653ZM190.38 -2.0491C191.7 -1.9967 192.671 0.307027 193.225 1.31186C195.305 5.08307 196.78 9.00349 197.702 13.2035C199.74 22.4886 198.837 32.4828 198.837 41.9417C198.837 49.7878 199.679 58.2625 197.987 65.9727C196.96 70.6554 195.554 75.3181 193.354 79.5986C192.664 80.9421 191.956 83.492 190.156 83.5258C186.355 83.597 182.246 82.2898 178.503 81.6891C169.165 80.1908 159.838 78.5655 150.482 77.1885C147.169 76.7009 143.88 76.0942 140.563 75.6347C139.551 75.4945 137.3 75.4859 136.58 74.7076C135.829 73.8973 135.694 71.9774 135.461 70.9276C134.752 67.7412 133.969 64.5062 133.581 61.2656C132.835 55.0379 133.124 48.7062 133.124 42.4372C133.124 35.6774 132.877 28.8581 133.349 22.1223C133.623 18.2181 134.543 14.5228 135.441 10.7261C135.707 9.60229 135.709 7.54889 136.722 6.80293C137.706 6.07795 139.633 6.14269 140.811 5.92262C144.339 5.26345 147.927 4.76406 151.474 4.21673C160.322 2.85135 169.177 1.44466 178.007 -0.0346641C181.876 -0.682915 186.465 -2.20442 190.38 -2.0491ZM219.418 83.5625C212.763 84.7969 205.11 83.8102 198.341 83.8102C196.357 83.8102 194.07 83.4341 192.141 83.8102C191.984 81.4524 194.622 78.1277 195.514 75.8825C197.554 70.7455 198.768 65.5145 199.29 60.0269C200.047 52.0841 199.333 43.7299 199.333 35.7481C199.333 28.9454 200.054 21.6345 198.672 14.9377C197.9 11.1993 196.825 7.48593 195.171 4.03703C194.201 2.01548 192.45 -0.0146598 191.894 -2.15653H211.731C213.379 -2.15653 217.672 -2.92683 218.99 -1.90191C220.105 -1.03496 220.098 2.22691 220.361 3.54155C221.451 8.98876 222.509 14.5821 222.646 20.1403C222.957 32.7933 223.735 45.8904 222.868 58.5405C222.294 66.9162 219.777 75.2219 219.418 83.5625ZM3.43364 -1.16557C0.80938 5.99558 -4.40036 12.059 -6.22736 19.6448C-7.5592 25.1748 -6.73323 31.5734 -6.73323 37.2346C-6.73323 45.7366 -8.09148 55.5343 -5.63267 63.7431C-3.55728 70.6718 0.932577 76.2882 3.68166 82.8193C-2.76895 81.9472 -9.72372 78.7171 -15.9083 76.6444C-28.5733 72.3998 -41.4121 68.6687 -54.0962 64.4861C-59.6176 62.6654 -65.1501 60.8726 -70.7104 59.1759C-72.9942 58.479 -75.2867 57.4033 -77.6537 57.054V42.4372C-76.2249 42.4994 -73.7232 43.8768 -72.456 43.2268C-69.0922 41.5014 -68.6193 36.4082 -72.704 35.1775C-73.9744 34.7947 -76.1796 35.8519 -77.4057 36.2436L-77.6537 26.8294L-77.0789 23.5726L-69.9665 21.254L-53.1043 16.0713L-13.4285 3.85848L3.43364 -1.16557ZM2.93774 1.06411C2.49942 5.46242 0.685155 9.73887 0.252119 14.1945C-0.386835 20.7685 0.120143 27.418 -0.0415855 34.0139C-0.295486 44.3697 -1.26005 55.1566 -0.243855 65.4773C0.265359 70.6488 2.03112 75.5581 3.18569 80.5896H2.93774C-1.01575 74.1359 -4.93376 66.8334 -6.15676 59.2837C-7.33774 51.9935 -6.23733 43.6358 -6.23733 36.2436C-6.23733 31.5827 -6.82108 26.4875 -6.16286 21.8745C-5.51386 17.3264 -3.25905 13.1049 -1.35416 8.99188C-0.152507 6.39718 1.10799 3.27032 2.93774 1.06411ZM254.383 10.4783H239.256L244.712 4.78025L246.944 3.27431L249.175 5.028L254.383 10.4783ZM169.328 3.64667C161.555 4.6663 153.887 6.1318 146.266 8.03226C144.372 8.5047 139.888 8.69122 138.544 10.1314C137.78 10.949 137.704 12.8841 137.488 13.9467C136.841 17.1343 136.101 20.3368 136.1 23.6087V57.3017C136.1 60.715 136.628 64.1037 137.234 67.4592C137.42 68.487 137.397 70.4555 138.229 71.1916C139.02 71.8909 140.562 71.9615 141.555 72.1671C144.042 72.6818 146.518 73.3023 148.994 73.8711C157.762 75.8853 166.515 77.6167 175.527 77.6167C177.826 77.6167 180.438 77.9651 182.704 77.5799C184.391 77.2931 183.462 73.4287 183.462 72.1663V54.8243V16.4242C183.462 13.2887 183.393 10.1445 183.462 7.00994C183.482 6.16575 184.03 4.43312 183.269 3.79617C182.503 3.15527 180.435 3.54154 179.491 3.54154C176.159 3.54154 172.629 3.21316 169.324 3.64667M134.856 6.7622L131.89 22.1222L131.88 43.6759L131.923 59.0359L134.856 74.8915L125.433 74.3862L107.331 73.8996L70.6312 73.6625L42.8582 75.1392L40.8966 61.2656L40.8743 43.1804L40.884 20.6358L42.8579 6.7622L74.8465 7.99728L111.299 7.50906L134.856 6.7622ZM-123.78 8.99188V10.2306H-124.028L-123.78 8.99188ZM-122.292 10.7261L-122.292 70.9276H-123.78L-124.028 10.7261H-122.292ZM-121.222 10.8767C-119.562 10.0953 -119.565 12.2208 -119.565 13.2035V22.8655L-119.565 59.2837V67.9547C-119.565 68.7397 -119.266 70.3156 -120.139 70.7425C-121.676 71.4938 -121.794 69.6881 -121.796 68.6979V60.0269L-121.796 23.8565V14.1945C-121.796 13.3487 -122.171 11.3238 -121.222 10.8767ZM-119.069 70.9276L-119.069 10.7261L-117.092 11.1233L-116.837 14.1945V21.8745V58.2927L-116.837 67.2115L-117.092 70.5304L-119.069 70.9276ZM-111.878 10.7261V18.4061C-115.276 19.7501 -114.605 24.1271 -114.605 27.0771V52.8424C-114.605 55.9486 -115.749 61.2633 -111.63 62.0089L-111.382 70.6799C-112.315 70.9554 -115.391 71.4363 -116.09 70.5277C-116.66 69.7866 -116.341 68.0941 -116.341 67.2115V58.7882L-116.341 22.37V13.9467C-116.341 13.1661 -116.643 11.534 -115.943 10.9807C-115.098 10.3118 -112.911 10.7261 -111.878 10.7261ZM243.716 11.4693C244.713 14.837 243.965 19.3527 243.965 22.8655C240.896 22.9018 241.981 27.0142 241.981 29.3068V50.6127C241.981 52.9975 240.781 58.0073 243.965 58.045V70.1844L238.907 69.9297L238.509 66.2205V55.8153V11.7171L243.716 11.4693ZM251.9 11.4693V25.5907V54.0811L252.148 69.9366L244.46 70.1844V58.045C247.147 57.8402 246.196 53.5876 246.196 51.6037V30.2978C246.196 28.2192 247.254 23.0784 244.46 22.8655V14.69L244.858 11.7239L251.9 11.4693ZM255.123 11.4693L255.371 17.9106V30.05V70.1844H252.644V25.3429V15.4332L252.898 11.8667L255.123 11.4693ZM63.1918 19.5022C60.047 19.9198 57.1486 20.8907 55.5134 23.8565C54.1633 26.3052 54.5127 29.0903 54.5127 31.7842V46.6488C54.5127 50.4303 53.5825 55.5291 55.9108 58.7882C59.0321 63.1574 64.6858 62.5043 69.3911 62.5043C71.3381 62.5043 73.4128 62.7055 75.3425 62.43C86.1171 60.892 83.5256 48.6844 83.5256 40.703C83.5256 35.9773 84.8933 28.6836 82.841 24.3519C79.806 17.9458 69.1026 18.7173 63.1918 19.5022ZM63.1918 19.9633C68.8296 19.2896 79.1498 18.404 82.1572 24.3519C84.3926 28.773 83.0297 36.0952 83.0297 40.9507C83.0297 47.4356 85.5551 60.489 76.3344 61.7164C70.7063 62.4655 59.8386 63.7777 56.3063 58.2506C54.2576 55.045 55.0087 50.5173 55.0087 46.8965V33.5184C55.0087 26.9493 55.2383 20.9137 63.1918 19.9633ZM245.7 23.6087V57.3017L242.725 57.5495L242.477 46.6488V23.6087H245.7ZM-130.291 25.8455C-131.426 26.7711 -129.698 28.4209 -128.604 27.4229C-127.485 26.4016 -129.325 25.0583 -130.291 25.8455ZM260.14 25.7784C258.702 26.3997 259.975 28.3978 261.286 27.7527C262.76 27.0273 261.507 25.1876 260.14 25.7784ZM114.77 34.2617C116.038 36.862 119.801 39.122 121.962 41.0214C122.994 41.9292 123.796 42.9003 125.185 43.1804L118.843 37.4814L114.77 34.2617ZM-77.1612 41.1985V37.2346C-75.8926 36.944 -73.9265 35.9151 -72.7014 36.6506C-70.5075 37.9677 -70.3974 41.2468 -73.1973 41.9969C-74.3652 42.3098 -76.0191 41.46 -77.1612 41.1985ZM-129.483 53.5774C-130.907 53.6652 -130.964 55.7419 -129.483 55.7419C-127.9 55.7419 -127.847 53.4765 -129.483 53.5774ZM260.139 53.7733C258.671 54.4052 259.925 56.4114 261.286 55.7256C262.754 54.9863 261.496 53.1894 260.139 53.7733ZM-76.6653 57.5495L-66.9943 60.7772L-48.6443 66.6527L2.68622 83.067V83.3147H-50.628H-65.2585C-66.8759 83.3147 -69.8978 83.9014 -71.3503 83.1652C-72.5068 82.5792 -72.5509 78.5699 -72.7597 77.3689C-73.6495 72.2526 -74.714 67.1488 -75.458 62.0089C-75.6598 60.6144 -77.0205 58.8473 -76.6653 57.5495ZM254.875 71.1753C253.752 73.5809 251.025 75.2765 249.172 77.1212C248.609 77.6816 247.819 78.7857 246.941 78.8078C246.031 78.8307 245.18 77.6419 244.597 77.069C242.898 75.3995 239.743 73.4697 239.005 71.1753H254.875ZM-111.63 71.4231L-111.382 83.5625C-114.752 84.5579 -119.272 83.8102 -122.788 83.8102V83.5625H-111.878C-111.878 80.1466 -112.946 74.5575 -111.63 71.4231ZM239.005 72.1663C241.293 74.4521 245.069 76.9003 246.444 79.8463L238.757 86.7831L238.509 76.1302L239.005 72.1663ZM255.371 72.1663V87.0309C253.087 85.9668 248.127 81.561 247.436 79.1031L255.371 72.1663ZM-139.154 75.7974C-142.234 76.7372 -141.959 85.6253 -137.42 84.2465C-134.308 83.3011 -134.734 74.4487 -139.154 75.7974ZM269.011 76.0664C266.071 77.205 266.667 85.9457 271.237 84.3418C274.14 83.3231 273.654 74.2679 269.011 76.0664ZM-137.672 76.3628C-135.529 76.7886 -135.3 84.4319 -138.896 83.7535C-141.188 83.321 -141.218 75.6582 -137.672 76.3628ZM269.272 76.5054C273.176 75.2452 273.288 83.1299 270.979 83.8551C267.237 85.0307 267.312 77.1384 269.272 76.5054ZM-75.9213 115.274V115.521L-64.0186 116.512C-65.2298 118.638 -65.9713 123.884 -68.0543 125.176C-69.1235 125.84 -70.7951 125.244 -71.9538 125.193C-74.8822 125.065 -79.9896 124.301 -82.5934 125.779C-85.3096 127.32 -84.5522 131.751 -84.9229 134.35C-85.1081 135.649 -85.5177 136.826 -84.6305 137.991C-83.4351 139.56 -80.7324 139.902 -78.897 140.048L-75.5112 146.737L-73.8568 148.817L-68.4821 148.967H-55.5875C-53.6571 133.786 -42.0454 122.063 -26.0787 124.549C-18.2029 125.775 -11.6947 130.189 -8.00362 137.323C-6.55774 140.117 -5.71815 142.942 -5.03062 145.994C-4.83735 146.851 -4.97408 148.575 -3.95238 148.888C-0.423517 149.969 4.93561 148.967 8.63758 148.967H36.9066L130.145 148.967C131.614 141.852 134.569 135.121 140.064 130.18C148.246 122.824 161.995 122.03 170.387 129.523C174.334 133.047 177.022 137.389 178.945 142.278C179.472 143.618 180.035 148.203 181.305 148.817C183.398 149.83 187.407 148.827 189.658 148.729C196.228 148.441 202.98 149.555 209.496 148.925C211.898 148.692 213.724 147.83 214.699 145.498C215.243 144.197 215.356 142.433 216.352 141.365C217.857 139.752 220.18 140.488 221.509 138.066C222.99 135.365 222.759 129.572 220.146 127.571C217.703 125.701 213.471 125.245 210.488 125.183L211.976 114.035L219.663 115.026C223.709 107.809 210.546 105.482 206.025 104.459C200.979 103.319 195.541 103.014 190.65 101.291C174.702 95.6728 159.959 86.0194 143.287 82.5708C122.866 78.3465 102.501 78.328 81.7898 78.3599C70.2118 78.3777 57.2776 77.4793 46.0816 80.9453C42.9022 81.9296 39.9026 83.8553 36.9066 85.2906C30.6036 88.31 24.2433 91.2781 18.0606 94.537C11.8097 97.8318 5.92592 101.237 -1.03339 102.781C-25.5448 108.22 -53.1128 102.793 -75.9213 115.274ZM78.3182 125.679L69.6391 125.431H53.5209H1.69435C1.69435 119.722 2.21041 114.086 3.82085 108.585C4.42997 106.504 5.00309 103.933 6.39742 102.211C7.32665 101.064 9.33137 100.515 10.6214 99.8495C13.6882 98.268 16.709 96.5986 19.7964 95.0573C25.0786 92.4203 30.3875 89.8493 35.6668 87.2121C39.1809 85.4567 42.8244 83.2283 46.5775 82.0483C50.1996 80.9096 53.9944 80.6555 57.7364 80.2998C63.5316 79.7488 69.2757 79.7371 75.0946 79.595C76.564 79.5591 80.1562 78.6042 81.3922 79.6063C82.0571 80.1452 81.5711 81.5958 81.5445 82.3238C81.4483 84.966 81.1716 87.6111 81.0557 90.2516C80.7018 98.3135 79.6213 106.256 78.8562 114.283C78.5123 117.891 79.3431 122.215 78.3182 125.679ZM80.054 125.679C79.3488 122.719 80.0741 119.268 80.2798 116.265C80.8268 108.285 82.2345 100.236 82.2859 92.2335C82.306 89.1525 82.4909 85.881 82.8525 82.8193C82.9463 82.0252 82.7714 80.4162 83.2845 79.7825C83.8626 79.0687 85.4491 79.3509 86.2534 79.3509H94.1885C99.9228 79.3509 105.587 79.5867 111.299 79.8366C114.229 79.9648 118.199 79.5585 120.97 80.5445C123.354 81.3929 125.525 83.5443 127.417 85.1549C134.624 91.289 141.404 98.4485 146.969 106.107C148.893 108.754 151.976 113.271 149.608 116.509C147.494 119.4 142.629 120.723 139.568 122.401C138.021 123.249 136.528 125.02 134.853 125.51C133.605 125.874 131.941 125.431 130.641 125.431H120.474H93.4446C89.2073 125.431 84.1798 124.697 80.054 125.679ZM255.371 89.0129L249.668 91.5895L246.196 90.5783L238.757 87.7741C240.234 85.6799 242.407 84.1262 244.212 82.3238C244.846 81.6909 245.733 80.4354 246.692 80.3223C247.637 80.2109 248.538 81.4347 249.149 82.0017C251.093 83.8055 254.952 86.2996 255.371 89.0129ZM9.62953 104.373H77.5743L79.5581 80.8373C69.8894 80.8373 59.4932 80.4236 50.0492 82.7933C41.4978 84.939 32.9588 89.9747 25.2519 94.139C21.4802 96.1769 17.6857 98.1831 14.0931 100.532C12.5009 101.573 10.5623 102.665 9.62953 104.373ZM218.919 113.787C217.18 113.567 212.554 112.109 211.063 113.054C210.183 113.612 210.312 115.593 210.202 116.512C209.834 119.571 209.387 122.623 209 125.679H187.179C183.821 125.679 179.756 126.307 176.474 125.584C173.934 125.025 171.348 122.351 168.829 121.332C162.254 118.671 154.351 118.21 147.503 119.981C148.647 117.965 151.171 117.434 151.637 114.778C152.37 110.6 148.653 106.39 146.264 103.382C142.287 98.3765 138.072 93.3877 133.359 89.0513C130.704 86.6085 125.993 83.8974 124.193 80.8373C141.063 81.1853 156.363 87.9164 171.556 94.4313C179.604 97.8822 187.438 102.106 196.106 103.726C202.082 104.843 208.232 105.736 213.96 107.855C216.818 108.912 219.311 110.473 218.919 113.787ZM84.0216 104.373H140.808C140.16 101.122 136.637 97.7355 134.608 95.2064C130.763 90.412 126.117 84.5954 120.226 82.2645C114.274 79.9097 106.176 81.0851 99.8919 81.0851C96.4999 81.0851 93.1084 81.3264 89.7286 81.2055C88.6236 81.166 86.3331 80.6101 85.4111 81.3397C84.5296 82.0371 84.7974 86.1439 84.7691 87.2787C84.6271 92.9823 84.0216 98.6586 84.0216 104.373ZM-130.149 81.8354C-131.405 82.6737 -129.961 84.2435 -128.778 83.5545C-127.344 82.7201 -128.92 81.0152 -130.149 81.8354ZM260.12 81.8398C258.625 82.6642 260.183 84.5112 261.492 83.6933C262.795 82.8792 261.333 81.1707 260.12 81.8398ZM128.905 82.8194C130.034 84.7486 132.478 86.2594 134.112 87.7803C138.189 91.5755 142.321 95.3214 146.511 98.9932C148.398 100.647 150.76 103.496 153.206 104.247C156.505 105.26 160.702 104.621 164.117 104.621H185.939C184.783 103.277 182.794 102.617 181.227 101.829C178.566 100.49 175.913 99.0806 173.292 97.664C163.9 92.5888 154.295 88.664 144.031 85.7575C139.135 84.3709 134.017 82.8194 128.905 82.8194ZM-123.78 88.5174C-123.78 87.5684 -124.208 85.2136 -123.383 84.5604C-122.775 84.0799 -121.526 84.3058 -120.805 84.3058H-114.357C-113.649 84.3058 -112.372 84.0745 -111.783 84.5604C-110.98 85.2228 -111.907 86.6963 -112.429 87.2258C-113.979 88.7979 -116.56 88.5174 -118.573 88.5174H-123.78ZM4.67003 102.639C2.44407 108.059 1.21593 113.428 0.525277 119.238C0.274427 121.347 0.605474 123.636 0.206509 125.679C-2.86261 124.949 -6.54941 126.369 -9.46446 125.466C-11.6369 124.794 -13.5504 122.693 -15.6638 121.722C-21.1037 119.224 -27.0636 118.357 -33.022 118.764C-37.2274 119.052 -41.6922 120.008 -45.4206 122.04C-47.3282 123.08 -49.1085 125.027 -51.124 125.746C-52.5691 126.262 -54.5653 125.927 -56.0835 125.927H-66.2504L-62.5308 115.026L-71.4578 114.778L-66.7464 112.584L-52.6119 109.266L-17.1516 106.065L-3.51309 104.469L4.67003 102.639ZM63.1181 114.042C62.1343 114.785 62.3411 116.874 63.4729 117.354C65.3837 118.164 68.8105 117.503 70.879 117.503C71.6115 117.503 72.808 117.72 73.4323 117.249C74.4162 116.506 74.2094 114.416 73.0776 113.937C71.1668 113.127 67.74 113.787 65.6715 113.787C64.939 113.787 63.7425 113.571 63.1181 114.042ZM131.987 114.042C131.007 114.706 131.072 116.855 132.185 117.354C134.094 118.209 137.729 117.503 139.816 117.503C140.527 117.503 141.567 117.676 142.188 117.249C143.106 116.618 143.037 114.408 141.991 113.937C140.087 113.079 136.443 113.787 134.36 113.787C133.645 113.787 132.613 113.617 131.987 114.042ZM-17.1516 114.035C-17.303 114.85 -17.6099 115.927 -17.107 116.682C-16.5108 117.577 -13.1446 117.599 -12.3415 116.964C-10.117 115.204 -13.3901 114.035 -14.6716 114.035H-17.1516ZM-1.28104 139.057C-2.42548 139.057 -4.61588 139.48 -5.58655 138.803C-6.79914 137.956 -7.57348 135.359 -8.39686 134.102C-10.0725 131.546 -12.3485 129.146 -14.9196 127.473C-24.027 121.548 -37.7378 121.394 -46.4122 128.284C-50.1536 131.256 -52.4525 135.138 -54.5954 139.305L-58.5629 139.057C-56.389 131.404 -51.25 125.091 -43.9325 121.792C-28.6752 114.916 -5.42944 121.151 -1.28104 139.057ZM184.699 139.057C183.21 139.057 180.698 139.545 179.341 138.908C178.376 138.455 177.809 136.711 177.294 135.836C176.189 133.959 174.81 132.192 173.289 130.634C169.102 126.346 163.566 123.231 157.422 123.202C150.353 123.168 144.257 124.834 138.846 129.578C136.962 131.23 135.344 133.225 134.011 135.341C133.379 136.343 132.805 138.154 131.784 138.803C130.786 139.436 128.81 139.057 127.665 139.057C128.273 136.502 129.862 134.041 131.302 131.873C143.799 113.064 178.471 115.836 184.699 139.057ZM-30.2939 126.074C-35.7833 126.272 -41.4333 128.207 -45.378 132.162C-52.8512 139.655 -51.552 151.92 -42.9406 157.942C-38.3175 161.176 -33.0967 162.082 -27.5662 161.84C-24.9272 161.724 -22.2627 160.89 -19.8791 159.791C-17.6958 158.784 -15.61 157.326 -13.991 155.547C-12.4963 153.905 -11.2464 152.025 -10.4121 149.958C-5.23557 137.132 -17.9101 125.627 -30.2939 126.074ZM1.9426 139.057H-0.785064C-2.0164 133.742 -5.72395 130.424 -8.72024 126.175L-2.2729 126.171L0.0572051 126.191L0.597744 129.395L1.9426 139.057ZM78.3185 125.927L80.0543 139.057L3.18249 139.057L1.69465 126.174H52.7772H69.1435L78.3185 125.927ZM134.36 126.422C131.725 128.719 129.83 131.802 128.181 134.845C127.626 135.869 126.907 138.397 125.832 138.908C123.501 140.015 118.597 139.057 116.01 139.057H91.957H84.5178C83.7429 139.057 82.3421 139.316 81.6918 138.802C81.0569 138.301 81.0831 136.59 80.9507 135.836C80.4371 132.912 79.5597 128.847 80.0543 125.927L93.4448 126.174H119.978L129.897 126.174L134.36 126.422ZM152.711 126.281C149.529 126.736 146.54 127.679 143.783 129.352C134.452 135.015 132.136 147.58 139.838 155.652C144.579 160.621 152.19 162.732 158.91 161.775C161.824 161.36 164.829 160.406 167.341 158.861C169.464 157.554 171.314 155.912 172.821 153.922C173.996 152.372 174.948 150.582 175.514 148.719C179.67 135.064 165.322 124.477 152.711 126.281ZM185.195 139.057C183.923 133.707 180.017 130.437 177.012 126.175C187.344 126.175 197.677 126.125 208.009 126.175C211.161 126.19 217.562 126.304 219.731 128.994C221.37 131.027 221.952 138.143 218.67 138.979C215.512 139.783 211.271 139.057 208.009 139.057H185.195ZM-51.8676 126.422C-54.2512 130.23 -58.8435 134.132 -58.8109 139.057H-73.4413C-76.2003 139.057 -79.5125 139.333 -82.1195 138.262C-82.8117 137.978 -83.5233 137.559 -83.7485 136.802C-84.0614 135.749 -83.5824 134.642 -83.4347 133.607C-83.1309 131.477 -84.0036 128.286 -81.8589 126.854C-79.9794 125.599 -75.6454 126.422 -73.4413 126.422H-51.8676ZM-54.8433 139.553L-56.8271 147.728H-68.7299C-69.9753 147.728 -72.2605 148.164 -73.3446 147.474C-75.2409 146.266 -76.8091 141.774 -77.9049 139.801L-70.2177 139.553H-54.8433ZM5.41425 147.728H-3.5128L-5.24859 139.553C-3.54322 139.553 0.402678 138.816 1.81613 139.807C2.50373 140.29 2.68503 141.531 2.93454 142.278C3.58383 144.222 4.64035 145.865 5.41425 147.728ZM81.5421 147.728L22.2765 147.728H11.8616C10.5457 147.728 8.60173 148.082 7.39896 147.474C5.02221 146.272 3.78581 142.014 3.67846 139.553H62.4482H75.0949L79.9083 139.807L80.5827 142.03L81.5421 147.728ZM125.681 139.553C125.428 141.242 124.189 146.465 122.792 147.474C122.058 148.004 120.587 147.728 119.73 147.728H112.291H83.03L81.5421 139.801C85.6711 138.581 91.3654 139.553 95.6766 139.553H125.681ZM131.633 139.801L128.765 147.474L124.442 147.728C125.064 143.574 126.588 138.311 131.633 139.801ZM215.944 139.553C214.799 141.589 213.92 145.725 211.966 147.052C209.839 148.496 205.739 147.728 203.297 147.728H181.971L179.492 139.801C182.931 138.785 187.56 139.553 191.146 139.553H215.944Z" fill="#304A6E"/>
</svg>
