<svg width="81" height="72" viewBox="0 0 81 72" fill="none" xmlns="http://www.w3.org/2000/svg">
<rect width="81" height="72" fill="#1A1E26"/>
<rect x="-368" y="-233" width="980" height="753" rx="4" fill="white"/>
<path d="M242.811 39.9732C241.83 35.063 240.437 30.5923 236.888 26.8727C230.172 19.8342 218.752 19.979 212.29 27.3274C207.619 32.6394 206 40.075 207.375 46.9164C208 50.0253 209.233 53.0803 211.182 55.5955C212.614 57.4444 214.143 59.037 216.183 60.2241C227.853 67.0177 240.426 58.3722 242.479 45.9245C242.805 43.9509 243.214 41.9871 242.811 39.9732ZM242.763 225.209C241.321 219.455 239.767 214.215 234.763 210.458C226.609 204.338 215.602 207.2 210.259 215.538C206.919 220.751 206.124 227.465 207.604 233.393C209.601 241.383 216.415 248.454 225.101 248.239C234.386 248.009 240.813 240.253 242.423 231.657C242.816 229.56 243.297 227.34 242.763 225.209ZM206.273 4.51293L197.106 7.98458L196.633 0.0494039L196.115 -3.91815C184.296 20.3092 189.31 47.4491 183.261 72.9536C182.05 78.0594 179.408 82.4925 176.985 87.0881C173.375 93.9361 170.039 100.951 166.668 107.918C165.112 111.134 163.017 114.424 161.949 117.837C158.358 129.317 159.202 142.648 159.202 154.537C159.202 169.466 159.411 184.08 160.894 198.924C161.735 207.34 162.924 216.276 165.938 224.217C170.89 237.262 177.9 249.659 182.269 262.901C184.033 268.248 184.385 274.05 185.682 279.516C186.969 284.945 188.577 293.845 195.868 291.914L194.877 283.979C197.465 283.341 200.171 283.225 202.804 282.844C203.635 282.723 205.16 282.206 205.841 282.89C206.848 283.9 206.596 287.271 207.017 288.69C208.45 293.521 213.337 295.69 218.164 293.866C219.323 293.428 220.651 292.555 221.186 291.395C221.726 290.223 221.421 288.819 222.651 288.049C224.584 286.838 227.074 287.03 228.622 285.147C230.267 283.145 229.808 280.188 229.808 277.78L229.808 260.669C229.808 258.696 230.51 255.092 229.659 253.305C229.053 252.032 224.464 251.463 223.119 250.951C218.555 249.213 214.061 246.469 210.774 242.815C202.924 234.087 203.634 220.031 211.498 211.571C216.303 206.4 223.006 203.552 229.808 202.148V108.91V80.6406C229.808 76.9386 230.81 71.5796 229.73 68.0507C229.415 67.024 227.699 67.133 226.835 66.9813C223.981 66.4794 221.241 65.5058 218.66 64.2132C211.893 60.8244 206.986 54.6972 205.644 47.1642C202.725 30.773 213.932 18.4678 229.808 16.4155V3.27289C229.808 1.8296 230.321 -0.853566 229.554 -2.11726C228.176 -4.38622 223.728 -5.21131 221.666 -6.85403C220.034 -8.15359 220.647 -10.8963 219.113 -12.4563C217.952 -13.6375 216.604 -13.0419 215.192 -12.8884C212.507 -12.5966 208.407 -13.2358 206.704 -10.6098C205.839 -9.27616 206.025 -7.41465 206.025 -5.90211C206.025 -2.42168 206.273 1.02706 206.273 4.51293ZM228.57 15.1756L220.394 17.1594L220.642 -5.65416C222.568 -5.044 227.498 -2.94674 228.487 -1.13782C229.145 0.0656202 228.817 2.41626 228.817 3.76886C228.817 7.5819 228.57 11.3754 228.57 15.1756ZM228.817 77.417L223.119 74.9024L220.667 73.8189L220.394 66.7542L228.57 68.49L228.817 77.417ZM228.817 153.545L220.394 152.057C221.685 132.784 220.642 113.108 220.642 93.7833C220.642 89.2021 221.001 84.4458 220.465 79.8967C220.359 79.0014 219.913 76.0086 221.194 75.8057C222.062 75.6683 223.297 76.279 224.11 76.5531C225.53 77.0317 227.559 77.7726 228.315 79.1752C228.894 80.2488 228.802 82.4003 228.816 83.6163C228.855 86.839 228.817 90.0644 228.817 93.2873V133.707C228.817 140.24 228.243 147.046 228.817 153.545ZM220.394 197.684L220.642 177.35L220.394 153.793L220.642 153.545L228.569 155.033C228.57 164.516 228.817 174.046 228.817 183.55C228.817 186.428 229.899 192.09 228.459 194.64C227.614 196.137 222.048 197.515 220.394 197.684ZM228.569 201.156L220.394 203.388V199.42L228.569 196.444V201.156ZM220.642 287.947V280.011V262.901L220.642 251.494L228.569 253.974L228.569 275.3C228.569 277.758 229.328 281.783 228.005 283.956C226.614 286.24 222.658 286.204 220.642 287.947ZM219.898 13.1919C214.575 13.6571 211.647 18.0089 207.264 20.1351C207.264 12.8501 207.275 5.5658 207.264 -1.68654C207.26 -3.88951 206.452 -8.18201 207.781 -10.0488C209.107 -11.9109 212.533 -11.1953 214.448 -11.4006C215.429 -11.5057 216.419 -11.9552 217.417 -11.7932C218.243 -11.6592 218.73 -11.094 219.065 -10.3618C220.552 -7.11173 219.936 -3.12892 219.899 0.297203C219.855 4.45245 220.57 9.11735 219.898 13.1919ZM219.899 70.7217C201.927 66.4588 195.442 42.5638 203.005 27.3264C206.52 20.2441 212.522 15.8422 219.899 13.4398C221.16 18.5853 215.741 19.418 212.466 22.2251C208.52 25.6076 205.772 30.1545 204.703 35.2615C203.045 43.1833 204.371 52.1392 209.494 58.571C211.308 60.8481 213.473 62.674 215.935 64.2176C217.02 64.8982 219.156 65.4995 219.842 66.6091C220.425 67.552 220.183 69.7145 219.899 70.7217ZM220.146 73.9454L206.768 72.2096C207.381 69.6354 207.381 65.8566 206.768 63.2825L211.971 67.3921L220.146 71.4656V73.9454ZM207.016 150.569V73.6974L216.43 74.6893L219.86 75.7564L219.921 80.6406L219.899 91.7994V134.451V147.098L219.879 151.651L216.678 151.632L207.016 150.569ZM207.016 206.116V152.057L216.678 152.988L219.841 153.695L219.902 156.521L219.898 163.712V188.509L219.92 194.709L219.87 197.829L215.687 200.226L207.016 206.116ZM219.898 256.702C196.514 250.314 193.84 214.873 213.457 202.845C215.436 201.632 217.626 200.213 219.898 199.668C219.99 200.836 220.53 202.499 219.892 203.583C219.26 204.655 217.443 205.221 216.43 205.887C214.291 207.294 212.244 208.924 210.526 210.827C205.922 215.929 203.88 222.355 204.047 229.177C204.201 235.499 207.27 241.219 211.727 245.535C213.27 247.03 215.082 248.301 216.926 249.399C217.802 249.921 219.104 250.295 219.739 251.13C220.415 252.017 220.21 255.608 219.898 256.702ZM207.016 249.015L212.962 253.866L220.146 257.446C218.714 265.169 219.886 274.137 219.899 281.996C219.902 284.373 221.111 289.125 219.749 291.16C218.02 293.743 211.933 293.509 209.774 291.591C208.628 290.573 208.167 288.652 207.871 287.203C206.788 281.902 207.016 276.462 207.016 271.085V249.015ZM206.52 72.2099L193.142 73.5735L183.48 76.4254C188.168 58.8722 187.157 40.5071 189.642 22.6151C190.374 17.3383 191.429 12.0934 192.964 6.99278C193.588 4.92097 194.095 2.311 195.372 0.545525C196.087 2.96818 196.351 6.99212 195.867 9.47257C199.164 9.6718 203.693 6.69886 206.768 5.50494V15.9198C206.768 17.4258 207.116 19.4439 206.622 20.8793C205.965 22.7905 204.065 24.4935 203.116 26.3347C200.839 30.7522 199.644 35.7457 199.585 40.7172C199.523 45.8702 200.253 51.112 202.386 55.8436C203.427 58.1523 205.573 60.1984 206.375 62.5389C207.293 65.2233 206.52 69.3728 206.52 72.2099ZM206.52 150.569L160.44 153.793C160.44 142.626 159.738 130.449 162.674 119.573C163.541 116.358 165.342 113.366 166.815 110.398C169.228 105.532 171.576 100.629 174.005 95.7674C176.161 91.4514 178.221 87.0659 180.612 82.8727C181.41 81.4733 181.964 79.2137 183.298 78.2486C189.309 73.8986 199.444 73.6977 206.52 73.6977V150.569ZM206.371 152.413C206.974 153.602 206.52 155.949 206.52 157.265V169.167V194.957C206.52 198.526 207.403 203.439 206.393 206.86C205.836 208.748 203.944 210.33 203.001 212.067C201.325 215.151 199.995 220.437 196.611 222.054C193.005 223.777 188.387 220.015 185.71 217.986C180.298 213.885 175.388 209.175 170.598 204.38C167.501 201.28 163.884 197.65 161.857 193.717C160.637 191.349 161.139 188.109 160.894 185.534C160.226 178.514 160.193 171.514 160.193 164.456V157.761C160.193 157.048 159.991 155.8 160.624 155.288C161.549 154.539 164.465 154.829 165.643 154.775C169.916 154.581 174.267 154.405 178.525 153.999C185.606 153.325 192.705 152.069 199.831 152.057C201.149 152.057 205.651 150.993 206.371 152.413ZM193.638 282.739L194.629 290.923C190.766 290.922 189.394 288.153 188.333 284.723C186.546 278.945 185.673 273.025 184.47 267.117C182.721 258.527 178.39 250.565 174.914 242.568C168.382 227.535 162.392 212.582 161.679 195.949C164.812 198.369 167.402 202.591 170.13 205.539C174.458 210.216 179.436 214.463 184.41 218.432C187.401 220.818 192.718 225.245 196.858 223.283C198.544 222.485 199.433 220.864 200.575 219.506C200.769 220.818 200.193 222.145 200.101 223.474C199.854 227.067 199.739 230.82 200.404 234.385C201.042 237.809 202.248 240.981 203.859 244.056C204.589 245.45 205.95 246.768 206.393 248.271C206.893 249.964 206.52 252.217 206.52 253.974V265.629V276.788C206.52 277.811 206.932 280.012 206.266 280.854C205.716 281.548 203.632 281.427 202.804 281.5C199.806 281.762 196.561 282.035 193.638 282.739ZM200.691 251.247C200.058 248.505 196.68 246.992 194.392 248.865C192.721 250.232 192.354 252.469 192.909 254.47C193.673 257.226 197.079 258.436 199.29 256.564C200.775 255.306 201.112 253.069 200.691 251.247ZM198.409 135.718C198.08 134.187 195.364 134.096 194.778 135.476C194.047 137.201 194.047 143.356 194.778 145.081C195.329 146.38 197.805 146.393 198.327 145.059C198.64 144.26 198.355 143.222 198.346 142.387C198.322 140.333 198.834 137.703 198.409 135.718ZM198.445 204.413C198.015 203.006 195.439 202.892 194.813 204.201C193.942 206.02 194.629 209.568 194.629 211.571C194.629 212.301 194.463 213.302 194.778 213.982C195.368 215.251 197.857 215.006 198.333 213.776C198.66 212.931 198.37 211.949 198.349 211.075C198.301 209.088 199.017 206.287 198.445 204.413ZM198.097 54.852C197.282 54.7006 196.206 54.3938 195.451 54.8967C194.534 55.5071 194.526 58.9134 195.274 59.6621C197.243 61.6334 198.097 58.7265 198.097 57.332V54.852ZM163.661 200.909C163.705 206.247 165.375 211.704 166.91 216.779C169.814 226.379 173.391 235.122 177.966 244.056C180.262 248.539 182.234 254.327 185.462 258.191C186.075 254.622 185.71 250.658 185.71 247.032C185.71 242.277 186.043 237.376 185.534 232.649C185.26 230.106 186.014 227.134 184.946 224.714C184.039 222.66 182.01 220.922 180.546 219.259C177.606 215.92 174.663 212.564 171.598 209.34C169.148 206.762 166.749 202.679 163.661 200.909ZM185.215 81.6335C183.761 82.3704 182.827 84.027 181.931 85.3531C179.884 88.3823 178.062 91.5664 176.316 94.776C171.555 103.527 165.951 113.063 163.531 122.797C162.544 126.767 162.449 130.894 162.152 134.948C161.853 139.042 161.679 143.241 161.679 147.346C161.679 148.281 161.253 150.661 162.076 151.307C163.133 152.137 167.064 151.244 168.368 151.066C173.948 150.301 179.625 150.285 185.215 149.578V81.6335ZM184.967 155.778C179.748 157.021 173.486 156.544 168.12 156.779C166.971 156.83 162.888 156.522 162.181 157.415C161.431 158.363 162.117 160.396 162.165 161.481C162.317 164.97 161.927 168.419 161.927 171.896C161.927 178.05 160.94 185.848 163.014 191.734C165.25 198.082 171.79 203.5 177.039 207.359C179.477 209.152 182.235 212.038 185.215 212.811V173.88V161.977L184.967 155.778ZM123.031 347.461C126.567 346.618 130.799 347.213 134.427 347.213H156.724C159.687 347.213 163.247 347.751 166.138 347.082C170.764 346.012 169.392 341.206 170.747 338.075C171.265 336.878 172.844 336.789 173.325 335.31C173.82 333.786 173.751 331.555 173.063 330.103C172.648 329.229 171.539 328.398 171.577 327.375C171.656 325.308 173.857 323.519 174.074 321.424C174.341 318.855 171.038 314.53 169.915 312.249C169.502 311.41 169.093 310.053 168.271 309.528C167.01 308.723 164.131 309.273 162.67 309.273H148.549H95.0361H79.4283C77.9735 309.273 74.8512 308.682 73.6234 309.528C72.7889 310.103 72.6079 311.609 72.2658 312.497C71.3684 314.825 68.6451 319.451 69.1566 321.92C69.5275 323.71 71.6113 325.486 71.6074 327.304C71.6059 328.12 70.6098 328.914 70.2418 329.607C69.4979 331.008 69.2831 333.023 69.6505 334.566C70.0354 336.183 71.4824 336.678 72.1165 338.049C73.4925 341.024 73.0545 344.839 76.4554 346.648C79.1711 348.092 83.8565 347.213 86.8606 347.213H110.892C113.704 347.213 118.687 346.238 121.26 347.363C122.343 347.836 122.04 349.485 122.04 350.437C122.04 352.129 122.378 354.243 121.934 355.882C121.606 357.09 120.323 357.939 121.128 359.307C121.879 360.584 123.626 359.944 123.834 358.619C123.989 357.623 123.228 356.647 123.158 355.644C122.977 353.021 123.579 349.985 123.031 347.461ZM142.603 -38.6337C148.517 -38.6337 154.513 -38.5275 160.44 -38.3821C162.891 -38.3219 165.887 -37.4554 168.116 -38.8803C172.011 -41.3688 170.653 -47.4528 170.869 -51.2767C170.977 -53.1932 173.428 -54.5408 173.744 -56.7358C173.945 -58.1338 173.81 -60.0123 172.876 -61.1437C172.348 -61.7828 171.343 -61.9669 170.995 -62.7429C169.642 -65.7612 170.819 -69.6515 167.129 -71.501C165.444 -72.3458 162.778 -71.8622 160.936 -71.8622L147.31 -71.8622H98.2568H83.3922C81.3585 -71.8622 78.5497 -72.3642 76.7033 -71.3862C73.0654 -69.4591 73.8366 -65.7313 72.2371 -62.697C71.1514 -60.6372 69.3258 -59.9541 69.5932 -57.2317C69.8341 -54.7788 72.0374 -53.2406 72.2293 -51.0324C72.5275 -47.6015 71.3556 -43.2149 73.3535 -40.144C75.6969 -36.542 83.8432 -38.1378 87.6039 -38.1378C91.3372 -38.1378 96.6321 -37.1579 100.202 -38.2166C101.553 -38.6172 100.979 -40.7295 102.72 -41.0568C105.124 -41.5087 107.951 -41.1134 110.396 -41.1134H125.756H138.391C140.293 -41.1127 142.259 -40.855 142.603 -38.6337ZM159.945 319.192L167.377 310.761H167.873C169.763 314.754 173.889 319.609 171.776 323.904C170.993 325.494 170.427 327.908 168.142 327.296C167.064 327.008 166.165 325.694 165.441 324.905C163.666 322.972 161.929 320.911 159.945 319.192ZM172.494 -58.9673C172.875 -57.1195 172.324 -54.3996 170.349 -53.6617C169.015 -53.1633 167.052 -53.5121 165.643 -53.5121C161.914 -53.5121 157.945 -53.878 154.247 -53.4414C147.38 -52.6304 140.106 -53.2643 133.189 -53.2643H93.0542C89.445 -53.2643 85.754 -53.4889 82.1535 -53.242C79.4896 -53.0594 75.8871 -52.3698 73.2768 -53.095C71.8325 -53.4964 71.0299 -55.3911 70.8319 -56.7358C70.6436 -58.0149 70.7465 -59.7393 72.0221 -60.4485C73.264 -61.139 75.565 -60.7034 76.9509 -60.7034H88.8426L150.035 -60.7034L167.129 -60.7034C168.967 -60.7034 172 -61.3672 172.494 -58.9673ZM172.486 332.831C172.549 333.856 172.353 335.4 171.294 335.87C169.915 336.482 167.626 336.054 166.138 336.054H153.999H92.8064H75.9599C73.9696 336.054 70.9967 336.558 70.7717 333.823C70.6331 332.138 70.8406 329.82 72.5147 328.907C73.8038 328.204 76.0184 328.615 77.4464 328.615H89.0903H150.531H163.413C165.352 328.615 167.72 328.248 169.607 328.719C171.466 329.183 172.376 331.048 172.486 332.831ZM169.854 -62.1912L104.698 -62.1912L84.1355 -62.1912L73.7303 -61.9432C73.0532 -64.6266 74.9818 -69.3957 77.6951 -70.3474C79.3484 -70.9273 81.4162 -70.6223 83.1445 -70.6223H93.7976H149.044H162.175C163.963 -70.6223 166.164 -70.9174 167.578 -69.574C169.633 -67.6217 169.26 -64.69 169.854 -62.1912ZM165.643 -39.3777L165.395 -52.0243H169.607C169.936 -47.8462 170.984 -40.6213 165.643 -39.3777ZM73.2349 337.542L73.4827 337.294L87.3563 337.542H113.617H149.54L169.359 337.294C170.009 339.66 169.112 344.385 166.612 345.475C165.157 346.109 162.99 345.723 161.431 345.725H150.283H93.0544C89.348 345.725 85.6086 345.581 81.9059 345.744C80.001 345.828 77.8045 346.183 76.2185 344.884C74.1852 343.217 73.7074 339.979 73.2349 337.542ZM166.882 310.761L159.697 318.448H159.202L152.265 310.761L162.175 310.513L166.882 310.761ZM166.882 327.375H151.769C153.305 324.492 157.04 321.065 159.697 319.192L166.882 327.375ZM77.1988 -27.7229V-19.0439H100.239L147.31 -19.0439L160.44 -19.0439L165.246 -19.1303L165.643 -21.0276L165.494 -27.3576L160.44 -27.7229L144.337 -27.7229L77.1988 -27.7229ZM165.395 -1.18978C157.837 -2.61506 150.163 -3.40325 142.603 -4.81387C140.841 -5.14261 139.566 -6.72418 137.896 -6.96373C133.68 -7.56831 128.798 -6.89305 124.518 -6.89305C118.175 -6.89305 111.507 -7.4957 105.194 -6.86701C103.396 -6.68795 102.02 -5.2164 100.239 -4.82696C93.0277 -3.24985 84.8088 -1.26299 77.4466 -0.941613L77.4466 50.3889C77.4466 58.786 76.6955 67.5729 77.4723 75.9302C77.739 78.7985 78.8741 81.7275 79.4239 84.5672C81.3734 94.6364 84.0558 104.636 85.6918 114.757C86.6497 120.683 86.3607 126.975 86.6228 132.964C87.0711 143.211 87.4056 153.437 87.3561 163.713C87.2869 178.055 87.4383 192.832 86.0755 207.108C84.3196 225.502 79.0772 243.53 77.241 261.91C76.2466 271.865 77.1988 282.402 77.1988 292.411C84.9869 293.418 92.6524 295.33 100.487 296.089C107.292 296.748 114.457 296.131 121.297 296.131C128.732 296.131 136.453 296.716 143.842 295.924C149.087 295.362 154.274 294.586 159.449 293.552C160.894 293.263 163.908 293.265 164.992 292.199C165.86 291.345 165.395 288.357 165.395 287.204V272.821C165.395 251.927 159.881 230.972 156.829 210.332C156.072 205.216 156.197 200.107 155.971 194.958C155.458 183.224 155.257 171.513 155.238 159.746C155.22 148.693 155.203 137.567 155.959 126.517C156.24 122.414 155.921 118.195 156.55 114.118C158.074 104.239 161.181 94.3443 163.471 84.6096C164.063 82.0947 165.042 79.483 165.35 76.9223C166.187 69.9411 165.395 62.3841 165.395 55.3486C165.395 36.5754 164.506 17.5572 165.395 -1.18978ZM164.9 -39.3772L162.175 -39.6252V-39.8732H164.652V-51.7759H153.751L162.175 -52.2718L164.822 -51.6971L164.9 -48.0563V-39.3772ZM77.6943 -19.5393V-27.2266L165.148 -27.2266C165.148 -25.581 165.925 -21.2414 164.893 -19.937C164.136 -18.9805 160.818 -19.5393 159.697 -19.5393L143.842 -19.5393L77.6943 -19.5393ZM164.738 -67.3944C163.813 -70.2554 155.105 -69.8451 156.371 -65.4154C157.27 -62.2683 166.287 -62.6044 164.738 -67.3944ZM164.421 -57.7137C164.001 -59.2663 161.775 -58.532 162.329 -56.9979C162.848 -55.5594 164.8 -56.3156 164.421 -57.7137ZM164.468 340.777C163.91 339.407 162.413 339.527 161.184 339.526C158.699 339.526 154.913 339.8 156.413 343.483C157.002 344.931 158.663 344.734 159.945 344.734C162.453 344.734 165.937 344.385 164.468 340.777ZM164.297 -66.8987C165.259 -63.4425 157.438 -63.432 156.833 -65.6684C155.877 -69.1986 163.664 -69.1706 164.297 -66.8987ZM164.219 332.143C163.566 330.683 161.807 331.995 162.328 333.289C162.931 334.789 164.831 333.511 164.219 332.143ZM164.277 341.758C164.858 345.179 157.236 345.259 156.781 342.745C156.139 339.196 163.855 339.268 164.277 341.758ZM164.157 75.6814H163.909L148.253 24.8467L142.39 5.75282L139.382 -4.41412C144.798 -2.29432 151.458 -1.97094 157.22 -1.15813C158.644 -0.957195 162.994 -0.957644 163.902 0.198855C164.71 1.22762 164.157 4.2382 164.157 5.5048V19.8873V75.6814ZM164.049 262.38C163.997 263.7 161.693 264.671 160.688 265.225C156.917 267.305 152.997 268.78 148.796 269.702C139.511 271.74 129.517 270.837 120.058 270.837C112.212 270.837 103.737 271.679 96.0273 269.987C91.3446 268.96 86.6819 267.554 82.4014 265.354C81.0579 264.664 78.508 263.956 78.4742 262.156C78.403 258.355 79.7102 254.246 80.3109 250.503C81.8092 241.165 83.4345 231.838 84.8115 222.482C85.2991 219.169 85.9058 215.88 86.3653 212.563C86.5055 211.551 86.5141 209.3 87.2924 208.58C88.1027 207.829 90.0226 207.694 91.0724 207.461C94.2588 206.752 97.4938 205.969 100.734 205.581C106.962 204.835 113.294 205.124 119.563 205.124C126.323 205.124 133.142 204.877 139.878 205.349C143.782 205.623 147.477 206.543 151.274 207.441C152.398 207.707 154.451 207.709 155.197 208.722C155.922 209.706 155.857 211.633 156.077 212.811C156.737 216.339 157.236 219.927 157.783 223.474C159.149 232.322 160.555 241.177 162.035 250.007C162.683 253.876 164.204 258.465 164.049 262.38ZM78.4375 291.418C77.2031 284.763 78.1898 277.11 78.1898 270.341C78.1898 268.357 78.5659 266.07 78.1898 264.141C80.5476 263.984 83.8723 266.622 86.1175 267.514C91.2545 269.554 96.4855 270.768 101.973 271.29C109.916 272.047 118.27 271.333 126.252 271.333C133.055 271.333 140.366 272.054 147.062 270.672C150.801 269.9 154.514 268.825 157.963 267.171C159.985 266.201 162.015 264.45 164.157 263.894V283.731C164.157 285.379 164.927 289.672 163.902 290.99C163.035 292.105 159.773 292.098 158.458 292.361C153.011 293.451 147.418 294.509 141.86 294.646C129.207 294.957 116.11 295.735 103.46 294.868C95.0838 294.294 86.7781 291.777 78.4375 291.418ZM163.166 75.4336C156.004 72.8094 149.941 67.5996 142.355 65.7726C136.825 64.4408 130.427 65.2668 124.765 65.2668C116.263 65.2668 106.466 63.9085 98.2569 66.3673C91.3282 68.4427 85.7118 72.9326 79.1807 75.6817C80.0528 69.2311 83.2829 62.2763 85.3556 56.0917C89.6002 43.4267 93.3313 30.5879 97.5139 17.9038C99.3346 12.3824 101.127 6.84988 102.824 1.28959C103.521 -0.99417 104.597 -3.28671 104.946 -5.65372H119.563C119.501 -4.22487 118.123 -1.72321 118.773 -0.45602C120.499 2.90777 125.592 3.38068 126.822 -0.703967C127.205 -1.97443 126.148 -4.17956 125.756 -5.40569L135.171 -5.65372L138.427 -5.07889L140.746 2.03351L145.929 18.8957L158.142 58.5715L163.166 75.4336ZM160.936 74.9377C156.538 74.4994 152.261 72.6852 147.806 72.2521C141.232 71.6132 134.582 72.1201 127.986 71.9584C117.63 71.7045 106.843 70.7399 96.5227 71.7561C91.3512 72.2654 86.4419 74.0311 81.4104 75.1857V74.9377C87.8641 70.9842 95.1666 67.0662 102.716 65.8432C110.006 64.6623 118.364 65.7627 125.756 65.7627C130.417 65.7627 135.513 65.1789 140.125 65.8371C144.674 66.4861 148.895 68.741 153.008 70.6458C155.603 71.8475 158.73 73.108 160.936 74.9377ZM151.522 326.383V311.256L157.22 316.712L158.726 318.944L156.972 321.175L151.522 326.383ZM158.353 241.328C157.334 233.555 155.868 225.887 153.968 218.266C153.495 216.372 153.309 211.888 151.869 210.544C151.051 209.78 149.116 209.704 148.053 209.488C144.866 208.841 141.663 208.101 138.391 208.1H104.698C101.285 208.1 97.8963 208.628 94.5408 209.234C93.513 209.42 91.5445 209.397 90.8084 210.229C90.1091 211.02 90.0385 212.562 89.8329 213.555C89.3182 216.042 88.6977 218.518 88.1289 220.994C86.1147 229.762 84.3833 238.515 84.3833 247.527C84.3833 249.826 84.0349 252.438 84.4201 254.704C84.7069 256.391 88.5713 255.462 89.8337 255.462H107.176H145.576C148.711 255.462 151.856 255.393 154.99 255.462C155.834 255.482 157.567 256.03 158.204 255.269C158.845 254.503 158.458 252.435 158.458 251.491C158.458 248.159 158.787 244.629 158.353 241.324M155.238 206.856L139.878 203.89L118.324 203.88L102.964 203.923L87.1085 206.856L87.6138 197.433L88.1004 179.331L88.3375 142.631L86.8608 114.858L100.734 112.897L118.82 112.874L141.364 112.884L155.238 114.858L154.003 146.847L154.491 183.299L155.238 206.856ZM153.008 -51.7803H151.769V-52.0282L153.008 -51.7803ZM151.274 -50.2925H91.0724V-51.7803L151.274 -52.0282V-50.2925ZM151.123 -49.2219C151.905 -47.5623 149.779 -47.5652 148.796 -47.5647H139.135H102.716H94.0453C93.2603 -47.5647 91.6844 -47.266 91.2575 -48.1393C90.5062 -49.6762 92.3119 -49.7945 93.3021 -49.7965H101.973H138.144H147.806C148.651 -49.7965 150.676 -50.1714 151.123 -49.2219ZM91.0724 -47.0688H151.274L150.877 -45.0919L147.806 -44.837H140.125H103.707H94.7885L91.4696 -45.0919L91.0724 -47.0688ZM151.274 -39.8776H143.594C142.25 -43.2758 137.873 -42.6052 134.923 -42.6052H109.158C106.051 -42.6052 100.737 -43.749 99.9911 -39.6295L91.3201 -39.3816C91.0446 -40.3146 90.5637 -43.3909 91.4723 -44.0899C92.2134 -44.6599 93.9059 -44.3411 94.7885 -44.3411H103.212H139.63H148.053C148.834 -44.3411 150.466 -44.6427 151.019 -43.9435C151.688 -43.0981 151.274 -40.9109 151.274 -39.8776ZM150.531 315.716C147.163 316.713 142.647 315.965 139.135 315.965C139.098 312.896 134.986 313.981 132.693 313.981H111.387C109.003 313.981 103.993 312.781 103.955 315.965H91.8156L92.0703 310.907L95.7795 310.509H106.185H150.283L150.531 315.716ZM150.531 323.9H136.409H107.919L92.0634 324.148L91.8156 316.46H103.955C104.16 319.147 108.412 318.196 110.396 318.196H131.702C133.781 318.196 138.922 319.254 139.135 316.46H147.31L150.276 316.858L150.531 323.9ZM150.531 327.123L144.089 327.371H131.95H91.8156V324.644H136.657H146.567L150.133 324.898L150.531 327.123ZM142.498 135.192C142.08 132.047 141.109 129.149 138.144 127.513C135.695 126.163 132.91 126.513 130.216 126.513L115.351 126.513C111.57 126.513 106.471 125.583 103.212 127.911C98.8426 131.032 99.4957 136.686 99.4957 141.391C99.4957 143.338 99.2945 145.413 99.57 147.342C101.108 158.117 113.316 155.526 121.297 155.526C126.023 155.526 133.316 156.893 137.648 154.841C144.054 151.806 143.283 141.103 142.498 135.192ZM142.037 135.192C142.71 140.83 143.596 151.15 137.648 154.157C133.227 156.393 125.905 155.03 121.049 155.03C114.564 155.03 101.511 157.555 100.284 148.334C99.5345 142.706 98.2223 131.839 103.749 128.306C106.955 126.258 111.483 127.009 115.103 127.009H128.482C135.051 127.009 141.086 127.238 142.037 135.192ZM138.391 317.7H104.698L104.451 314.725L115.351 314.477H138.391V317.7ZM136.155 -58.2906C135.229 -59.4263 133.579 -57.698 134.577 -56.6041C135.598 -55.4847 136.942 -57.3246 136.155 -58.2906ZM136.222 332.14C135.6 330.702 133.602 331.975 134.247 333.286C134.973 334.76 136.812 333.507 136.222 332.14ZM127.738 186.77C125.138 188.038 122.878 191.801 120.979 193.962C120.071 194.994 119.1 195.796 118.82 197.185L124.519 190.843L127.738 186.77ZM120.802 -5.16124H124.765C125.056 -3.89256 126.085 -1.92645 125.349 -0.701362C124.032 1.49254 120.753 1.60263 120.003 -1.19734C119.69 -2.36522 120.54 -4.0191 120.802 -5.16124ZM108.423 -57.4827C108.335 -58.9072 106.258 -58.9645 106.258 -57.4827C106.258 -55.8996 108.524 -55.8466 108.423 -57.4827ZM108.227 332.139C107.595 330.671 105.589 331.925 106.274 333.286C107.014 334.754 108.811 333.496 108.227 332.139ZM104.451 -4.66527L101.223 5.0057L95.3473 23.3557L78.933 74.6862H78.6853L78.6853 21.372V6.74149C78.6853 5.12413 78.0986 2.10218 78.8348 0.649673C79.4208 -0.506751 83.4301 -0.550866 84.6311 -0.759685C89.7474 -1.64949 94.8512 -2.71396 99.9911 -3.45796C101.386 -3.65978 103.153 -5.02049 104.451 -4.66527ZM90.8247 326.875C88.4191 325.752 86.7235 323.025 84.8788 321.172C84.3184 320.609 83.2143 319.819 83.1922 318.941C83.1693 318.031 84.3581 317.18 84.931 316.597C86.6005 314.898 88.5303 311.743 90.8247 311.005V326.875ZM90.5769 -39.6295L78.4375 -39.3816C77.4421 -42.7525 78.1898 -47.2723 78.1898 -50.7884H78.4375V-39.8776C81.8534 -39.8776 87.4425 -40.9461 90.5769 -39.6295ZM89.8337 311.005C87.5479 313.293 85.0997 317.069 82.1537 318.444L75.2169 310.757L85.8698 310.509L89.8337 311.005ZM89.8337 327.371H74.9691C76.0332 325.087 80.439 320.127 82.8969 319.436L89.8337 327.371ZM86.2026 -67.1537C85.2628 -70.2335 76.3747 -69.9594 77.7535 -65.4199C78.6989 -62.3076 87.5513 -62.7341 86.2026 -67.1537ZM85.9336 341.011C84.795 338.071 76.0543 338.667 77.6582 343.237C78.6769 346.14 87.7321 345.654 85.9336 341.011ZM85.6372 -65.6716C85.2114 -63.529 77.5681 -63.2996 78.2465 -66.8957C78.679 -69.188 86.3418 -69.2177 85.6372 -65.6716ZM85.4946 341.272C86.7548 345.176 78.8701 345.288 78.1449 342.979C76.9693 339.237 84.8616 339.312 85.4946 341.272ZM46.7264 -3.92135H46.4787L45.4877 7.98138C43.3615 6.77021 38.1157 6.02874 36.8236 3.94569C36.1604 2.87645 36.7563 1.20486 36.8069 0.0462028C36.9351 -2.88224 37.6987 -7.98956 36.2214 -10.5934C34.6803 -13.3096 30.2491 -12.5522 27.6502 -12.9229C26.3512 -13.1081 25.174 -13.5177 24.0094 -12.6305C22.4403 -11.4351 22.098 -8.73236 21.9521 -6.89703L15.2631 -3.51115L13.1829 -1.85682L13.0334 3.51786V16.4125C28.2144 18.3429 39.9375 29.9546 37.4512 45.9213C36.2248 53.7971 31.8114 60.3053 24.6773 63.9964C21.8829 65.4423 19.0578 66.2818 16.0063 66.9694C15.1485 67.1627 13.4251 67.0259 13.1121 68.0476C12.0313 71.5765 13.0334 76.9356 13.0334 80.6376V108.907V202.145C20.1478 203.614 26.8791 206.569 31.8196 212.064C39.1765 220.246 39.9703 233.995 32.4768 242.387C28.9525 246.334 24.6112 249.022 19.7224 250.945C18.3818 251.472 13.7975 252.035 13.1829 253.305C12.17 255.398 13.1729 259.407 13.2714 261.658C13.5588 268.228 12.4454 274.98 13.0754 281.496C13.3076 283.898 14.1702 285.724 16.5018 286.699C17.8033 287.243 19.5667 287.356 20.6347 288.352C22.2476 289.857 21.5121 292.18 23.9341 293.509C26.6345 294.99 32.4278 294.759 34.4289 292.146C36.2994 289.703 36.7552 285.471 36.8167 282.488L47.9651 283.976L46.9742 291.663C54.1907 295.709 56.5185 282.546 57.5405 278.025C58.6811 272.979 58.9856 267.541 60.7086 262.65C66.3272 246.702 75.9806 231.959 79.4292 215.287C83.6535 194.866 83.672 174.501 83.6401 153.79C83.6223 142.212 84.5207 129.278 81.0547 118.082C80.0704 114.902 78.1447 111.903 76.7094 108.907C73.69 102.604 70.7219 96.2433 67.463 90.0606C64.1682 83.8097 60.7629 77.9259 59.2187 70.9666C53.78 46.4552 59.2068 18.8872 46.7264 -3.92135ZM36.3212 150.318L36.569 141.639V125.521V73.6944C42.2781 73.6944 47.9136 74.2104 53.4155 75.8209C55.4963 76.43 58.0667 77.0031 59.7888 78.3974C60.9364 79.3267 61.4853 81.3314 62.1505 82.6214C63.732 85.6882 65.4014 88.709 66.9427 91.7964C69.5797 97.0786 72.1507 102.388 74.7879 107.667C76.5433 111.181 78.7717 114.824 79.9517 118.578C81.0904 122.2 81.3445 125.994 81.7002 129.736C82.2512 135.532 82.2629 141.276 82.405 147.095C82.4409 148.564 83.3958 152.156 82.3937 153.392C81.8548 154.057 80.4042 153.571 79.6762 153.545C77.034 153.448 74.3889 153.172 71.7484 153.056C63.6865 152.702 55.7438 151.621 47.7174 150.856C44.1088 150.512 39.7853 151.343 36.3212 150.318ZM36.3212 152.054C39.2807 151.349 42.7319 152.074 45.7354 152.28C53.715 152.827 61.764 154.234 69.7665 154.286C72.8475 154.306 76.119 154.491 79.1807 154.853C79.9748 154.946 81.5838 154.771 82.2175 155.285C82.9313 155.863 82.6491 157.449 82.6491 158.253V166.188C82.6491 171.923 82.4133 177.587 82.1634 183.299C82.0352 186.229 82.4415 190.199 81.4555 192.97C80.6071 195.354 78.4557 197.525 76.8451 199.417C70.711 206.624 63.5515 213.404 55.8929 218.969C53.2459 220.893 48.7292 223.976 45.4913 221.608C42.6004 219.494 41.2768 214.629 39.5988 211.568C38.751 210.021 36.98 208.528 36.4904 206.853C36.126 205.605 36.5689 203.941 36.5689 202.641V192.474V165.445C36.5689 161.207 37.3026 156.18 36.3212 152.054ZM72.9871 327.371L70.4105 321.668L71.4217 318.196L74.2259 310.757C76.3201 312.234 77.8738 314.407 79.6762 316.212C80.3091 316.846 81.5646 317.733 81.6777 318.692C81.7891 319.637 80.5653 320.538 79.9983 321.149C78.1945 323.093 75.7004 326.952 72.9871 327.371ZM57.6271 81.6295V149.574L81.1627 151.558C81.1627 141.889 81.5764 131.493 79.2067 122.049C77.061 113.498 72.0253 104.959 67.861 97.2519C65.8231 93.4802 63.8169 89.6857 61.4683 86.0931C60.4275 84.5009 59.3346 82.5623 57.6271 81.6295ZM48.2129 290.919C48.4325 289.18 49.8907 284.554 48.9456 283.063C48.3879 282.183 46.4069 282.312 45.4877 282.202C42.4289 281.834 39.3771 281.387 36.3212 281L36.3212 259.179C36.3212 255.821 35.6934 251.756 36.4162 248.474C36.9755 245.934 39.6486 243.348 40.6684 240.829C43.329 234.254 43.7901 226.351 42.0193 219.503C44.0349 220.647 44.5665 223.171 47.2219 223.637C51.3997 224.37 55.6105 220.653 58.6181 218.264C63.6235 214.287 68.6123 210.072 72.9487 205.359C75.3915 202.704 78.1026 197.993 81.1627 196.193C80.8147 213.063 74.0836 228.363 67.5687 243.556C64.1178 251.604 59.8938 259.438 58.274 268.106C57.1572 274.082 56.2639 280.232 54.1453 285.96C53.0882 288.818 51.5267 291.311 48.2129 290.919ZM57.6271 156.022V212.808C60.8776 212.16 64.2645 208.637 66.7936 206.608C71.588 202.763 77.4046 198.117 79.7355 192.226C82.0903 186.274 80.9149 178.176 80.9149 171.892C80.9149 168.5 80.6736 165.108 80.7945 161.729C80.834 160.624 81.3899 158.333 80.6603 157.411C79.9629 156.53 75.8561 156.797 74.7213 156.769C69.0177 156.627 63.3414 156.022 57.6271 156.022ZM80.1646 -58.1488C79.3263 -59.405 77.7565 -57.9615 78.4455 -56.7777C79.2799 -55.3442 80.9848 -56.9198 80.1646 -58.1488ZM80.1602 332.12C79.3358 330.625 77.4888 332.183 78.3067 333.492C79.1208 334.795 80.8293 333.333 80.1602 332.12ZM79.1806 200.905C77.2514 202.034 75.7406 204.478 74.2197 206.112C70.4245 210.189 66.6786 214.321 63.0068 218.511C61.3532 220.398 58.5042 222.76 57.7532 225.206C56.7403 228.505 57.3793 232.702 57.3793 236.117V257.939C58.723 256.783 59.3828 254.794 60.1712 253.227C61.5099 250.566 62.9194 247.913 64.336 245.292C69.4112 235.9 73.336 226.295 76.2425 216.031C77.6291 211.135 79.1806 206.017 79.1806 200.905ZM73.4826 -51.7803C74.4316 -51.7803 76.7864 -52.2081 77.4396 -51.3827C77.9201 -50.7754 77.6942 -49.5263 77.6942 -48.8046V-42.3573C77.6942 -41.6494 77.9255 -40.3715 77.4396 -39.7829C76.7772 -38.9805 75.3037 -39.9072 74.7742 -40.4292C73.2021 -41.9791 73.4826 -44.5602 73.4826 -46.5729V-51.7803ZM59.3612 76.67C53.9406 74.4441 48.5722 73.2159 42.7624 72.5253C40.6525 72.2744 38.3637 72.6055 36.3211 72.2065C37.0512 69.1374 35.6314 65.4506 36.5337 62.5355C37.2061 60.3631 39.3073 58.4496 40.2778 56.3362C42.7757 50.8963 43.6434 44.9364 43.2358 38.978C42.948 34.7726 41.9921 30.3078 39.9599 26.5794C38.9201 24.6718 36.9734 22.8915 36.2537 20.876C35.7376 19.4309 36.0734 17.4347 36.0734 15.9165V5.74962L46.9741 9.46922L47.2218 0.542176L49.4161 5.25365L52.7341 19.3881L55.9347 54.8484L57.5314 68.4869L59.3612 76.67ZM47.9582 135.118C47.2155 134.134 45.1259 134.341 44.6461 135.473C43.8361 137.384 44.4966 140.811 44.4966 142.879C44.4966 143.612 44.28 144.808 44.7513 145.432C45.4939 146.416 47.5835 146.209 48.0633 145.078C48.8733 143.167 48.2128 139.74 48.2128 137.672C48.2128 136.939 48.4295 135.742 47.9582 135.118ZM47.9582 203.987C47.2937 203.007 45.1449 203.072 44.6461 204.185C43.7908 206.094 44.4965 209.729 44.4966 211.816C44.4967 212.527 44.3243 213.567 44.7513 214.188C45.3824 215.106 47.5921 215.037 48.0633 213.991C48.9208 212.087 48.2129 208.443 48.2128 206.36C48.2127 205.645 48.3827 204.613 47.9582 203.987ZM47.9649 54.8484C47.1498 54.697 46.0734 54.3901 45.3184 54.893C44.423 55.4892 44.4008 58.8554 45.0363 59.6585C46.7964 61.883 47.9648 58.6099 47.9649 57.3284V54.8484ZM22.9428 70.719C22.9428 69.5745 22.5201 67.3841 23.1975 66.4134C24.0436 65.2009 26.6414 64.4265 27.8977 63.6031C30.4545 61.9275 32.8539 59.6515 34.5267 57.0804C40.4522 47.973 40.6059 34.2622 33.716 25.5878C30.7444 21.8464 26.8617 19.5475 22.6951 17.4046L22.9428 13.4371C30.5962 15.611 36.9095 20.75 40.2076 28.0675C47.0843 43.3248 40.8488 66.5706 22.9428 70.719ZM22.9428 256.699C22.9428 255.21 22.4546 252.698 23.0923 251.341C23.5454 250.376 25.2886 249.809 26.1635 249.294C28.041 248.189 29.8079 246.81 31.3661 245.289C35.6544 241.102 38.7686 235.566 38.7982 229.422C38.8322 222.353 37.1658 216.257 32.4217 210.846C30.7696 208.962 28.7751 207.344 26.659 206.011C25.6568 205.379 23.8456 204.805 23.1975 203.784C22.564 202.786 22.9428 200.81 22.9428 199.665C25.4975 200.273 27.9592 201.862 30.1274 203.302C48.9358 215.799 46.1641 250.471 22.9428 256.699ZM35.926 41.7061C35.7278 36.2167 33.7927 30.5667 29.8376 26.622C22.3447 19.1488 10.0803 20.448 4.0576 29.0594C0.824288 33.6825 -0.0820837 38.9033 0.160231 44.4338C0.275848 47.0728 1.11021 49.7373 2.20908 52.1209C3.21556 54.3042 4.67364 56.39 6.45284 58.009C8.09548 59.5037 9.97504 60.7536 12.0422 61.5879C24.8679 66.7644 36.3731 54.0899 35.926 41.7061ZM22.9428 73.9426V71.2149C28.2576 69.9836 31.5759 66.276 35.8255 63.2798L35.8292 69.7271L35.8089 72.0572L32.6049 72.5977L22.9428 73.9426ZM36.0733 150.318L22.9429 152.054V75.1825L35.8255 73.6946V124.777V141.143L36.0733 150.318ZM35.5778 206.36C33.281 203.725 30.1978 201.83 27.1545 200.181C26.1307 199.626 23.603 198.907 23.0924 197.832C21.9852 195.501 22.9429 190.597 22.9429 188.01V163.957V156.518C22.9429 155.743 22.6842 154.342 23.1975 153.692C23.6986 153.057 25.4098 153.083 26.1635 152.951C29.0878 152.437 33.1531 151.56 36.0733 152.054L35.8255 165.445V191.978L35.8263 201.897L35.5778 206.36ZM35.7192 224.711C35.264 221.529 34.3209 218.54 32.6481 215.783C26.9848 206.452 14.42 204.136 6.34755 211.838C1.37879 216.579 -0.732311 224.19 0.224715 230.91C0.639756 233.824 1.59352 236.829 3.13931 239.341C4.44561 241.464 6.08799 243.314 8.07811 244.821C9.62837 245.996 11.4179 246.948 13.2807 247.514C26.9359 251.67 37.5235 237.322 35.7192 224.711ZM22.9427 257.195C28.2931 255.923 31.5631 252.017 35.8253 249.012C35.8253 259.344 35.8749 269.677 35.8251 280.009C35.81 283.161 35.696 289.562 33.0063 291.731C30.9731 293.37 23.8574 293.952 23.0214 290.67C22.2168 287.512 22.9427 283.271 22.9427 280.009L22.9427 257.195ZM35.5776 20.1324C31.7705 17.7488 27.8683 13.1565 22.9427 13.1891V-1.44134C22.9427 -4.20032 22.6666 -7.51248 23.7379 -10.1195C24.0224 -10.8117 24.4405 -11.5233 25.1982 -11.7485C26.2511 -12.0614 27.3576 -11.5824 28.393 -11.4347C30.5233 -11.1309 33.7142 -12.0036 35.1459 -9.85888C36.4005 -7.97943 35.5776 -3.64543 35.5776 -1.44134V20.1324ZM22.4472 17.1567L14.2717 15.1729V3.27013C14.2717 2.02466 13.8357 -0.260515 14.5263 -1.34456C15.7344 -3.24088 20.2255 -4.80907 22.1994 -5.90486L22.4472 1.78229V17.1567ZM14.2717 77.4142V68.4872L22.4472 66.7514C22.4472 68.4568 23.1842 72.4027 22.1926 73.8161C21.7102 74.5037 20.469 74.685 19.722 74.9345C17.7776 75.5838 16.1346 76.6403 14.2717 77.4142ZM14.2717 153.542V94.2765V83.8616C14.2717 82.5457 13.918 80.6017 14.5263 79.399C15.7283 77.0222 19.9865 75.7858 22.4472 75.6785V134.448V147.095L22.1926 151.908L19.9698 152.583L14.2717 153.542ZM22.4472 197.681C20.758 197.428 15.5354 196.189 14.5263 194.792C13.9958 194.058 14.2717 192.587 14.2717 191.73V184.291V155.03L22.1994 153.542C23.4188 157.671 22.4472 163.365 22.4472 167.677V197.681ZM22.1994 203.633L14.5263 200.765L14.2717 196.442C18.4264 197.064 23.6893 198.588 22.1994 203.633ZM22.4472 287.944C20.4105 286.799 16.2746 285.92 14.9476 283.966C13.5041 281.839 14.2717 277.739 14.2717 275.297L14.2717 253.971L22.1994 251.492C23.215 254.931 22.4472 259.56 22.4472 263.146L22.4472 287.944Z" fill="#304A6E"/>
</svg>
