<svg width="72" height="81" viewBox="0 0 72 81" fill="none" xmlns="http://www.w3.org/2000/svg">
<rect width="72" height="81" fill="#1A1E26"/>
<rect x="-786" y="-515" width="980" height="753" rx="4" fill="white"/>
<path d="M-176.027 -80.8114C-180.937 -79.8295 -185.408 -78.4369 -189.127 -74.8876C-196.166 -68.1717 -196.021 -56.7525 -188.673 -50.2903C-183.361 -45.6191 -175.925 -43.9999 -169.084 -45.3751C-165.975 -46 -162.92 -47.2332 -160.404 -49.1818C-158.556 -50.6142 -156.963 -52.1432 -155.776 -54.1825C-148.982 -65.8526 -157.628 -78.4265 -170.075 -80.4792C-172.049 -80.8047 -174.013 -81.2142 -176.027 -80.8114ZM9.20941 -80.7629C3.45548 -79.3205 -1.78542 -77.7675 -5.54155 -72.7633C-11.6619 -64.6093 -8.80016 -53.6019 -0.461556 -48.2591C4.75147 -44.9188 11.4651 -44.1236 17.3925 -45.6044C25.3828 -47.6007 32.4542 -54.4146 32.239 -63.1013C32.0089 -72.3856 24.2527 -78.8131 15.6567 -80.4234C13.56 -80.8162 11.3399 -81.297 9.20941 -80.7629ZM-211.487 -44.2728L-208.015 -35.1063L-215.951 -34.633L-219.918 -34.1154C-195.691 -22.2961 -168.551 -27.3105 -143.046 -21.2614C-137.941 -20.0505 -133.508 -17.4075 -128.912 -14.9849C-122.064 -11.3749 -115.049 -8.03899 -108.082 -4.66839C-104.866 -3.11241 -101.576 -1.0168 -98.1632 0.0507716C-86.6831 3.6417 -73.3516 2.79831 -61.4631 2.79831C-46.5343 2.79831 -31.9201 2.58888 -17.0758 1.10598C-8.65999 0.265261 0.275912 -0.923718 8.21749 -3.93835C21.2618 -8.88998 33.6587 -15.8998 46.9014 -20.2691C52.2479 -22.0331 58.0497 -22.3855 63.5156 -23.6815C68.9449 -24.9689 77.8449 -26.5772 75.9143 -33.8676L67.9791 -32.8767C67.3407 -35.4651 67.2252 -38.171 66.8436 -40.8044C66.7232 -41.6347 66.2061 -43.1597 66.8897 -43.8412C67.9 -44.8482 71.2711 -44.596 72.6905 -45.017C77.5215 -46.4502 79.6896 -51.3374 77.8658 -56.1645C77.4279 -57.3233 76.5554 -58.651 75.395 -59.186C74.2235 -59.7261 72.8193 -59.4209 72.0491 -60.6508C70.8383 -62.5844 71.0304 -65.074 69.1469 -66.6219C67.1447 -68.2672 64.1878 -67.8084 61.7796 -67.8084H44.6694C42.696 -67.8084 39.0925 -68.5095 37.3054 -67.6589C36.0316 -67.0526 35.4629 -62.4644 34.9509 -61.1193C33.2132 -56.5549 30.469 -52.0607 26.8153 -48.7745C18.0869 -40.9235 4.03114 -41.6345 -4.42932 -49.4976C-9.59979 -54.3031 -12.4477 -61.0059 -13.8523 -67.8084H-107.09H-135.359C-139.061 -67.8084 -144.42 -68.8104 -147.949 -67.7296C-148.976 -67.4152 -148.867 -65.6987 -149.019 -64.8355C-149.521 -61.9812 -150.494 -59.2412 -151.787 -56.66C-155.176 -49.8929 -161.303 -44.9864 -168.836 -43.6445C-185.227 -40.7245 -197.532 -51.9322 -199.584 -67.8084H-212.727C-214.17 -67.8084 -216.854 -68.321 -218.117 -67.5538C-220.386 -66.1762 -221.211 -61.7281 -222.854 -59.666C-224.154 -58.0345 -226.896 -58.6466 -228.456 -57.1132C-229.638 -55.9522 -229.042 -54.6035 -228.888 -53.1916C-228.597 -50.5071 -229.236 -46.4068 -226.61 -44.7035C-225.276 -43.8385 -223.415 -44.0251 -221.902 -44.0251C-218.422 -44.0251 -214.973 -44.2728 -211.487 -44.2728ZM-200.824 -66.5697L-198.841 -58.3942L-221.654 -58.6419C-221.044 -60.5682 -218.947 -65.4983 -217.138 -66.4873C-215.934 -67.1452 -213.584 -66.8174 -212.231 -66.8174C-208.418 -66.8174 -204.625 -66.5697 -200.824 -66.5697ZM-138.583 -66.8174L-141.098 -61.1193L-142.181 -58.6674L-149.246 -58.3942L-147.51 -66.5697L-138.583 -66.8174ZM-62.4551 -66.8174L-63.943 -58.3942C-83.2161 -59.6849 -102.892 -58.6419 -122.217 -58.6419C-126.798 -58.6419 -131.554 -59.0012 -136.103 -58.4649C-136.999 -58.3594 -139.991 -57.9134 -140.194 -59.194C-140.332 -60.0616 -139.721 -61.2975 -139.447 -62.1103C-138.968 -63.5296 -138.227 -65.5587 -136.825 -66.3151C-135.751 -66.894 -133.6 -66.802 -132.384 -66.8165C-129.161 -66.8547 -125.936 -66.8172 -122.713 -66.8172H-82.293C-75.7602 -66.8172 -68.9543 -66.2426 -62.4551 -66.8174ZM-18.3158 -58.394L-38.6497 -58.6417L-62.2071 -58.394L-62.4551 -58.6417L-60.9673 -66.5695C-51.4843 -66.5702 -41.9544 -66.8172 -32.4503 -66.8172C-29.5723 -66.8172 -23.9103 -67.8991 -21.3604 -66.4594C-19.8631 -65.614 -18.4852 -60.0479 -18.3158 -58.394ZM-14.8442 -66.5695L-12.6124 -58.394H-16.58L-19.5557 -66.5695H-14.8442ZM71.9465 -58.6417H64.0114H46.9012H35.4944L37.9742 -66.5695H59.2999C61.758 -66.5695 65.7826 -67.3276 67.9556 -66.005C70.2402 -64.6144 70.2042 -60.6575 71.9465 -58.6417ZM-202.808 -57.8985C-202.343 -52.5746 -197.991 -49.6465 -195.865 -45.2636C-203.15 -45.2636 -210.434 -45.2753 -217.687 -45.2636C-219.89 -45.2599 -224.182 -44.4525 -226.049 -45.7812C-227.911 -47.1067 -227.195 -50.5326 -227.401 -52.4481C-227.506 -53.4291 -227.955 -54.4188 -227.793 -55.4172C-227.659 -56.2426 -227.094 -56.7303 -226.362 -57.0652C-223.112 -58.5517 -219.129 -57.936 -215.703 -57.8994C-211.548 -57.8551 -206.883 -58.57 -202.808 -57.8985ZM-145.278 -57.8987C-149.541 -39.9267 -173.436 -33.4423 -188.674 -41.005C-195.756 -44.5201 -200.158 -50.5224 -202.56 -57.8987C-197.415 -59.16 -196.582 -53.741 -193.775 -50.4664C-190.392 -46.5205 -185.845 -43.7723 -180.739 -42.7034C-172.817 -41.0454 -163.861 -42.371 -157.429 -47.4944C-155.152 -49.3083 -153.326 -51.4729 -151.782 -53.9348C-151.102 -55.0204 -150.501 -57.1558 -149.391 -57.8417C-148.448 -58.4246 -146.286 -58.1834 -145.278 -57.8987ZM-142.055 -58.1464L-143.79 -44.7683C-146.365 -45.3805 -150.143 -45.3805 -152.717 -44.7683L-148.608 -49.9709L-144.534 -58.1464H-142.055ZM-65.4308 -45.016L-142.303 -45.016L-141.311 -54.4303L-140.244 -57.8597L-135.359 -57.9208L-124.201 -57.8987H-81.549H-68.9024L-64.3494 -57.8786L-64.368 -54.678L-65.4308 -45.016ZM-9.88441 -45.016H-63.9427L-63.0118 -54.678L-62.3052 -57.8409L-59.4792 -57.9021L-52.2879 -57.8984H-27.4906L-21.2912 -57.9196L-18.1712 -57.8702L-15.7743 -53.6867L-9.88441 -45.016ZM40.7022 -57.8983C34.3137 -34.5145 -1.12675 -31.8403 -13.1549 -51.457C-14.3682 -53.4358 -15.7868 -55.6262 -16.3318 -57.8983C-15.1637 -57.9904 -13.5011 -58.5304 -12.417 -57.8917C-11.3452 -57.2599 -10.7791 -55.4431 -10.1129 -54.4301C-8.70569 -52.2906 -7.07642 -50.2441 -5.17295 -48.5264C-0.0710656 -43.9222 6.35471 -41.8797 13.1771 -42.0466C19.4989 -42.2013 25.2186 -45.2704 29.5346 -49.7266C31.0298 -51.2705 32.3006 -53.0817 33.3986 -54.9256C33.9207 -55.8023 34.2955 -57.1036 35.1301 -57.7393C36.0174 -58.4153 39.6081 -58.2097 40.7022 -57.8983ZM33.015 -45.0159L37.8658 -50.9617L41.4461 -58.1463C49.1689 -56.7138 58.1373 -57.8859 65.9955 -57.8985C68.3728 -57.9022 73.1254 -59.1107 75.1598 -57.749C77.7432 -56.0199 77.5087 -49.9328 75.5913 -47.7739C74.5732 -46.6277 72.6517 -46.1666 71.2029 -45.8706C65.902 -44.7876 60.4624 -45.0159 55.0846 -45.0159H33.015ZM-143.79 -44.5204L-142.426 -31.1423L-139.575 -21.4803C-157.128 -26.1684 -175.493 -25.1567 -193.385 -27.6416C-198.662 -28.3745 -203.907 -29.4288 -209.007 -30.964C-211.079 -31.5875 -213.689 -32.0946 -215.454 -33.372C-213.032 -34.0875 -209.008 -34.351 -206.527 -33.8675C-206.328 -37.1644 -209.301 -41.6929 -210.495 -44.7682H-200.08C-198.574 -44.7682 -196.556 -45.1158 -195.121 -44.6223C-193.209 -43.9652 -191.506 -42.065 -189.665 -41.1161C-185.248 -38.8393 -180.254 -37.6436 -175.283 -37.5846C-170.13 -37.5233 -164.888 -38.2534 -160.156 -40.386C-157.848 -41.4266 -155.802 -43.5735 -153.461 -44.3746C-150.777 -45.2934 -146.627 -44.5204 -143.79 -44.5204ZM-65.4305 -44.5204L-62.2068 1.55975C-73.3744 1.55975 -85.551 2.26232 -96.4272 -0.673563C-99.6421 -1.54138 -102.634 -3.34243 -105.602 -4.81485C-110.468 -7.22829 -115.371 -9.57621 -120.233 -12.0049C-124.549 -14.1609 -128.934 -16.2206 -133.127 -18.6118C-134.527 -19.4098 -136.786 -19.9643 -137.751 -21.2978C-142.101 -27.3089 -142.302 -37.4442 -142.302 -44.5204L-65.4305 -44.5204ZM-63.5872 -44.3709C-62.3981 -44.9739 -60.0515 -44.5204 -58.7352 -44.5204H-46.8325H-21.0432C-17.474 -44.5204 -12.561 -45.4027 -9.14049 -44.3933C-7.25204 -43.836 -5.67002 -41.9444 -3.93304 -41.0006C-0.848673 -39.3247 4.43739 -37.9949 6.05438 -34.6107C7.77722 -31.005 4.01462 -26.3866 1.98618 -23.71C-2.11506 -18.2983 -6.82489 -13.3883 -11.6202 -8.59771C-14.7196 -5.50141 -18.3497 -1.88367 -22.2831 0.142864C-24.6511 1.36289 -27.8906 0.861412 -30.4663 1.10631C-37.4859 1.77374 -44.4861 1.80749 -51.544 1.80749H-58.2393C-58.9516 1.80722 -60.1995 2.00883 -60.7121 1.37584C-61.461 0.451119 -61.1712 -2.46526 -61.2247 -3.64285C-61.4189 -7.91566 -61.5953 -12.2666 -62.001 -16.5255C-62.6754 -23.6059 -63.9307 -30.7049 -63.9427 -37.8314C-63.9427 -39.1488 -65.0075 -43.6507 -63.5872 -44.3709ZM66.7394 -31.6378L74.9226 -32.6288C74.9222 -28.7659 72.1527 -27.3937 68.7232 -26.3329C62.9447 -24.5455 57.0248 -23.6735 51.1171 -22.4704C42.5267 -20.7209 34.5647 -16.3898 26.5677 -12.9145C11.5354 -6.38169 -3.41811 -0.392362 -20.0514 0.321033C-17.631 -2.81198 -13.409 -5.40171 -10.4609 -8.12994C-5.78399 -12.4581 -1.53719 -17.4365 2.43156 -22.4103C4.81805 -25.4012 9.24468 -30.718 7.28311 -34.8584C6.48474 -36.5438 4.86441 -37.433 3.50616 -38.5746C4.81785 -38.7693 6.14543 -38.1927 7.4737 -38.1013C11.0671 -37.854 14.8202 -37.739 18.3846 -38.4037C21.8094 -39.0424 24.9814 -40.2476 28.0555 -41.8585C29.4498 -42.5891 30.7679 -43.9498 32.2711 -44.3933C33.9643 -44.8929 36.2173 -44.5204 37.9745 -44.5204H49.6292H60.7881C61.8111 -44.5204 64.0116 -44.9322 64.8539 -44.2658C65.5485 -43.7163 65.427 -41.6324 65.4995 -40.8043C65.7623 -37.806 66.0346 -34.5615 66.7394 -31.6378ZM35.2468 -38.6912C32.5054 -38.0579 30.9922 -34.6804 32.8648 -32.3917C34.2316 -30.7212 36.4692 -30.3544 38.4704 -30.9091C41.2259 -31.6728 42.4357 -35.0794 40.5638 -37.29C39.3064 -38.775 37.0693 -39.1122 35.2468 -38.6912ZM-80.2821 -36.4087C-81.8131 -36.0805 -81.9045 -33.3635 -80.5238 -32.7783C-78.7986 -32.0469 -72.6442 -32.0469 -70.919 -32.7783C-69.6198 -33.329 -69.6065 -35.8048 -70.9413 -36.3271C-71.74 -36.6396 -72.7779 -36.3554 -73.6134 -36.3458C-75.6674 -36.3222 -78.2974 -36.8343 -80.2821 -36.4087ZM-11.5868 -36.4447C-12.9937 -36.0153 -13.1081 -33.4389 -11.799 -32.8127C-9.97963 -31.9424 -6.43241 -32.6288 -4.42873 -32.6288C-3.69932 -32.6288 -2.69777 -32.4625 -2.01805 -32.7783C-0.748847 -33.3678 -0.994337 -35.8572 -2.22396 -36.3332C-3.06854 -36.6602 -4.05052 -36.3696 -4.92463 -36.3485C-6.91216 -36.3007 -9.71265 -37.0167 -11.5868 -36.4447ZM-161.148 -36.0972C-161.299 -35.2822 -161.606 -34.2057 -161.103 -33.4508C-160.493 -32.534 -157.087 -32.5257 -156.338 -33.2738C-154.367 -35.2432 -157.274 -36.0971 -158.668 -36.0972H-161.148ZM-15.0913 -1.66092C-9.75259 -1.70507 -4.29647 -3.37521 0.779008 -4.91025C10.3786 -7.81356 19.1225 -11.391 28.0561 -15.9662C32.5392 -18.262 38.3274 -20.234 42.1906 -23.4623C38.6215 -24.0755 34.6584 -23.71 31.0318 -23.71C26.2765 -23.71 21.3756 -24.0426 16.6494 -23.534C14.106 -23.2603 11.134 -24.0137 8.7142 -22.9456C6.66001 -22.0389 4.92198 -20.0104 3.2588 -18.5459C-0.0798451 -15.606 -3.43605 -12.6628 -6.6602 -9.59825C-9.23796 -7.14805 -13.321 -4.74915 -15.0913 -1.66092ZM-134.367 -23.2146C-133.63 -21.7613 -131.973 -20.8267 -130.647 -19.9308C-127.618 -17.8842 -124.434 -16.0619 -121.224 -14.3159C-112.473 -9.55519 -102.937 -3.95088 -93.2029 -1.53094C-89.2331 -0.544024 -85.1063 -0.449383 -81.0523 -0.152478C-76.9578 0.14737 -72.7595 0.321016 -68.6536 0.321016C-67.7191 0.321016 -65.3391 0.74664 -64.6931 -0.076211C-63.863 -1.13348 -64.7556 -5.06432 -64.9339 -6.36804C-65.6988 -11.9479 -65.7147 -17.6248 -66.4218 -23.2146L-134.367 -23.2146ZM-60.2225 -22.9668C-58.9788 -17.7478 -59.4563 -11.4861 -59.2208 -6.12029C-59.1702 -4.97102 -59.4778 -0.887799 -58.585 -0.181346C-57.6365 0.569167 -55.6042 -0.117279 -54.5191 -0.164697C-51.0301 -0.317334 -47.5807 0.0732887 -44.1042 0.0732887C-37.9496 0.0732887 -30.1516 1.06012 -24.2663 -1.01363C-17.9183 -3.25042 -12.5005 -9.78967 -8.64051 -15.039C-6.84773 -17.4771 -3.96191 -20.2354 -3.18853 -23.2145L-42.1204 -23.2145H-54.0231L-60.2225 -22.9668ZM131.461 38.9689C130.618 35.4333 131.213 31.2011 131.213 27.5727V5.27589C131.213 2.31279 131.751 -1.24748 131.082 -4.13834C130.012 -8.76355 125.206 -7.39246 122.075 -8.7472C120.878 -9.26497 120.789 -10.8438 119.31 -11.3246C117.786 -11.8204 115.555 -11.7514 114.103 -11.0627C113.229 -10.6481 112.398 -9.53857 111.375 -9.5774C109.308 -9.65589 107.519 -11.8567 105.424 -12.0743C102.855 -12.3412 98.5303 -9.03846 96.2489 -7.91489C95.4099 -7.50171 94.0529 -7.09343 93.528 -6.27129C92.7228 -5.01027 93.2732 -2.13057 93.2732 -0.66994V13.4514V66.9639V82.5717C93.2732 84.0265 92.6824 87.1488 93.528 88.3766C94.1027 89.2111 95.6091 89.3921 96.4968 89.7342C98.8249 90.6316 103.451 93.3549 105.92 92.8434C107.71 92.4725 109.486 90.3887 111.304 90.3926C112.12 90.3941 112.914 91.3902 113.607 91.7582C115.008 92.5021 117.023 92.7169 118.566 92.3495C120.183 91.9646 120.678 90.5176 122.049 89.8835C125.024 88.5075 128.839 88.9455 130.648 85.5446C132.092 82.8289 131.213 78.1435 131.213 75.1394V51.1083C131.213 48.2958 130.238 43.3133 131.363 40.7398C131.836 39.6565 133.485 39.9599 134.437 39.9599C136.129 39.9599 138.243 39.6217 139.882 40.0664C141.09 40.3938 141.939 41.6772 143.307 40.8719C144.584 40.1205 143.944 38.3738 142.619 38.1664C141.623 38.0106 140.647 38.7723 139.644 38.8416C137.021 39.0228 133.985 38.4206 131.461 38.9689ZM-254.634 19.3972C-254.634 13.483 -254.527 7.487 -254.382 1.55975C-254.322 -0.890931 -253.455 -3.88653 -254.88 -6.11646C-257.369 -10.0107 -263.453 -8.65259 -267.277 -8.86877C-269.193 -8.97712 -270.541 -11.428 -272.736 -11.744C-274.134 -11.9453 -276.012 -11.8104 -277.144 -10.876C-277.783 -10.3481 -277.967 -9.34254 -278.743 -8.99476C-281.761 -7.6419 -285.652 -8.81887 -287.501 -5.12931C-288.346 -3.44377 -287.862 -0.777689 -287.862 1.06426V14.6901V63.7432V78.6078C-287.862 80.6415 -288.364 83.4503 -287.386 85.2967C-285.459 88.9346 -281.731 88.1634 -278.697 89.7629C-276.637 90.8486 -275.954 92.6742 -273.232 92.4068C-270.779 92.1659 -269.241 89.9626 -267.032 89.7707C-263.602 89.4725 -259.215 90.6444 -256.144 88.6465C-252.542 86.3031 -254.138 78.1568 -254.138 74.3961C-254.138 70.6628 -253.158 65.3679 -254.217 61.798C-254.617 60.4472 -256.73 61.0214 -257.057 59.28C-257.509 56.8763 -257.113 54.0491 -257.113 51.6038V36.2437V23.6089C-257.113 21.7074 -256.855 19.7407 -254.634 19.3972ZM103.192 2.05524L94.7611 -5.37705V-5.87254C98.7542 -7.76287 103.609 -11.8893 107.904 -9.77602C109.494 -8.99345 111.908 -8.42697 111.296 -6.14245C111.008 -5.06359 109.694 -4.16455 108.905 -3.44081C106.972 -1.66601 104.911 0.0705846 103.192 2.05524ZM-274.967 -10.4944C-273.119 -10.8754 -270.4 -10.324 -269.662 -8.34901C-269.163 -7.01525 -269.512 -5.05244 -269.512 -3.64285C-269.512 0.0855966 -269.878 4.05524 -269.441 7.75332C-268.63 14.6201 -269.264 21.8944 -269.264 28.8115V68.9458C-269.264 72.555 -269.489 76.246 -269.242 79.8465C-269.059 82.5104 -268.37 86.1129 -269.095 88.7232C-269.496 90.1675 -271.391 90.9701 -272.736 91.1681C-274.015 91.3564 -275.739 91.2535 -276.449 89.9779C-277.139 88.736 -276.703 86.435 -276.703 85.0491V73.1574V11.9649V-5.12931C-276.703 -6.96666 -277.367 -9.99951 -274.967 -10.4944ZM116.831 -10.4858C117.856 -10.5487 119.4 -10.3533 119.87 -9.29409C120.482 -7.91504 120.054 -5.62611 120.054 -4.13833V8.00108V69.1936V86.0401C120.054 88.0304 120.558 91.0033 117.823 91.2283C116.138 91.3669 113.82 91.1594 112.907 89.4853C112.204 88.1962 112.615 85.9816 112.615 84.5536V72.9097V11.4695V-1.41317C112.615 -3.35234 112.248 -5.72015 112.719 -7.60674C113.183 -9.46627 115.048 -10.3764 116.831 -10.4858ZM-278.191 -7.85449V57.3019V77.8645L-277.943 88.2697C-280.627 88.9468 -285.396 87.0182 -286.347 84.3049C-286.927 82.6516 -286.622 80.5838 -286.622 78.8555V68.2024V12.9558V-0.174598C-286.622 -1.9633 -286.917 -4.16408 -285.574 -5.57829C-283.622 -7.63345 -280.69 -7.26016 -278.191 -7.85449ZM-255.378 -3.643L-268.024 -3.39526V-7.60688C-263.846 -7.93634 -256.621 -8.98364 -255.378 -3.643ZM121.542 88.7651L121.294 88.5173L121.542 74.6437V48.383V12.4603L121.294 -7.35915C123.66 -8.00908 128.385 -7.11202 129.475 -4.6118C130.109 -3.15708 129.723 -0.989749 129.725 0.568631V11.7171V68.9456C129.725 72.652 129.581 76.3914 129.744 80.0941C129.828 81.999 130.183 84.1955 128.884 85.7815C127.217 87.8148 123.979 88.2926 121.542 88.7651ZM94.761 -4.88172L102.448 2.30283V2.79832L94.761 9.73511L94.5129 -0.174598L94.761 -4.88172ZM111.375 -4.88172V10.2306C108.492 8.69504 105.065 4.95974 103.192 2.30283L111.375 -4.88172ZM-243.723 84.8012H-235.044V61.7611V14.69V1.5596L-235.13 -3.24577L-237.028 -3.643L-243.358 -3.49351L-243.723 1.5596V17.6629V84.8012ZM-217.19 -3.39526C-218.615 4.16267 -219.403 11.8369 -220.814 19.3971C-221.143 21.1588 -222.724 22.4335 -222.964 24.1042C-223.568 28.3202 -222.893 33.2017 -222.893 37.4823C-222.893 43.8254 -223.496 50.4927 -222.867 56.8063C-222.688 58.6041 -221.216 59.9802 -220.827 61.7611C-219.25 68.9723 -217.263 77.1912 -216.942 84.5534H-165.611C-157.214 84.5534 -148.427 85.3045 -140.07 84.5277C-137.202 84.261 -134.272 83.1259 -131.433 82.5761C-121.364 80.6266 -111.364 77.9442 -101.243 76.3082C-95.3175 75.3503 -89.0254 75.6393 -83.0359 75.3772C-72.7894 74.9289 -62.5627 74.5944 -52.2872 74.6439C-37.9446 74.7131 -23.1684 74.5617 -8.89185 75.9245C9.50159 77.6804 27.5299 82.9228 45.9103 84.759C55.865 85.7534 66.4019 84.8012 76.4111 84.8012C77.4177 77.0131 79.3297 69.3476 80.0886 61.5133C80.7478 54.7076 80.131 47.5428 80.131 40.703C80.131 33.2685 80.7159 25.547 79.9242 18.1584C79.3621 12.9134 78.5864 7.72559 77.5521 2.55055C77.2635 1.10618 77.265 -1.90764 76.1988 -2.99193C75.345 -3.86029 72.3572 -3.39527 71.2039 -3.39527H56.8215C35.927 -3.39527 14.9725 2.11881 -5.66784 5.17137C-10.7841 5.928 -15.8935 5.80346 -21.0422 6.02871C-32.776 6.54202 -44.4869 6.74329 -56.2544 6.76219C-67.3075 6.77995 -78.4326 6.79719 -89.4829 6.04112C-93.5861 5.76039 -97.8054 6.0788 -101.882 5.45006C-111.761 3.92622 -121.656 0.818697 -131.39 -1.47144C-133.905 -2.06308 -136.517 -3.04247 -139.078 -3.34958C-146.059 -4.18687 -153.616 -3.39529 -160.651 -3.39529C-179.425 -3.39529 -198.443 -2.50618 -217.19 -3.39526ZM-255.377 -2.8998L-255.625 -0.174626H-255.873V-2.65206H-267.776V8.24863L-268.272 -0.174626L-267.697 -2.82219L-264.056 -2.8998H-255.377ZM-235.539 84.3057H-243.227V-3.14751C-241.581 -3.14751 -237.241 -3.92511 -235.937 -2.89289C-234.98 -2.1361 -235.539 1.18156 -235.539 2.30283V18.1584V84.3057ZM-283.394 -2.73805C-286.255 -1.81304 -285.845 6.89469 -281.415 5.62919C-278.268 4.7301 -278.604 -4.28678 -283.394 -2.73805ZM-273.714 -2.42129C-275.266 -2.00083 -274.532 0.224733 -272.998 -0.328861C-271.559 -0.847998 -272.316 -2.79994 -273.714 -2.42129ZM124.777 -2.46812C123.407 -1.91045 123.527 -0.412911 123.526 0.816381C123.526 3.30099 123.8 7.08686 127.483 5.58733C128.931 4.99792 128.734 3.33687 128.734 2.05509C128.734 -0.453273 128.385 -3.93724 124.777 -2.46812ZM-282.899 -2.29665C-279.443 -3.25876 -279.432 4.56207 -281.668 5.16736C-285.199 6.12282 -285.171 -1.6642 -282.899 -2.29665ZM116.143 -2.21924C114.683 -1.56647 115.995 0.192991 117.289 -0.327908C118.789 -0.931372 117.511 -2.83112 116.143 -2.21924ZM125.758 -2.27735C129.179 -2.85791 129.259 4.76428 126.745 5.21897C123.196 5.86087 123.268 -1.85487 125.758 -2.27735ZM-140.319 -2.15653V-1.90879L-191.153 13.7472L-210.247 19.6104L-220.414 22.6177C-218.294 17.2022 -217.971 10.5419 -217.158 4.78026C-216.957 3.35609 -216.958 -0.993789 -215.801 -1.90191C-214.772 -2.70981 -211.762 -2.15653 -210.495 -2.15653H-196.113L-140.319 -2.15653ZM46.3796 -2.0491C47.7 -1.9967 48.6709 0.307027 49.225 1.31186C51.3045 5.08307 52.7798 9.00349 53.7019 13.2035C55.7403 22.4886 54.8365 32.4828 54.8365 41.9417C54.8365 49.7878 55.6795 58.2625 53.9873 65.9727C52.9597 70.6554 51.5536 75.3181 49.3544 79.5986C48.6641 80.9421 47.9562 83.492 46.1565 83.5258C42.3553 83.597 38.2456 82.2898 34.5027 81.6891C25.1653 80.1908 15.8385 78.5655 6.48169 77.1885C3.16916 76.7009 -0.119948 76.0942 -3.43724 75.6347C-4.44949 75.4945 -6.69954 75.4859 -7.42033 74.7076C-8.17072 73.8973 -8.30604 71.9774 -8.53948 70.9276C-9.24777 67.7412 -10.0307 64.5062 -10.419 61.2656C-11.1653 55.0379 -10.8764 48.7062 -10.8764 42.4372C-10.8764 35.6774 -11.1233 28.8581 -10.6506 22.1223C-10.3767 18.2181 -9.45704 14.5228 -8.55898 10.7261C-8.29318 9.60229 -8.29146 7.54889 -7.27839 6.80293C-6.29374 6.07795 -4.36728 6.14269 -3.18928 5.92262C0.339358 5.26345 3.92655 4.76406 7.47357 4.21673C16.3221 2.85135 25.1772 1.44466 34.0068 -0.0346641C37.876 -0.682915 42.4646 -2.20442 46.3796 -2.0491ZM75.4184 83.5625C68.7629 84.7969 61.1102 83.8102 54.3406 83.8102C52.3566 83.8102 50.0704 83.4341 48.1412 83.8102C47.9836 81.4524 50.6218 78.1277 51.5136 75.8825C53.5539 70.7455 54.7676 65.5145 55.2904 60.0269C56.047 52.0841 55.3328 43.7299 55.3328 35.7481C55.3328 28.9454 56.054 21.6345 54.6717 14.9377C53.9001 11.1993 52.8247 7.48593 51.1708 4.03703C50.2014 2.01548 48.4496 -0.0146598 47.8936 -2.15653H67.7314C69.3793 -2.15653 73.6719 -2.92683 74.9902 -1.90191C76.1054 -1.03496 76.0979 2.22691 76.361 3.54155C77.4513 8.98876 78.5093 14.5821 78.6459 20.1403C78.9569 32.7933 79.7353 45.8904 78.8681 58.5405C78.2939 66.9162 75.7769 75.2219 75.4184 83.5625ZM-140.566 -1.16557C-143.191 5.99558 -148.4 12.059 -150.227 19.6448C-151.559 25.1748 -150.733 31.5734 -150.733 37.2346C-150.733 45.7366 -152.091 55.5343 -149.633 63.7431C-147.557 70.6718 -143.067 76.2882 -140.318 82.8193C-146.769 81.9472 -153.724 78.7171 -159.908 76.6444C-172.573 72.3998 -185.412 68.6687 -198.096 64.4861C-203.618 62.6654 -209.15 60.8726 -214.71 59.1759C-216.994 58.479 -219.287 57.4033 -221.654 57.054V42.4372C-220.225 42.4994 -217.723 43.8768 -216.456 43.2268C-213.092 41.5014 -212.619 36.4082 -216.704 35.1775C-217.974 34.7947 -220.18 35.8519 -221.406 36.2436L-221.654 26.8294L-221.079 23.5726L-213.966 21.254L-197.104 16.0713L-157.429 3.85848L-140.566 -1.16557ZM-141.062 1.06411C-141.501 5.46242 -143.315 9.73887 -143.748 14.1945C-144.387 20.7685 -143.88 27.418 -144.042 34.0139C-144.295 44.3697 -145.26 55.1566 -144.244 65.4773C-143.735 70.6488 -141.969 75.5581 -140.814 80.5896H-141.062C-145.016 74.1359 -148.934 66.8334 -150.157 59.2837C-151.338 51.9935 -150.237 43.6358 -150.237 36.2436C-150.237 31.5827 -150.821 26.4875 -150.163 21.8745C-149.514 17.3264 -147.259 13.1049 -145.354 8.99188C-144.153 6.39718 -142.892 3.27032 -141.062 1.06411ZM110.383 10.4783H95.2565L100.712 4.78025L102.944 3.27431L105.175 5.028L110.383 10.4783ZM25.328 3.64667C17.5553 4.6663 9.88692 6.1318 2.26642 8.03226C0.372024 8.5047 -4.1116 8.69122 -5.45616 10.1314C-6.2195 10.949 -6.29603 12.8841 -6.51177 13.9467C-7.15876 17.1343 -7.89918 20.3368 -7.90045 23.6087V57.3017C-7.90045 60.715 -7.37161 64.1037 -6.76583 67.4592C-6.5803 68.487 -6.60321 70.4555 -5.77069 71.1916C-4.97968 71.8909 -3.43805 71.9615 -2.44506 72.1671C0.0417877 72.6818 2.5183 73.3023 4.99414 73.8711C13.7618 75.8853 22.5145 77.6167 31.5274 77.6167C33.826 77.6167 36.4384 77.9651 38.704 77.5799C40.391 77.2931 39.4625 73.4287 39.4625 72.1663V54.8243V16.4242C39.4625 13.2887 39.3933 10.1445 39.4625 7.00994C39.4818 6.16575 40.03 4.43312 39.2687 3.79617C38.5026 3.15527 36.4346 3.54154 35.4913 3.54154C32.1593 3.54154 28.6292 3.21316 25.3243 3.64667M-9.14398 6.7622L-12.1099 22.1222L-12.1196 43.6759L-12.0772 59.0359L-9.14362 74.8915L-18.5667 74.3862L-36.6687 73.8996L-73.3688 73.6625L-101.142 75.1392L-103.103 61.2656L-103.126 43.1804L-103.116 20.6358L-101.142 6.7622L-69.1535 7.99728L-32.7014 7.50906L-9.14398 6.7622ZM-267.78 8.99188V10.2306H-268.028L-267.78 8.99188ZM-266.292 10.7261V70.9276H-267.78L-268.028 10.7261H-266.292ZM-265.222 10.8767C-263.562 10.0953 -263.565 12.2208 -263.565 13.2035V22.8655V59.2837V67.9547C-263.565 68.7397 -263.266 70.3156 -264.139 70.7425C-265.676 71.4938 -265.794 69.6881 -265.796 68.6979V60.0269V23.8565V14.1945C-265.796 13.3487 -266.171 11.3238 -265.222 10.8767ZM-263.069 70.9276V10.7261L-261.092 11.1233L-260.837 14.1945V21.8745V58.2927V67.2115L-261.092 70.5304L-263.069 70.9276ZM-255.878 10.7261V18.4061C-259.276 19.7501 -258.605 24.1271 -258.605 27.0771V52.8424C-258.605 55.9486 -259.749 61.2633 -255.63 62.0089L-255.382 70.6799C-256.315 70.9554 -259.391 71.4363 -260.09 70.5277C-260.66 69.7866 -260.341 68.0941 -260.341 67.2115V58.7882V22.37V13.9467C-260.341 13.1661 -260.643 11.534 -259.943 10.9807C-259.098 10.3118 -256.911 10.7261 -255.878 10.7261ZM99.7165 11.4693C100.713 14.837 99.9645 19.3527 99.9645 22.8655C96.8959 22.9018 97.9807 27.0142 97.9807 29.3068V50.6127C97.9807 52.9975 96.7811 58.0073 99.9645 58.045V70.1844L94.9067 69.9297L94.509 66.2205V55.8153V11.7171L99.7165 11.4693ZM107.9 11.4693V25.5907V54.0811L108.148 69.9366L100.46 70.1844V58.045C103.147 57.8402 102.196 53.5876 102.196 51.6037V30.2978C102.196 28.2192 103.254 23.0784 100.46 22.8655V14.69L100.858 11.7239L107.9 11.4693ZM111.123 11.4693L111.371 17.9106V30.05V70.1844H108.644V25.3429V15.4332L108.898 11.8667L111.123 11.4693ZM-80.8082 19.5022C-83.953 19.9198 -86.8514 20.8907 -88.4866 23.8565C-89.8367 26.3052 -89.4873 29.0903 -89.4873 31.7842V46.6488C-89.4873 50.4303 -90.4175 55.5291 -88.0892 58.7882C-84.9679 63.1574 -79.3142 62.5043 -74.6089 62.5043C-72.6619 62.5043 -70.5872 62.7055 -68.6575 62.43C-57.8829 60.892 -60.4744 48.6844 -60.4744 40.703C-60.4744 35.9773 -59.1067 28.6836 -61.159 24.3519C-64.194 17.9458 -74.8974 18.7173 -80.8082 19.5022ZM-80.8082 19.9633C-75.1704 19.2896 -64.8502 18.404 -61.8428 24.3519C-59.6074 28.773 -60.9703 36.0952 -60.9703 40.9507C-60.9703 47.4356 -58.4449 60.489 -67.6656 61.7164C-73.2937 62.4655 -84.1614 63.7777 -87.6937 58.2506C-89.7424 55.045 -88.9913 50.5173 -88.9913 46.8965V33.5184C-88.9913 26.9493 -88.7617 20.9137 -80.8082 19.9633ZM101.7 23.6087V57.3017L98.7247 57.5495L98.4767 46.6488V23.6087H101.7ZM-274.291 25.8455C-275.426 26.7711 -273.698 28.4209 -272.604 27.4229C-271.485 26.4016 -273.325 25.0583 -274.291 25.8455ZM116.14 25.7784C114.702 26.3997 115.975 28.3978 117.286 27.7527C118.76 27.0273 117.507 25.1876 116.14 25.7784ZM-29.2297 34.2617C-27.9615 36.862 -24.199 39.122 -22.0384 41.0214C-21.0059 41.9292 -20.2045 42.9003 -18.8148 43.1804L-25.1569 37.4814L-29.2297 34.2617ZM-221.161 41.1985V37.2346C-219.893 36.944 -217.926 35.9151 -216.701 36.6506C-214.507 37.9677 -214.397 41.2468 -217.197 41.9969C-218.365 42.3098 -220.019 41.46 -221.161 41.1985ZM-273.483 53.5774C-274.907 53.6652 -274.964 55.7419 -273.483 55.7419C-271.9 55.7419 -271.847 53.4765 -273.483 53.5774ZM116.139 53.7733C114.671 54.4052 115.925 56.4114 117.286 55.7256C118.754 54.9863 117.496 53.1894 116.139 53.7733ZM-220.665 57.5495L-210.994 60.7772L-192.644 66.6527L-141.314 83.067V83.3147H-194.628H-209.259C-210.876 83.3147 -213.898 83.9014 -215.35 83.1652C-216.507 82.5792 -216.551 78.5699 -216.76 77.3689C-217.649 72.2526 -218.714 67.1488 -219.458 62.0089C-219.66 60.6144 -221.02 58.8473 -220.665 57.5495ZM110.875 71.1753C109.752 73.5809 107.025 75.2765 105.172 77.1212C104.609 77.6816 103.819 78.7857 102.941 78.8078C102.031 78.8307 101.18 77.6419 100.597 77.069C98.8983 75.3995 95.7428 73.4697 95.005 71.1753H110.875ZM-255.63 71.4231L-255.382 83.5625C-258.752 84.5579 -263.272 83.8102 -266.788 83.8102V83.5625H-255.878C-255.878 80.1466 -256.946 74.5575 -255.63 71.4231ZM95.005 72.1663C97.293 74.4521 101.069 76.9003 102.444 79.8463L94.7571 86.7831L94.509 76.1302L95.005 72.1663ZM111.371 72.1663V87.0309C109.087 85.9668 104.127 81.561 103.436 79.1031L111.371 72.1663ZM-283.154 75.7974C-286.234 76.7372 -285.959 85.6253 -281.42 84.2465C-278.308 83.3011 -278.734 74.4487 -283.154 75.7974ZM125.011 76.0664C122.071 77.205 122.667 85.9457 127.237 84.3418C130.14 83.3231 129.654 74.2679 125.011 76.0664ZM-281.672 76.3628C-279.529 76.7886 -279.3 84.4319 -282.896 83.7535C-285.188 83.321 -285.218 75.6582 -281.672 76.3628ZM125.272 76.5054C129.176 75.2452 129.288 83.1299 126.979 83.8551C123.237 85.0307 123.312 77.1384 125.272 76.5054ZM-219.921 115.274V115.521L-208.019 116.512C-209.23 118.638 -209.971 123.884 -212.054 125.176C-213.124 125.84 -214.795 125.244 -215.954 125.193C-218.882 125.065 -223.99 124.301 -226.593 125.779C-229.31 127.32 -228.552 131.751 -228.923 134.35C-229.108 135.649 -229.518 136.826 -228.631 137.991C-227.435 139.56 -224.732 139.902 -222.897 140.048L-219.511 146.737L-217.857 148.817L-212.482 148.967H-199.588C-197.657 133.786 -186.045 122.063 -170.079 124.549C-162.203 125.775 -155.695 130.189 -152.004 137.323C-150.558 140.117 -149.718 142.942 -149.031 145.994C-148.837 146.851 -148.974 148.575 -147.952 148.888C-144.424 149.969 -139.064 148.967 -135.362 148.967H-107.093L-13.8553 148.967C-12.3855 141.852 -9.4313 135.121 -3.9364 130.18C4.24598 122.824 17.9947 122.03 26.3872 129.523C30.3343 133.047 33.0224 137.389 34.9451 142.278C35.4724 143.618 36.035 148.203 37.3051 148.817C39.3983 149.83 43.4072 148.827 45.6583 148.729C52.228 148.441 58.9797 149.555 65.4962 148.925C67.8977 148.692 69.7236 147.83 70.6989 145.498C71.2433 144.197 71.3559 142.433 72.3524 141.365C73.8574 139.752 76.1802 140.488 77.5086 138.066C78.9896 135.365 78.7588 129.572 76.1456 127.571C73.7031 125.701 69.471 125.245 66.4881 125.183L67.976 114.035L75.6631 115.026C79.7092 107.809 66.5457 105.482 62.0246 104.459C56.979 103.319 51.541 103.014 46.6502 101.291C30.7015 95.6728 15.9591 86.0194 -0.712761 82.5708C-21.1341 78.3465 -41.4993 78.328 -62.2102 78.3599C-73.7882 78.3777 -86.7224 77.4793 -97.9184 80.9453C-101.098 81.9296 -104.097 83.8553 -107.093 85.2906C-113.396 88.31 -119.757 91.2781 -125.939 94.537C-132.19 97.8318 -138.074 101.237 -145.033 102.781C-169.545 108.22 -197.113 102.793 -219.921 115.274ZM-65.6818 125.679L-74.3609 125.431H-90.4791H-142.306C-142.306 119.722 -141.79 114.086 -140.179 108.585C-139.57 106.504 -138.997 103.933 -137.603 102.211C-136.673 101.064 -134.669 100.515 -133.379 99.8495C-130.312 98.268 -127.291 96.5986 -124.204 95.0573C-118.921 92.4203 -113.612 89.8493 -108.333 87.2121C-104.819 85.4567 -101.176 83.2283 -97.4225 82.0483C-93.8004 80.9096 -90.0056 80.6555 -86.2636 80.2998C-80.4684 79.7488 -74.7243 79.7371 -68.9054 79.595C-67.436 79.5591 -63.8438 78.6042 -62.6078 79.6063C-61.9429 80.1452 -62.4289 81.5958 -62.4555 82.3238C-62.5517 84.966 -62.8284 87.6111 -62.9443 90.2516C-63.2982 98.3135 -64.3787 106.256 -65.1438 114.283C-65.4877 117.891 -64.6569 122.215 -65.6818 125.679ZM-63.946 125.679C-64.6512 122.719 -63.9259 119.268 -63.7202 116.265C-63.1732 108.285 -61.7655 100.236 -61.7141 92.2335C-61.694 89.1525 -61.5091 85.881 -61.1475 82.8193C-61.0537 82.0252 -61.2286 80.4162 -60.7155 79.7825C-60.1374 79.0687 -58.5509 79.3509 -57.7466 79.3509H-49.8115C-44.0772 79.3509 -38.4132 79.5867 -32.7014 79.8366C-29.7713 79.9648 -25.8013 79.5585 -23.0304 80.5445C-20.646 81.3929 -18.4752 83.5443 -16.5831 85.1549C-9.37647 91.289 -2.59586 98.4485 2.96911 106.107C4.89252 108.754 7.97646 113.271 5.60811 116.509C3.49352 119.4 -1.37091 120.723 -4.43236 122.401C-5.9792 123.249 -7.47195 125.02 -9.14748 125.51C-10.3945 125.874 -12.0589 125.431 -13.3594 125.431H-23.5263H-50.5554C-54.7927 125.431 -59.8202 124.697 -63.946 125.679ZM111.371 89.0129L105.668 91.5895L102.196 90.5783L94.7571 87.7741C96.2336 85.6799 98.4069 84.1262 100.212 82.3238C100.846 81.6909 101.733 80.4354 102.692 80.3223C103.637 80.2109 104.538 81.4347 105.149 82.0017C107.093 83.8055 110.952 86.2996 111.371 89.0129ZM-134.37 104.373H-66.4257L-64.4419 80.8373C-74.1106 80.8373 -84.5068 80.4236 -93.9508 82.7933C-102.502 84.939 -111.041 89.9747 -118.748 94.139C-122.52 96.1769 -126.314 98.1831 -129.907 100.532C-131.499 101.573 -133.438 102.665 -134.37 104.373ZM74.9192 113.787C73.1795 113.567 68.5544 112.109 67.0629 113.054C66.1828 113.612 66.3121 115.593 66.2016 116.512C65.8341 119.571 65.3868 122.623 65.0003 125.679H43.1786C39.8212 125.679 35.7556 126.307 32.4736 125.584C29.9342 125.025 27.3483 122.351 24.8286 121.332C18.2544 118.671 10.3508 118.21 3.5028 119.981C4.64681 117.965 7.17078 117.434 7.63684 114.778C8.37005 110.6 4.65327 106.39 2.26365 103.382C-1.7132 98.3765 -5.92839 93.3877 -10.6414 89.0513C-13.2964 86.6085 -18.0069 83.8974 -19.8067 80.8373C-2.93715 81.1853 12.3632 87.9164 27.5562 94.4313C35.604 97.8822 43.4378 102.106 52.1056 103.726C58.0817 104.843 64.2322 105.736 69.9597 107.855C72.8176 108.912 75.3106 110.473 74.9192 113.787ZM-59.9784 104.373H-3.19248C-3.83999 101.122 -7.36348 97.7355 -9.39178 95.2064C-13.237 90.412 -17.883 84.5954 -23.7743 82.2645C-29.726 79.9097 -37.8238 81.0851 -44.1081 81.0851C-47.5001 81.0851 -50.8916 81.3264 -54.2714 81.2055C-55.3764 81.166 -57.6669 80.6101 -58.5889 81.3397C-59.4704 82.0371 -59.2026 86.1439 -59.2309 87.2787C-59.3729 92.9823 -59.9784 98.6586 -59.9784 104.373ZM-274.149 81.8354C-275.405 82.6737 -273.961 84.2435 -272.778 83.5545C-271.344 82.7201 -272.92 81.0152 -274.149 81.8354ZM116.12 81.8398C114.625 82.6642 116.183 84.5112 117.492 83.6933C118.795 82.8792 117.333 81.1707 116.12 81.8398ZM-15.0952 82.8194C-13.9665 84.7486 -11.5217 86.2594 -9.88777 87.7803C-5.81071 91.5755 -1.67911 95.3214 2.51095 98.9932C4.39798 100.647 6.75993 103.496 9.20623 104.247C12.5053 105.26 16.7021 104.621 20.117 104.621H41.9387C40.7828 103.277 38.794 102.617 37.2272 101.829C34.5664 100.49 31.9134 99.0806 29.2921 97.664C19.9002 92.5888 10.2954 88.664 0.0311595 85.7575C-4.8654 84.3709 -9.98269 82.8194 -15.0952 82.8194ZM-267.78 88.5174C-267.78 87.5684 -268.208 85.2136 -267.383 84.5604C-266.775 84.0799 -265.526 84.3058 -264.805 84.3058H-258.357C-257.649 84.3058 -256.372 84.0745 -255.783 84.5604C-254.98 85.2228 -255.907 86.6963 -256.429 87.2258C-257.979 88.7979 -260.56 88.5174 -262.573 88.5174H-267.78ZM-139.33 102.639C-141.556 108.059 -142.784 113.428 -143.475 119.238C-143.726 121.347 -143.395 123.636 -143.793 125.679C-146.863 124.949 -150.549 126.369 -153.464 125.466C-155.637 124.794 -157.55 122.693 -159.664 121.722C-165.104 119.224 -171.064 118.357 -177.022 118.764C-181.227 119.052 -185.692 120.008 -189.421 122.04C-191.328 123.08 -193.109 125.027 -195.124 125.746C-196.569 126.262 -198.565 125.927 -200.084 125.927H-210.25L-206.531 115.026L-215.458 114.778L-210.746 112.584L-196.612 109.266L-161.152 106.065L-147.513 104.469L-139.33 102.639ZM-80.8819 114.042C-81.8657 114.785 -81.6589 116.874 -80.5271 117.354C-78.6163 118.164 -75.1895 117.503 -73.121 117.503C-72.3885 117.503 -71.192 117.72 -70.5677 117.249C-69.5838 116.506 -69.7906 114.416 -70.9224 113.937C-72.8332 113.127 -76.26 113.787 -78.3285 113.787C-79.061 113.787 -80.2575 113.571 -80.8819 114.042ZM-12.0129 114.042C-12.993 114.706 -12.9285 116.855 -11.8151 117.354C-9.90591 118.209 -6.27096 117.503 -4.18434 117.503C-3.47322 117.503 -2.43308 117.676 -1.81221 117.249C-0.894356 116.618 -0.963163 114.408 -2.00926 113.937C-3.91288 113.079 -7.55735 113.787 -9.63981 113.787C-10.3549 113.787 -11.3868 113.617 -12.0129 114.042ZM-161.152 114.035C-161.303 114.85 -161.61 115.927 -161.107 116.682C-160.511 117.577 -157.145 117.599 -156.341 116.964C-154.117 115.204 -157.39 114.035 -158.672 114.035H-161.152ZM-145.281 139.057C-146.425 139.057 -148.616 139.48 -149.587 138.803C-150.799 137.956 -151.573 135.359 -152.397 134.102C-154.073 131.546 -156.348 129.146 -158.92 127.473C-168.027 121.548 -181.738 121.394 -190.412 128.284C-194.154 131.256 -196.453 135.138 -198.595 139.305L-202.563 139.057C-200.389 131.404 -195.25 125.091 -187.932 121.792C-172.675 114.916 -149.429 121.151 -145.281 139.057ZM40.6991 139.057C39.21 139.057 36.6981 139.545 35.3405 138.908C34.376 138.455 33.8095 136.711 33.2944 135.836C32.1889 133.959 30.8101 132.192 29.2887 130.634C25.1018 126.346 19.5655 123.231 13.422 123.202C6.35344 123.168 0.256856 124.834 -5.15361 129.578C-7.03773 131.23 -8.65554 133.225 -9.98909 135.341C-10.6207 136.343 -11.1946 138.154 -12.2159 138.803C-13.214 139.436 -15.1895 139.057 -16.3348 139.057C-15.7275 136.502 -14.1382 134.041 -12.6976 131.873C-0.201399 113.064 34.4708 115.836 40.6991 139.057ZM-174.294 126.074C-179.783 126.272 -185.433 128.207 -189.378 132.162C-196.851 139.655 -195.552 151.92 -186.941 157.942C-182.318 161.176 -177.097 162.082 -171.566 161.84C-168.927 161.724 -166.263 160.89 -163.879 159.791C-161.696 158.784 -159.61 157.326 -157.991 155.547C-156.496 153.905 -155.246 152.025 -154.412 149.958C-149.236 137.132 -161.91 125.627 -174.294 126.074ZM-142.057 139.057H-144.785C-146.016 133.742 -149.724 130.424 -152.72 126.175L-146.273 126.171L-143.943 126.191L-143.402 129.395L-142.057 139.057ZM-65.6815 125.927L-63.9457 139.057L-140.818 139.057L-142.305 126.174H-91.2228H-74.8565L-65.6815 125.927ZM-9.63951 126.422C-12.2752 128.719 -14.1702 131.802 -15.8189 134.845C-16.3736 135.869 -17.0933 138.397 -18.1682 138.908C-20.4991 140.015 -25.4029 139.057 -27.9895 139.057H-52.043H-59.4822C-60.2571 139.057 -61.6579 139.316 -62.3082 138.802C-62.9431 138.301 -62.9169 136.59 -63.0493 135.836C-63.5629 132.912 -64.4403 128.847 -63.9457 125.927L-50.5552 126.174H-24.022L-14.103 126.174L-9.63951 126.422ZM8.71054 126.281C5.5288 126.736 2.53995 127.679 -0.216504 129.352C-9.54824 135.015 -11.8642 147.58 -4.16189 155.652C0.579047 160.621 8.19026 162.732 14.9099 161.775C17.8241 161.36 20.8292 160.406 23.341 158.861C25.4636 157.554 27.3138 155.912 28.8213 153.922C29.9956 152.372 30.9475 150.582 31.5144 148.719C35.6698 135.064 21.322 124.477 8.71054 126.281ZM41.1951 139.057C39.9231 133.707 36.0171 130.437 33.012 126.175C43.3438 126.175 53.6769 126.125 64.0086 126.175C67.1609 126.19 73.5624 126.304 75.731 128.994C77.3702 131.027 77.952 138.143 74.6703 138.979C71.512 139.783 67.2715 139.057 64.0086 139.057H41.1951ZM-195.868 126.422C-198.251 130.23 -202.844 134.132 -202.811 139.057H-217.441C-220.2 139.057 -223.512 139.333 -226.119 138.262C-226.812 137.978 -227.523 137.559 -227.749 136.802C-228.061 135.749 -227.582 134.642 -227.435 133.607C-227.131 131.477 -228.004 128.286 -225.859 126.854C-223.979 125.599 -219.645 126.422 -217.441 126.422H-195.868ZM-198.843 139.553L-200.827 147.728H-212.73C-213.975 147.728 -216.261 148.164 -217.345 147.474C-219.241 146.266 -220.809 141.774 -221.905 139.801L-214.218 139.553H-198.843ZM-138.586 147.728H-147.513L-149.249 139.553C-147.543 139.553 -143.597 138.816 -142.184 139.807C-141.496 140.29 -141.315 141.531 -141.065 142.278C-140.416 144.222 -139.36 145.865 -138.586 147.728ZM-62.4579 147.728L-121.724 147.728H-132.138C-133.454 147.728 -135.398 148.082 -136.601 147.474C-138.978 146.272 -140.214 142.014 -140.322 139.553H-81.5518H-68.9051L-64.0917 139.807L-63.4173 142.03L-62.4579 147.728ZM-18.3185 139.553C-18.5718 141.242 -19.8114 146.465 -21.2079 147.474C-21.9422 148.004 -23.4134 147.728 -24.2699 147.728H-31.7091H-60.97L-62.4579 139.801C-58.3289 138.581 -52.6346 139.553 -48.3234 139.553H-18.3185ZM-12.3672 139.801L-15.2345 147.474L-19.5584 147.728C-18.9356 143.574 -17.4124 138.311 -12.3672 139.801ZM71.9438 139.553C70.7991 141.589 69.92 145.725 67.9655 147.052C65.8393 148.496 61.7394 147.728 59.2972 147.728H37.9714L35.4917 139.801C38.9306 138.785 43.5595 139.553 47.1465 139.553H71.9438Z" fill="#304A6E"/>
</svg>
