<svg width="72" height="81" viewBox="0 0 72 81" fill="none" xmlns="http://www.w3.org/2000/svg">
<rect width="72" height="81" fill="#1A1E26"/>
<rect x="-642" y="-434" width="980" height="753" rx="4" fill="white"/>
<path d="M-32.0268 0.188557C-36.937 1.17049 -41.4077 2.56311 -45.1273 6.1124C-52.1658 12.8283 -52.021 24.2475 -44.6726 30.7097C-39.3606 35.3809 -31.925 37.0001 -25.0836 35.6249C-21.9747 35 -18.9197 33.7668 -16.4045 31.8182C-14.5556 30.3858 -12.963 28.8568 -11.7759 26.8175C-4.98234 15.1474 -13.6278 2.57353 -26.0755 0.52078C-28.0491 0.195298 -30.0129 -0.214191 -32.0268 0.188557ZM153.209 0.23709C147.455 1.67945 142.215 3.23252 138.458 8.23675C132.338 16.3907 135.2 27.3981 143.538 32.7409C148.751 36.0812 155.465 36.8764 161.393 35.3956C169.383 33.3993 176.454 26.5854 176.239 17.8987C176.009 8.61445 168.253 2.18688 159.657 0.576603C157.56 0.183815 155.34 -0.296987 153.209 0.23709ZM-67.4871 36.7272L-64.0154 45.8937L-71.9506 46.367L-75.9182 46.8846C-51.6908 58.7039 -24.5509 53.6895 0.953631 59.7386C6.05938 60.9495 10.4925 63.5925 15.0881 66.0151C21.9361 69.6251 28.9509 72.961 35.9179 76.3316C39.1341 77.8876 42.4239 79.9832 45.8368 81.0508C57.3169 84.6417 70.6484 83.7983 82.5369 83.7983C97.4657 83.7983 112.08 83.5889 126.924 82.106C135.34 81.2653 144.276 80.0763 152.217 77.0617C165.262 72.11 177.659 65.1002 190.901 60.7309C196.248 58.9669 202.05 58.6145 207.516 57.3185C212.945 56.0311 221.845 54.4228 219.914 47.1324L211.979 48.1233C211.341 45.5349 211.225 42.829 210.844 40.1956C210.723 39.3653 210.206 37.8403 210.89 37.1588C211.9 36.1518 215.271 36.404 216.69 35.983C221.521 34.5498 223.69 29.6626 221.866 24.8355C221.428 23.6767 220.555 22.349 219.395 21.814C218.223 21.2739 216.819 21.5791 216.049 20.3492C214.838 18.4156 215.03 15.926 213.147 14.3781C211.145 12.7328 208.188 13.1916 205.78 13.1916L188.669 13.1916C186.696 13.1916 183.092 12.4905 181.305 13.3411C180.032 13.9474 179.463 18.5356 178.951 19.8807C177.213 24.4451 174.469 28.9393 170.815 32.2255C162.087 40.0765 148.031 39.3655 139.571 31.5024C134.4 26.6969 131.552 19.9941 130.148 13.1916L36.9096 13.1916L8.64064 13.1916C4.93859 13.1916 -0.420389 12.1896 -3.94933 13.2704C-4.97601 13.5848 -4.86695 15.3013 -5.01871 16.1645C-5.52064 19.0188 -6.49421 21.7588 -7.78685 24.34C-11.1756 31.1071 -17.3028 36.0136 -24.8358 37.3555C-41.227 40.2755 -53.5322 29.0678 -55.5845 13.1916H-68.7271C-70.1704 13.1916 -72.8536 12.679 -74.1173 13.4462C-76.3862 14.8238 -77.2113 19.2719 -78.854 21.334C-80.1536 22.9655 -82.8963 22.3534 -84.4563 23.8868C-85.6375 25.0478 -85.0419 26.3965 -84.8884 27.8084C-84.5966 30.4929 -85.2358 34.5932 -82.6098 36.2965C-81.2762 37.1615 -79.4146 36.9749 -77.9021 36.9749C-74.4217 36.9749 -70.9729 36.7272 -67.4871 36.7272ZM-56.8244 14.4303L-54.8406 22.6058L-77.6542 22.3581C-77.044 20.4318 -74.9467 15.5017 -73.1378 14.5127C-71.9344 13.8548 -69.5837 14.1826 -68.2311 14.1826C-64.4181 14.1826 -60.6246 14.4303 -56.8244 14.4303ZM5.41701 14.1826L2.9024 19.8807L1.81889 22.3326L-5.24583 22.6058L-3.51004 14.4303L5.41701 14.1826ZM81.5449 14.1826L80.057 22.6058C60.7839 21.3151 41.1076 22.3581 21.7833 22.3581C17.2021 22.3581 12.4458 21.9988 7.89672 22.5351C7.00141 22.6406 4.00861 23.0866 3.80574 21.806C3.66827 20.9384 4.27903 19.7025 4.55309 18.8897C5.03173 17.4704 5.7726 15.4413 7.17519 14.6849C8.24882 14.106 10.4003 14.198 11.6163 14.1835C14.839 14.1453 18.0644 14.1828 21.2873 14.1828L61.707 14.1828C68.2398 14.1828 75.0457 14.7574 81.5449 14.1826ZM125.684 22.606L105.35 22.3583L81.7929 22.606L81.5449 22.3583L83.0327 14.4305C92.5157 14.4298 102.046 14.1828 111.55 14.1828C114.428 14.1828 120.09 13.1009 122.64 14.5406C124.137 15.386 125.515 20.9521 125.684 22.606ZM129.156 14.4305L131.388 22.606H127.42L124.444 14.4305H129.156ZM215.947 22.3583H208.011H190.901H179.494L181.974 14.4305H203.3C205.758 14.4305 209.783 13.6724 211.956 14.995C214.24 16.3856 214.204 20.3425 215.947 22.3583ZM-58.8081 23.1015C-58.3429 28.4254 -53.9911 31.3535 -51.8649 35.7364C-59.1499 35.7364 -66.4342 35.7247 -73.6865 35.7364C-75.8895 35.7401 -80.182 36.5475 -82.0488 35.2188C-83.9109 33.8933 -83.1953 30.4674 -83.4006 28.5519C-83.5057 27.5709 -83.9552 26.5812 -83.7932 25.5828C-83.6592 24.7574 -83.094 24.2697 -82.3618 23.9348C-79.1117 22.4483 -75.1289 23.064 -71.7028 23.1006C-67.5476 23.1449 -62.8827 22.43 -58.8081 23.1015ZM-1.27828 23.1013C-5.54117 41.0733 -29.4362 47.5577 -44.6736 39.995C-51.7559 36.4799 -56.1578 30.4776 -58.5602 23.1013C-53.4147 21.84 -52.582 27.259 -49.7749 30.5336C-46.3924 34.4795 -41.8455 37.2277 -36.7385 38.2966C-28.8167 39.9546 -19.8608 38.629 -13.429 33.5056C-11.1519 31.6917 -9.32601 29.5271 -7.78237 27.0652C-7.10176 25.9796 -6.50053 23.8442 -5.3909 23.1583C-4.44798 22.5754 -2.28555 22.8166 -1.27828 23.1013ZM1.94535 22.8536L0.209563 36.2317C-2.36455 35.6195 -6.14337 35.6195 -8.71749 36.2317L-4.60792 31.0291L-0.534358 22.8536H1.94535ZM78.5692 35.984L1.6974 35.984L2.68927 26.5697L3.75635 23.1403L8.64064 23.0792L19.7994 23.1013L62.451 23.1013H75.0976L79.6506 23.1214L79.632 26.322L78.5692 35.984ZM134.116 35.984H80.0573L80.9882 26.322L81.6948 23.1591L84.5208 23.0979L91.7121 23.1016L116.509 23.1016L122.709 23.0804L125.829 23.1298L128.226 27.3133L134.116 35.984ZM184.702 23.1017C178.314 46.4855 142.873 49.1597 130.845 29.543C129.632 27.5642 128.213 25.3738 127.668 23.1017C128.836 23.0096 130.499 22.4696 131.583 23.1083C132.655 23.7401 133.221 25.5569 133.887 26.5699C135.294 28.7094 136.924 30.7559 138.827 32.4736C143.929 37.0778 150.355 39.1203 157.177 38.9534C163.499 38.7987 169.219 35.7296 173.535 31.2734C175.03 29.7295 176.301 27.9183 177.399 26.0744C177.921 25.1977 178.295 23.8964 179.13 23.2607C180.017 22.5847 183.608 22.7903 184.702 23.1017ZM177.015 35.9841L181.866 30.0383L185.446 22.8537C193.169 24.2862 202.137 23.1141 209.996 23.1015C212.373 23.0978 217.125 21.8893 219.16 23.251C221.743 24.9801 221.509 31.0672 219.591 33.2261C218.573 34.3723 216.652 34.8334 215.203 35.1294C209.902 36.2124 204.462 35.9841 199.085 35.9841H177.015ZM0.209858 36.4796L1.57354 49.8577L4.42543 59.5197C-13.1278 54.8316 -31.4929 55.8433 -49.3849 53.3584C-54.6617 52.6255 -59.9066 51.5712 -65.0072 50.036C-67.079 49.4125 -69.689 48.9054 -71.4545 47.628C-69.0318 46.9125 -65.0079 46.649 -62.5274 47.1325C-62.3282 43.8356 -65.3011 39.3071 -66.4951 36.2318H-56.0802C-54.5742 36.2318 -52.5561 35.8842 -51.1207 36.3777C-49.2095 37.0348 -47.5065 38.935 -45.6653 39.8839C-41.2478 42.1607 -36.2543 43.3564 -31.2828 43.4154C-26.1298 43.4767 -20.888 42.7466 -16.1564 40.614C-13.8477 39.5734 -11.8016 37.4265 -9.46111 36.6254C-6.77667 35.7066 -2.62716 36.4796 0.209858 36.4796ZM78.5695 36.4796L81.7932 82.5597C70.6256 82.5597 58.449 83.2623 47.5728 80.3264C44.3579 79.4586 41.3664 77.6576 38.3978 76.1851C33.532 73.7717 28.6293 71.4238 23.7674 68.9951C19.4514 66.8391 15.0659 64.7794 10.8727 62.3882C9.47331 61.5902 7.21365 61.0357 6.24864 59.7022C1.89856 53.6911 1.6977 43.5558 1.6977 36.4796L78.5695 36.4796ZM80.4128 36.6291C81.6019 36.0261 83.9485 36.4796 85.2648 36.4796H97.1675H122.957C126.526 36.4796 131.439 35.5973 134.86 36.6067C136.748 37.164 138.33 39.0556 140.067 39.9994C143.151 41.6753 148.437 43.0051 150.054 46.3893C151.777 49.995 148.015 54.6134 145.986 57.29C141.885 62.7017 137.175 67.6117 132.38 72.4023C129.28 75.4986 125.65 79.1163 121.717 81.1429C119.349 82.3629 116.109 81.8614 113.534 82.1063C106.514 82.7737 99.5139 82.8075 92.456 82.8075H85.7607C85.0484 82.8072 83.8005 83.0088 83.2879 82.3758C82.539 81.4511 82.8288 78.5347 82.7753 77.3571C82.5811 73.0843 82.4047 68.7334 81.999 64.4745C81.3246 57.3941 80.0693 50.2951 80.0573 43.1686C80.0573 41.8512 78.9925 37.3493 80.4128 36.6291ZM210.739 49.3622L218.923 48.3712C218.922 52.2341 216.153 53.6063 212.723 54.6671C206.945 56.4545 201.025 57.3265 195.117 58.5296C186.527 60.2791 178.565 64.6102 170.568 68.0855C155.535 74.6183 140.582 80.6076 123.949 81.321C126.369 78.188 130.591 75.5983 133.539 72.8701C138.216 68.5419 142.463 63.5635 146.432 58.5897C148.818 55.5988 153.245 50.282 151.283 46.1416C150.485 44.4562 148.864 43.567 147.506 42.4254C148.818 42.2307 150.145 42.8073 151.474 42.8987C155.067 43.146 158.82 43.261 162.385 42.5963C165.809 41.9576 168.981 40.7524 172.056 39.1415C173.45 38.4109 174.768 37.0502 176.271 36.6067C177.964 36.1071 180.217 36.4796 181.974 36.4796H193.629H204.788C205.811 36.4796 208.012 36.0678 208.854 36.7342C209.548 37.2837 209.427 39.3676 209.5 40.1957C209.762 43.194 210.035 46.4385 210.739 49.3622ZM179.247 42.3088C176.505 42.9421 174.992 46.3196 176.865 48.6083C178.232 50.2788 180.469 50.6456 182.47 50.0909C185.226 49.3272 186.436 45.9206 184.564 43.71C183.306 42.225 181.069 41.8878 179.247 42.3088ZM63.7179 44.5913C62.1869 44.9195 62.0955 47.6365 63.4762 48.2217C65.2014 48.9531 71.3558 48.9531 73.081 48.2217C74.3802 47.671 74.3935 45.1952 73.0587 44.6729C72.26 44.3604 71.2221 44.6446 70.3866 44.6542C68.3326 44.6778 65.7026 44.1657 63.7179 44.5913ZM132.413 44.5553C131.006 44.9847 130.892 47.5611 132.201 48.1873C134.02 49.0576 137.568 48.3712 139.571 48.3712C140.301 48.3712 141.302 48.5375 141.982 48.2217C143.251 47.6322 143.006 45.1428 141.776 44.6668C140.931 44.3398 139.949 44.6304 139.075 44.6515C137.088 44.6993 134.287 43.9833 132.413 44.5553ZM-17.148 44.9028C-17.2994 45.7178 -17.6062 46.7943 -17.1033 47.5492C-16.4929 48.466 -13.0866 48.4743 -12.3379 47.7262C-10.3666 45.7568 -13.2735 44.9029 -14.668 44.9028H-17.148ZM128.909 79.3391C134.247 79.2949 139.704 77.6248 144.779 76.0898C154.379 73.1864 163.122 69.609 172.056 65.0338C176.539 62.738 182.327 60.766 186.191 57.5377C182.622 56.9245 178.658 57.29 175.032 57.29C170.277 57.29 165.376 56.9574 160.649 57.466C158.106 57.7397 155.134 56.9863 152.714 58.0544C150.66 58.9611 148.922 60.9896 147.259 62.4541C143.92 65.394 140.564 68.3372 137.34 71.4017C134.762 73.852 130.679 76.2508 128.909 79.3391ZM9.63347 57.7854C10.3704 59.2387 12.027 60.1733 13.3531 61.0692C16.3823 63.1158 19.5664 64.9381 22.776 66.6841C31.5274 71.4448 41.0629 77.0491 50.7971 79.4691C54.7669 80.456 58.8937 80.5506 62.9477 80.8475C67.0422 81.1474 71.2405 81.321 75.3464 81.321C76.2809 81.321 78.6609 81.7466 79.3069 80.9238C80.137 79.8665 79.2444 75.9357 79.0661 74.632C78.3012 69.0521 78.2853 63.3752 77.5782 57.7854L9.63347 57.7854ZM83.7775 58.0332C85.0212 63.2522 84.5437 69.5139 84.7792 74.8797C84.8298 76.029 84.5222 80.1122 85.415 80.8187C86.3635 81.5692 88.3958 80.8827 89.4809 80.8353C92.9699 80.6827 96.4193 81.0733 99.8958 81.0733C106.05 81.0733 113.848 82.0601 119.734 79.9864C126.082 77.7496 131.5 71.2103 135.359 65.961C137.152 63.5229 140.038 60.7646 140.811 57.7855L101.88 57.7855H89.9769L83.7775 58.0332ZM275.461 119.969C274.618 116.433 275.213 112.201 275.213 108.573V86.2759C275.213 83.3128 275.751 79.7525 275.082 76.8617C274.012 72.2364 269.206 73.6075 266.075 72.2528C264.878 71.735 264.789 70.1562 263.31 69.6754C261.786 69.1796 259.555 69.2486 258.103 69.9373C257.229 70.3519 256.398 71.4614 255.375 71.4226C253.308 71.3441 251.519 69.1433 249.424 68.9257C246.855 68.6588 242.53 71.9615 240.249 73.0851C239.41 73.4983 238.053 73.9066 237.528 74.7287C236.723 75.9897 237.273 78.8694 237.273 80.3301V94.4514V147.964V163.572C237.273 165.027 236.682 168.149 237.528 169.377C238.103 170.211 239.609 170.392 240.497 170.734C242.825 171.632 247.451 174.355 249.92 173.843C251.71 173.473 253.486 171.389 255.304 171.393C256.12 171.394 256.914 172.39 257.607 172.758C259.008 173.502 261.023 173.717 262.566 173.349C264.183 172.965 264.678 171.518 266.049 170.884C269.024 169.508 272.839 169.946 274.648 166.545C276.092 163.829 275.213 159.143 275.213 156.139V132.108C275.213 129.296 274.238 124.313 275.363 121.74C275.836 120.657 277.485 120.96 278.437 120.96C280.129 120.96 282.243 120.622 283.882 121.066C285.09 121.394 285.939 122.677 287.307 121.872C288.584 121.121 287.944 119.374 286.619 119.166C285.623 119.011 284.647 119.772 283.644 119.842C281.021 120.023 277.985 119.421 275.461 119.969ZM-110.634 100.397C-110.634 94.483 -110.527 88.487 -110.382 82.5597C-110.322 80.1091 -109.455 77.1135 -110.88 74.8835C-113.369 70.9893 -119.453 72.3474 -123.277 72.1312C-125.193 72.0229 -126.541 69.572 -128.736 69.256C-130.134 69.0547 -132.012 69.1896 -133.144 70.124C-133.783 70.6519 -133.967 71.6575 -134.743 72.0052C-137.761 73.3581 -141.652 72.1811 -143.501 75.8707C-144.346 77.5562 -143.862 80.2223 -143.862 82.0643V95.6901V144.743V159.608C-143.862 161.641 -144.364 164.45 -143.386 166.297C-141.459 169.935 -137.731 169.163 -134.697 170.763C-132.637 171.849 -131.954 173.674 -129.232 173.407C-126.779 173.166 -125.241 170.963 -123.032 170.771C-119.602 170.473 -115.215 171.644 -112.144 169.647C-108.542 167.303 -110.138 159.157 -110.138 155.396C-110.138 151.663 -109.158 146.368 -110.217 142.798C-110.617 141.447 -112.73 142.021 -113.057 140.28C-113.509 137.876 -113.113 135.049 -113.113 132.604V117.244V104.609C-113.113 102.707 -112.855 100.741 -110.634 100.397ZM247.192 83.0552L238.761 75.6229V75.1275C242.754 73.2371 247.609 69.1107 251.904 71.224C253.494 72.0066 255.908 72.573 255.296 74.8575C255.008 75.9364 253.694 76.8355 252.905 77.5592C250.972 79.334 248.911 81.0706 247.192 83.0552ZM-130.967 70.5056C-129.119 70.1246 -126.4 70.676 -125.662 72.651C-125.163 73.9847 -125.512 75.9476 -125.512 77.3571C-125.512 81.0856 -125.878 85.0552 -125.441 88.7533C-124.63 95.6201 -125.264 102.894 -125.264 109.811L-125.264 149.946C-125.264 153.555 -125.489 157.246 -125.242 160.846C-125.059 163.51 -124.37 167.113 -125.095 169.723C-125.496 171.168 -127.391 171.97 -128.736 172.168C-130.015 172.356 -131.739 172.254 -132.449 170.978C-133.139 169.736 -132.703 167.435 -132.703 166.049V154.157V92.9649V75.8707C-132.703 74.0333 -133.367 71.0005 -130.967 70.5056ZM260.831 70.5142C261.856 70.4513 263.4 70.6467 263.87 71.7059C264.482 73.085 264.054 75.3739 264.054 76.8617V89.0011V150.194V167.04C264.054 169.03 264.558 172.003 261.823 172.228C260.138 172.367 257.82 172.159 256.907 170.485C256.204 169.196 256.615 166.982 256.615 165.554V153.91V92.4695V79.5868C256.615 77.6477 256.248 75.2798 256.719 73.3933C257.183 71.5337 259.048 70.6236 260.831 70.5142ZM-134.191 73.1455V138.302V158.865L-133.943 169.27C-136.627 169.947 -141.396 168.018 -142.347 165.305C-142.927 163.652 -142.622 161.584 -142.622 159.856V149.202V93.9558V80.8254C-142.622 79.0367 -142.917 76.8359 -141.574 75.4217C-139.622 73.3665 -136.69 73.7398 -134.191 73.1455ZM-111.378 77.357L-124.024 77.6047V73.3931C-119.846 73.0637 -112.621 72.0164 -111.378 77.357ZM265.542 169.765L265.294 169.517L265.542 155.644V129.383V93.4603L265.294 73.6409C267.66 72.9909 272.385 73.888 273.475 76.3882C274.109 77.8429 273.723 80.0103 273.725 81.5686V92.7171V149.946C273.725 153.652 273.581 157.391 273.744 161.094C273.828 162.999 274.183 165.196 272.884 166.781C271.217 168.815 267.979 169.293 265.542 169.765ZM238.761 76.1183L246.448 83.3028V83.7983L238.761 90.7351L238.513 80.8254L238.761 76.1183ZM255.375 76.1183V91.2306C252.492 89.695 249.065 85.9597 247.192 83.3028L255.375 76.1183ZM-99.7229 165.801H-91.0439V142.761V95.69V82.5596L-91.1303 77.7542L-93.0276 77.357L-99.3576 77.5065L-99.7229 82.5596V98.6629V165.801ZM-73.1898 77.6047C-74.6151 85.1627 -75.4032 92.8369 -76.8139 100.397C-77.1426 102.159 -78.7242 103.434 -78.9637 105.104C-79.5683 109.32 -78.8931 114.202 -78.8931 118.482C-78.8931 124.825 -79.4957 131.493 -78.867 137.806C-78.688 139.604 -77.2164 140.98 -76.827 142.761C-75.2499 149.972 -73.263 158.191 -72.9416 165.553H-21.6111C-13.214 165.553 -4.42711 166.305 3.93016 165.528C6.7985 165.261 9.72754 164.126 12.5672 163.576C22.6364 161.627 32.6364 158.944 42.7568 157.308C48.6825 156.35 54.9746 156.639 60.9641 156.377C71.2106 155.929 81.4373 155.594 91.7128 155.644C106.055 155.713 120.832 155.562 135.108 156.925C153.502 158.68 171.53 163.923 189.91 165.759C199.865 166.753 210.402 165.801 220.411 165.801C221.418 158.013 223.33 150.348 224.089 142.513C224.748 135.708 224.131 128.543 224.131 121.703C224.131 114.268 224.716 106.547 223.924 99.1584C223.362 93.9134 222.586 88.7256 221.552 83.5506C221.263 82.1062 221.265 79.0924 220.199 78.0081C219.345 77.1397 216.357 77.6047 215.204 77.6047H200.821C179.927 77.6047 158.972 83.1188 138.332 86.1714C133.216 86.928 128.107 86.8035 122.958 87.0287C111.224 87.542 99.5131 87.7433 87.7456 87.7622C76.6925 87.78 65.5674 87.7972 54.5171 87.0411C50.4139 86.7604 46.1946 87.0788 42.1184 86.4501C32.2391 84.9262 22.3443 81.8187 12.6096 79.5286C10.0947 78.9369 7.48299 77.9575 4.92234 77.6504C-2.05891 76.8131 -9.61588 77.6047 -16.6514 77.6047C-35.4246 77.6047 -54.4428 78.4938 -73.1898 77.6047ZM-111.377 78.1002L-111.625 80.8254H-111.873V78.3479H-123.776V89.2486L-124.272 80.8254L-123.697 78.1778L-120.056 78.1002H-111.377ZM-91.5393 165.306H-99.2266V77.8525C-97.581 77.8525 -93.2414 77.0749 -91.937 78.1071C-90.9805 78.8639 -91.5393 82.1816 -91.5393 83.3028V99.1584V165.306ZM-139.394 78.2619C-142.255 79.187 -141.845 87.8947 -137.415 86.6292C-134.268 85.7301 -134.604 76.7132 -139.394 78.2619ZM-129.714 78.5787C-131.266 78.9992 -130.532 81.2247 -128.998 80.6711C-127.559 80.152 -128.316 78.2001 -129.714 78.5787ZM268.777 78.5319C267.407 79.0896 267.527 80.5871 267.526 81.8164C267.526 84.301 267.8 88.0869 271.483 86.5873C272.931 85.9979 272.734 84.3369 272.734 83.0551C272.734 80.5467 272.385 77.0628 268.777 78.5319ZM-138.899 78.7033C-135.443 77.7412 -135.432 85.5621 -137.668 86.1674C-141.199 87.1228 -141.171 79.3358 -138.899 78.7033ZM260.143 78.7808C258.683 79.4335 259.995 81.193 261.289 80.6721C262.789 80.0686 261.511 78.1689 260.143 78.7808ZM269.758 78.7226C273.179 78.1421 273.259 85.7643 270.745 86.219C267.196 86.8609 267.268 79.1451 269.758 78.7226ZM3.68137 78.8435V79.0912L-47.1533 94.7472L-66.2472 100.61L-76.4141 103.618C-74.2943 98.2022 -73.9709 91.5419 -73.1581 85.7803C-72.9572 84.3561 -72.9576 80.0062 -71.8011 79.0981C-70.7724 78.2902 -67.7618 78.8435 -66.4952 78.8435H-52.1127L3.68137 78.8435ZM190.38 78.9509C191.7 79.0033 192.671 81.307 193.225 82.3119C195.305 86.0831 196.78 90.0035 197.702 94.2035C199.74 103.489 198.837 113.483 198.837 122.942C198.837 130.788 199.679 139.263 197.987 146.973C196.96 151.655 195.554 156.318 193.354 160.599C192.664 161.942 191.956 164.492 190.156 164.526C186.355 164.597 182.246 163.29 178.503 162.689C169.165 161.191 159.838 159.566 150.482 158.188C147.169 157.701 143.88 157.094 140.563 156.635C139.551 156.495 137.3 156.486 136.58 155.708C135.829 154.897 135.694 152.977 135.461 151.928C134.752 148.741 133.969 145.506 133.581 142.266C132.835 136.038 133.124 129.706 133.124 123.437C133.124 116.677 132.877 109.858 133.349 103.122C133.623 99.2181 134.543 95.5228 135.441 91.7261C135.707 90.6023 135.709 88.5489 136.722 87.8029C137.706 87.0779 139.633 87.1427 140.811 86.9226C144.339 86.2635 147.927 85.7641 151.474 85.2167C160.322 83.8514 169.177 82.4447 178.007 80.9653C181.876 80.3171 186.465 78.7956 190.38 78.9509ZM219.418 164.562C212.763 165.797 205.11 164.81 198.341 164.81C196.357 164.81 194.07 164.434 192.141 164.81C191.984 162.452 194.622 159.128 195.514 156.882C197.554 151.746 198.768 146.514 199.29 141.027C200.047 133.084 199.333 124.73 199.333 116.748C199.333 109.945 200.054 102.634 198.672 95.9377C197.9 92.1993 196.825 88.4859 195.171 85.037C194.201 83.0155 192.45 80.9853 191.894 78.8435H211.731C213.379 78.8435 217.672 78.0732 218.99 79.0981C220.105 79.965 220.098 83.2269 220.361 84.5416C221.451 89.9888 222.509 95.5821 222.646 101.14C222.957 113.793 223.735 126.89 222.868 139.54C222.294 147.916 219.777 156.222 219.418 164.562ZM3.43364 79.8344C0.80938 86.9956 -4.40036 93.059 -6.22736 100.645C-7.5592 106.175 -6.73323 112.573 -6.73323 118.235C-6.73323 126.737 -8.09148 136.534 -5.63267 144.743C-3.55728 151.672 0.932577 157.288 3.68166 163.819C-2.76895 162.947 -9.72372 159.717 -15.9083 157.644C-28.5733 153.4 -41.4121 149.669 -54.0962 145.486C-59.6176 143.665 -65.1501 141.873 -70.7104 140.176C-72.9942 139.479 -75.2867 138.403 -77.6537 138.054V123.437C-76.2249 123.499 -73.7232 124.877 -72.456 124.227C-69.0922 122.501 -68.6193 117.408 -72.704 116.178C-73.9744 115.795 -76.1796 116.852 -77.4057 117.244L-77.6537 107.829L-77.0789 104.573L-69.9665 102.254L-53.1043 97.0713L-13.4285 84.8585L3.43364 79.8344ZM2.93774 82.0641C2.49942 86.4624 0.685155 90.7389 0.252119 95.1945C-0.386835 101.768 0.120143 108.418 -0.0415855 115.014C-0.295486 125.37 -1.26005 136.157 -0.243855 146.477C0.265359 151.649 2.03112 156.558 3.18569 161.59H2.93774C-1.01575 155.136 -4.93376 147.833 -6.15676 140.284C-7.33774 132.994 -6.23733 124.636 -6.23733 117.244C-6.23733 112.583 -6.82108 107.487 -6.16286 102.875C-5.51386 98.3264 -3.25905 94.1049 -1.35416 89.9919C-0.152507 87.3972 1.10799 84.2703 2.93774 82.0641ZM254.383 91.4783H239.256L244.712 85.7803L246.944 84.2743L249.175 86.028L254.383 91.4783ZM169.328 84.6467C161.555 85.6663 153.887 87.1318 146.266 89.0323C144.372 89.5047 139.888 89.6912 138.544 91.1314C137.78 91.949 137.704 93.8841 137.488 94.9467C136.841 98.1343 136.101 101.337 136.1 104.609V138.302C136.1 141.715 136.628 145.104 137.234 148.459C137.42 149.487 137.397 151.456 138.229 152.192C139.02 152.891 140.562 152.962 141.555 153.167C144.042 153.682 146.518 154.302 148.994 154.871C157.762 156.885 166.515 158.617 175.527 158.617C177.826 158.617 180.438 158.965 182.704 158.58C184.391 158.293 183.462 154.429 183.462 153.166V135.824V97.4242C183.462 94.2887 183.393 91.1445 183.462 88.0099C183.482 87.1657 184.03 85.4331 183.269 84.7962C182.503 84.1553 180.435 84.5415 179.491 84.5415C176.159 84.5415 172.629 84.2132 169.324 84.6467M134.856 87.7622L131.89 103.122L131.88 124.676L131.923 140.036L134.856 155.891L125.433 155.386L107.331 154.9L70.6312 154.663L42.8582 156.139L40.8966 142.266L40.8743 124.18L40.884 101.636L42.8579 87.7622L74.8465 88.9973L111.299 88.5091L134.856 87.7622ZM-123.78 89.9919V91.2306H-124.028L-123.78 89.9919ZM-122.292 91.7261L-122.292 151.928H-123.78L-124.028 91.7261H-122.292ZM-121.222 91.8767C-119.562 91.0953 -119.565 93.2208 -119.565 94.2035V103.865L-119.565 140.284V148.955C-119.565 149.74 -119.266 151.316 -120.139 151.743C-121.676 152.494 -121.794 150.688 -121.796 149.698V141.027L-121.796 104.856V95.1945C-121.796 94.3487 -122.171 92.3238 -121.222 91.8767ZM-119.069 151.928L-119.069 91.7261L-117.092 92.1233L-116.837 95.1945V102.875V139.293L-116.837 148.211L-117.092 151.53L-119.069 151.928ZM-111.878 91.7261V99.4061C-115.276 100.75 -114.605 105.127 -114.605 108.077V133.842C-114.605 136.949 -115.749 142.263 -111.63 143.009L-111.382 151.68C-112.315 151.955 -115.391 152.436 -116.09 151.528C-116.66 150.787 -116.341 149.094 -116.341 148.211V139.788L-116.341 103.37V94.9467C-116.341 94.1661 -116.643 92.534 -115.943 91.9807C-115.098 91.3118 -112.911 91.7261 -111.878 91.7261ZM243.716 92.4693C244.713 95.837 243.965 100.353 243.965 103.865C240.896 103.902 241.981 108.014 241.981 110.307V131.613C241.981 133.997 240.781 139.007 243.965 139.045V151.184L238.907 150.93L238.509 147.22V136.815V92.7171L243.716 92.4693ZM251.9 92.4693V106.591V135.081L252.148 150.937L244.46 151.184V139.045C247.147 138.84 246.196 134.588 246.196 132.604V111.298C246.196 109.219 247.254 104.078 244.46 103.865V95.69L244.858 92.7239L251.9 92.4693ZM255.123 92.4693L255.371 98.9106V111.05V151.184H252.644V106.343V96.4332L252.898 92.8667L255.123 92.4693ZM63.1918 100.502C60.047 100.92 57.1486 101.891 55.5134 104.856C54.1633 107.305 54.5127 110.09 54.5127 112.784V127.649C54.5127 131.43 53.5825 136.529 55.9108 139.788C59.0321 144.157 64.6858 143.504 69.3911 143.504C71.3381 143.504 73.4128 143.705 75.3425 143.43C86.1171 141.892 83.5256 129.684 83.5256 121.703C83.5256 116.977 84.8933 109.684 82.841 105.352C79.806 98.9458 69.1026 99.7173 63.1918 100.502ZM63.1918 100.963C68.8296 100.29 79.1498 99.404 82.1572 105.352C84.3926 109.773 83.0297 117.095 83.0297 121.951C83.0297 128.436 85.5551 141.489 76.3344 142.716C70.7063 143.466 59.8386 144.778 56.3063 139.251C54.2576 136.045 55.0087 131.517 55.0087 127.897V114.518C55.0087 107.949 55.2383 101.914 63.1918 100.963ZM245.7 104.609V138.302L242.725 138.549L242.477 127.649V104.609H245.7ZM-130.291 106.845C-131.426 107.771 -129.698 109.421 -128.604 108.423C-127.485 107.402 -129.325 106.058 -130.291 106.845ZM260.14 106.778C258.702 107.4 259.975 109.398 261.286 108.753C262.76 108.027 261.507 106.188 260.14 106.778ZM114.77 115.262C116.038 117.862 119.801 120.122 121.962 122.021C122.994 122.929 123.796 123.9 125.185 124.18L118.843 118.481L114.77 115.262ZM-77.1612 122.198V118.235C-75.8926 117.944 -73.9265 116.915 -72.7014 117.651C-70.5075 118.968 -70.3974 122.247 -73.1973 122.997C-74.3652 123.31 -76.0191 122.46 -77.1612 122.198ZM-129.483 134.577C-130.907 134.665 -130.964 136.742 -129.483 136.742C-127.9 136.742 -127.847 134.476 -129.483 134.577ZM260.139 134.773C258.671 135.405 259.925 137.411 261.286 136.726C262.754 135.986 261.496 134.189 260.139 134.773ZM-76.6653 138.549L-66.9943 141.777L-48.6443 147.653L2.68622 164.067V164.315H-50.628H-65.2585C-66.8759 164.315 -69.8978 164.901 -71.3503 164.165C-72.5068 163.579 -72.5509 159.57 -72.7597 158.369C-73.6495 153.253 -74.714 148.149 -75.458 143.009C-75.6598 141.614 -77.0205 139.847 -76.6653 138.549ZM254.875 152.175C253.752 154.581 251.025 156.277 249.172 158.121C248.609 158.682 247.819 159.786 246.941 159.808C246.031 159.831 245.18 158.642 244.597 158.069C242.898 156.399 239.743 154.47 239.005 152.175H254.875ZM-111.63 152.423L-111.382 164.562C-114.752 165.558 -119.272 164.81 -122.788 164.81V164.562H-111.878C-111.878 161.147 -112.946 155.558 -111.63 152.423ZM239.005 153.166C241.293 155.452 245.069 157.9 246.444 160.846L238.757 167.783L238.509 157.13L239.005 153.166ZM255.371 153.166V168.031C253.087 166.967 248.127 162.561 247.436 160.103L255.371 153.166ZM-139.154 156.797C-142.234 157.737 -141.959 166.625 -137.42 165.246C-134.308 164.301 -134.734 155.449 -139.154 156.797ZM269.011 157.066C266.071 158.205 266.667 166.946 271.237 165.342C274.14 164.323 273.654 155.268 269.011 157.066ZM-137.672 157.363C-135.529 157.789 -135.3 165.432 -138.896 164.753C-141.188 164.321 -141.218 156.658 -137.672 157.363ZM269.272 157.505C273.176 156.245 273.288 164.13 270.979 164.855C267.237 166.031 267.312 158.138 269.272 157.505ZM-75.9213 196.274V196.521L-64.0186 197.512C-65.2298 199.638 -65.9713 204.884 -68.0543 206.176C-69.1235 206.84 -70.7951 206.244 -71.9538 206.193C-74.8822 206.065 -79.9896 205.301 -82.5934 206.779C-85.3096 208.32 -84.5522 212.751 -84.9229 215.35C-85.1081 216.649 -85.5177 217.826 -84.6305 218.991C-83.4351 220.56 -80.7324 220.902 -78.897 221.048L-75.5112 227.737L-73.8568 229.817L-68.4821 229.967H-55.5875C-53.6571 214.786 -42.0454 203.063 -26.0787 205.549C-18.2029 206.775 -11.6947 211.189 -8.00362 218.323C-6.55774 221.117 -5.71815 223.942 -5.03062 226.994C-4.83735 227.851 -4.97408 229.575 -3.95238 229.888C-0.423517 230.969 4.93561 229.967 8.63758 229.967H36.9066L130.145 229.967C131.614 222.852 134.569 216.121 140.064 211.18C148.246 203.824 161.995 203.03 170.387 210.523C174.334 214.047 177.022 218.389 178.945 223.278C179.472 224.618 180.035 229.203 181.305 229.817C183.398 230.83 187.407 229.827 189.658 229.729C196.228 229.441 202.98 230.555 209.496 229.925C211.898 229.692 213.724 228.83 214.699 226.498C215.243 225.197 215.356 223.433 216.352 222.365C217.857 220.752 220.18 221.488 221.509 219.066C222.99 216.365 222.759 210.572 220.146 208.571C217.703 206.701 213.471 206.245 210.488 206.183L211.976 195.035L219.663 196.026C223.709 188.809 210.546 186.482 206.025 185.459C200.979 184.319 195.541 184.014 190.65 182.291C174.702 176.673 159.959 167.019 143.287 163.571C122.866 159.347 102.501 159.328 81.7898 159.36C70.2118 159.378 57.2776 158.479 46.0816 161.945C42.9022 162.93 39.9026 164.855 36.9066 166.291C30.6036 169.31 24.2433 172.278 18.0606 175.537C11.8097 178.832 5.92592 182.237 -1.03339 183.781C-25.5448 189.22 -53.1128 183.793 -75.9213 196.274ZM78.3182 206.679L69.6391 206.431H53.5209H1.69435C1.69435 200.722 2.21041 195.086 3.82085 189.585C4.42997 187.504 5.00309 184.933 6.39742 183.211C7.32665 182.064 9.33137 181.515 10.6214 180.849C13.6882 179.268 16.709 177.599 19.7964 176.057C25.0786 173.42 30.3875 170.849 35.6668 168.212C39.1809 166.457 42.8244 164.228 46.5775 163.048C50.1996 161.91 53.9944 161.656 57.7364 161.3C63.5316 160.749 69.2757 160.737 75.0946 160.595C76.564 160.559 80.1562 159.604 81.3922 160.606C82.0571 161.145 81.5711 162.596 81.5445 163.324C81.4483 165.966 81.1716 168.611 81.0557 171.252C80.7018 179.314 79.6213 187.256 78.8562 195.283C78.5123 198.891 79.3431 203.215 78.3182 206.679ZM80.054 206.679C79.3488 203.719 80.0741 200.268 80.2798 197.265C80.8268 189.285 82.2345 181.236 82.2859 173.234C82.306 170.152 82.4909 166.881 82.8525 163.819C82.9463 163.025 82.7714 161.416 83.2845 160.783C83.8626 160.069 85.4491 160.351 86.2534 160.351H94.1885C99.9228 160.351 105.587 160.587 111.299 160.837C114.229 160.965 118.199 160.558 120.97 161.544C123.354 162.393 125.525 164.544 127.417 166.155C134.624 172.289 141.404 179.449 146.969 187.107C148.893 189.754 151.976 194.271 149.608 197.509C147.494 200.4 142.629 201.723 139.568 203.401C138.021 204.249 136.528 206.02 134.853 206.51C133.605 206.874 131.941 206.431 130.641 206.431H120.474H93.4446C89.2073 206.431 84.1798 205.697 80.054 206.679ZM255.371 170.013L249.668 172.589L246.196 171.578L238.757 168.774C240.234 166.68 242.407 165.126 244.212 163.324C244.846 162.691 245.733 161.435 246.692 161.322C247.637 161.211 248.538 162.435 249.149 163.002C251.093 164.805 254.952 167.3 255.371 170.013ZM9.62953 185.373H77.5743L79.5581 161.837C69.8894 161.837 59.4932 161.424 50.0492 163.793C41.4978 165.939 32.9588 170.975 25.2519 175.139C21.4802 177.177 17.6857 179.183 14.0931 181.532C12.5009 182.573 10.5623 183.665 9.62953 185.373ZM218.919 194.787C217.18 194.567 212.554 193.109 211.063 194.054C210.183 194.612 210.312 196.593 210.202 197.512C209.834 200.571 209.387 203.623 209 206.679H187.179C183.821 206.679 179.756 207.307 176.474 206.584C173.934 206.025 171.348 203.351 168.829 202.332C162.254 199.671 154.351 199.21 147.503 200.981C148.647 198.965 151.171 198.434 151.637 195.778C152.37 191.6 148.653 187.39 146.264 184.382C142.287 179.377 138.072 174.388 133.359 170.051C130.704 167.608 125.993 164.897 124.193 161.837C141.063 162.185 156.363 168.916 171.556 175.431C179.604 178.882 187.438 183.106 196.106 184.726C202.082 185.843 208.232 186.736 213.96 188.855C216.818 189.912 219.311 191.473 218.919 194.787ZM84.0216 185.373H140.808C140.16 182.122 136.637 178.736 134.608 176.206C130.763 171.412 126.117 165.595 120.226 163.265C114.274 160.91 106.176 162.085 99.8919 162.085C96.4999 162.085 93.1084 162.326 89.7286 162.206C88.6236 162.166 86.3331 161.61 85.4111 162.34C84.5296 163.037 84.7974 167.144 84.7691 168.279C84.6271 173.982 84.0216 179.659 84.0216 185.373ZM-130.149 162.835C-131.405 163.674 -129.961 165.244 -128.778 164.554C-127.344 163.72 -128.92 162.015 -130.149 162.835ZM260.12 162.84C258.625 163.664 260.183 165.511 261.492 164.693C262.795 163.879 261.333 162.171 260.12 162.84ZM128.905 163.819C130.034 165.749 132.478 167.259 134.112 168.78C138.189 172.575 142.321 176.321 146.511 179.993C148.398 181.647 150.76 184.496 153.206 185.247C156.505 186.26 160.702 185.621 164.117 185.621H185.939C184.783 184.277 182.794 183.617 181.227 182.829C178.566 181.49 175.913 180.081 173.292 178.664C163.9 173.589 154.295 169.664 144.031 166.757C139.135 165.371 134.017 163.819 128.905 163.819ZM-123.78 169.517C-123.78 168.568 -124.208 166.214 -123.383 165.56C-122.775 165.08 -121.526 165.306 -120.805 165.306H-114.357C-113.649 165.306 -112.372 165.074 -111.783 165.56C-110.98 166.223 -111.907 167.696 -112.429 168.226C-113.979 169.798 -116.56 169.517 -118.573 169.517H-123.78ZM4.67003 183.639C2.44407 189.059 1.21593 194.428 0.525277 200.238C0.274427 202.347 0.605474 204.636 0.206509 206.679C-2.86261 205.949 -6.54941 207.369 -9.46446 206.466C-11.6369 205.794 -13.5504 203.693 -15.6638 202.722C-21.1037 200.224 -27.0636 199.357 -33.022 199.764C-37.2274 200.052 -41.6922 201.008 -45.4206 203.04C-47.3282 204.08 -49.1085 206.027 -51.124 206.746C-52.5691 207.262 -54.5653 206.927 -56.0835 206.927H-66.2504L-62.5308 196.026L-71.4578 195.778L-66.7464 193.584L-52.6119 190.266L-17.1516 187.065L-3.51309 185.469L4.67003 183.639ZM63.1181 195.042C62.1343 195.785 62.3411 197.874 63.4729 198.354C65.3837 199.164 68.8105 198.503 70.879 198.503C71.6115 198.503 72.808 198.72 73.4323 198.249C74.4162 197.506 74.2094 195.416 73.0776 194.937C71.1668 194.127 67.74 194.787 65.6715 194.787C64.939 194.787 63.7425 194.571 63.1181 195.042ZM131.987 195.042C131.007 195.706 131.072 197.855 132.185 198.354C134.094 199.209 137.729 198.503 139.816 198.503C140.527 198.503 141.567 198.676 142.188 198.249C143.106 197.618 143.037 195.408 141.991 194.937C140.087 194.079 136.443 194.787 134.36 194.787C133.645 194.787 132.613 194.617 131.987 195.042ZM-17.1516 195.035C-17.303 195.85 -17.6099 196.927 -17.107 197.682C-16.5108 198.577 -13.1446 198.599 -12.3415 197.964C-10.117 196.204 -13.3901 195.035 -14.6716 195.035H-17.1516ZM-1.28104 220.057C-2.42548 220.057 -4.61588 220.48 -5.58655 219.803C-6.79914 218.956 -7.57348 216.359 -8.39686 215.102C-10.0725 212.546 -12.3485 210.146 -14.9196 208.473C-24.027 202.548 -37.7378 202.394 -46.4122 209.284C-50.1536 212.256 -52.4525 216.138 -54.5954 220.305L-58.5629 220.057C-56.389 212.404 -51.25 206.091 -43.9325 202.792C-28.6752 195.916 -5.42944 202.151 -1.28104 220.057ZM184.699 220.057C183.21 220.057 180.698 220.545 179.341 219.908C178.376 219.455 177.809 217.711 177.294 216.836C176.189 214.959 174.81 213.192 173.289 211.634C169.102 207.346 163.566 204.231 157.422 204.202C150.353 204.168 144.257 205.834 138.846 210.578C136.962 212.23 135.344 214.225 134.011 216.341C133.379 217.343 132.805 219.154 131.784 219.803C130.786 220.436 128.81 220.057 127.665 220.057C128.273 217.502 129.862 215.041 131.302 212.873C143.799 194.064 178.471 196.836 184.699 220.057ZM-30.2939 207.074C-35.7833 207.272 -41.4333 209.207 -45.378 213.162C-52.8512 220.655 -51.552 232.92 -42.9406 238.942C-38.3175 242.176 -33.0967 243.082 -27.5662 242.84C-24.9272 242.724 -22.2627 241.89 -19.8791 240.791C-17.6958 239.784 -15.61 238.326 -13.991 236.547C-12.4963 234.905 -11.2464 233.025 -10.4121 230.958C-5.23557 218.132 -17.9101 206.627 -30.2939 207.074ZM1.9426 220.057H-0.785064C-2.0164 214.742 -5.72395 211.424 -8.72024 207.175L-2.2729 207.171L0.0572051 207.191L0.597744 210.395L1.9426 220.057ZM78.3185 206.927L80.0543 220.057L3.18249 220.057L1.69465 207.174H52.7772H69.1435L78.3185 206.927ZM134.36 207.422C131.725 209.719 129.83 212.802 128.181 215.845C127.626 216.869 126.907 219.397 125.832 219.908C123.501 221.015 118.597 220.057 116.01 220.057H91.957H84.5178C83.7429 220.057 82.3421 220.316 81.6918 219.802C81.0569 219.301 81.0831 217.59 80.9507 216.836C80.4371 213.912 79.5597 209.847 80.0543 206.927L93.4448 207.174H119.978L129.897 207.174L134.36 207.422ZM152.711 207.281C149.529 207.736 146.54 208.679 143.783 210.352C134.452 216.015 132.136 228.58 139.838 236.652C144.579 241.621 152.19 243.732 158.91 242.775C161.824 242.36 164.829 241.406 167.341 239.861C169.464 238.554 171.314 236.912 172.821 234.922C173.996 233.372 174.948 231.582 175.514 229.719C179.67 216.064 165.322 205.477 152.711 207.281ZM185.195 220.057C183.923 214.707 180.017 211.437 177.012 207.175C187.344 207.175 197.677 207.125 208.009 207.175C211.161 207.19 217.562 207.304 219.731 209.994C221.37 212.027 221.952 219.143 218.67 219.979C215.512 220.783 211.271 220.057 208.009 220.057H185.195ZM-51.8676 207.422C-54.2512 211.23 -58.8435 215.132 -58.8109 220.057H-73.4413C-76.2003 220.057 -79.5125 220.333 -82.1195 219.262C-82.8117 218.978 -83.5233 218.559 -83.7485 217.802C-84.0614 216.749 -83.5824 215.642 -83.4347 214.607C-83.1309 212.477 -84.0036 209.286 -81.8589 207.854C-79.9794 206.599 -75.6454 207.422 -73.4413 207.422H-51.8676ZM-54.8433 220.553L-56.8271 228.728H-68.7299C-69.9753 228.728 -72.2605 229.164 -73.3446 228.474C-75.2409 227.266 -76.8091 222.774 -77.9049 220.801L-70.2177 220.553H-54.8433ZM5.41425 228.728H-3.5128L-5.24859 220.553C-3.54322 220.553 0.402678 219.816 1.81613 220.807C2.50373 221.29 2.68503 222.531 2.93454 223.278C3.58383 225.222 4.64035 226.865 5.41425 228.728ZM81.5421 228.728L22.2765 228.728H11.8616C10.5457 228.728 8.60173 229.082 7.39896 228.474C5.02221 227.272 3.78581 223.014 3.67846 220.553H62.4482H75.0949L79.9083 220.807L80.5827 223.03L81.5421 228.728ZM125.681 220.553C125.428 222.242 124.189 227.465 122.792 228.474C122.058 229.004 120.587 228.728 119.73 228.728H112.291H83.03L81.5421 220.801C85.6711 219.581 91.3654 220.553 95.6766 220.553H125.681ZM131.633 220.801L128.765 228.474L124.442 228.728C125.064 224.574 126.588 219.311 131.633 220.801ZM215.944 220.553C214.799 222.589 213.92 226.725 211.966 228.052C209.839 229.496 205.739 228.728 203.297 228.728H181.971L179.492 220.801C182.931 219.785 187.56 220.553 191.146 220.553H215.944Z" fill="#304A6E"/>
</svg>
