<svg width="81" height="72" viewBox="0 0 81 72" fill="none" xmlns="http://www.w3.org/2000/svg">
<rect width="81" height="72" fill="#1A1E26"/>
<rect x="-449" y="-521" width="980" height="753" rx="4" fill="white"/>
<path d="M161.811 -248.027C160.83 -252.937 159.437 -257.408 155.888 -261.127C149.172 -268.166 137.752 -268.021 131.29 -260.673C126.619 -255.361 125 -247.925 126.375 -241.084C127 -237.975 128.233 -234.92 130.182 -232.404C131.614 -230.556 133.143 -228.963 135.183 -227.776C146.853 -220.982 159.426 -229.628 161.479 -242.075C161.805 -244.049 162.214 -246.013 161.811 -248.027ZM161.763 -62.7906C160.321 -68.5445 158.767 -73.7854 153.763 -77.5415C145.609 -83.6619 134.602 -80.8002 129.259 -72.4616C125.919 -67.2485 125.124 -60.5349 126.604 -54.6075C128.601 -46.6172 135.415 -39.5458 144.101 -39.761C153.386 -39.9911 159.813 -47.7473 161.423 -56.3433C161.816 -58.44 162.297 -60.6601 161.763 -62.7906ZM125.273 -283.487L116.106 -280.015L115.633 -287.951L115.115 -291.918C103.296 -267.691 108.31 -240.551 102.261 -215.046C101.05 -209.941 98.4075 -205.508 95.9849 -200.912C92.3749 -194.064 89.039 -187.049 85.6684 -180.082C84.1124 -176.866 82.0168 -173.576 80.9492 -170.163C77.3583 -158.683 78.2017 -145.352 78.2017 -133.463C78.2017 -118.534 78.4111 -103.92 79.894 -89.0758C80.7347 -80.66 81.9237 -71.7241 84.9383 -63.7825C89.89 -50.7382 96.8998 -38.3413 101.269 -25.0986C103.033 -19.7521 103.385 -13.9503 104.682 -8.48438C105.969 -3.0551 107.577 5.84489 114.868 3.91427L113.877 -4.02085C116.465 -4.65929 119.171 -4.77481 121.804 -5.15644C122.635 -5.27681 124.16 -5.7939 124.841 -5.11031C125.848 -4.09999 125.596 -0.728856 126.017 0.69047C127.45 5.52149 132.337 7.68959 137.164 5.86579C138.323 5.42792 139.651 4.55538 140.186 3.39502C140.726 2.22349 140.421 0.819324 141.651 0.0491429C143.584 -1.16174 146.074 -0.969587 147.622 -2.85312C149.267 -4.85531 148.808 -7.81224 148.808 -10.2204L148.808 -27.3306C148.808 -29.304 149.51 -32.9075 148.659 -34.6946C148.053 -35.9684 143.464 -36.5371 142.119 -37.0491C137.555 -38.7868 133.061 -41.531 129.774 -45.1847C121.924 -53.9131 122.634 -67.9689 130.498 -76.4293C135.303 -81.5998 142.006 -84.4477 148.808 -85.8523V-179.09V-207.359C148.808 -211.061 149.81 -216.42 148.73 -219.949C148.415 -220.976 146.699 -220.867 145.835 -221.019C142.981 -221.521 140.241 -222.494 137.66 -223.787C130.893 -227.176 125.986 -233.303 124.644 -240.836C121.725 -257.227 132.932 -269.532 148.808 -271.584V-284.727C148.808 -286.17 149.321 -288.854 148.554 -290.117C147.176 -292.386 142.728 -293.211 140.666 -294.854C139.034 -296.154 139.647 -298.896 138.113 -300.456C136.952 -301.638 135.604 -301.042 134.192 -300.888C131.507 -300.597 127.407 -301.236 125.704 -298.61C124.839 -297.276 125.025 -295.415 125.025 -293.902C125.025 -290.422 125.273 -286.973 125.273 -283.487ZM147.57 -272.824L139.394 -270.841L139.642 -293.654C141.568 -293.044 146.498 -290.947 147.487 -289.138C148.145 -287.934 147.817 -285.584 147.817 -284.231C147.817 -280.418 147.57 -276.625 147.57 -272.824ZM147.817 -210.583L142.119 -213.098L139.667 -214.181L139.394 -221.246L147.57 -219.51L147.817 -210.583ZM147.817 -134.455L139.394 -135.943C140.685 -155.216 139.642 -174.892 139.642 -194.217C139.642 -198.798 140.001 -203.554 139.465 -208.103C139.359 -208.999 138.913 -211.991 140.194 -212.194C141.062 -212.332 142.297 -211.721 143.11 -211.447C144.53 -210.968 146.559 -210.227 147.315 -208.825C147.894 -207.751 147.802 -205.6 147.816 -204.384C147.855 -201.161 147.817 -197.936 147.817 -194.713V-154.293C147.817 -147.76 147.243 -140.954 147.817 -134.455ZM139.394 -90.3158L139.642 -110.65L139.394 -134.207L139.642 -134.455L147.569 -132.967C147.57 -123.484 147.817 -113.954 147.817 -104.45C147.817 -101.572 148.899 -95.9103 147.459 -93.3604C146.614 -91.8631 141.048 -90.4852 139.394 -90.3158ZM147.569 -86.8442L139.394 -84.6124V-88.58L147.569 -91.5557V-86.8442ZM139.642 -0.0534504V-7.98862V-25.0988L139.642 -36.5056L147.569 -34.0258L147.569 -12.7001C147.569 -10.242 148.328 -6.21742 147.005 -4.04435C145.614 -1.75977 141.658 -1.79579 139.642 -0.0534504ZM138.898 -274.808C133.575 -274.343 130.647 -269.991 126.264 -267.865C126.264 -275.15 126.275 -282.434 126.264 -289.687C126.26 -291.89 125.452 -296.182 126.781 -298.049C128.107 -299.911 131.533 -299.195 133.448 -299.401C134.429 -299.506 135.419 -299.955 136.417 -299.793C137.243 -299.659 137.73 -299.094 138.065 -298.362C139.552 -295.112 138.936 -291.129 138.899 -287.703C138.855 -283.548 139.57 -278.883 138.898 -274.808ZM138.899 -217.278C120.927 -221.541 114.442 -245.436 122.005 -260.674C125.52 -267.756 131.522 -272.158 138.899 -274.56C140.16 -269.415 134.741 -268.582 131.466 -265.775C127.52 -262.392 124.772 -257.845 123.703 -252.739C122.045 -244.817 123.371 -235.861 128.494 -229.429C130.308 -227.152 132.473 -225.326 134.935 -223.782C136.02 -223.102 138.156 -222.501 138.842 -221.391C139.425 -220.448 139.183 -218.286 138.899 -217.278ZM139.146 -214.055L125.768 -215.79C126.381 -218.365 126.381 -222.143 125.768 -224.717L130.971 -220.608L139.146 -216.534V-214.055ZM126.016 -137.431V-214.303L135.43 -213.311L138.86 -212.244L138.921 -207.359L138.899 -196.201V-153.549V-140.902L138.879 -136.349L135.678 -136.368L126.016 -137.431ZM126.016 -81.8844V-135.943L135.678 -135.012L138.841 -134.305L138.902 -131.479L138.898 -124.288V-99.4906L138.92 -93.2912L138.87 -90.1712L134.687 -87.7743L126.016 -81.8844ZM138.898 -31.2978C115.514 -37.6863 112.84 -73.1268 132.457 -85.1549C134.436 -86.3682 136.626 -87.7868 138.898 -88.3318C138.99 -87.1637 139.53 -85.5011 138.892 -84.417C138.26 -83.3452 136.443 -82.7791 135.43 -82.1129C133.291 -80.7057 131.244 -79.0764 129.526 -77.1729C124.922 -72.0711 122.88 -65.6453 123.047 -58.8229C123.201 -52.5011 126.27 -46.7814 130.727 -42.4654C132.27 -40.9702 134.082 -39.6994 135.926 -38.6014C136.802 -38.0793 138.104 -37.7045 138.739 -36.8699C139.415 -35.9826 139.21 -32.3919 138.898 -31.2978ZM126.016 -38.985L131.962 -34.1342L139.146 -30.5539C137.714 -22.8311 138.886 -13.8627 138.899 -6.0045C138.902 -3.62715 140.111 1.12544 138.749 3.15977C137.02 5.74318 130.933 5.50871 128.774 3.59126C127.628 2.5732 127.167 0.651732 126.871 -0.797053C125.788 -6.09801 126.016 -11.5376 126.016 -16.9154V-38.985ZM125.52 -215.79L112.142 -214.426L102.48 -211.575C107.168 -229.128 106.157 -247.493 108.642 -265.385C109.374 -270.662 110.429 -275.907 111.964 -281.007C112.588 -283.079 113.095 -285.689 114.372 -287.454C115.087 -285.032 115.351 -281.008 114.867 -278.527C118.164 -278.328 122.693 -281.301 125.768 -282.495L125.768 -272.08C125.768 -270.574 126.116 -268.556 125.622 -267.121C124.965 -265.209 123.065 -263.506 122.116 -261.665C119.839 -257.248 118.644 -252.254 118.585 -247.283C118.523 -242.13 119.253 -236.888 121.386 -232.156C122.427 -229.848 124.573 -227.802 125.375 -225.461C126.293 -222.777 125.52 -218.627 125.52 -215.79ZM125.52 -137.431L79.4403 -134.207C79.4403 -145.374 78.7377 -157.551 81.6736 -168.427C82.5414 -171.642 84.3424 -174.634 85.8149 -177.602C88.2283 -182.468 90.5762 -187.371 93.0049 -192.233C95.1609 -196.549 97.2206 -200.934 99.6118 -205.127C100.41 -206.527 100.964 -208.786 102.298 -209.751C108.309 -214.101 118.444 -214.302 125.52 -214.302V-137.431ZM125.371 -135.587C125.974 -134.398 125.52 -132.051 125.52 -130.735V-118.833V-93.0432C125.52 -89.474 126.403 -84.561 125.393 -81.1405C124.836 -79.252 122.944 -77.67 122.001 -75.933C120.325 -72.8487 118.995 -67.5626 115.611 -65.9456C112.005 -64.2228 107.387 -67.9854 104.71 -70.0138C99.2983 -74.1151 94.3883 -78.8249 89.5977 -83.6202C86.5014 -86.7196 82.8837 -90.3497 80.8571 -94.2831C79.6371 -96.6511 80.1386 -99.8906 79.8937 -102.466C79.2263 -109.486 79.1925 -116.486 79.1925 -123.544V-130.239C79.1928 -130.952 78.9912 -132.2 79.6242 -132.712C80.5489 -133.461 83.4653 -133.171 84.6429 -133.225C88.9157 -133.419 93.2666 -133.595 97.5255 -134.001C104.606 -134.675 111.705 -135.931 118.831 -135.943C120.149 -135.943 124.651 -137.007 125.371 -135.587ZM112.638 -5.26058L113.629 2.92255C109.766 2.92218 108.394 0.152701 107.333 -3.27677C105.546 -9.05525 104.673 -14.9752 103.47 -20.8829C101.721 -29.4733 97.3898 -37.4353 93.9145 -45.4323C87.3817 -60.4646 81.3924 -75.4181 80.679 -92.0514C83.812 -89.631 86.4017 -85.409 89.1299 -82.4609C93.4581 -77.784 98.4365 -73.5372 103.41 -69.5684C106.401 -67.1819 111.718 -62.7553 115.858 -64.7169C117.544 -65.5153 118.433 -67.1356 119.575 -68.4938C119.769 -67.1822 119.193 -65.8546 119.101 -64.5263C118.854 -60.9329 118.739 -57.1798 119.404 -53.6154C120.042 -50.1906 121.248 -47.0186 122.859 -43.9445C123.589 -42.5502 124.95 -41.2321 125.393 -39.7289C125.893 -38.0357 125.52 -35.7827 125.52 -34.0255V-22.3708V-11.2119C125.52 -10.1889 125.932 -7.9884 125.266 -7.14606C124.716 -6.45153 122.632 -6.57302 121.804 -6.50048C118.806 -6.23766 115.561 -5.96544 112.638 -5.26058ZM119.691 -36.7532C119.058 -39.4946 115.68 -41.0078 113.392 -39.1352C111.721 -37.7684 111.354 -35.5308 111.909 -33.5296C112.673 -30.7741 116.079 -29.5643 118.29 -31.4362C119.775 -32.6936 120.112 -34.9307 119.691 -36.7532ZM117.409 -152.282C117.08 -153.813 114.364 -153.904 113.778 -152.524C113.047 -150.799 113.047 -144.644 113.778 -142.919C114.329 -141.62 116.805 -141.607 117.327 -142.941C117.64 -143.74 117.355 -144.778 117.346 -145.613C117.322 -147.667 117.834 -150.297 117.409 -152.282ZM117.445 -83.5868C117.015 -84.9937 114.439 -85.1081 113.813 -83.799C112.942 -81.9796 113.629 -78.4324 113.629 -76.4287C113.629 -75.6993 113.463 -74.6978 113.778 -74.0181C114.368 -72.7488 116.857 -72.9943 117.333 -74.224C117.66 -75.0685 117.37 -76.0505 117.349 -76.9246C117.301 -78.9122 118.017 -81.7127 117.445 -83.5868ZM117.097 -233.148C116.282 -233.299 115.206 -233.606 114.451 -233.103C113.534 -232.493 113.526 -229.087 114.274 -228.338C116.243 -226.367 117.097 -229.274 117.097 -230.668V-233.148ZM82.6609 -87.0913C82.7051 -81.7526 84.3752 -76.2965 85.9102 -71.221C88.8136 -61.6214 92.391 -52.8775 96.9662 -43.9439C99.262 -39.4608 101.234 -33.6726 104.462 -29.8094C105.075 -33.3785 104.71 -37.3416 104.71 -40.9682C104.71 -45.7235 105.043 -50.6244 104.534 -55.3506C104.26 -57.894 105.014 -60.866 103.946 -63.2858C103.039 -65.34 101.01 -67.078 99.5459 -68.7412C96.606 -72.0798 93.6628 -75.436 90.5983 -78.6602C88.148 -81.238 85.7492 -85.321 82.6609 -87.0913ZM104.215 -206.367C102.761 -205.63 101.827 -203.973 100.931 -202.647C98.8842 -199.618 97.0619 -196.434 95.3159 -193.224C90.5552 -184.473 84.9509 -174.937 82.5309 -165.203C81.544 -161.233 81.4494 -157.106 81.1525 -153.052C80.8526 -148.958 80.679 -144.759 80.679 -140.654C80.679 -139.719 80.2534 -137.339 81.0762 -136.693C82.1335 -135.863 86.0643 -136.756 87.368 -136.934C92.9479 -137.699 98.6248 -137.715 104.215 -138.422V-206.367ZM103.967 -132.222C98.7478 -130.979 92.4861 -131.456 87.1203 -131.221C85.971 -131.17 81.8878 -131.478 81.1813 -130.585C80.4308 -129.637 81.1173 -127.604 81.1647 -126.519C81.3173 -123.03 80.9267 -119.581 80.9267 -116.104C80.9267 -109.95 79.9399 -102.152 82.0136 -96.2663C84.2504 -89.9183 90.7897 -84.5005 96.039 -80.6405C98.4771 -78.8477 101.235 -75.9619 104.215 -75.1885V-114.12V-126.023L103.967 -132.222ZM42.0311 59.4611C45.5667 58.6185 49.7989 59.2131 53.4273 59.2131H75.7241C78.6872 59.2131 82.2475 59.7507 85.1383 59.0818C89.7636 58.0117 88.3925 53.2062 89.7472 50.0746C90.265 48.8777 91.8438 48.7887 92.3246 47.3104C92.8204 45.7863 92.7514 43.5547 92.0627 42.1029C91.6481 41.2291 90.5386 40.3979 90.5774 39.3752C90.6559 37.3076 92.8567 35.5193 93.0743 33.4238C93.3412 30.8551 90.0385 26.5303 88.9149 24.2489C88.5017 23.4099 88.0934 22.0529 87.2713 21.528C86.0103 20.7228 83.1306 21.2732 81.6699 21.2732H67.5486H14.0361H-1.57166C-3.02651 21.2732 -6.14876 20.6824 -7.3766 21.528C-8.21111 22.1027 -8.39208 23.6091 -8.73422 24.4968C-9.63157 26.8249 -12.3549 31.4509 -11.8434 33.9198C-11.4725 35.7101 -9.38872 37.4855 -9.39257 39.3044C-9.39406 40.1203 -10.3902 40.9139 -10.7582 41.607C-11.5021 43.0078 -11.7169 45.0233 -11.3495 46.5665C-10.9646 48.1828 -9.51762 48.6779 -8.88352 50.0488C-7.50753 53.0237 -7.94551 56.8393 -4.54457 58.6481C-1.82891 60.0924 2.85651 59.2131 5.86063 59.2131H29.8917C32.7042 59.2131 37.6867 58.2381 40.2602 59.3627C41.3435 59.8361 41.0401 61.4855 41.0401 62.4367C41.0401 64.129 41.3783 66.2429 40.9336 67.8824C40.6062 69.0898 39.3228 69.9388 40.1281 71.3072C40.8795 72.5839 42.6262 71.9443 42.8336 70.6187C42.9894 69.6231 42.2277 68.6475 42.1584 67.6442C41.9772 65.0209 42.5794 61.985 42.0311 59.4611ZM61.6028 -326.634C67.517 -326.634 73.513 -326.527 79.4403 -326.382C81.8909 -326.322 84.8865 -325.455 87.1165 -326.88C91.0107 -329.369 89.6526 -335.453 89.8688 -339.277C89.9771 -341.193 92.428 -342.541 92.744 -344.736C92.9453 -346.134 92.8104 -348.012 91.876 -349.144C91.3481 -349.783 90.3425 -349.967 89.9948 -350.743C88.6419 -353.761 89.8189 -357.652 86.1293 -359.501C84.4438 -360.346 81.7777 -359.862 79.9357 -359.862H66.3099H17.2568H2.39223C0.358531 -359.862 -2.45032 -360.364 -4.29665 -359.386C-7.93456 -357.459 -7.16345 -353.731 -8.76288 -350.697C-9.84861 -348.637 -11.6742 -347.954 -11.4068 -345.232C-11.1659 -342.779 -8.96264 -341.241 -8.77071 -339.032C-8.47253 -335.602 -9.64444 -331.215 -7.64651 -328.144C-5.3031 -324.542 2.84323 -326.138 6.60386 -326.138C10.3372 -326.138 15.6321 -325.158 19.202 -326.217C20.5528 -326.617 19.9786 -328.73 21.72 -329.057C24.1237 -329.509 26.9509 -329.113 29.3962 -329.113H44.7563H57.3911C59.2926 -329.113 61.2593 -328.855 61.6028 -326.634ZM78.9448 31.1922L86.3771 22.7611H86.8725C88.7629 26.7542 92.8893 31.6086 90.776 35.9037C89.9934 37.4942 89.427 39.9079 87.1425 39.2965C86.0636 39.0077 85.1645 37.6935 84.4408 36.9053C82.666 34.9723 80.9294 32.9105 78.9448 31.1922ZM91.4944 -346.967C91.8754 -345.119 91.324 -342.4 89.349 -341.662C88.0153 -341.163 86.0524 -341.512 84.6429 -341.512C80.9144 -341.512 76.9448 -341.878 73.2467 -341.441C66.3799 -340.63 59.1056 -341.264 52.1885 -341.264H12.0542C8.445 -341.264 4.75398 -341.489 1.15352 -341.242C-1.51044 -341.059 -5.11291 -340.37 -7.72316 -341.095C-9.16752 -341.496 -9.97011 -343.391 -10.1681 -344.736C-10.3564 -346.015 -10.2535 -347.739 -8.97793 -348.449C-7.73599 -349.139 -5.43498 -348.703 -4.04908 -348.703H7.84257H69.0351H86.1293C87.9667 -348.703 90.9995 -349.367 91.4944 -346.967ZM91.4858 44.8307C91.5487 45.8564 91.3533 47.4002 90.2941 47.8702C88.915 48.4822 86.6261 48.0543 85.1383 48.0543H72.9989H11.8064H-5.04007C-7.03037 48.0543 -10.0033 48.5578 -10.2283 45.8225C-10.3669 44.138 -10.1594 41.8204 -8.48534 40.9075C-7.19621 40.2044 -4.98156 40.6151 -3.55362 40.6151H8.09031H69.5305H82.4132C84.3523 40.6151 86.7202 40.248 88.6067 40.719C90.4663 41.1832 91.3764 43.0478 91.4858 44.8307ZM88.8545 -350.191H23.6981H3.13546L-7.26974 -349.943C-7.94677 -352.627 -6.01817 -357.396 -3.3049 -358.347C-1.65155 -358.927 0.416218 -358.622 2.14448 -358.622H12.7976H68.0442H81.1746C82.9633 -358.622 85.1641 -358.917 86.5783 -357.574C88.6335 -355.622 88.2602 -352.69 88.8545 -350.191ZM84.643 -327.378L84.3953 -340.024H88.6069C88.9363 -335.846 89.9836 -328.621 84.643 -327.378ZM-7.76508 49.5421L-7.51733 49.2942L6.35626 49.5421H32.617H68.5397L88.3591 49.2942C89.0091 51.6602 88.112 56.3854 85.6118 57.475C84.1571 58.1089 81.9897 57.7228 80.4314 57.7253H69.2829H12.0544C8.34804 57.7253 4.60856 57.5809 0.905925 57.7438C-0.999022 57.8276 -3.19552 58.1834 -4.78146 56.8835C-6.81484 55.217 -7.29259 51.9794 -7.76508 49.5421ZM85.8817 22.761L78.6972 30.4482H78.2017L71.2649 22.761L81.1746 22.5129L85.8817 22.761ZM85.8817 39.3752H70.7694C72.305 36.4918 76.0403 33.0654 78.6972 31.1921L85.8817 39.3752ZM-3.8012 -315.723V-307.044H19.2389H66.31H79.4404L84.2458 -307.13L84.643 -309.028L84.4935 -315.358L79.4404 -315.723H63.3371H-3.8012ZM84.3953 -289.19C76.8373 -290.615 69.1631 -291.403 61.6029 -292.814C59.8412 -293.143 58.5665 -294.724 56.8958 -294.964C52.6798 -295.568 47.7983 -294.893 43.5177 -294.893C37.1746 -294.893 30.5073 -295.496 24.1937 -294.867C22.3959 -294.688 21.0198 -293.216 19.2389 -292.827C12.0277 -291.25 3.80878 -289.263 -3.55345 -288.942L-3.55345 -237.611C-3.55345 -229.214 -4.30451 -220.427 -3.52766 -212.07C-3.26103 -209.202 -2.1259 -206.272 -1.57613 -203.433C0.373399 -193.364 3.0558 -183.364 4.69181 -173.243C5.64973 -167.317 5.3607 -161.025 5.62277 -155.036C6.07107 -144.789 6.40555 -134.563 6.35606 -124.287C6.28694 -109.945 6.43833 -95.1684 5.07546 -80.8918C3.31961 -62.4984 -1.92285 -44.4701 -3.75896 -26.0897C-4.7534 -16.135 -3.80119 -5.59813 -3.80119 4.4111C3.98688 5.41769 11.6524 7.32971 19.4867 8.08859C26.2924 8.74785 33.4572 8.13099 40.297 8.13099C47.7315 8.13099 55.453 8.71593 62.8416 7.92417C68.0866 7.36214 73.2744 6.58638 78.4494 5.55211C79.8938 5.26347 82.9076 5.26504 83.9919 4.19885C84.8603 3.34498 84.3953 0.357171 84.3953 -0.796054V-15.1785C84.3953 -36.073 78.8812 -57.0275 75.8286 -77.6678C75.072 -82.7841 75.1965 -87.8935 74.9713 -93.0422C74.458 -104.776 74.2567 -116.487 74.2378 -128.254C74.22 -139.307 74.2028 -150.433 74.9589 -161.483C75.2396 -165.586 74.9212 -169.805 75.5499 -173.882C77.0738 -183.761 80.1813 -193.656 82.4714 -203.39C83.0631 -205.905 84.0425 -208.517 84.3496 -211.078C85.1869 -218.059 84.3953 -225.616 84.3953 -232.651C84.3953 -251.425 83.5062 -270.443 84.3953 -289.19ZM83.8998 -327.377L81.1746 -327.625V-327.873H83.6521V-339.776H72.7514L81.1746 -340.272L83.8222 -339.697L83.8998 -336.056V-327.377ZM-3.30568 -307.539V-315.227H84.1475C84.1475 -313.581 84.9251 -309.241 83.8929 -307.937C83.1361 -306.98 79.8184 -307.539 78.6972 -307.539H62.8416H-3.30568ZM83.7381 -355.394C82.813 -358.255 74.1053 -357.845 75.3708 -353.415C76.2699 -350.268 85.2868 -350.604 83.7381 -355.394ZM83.4213 -345.714C83.0008 -347.266 80.7753 -346.532 81.3289 -344.998C81.848 -343.559 83.7999 -344.316 83.4213 -345.714ZM83.4681 52.7771C82.9104 51.4073 81.4129 51.5268 80.1836 51.5264C77.699 51.5256 73.9131 51.7999 75.4127 55.483C76.0021 56.9308 77.6631 56.7337 78.9449 56.7338C81.4533 56.7339 84.9372 56.3855 83.4681 52.7771ZM83.2967 -354.899C84.2588 -351.443 76.4379 -351.432 75.8326 -353.668C74.8772 -357.199 82.6642 -357.171 83.2967 -354.899ZM83.2192 44.1428C82.5665 42.6835 80.807 43.9951 81.3279 45.2893C81.9314 46.7886 83.8311 45.5107 83.2192 44.1428ZM83.2774 53.7581C83.8579 57.1794 76.2357 57.2588 75.781 54.745C75.1391 51.1963 82.8549 51.2685 83.2774 53.7581ZM83.1565 -212.319H82.9088L67.2528 -263.153L61.3896 -282.247L58.3823 -292.414C63.7978 -290.294 70.4581 -289.971 76.2197 -289.158C77.6439 -288.957 81.9938 -288.958 82.9019 -287.801C83.7098 -286.772 83.1565 -283.762 83.1565 -282.495V-268.113V-212.319ZM83.0491 -25.6204C82.9967 -24.3 80.693 -23.3291 79.6881 -22.775C75.9169 -20.6955 71.9965 -19.2202 67.7965 -18.2981C58.5114 -16.2597 48.5172 -17.1635 39.0583 -17.1635C31.2122 -17.1635 22.7375 -16.3205 15.0273 -18.0127C10.3446 -19.0403 5.68188 -20.4464 1.40139 -22.6456C0.057895 -23.3359 -2.49202 -24.0438 -2.52577 -25.8435C-2.59704 -29.6447 -1.28976 -33.7544 -0.68912 -37.4973C0.809222 -46.8347 2.43446 -56.1615 3.81153 -65.5183C4.29907 -68.8308 4.90583 -72.1199 5.36529 -75.4372C5.50549 -76.4495 5.51411 -78.6995 6.29242 -79.4203C7.10269 -80.1707 9.02262 -80.306 10.0724 -80.5395C13.2588 -81.2478 16.4938 -82.0307 19.7344 -82.419C25.9621 -83.1653 32.2938 -82.8764 38.5628 -82.8764C45.3226 -82.8764 52.1419 -83.1233 58.8777 -82.6506C62.7819 -82.3767 66.4772 -81.457 70.2739 -80.559C71.3977 -80.2932 73.4511 -80.2915 74.1971 -79.2784C74.9221 -78.2937 74.8573 -76.3673 75.0774 -75.1893C75.7365 -71.6606 76.2359 -68.0734 76.7833 -64.5264C78.1486 -55.6779 79.5553 -46.8228 81.0347 -37.9932C81.6829 -34.124 83.2044 -29.5354 83.0491 -25.6204ZM-2.56249 3.41835C-3.79688 -3.23713 -2.81023 -10.8898 -2.81023 -17.6594C-2.81023 -19.6434 -2.43411 -21.9296 -2.81023 -23.8588C-0.452411 -24.0164 2.87228 -21.3782 5.11753 -20.4864C10.2545 -18.4461 15.4855 -17.2324 20.9731 -16.7096C28.9159 -15.953 37.2701 -16.6672 45.2519 -16.6672C52.0546 -16.6672 59.3655 -15.946 66.0623 -17.3283C69.8007 -18.0999 73.5141 -19.1753 76.963 -20.8292C78.9845 -21.7986 81.0147 -23.5504 83.1565 -24.1064V-4.26856C83.1565 -2.6207 83.9268 1.67185 82.9019 2.99023C82.035 4.10536 78.7731 4.09787 77.4584 4.36099C72.0112 5.45128 66.4179 6.50929 60.8597 6.64594C48.2067 6.9569 35.1096 7.73533 22.4595 6.86807C14.0838 6.29391 5.7781 3.77692 -2.56249 3.41835ZM82.1656 -212.566C75.0044 -215.191 68.941 -220.4 61.3552 -222.227C55.8252 -223.559 49.4266 -222.733 43.7654 -222.733C35.2634 -222.733 25.4657 -224.091 17.2569 -221.633C10.3282 -219.557 4.7118 -215.067 -1.81926 -212.318C-0.947172 -218.769 2.28287 -225.724 4.35558 -231.908C8.60019 -244.573 12.3313 -257.412 16.5139 -270.096C18.3346 -275.618 20.1274 -281.15 21.8241 -286.71C22.521 -288.994 23.5967 -291.287 23.946 -293.654H38.5628C38.5006 -292.225 37.1232 -289.723 37.7732 -288.456C39.4986 -285.092 44.5918 -284.619 45.8225 -288.704C46.2053 -289.974 45.1481 -292.18 44.7564 -293.406L54.1706 -293.654L57.4274 -293.079L59.746 -285.966L64.9287 -269.104L77.1415 -229.429L82.1656 -212.566ZM79.9359 -213.062C75.5376 -213.501 71.2611 -215.315 66.8055 -215.748C60.2315 -216.387 53.582 -215.88 46.9861 -216.042C36.6303 -216.295 25.8434 -217.26 15.5227 -216.244C10.3512 -215.735 5.44193 -213.969 0.410436 -212.814V-213.062C6.86406 -217.016 14.1666 -220.934 21.7163 -222.157C29.0065 -223.338 37.3642 -222.237 44.7564 -222.237C49.4173 -222.237 54.5125 -222.821 59.1255 -222.163C63.6736 -221.514 67.8951 -219.259 72.0081 -217.354C74.6028 -216.153 77.7297 -214.892 79.9359 -213.062ZM70.5217 38.3829L70.5217 23.2565L76.2197 28.712L77.7257 30.9437L75.972 33.1754L70.5217 38.3829ZM77.3533 -46.672C76.3337 -54.4447 74.8682 -62.1131 72.9677 -69.7336C72.4953 -71.628 72.3088 -76.1116 70.8686 -77.4562C70.051 -78.2195 68.1159 -78.296 67.0533 -78.5118C63.8657 -79.1588 60.6632 -79.8992 57.3913 -79.9004H23.6983C20.285 -79.9004 16.8963 -79.3716 13.5408 -78.7658C12.513 -78.5803 10.5445 -78.6032 9.80843 -77.7707C9.10909 -76.9797 9.03847 -75.4381 8.83294 -74.4451C8.31819 -71.9582 7.69771 -69.4817 7.12893 -67.0059C5.11474 -58.2382 3.38335 -49.4855 3.38335 -40.4726C3.38335 -38.174 3.03485 -35.5616 3.42006 -33.296C3.70687 -31.609 7.57133 -32.5375 8.8337 -32.5375H26.1757H64.5758C67.7113 -32.5375 70.8555 -32.6067 73.9901 -32.5375C74.8343 -32.5182 76.5669 -31.97 77.2038 -32.7313C77.8447 -33.4974 77.4585 -35.5654 77.4585 -36.5087C77.4585 -39.8407 77.7868 -43.3708 77.3533 -46.6757M74.2378 -81.144L58.8778 -84.1099L37.3241 -84.1196L21.9641 -84.0772L6.10853 -81.1436L6.61376 -90.5667L7.10045 -108.669L7.33748 -145.369L5.86077 -173.142L19.7344 -175.103L37.8196 -175.126L60.3642 -175.116L74.2378 -173.142L73.0027 -141.153L73.4909 -104.701L74.2378 -81.144ZM72.0081 -339.78H70.7694V-340.028L72.0081 -339.78ZM70.2739 -338.292H10.0724V-339.78L70.2739 -340.028V-338.292ZM70.1233 -337.222C70.9047 -335.562 68.7792 -335.565 67.7965 -335.565H58.1345H21.7163H13.0453C12.2603 -335.565 10.6844 -335.266 10.2575 -336.139C9.50621 -337.676 11.3119 -337.794 12.3021 -337.796H20.9731H57.1435H66.8055C67.6513 -337.796 69.6762 -338.171 70.1233 -337.222ZM10.0724 -335.069H70.2739L69.8767 -333.092L66.8055 -332.837H59.1255H22.7073H13.7885L10.4696 -333.092L10.0724 -335.069ZM70.2739 -327.878H62.5939C61.2499 -331.276 56.8729 -330.605 53.9229 -330.605H28.1576C25.0514 -330.605 19.7367 -331.749 18.9911 -327.63L10.3201 -327.382C10.0446 -328.315 9.5637 -331.391 10.4723 -332.09C11.2134 -332.66 12.9059 -332.341 13.7885 -332.341H22.2118H58.63H67.0533C67.8339 -332.341 69.466 -332.643 70.0193 -331.943C70.6882 -331.098 70.2739 -328.911 70.2739 -327.878ZM69.5307 27.7165C66.163 28.7129 61.6473 27.9645 58.1345 27.9645C58.0982 24.8959 53.9858 25.9807 51.6932 25.9807H30.3873C28.0025 25.9807 22.9927 24.7811 22.955 27.9645H10.8156L11.0703 22.9067L14.7795 22.509H25.1847H69.2829L69.5307 27.7165ZM69.5307 35.8997H55.4093H26.9189L11.0634 36.1476L10.8156 28.4604H22.955C23.1598 31.1468 27.4124 30.1963 29.3963 30.1963H50.7022C52.7808 30.1963 57.9216 31.2541 58.1345 28.4604H66.31L69.2761 28.8581L69.5307 35.8997ZM69.5307 39.1233L63.0894 39.3713H50.95H10.8156V36.6436H55.6571H65.5668L69.1333 36.8984L69.5307 39.1233ZM61.4978 -152.808C61.0802 -155.953 60.1093 -158.851 57.1435 -160.487C54.6948 -161.837 51.9097 -161.487 49.2158 -161.487L34.3512 -161.487C30.5697 -161.487 25.4709 -162.417 22.2118 -160.089C17.8426 -156.968 18.4957 -151.314 18.4957 -146.609C18.4957 -144.662 18.2945 -142.587 18.57 -140.658C20.108 -129.883 32.3156 -132.474 40.297 -132.474C45.0227 -132.474 52.3164 -131.107 56.6481 -133.159C63.0542 -136.194 62.2827 -146.897 61.4978 -152.808ZM61.0367 -152.808C61.7104 -147.17 62.596 -136.85 56.6481 -133.843C52.227 -131.607 44.9048 -132.97 40.0493 -132.97C33.5644 -132.97 20.511 -130.445 19.2836 -139.666C18.5345 -145.294 17.2223 -156.161 22.7494 -159.694C25.955 -161.742 30.4827 -160.991 34.1035 -160.991H47.4816C54.0507 -160.991 60.0863 -160.762 61.0367 -152.808ZM57.3913 29.7003H23.6983L23.4505 26.7247L34.3512 26.4767H57.3913V29.7003ZM55.1545 -346.291C54.2289 -347.426 52.5791 -345.698 53.5771 -344.604C54.5984 -343.485 55.9417 -345.325 55.1545 -346.291ZM55.2216 44.1396C54.6003 42.702 52.6022 43.9752 53.2473 45.2861C53.9727 46.7601 55.8124 45.5067 55.2216 44.1396ZM46.7383 -101.23C44.138 -99.9615 41.878 -96.199 39.9786 -94.0384C39.0708 -93.0059 38.0997 -92.2045 37.8196 -90.8148L43.5186 -97.1569L46.7383 -101.23ZM39.8015 -293.161H43.7654C44.056 -291.893 45.0849 -289.926 44.3494 -288.701C43.0323 -286.507 39.7532 -286.397 39.0031 -289.197C38.6902 -290.365 39.54 -292.019 39.8015 -293.161ZM27.4226 -345.483C27.3348 -346.907 25.2581 -346.964 25.2581 -345.483C25.2581 -343.9 27.5235 -343.847 27.4226 -345.483ZM27.2267 44.1394C26.5948 42.6714 24.5886 43.9247 25.2744 45.2859C26.0137 46.7535 27.8106 45.4959 27.2267 44.1394ZM23.4505 -292.665L20.2228 -282.994L14.3473 -264.644L-2.06699 -213.314H-2.31474L-2.31474 -266.628V-281.259C-2.31474 -282.876 -2.90137 -285.898 -2.16525 -287.35C-1.5792 -288.507 2.43006 -288.551 3.63109 -288.76C8.74738 -289.649 13.8512 -290.714 18.9911 -291.458C20.3856 -291.66 22.1527 -293.02 23.4505 -292.665ZM9.82467 38.8753C7.41912 37.7525 5.72345 35.0252 3.87884 33.1719C3.31839 32.6089 2.2143 31.8186 2.19223 30.9412C2.16934 30.0305 3.35806 29.1801 3.93103 28.5971C5.60051 26.8983 7.53032 23.7428 9.82467 23.005V38.8753ZM9.57692 -327.63L-2.56248 -327.382C-3.55792 -330.752 -2.81022 -335.272 -2.81022 -338.788H-2.56248V-327.878C0.853378 -327.878 6.44248 -328.946 9.57692 -327.63ZM8.83369 23.005C6.54789 25.293 4.0997 29.0691 1.15366 30.4443L-5.78313 22.7571L4.86981 22.509L8.83369 23.005ZM8.83369 39.3713H-6.03088C-4.96684 37.0875 -0.560971 32.1266 1.89689 31.4361L8.83369 39.3713ZM5.20262 -355.154C4.26276 -358.234 -4.62526 -357.959 -3.24645 -353.42C-2.30109 -350.308 6.55129 -350.734 5.20262 -355.154ZM4.93364 53.011C3.79505 50.0712 -4.94571 50.6669 -3.34183 55.237C-2.32311 58.1397 6.73208 57.6542 4.93364 53.011ZM4.63716 -353.672C4.21143 -351.529 -3.43192 -351.3 -2.75346 -354.896C-2.32096 -357.188 5.34179 -357.218 4.63716 -353.672ZM4.49456 53.2723C5.75478 57.1758 -2.12987 57.2879 -2.85515 54.9792C-4.03073 51.2371 3.86159 51.3118 4.49456 53.2723ZM-34.2736 -291.921H-34.5213L-35.5123 -280.019C-37.6385 -281.23 -42.8843 -281.971 -44.1764 -284.054C-44.8396 -285.124 -44.2437 -286.795 -44.1931 -287.954C-44.0649 -290.882 -43.3013 -295.99 -44.7786 -298.593C-46.3197 -301.31 -50.7509 -300.552 -53.3498 -300.923C-54.6488 -301.108 -55.826 -301.518 -56.9906 -300.631C-58.5597 -299.435 -58.902 -296.732 -59.0479 -294.897L-65.7369 -291.511L-67.8171 -289.857L-67.9666 -284.482V-271.588C-52.7856 -269.657 -41.0625 -258.045 -43.5488 -242.079C-44.7752 -234.203 -49.1886 -227.695 -56.3227 -224.004C-59.1171 -222.558 -61.9422 -221.718 -64.9937 -221.031C-65.8515 -220.837 -67.5749 -220.974 -67.8879 -219.952C-68.9687 -216.424 -67.9666 -211.064 -67.9666 -207.362V-179.093V-85.8553C-60.8522 -84.3855 -54.1209 -81.4313 -49.1804 -75.9364C-41.8235 -67.754 -41.0297 -54.0053 -48.5232 -45.6128C-52.0475 -41.6657 -56.3888 -38.9776 -61.2776 -37.0549C-62.6182 -36.5276 -67.2025 -35.965 -67.8171 -34.6949C-68.83 -32.6017 -67.8271 -28.5928 -67.7286 -26.3417C-67.4412 -19.772 -68.5546 -13.0203 -67.9246 -6.50382C-67.6924 -4.1023 -66.8298 -2.27642 -64.4982 -1.30114C-63.1967 -0.756742 -61.4333 -0.644122 -60.3653 0.35236C-58.7524 1.85739 -59.4879 4.18022 -57.0659 5.50856C-54.3655 6.98956 -48.5722 6.75878 -46.5711 4.14561C-44.7006 1.7031 -44.2448 -2.52905 -44.1833 -5.51187L-33.0349 -4.02403L-34.0258 3.66311C-26.8093 7.70922 -24.4815 -5.45429 -23.4595 -9.9754C-22.3189 -15.021 -22.0144 -20.459 -20.2914 -25.3498C-14.6728 -41.2985 -5.01939 -56.0409 -1.57077 -72.7128C2.65345 -93.1341 2.67199 -113.499 2.6401 -134.21C2.62226 -145.788 3.52066 -158.722 0.0546759 -169.918C-0.929597 -173.098 -2.85534 -176.097 -4.29058 -179.093C-7.31001 -185.396 -10.2781 -191.757 -13.537 -197.939C-16.8318 -204.19 -20.2371 -210.074 -21.7813 -217.033C-27.22 -241.545 -21.7932 -269.113 -34.2736 -291.921ZM-44.6788 -137.682L-44.431 -146.361V-162.479V-214.306C-38.7219 -214.306 -33.0864 -213.79 -27.5845 -212.179C-25.5037 -211.57 -22.9333 -210.997 -21.2112 -209.603C-20.0636 -208.673 -19.5147 -206.669 -18.8495 -205.379C-17.268 -202.312 -15.5986 -199.291 -14.0573 -196.204C-11.4203 -190.921 -8.84926 -185.612 -6.21211 -180.333C-4.45666 -176.819 -2.22831 -173.176 -1.04833 -169.422C0.0904104 -165.8 0.34445 -162.006 0.700226 -158.264C1.25121 -152.468 1.26295 -146.724 1.40502 -140.905C1.44092 -139.436 2.39575 -135.844 1.39373 -134.608C0.854811 -133.943 -0.59581 -134.429 -1.32379 -134.455C-3.96598 -134.552 -6.61107 -134.828 -9.25157 -134.944C-17.3135 -135.298 -25.2562 -136.379 -33.2826 -137.144C-36.8912 -137.488 -41.2147 -136.657 -44.6788 -137.682ZM-44.6788 -135.946C-41.7193 -136.651 -38.2681 -135.926 -35.2646 -135.72C-27.285 -135.173 -19.236 -133.766 -11.2335 -133.714C-8.15245 -133.694 -4.88095 -133.509 -1.81928 -133.147C-1.02516 -133.054 0.583817 -133.229 1.21748 -132.715C1.93131 -132.137 1.64912 -130.551 1.64912 -129.747V-121.812C1.64912 -116.077 1.41329 -110.413 1.16338 -104.701C1.03519 -101.771 1.44151 -97.8013 0.455527 -95.0304C-0.392884 -92.646 -2.5443 -90.4752 -4.15488 -88.5831C-10.289 -81.3765 -17.4485 -74.5959 -25.1071 -69.0309C-27.7541 -67.1075 -32.2708 -64.0235 -35.5087 -66.3919C-38.3996 -68.5065 -39.7232 -73.3709 -41.4012 -76.4324C-42.249 -77.9792 -44.02 -79.4719 -44.5096 -81.1475C-44.874 -82.3945 -44.4311 -84.0589 -44.4311 -85.3594V-95.5263V-122.555C-44.4311 -126.793 -43.6974 -131.82 -44.6788 -135.946ZM-8.01285 39.3713L-10.5895 33.6679L-9.57825 30.1963L-6.77413 22.7571C-4.67994 24.2336 -3.12622 26.4069 -1.32379 28.2125C-0.690935 28.8465 0.564554 29.7327 0.677658 30.6922C0.789068 31.6374 -0.434674 32.5375 -1.00168 33.1488C-2.8055 35.0934 -5.29963 38.9523 -8.01285 39.3713ZM-23.3729 -206.37V-138.426L0.162663 -136.442C0.162663 -146.111 0.576419 -156.507 -1.79329 -165.951C-3.93902 -174.502 -8.97466 -183.041 -13.139 -190.748C-15.1769 -194.52 -17.1831 -198.314 -19.5317 -201.907C-20.5725 -203.499 -21.6654 -205.438 -23.3729 -206.37ZM-32.7871 2.91919C-32.5675 1.17953 -31.1093 -3.44565 -32.0544 -4.93713C-32.6121 -5.81719 -34.5931 -5.68789 -35.5123 -5.79836C-38.5711 -6.16593 -41.6229 -6.61317 -44.6788 -6.99971L-44.6788 -28.8214C-44.6788 -32.1788 -45.3066 -36.2444 -44.5838 -39.5264C-44.0245 -42.0658 -41.3514 -44.6517 -40.3316 -47.1714C-37.671 -53.7456 -37.2099 -61.6492 -38.9807 -68.4972C-36.9651 -67.3532 -36.4335 -64.8292 -33.7781 -64.3632C-29.6003 -63.6299 -25.3895 -67.3467 -22.3819 -69.7364C-17.3765 -73.7132 -12.3877 -77.9284 -8.05127 -82.6414C-5.60845 -85.2964 -2.89735 -90.0069 0.162663 -91.8067C-0.185272 -74.9372 -6.91637 -59.6368 -13.4313 -44.4438C-16.8822 -36.396 -21.1062 -28.5622 -22.726 -19.8944C-23.8428 -13.9183 -24.7361 -7.76782 -26.8547 -2.0403C-27.9118 0.817624 -29.4733 3.31064 -32.7871 2.91919ZM-23.3729 -131.978V-75.1925C-20.1224 -75.84 -16.7355 -79.3635 -14.2064 -81.3918C-9.412 -85.237 -3.59544 -89.883 -1.26454 -95.7743C1.09028 -101.726 -0.0850878 -109.824 -0.0850878 -116.108C-0.0850878 -119.5 -0.326368 -122.892 -0.205504 -126.271C-0.166039 -127.376 0.389895 -129.667 -0.339711 -130.589C-1.03713 -131.47 -5.14388 -131.203 -6.27866 -131.231C-11.9823 -131.373 -17.6586 -131.978 -23.3729 -131.978ZM-0.835393 -346.149C-1.67375 -347.405 -3.24353 -345.961 -2.55448 -344.778C-1.72015 -343.344 -0.0152254 -344.92 -0.835393 -346.149ZM-0.83985 44.1197C-1.66425 42.6247 -3.51116 44.1828 -2.69334 45.4918C-1.87918 46.7949 -0.170714 45.3332 -0.83985 44.1197ZM-1.81935 -87.0952C-3.74855 -85.9665 -5.25939 -83.5217 -6.78031 -81.8878C-10.5755 -77.8107 -14.3214 -73.6791 -17.9932 -69.4891C-19.6468 -67.602 -22.4958 -65.2401 -23.2468 -62.7938C-24.2597 -59.4947 -23.6207 -55.2979 -23.6207 -51.883V-30.0613C-22.277 -31.2172 -21.6172 -33.206 -20.8288 -34.7728C-19.4901 -37.4336 -18.0806 -40.0866 -16.664 -42.7079C-11.5888 -52.0998 -7.66402 -61.7046 -4.75747 -71.9688C-3.37089 -76.8654 -1.81935 -81.9827 -1.81935 -87.0952ZM-7.51744 -339.78C-6.56845 -339.78 -4.21355 -340.208 -3.56043 -339.383C-3.07993 -338.775 -3.30581 -337.526 -3.30581 -336.805V-330.357C-3.30581 -329.649 -3.07447 -328.372 -3.56043 -327.783C-4.22279 -326.98 -5.6963 -327.907 -6.22577 -328.429C-7.79786 -329.979 -7.51744 -332.56 -7.51744 -334.573V-339.78ZM-21.6388 -211.33C-27.0594 -213.556 -32.4278 -214.784 -38.2376 -215.475C-40.3475 -215.726 -42.6363 -215.395 -44.6789 -215.793C-43.9488 -218.863 -45.3686 -222.549 -44.4663 -225.464C-43.7939 -227.637 -41.6927 -229.55 -40.7222 -231.664C-38.2243 -237.104 -37.3566 -243.064 -37.7642 -249.022C-38.052 -253.227 -39.0079 -257.692 -41.0401 -261.421C-42.0799 -263.328 -44.0266 -265.109 -44.7463 -267.124C-45.2624 -268.569 -44.9266 -270.565 -44.9266 -272.084V-282.25L-34.0259 -278.531L-33.7782 -287.458L-31.5839 -282.746L-28.2659 -268.612L-25.0653 -233.152L-23.4686 -219.513L-21.6388 -211.33ZM-33.0418 -152.882C-33.7845 -153.866 -35.8741 -153.659 -36.3539 -152.527C-37.1639 -150.616 -36.5034 -147.189 -36.5034 -145.121C-36.5034 -144.388 -36.72 -143.192 -36.2487 -142.568C-35.5061 -141.584 -33.4165 -141.791 -32.9367 -142.922C-32.1267 -144.833 -32.7872 -148.26 -32.7872 -150.328C-32.7872 -151.061 -32.5705 -152.258 -33.0418 -152.882ZM-33.0418 -84.0129C-33.7063 -84.993 -35.8551 -84.9285 -36.3539 -83.8151C-37.2092 -81.9059 -36.5035 -78.271 -36.5034 -76.1843C-36.5033 -75.4732 -36.6757 -74.4331 -36.2487 -73.8122C-35.6176 -72.8944 -33.4079 -72.9632 -32.9367 -74.0093C-32.0792 -75.9129 -32.7871 -79.5574 -32.7872 -81.6398C-32.7873 -82.3549 -32.6173 -83.3868 -33.0418 -84.0129ZM-33.0351 -233.152C-33.8502 -233.303 -34.9266 -233.61 -35.6816 -233.107C-36.577 -232.511 -36.5992 -229.145 -35.9637 -228.341C-34.2036 -226.117 -33.0352 -229.39 -33.0351 -230.672V-233.152ZM-58.0572 -217.281C-58.0572 -218.425 -58.4799 -220.616 -57.8025 -221.587C-56.9564 -222.799 -54.3586 -223.573 -53.1023 -224.397C-50.5455 -226.073 -48.1461 -228.348 -46.4733 -230.92C-40.5478 -240.027 -40.3941 -253.738 -47.284 -262.412C-50.2556 -266.154 -54.1383 -268.453 -58.3049 -270.595L-58.0572 -274.563C-50.4038 -272.389 -44.0905 -267.25 -40.7924 -259.932C-33.9157 -244.675 -40.1512 -221.429 -58.0572 -217.281ZM-58.0572 -31.3009C-58.0572 -32.79 -58.5454 -35.3019 -57.9077 -36.6595C-57.4546 -37.624 -55.7114 -38.1905 -54.8365 -38.7056C-52.959 -39.8111 -51.1921 -41.1899 -49.6339 -42.7113C-45.3456 -46.8982 -42.2314 -52.4345 -42.2018 -58.578C-42.1678 -65.6466 -43.8342 -71.7431 -48.5783 -77.1536C-50.2304 -79.0377 -52.2249 -80.6555 -54.341 -81.9891C-55.3432 -82.6207 -57.1544 -83.1946 -57.8025 -84.2159C-58.436 -85.214 -58.0572 -87.1895 -58.0572 -88.3348C-55.5025 -87.7275 -53.0408 -86.1382 -50.8726 -84.6976C-32.0642 -72.2014 -34.8359 -37.5292 -58.0572 -31.3009ZM-45.074 -246.294C-45.2722 -251.783 -47.2073 -257.433 -51.1624 -261.378C-58.6553 -268.851 -70.9197 -267.552 -76.9424 -258.941C-80.1757 -254.318 -81.0821 -249.097 -80.8398 -243.566C-80.7242 -240.927 -79.8898 -238.263 -78.7909 -235.879C-77.7844 -233.696 -76.3264 -231.61 -74.5472 -229.991C-72.9045 -228.496 -71.025 -227.246 -68.9578 -226.412C-56.1321 -221.236 -44.6269 -233.91 -45.074 -246.294ZM-58.0572 -214.057V-216.785C-52.7424 -218.016 -49.4241 -221.724 -45.1745 -224.72L-45.1708 -218.273L-45.1911 -215.943L-48.3951 -215.402L-58.0572 -214.057ZM-44.9267 -137.682L-58.0571 -135.946V-212.818L-45.1745 -214.305V-163.223V-146.857L-44.9267 -137.682ZM-45.4222 -81.6395C-47.719 -84.2752 -50.8022 -86.1702 -53.8455 -87.8189C-54.8693 -88.3736 -57.397 -89.0933 -57.9076 -90.1682C-59.0148 -92.4991 -58.0571 -97.4029 -58.0571 -99.9895V-124.043V-131.482C-58.0571 -132.257 -58.3158 -133.658 -57.8025 -134.308C-57.3014 -134.943 -55.5902 -134.917 -54.8365 -135.049C-51.9122 -135.563 -47.8469 -136.44 -44.9267 -135.946L-45.1745 -122.555V-96.022L-45.1737 -86.103L-45.4222 -81.6395ZM-45.2808 -63.2895C-45.736 -66.4712 -46.6791 -69.4601 -48.3519 -72.2165C-54.0152 -81.5482 -66.58 -83.8642 -74.6525 -76.1619C-79.6212 -71.421 -81.7323 -63.8097 -80.7753 -57.0901C-80.3602 -54.1759 -79.4065 -51.1708 -77.8607 -48.659C-76.5544 -46.5364 -74.912 -44.6862 -72.9219 -43.1787C-71.3716 -42.0044 -69.5821 -41.0525 -67.7193 -40.4856C-54.0641 -36.3302 -43.4765 -50.678 -45.2808 -63.2895ZM-58.0573 -30.8049C-52.7069 -32.0769 -49.4369 -35.9829 -45.1747 -38.988C-45.1747 -28.6562 -45.1251 -18.3231 -45.1749 -7.99137C-45.19 -4.83908 -45.304 1.56244 -47.9937 3.73097C-50.0269 5.3702 -57.1426 5.952 -57.9786 2.67035C-58.7832 -0.487969 -58.0573 -4.72853 -58.0573 -7.99137L-58.0573 -30.8049ZM-45.4224 -267.868C-49.2295 -270.251 -53.1317 -274.844 -58.0573 -274.811V-289.441C-58.0573 -292.2 -58.3334 -295.512 -57.2621 -298.119C-56.9776 -298.812 -56.5595 -299.523 -55.8018 -299.749C-54.7489 -300.061 -53.6424 -299.582 -52.607 -299.435C-50.4767 -299.131 -47.2858 -300.004 -45.8541 -297.859C-44.5995 -295.979 -45.4224 -291.645 -45.4224 -289.441V-267.868ZM-58.5528 -270.843L-66.7283 -272.827V-284.73C-66.7283 -285.975 -67.1643 -288.261 -66.4737 -289.345C-65.2656 -291.241 -60.7745 -292.809 -58.8006 -293.905L-58.5528 -286.218V-270.843ZM-66.7283 -210.586V-219.513L-58.5528 -221.249C-58.5528 -219.543 -57.8158 -215.597 -58.8074 -214.184C-59.2898 -213.496 -60.531 -213.315 -61.278 -213.065C-63.2224 -212.416 -64.8654 -211.36 -66.7283 -210.586ZM-66.7283 -134.458V-193.724V-204.138C-66.7283 -205.454 -67.082 -207.398 -66.4737 -208.601C-65.2717 -210.978 -61.0135 -212.214 -58.5528 -212.322V-153.552V-140.905L-58.8074 -136.092L-61.0302 -135.417L-66.7283 -134.458ZM-58.5528 -90.3185C-60.242 -90.5718 -65.4646 -91.8114 -66.4737 -93.2079C-67.0042 -93.9422 -66.7283 -95.4134 -66.7283 -96.2699V-103.709V-132.97L-58.8006 -134.458C-57.5812 -130.329 -58.5528 -124.635 -58.5528 -120.323V-90.3185ZM-58.8006 -84.3672L-66.4737 -87.2345L-66.7283 -91.5584C-62.5736 -90.9356 -57.3107 -89.4124 -58.8006 -84.3672ZM-58.5528 -0.0561974C-60.5895 -1.20087 -64.7254 -2.08002 -66.0524 -4.03445C-67.4959 -6.16065 -66.7283 -10.2606 -66.7283 -12.7028L-66.7283 -34.0286L-58.8006 -36.5083C-57.785 -33.0694 -58.5528 -28.4405 -58.5528 -24.8535L-58.5528 -0.0561974Z" fill="#304A6E"/>
</svg>
