<svg width="81" height="72" viewBox="0 0 81 72" fill="none" xmlns="http://www.w3.org/2000/svg">
<rect width="81" height="72" fill="#1A1E26"/>
<rect x="-368" y="-305" width="980" height="753" rx="4" fill="white"/>
<path d="M242.811 -32.0268C241.83 -36.937 240.437 -41.4077 236.888 -45.1273C230.172 -52.1658 218.752 -52.021 212.29 -44.6726C207.619 -39.3606 206 -31.925 207.375 -25.0836C208 -21.9747 209.233 -18.9197 211.182 -16.4045C212.614 -14.5556 214.143 -12.963 216.183 -11.7759C227.853 -4.98234 240.426 -13.6278 242.479 -26.0755C242.805 -28.0491 243.214 -30.0129 242.811 -32.0268ZM242.763 153.209C241.321 147.455 239.767 142.215 234.763 138.458C226.609 132.338 215.602 135.2 210.259 143.538C206.919 148.751 206.124 155.465 207.604 161.393C209.601 169.383 216.415 176.454 225.101 176.239C234.386 176.009 240.813 168.253 242.423 159.657C242.816 157.56 243.297 155.34 242.763 153.209ZM206.273 -67.4871L197.106 -64.0154L196.633 -71.9506L196.115 -75.9182C184.296 -51.6908 189.31 -24.5509 183.261 0.953631C182.05 6.05938 179.408 10.4925 176.985 15.0881C173.375 21.9361 170.039 28.9509 166.668 35.9179C165.112 39.1341 163.017 42.4239 161.949 45.8368C158.358 57.3169 159.202 70.6484 159.202 82.5369C159.202 97.4657 159.411 112.08 160.894 126.924C161.735 135.34 162.924 144.276 165.938 152.217C170.89 165.262 177.9 177.659 182.269 190.901C184.033 196.248 184.385 202.05 185.682 207.516C186.969 212.945 188.577 221.845 195.868 219.914L194.877 211.979C197.465 211.341 200.171 211.225 202.804 210.844C203.635 210.723 205.16 210.206 205.841 210.89C206.848 211.9 206.596 215.271 207.017 216.69C208.45 221.521 213.337 223.69 218.164 221.866C219.323 221.428 220.651 220.555 221.186 219.395C221.726 218.223 221.421 216.819 222.651 216.049C224.584 214.838 227.074 215.03 228.622 213.147C230.267 211.145 229.808 208.188 229.808 205.78L229.808 188.669C229.808 186.696 230.51 183.092 229.659 181.305C229.053 180.032 224.464 179.463 223.119 178.951C218.555 177.213 214.061 174.469 210.774 170.815C202.924 162.087 203.634 148.031 211.498 139.571C216.303 134.4 223.006 131.552 229.808 130.148V36.9096V8.64064C229.808 4.93859 230.81 -0.420389 229.73 -3.94933C229.415 -4.97601 227.699 -4.86695 226.835 -5.01871C223.981 -5.52064 221.241 -6.49421 218.66 -7.78685C211.893 -11.1756 206.986 -17.3028 205.644 -24.8358C202.725 -41.227 213.932 -53.5322 229.808 -55.5845V-68.7271C229.808 -70.1704 230.321 -72.8536 229.554 -74.1173C228.176 -76.3862 223.728 -77.2113 221.666 -78.854C220.034 -80.1536 220.647 -82.8963 219.113 -84.4563C217.952 -85.6375 216.604 -85.0419 215.192 -84.8884C212.507 -84.5966 208.407 -85.2358 206.704 -82.6098C205.839 -81.2762 206.025 -79.4146 206.025 -77.9021C206.025 -74.4217 206.273 -70.9729 206.273 -67.4871ZM228.57 -56.8244L220.394 -54.8406L220.642 -77.6542C222.568 -77.044 227.498 -74.9467 228.487 -73.1378C229.145 -71.9344 228.817 -69.5837 228.817 -68.2311C228.817 -64.4181 228.57 -60.6246 228.57 -56.8244ZM228.817 5.41701L223.119 2.9024L220.667 1.81889L220.394 -5.24583L228.57 -3.51004L228.817 5.41701ZM228.817 81.5449L220.394 80.057C221.685 60.7839 220.642 41.1076 220.642 21.7833C220.642 17.2021 221.001 12.4458 220.465 7.89672C220.359 7.00141 219.913 4.00861 221.194 3.80574C222.062 3.66827 223.297 4.27903 224.11 4.55309C225.53 5.03173 227.559 5.7726 228.315 7.17519C228.894 8.24882 228.802 10.4003 228.816 11.6163C228.855 14.839 228.817 18.0644 228.817 21.2873V61.707C228.817 68.2398 228.243 75.0457 228.817 81.5449ZM220.394 125.684L220.642 105.35L220.394 81.7929L220.642 81.5449L228.569 83.0327C228.57 92.5157 228.817 102.046 228.817 111.55C228.817 114.428 229.899 120.09 228.459 122.64C227.614 124.137 222.048 125.515 220.394 125.684ZM228.569 129.156L220.394 131.388V127.42L228.569 124.444V129.156ZM220.642 215.947V208.011V190.901L220.642 179.494L228.569 181.974L228.569 203.3C228.569 205.758 229.328 209.783 228.005 211.956C226.614 214.24 222.658 214.204 220.642 215.947ZM219.898 -58.8081C214.575 -58.3429 211.647 -53.9911 207.264 -51.8649C207.264 -59.1499 207.275 -66.4342 207.264 -73.6865C207.26 -75.8895 206.452 -80.182 207.781 -82.0488C209.107 -83.9109 212.533 -83.1953 214.448 -83.4006C215.429 -83.5057 216.419 -83.9552 217.417 -83.7932C218.243 -83.6592 218.73 -83.094 219.065 -82.3618C220.552 -79.1117 219.936 -75.1289 219.899 -71.7028C219.855 -67.5476 220.57 -62.8827 219.898 -58.8081ZM219.899 -1.27828C201.927 -5.54117 195.442 -29.4362 203.005 -44.6736C206.52 -51.7559 212.522 -56.1578 219.899 -58.5602C221.16 -53.4147 215.741 -52.582 212.466 -49.7749C208.52 -46.3924 205.772 -41.8455 204.703 -36.7385C203.045 -28.8167 204.371 -19.8608 209.494 -13.429C211.308 -11.1519 213.473 -9.32601 215.935 -7.78237C217.02 -7.10176 219.156 -6.50053 219.842 -5.3909C220.425 -4.44798 220.183 -2.28555 219.899 -1.27828ZM220.146 1.94535L206.768 0.209563C207.381 -2.36455 207.381 -6.14337 206.768 -8.71749L211.971 -4.60792L220.146 -0.534358V1.94535ZM207.016 78.5692V1.6974L216.43 2.68927L219.86 3.75635L219.921 8.64064L219.899 19.7994V62.451V75.0976L219.879 79.6506L216.678 79.632L207.016 78.5692ZM207.016 134.116V80.0573L216.678 80.9882L219.841 81.6948L219.902 84.5208L219.898 91.7121V116.509L219.92 122.709L219.87 125.829L215.687 128.226L207.016 134.116ZM219.898 184.702C196.514 178.314 193.84 142.873 213.457 130.845C215.436 129.632 217.626 128.213 219.898 127.668C219.99 128.836 220.53 130.499 219.892 131.583C219.26 132.655 217.443 133.221 216.43 133.887C214.291 135.294 212.244 136.924 210.526 138.827C205.922 143.929 203.88 150.355 204.047 157.177C204.201 163.499 207.27 169.219 211.727 173.535C213.27 175.03 215.082 176.301 216.926 177.399C217.802 177.921 219.104 178.295 219.739 179.13C220.415 180.017 220.21 183.608 219.898 184.702ZM207.016 177.015L212.962 181.866L220.146 185.446C218.714 193.169 219.886 202.137 219.899 209.996C219.902 212.373 221.111 217.125 219.749 219.16C218.02 221.743 211.933 221.509 209.774 219.591C208.628 218.573 208.167 216.652 207.871 215.203C206.788 209.902 207.016 204.462 207.016 199.085V177.015ZM206.52 0.209858L193.142 1.57354L183.48 4.42543C188.168 -13.1278 187.157 -31.4929 189.642 -49.3849C190.374 -54.6617 191.429 -59.9066 192.964 -65.0072C193.588 -67.079 194.095 -69.689 195.372 -71.4545C196.087 -69.0318 196.351 -65.0079 195.867 -62.5274C199.164 -62.3282 203.693 -65.3011 206.768 -66.4951V-56.0802C206.768 -54.5742 207.116 -52.5561 206.622 -51.1207C205.965 -49.2095 204.065 -47.5065 203.116 -45.6653C200.839 -41.2478 199.644 -36.2543 199.585 -31.2828C199.523 -26.1298 200.253 -20.888 202.386 -16.1564C203.427 -13.8477 205.573 -11.8016 206.375 -9.46111C207.293 -6.77667 206.52 -2.62716 206.52 0.209858ZM206.52 78.5695L160.44 81.7932C160.44 70.6256 159.738 58.449 162.674 47.5728C163.541 44.3579 165.342 41.3664 166.815 38.3978C169.228 33.532 171.576 28.6293 174.005 23.7674C176.161 19.4514 178.221 15.0659 180.612 10.8727C181.41 9.47331 181.964 7.21365 183.298 6.24864C189.309 1.89856 199.444 1.6977 206.52 1.6977V78.5695ZM206.371 80.4128C206.974 81.6019 206.52 83.9485 206.52 85.2648V97.1675V122.957C206.52 126.526 207.403 131.439 206.393 134.86C205.836 136.748 203.944 138.33 203.001 140.067C201.325 143.151 199.995 148.437 196.611 150.054C193.005 151.777 188.387 148.015 185.71 145.986C180.298 141.885 175.388 137.175 170.598 132.38C167.501 129.28 163.884 125.65 161.857 121.717C160.637 119.349 161.139 116.109 160.894 113.534C160.226 106.514 160.193 99.5139 160.193 92.456V85.7607C160.193 85.0484 159.991 83.8005 160.624 83.2879C161.549 82.539 164.465 82.8288 165.643 82.7753C169.916 82.5811 174.267 82.4047 178.525 81.999C185.606 81.3246 192.705 80.0693 199.831 80.0573C201.149 80.0573 205.651 78.9925 206.371 80.4128ZM193.638 210.739L194.629 218.923C190.766 218.922 189.394 216.153 188.333 212.723C186.546 206.945 185.673 201.025 184.47 195.117C182.721 186.527 178.39 178.565 174.914 170.568C168.382 155.535 162.392 140.582 161.679 123.949C164.812 126.369 167.402 130.591 170.13 133.539C174.458 138.216 179.436 142.463 184.41 146.432C187.401 148.818 192.718 153.245 196.858 151.283C198.544 150.485 199.433 148.864 200.575 147.506C200.769 148.818 200.193 150.145 200.101 151.474C199.854 155.067 199.739 158.82 200.404 162.385C201.042 165.809 202.248 168.981 203.859 172.056C204.589 173.45 205.95 174.768 206.393 176.271C206.893 177.964 206.52 180.217 206.52 181.974V193.629V204.788C206.52 205.811 206.932 208.012 206.266 208.854C205.716 209.548 203.632 209.427 202.804 209.5C199.806 209.762 196.561 210.035 193.638 210.739ZM200.691 179.247C200.058 176.505 196.68 174.992 194.392 176.865C192.721 178.232 192.354 180.469 192.909 182.47C193.673 185.226 197.079 186.436 199.29 184.564C200.775 183.306 201.112 181.069 200.691 179.247ZM198.409 63.7179C198.08 62.1869 195.364 62.0955 194.778 63.4762C194.047 65.2014 194.047 71.3558 194.778 73.081C195.329 74.3802 197.805 74.3935 198.327 73.0587C198.64 72.26 198.355 71.2221 198.346 70.3866C198.322 68.3326 198.834 65.7026 198.409 63.7179ZM198.445 132.413C198.015 131.006 195.439 130.892 194.813 132.201C193.942 134.02 194.629 137.568 194.629 139.571C194.629 140.301 194.463 141.302 194.778 141.982C195.368 143.251 197.857 143.006 198.333 141.776C198.66 140.931 198.37 139.949 198.349 139.075C198.301 137.088 199.017 134.287 198.445 132.413ZM198.097 -17.148C197.282 -17.2994 196.206 -17.6062 195.451 -17.1033C194.534 -16.4929 194.526 -13.0866 195.274 -12.3379C197.243 -10.3666 198.097 -13.2735 198.097 -14.668V-17.148ZM163.661 128.909C163.705 134.247 165.375 139.704 166.91 144.779C169.814 154.379 173.391 163.122 177.966 172.056C180.262 176.539 182.234 182.327 185.462 186.191C186.075 182.622 185.71 178.658 185.71 175.032C185.71 170.277 186.043 165.376 185.534 160.649C185.26 158.106 186.014 155.134 184.946 152.714C184.039 150.66 182.01 148.922 180.546 147.259C177.606 143.92 174.663 140.564 171.598 137.34C169.148 134.762 166.749 130.679 163.661 128.909ZM185.215 9.63347C183.761 10.3704 182.827 12.027 181.931 13.3531C179.884 16.3823 178.062 19.5664 176.316 22.776C171.555 31.5274 165.951 41.0629 163.531 50.7971C162.544 54.7669 162.449 58.8937 162.152 62.9477C161.853 67.0422 161.679 71.2405 161.679 75.3464C161.679 76.2809 161.253 78.6609 162.076 79.3069C163.133 80.137 167.064 79.2444 168.368 79.0661C173.948 78.3012 179.625 78.2853 185.215 77.5782V9.63347ZM184.967 83.7775C179.748 85.0212 173.486 84.5437 168.12 84.7792C166.971 84.8298 162.888 84.5222 162.181 85.415C161.431 86.3635 162.117 88.3958 162.165 89.4809C162.317 92.9699 161.927 96.4193 161.927 99.8958C161.927 106.05 160.94 113.848 163.014 119.734C165.25 126.082 171.79 131.5 177.039 135.359C179.477 137.152 182.235 140.038 185.215 140.811V101.88V89.9769L184.967 83.7775ZM123.031 275.461C126.567 274.618 130.799 275.213 134.427 275.213H156.724C159.687 275.213 163.247 275.751 166.138 275.082C170.764 274.012 169.392 269.206 170.747 266.075C171.265 264.878 172.844 264.789 173.325 263.31C173.82 261.786 173.751 259.555 173.063 258.103C172.648 257.229 171.539 256.398 171.577 255.375C171.656 253.308 173.857 251.519 174.074 249.424C174.341 246.855 171.038 242.53 169.915 240.249C169.502 239.41 169.093 238.053 168.271 237.528C167.01 236.723 164.131 237.273 162.67 237.273H148.549H95.0361H79.4283C77.9735 237.273 74.8512 236.682 73.6234 237.528C72.7889 238.103 72.6079 239.609 72.2658 240.497C71.3684 242.825 68.6451 247.451 69.1566 249.92C69.5275 251.71 71.6113 253.486 71.6074 255.304C71.6059 256.12 70.6098 256.914 70.2418 257.607C69.4979 259.008 69.2831 261.023 69.6505 262.566C70.0354 264.183 71.4824 264.678 72.1165 266.049C73.4925 269.024 73.0545 272.839 76.4554 274.648C79.1711 276.092 83.8565 275.213 86.8606 275.213H110.892C113.704 275.213 118.687 274.238 121.26 275.363C122.343 275.836 122.04 277.485 122.04 278.437C122.04 280.129 122.378 282.243 121.934 283.882C121.606 285.09 120.323 285.939 121.128 287.307C121.879 288.584 123.626 287.944 123.834 286.619C123.989 285.623 123.228 284.647 123.158 283.644C122.977 281.021 123.579 277.985 123.031 275.461ZM142.603 -110.634C148.517 -110.634 154.513 -110.527 160.44 -110.382C162.891 -110.322 165.887 -109.455 168.116 -110.88C172.011 -113.369 170.653 -119.453 170.869 -123.277C170.977 -125.193 173.428 -126.541 173.744 -128.736C173.945 -130.134 173.81 -132.012 172.876 -133.144C172.348 -133.783 171.343 -133.967 170.995 -134.743C169.642 -137.761 170.819 -141.652 167.129 -143.501C165.444 -144.346 162.778 -143.862 160.936 -143.862H147.31L98.2568 -143.862H83.3922C81.3585 -143.862 78.5497 -144.364 76.7033 -143.386C73.0654 -141.459 73.8366 -137.731 72.2371 -134.697C71.1514 -132.637 69.3258 -131.954 69.5932 -129.232C69.8341 -126.779 72.0374 -125.241 72.2293 -123.032C72.5275 -119.602 71.3556 -115.215 73.3535 -112.144C75.6969 -108.542 83.8432 -110.138 87.6039 -110.138C91.3372 -110.138 96.6321 -109.158 100.202 -110.217C101.553 -110.617 100.979 -112.73 102.72 -113.057C105.124 -113.509 107.951 -113.113 110.396 -113.113H125.756H138.391C140.293 -113.113 142.259 -112.855 142.603 -110.634ZM159.945 247.192L167.377 238.761H167.873C169.763 242.754 173.889 247.609 171.776 251.904C170.993 253.494 170.427 255.908 168.142 255.296C167.064 255.008 166.165 253.694 165.441 252.905C163.666 250.972 161.929 248.911 159.945 247.192ZM172.494 -130.967C172.875 -129.119 172.324 -126.4 170.349 -125.662C169.015 -125.163 167.052 -125.512 165.643 -125.512C161.914 -125.512 157.945 -125.878 154.247 -125.441C147.38 -124.63 140.106 -125.264 133.189 -125.264H93.0542C89.445 -125.264 85.754 -125.489 82.1535 -125.242C79.4896 -125.059 75.8871 -124.37 73.2768 -125.095C71.8325 -125.496 71.0299 -127.391 70.8319 -128.736C70.6436 -130.015 70.7465 -131.739 72.0221 -132.449C73.264 -133.139 75.565 -132.703 76.9509 -132.703H88.8426L150.035 -132.703H167.129C168.967 -132.703 172 -133.367 172.494 -130.967ZM172.486 260.831C172.549 261.856 172.353 263.4 171.294 263.87C169.915 264.482 167.626 264.054 166.138 264.054H153.999H92.8064H75.9599C73.9696 264.054 70.9967 264.558 70.7717 261.823C70.6331 260.138 70.8406 257.82 72.5147 256.907C73.8038 256.204 76.0184 256.615 77.4464 256.615H89.0903H150.531H163.413C165.352 256.615 167.72 256.248 169.607 256.719C171.466 257.183 172.376 259.048 172.486 260.831ZM169.854 -134.191L104.698 -134.191H84.1355L73.7303 -133.943C73.0532 -136.627 74.9818 -141.396 77.6951 -142.347C79.3484 -142.927 81.4162 -142.622 83.1445 -142.622H93.7976H149.044H162.175C163.963 -142.622 166.164 -142.917 167.578 -141.574C169.633 -139.622 169.26 -136.69 169.854 -134.191ZM165.643 -111.378L165.395 -124.024H169.607C169.936 -119.846 170.984 -112.621 165.643 -111.378ZM73.2349 265.542L73.4827 265.294L87.3563 265.542H113.617H149.54L169.359 265.294C170.009 267.66 169.112 272.385 166.612 273.475C165.157 274.109 162.99 273.723 161.431 273.725H150.283H93.0544C89.348 273.725 85.6086 273.581 81.9059 273.744C80.001 273.828 77.8045 274.183 76.2185 272.884C74.1852 271.217 73.7074 267.979 73.2349 265.542ZM166.882 238.761L159.697 246.448H159.202L152.265 238.761L162.175 238.513L166.882 238.761ZM166.882 255.375H151.769C153.305 252.492 157.04 249.065 159.697 247.192L166.882 255.375ZM77.1988 -99.7229V-91.0439H100.239L147.31 -91.0439L160.44 -91.0439L165.246 -91.1303L165.643 -93.0276L165.494 -99.3576L160.44 -99.7229L144.337 -99.7229L77.1988 -99.7229ZM165.395 -73.1898C157.837 -74.6151 150.163 -75.4032 142.603 -76.8139C140.841 -77.1426 139.566 -78.7242 137.896 -78.9637C133.68 -79.5683 128.798 -78.8931 124.518 -78.8931C118.175 -78.8931 111.507 -79.4957 105.194 -78.867C103.396 -78.688 102.02 -77.2164 100.239 -76.827C93.0277 -75.2499 84.8088 -73.263 77.4466 -72.9416L77.4466 -21.6111C77.4466 -13.214 76.6955 -4.42711 77.4723 3.93016C77.739 6.7985 78.8741 9.72754 79.4239 12.5672C81.3734 22.6364 84.0558 32.6364 85.6918 42.7568C86.6497 48.6825 86.3607 54.9746 86.6228 60.9641C87.0711 71.2106 87.4056 81.4373 87.3561 91.7128C87.2869 106.055 87.4383 120.832 86.0755 135.108C84.3196 153.502 79.0772 171.53 77.241 189.91C76.2466 199.865 77.1988 210.402 77.1988 220.411C84.9869 221.418 92.6524 223.33 100.487 224.089C107.292 224.748 114.457 224.131 121.297 224.131C128.732 224.131 136.453 224.716 143.842 223.924C149.087 223.362 154.274 222.586 159.449 221.552C160.894 221.263 163.908 221.265 164.992 220.199C165.86 219.345 165.395 216.357 165.395 215.204V200.821C165.395 179.927 159.881 158.972 156.829 138.332C156.072 133.216 156.197 128.107 155.971 122.958C155.458 111.224 155.257 99.5131 155.238 87.7456C155.22 76.6925 155.203 65.5674 155.959 54.5171C156.24 50.4139 155.921 46.1946 156.55 42.1184C158.074 32.2391 161.181 22.3443 163.471 12.6096C164.063 10.0947 165.042 7.48299 165.35 4.92234C166.187 -2.05891 165.395 -9.61588 165.395 -16.6514C165.395 -35.4246 164.506 -54.4428 165.395 -73.1898ZM164.9 -111.377L162.175 -111.625V-111.873H164.652V-123.776H153.751L162.175 -124.272L164.822 -123.697L164.9 -120.056V-111.377ZM77.6943 -91.5393V-99.2266L165.148 -99.2266C165.148 -97.581 165.925 -93.2414 164.893 -91.937C164.136 -90.9805 160.818 -91.5393 159.697 -91.5393L143.842 -91.5393L77.6943 -91.5393ZM164.738 -139.394C163.813 -142.255 155.105 -141.845 156.371 -137.415C157.27 -134.268 166.287 -134.604 164.738 -139.394ZM164.421 -129.714C164.001 -131.266 161.775 -130.532 162.329 -128.998C162.848 -127.559 164.8 -128.316 164.421 -129.714ZM164.468 268.777C163.91 267.407 162.413 267.527 161.184 267.526C158.699 267.526 154.913 267.8 156.413 271.483C157.002 272.931 158.663 272.734 159.945 272.734C162.453 272.734 165.937 272.385 164.468 268.777ZM164.297 -138.899C165.259 -135.443 157.438 -135.432 156.833 -137.668C155.877 -141.199 163.664 -141.171 164.297 -138.899ZM164.219 260.143C163.566 258.683 161.807 259.995 162.328 261.289C162.931 262.789 164.831 261.511 164.219 260.143ZM164.277 269.758C164.858 273.179 157.236 273.259 156.781 270.745C156.139 267.196 163.855 267.268 164.277 269.758ZM164.157 3.68137H163.909L148.253 -47.1533L142.39 -66.2472L139.382 -76.4141C144.798 -74.2943 151.458 -73.9709 157.22 -73.1581C158.644 -72.9572 162.994 -72.9576 163.902 -71.8011C164.71 -70.7724 164.157 -67.7618 164.157 -66.4952V-52.1127V3.68137ZM164.049 190.38C163.997 191.7 161.693 192.671 160.688 193.225C156.917 195.305 152.997 196.78 148.796 197.702C139.511 199.74 129.517 198.837 120.058 198.837C112.212 198.837 103.737 199.679 96.0273 197.987C91.3446 196.96 86.6819 195.554 82.4014 193.354C81.0579 192.664 78.508 191.956 78.4742 190.156C78.403 186.355 79.7102 182.246 80.3109 178.503C81.8092 169.165 83.4345 159.838 84.8115 150.482C85.2991 147.169 85.9058 143.88 86.3653 140.563C86.5055 139.551 86.5141 137.3 87.2924 136.58C88.1027 135.829 90.0226 135.694 91.0724 135.461C94.2588 134.752 97.4938 133.969 100.734 133.581C106.962 132.835 113.294 133.124 119.563 133.124C126.323 133.124 133.142 132.877 139.878 133.349C143.782 133.623 147.477 134.543 151.274 135.441C152.398 135.707 154.451 135.709 155.197 136.722C155.922 137.706 155.857 139.633 156.077 140.811C156.737 144.339 157.236 147.927 157.783 151.474C159.149 160.322 160.555 169.177 162.035 178.007C162.683 181.876 164.204 186.465 164.049 190.38ZM78.4375 219.418C77.2031 212.763 78.1898 205.11 78.1898 198.341C78.1898 196.357 78.5659 194.07 78.1898 192.141C80.5476 191.984 83.8723 194.622 86.1175 195.514C91.2545 197.554 96.4855 198.768 101.973 199.29C109.916 200.047 118.27 199.333 126.252 199.333C133.055 199.333 140.366 200.054 147.062 198.672C150.801 197.9 154.514 196.825 157.963 195.171C159.985 194.201 162.015 192.45 164.157 191.894V211.731C164.157 213.379 164.927 217.672 163.902 218.99C163.035 220.105 159.773 220.098 158.458 220.361C153.011 221.451 147.418 222.509 141.86 222.646C129.207 222.957 116.11 223.735 103.46 222.868C95.0838 222.294 86.7781 219.777 78.4375 219.418ZM163.166 3.43364C156.004 0.80938 149.941 -4.40036 142.355 -6.22736C136.825 -7.5592 130.427 -6.73323 124.765 -6.73323C116.263 -6.73323 106.466 -8.09148 98.2569 -5.63267C91.3282 -3.55728 85.7118 0.932577 79.1807 3.68166C80.0528 -2.76895 83.2829 -9.72372 85.3556 -15.9083C89.6002 -28.5733 93.3313 -41.4121 97.5139 -54.0962C99.3346 -59.6176 101.127 -65.1501 102.824 -70.7104C103.521 -72.9942 104.597 -75.2867 104.946 -77.6537H119.563C119.501 -76.2249 118.123 -73.7232 118.773 -72.456C120.499 -69.0922 125.592 -68.6193 126.822 -72.704C127.205 -73.9744 126.148 -76.1796 125.756 -77.4057L135.171 -77.6537L138.427 -77.0789L140.746 -69.9665L145.929 -53.1043L158.142 -13.4285L163.166 3.43364ZM160.936 2.93774C156.538 2.49942 152.261 0.685155 147.806 0.252119C141.232 -0.386835 134.582 0.120143 127.986 -0.0415855C117.63 -0.295486 106.843 -1.26005 96.5227 -0.243855C91.3512 0.265359 86.4419 2.03112 81.4104 3.18569V2.93774C87.8641 -1.01575 95.1666 -4.93376 102.716 -6.15676C110.006 -7.33774 118.364 -6.23733 125.756 -6.23733C130.417 -6.23733 135.513 -6.82108 140.125 -6.16286C144.674 -5.51386 148.895 -3.25905 153.008 -1.35416C155.603 -0.152507 158.73 1.10799 160.936 2.93774ZM151.522 254.383V239.256L157.22 244.712L158.726 246.944L156.972 249.175L151.522 254.383ZM158.353 169.328C157.334 161.555 155.868 153.887 153.968 146.266C153.495 144.372 153.309 139.888 151.869 138.544C151.051 137.78 149.116 137.704 148.053 137.488C144.866 136.841 141.663 136.101 138.391 136.1H104.698C101.285 136.1 97.8963 136.628 94.5408 137.234C93.513 137.42 91.5445 137.397 90.8084 138.229C90.1091 139.02 90.0385 140.562 89.8329 141.555C89.3182 144.042 88.6977 146.518 88.1289 148.994C86.1147 157.762 84.3833 166.515 84.3833 175.527C84.3833 177.826 84.0349 180.438 84.4201 182.704C84.7069 184.391 88.5713 183.462 89.8337 183.462H107.176H145.576C148.711 183.462 151.856 183.393 154.99 183.462C155.834 183.482 157.567 184.03 158.204 183.269C158.845 182.503 158.458 180.435 158.458 179.491C158.458 176.159 158.787 172.629 158.353 169.324M155.238 134.856L139.878 131.89L118.324 131.88L102.964 131.923L87.1085 134.856L87.6138 125.433L88.1004 107.331L88.3375 70.6312L86.8608 42.8582L100.734 40.8966L118.82 40.8743L141.364 40.884L155.238 42.8579L154.003 74.8465L154.491 111.299L155.238 134.856ZM153.008 -123.78H151.769V-124.028L153.008 -123.78ZM151.274 -122.292H91.0724V-123.78L151.274 -124.028V-122.292ZM151.123 -121.222C151.905 -119.562 149.779 -119.565 148.796 -119.565H139.135H102.716H94.0453C93.2603 -119.565 91.6844 -119.266 91.2575 -120.139C90.5062 -121.676 92.3119 -121.794 93.3021 -121.796H101.973H138.144H147.806C148.651 -121.796 150.676 -122.171 151.123 -121.222ZM91.0724 -119.069H151.274L150.877 -117.092L147.806 -116.837H140.125H103.707H94.7885L91.4696 -117.092L91.0724 -119.069ZM151.274 -111.878H143.594C142.25 -115.276 137.873 -114.605 134.923 -114.605H109.158C106.051 -114.605 100.737 -115.749 99.9911 -111.63L91.3201 -111.382C91.0446 -112.315 90.5637 -115.391 91.4723 -116.09C92.2134 -116.66 93.9059 -116.341 94.7885 -116.341H103.212H139.63H148.053C148.834 -116.341 150.466 -116.643 151.019 -115.943C151.688 -115.098 151.274 -112.911 151.274 -111.878ZM150.531 243.716C147.163 244.713 142.647 243.965 139.135 243.965C139.098 240.896 134.986 241.981 132.693 241.981H111.387C109.003 241.981 103.993 240.781 103.955 243.965H91.8156L92.0703 238.907L95.7795 238.509H106.185H150.283L150.531 243.716ZM150.531 251.9H136.409H107.919L92.0634 252.148L91.8156 244.46H103.955C104.16 247.147 108.412 246.196 110.396 246.196H131.702C133.781 246.196 138.922 247.254 139.135 244.46H147.31L150.276 244.858L150.531 251.9ZM150.531 255.123L144.089 255.371H131.95H91.8156V252.644H136.657H146.567L150.133 252.898L150.531 255.123ZM142.498 63.1918C142.08 60.047 141.109 57.1486 138.144 55.5134C135.695 54.1633 132.91 54.5127 130.216 54.5127L115.351 54.5127C111.57 54.5127 106.471 53.5825 103.212 55.9108C98.8426 59.0321 99.4957 64.6858 99.4957 69.3911C99.4957 71.3381 99.2945 73.4128 99.57 75.3425C101.108 86.1171 113.316 83.5256 121.297 83.5256C126.023 83.5256 133.316 84.8933 137.648 82.841C144.054 79.806 143.283 69.1026 142.498 63.1918ZM142.037 63.1918C142.71 68.8296 143.596 79.1498 137.648 82.1572C133.227 84.3926 125.905 83.0297 121.049 83.0297C114.564 83.0297 101.511 85.5551 100.284 76.3344C99.5345 70.7063 98.2223 59.8386 103.749 56.3063C106.955 54.2576 111.483 55.0087 115.103 55.0087H128.482C135.051 55.0087 141.086 55.2383 142.037 63.1918ZM138.391 245.7H104.698L104.451 242.725L115.351 242.477H138.391V245.7ZM136.155 -130.291C135.229 -131.426 133.579 -129.698 134.577 -128.604C135.598 -127.485 136.942 -129.325 136.155 -130.291ZM136.222 260.14C135.6 258.702 133.602 259.975 134.247 261.286C134.973 262.76 136.812 261.507 136.222 260.14ZM127.738 114.77C125.138 116.038 122.878 119.801 120.979 121.962C120.071 122.994 119.1 123.796 118.82 125.185L124.519 118.843L127.738 114.77ZM120.802 -77.1612H124.765C125.056 -75.8926 126.085 -73.9265 125.349 -72.7014C124.032 -70.5075 120.753 -70.3974 120.003 -73.1973C119.69 -74.3652 120.54 -76.0191 120.802 -77.1612ZM108.423 -129.483C108.335 -130.907 106.258 -130.964 106.258 -129.483C106.258 -127.9 108.524 -127.847 108.423 -129.483ZM108.227 260.139C107.595 258.671 105.589 259.925 106.274 261.286C107.014 262.754 108.811 261.496 108.227 260.139ZM104.451 -76.6653L101.223 -66.9943L95.3473 -48.6443L78.933 2.68622H78.6853L78.6853 -50.628V-65.2585C78.6853 -66.8759 78.0986 -69.8978 78.8348 -71.3503C79.4208 -72.5068 83.4301 -72.5509 84.6311 -72.7597C89.7474 -73.6495 94.8512 -74.714 99.9911 -75.458C101.386 -75.6598 103.153 -77.0205 104.451 -76.6653ZM90.8247 254.875C88.4191 253.752 86.7235 251.025 84.8788 249.172C84.3184 248.609 83.2143 247.819 83.1922 246.941C83.1693 246.031 84.3581 245.18 84.931 244.597C86.6005 242.898 88.5303 239.743 90.8247 239.005V254.875ZM90.5769 -111.63L78.4375 -111.382C77.4421 -114.752 78.1898 -119.272 78.1898 -122.788H78.4375V-111.878C81.8534 -111.878 87.4425 -112.946 90.5769 -111.63ZM89.8337 239.005C87.5479 241.293 85.0997 245.069 82.1537 246.444L75.2169 238.757L85.8698 238.509L89.8337 239.005ZM89.8337 255.371H74.9691C76.0332 253.087 80.439 248.127 82.8969 247.436L89.8337 255.371ZM86.2026 -139.154C85.2628 -142.234 76.3747 -141.959 77.7535 -137.42C78.6989 -134.308 87.5513 -134.734 86.2026 -139.154ZM85.9336 269.011C84.795 266.071 76.0543 266.667 77.6582 271.237C78.6769 274.14 87.7321 273.654 85.9336 269.011ZM85.6372 -137.672C85.2114 -135.529 77.5681 -135.3 78.2465 -138.896C78.679 -141.188 86.3418 -141.218 85.6372 -137.672ZM85.4946 269.272C86.7548 273.176 78.8701 273.288 78.1449 270.979C76.9693 267.237 84.8616 267.312 85.4946 269.272ZM46.7264 -75.9213H46.4787L45.4877 -64.0186C43.3615 -65.2298 38.1157 -65.9713 36.8236 -68.0543C36.1604 -69.1235 36.7563 -70.7951 36.8069 -71.9538C36.9351 -74.8822 37.6987 -79.9896 36.2214 -82.5934C34.6803 -85.3096 30.2491 -84.5522 27.6502 -84.9229C26.3512 -85.1081 25.174 -85.5177 24.0094 -84.6305C22.4403 -83.4351 22.098 -80.7324 21.9521 -78.897L15.2631 -75.5112L13.1829 -73.8568L13.0334 -68.4821V-55.5875C28.2144 -53.6571 39.9375 -42.0454 37.4512 -26.0787C36.2248 -18.2029 31.8114 -11.6947 24.6773 -8.00362C21.8829 -6.55774 19.0578 -5.71815 16.0063 -5.03062C15.1485 -4.83735 13.4251 -4.97408 13.1121 -3.95238C12.0313 -0.423517 13.0334 4.93561 13.0334 8.63758V36.9066V130.145C20.1478 131.614 26.8791 134.569 31.8196 140.064C39.1765 148.246 39.9703 161.995 32.4768 170.387C28.9525 174.334 24.6112 177.022 19.7224 178.945C18.3818 179.472 13.7975 180.035 13.1829 181.305C12.17 183.398 13.1729 187.407 13.2714 189.658C13.5588 196.228 12.4454 202.98 13.0754 209.496C13.3076 211.898 14.1702 213.724 16.5018 214.699C17.8033 215.243 19.5667 215.356 20.6347 216.352C22.2476 217.857 21.5121 220.18 23.9341 221.509C26.6345 222.99 32.4278 222.759 34.4289 220.146C36.2994 217.703 36.7552 213.471 36.8167 210.488L47.9651 211.976L46.9742 219.663C54.1907 223.709 56.5185 210.546 57.5405 206.025C58.6811 200.979 58.9856 195.541 60.7086 190.65C66.3272 174.702 75.9806 159.959 79.4292 143.287C83.6535 122.866 83.672 102.501 83.6401 81.7898C83.6223 70.2118 84.5207 57.2776 81.0547 46.0816C80.0704 42.9022 78.1447 39.9026 76.7094 36.9066C73.69 30.6036 70.7219 24.2433 67.463 18.0606C64.1682 11.8097 60.7629 5.92592 59.2187 -1.03339C53.78 -25.5448 59.2068 -53.1128 46.7264 -75.9213ZM36.3212 78.3182L36.569 69.6391V53.5209V1.69435C42.2781 1.69435 47.9136 2.21041 53.4155 3.82085C55.4963 4.42997 58.0667 5.00309 59.7888 6.39742C60.9364 7.32665 61.4853 9.33137 62.1505 10.6214C63.732 13.6882 65.4014 16.709 66.9427 19.7964C69.5797 25.0786 72.1507 30.3875 74.7879 35.6668C76.5433 39.1809 78.7717 42.8244 79.9517 46.5775C81.0904 50.1996 81.3445 53.9944 81.7002 57.7364C82.2512 63.5316 82.2629 69.2757 82.405 75.0946C82.4409 76.564 83.3958 80.1562 82.3937 81.3922C81.8548 82.0571 80.4042 81.5711 79.6762 81.5445C77.034 81.4483 74.3889 81.1716 71.7484 81.0557C63.6865 80.7018 55.7438 79.6213 47.7174 78.8562C44.1088 78.5123 39.7853 79.3431 36.3212 78.3182ZM36.3212 80.054C39.2807 79.3488 42.7319 80.0741 45.7354 80.2798C53.715 80.8268 61.764 82.2345 69.7665 82.2859C72.8475 82.306 76.119 82.4909 79.1807 82.8525C79.9748 82.9463 81.5838 82.7714 82.2175 83.2845C82.9313 83.8626 82.6491 85.4491 82.6491 86.2534V94.1885C82.6491 99.9228 82.4133 105.587 82.1634 111.299C82.0352 114.229 82.4415 118.199 81.4555 120.97C80.6071 123.354 78.4557 125.525 76.8451 127.417C70.711 134.624 63.5515 141.404 55.8929 146.969C53.2459 148.893 48.7292 151.976 45.4913 149.608C42.6004 147.494 41.2768 142.629 39.5988 139.568C38.751 138.021 36.98 136.528 36.4904 134.853C36.126 133.605 36.5689 131.941 36.5689 130.641V120.474V93.4446C36.5689 89.2073 37.3026 84.1798 36.3212 80.054ZM72.9871 255.371L70.4105 249.668L71.4217 246.196L74.2259 238.757C76.3201 240.234 77.8738 242.407 79.6762 244.212C80.3091 244.846 81.5646 245.733 81.6777 246.692C81.7891 247.637 80.5653 248.538 79.9983 249.149C78.1945 251.093 75.7004 254.952 72.9871 255.371ZM57.6271 9.62953V77.5743L81.1627 79.5581C81.1627 69.8894 81.5764 59.4932 79.2067 50.0492C77.061 41.4978 72.0253 32.9588 67.861 25.2519C65.8231 21.4802 63.8169 17.6857 61.4683 14.0931C60.4275 12.5009 59.3346 10.5623 57.6271 9.62953ZM48.2129 218.919C48.4325 217.18 49.8907 212.554 48.9456 211.063C48.3879 210.183 46.4069 210.312 45.4877 210.202C42.4289 209.834 39.3771 209.387 36.3212 209L36.3212 187.179C36.3212 183.821 35.6934 179.756 36.4162 176.474C36.9755 173.934 39.6486 171.348 40.6684 168.829C43.329 162.254 43.7901 154.351 42.0193 147.503C44.0349 148.647 44.5665 151.171 47.2219 151.637C51.3997 152.37 55.6105 148.653 58.6181 146.264C63.6235 142.287 68.6123 138.072 72.9487 133.359C75.3915 130.704 78.1026 125.993 81.1627 124.193C80.8147 141.063 74.0836 156.363 67.5687 171.556C64.1178 179.604 59.8938 187.438 58.274 196.106C57.1572 202.082 56.2639 208.232 54.1453 213.96C53.0882 216.818 51.5267 219.311 48.2129 218.919ZM57.6271 84.0216V140.808C60.8776 140.16 64.2645 136.637 66.7936 134.608C71.588 130.763 77.4046 126.117 79.7355 120.226C82.0903 114.274 80.9149 106.176 80.9149 99.8919C80.9149 96.4999 80.6736 93.1084 80.7945 89.7286C80.834 88.6236 81.3899 86.3331 80.6603 85.4111C79.9629 84.5296 75.8561 84.7974 74.7213 84.7691C69.0177 84.6271 63.3414 84.0216 57.6271 84.0216ZM80.1646 -130.149C79.3263 -131.405 77.7565 -129.961 78.4455 -128.778C79.2799 -127.344 80.9848 -128.92 80.1646 -130.149ZM80.1602 260.12C79.3358 258.625 77.4888 260.183 78.3067 261.492C79.1208 262.795 80.8293 261.333 80.1602 260.12ZM79.1806 128.905C77.2514 130.034 75.7406 132.478 74.2197 134.112C70.4245 138.189 66.6786 142.321 63.0068 146.511C61.3532 148.398 58.5042 150.76 57.7532 153.206C56.7403 156.505 57.3793 160.702 57.3793 164.117V185.939C58.723 184.783 59.3828 182.794 60.1712 181.227C61.5099 178.566 62.9194 175.913 64.336 173.292C69.4112 163.9 73.336 154.295 76.2425 144.031C77.6291 139.135 79.1806 134.017 79.1806 128.905ZM73.4826 -123.78C74.4316 -123.78 76.7864 -124.208 77.4396 -123.383C77.9201 -122.775 77.6942 -121.526 77.6942 -120.805V-114.357C77.6942 -113.649 77.9255 -112.372 77.4396 -111.783C76.7772 -110.98 75.3037 -111.907 74.7742 -112.429C73.2021 -113.979 73.4826 -116.56 73.4826 -118.573V-123.78ZM59.3612 4.67003C53.9406 2.44407 48.5722 1.21593 42.7624 0.525277C40.6525 0.274427 38.3637 0.605474 36.3211 0.206509C37.0512 -2.86261 35.6314 -6.54941 36.5337 -9.46446C37.2061 -11.6369 39.3073 -13.5504 40.2778 -15.6638C42.7757 -21.1037 43.6434 -27.0636 43.2358 -33.022C42.948 -37.2274 41.9921 -41.6922 39.9599 -45.4206C38.9201 -47.3282 36.9734 -49.1085 36.2537 -51.124C35.7376 -52.5691 36.0734 -54.5653 36.0734 -56.0835V-66.2504L46.9741 -62.5308L47.2218 -71.4578L49.4161 -66.7464L52.7341 -52.6119L55.9347 -17.1516L57.5314 -3.51309L59.3612 4.67003ZM47.9582 63.1181C47.2155 62.1343 45.1259 62.3411 44.6461 63.4729C43.8361 65.3837 44.4966 68.8105 44.4966 70.879C44.4966 71.6115 44.28 72.808 44.7513 73.4323C45.4939 74.4162 47.5835 74.2094 48.0633 73.0776C48.8733 71.1668 48.2128 67.74 48.2128 65.6715C48.2128 64.939 48.4295 63.7425 47.9582 63.1181ZM47.9582 131.987C47.2937 131.007 45.1449 131.072 44.6461 132.185C43.7908 134.094 44.4965 137.729 44.4966 139.816C44.4967 140.527 44.3243 141.567 44.7513 142.188C45.3824 143.106 47.5921 143.037 48.0633 141.991C48.9208 140.087 48.2129 136.443 48.2128 134.36C48.2127 133.645 48.3827 132.613 47.9582 131.987ZM47.9649 -17.1516C47.1498 -17.303 46.0734 -17.6099 45.3184 -17.107C44.423 -16.5108 44.4008 -13.1446 45.0363 -12.3415C46.7964 -10.117 47.9648 -13.3901 47.9649 -14.6716V-17.1516ZM22.9428 -1.28104C22.9428 -2.42548 22.5201 -4.61588 23.1975 -5.58655C24.0436 -6.79914 26.6414 -7.57348 27.8977 -8.39686C30.4545 -10.0725 32.8539 -12.3485 34.5267 -14.9196C40.4522 -24.027 40.6059 -37.7378 33.716 -46.4122C30.7444 -50.1536 26.8617 -52.4525 22.6951 -54.5954L22.9428 -58.5629C30.5962 -56.389 36.9095 -51.25 40.2076 -43.9325C47.0843 -28.6752 40.8488 -5.42944 22.9428 -1.28104ZM22.9428 184.699C22.9428 183.21 22.4546 180.698 23.0923 179.341C23.5454 178.376 25.2886 177.809 26.1635 177.294C28.041 176.189 29.8079 174.81 31.3661 173.289C35.6544 169.102 38.7686 163.566 38.7982 157.422C38.8322 150.353 37.1658 144.257 32.4217 138.846C30.7696 136.962 28.7751 135.344 26.659 134.011C25.6568 133.379 23.8456 132.805 23.1975 131.784C22.564 130.786 22.9428 128.81 22.9428 127.665C25.4975 128.273 27.9592 129.862 30.1274 131.302C48.9358 143.799 46.1641 178.471 22.9428 184.699ZM35.926 -30.2939C35.7278 -35.7833 33.7927 -41.4333 29.8376 -45.378C22.3447 -52.8512 10.0803 -51.552 4.0576 -42.9406C0.824288 -38.3175 -0.0820837 -33.0967 0.160231 -27.5662C0.275848 -24.9272 1.11021 -22.2627 2.20908 -19.8791C3.21556 -17.6958 4.67364 -15.61 6.45284 -13.991C8.09548 -12.4963 9.97504 -11.2464 12.0422 -10.4121C24.8679 -5.23557 36.3731 -17.9101 35.926 -30.2939ZM22.9428 1.9426V-0.785064C28.2576 -2.0164 31.5759 -5.72395 35.8255 -8.72024L35.8292 -2.2729L35.8089 0.0572051L32.6049 0.597744L22.9428 1.9426ZM36.0733 78.3185L22.9429 80.0543V3.18249L35.8255 1.69465V52.7772V69.1435L36.0733 78.3185ZM35.5778 134.36C33.281 131.725 30.1978 129.83 27.1545 128.181C26.1307 127.626 23.603 126.907 23.0924 125.832C21.9852 123.501 22.9429 118.597 22.9429 116.01V91.957V84.5178C22.9429 83.7429 22.6842 82.3421 23.1975 81.6918C23.6986 81.0569 25.4098 81.0831 26.1635 80.9507C29.0878 80.4371 33.1531 79.5597 36.0733 80.0543L35.8255 93.4448V119.978L35.8263 129.897L35.5778 134.36ZM35.7192 152.711C35.264 149.529 34.3209 146.54 32.6481 143.783C26.9848 134.452 14.42 132.136 6.34755 139.838C1.37879 144.579 -0.732311 152.19 0.224715 158.91C0.639756 161.824 1.59352 164.829 3.13931 167.341C4.44561 169.464 6.08799 171.314 8.07811 172.821C9.62837 173.996 11.4179 174.948 13.2807 175.514C26.9359 179.67 37.5235 165.322 35.7192 152.711ZM22.9427 185.195C28.2931 183.923 31.5631 180.017 35.8253 177.012C35.8253 187.344 35.8749 197.677 35.8251 208.009C35.81 211.161 35.696 217.562 33.0063 219.731C30.9731 221.37 23.8574 221.952 23.0214 218.67C22.2168 215.512 22.9427 211.271 22.9427 208.009L22.9427 185.195ZM35.5776 -51.8676C31.7705 -54.2512 27.8683 -58.8435 22.9427 -58.8109V-73.4413C22.9427 -76.2003 22.6666 -79.5125 23.7379 -82.1195C24.0224 -82.8117 24.4405 -83.5233 25.1982 -83.7485C26.2511 -84.0614 27.3576 -83.5824 28.393 -83.4347C30.5233 -83.1309 33.7142 -84.0036 35.1459 -81.8589C36.4005 -79.9794 35.5776 -75.6454 35.5776 -73.4413V-51.8676ZM22.4472 -54.8433L14.2717 -56.8271V-68.7299C14.2717 -69.9753 13.8357 -72.2605 14.5263 -73.3446C15.7344 -75.2409 20.2255 -76.8091 22.1994 -77.9049L22.4472 -70.2177V-54.8433ZM14.2717 5.41425V-3.5128L22.4472 -5.24859C22.4472 -3.54322 23.1842 0.402678 22.1926 1.81613C21.7102 2.50373 20.469 2.68503 19.722 2.93454C17.7776 3.58383 16.1346 4.64035 14.2717 5.41425ZM14.2717 81.5421V22.2765V11.8616C14.2717 10.5457 13.918 8.60173 14.5263 7.39896C15.7283 5.02221 19.9865 3.78581 22.4472 3.67846V62.4482V75.0949L22.1926 79.9083L19.9698 80.5827L14.2717 81.5421ZM22.4472 125.681C20.758 125.428 15.5354 124.189 14.5263 122.792C13.9958 122.058 14.2717 120.587 14.2717 119.73V112.291V83.03L22.1994 81.5421C23.4188 85.6711 22.4472 91.3654 22.4472 95.6766V125.681ZM22.1994 131.633L14.5263 128.765L14.2717 124.442C18.4264 125.064 23.6893 126.588 22.1994 131.633ZM22.4472 215.944C20.4105 214.799 16.2746 213.92 14.9476 211.966C13.5041 209.839 14.2717 205.739 14.2717 203.297L14.2717 181.971L22.1994 179.492C23.215 182.931 22.4472 187.56 22.4472 191.146L22.4472 215.944Z" fill="#304A6E"/>
</svg>
